<?xml version="1.0" encoding="UTF-8" standalone="no"?>
<!DOCTYPE svg PUBLIC "-//W3C//DTD SVG 1.1//EN"
 "http://www.w3.org/Graphics/SVG/1.1/DTD/svg11.dtd">
<!-- Generated by graphviz version 2.43.0 (0)
 -->
<!-- Title: include/ccf/crypto/hash_provider.h Pages: 1 -->
<svg width="800pt" height="319pt"
 viewBox="0.00 0.00 800.00 319.00" xmlns="http://www.w3.org/2000/svg" xmlns:xlink="http://www.w3.org/1999/xlink">
<g id="graph0" class="graph" transform="scale(1 1) rotate(0) translate(4 315)">
<title>include/ccf/crypto/hash_provider.h</title>
<polygon fill="white" stroke="transparent" points="-4,4 -4,-315 796,-315 796,4 -4,4"/>
<!-- Node1 -->
<g id="node1" class="node">
<title>Node1</title>
<g id="a_node1"><a xlink:title=" ">
<polygon fill="#bfbfbf" stroke="black" points="389.5,-280.5 389.5,-310.5 492.5,-310.5 492.5,-280.5 389.5,-280.5"/>
<text text-anchor="start" x="397.5" y="-298.5" font-family="Helvetica,sans-Serif" font-size="10.00">include/ccf/crypto</text>
<text text-anchor="middle" x="441" y="-287.5" font-family="Helvetica,sans-Serif" font-size="10.00">/hash_provider.h</text>
</a>
</g>
</g>
<!-- Node2 -->
<g id="node2" class="node">
<title>Node2</title>
<g id="a_node2"><a xlink:href="hash__bytes_8h.html" target="_top" xlink:title=" ">
<polygon fill="white" stroke="black" points="18,-224.5 18,-243.5 150,-243.5 150,-224.5 18,-224.5"/>
<text text-anchor="middle" x="84" y="-231.5" font-family="Helvetica,sans-Serif" font-size="10.00">ccf/crypto/hash_bytes.h</text>
</a>
</g>
</g>
<!-- Node1&#45;&gt;Node2 -->
<g id="edge1" class="edge">
<title>Node1&#45;&gt;Node2</title>
<path fill="none" stroke="midnightblue" d="M389.47,-285.91C324.91,-275.15 214.41,-256.74 145.5,-245.25"/>
<polygon fill="midnightblue" stroke="midnightblue" points="145.66,-241.73 135.22,-243.54 144.51,-248.63 145.66,-241.73"/>
</g>
<!-- Node3 -->
<g id="node3" class="node">
<title>Node3</title>
<g id="a_node3"><a xlink:title=" ">
<polygon fill="white" stroke="#bfbfbf" points="0,-168.5 0,-187.5 50,-187.5 50,-168.5 0,-168.5"/>
<text text-anchor="middle" x="25" y="-175.5" font-family="Helvetica,sans-Serif" font-size="10.00">cstdint</text>
</a>
</g>
</g>
<!-- Node1&#45;&gt;Node3 -->
<g id="edge28" class="edge">
<title>Node1&#45;&gt;Node3</title>
<path fill="none" stroke="midnightblue" d="M389.18,-292.24C279.92,-286.94 33.91,-271.99 9,-244 -2.66,-230.9 4.99,-210.65 13.24,-196.24"/>
<polygon fill="midnightblue" stroke="midnightblue" points="16.21,-198.08 18.54,-187.74 10.27,-194.37 16.21,-198.08"/>
</g>
<!-- Node4 -->
<g id="node4" class="node">
<title>Node4</title>
<g id="a_node4"><a xlink:title=" ">
<polygon fill="white" stroke="#bfbfbf" points="160.5,-0.5 160.5,-19.5 207.5,-19.5 207.5,-0.5 160.5,-0.5"/>
<text text-anchor="middle" x="184" y="-7.5" font-family="Helvetica,sans-Serif" font-size="10.00">vector</text>
</a>
</g>
</g>
<!-- Node1&#45;&gt;Node4 -->
<g id="edge30" class="edge">
<title>Node1&#45;&gt;Node4</title>
<path fill="none" stroke="midnightblue" d="M410.69,-280.32C353.12,-251.43 229.53,-179.61 183,-76 176.5,-61.52 177.44,-43.34 179.61,-29.89"/>
<polygon fill="midnightblue" stroke="midnightblue" points="183.08,-30.37 181.59,-19.88 176.22,-29.02 183.08,-30.37"/>
</g>
<!-- Node5 -->
<g id="node5" class="node">
<title>Node5</title>
<g id="a_node5"><a xlink:href="md__type_8h.html" target="_top" xlink:title=" ">
<polygon fill="white" stroke="black" points="381.5,-224.5 381.5,-243.5 500.5,-243.5 500.5,-224.5 381.5,-224.5"/>
<text text-anchor="middle" x="441" y="-231.5" font-family="Helvetica,sans-Serif" font-size="10.00">ccf/crypto/md_type.h</text>
</a>
</g>
</g>
<!-- Node1&#45;&gt;Node5 -->
<g id="edge4" class="edge">
<title>Node1&#45;&gt;Node5</title>
<path fill="none" stroke="midnightblue" d="M441,-280.4C441,-272.47 441,-262.46 441,-253.86"/>
<polygon fill="midnightblue" stroke="midnightblue" points="444.5,-253.66 441,-243.66 437.5,-253.66 444.5,-253.66"/>
</g>
<!-- Node12 -->
<g id="node12" class="node">
<title>Node12</title>
<g id="a_node12"><a xlink:title=" ">
<polygon fill="white" stroke="#bfbfbf" points="645,-0.5 645,-19.5 687,-19.5 687,-0.5 645,-0.5"/>
<text text-anchor="middle" x="666" y="-7.5" font-family="Helvetica,sans-Serif" font-size="10.00">array</text>
</a>
</g>
</g>
<!-- Node1&#45;&gt;Node12 -->
<g id="edge27" class="edge">
<title>Node1&#45;&gt;Node12</title>
<path fill="none" stroke="midnightblue" d="M492.65,-293.96C569.24,-290.12 704,-270.38 704,-179 704,-179 704,-179 704,-121 704,-86.81 687.4,-49.76 676.14,-28.57"/>
<polygon fill="midnightblue" stroke="midnightblue" points="679.18,-26.83 671.28,-19.77 673.05,-30.22 679.18,-26.83"/>
</g>
<!-- Node19 -->
<g id="node19" class="node">
<title>Node19</title>
<g id="a_node19"><a xlink:href="sha256__hash_8h.html" target="_top" xlink:title=" ">
<polygon fill="white" stroke="black" points="519,-224.5 519,-243.5 659,-243.5 659,-224.5 519,-224.5"/>
<text text-anchor="middle" x="589" y="-231.5" font-family="Helvetica,sans-Serif" font-size="10.00">ccf/crypto/sha256_hash.h</text>
</a>
</g>
</g>
<!-- Node1&#45;&gt;Node19 -->
<g id="edge22" class="edge">
<title>Node1&#45;&gt;Node19</title>
<path fill="none" stroke="midnightblue" d="M476.07,-280.4C501.02,-270.37 534.21,-257.03 558.14,-247.4"/>
<polygon fill="midnightblue" stroke="midnightblue" points="559.49,-250.64 567.46,-243.66 556.88,-244.14 559.49,-250.64"/>
</g>
<!-- Node21 -->
<g id="node21" class="node">
<title>Node21</title>
<g id="a_node21"><a xlink:title=" ">
<polygon fill="white" stroke="#bfbfbf" points="732,-224.5 732,-243.5 792,-243.5 792,-224.5 732,-224.5"/>
<text text-anchor="middle" x="762" y="-231.5" font-family="Helvetica,sans-Serif" font-size="10.00">iostream</text>
</a>
</g>
</g>
<!-- Node1&#45;&gt;Node21 -->
<g id="edge29" class="edge">
<title>Node1&#45;&gt;Node21</title>
<path fill="none" stroke="midnightblue" d="M492.62,-285.43C548.3,-275.57 639.53,-259.18 718,-244 719.25,-243.76 720.52,-243.51 721.8,-243.26"/>
<polygon fill="midnightblue" stroke="midnightblue" points="722.6,-246.67 731.72,-241.28 721.23,-239.8 722.6,-246.67"/>
</g>
<!-- Node2&#45;&gt;Node3 -->
<g id="edge2" class="edge">
<title>Node2&#45;&gt;Node3</title>
<path fill="none" stroke="midnightblue" d="M74.52,-224.32C65.8,-216.34 52.66,-204.31 42.1,-194.65"/>
<polygon fill="midnightblue" stroke="midnightblue" points="44.39,-192 34.65,-187.83 39.67,-197.17 44.39,-192"/>
</g>
<!-- Node2&#45;&gt;Node4 -->
<g id="edge3" class="edge">
<title>Node2&#45;&gt;Node4</title>
<path fill="none" stroke="midnightblue" d="M86.31,-224.14C93.46,-197.57 116.7,-116.66 150,-56 155.52,-45.93 163.12,-35.65 169.73,-27.46"/>
<polygon fill="midnightblue" stroke="midnightblue" points="172.42,-29.69 176.14,-19.77 167.05,-25.21 172.42,-29.69"/>
</g>
<!-- Node6 -->
<g id="node6" class="node">
<title>Node6</title>
<g id="a_node6"><a xlink:href="json_8h.html" target="_top" xlink:title=" ">
<polygon fill="white" stroke="black" points="425.5,-168.5 425.5,-187.5 502.5,-187.5 502.5,-168.5 425.5,-168.5"/>
<text text-anchor="middle" x="464" y="-175.5" font-family="Helvetica,sans-Serif" font-size="10.00">ccf/ds/json.h</text>
</a>
</g>
</g>
<!-- Node5&#45;&gt;Node6 -->
<g id="edge5" class="edge">
<title>Node5&#45;&gt;Node6</title>
<path fill="none" stroke="midnightblue" d="M444.8,-224.08C447.91,-216.77 452.42,-206.18 456.29,-197.1"/>
<polygon fill="midnightblue" stroke="midnightblue" points="459.57,-198.32 460.27,-187.75 453.13,-195.58 459.57,-198.32"/>
</g>
<!-- Node7 -->
<g id="node7" class="node">
<title>Node7</title>
<g id="a_node7"><a xlink:href="include_2ccf_2crypto_2base64_8h.html" target="_top" xlink:title=" ">
<polygon fill="white" stroke="black" points="192,-56.5 192,-75.5 304,-75.5 304,-56.5 192,-56.5"/>
<text text-anchor="middle" x="248" y="-63.5" font-family="Helvetica,sans-Serif" font-size="10.00">ccf/crypto/base64.h</text>
</a>
</g>
</g>
<!-- Node6&#45;&gt;Node7 -->
<g id="edge6" class="edge">
<title>Node6&#45;&gt;Node7</title>
<path fill="none" stroke="midnightblue" d="M434.53,-168.43C409.26,-160.55 372.25,-147.72 342,-132 314.16,-117.54 284.85,-96.14 266.51,-81.9"/>
<polygon fill="midnightblue" stroke="midnightblue" points="268.46,-78.98 258.44,-75.54 264.13,-84.48 268.46,-78.98"/>
</g>
<!-- Node9 -->
<g id="node9" class="node">
<title>Node9</title>
<g id="a_node9"><a xlink:href="include_2ccf_2ds_2json__schema_8h.html" target="_top" xlink:title=" ">
<polygon fill="white" stroke="black" points="351.5,-112.5 351.5,-131.5 472.5,-131.5 472.5,-112.5 351.5,-112.5"/>
<text text-anchor="middle" x="412" y="-119.5" font-family="Helvetica,sans-Serif" font-size="10.00">ccf/ds/json_schema.h</text>
</a>
</g>
</g>
<!-- Node6&#45;&gt;Node9 -->
<g id="edge9" class="edge">
<title>Node6&#45;&gt;Node9</title>
<path fill="none" stroke="midnightblue" d="M455.41,-168.08C447.84,-160.22 436.62,-148.57 427.49,-139.08"/>
<polygon fill="midnightblue" stroke="midnightblue" points="429.88,-136.53 420.43,-131.75 424.84,-141.38 429.88,-136.53"/>
</g>
<!-- Node16 -->
<g id="node16" class="node">
<title>Node16</title>
<g id="a_node16"><a xlink:title=" ">
<polygon fill="white" stroke="#bfbfbf" points="558.5,-56.5 558.5,-75.5 637.5,-75.5 637.5,-56.5 558.5,-56.5"/>
<text text-anchor="middle" x="598" y="-63.5" font-family="Helvetica,sans-Serif" font-size="10.00">fmt/format.h</text>
</a>
</g>
</g>
<!-- Node6&#45;&gt;Node16 -->
<g id="edge20" class="edge">
<title>Node6&#45;&gt;Node16</title>
<path fill="none" stroke="midnightblue" d="M490.43,-168.46C510.14,-161.11 536.85,-149 556,-132 570.88,-118.79 582.59,-99.12 589.83,-84.88"/>
<polygon fill="midnightblue" stroke="midnightblue" points="593.1,-86.17 594.29,-75.64 586.79,-83.12 593.1,-86.17"/>
</g>
<!-- Node18 -->
<g id="node18" class="node">
<title>Node18</title>
<g id="a_node18"><a xlink:title=" ">
<polygon fill="white" stroke="#bfbfbf" points="491,-112.5 491,-131.5 547,-131.5 547,-112.5 491,-112.5"/>
<text text-anchor="middle" x="519" y="-119.5" font-family="Helvetica,sans-Serif" font-size="10.00">sstream</text>
</a>
</g>
</g>
<!-- Node6&#45;&gt;Node18 -->
<g id="edge21" class="edge">
<title>Node6&#45;&gt;Node18</title>
<path fill="none" stroke="midnightblue" d="M473.08,-168.08C481.17,-160.14 493.2,-148.34 502.91,-138.8"/>
<polygon fill="midnightblue" stroke="midnightblue" points="505.4,-141.25 510.09,-131.75 500.5,-136.26 505.4,-141.25"/>
</g>
<!-- Node7&#45;&gt;Node4 -->
<g id="edge8" class="edge">
<title>Node7&#45;&gt;Node4</title>
<path fill="none" stroke="midnightblue" d="M237.72,-56.32C228.16,-48.26 213.72,-36.08 202.22,-26.37"/>
<polygon fill="midnightblue" stroke="midnightblue" points="204.37,-23.61 194.47,-19.83 199.86,-28.96 204.37,-23.61"/>
</g>
<!-- Node8 -->
<g id="node8" class="node">
<title>Node8</title>
<g id="a_node8"><a xlink:title=" ">
<polygon fill="white" stroke="#bfbfbf" points="236,-0.5 236,-19.5 280,-19.5 280,-0.5 236,-0.5"/>
<text text-anchor="middle" x="258" y="-7.5" font-family="Helvetica,sans-Serif" font-size="10.00">string</text>
</a>
</g>
</g>
<!-- Node7&#45;&gt;Node8 -->
<g id="edge7" class="edge">
<title>Node7&#45;&gt;Node8</title>
<path fill="none" stroke="midnightblue" d="M249.65,-56.08C250.98,-48.93 252.88,-38.64 254.54,-29.69"/>
<polygon fill="midnightblue" stroke="midnightblue" points="258,-30.22 256.38,-19.75 251.12,-28.95 258,-30.22"/>
</g>
<!-- Node10 -->
<g id="node10" class="node">
<title>Node10</title>
<g id="a_node10"><a xlink:href="nonstd_8h.html" target="_top" xlink:title=" ">
<polygon fill="white" stroke="black" points="450,-56.5 450,-75.5 540,-75.5 540,-56.5 450,-56.5"/>
<text text-anchor="middle" x="495" y="-63.5" font-family="Helvetica,sans-Serif" font-size="10.00">ccf/ds/nonstd.h</text>
</a>
</g>
</g>
<!-- Node9&#45;&gt;Node10 -->
<g id="edge10" class="edge">
<title>Node9&#45;&gt;Node10</title>
<path fill="none" stroke="midnightblue" d="M425.34,-112.32C438.16,-103.98 457.78,-91.21 472.94,-81.35"/>
<polygon fill="midnightblue" stroke="midnightblue" points="475.22,-84.04 481.7,-75.65 471.41,-78.17 475.22,-84.04"/>
</g>
<!-- Node9&#45;&gt;Node16 -->
<g id="edge18" class="edge">
<title>Node9&#45;&gt;Node16</title>
<path fill="none" stroke="midnightblue" d="M441.47,-112.44C473.17,-103.24 523.73,-88.56 558.77,-78.39"/>
<polygon fill="midnightblue" stroke="midnightblue" points="560.04,-81.67 568.67,-75.52 558.09,-74.94 560.04,-81.67"/>
</g>
<!-- Node17 -->
<g id="node17" class="node">
<title>Node17</title>
<g id="a_node17"><a xlink:title=" ">
<polygon fill="white" stroke="#bfbfbf" points="322,-56.5 322,-75.5 432,-75.5 432,-56.5 322,-56.5"/>
<text text-anchor="middle" x="377" y="-63.5" font-family="Helvetica,sans-Serif" font-size="10.00">nlohmann/json.hpp</text>
</a>
</g>
</g>
<!-- Node9&#45;&gt;Node17 -->
<g id="edge19" class="edge">
<title>Node9&#45;&gt;Node17</title>
<path fill="none" stroke="midnightblue" d="M406.22,-112.08C401.33,-104.53 394.17,-93.49 388.17,-84.23"/>
<polygon fill="midnightblue" stroke="midnightblue" points="391.05,-82.24 382.67,-75.75 385.17,-86.05 391.05,-82.24"/>
</g>
<!-- Node10&#45;&gt;Node4 -->
<g id="edge17" class="edge">
<title>Node10&#45;&gt;Node4</title>
<path fill="none" stroke="midnightblue" d="M449.74,-57.45C376.21,-45.17 237.85,-22.05 227,-20 223.95,-19.43 220.78,-18.81 217.62,-18.17"/>
<polygon fill="midnightblue" stroke="midnightblue" points="218.12,-14.7 207.62,-16.12 216.72,-21.56 218.12,-14.7"/>
</g>
<!-- Node10&#45;&gt;Node8 -->
<g id="edge14" class="edge">
<title>Node10&#45;&gt;Node8</title>
<path fill="none" stroke="midnightblue" d="M457.45,-56.44C411.17,-45.9 333.33,-28.16 289.85,-18.26"/>
<polygon fill="midnightblue" stroke="midnightblue" points="290.61,-14.84 280.08,-16.03 289.06,-21.67 290.61,-14.84"/>
</g>
<!-- Node11 -->
<g id="node11" class="node">
<title>Node11</title>
<g id="a_node11"><a xlink:title=" ">
<polygon fill="white" stroke="#bfbfbf" points="313,-0.5 313,-19.5 377,-19.5 377,-0.5 313,-0.5"/>
<text text-anchor="middle" x="345" y="-7.5" font-family="Helvetica,sans-Serif" font-size="10.00">algorithm</text>
</a>
</g>
</g>
<!-- Node10&#45;&gt;Node11 -->
<g id="edge11" class="edge">
<title>Node10&#45;&gt;Node11</title>
<path fill="none" stroke="midnightblue" d="M471.23,-56.44C446.11,-47.4 406.29,-33.06 378.1,-22.92"/>
<polygon fill="midnightblue" stroke="midnightblue" points="379.25,-19.61 368.66,-19.52 376.88,-26.2 379.25,-19.61"/>
</g>
<!-- Node10&#45;&gt;Node12 -->
<g id="edge12" class="edge">
<title>Node10&#45;&gt;Node12</title>
<path fill="none" stroke="midnightblue" d="M522.1,-56.44C552.86,-46.73 602.94,-30.91 635.17,-20.74"/>
<polygon fill="midnightblue" stroke="midnightblue" points="636.48,-23.99 644.96,-17.64 634.37,-17.32 636.48,-23.99"/>
</g>
<!-- Node13 -->
<g id="node13" class="node">
<title>Node13</title>
<g id="a_node13"><a xlink:title=" ">
<polygon fill="white" stroke="#bfbfbf" points="395.5,-0.5 395.5,-19.5 444.5,-19.5 444.5,-0.5 395.5,-0.5"/>
<text text-anchor="middle" x="420" y="-7.5" font-family="Helvetica,sans-Serif" font-size="10.00">cctype</text>
</a>
</g>
</g>
<!-- Node10&#45;&gt;Node13 -->
<g id="edge13" class="edge">
<title>Node10&#45;&gt;Node13</title>
<path fill="none" stroke="midnightblue" d="M482.95,-56.32C471.54,-48.11 454.17,-35.6 440.57,-25.81"/>
<polygon fill="midnightblue" stroke="midnightblue" points="442.43,-22.84 432.27,-19.83 438.34,-28.52 442.43,-22.84"/>
</g>
<!-- Node14 -->
<g id="node14" class="node">
<title>Node14</title>
<g id="a_node14"><a xlink:title=" ">
<polygon fill="white" stroke="#bfbfbf" points="462.5,-0.5 462.5,-19.5 535.5,-19.5 535.5,-0.5 462.5,-0.5"/>
<text text-anchor="middle" x="499" y="-7.5" font-family="Helvetica,sans-Serif" font-size="10.00">string_view</text>
</a>
</g>
</g>
<!-- Node10&#45;&gt;Node14 -->
<g id="edge15" class="edge">
<title>Node10&#45;&gt;Node14</title>
<path fill="none" stroke="midnightblue" d="M495.66,-56.08C496.18,-49.01 496.94,-38.86 497.59,-29.99"/>
<polygon fill="midnightblue" stroke="midnightblue" points="501.1,-29.98 498.35,-19.75 494.12,-29.47 501.1,-29.98"/>
</g>
<!-- Node15 -->
<g id="node15" class="node">
<title>Node15</title>
<g id="a_node15"><a xlink:title=" ">
<polygon fill="white" stroke="#bfbfbf" points="553.5,-0.5 553.5,-19.5 622.5,-19.5 622.5,-0.5 553.5,-0.5"/>
<text text-anchor="middle" x="588" y="-7.5" font-family="Helvetica,sans-Serif" font-size="10.00">type_traits</text>
</a>
</g>
</g>
<!-- Node10&#45;&gt;Node15 -->
<g id="edge16" class="edge">
<title>Node10&#45;&gt;Node15</title>
<path fill="none" stroke="midnightblue" d="M509.94,-56.32C524.59,-47.82 547.13,-34.73 564.24,-24.8"/>
<polygon fill="midnightblue" stroke="midnightblue" points="566.2,-27.7 573.1,-19.65 562.69,-21.65 566.2,-27.7"/>
</g>
<!-- Node19&#45;&gt;Node6 -->
<g id="edge23" class="edge">
<title>Node19&#45;&gt;Node6</title>
<path fill="none" stroke="midnightblue" d="M569.19,-224.44C548.71,-215.6 516.52,-201.69 493.14,-191.59"/>
<polygon fill="midnightblue" stroke="midnightblue" points="494.28,-188.27 483.71,-187.52 491.51,-194.7 494.28,-188.27"/>
</g>
<!-- Node19&#45;&gt;Node12 -->
<g id="edge24" class="edge">
<title>Node19&#45;&gt;Node12</title>
<path fill="none" stroke="midnightblue" d="M592.81,-224.44C596.77,-215.44 603.07,-200.82 608,-188 626.93,-138.81 630.93,-126.2 647,-76 651.98,-60.43 657.16,-42.59 660.85,-29.55"/>
<polygon fill="midnightblue" stroke="midnightblue" points="664.23,-30.45 663.56,-19.87 657.49,-28.56 664.23,-30.45"/>
</g>
<!-- Node19&#45;&gt;Node16 -->
<g id="edge26" class="edge">
<title>Node19&#45;&gt;Node16</title>
<path fill="none" stroke="midnightblue" d="M590.16,-224.39C591.33,-215.35 593.09,-200.7 594,-188 596.61,-151.79 597.52,-109.35 597.83,-85.58"/>
<polygon fill="midnightblue" stroke="midnightblue" points="601.33,-85.56 597.95,-75.52 594.33,-85.48 601.33,-85.56"/>
</g>
<!-- Node20 -->
<g id="node20" class="node">
<title>Node20</title>
<g id="a_node20"><a xlink:title=" ">
<polygon fill="white" stroke="#bfbfbf" points="545,-168.5 545,-187.5 585,-187.5 585,-168.5 545,-168.5"/>
<text text-anchor="middle" x="565" y="-175.5" font-family="Helvetica,sans-Serif" font-size="10.00">span</text>
</a>
</g>
</g>
<!-- Node19&#45;&gt;Node20 -->
<g id="edge25" class="edge">
<title>Node19&#45;&gt;Node20</title>
<path fill="none" stroke="midnightblue" d="M585.04,-224.08C581.79,-216.77 577.08,-206.18 573.05,-197.1"/>
<polygon fill="midnightblue" stroke="midnightblue" points="576.15,-195.47 568.89,-187.75 569.75,-198.31 576.15,-195.47"/>
</g>
</g>
</svg>
