<?xml version="1.0" encoding="UTF-8" standalone="no"?>
<!DOCTYPE svg PUBLIC "-//W3C//DTD SVG 1.1//EN"
 "http://www.w3.org/Graphics/SVG/1.1/DTD/svg11.dtd">
<!-- Generated by graphviz version 2.43.0 (0)
 -->
<!-- Title: src/ds/histogram.h Pages: 1 -->
<svg width="491pt" height="140pt"
 viewBox="0.00 0.00 490.50 140.00" xmlns="http://www.w3.org/2000/svg" xmlns:xlink="http://www.w3.org/1999/xlink">
<g id="graph0" class="graph" transform="scale(1 1) rotate(0) translate(4 136)">
<title>src/ds/histogram.h</title>
<polygon fill="white" stroke="transparent" points="-4,4 -4,-136 486.5,-136 486.5,4 -4,4"/>
<!-- Node1 -->
<g id="node1" class="node">
<title>Node1</title>
<g id="a_node1"><a xlink:title=" ">
<polygon fill="#bfbfbf" stroke="black" points="254.5,-112.5 254.5,-131.5 361.5,-131.5 361.5,-112.5 254.5,-112.5"/>
<text text-anchor="middle" x="308" y="-119.5" font-family="Helvetica,sans-Serif" font-size="10.00">src/ds/histogram.h</text>
</a>
</g>
</g>
<!-- Node2 -->
<g id="node2" class="node">
<title>Node2</title>
<g id="a_node2"><a xlink:href="pal_8h.html" target="_top" xlink:title=" ">
<polygon fill="white" stroke="black" points="91,-56.5 91,-75.5 163,-75.5 163,-56.5 91,-56.5"/>
<text text-anchor="middle" x="127" y="-63.5" font-family="Helvetica,sans-Serif" font-size="10.00">ccf/ds/pal.h</text>
</a>
</g>
</g>
<!-- Node1&#45;&gt;Node2 -->
<g id="edge1" class="edge">
<title>Node1&#45;&gt;Node2</title>
<path fill="none" stroke="midnightblue" d="M279.32,-112.44C248.47,-103.24 199.27,-88.56 165.17,-78.39"/>
<polygon fill="midnightblue" stroke="midnightblue" points="166.13,-75.02 155.55,-75.52 164.13,-81.73 166.13,-75.02"/>
</g>
<!-- Node7 -->
<g id="node7" class="node">
<title>Node7</title>
<g id="a_node7"><a xlink:title=" ">
<polygon fill="white" stroke="#bfbfbf" points="181,-56.5 181,-75.5 233,-75.5 233,-56.5 181,-56.5"/>
<text text-anchor="middle" x="207" y="-63.5" font-family="Helvetica,sans-Serif" font-size="10.00">cassert</text>
</a>
</g>
</g>
<!-- Node1&#45;&gt;Node7 -->
<g id="edge6" class="edge">
<title>Node1&#45;&gt;Node7</title>
<path fill="none" stroke="midnightblue" d="M291.77,-112.32C275.65,-103.7 250.7,-90.36 232.04,-80.39"/>
<polygon fill="midnightblue" stroke="midnightblue" points="233.66,-77.28 223.19,-75.65 230.36,-83.46 233.66,-77.28"/>
</g>
<!-- Node8 -->
<g id="node8" class="node">
<title>Node8</title>
<g id="a_node8"><a xlink:title=" ">
<polygon fill="white" stroke="#bfbfbf" points="251,-56.5 251,-75.5 301,-75.5 301,-56.5 251,-56.5"/>
<text text-anchor="middle" x="276" y="-63.5" font-family="Helvetica,sans-Serif" font-size="10.00">chrono</text>
</a>
</g>
</g>
<!-- Node1&#45;&gt;Node8 -->
<g id="edge7" class="edge">
<title>Node1&#45;&gt;Node8</title>
<path fill="none" stroke="midnightblue" d="M302.72,-112.08C298.29,-104.61 291.84,-93.72 286.38,-84.52"/>
<polygon fill="midnightblue" stroke="midnightblue" points="289.29,-82.57 281.19,-75.75 283.27,-86.14 289.29,-82.57"/>
</g>
<!-- Node9 -->
<g id="node9" class="node">
<title>Node9</title>
<g id="a_node9"><a xlink:title=" ">
<polygon fill="white" stroke="#bfbfbf" points="319,-56.5 319,-75.5 363,-75.5 363,-56.5 319,-56.5"/>
<text text-anchor="middle" x="341" y="-63.5" font-family="Helvetica,sans-Serif" font-size="10.00">limits</text>
</a>
</g>
</g>
<!-- Node1&#45;&gt;Node9 -->
<g id="edge8" class="edge">
<title>Node1&#45;&gt;Node9</title>
<path fill="none" stroke="midnightblue" d="M313.45,-112.08C318.01,-104.61 324.67,-93.72 330.29,-84.52"/>
<polygon fill="midnightblue" stroke="midnightblue" points="333.42,-86.11 335.65,-75.75 327.45,-82.46 333.42,-86.11"/>
</g>
<!-- Node10 -->
<g id="node10" class="node">
<title>Node10</title>
<g id="a_node10"><a xlink:title=" ">
<polygon fill="white" stroke="#bfbfbf" points="381,-56.5 381,-75.5 419,-75.5 419,-56.5 381,-56.5"/>
<text text-anchor="middle" x="400" y="-63.5" font-family="Helvetica,sans-Serif" font-size="10.00">map</text>
</a>
</g>
</g>
<!-- Node1&#45;&gt;Node10 -->
<g id="edge9" class="edge">
<title>Node1&#45;&gt;Node10</title>
<path fill="none" stroke="midnightblue" d="M322.78,-112.32C337.27,-103.82 359.57,-90.73 376.49,-80.8"/>
<polygon fill="midnightblue" stroke="midnightblue" points="378.4,-83.74 385.26,-75.65 374.86,-77.7 378.4,-83.74"/>
</g>
<!-- Node11 -->
<g id="node11" class="node">
<title>Node11</title>
<g id="a_node11"><a xlink:title=" ">
<polygon fill="white" stroke="#bfbfbf" points="437.5,-56.5 437.5,-75.5 482.5,-75.5 482.5,-56.5 437.5,-56.5"/>
<text text-anchor="middle" x="460" y="-63.5" font-family="Helvetica,sans-Serif" font-size="10.00">utility</text>
</a>
</g>
</g>
<!-- Node1&#45;&gt;Node11 -->
<g id="edge10" class="edge">
<title>Node1&#45;&gt;Node11</title>
<path fill="none" stroke="midnightblue" d="M332.08,-112.44C357.84,-103.29 398.85,-88.73 427.46,-78.56"/>
<polygon fill="midnightblue" stroke="midnightblue" points="428.77,-81.81 437.02,-75.16 426.43,-75.21 428.77,-81.81"/>
</g>
<!-- Node3 -->
<g id="node3" class="node">
<title>Node3</title>
<g id="a_node3"><a xlink:title=" ">
<polygon fill="white" stroke="#bfbfbf" points="0,-0.5 0,-19.5 50,-19.5 50,-0.5 0,-0.5"/>
<text text-anchor="middle" x="25" y="-7.5" font-family="Helvetica,sans-Serif" font-size="10.00">cstdint</text>
</a>
</g>
</g>
<!-- Node2&#45;&gt;Node3 -->
<g id="edge2" class="edge">
<title>Node2&#45;&gt;Node3</title>
<path fill="none" stroke="midnightblue" d="M110.61,-56.32C94.33,-47.7 69.13,-34.36 50.28,-24.39"/>
<polygon fill="midnightblue" stroke="midnightblue" points="51.82,-21.24 41.35,-19.65 48.55,-27.43 51.82,-21.24"/>
</g>
<!-- Node4 -->
<g id="node4" class="node">
<title>Node4</title>
<g id="a_node4"><a xlink:title=" ">
<polygon fill="white" stroke="#bfbfbf" points="68.5,-0.5 68.5,-19.5 117.5,-19.5 117.5,-0.5 68.5,-0.5"/>
<text text-anchor="middle" x="93" y="-7.5" font-family="Helvetica,sans-Serif" font-size="10.00">cstdlib</text>
</a>
</g>
</g>
<!-- Node2&#45;&gt;Node4 -->
<g id="edge3" class="edge">
<title>Node2&#45;&gt;Node4</title>
<path fill="none" stroke="midnightblue" d="M121.39,-56.08C116.63,-48.53 109.68,-37.49 103.85,-28.23"/>
<polygon fill="midnightblue" stroke="midnightblue" points="106.8,-26.35 98.51,-19.75 100.88,-30.08 106.8,-26.35"/>
</g>
<!-- Node5 -->
<g id="node5" class="node">
<title>Node5</title>
<g id="a_node5"><a xlink:title=" ">
<polygon fill="white" stroke="#bfbfbf" points="136,-0.5 136,-19.5 186,-19.5 186,-0.5 136,-0.5"/>
<text text-anchor="middle" x="161" y="-7.5" font-family="Helvetica,sans-Serif" font-size="10.00">cstring</text>
</a>
</g>
</g>
<!-- Node2&#45;&gt;Node5 -->
<g id="edge4" class="edge">
<title>Node2&#45;&gt;Node5</title>
<path fill="none" stroke="midnightblue" d="M132.61,-56.08C137.37,-48.53 144.32,-37.49 150.15,-28.23"/>
<polygon fill="midnightblue" stroke="midnightblue" points="153.12,-30.08 155.49,-19.75 147.2,-26.35 153.12,-30.08"/>
</g>
<!-- Node6 -->
<g id="node6" class="node">
<title>Node6</title>
<g id="a_node6"><a xlink:title=" ">
<polygon fill="white" stroke="#bfbfbf" points="204,-0.5 204,-19.5 252,-19.5 252,-0.5 204,-0.5"/>
<text text-anchor="middle" x="228" y="-7.5" font-family="Helvetica,sans-Serif" font-size="10.00">mutex</text>
</a>
</g>
</g>
<!-- Node2&#45;&gt;Node6 -->
<g id="edge5" class="edge">
<title>Node2&#45;&gt;Node6</title>
<path fill="none" stroke="midnightblue" d="M143.23,-56.32C159.35,-47.7 184.3,-34.36 202.96,-24.39"/>
<polygon fill="midnightblue" stroke="midnightblue" points="204.64,-27.46 211.81,-19.65 201.34,-21.28 204.64,-27.46"/>
</g>
</g>
</svg>
