<?xml version="1.0" encoding="UTF-8" standalone="no"?>
<!DOCTYPE svg PUBLIC "-//W3C//DTD SVG 1.1//EN"
 "http://www.w3.org/Graphics/SVG/1.1/DTD/svg11.dtd">
<!-- Generated by graphviz version 2.43.0 (0)
 -->
<!-- Title: src/crypto/hmac.cpp Pages: 1 -->
<!--zoomable 420 -->
<svg id="main" version="1.1" xmlns="http://www.w3.org/2000/svg" xmlns:xlink="http://www.w3.org/1999/xlink" xml:space="preserve" onload="init(evt)">
<style type="text/css"><![CDATA[
.edge:hover path { stroke: red; }
.edge:hover polygon { stroke: red; fill: red; }
]]></style>
<script type="text/javascript"><![CDATA[
var edges = document.getElementsByTagName('g');
if (edges && edges.length) {
  for (var i=0;i<edges.length;i++) {
    if (edges[i].id.substr(0,4)=='edge') {
      edges[i].setAttribute('class','edge');
    }
  }
}
]]></script>
        <defs>
                <circle id="rim" cx="0" cy="0" r="7"/>
                <circle id="rim2" cx="0" cy="0" r="3.5"/>
                <g id="zoomPlus">
                        <use xlink:href="#rim" fill="#404040">
                                <set attributeName="fill" to="#808080" begin="zoomplus.mouseover" end="zoomplus.mouseout"/>
                        </use>
                        <path d="M-4,0h8M0,-4v8" fill="none" stroke="white" stroke-width="1.5" pointer-events="none"/>
                </g>
                <g id="zoomMin">
                        <use xlink:href="#rim" fill="#404040">
                                <set attributeName="fill" to="#808080" begin="zoomminus.mouseover" end="zoomminus.mouseout"/>
                        </use>
                        <path d="M-4,0h8" fill="none" stroke="white" stroke-width="1.5" pointer-events="none"/>
                </g>
                <g id="dirArrow">
                        <path fill="none" stroke="white" stroke-width="1.5" d="M0,-3.0v7 M-2.5,-0.5L0,-3.0L2.5,-0.5"/>
                </g>
               <g id="resetDef">
                       <use xlink:href="#rim2" fill="#404040">
                               <set attributeName="fill" to="#808080" begin="reset.mouseover" end="reset.mouseout"/>
                       </use>
               </g>
        </defs>

<script type="text/javascript">
var viewWidth = 1848;
var viewHeight = 420;
var sectionId = 'dynsection-0';
</script>
<script xlink:href="svgpan.js"/>
<svg id="graph" class="graph">
<g id="viewport">
<title>src/crypto/hmac.cpp</title>
<polygon fill="white" stroke="transparent" points="-4,4 -4,-416 1844.34,-416 1844.34,4 -4,4"/>
<!-- Node1 -->
<g id="node1" class="node">
<title>Node1</title>
<g id="a_node1"><a xlink:title=" ">
<polygon fill="#bfbfbf" stroke="black" points="1469.94,-392.5 1469.94,-411.5 1584.94,-411.5 1584.94,-392.5 1469.94,-392.5"/>
<text text-anchor="middle" x="1527.44" y="-399.5" font-family="Helvetica,sans-Serif" font-size="10.00">src/crypto/hmac.cpp</text>
</a>
</g>
</g>
<!-- Node2 -->
<g id="node2" class="node">
<title>Node2</title>
<g id="a_node2"><a xlink:href="hmac_8h.html" target="_top" xlink:title=" ">
<polygon fill="white" stroke="black" points="1630.94,-280.5 1630.94,-299.5 1683.94,-299.5 1683.94,-280.5 1630.94,-280.5"/>
<text text-anchor="middle" x="1657.44" y="-287.5" font-family="Helvetica,sans-Serif" font-size="10.00">hmac.h</text>
</a>
</g>
</g>
<!-- Node1&#45;&gt;Node2 -->
<g id="edge1" class="edge">
<title>Node1&#45;&gt;Node2</title>
<path fill="none" stroke="midnightblue" d="M1527.82,-392.27C1528.87,-378.6 1532.79,-352.04 1547.44,-336 1557.76,-324.71 1593.04,-311.4 1620.89,-302.2"/>
<polygon fill="midnightblue" stroke="midnightblue" points="1622.32,-305.41 1630.76,-299.01 1620.17,-298.75 1622.32,-305.41"/>
</g>
<!-- Node20 -->
<g id="node20" class="node">
<title>Node20</title>
<g id="a_node20"><a xlink:href="src_2crypto_2openssl_2hash_8h.html" target="_top" xlink:title=" ">
<polygon fill="white" stroke="black" points="1246.94,-336.5 1246.94,-355.5 1369.94,-355.5 1369.94,-336.5 1246.94,-336.5"/>
<text text-anchor="middle" x="1308.44" y="-343.5" font-family="Helvetica,sans-Serif" font-size="10.00">crypto/openssl/hash.h</text>
</a>
</g>
</g>
<!-- Node1&#45;&gt;Node20 -->
<g id="edge23" class="edge">
<title>Node1&#45;&gt;Node20</title>
<path fill="none" stroke="midnightblue" d="M1492.74,-392.44C1454.86,-383.1 1394.09,-368.12 1352.78,-357.93"/>
<polygon fill="midnightblue" stroke="midnightblue" points="1353.53,-354.51 1342.98,-355.52 1351.85,-361.31 1353.53,-354.51"/>
</g>
<!-- Node46 -->
<g id="node46" class="node">
<title>Node46</title>
<g id="a_node46"><a xlink:title=" ">
<polygon fill="white" stroke="#bfbfbf" points="1555.94,-336.5 1555.94,-355.5 1648.94,-355.5 1648.94,-336.5 1555.94,-336.5"/>
<text text-anchor="middle" x="1602.44" y="-343.5" font-family="Helvetica,sans-Serif" font-size="10.00">openssl/hmac.h</text>
</a>
</g>
</g>
<!-- Node1&#45;&gt;Node46 -->
<g id="edge69" class="edge">
<title>Node1&#45;&gt;Node46</title>
<path fill="none" stroke="midnightblue" d="M1539.49,-392.32C1550.91,-384.11 1568.27,-371.6 1581.88,-361.81"/>
<polygon fill="midnightblue" stroke="midnightblue" points="1584.1,-364.52 1590.17,-355.83 1580.01,-358.84 1584.1,-364.52"/>
</g>
<!-- Node3 -->
<g id="node3" class="node">
<title>Node3</title>
<g id="a_node3"><a xlink:href="hash__bytes_8h.html" target="_top" xlink:title=" ">
<polygon fill="white" stroke="black" points="1679.44,-224.5 1679.44,-243.5 1811.44,-243.5 1811.44,-224.5 1679.44,-224.5"/>
<text text-anchor="middle" x="1745.44" y="-231.5" font-family="Helvetica,sans-Serif" font-size="10.00">ccf/crypto/hash_bytes.h</text>
</a>
</g>
</g>
<!-- Node2&#45;&gt;Node3 -->
<g id="edge2" class="edge">
<title>Node2&#45;&gt;Node3</title>
<path fill="none" stroke="midnightblue" d="M1671.58,-280.32C1685.31,-271.9 1706.38,-258.97 1722.51,-249.07"/>
<polygon fill="midnightblue" stroke="midnightblue" points="1724.65,-251.87 1731.34,-243.65 1720.99,-245.9 1724.65,-251.87"/>
</g>
<!-- Node6 -->
<g id="node6" class="node">
<title>Node6</title>
<g id="a_node6"><a xlink:href="md__type_8h.html" target="_top" xlink:title=" ">
<polygon fill="white" stroke="black" points="1541.94,-224.5 1541.94,-243.5 1660.94,-243.5 1660.94,-224.5 1541.94,-224.5"/>
<text text-anchor="middle" x="1601.44" y="-231.5" font-family="Helvetica,sans-Serif" font-size="10.00">ccf/crypto/md_type.h</text>
</a>
</g>
</g>
<!-- Node2&#45;&gt;Node6 -->
<g id="edge5" class="edge">
<title>Node2&#45;&gt;Node6</title>
<path fill="none" stroke="midnightblue" d="M1648.45,-280.32C1640.25,-272.42 1627.94,-260.55 1617.97,-250.94"/>
<polygon fill="midnightblue" stroke="midnightblue" points="1620.23,-248.26 1610.6,-243.83 1615.37,-253.29 1620.23,-248.26"/>
</g>
<!-- Node4 -->
<g id="node4" class="node">
<title>Node4</title>
<g id="a_node4"><a xlink:title=" ">
<polygon fill="white" stroke="#bfbfbf" points="1657.44,-168.5 1657.44,-187.5 1707.44,-187.5 1707.44,-168.5 1657.44,-168.5"/>
<text text-anchor="middle" x="1682.44" y="-175.5" font-family="Helvetica,sans-Serif" font-size="10.00">cstdint</text>
</a>
</g>
</g>
<!-- Node3&#45;&gt;Node4 -->
<g id="edge3" class="edge">
<title>Node3&#45;&gt;Node4</title>
<path fill="none" stroke="midnightblue" d="M1735.32,-224.32C1725.92,-216.26 1711.7,-204.08 1700.37,-194.37"/>
<polygon fill="midnightblue" stroke="midnightblue" points="1702.62,-191.68 1692.75,-187.83 1698.06,-197 1702.62,-191.68"/>
</g>
<!-- Node5 -->
<g id="node5" class="node">
<title>Node5</title>
<g id="a_node5"><a xlink:title=" ">
<polygon fill="white" stroke="#bfbfbf" points="1051.94,-0.5 1051.94,-19.5 1098.94,-19.5 1098.94,-0.5 1051.94,-0.5"/>
<text text-anchor="middle" x="1075.44" y="-7.5" font-family="Helvetica,sans-Serif" font-size="10.00">vector</text>
</a>
</g>
</g>
<!-- Node3&#45;&gt;Node5 -->
<g id="edge4" class="edge">
<title>Node3&#45;&gt;Node5</title>
<path fill="none" stroke="midnightblue" d="M1743.98,-224.5C1741.16,-210.65 1733.65,-183.24 1716.44,-168 1608.85,-72.72 1539.94,-129.22 1406.44,-76 1388.71,-68.93 1386.57,-61.98 1368.44,-56 1277.94,-26.17 1165.08,-15.95 1109.55,-12.58"/>
<polygon fill="midnightblue" stroke="midnightblue" points="1109.41,-9.06 1099.23,-11.99 1109.01,-16.05 1109.41,-9.06"/>
</g>
<!-- Node7 -->
<g id="node7" class="node">
<title>Node7</title>
<g id="a_node7"><a xlink:href="json_8h.html" target="_top" xlink:title=" ">
<polygon fill="white" stroke="black" points="1365.94,-168.5 1365.94,-187.5 1442.94,-187.5 1442.94,-168.5 1365.94,-168.5"/>
<text text-anchor="middle" x="1404.44" y="-175.5" font-family="Helvetica,sans-Serif" font-size="10.00">ccf/ds/json.h</text>
</a>
</g>
</g>
<!-- Node6&#45;&gt;Node7 -->
<g id="edge6" class="edge">
<title>Node6&#45;&gt;Node7</title>
<path fill="none" stroke="midnightblue" d="M1570.23,-224.44C1536.51,-215.2 1482.64,-200.44 1445.51,-190.26"/>
<polygon fill="midnightblue" stroke="midnightblue" points="1446.08,-186.78 1435.51,-187.52 1444.23,-193.54 1446.08,-186.78"/>
</g>
<!-- Node8 -->
<g id="node8" class="node">
<title>Node8</title>
<g id="a_node8"><a xlink:href="include_2ccf_2crypto_2base64_8h.html" target="_top" xlink:title=" ">
<polygon fill="white" stroke="black" points="1523.44,-56.5 1523.44,-75.5 1635.44,-75.5 1635.44,-56.5 1523.44,-56.5"/>
<text text-anchor="middle" x="1579.44" y="-63.5" font-family="Helvetica,sans-Serif" font-size="10.00">ccf/crypto/base64.h</text>
</a>
</g>
</g>
<!-- Node7&#45;&gt;Node8 -->
<g id="edge7" class="edge">
<title>Node7&#45;&gt;Node8</title>
<path fill="none" stroke="midnightblue" d="M1443.04,-170.31C1470.65,-164.03 1507.52,-152.43 1534.44,-132 1550.79,-119.59 1563.39,-99.51 1571.05,-84.95"/>
<polygon fill="midnightblue" stroke="midnightblue" points="1574.22,-86.42 1575.54,-75.91 1567.95,-83.3 1574.22,-86.42"/>
</g>
<!-- Node10 -->
<g id="node10" class="node">
<title>Node10</title>
<g id="a_node10"><a xlink:href="include_2ccf_2ds_2json__schema_8h.html" target="_top" xlink:title=" ">
<polygon fill="white" stroke="black" points="1403.94,-112.5 1403.94,-131.5 1524.94,-131.5 1524.94,-112.5 1403.94,-112.5"/>
<text text-anchor="middle" x="1464.44" y="-119.5" font-family="Helvetica,sans-Serif" font-size="10.00">ccf/ds/json_schema.h</text>
</a>
</g>
</g>
<!-- Node7&#45;&gt;Node10 -->
<g id="edge10" class="edge">
<title>Node7&#45;&gt;Node10</title>
<path fill="none" stroke="midnightblue" d="M1414.08,-168.32C1422.95,-160.34 1436.32,-148.31 1447.05,-138.65"/>
<polygon fill="midnightblue" stroke="midnightblue" points="1449.54,-141.13 1454.63,-131.83 1444.85,-135.92 1449.54,-141.13"/>
</g>
<!-- Node17 -->
<g id="node17" class="node">
<title>Node17</title>
<g id="a_node17"><a xlink:title=" ">
<polygon fill="white" stroke="#bfbfbf" points="1151.94,-56.5 1151.94,-75.5 1230.94,-75.5 1230.94,-56.5 1151.94,-56.5"/>
<text text-anchor="middle" x="1191.44" y="-63.5" font-family="Helvetica,sans-Serif" font-size="10.00">fmt/format.h</text>
</a>
</g>
</g>
<!-- Node7&#45;&gt;Node17 -->
<g id="edge21" class="edge">
<title>Node7&#45;&gt;Node17</title>
<path fill="none" stroke="midnightblue" d="M1399.8,-168.41C1391.81,-154.44 1374.09,-126.85 1351.44,-112 1333.26,-100.07 1281.02,-86.59 1241.14,-77.52"/>
<polygon fill="midnightblue" stroke="midnightblue" points="1241.81,-74.09 1231.29,-75.31 1240.28,-80.92 1241.81,-74.09"/>
</g>
<!-- Node19 -->
<g id="node19" class="node">
<title>Node19</title>
<g id="a_node19"><a xlink:title=" ">
<polygon fill="white" stroke="#bfbfbf" points="1253.44,-112.5 1253.44,-131.5 1309.44,-131.5 1309.44,-112.5 1253.44,-112.5"/>
<text text-anchor="middle" x="1281.44" y="-119.5" font-family="Helvetica,sans-Serif" font-size="10.00">sstream</text>
</a>
</g>
</g>
<!-- Node7&#45;&gt;Node19 -->
<g id="edge22" class="edge">
<title>Node7&#45;&gt;Node19</title>
<path fill="none" stroke="midnightblue" d="M1384.95,-168.44C1364.8,-159.6 1333.12,-145.69 1310.11,-135.59"/>
<polygon fill="midnightblue" stroke="midnightblue" points="1311.41,-132.33 1300.84,-131.52 1308.59,-138.74 1311.41,-132.33"/>
</g>
<!-- Node8&#45;&gt;Node5 -->
<g id="edge9" class="edge">
<title>Node8&#45;&gt;Node5</title>
<path fill="none" stroke="midnightblue" d="M1523.44,-57.12C1520.4,-56.73 1517.38,-56.35 1514.44,-56 1363.64,-37.84 1183.13,-20.82 1109.36,-14.06"/>
<polygon fill="midnightblue" stroke="midnightblue" points="1109.55,-10.57 1099.27,-13.14 1108.91,-17.54 1109.55,-10.57"/>
</g>
<!-- Node9 -->
<g id="node9" class="node">
<title>Node9</title>
<g id="a_node9"><a xlink:title=" ">
<polygon fill="white" stroke="#bfbfbf" points="1557.44,-0.5 1557.44,-19.5 1601.44,-19.5 1601.44,-0.5 1557.44,-0.5"/>
<text text-anchor="middle" x="1579.44" y="-7.5" font-family="Helvetica,sans-Serif" font-size="10.00">string</text>
</a>
</g>
</g>
<!-- Node8&#45;&gt;Node9 -->
<g id="edge8" class="edge">
<title>Node8&#45;&gt;Node9</title>
<path fill="none" stroke="midnightblue" d="M1579.44,-56.08C1579.44,-49.01 1579.44,-38.86 1579.44,-29.99"/>
<polygon fill="midnightblue" stroke="midnightblue" points="1582.94,-29.75 1579.44,-19.75 1575.94,-29.75 1582.94,-29.75"/>
</g>
<!-- Node11 -->
<g id="node11" class="node">
<title>Node11</title>
<g id="a_node11"><a xlink:href="nonstd_8h.html" target="_top" xlink:title=" ">
<polygon fill="white" stroke="black" points="1415.44,-56.5 1415.44,-75.5 1505.44,-75.5 1505.44,-56.5 1415.44,-56.5"/>
<text text-anchor="middle" x="1460.44" y="-63.5" font-family="Helvetica,sans-Serif" font-size="10.00">ccf/ds/nonstd.h</text>
</a>
</g>
</g>
<!-- Node10&#45;&gt;Node11 -->
<g id="edge11" class="edge">
<title>Node10&#45;&gt;Node11</title>
<path fill="none" stroke="midnightblue" d="M1463.78,-112.08C1463.26,-105.01 1462.51,-94.86 1461.85,-85.99"/>
<polygon fill="midnightblue" stroke="midnightblue" points="1465.32,-85.47 1461.09,-75.75 1458.34,-85.98 1465.32,-85.47"/>
</g>
<!-- Node10&#45;&gt;Node17 -->
<g id="edge19" class="edge">
<title>Node10&#45;&gt;Node17</title>
<path fill="none" stroke="midnightblue" d="M1421.19,-112.44C1372.13,-102.74 1292.31,-86.95 1240.85,-76.77"/>
<polygon fill="midnightblue" stroke="midnightblue" points="1241.44,-73.32 1230.95,-74.82 1240.08,-80.19 1241.44,-73.32"/>
</g>
<!-- Node18 -->
<g id="node18" class="node">
<title>Node18</title>
<g id="a_node18"><a xlink:title=" ">
<polygon fill="white" stroke="#bfbfbf" points="1249.44,-56.5 1249.44,-75.5 1359.44,-75.5 1359.44,-56.5 1249.44,-56.5"/>
<text text-anchor="middle" x="1304.44" y="-63.5" font-family="Helvetica,sans-Serif" font-size="10.00">nlohmann/json.hpp</text>
</a>
</g>
</g>
<!-- Node10&#45;&gt;Node18 -->
<g id="edge20" class="edge">
<title>Node10&#45;&gt;Node18</title>
<path fill="none" stroke="midnightblue" d="M1439.09,-112.44C1412.17,-103.36 1369.45,-88.94 1339.36,-78.78"/>
<polygon fill="midnightblue" stroke="midnightblue" points="1340.27,-75.4 1329.68,-75.52 1338.03,-82.03 1340.27,-75.4"/>
</g>
<!-- Node11&#45;&gt;Node5 -->
<g id="edge18" class="edge">
<title>Node11&#45;&gt;Node5</title>
<path fill="none" stroke="midnightblue" d="M1415.36,-58.05C1410.66,-57.35 1405.96,-56.66 1401.44,-56 1294.99,-40.53 1168.78,-23.48 1109.46,-15.53"/>
<polygon fill="midnightblue" stroke="midnightblue" points="1109.56,-12.02 1099.18,-14.16 1108.63,-18.95 1109.56,-12.02"/>
</g>
<!-- Node11&#45;&gt;Node9 -->
<g id="edge15" class="edge">
<title>Node11&#45;&gt;Node9</title>
<path fill="none" stroke="midnightblue" d="M1479.3,-56.44C1498.71,-47.64 1529.17,-33.81 1551.41,-23.72"/>
<polygon fill="midnightblue" stroke="midnightblue" points="1553.02,-26.84 1560.68,-19.52 1550.12,-20.46 1553.02,-26.84"/>
</g>
<!-- Node12 -->
<g id="node12" class="node">
<title>Node12</title>
<g id="a_node12"><a xlink:title=" ">
<polygon fill="white" stroke="#bfbfbf" points="1475.44,-0.5 1475.44,-19.5 1539.44,-19.5 1539.44,-0.5 1475.44,-0.5"/>
<text text-anchor="middle" x="1507.44" y="-7.5" font-family="Helvetica,sans-Serif" font-size="10.00">algorithm</text>
</a>
</g>
</g>
<!-- Node11&#45;&gt;Node12 -->
<g id="edge12" class="edge">
<title>Node11&#45;&gt;Node12</title>
<path fill="none" stroke="midnightblue" d="M1468.2,-56.08C1474.98,-48.3 1484.99,-36.8 1493.2,-27.37"/>
<polygon fill="midnightblue" stroke="midnightblue" points="1495.9,-29.59 1499.83,-19.75 1490.62,-25 1495.9,-29.59"/>
</g>
<!-- Node13 -->
<g id="node13" class="node">
<title>Node13</title>
<g id="a_node13"><a xlink:title=" ">
<polygon fill="white" stroke="#bfbfbf" points="1642.44,-0.5 1642.44,-19.5 1684.44,-19.5 1684.44,-0.5 1642.44,-0.5"/>
<text text-anchor="middle" x="1663.44" y="-7.5" font-family="Helvetica,sans-Serif" font-size="10.00">array</text>
</a>
</g>
</g>
<!-- Node11&#45;&gt;Node13 -->
<g id="edge13" class="edge">
<title>Node11&#45;&gt;Node13</title>
<path fill="none" stroke="midnightblue" d="M1492.61,-56.44C1530.93,-46.25 1594.51,-29.34 1632.35,-19.27"/>
<polygon fill="midnightblue" stroke="midnightblue" points="1633.54,-22.58 1642.3,-16.62 1631.74,-15.81 1633.54,-22.58"/>
</g>
<!-- Node14 -->
<g id="node14" class="node">
<title>Node14</title>
<g id="a_node14"><a xlink:title=" ">
<polygon fill="white" stroke="#bfbfbf" points="1320.94,-0.5 1320.94,-19.5 1369.94,-19.5 1369.94,-0.5 1320.94,-0.5"/>
<text text-anchor="middle" x="1345.44" y="-7.5" font-family="Helvetica,sans-Serif" font-size="10.00">cctype</text>
</a>
</g>
</g>
<!-- Node11&#45;&gt;Node14 -->
<g id="edge14" class="edge">
<title>Node11&#45;&gt;Node14</title>
<path fill="none" stroke="midnightblue" d="M1442.22,-56.44C1423.55,-47.68 1394.29,-33.94 1372.83,-23.86"/>
<polygon fill="midnightblue" stroke="midnightblue" points="1374.12,-20.6 1363.58,-19.52 1371.14,-26.93 1374.12,-20.6"/>
</g>
<!-- Node15 -->
<g id="node15" class="node">
<title>Node15</title>
<g id="a_node15"><a xlink:title=" ">
<polygon fill="white" stroke="#bfbfbf" points="407.94,-0.5 407.94,-19.5 480.94,-19.5 480.94,-0.5 407.94,-0.5"/>
<text text-anchor="middle" x="444.44" y="-7.5" font-family="Helvetica,sans-Serif" font-size="10.00">string_view</text>
</a>
</g>
</g>
<!-- Node11&#45;&gt;Node15 -->
<g id="edge16" class="edge">
<title>Node11&#45;&gt;Node15</title>
<path fill="none" stroke="midnightblue" d="M1415.09,-60.12C1400.24,-58.64 1383.65,-57.11 1368.44,-56 1032.41,-31.4 626.62,-16.9 491.06,-12.46"/>
<polygon fill="midnightblue" stroke="midnightblue" points="491.13,-8.97 481.02,-12.14 490.9,-15.96 491.13,-8.97"/>
</g>
<!-- Node16 -->
<g id="node16" class="node">
<title>Node16</title>
<g id="a_node16"><a xlink:title=" ">
<polygon fill="white" stroke="#bfbfbf" points="1387.94,-0.5 1387.94,-19.5 1456.94,-19.5 1456.94,-0.5 1387.94,-0.5"/>
<text text-anchor="middle" x="1422.44" y="-7.5" font-family="Helvetica,sans-Serif" font-size="10.00">type_traits</text>
</a>
</g>
</g>
<!-- Node11&#45;&gt;Node16 -->
<g id="edge17" class="edge">
<title>Node11&#45;&gt;Node16</title>
<path fill="none" stroke="midnightblue" d="M1454.17,-56.08C1448.8,-48.46 1440.93,-37.26 1434.36,-27.94"/>
<polygon fill="midnightblue" stroke="midnightblue" points="1437.22,-25.91 1428.6,-19.75 1431.49,-29.94 1437.22,-25.91"/>
</g>
<!-- Node20&#45;&gt;Node17 -->
<g id="edge68" class="edge">
<title>Node20&#45;&gt;Node17</title>
<path fill="none" stroke="midnightblue" d="M1295.05,-336.21C1283.72,-328.09 1267.86,-315.05 1258.44,-300 1213.96,-228.89 1198.13,-127.31 1193.3,-85.78"/>
<polygon fill="midnightblue" stroke="midnightblue" points="1196.77,-85.3 1192.22,-75.74 1189.81,-86.05 1196.77,-85.3"/>
</g>
<!-- Node21 -->
<g id="node21" class="node">
<title>Node21</title>
<g id="a_node21"><a xlink:href="hash__provider_8h.html" target="_top" xlink:title=" ">
<polygon fill="white" stroke="black" points="1467.94,-280.5 1467.94,-299.5 1612.94,-299.5 1612.94,-280.5 1467.94,-280.5"/>
<text text-anchor="middle" x="1540.44" y="-287.5" font-family="Helvetica,sans-Serif" font-size="10.00">ccf/crypto/hash_provider.h</text>
</a>
</g>
</g>
<!-- Node20&#45;&gt;Node21 -->
<g id="edge24" class="edge">
<title>Node20&#45;&gt;Node21</title>
<path fill="none" stroke="midnightblue" d="M1345.2,-336.44C1385.51,-327.06 1450.25,-311.99 1494.03,-301.8"/>
<polygon fill="midnightblue" stroke="midnightblue" points="1494.91,-305.19 1503.85,-299.52 1493.32,-298.37 1494.91,-305.19"/>
</g>
<!-- Node25 -->
<g id="node25" class="node">
<title>Node25</title>
<g id="a_node25"><a xlink:href="openssl__wrappers_8h.html" target="_top" xlink:title=" ">
<polygon fill="white" stroke="black" points="568.94,-280.5 568.94,-299.5 681.94,-299.5 681.94,-280.5 568.94,-280.5"/>
<text text-anchor="middle" x="625.44" y="-287.5" font-family="Helvetica,sans-Serif" font-size="10.00">openssl_wrappers.h</text>
</a>
</g>
</g>
<!-- Node20&#45;&gt;Node25 -->
<g id="edge36" class="edge">
<title>Node20&#45;&gt;Node25</title>
<path fill="none" stroke="midnightblue" d="M1246.93,-340.14C1118.94,-330.02 824.89,-306.77 692.37,-296.29"/>
<polygon fill="midnightblue" stroke="midnightblue" points="692.59,-292.8 682.34,-295.5 692.04,-299.78 692.59,-292.8"/>
</g>
<!-- Node39 -->
<g id="node39" class="node">
<title>Node39</title>
<g id="a_node39"><a xlink:title=" ">
<polygon fill="white" stroke="#bfbfbf" points="1089.44,-224.5 1089.44,-243.5 1173.44,-243.5 1173.44,-224.5 1089.44,-224.5"/>
<text text-anchor="middle" x="1131.44" y="-231.5" font-family="Helvetica,sans-Serif" font-size="10.00">openssl/evp.h</text>
</a>
</g>
</g>
<!-- Node20&#45;&gt;Node39 -->
<g id="edge65" class="edge">
<title>Node20&#45;&gt;Node39</title>
<path fill="none" stroke="midnightblue" d="M1291.29,-336.39C1274.29,-327.7 1247.65,-313.64 1225.44,-300 1199.15,-283.85 1170.1,-263.32 1151.36,-249.71"/>
<polygon fill="midnightblue" stroke="midnightblue" points="1153.18,-246.7 1143.04,-243.63 1149.05,-252.35 1153.18,-246.7"/>
</g>
<!-- Node44 -->
<g id="node44" class="node">
<title>Node44</title>
<g id="a_node44"><a xlink:title=" ">
<polygon fill="white" stroke="#bfbfbf" points="1267.94,-280.5 1267.94,-299.5 1348.94,-299.5 1348.94,-280.5 1267.94,-280.5"/>
<text text-anchor="middle" x="1308.44" y="-287.5" font-family="Helvetica,sans-Serif" font-size="10.00">openssl/kdf.h</text>
</a>
</g>
</g>
<!-- Node20&#45;&gt;Node44 -->
<g id="edge66" class="edge">
<title>Node20&#45;&gt;Node44</title>
<path fill="none" stroke="midnightblue" d="M1308.44,-336.08C1308.44,-329.01 1308.44,-318.86 1308.44,-309.99"/>
<polygon fill="midnightblue" stroke="midnightblue" points="1311.94,-309.75 1308.44,-299.75 1304.94,-309.75 1311.94,-309.75"/>
</g>
<!-- Node45 -->
<g id="node45" class="node">
<title>Node45</title>
<g id="a_node45"><a xlink:title=" ">
<polygon fill="white" stroke="#bfbfbf" points="1366.94,-280.5 1366.94,-299.5 1449.94,-299.5 1449.94,-280.5 1366.94,-280.5"/>
<text text-anchor="middle" x="1408.44" y="-287.5" font-family="Helvetica,sans-Serif" font-size="10.00">openssl/sha.h</text>
</a>
</g>
</g>
<!-- Node20&#45;&gt;Node45 -->
<g id="edge67" class="edge">
<title>Node20&#45;&gt;Node45</title>
<path fill="none" stroke="midnightblue" d="M1324.51,-336.32C1340.4,-327.74 1364.95,-314.49 1383.4,-304.52"/>
<polygon fill="midnightblue" stroke="midnightblue" points="1385.28,-307.49 1392.42,-299.65 1381.95,-301.33 1385.28,-307.49"/>
</g>
<!-- Node21&#45;&gt;Node3 -->
<g id="edge25" class="edge">
<title>Node21&#45;&gt;Node3</title>
<path fill="none" stroke="midnightblue" d="M1572.93,-280.44C1608.16,-271.16 1664.55,-256.31 1703.2,-246.13"/>
<polygon fill="midnightblue" stroke="midnightblue" points="1704.33,-249.45 1713.11,-243.52 1702.55,-242.68 1704.33,-249.45"/>
</g>
<!-- Node21&#45;&gt;Node4 -->
<g id="edge33" class="edge">
<title>Node21&#45;&gt;Node4</title>
<path fill="none" stroke="midnightblue" d="M1536.14,-280.45C1530.06,-267.01 1520.99,-240.77 1533.44,-224 1540.38,-214.66 1605.47,-197.51 1647.3,-187.29"/>
<polygon fill="midnightblue" stroke="midnightblue" points="1648.23,-190.67 1657.12,-184.91 1646.58,-183.86 1648.23,-190.67"/>
</g>
<!-- Node21&#45;&gt;Node5 -->
<g id="edge35" class="edge">
<title>Node21&#45;&gt;Node5</title>
<path fill="none" stroke="midnightblue" d="M1475.43,-280.49C1418.05,-272.54 1332.3,-259.57 1258.44,-244 1224.27,-236.79 1216.61,-231.24 1182.44,-224 1084.23,-203.2 1051.76,-227.46 959.44,-188 921.52,-171.79 903.81,-168.93 885.44,-132 868.88,-98.7 890.78,-78.43 920.44,-56 956.24,-28.93 1007.92,-18.12 1041.59,-13.82"/>
<polygon fill="midnightblue" stroke="midnightblue" points="1042.32,-17.26 1051.85,-12.64 1041.52,-10.3 1042.32,-17.26"/>
</g>
<!-- Node21&#45;&gt;Node6 -->
<g id="edge26" class="edge">
<title>Node21&#45;&gt;Node6</title>
<path fill="none" stroke="midnightblue" d="M1550.24,-280.32C1559.26,-272.34 1572.85,-260.31 1583.76,-250.65"/>
<polygon fill="midnightblue" stroke="midnightblue" points="1586.3,-253.08 1591.46,-243.83 1581.66,-247.84 1586.3,-253.08"/>
</g>
<!-- Node21&#45;&gt;Node13 -->
<g id="edge32" class="edge">
<title>Node21&#45;&gt;Node13</title>
<path fill="none" stroke="midnightblue" d="M1604.37,-280.48C1684.49,-269.54 1812.37,-251.12 1820.44,-244 1843.01,-224.09 1839.44,-209.1 1839.44,-179 1839.44,-179 1839.44,-179 1839.44,-121 1839.44,-53.55 1745.35,-25.93 1694.76,-15.95"/>
<polygon fill="midnightblue" stroke="midnightblue" points="1695.14,-12.46 1684.67,-14.08 1693.87,-19.35 1695.14,-12.46"/>
</g>
<!-- Node22 -->
<g id="node22" class="node">
<title>Node22</title>
<g id="a_node22"><a xlink:href="sha256__hash_8h.html" target="_top" xlink:title=" ">
<polygon fill="white" stroke="black" points="1267.44,-224.5 1267.44,-243.5 1407.44,-243.5 1407.44,-224.5 1267.44,-224.5"/>
<text text-anchor="middle" x="1337.44" y="-231.5" font-family="Helvetica,sans-Serif" font-size="10.00">ccf/crypto/sha256_hash.h</text>
</a>
</g>
</g>
<!-- Node21&#45;&gt;Node22 -->
<g id="edge27" class="edge">
<title>Node21&#45;&gt;Node22</title>
<path fill="none" stroke="midnightblue" d="M1508.28,-280.44C1473.38,-271.16 1417.55,-256.31 1379.27,-246.13"/>
<polygon fill="midnightblue" stroke="midnightblue" points="1380.02,-242.7 1369.46,-243.52 1378.22,-249.47 1380.02,-242.7"/>
</g>
<!-- Node24 -->
<g id="node24" class="node">
<title>Node24</title>
<g id="a_node24"><a xlink:title=" ">
<polygon fill="white" stroke="#bfbfbf" points="1425.44,-224.5 1425.44,-243.5 1485.44,-243.5 1485.44,-224.5 1425.44,-224.5"/>
<text text-anchor="middle" x="1455.44" y="-231.5" font-family="Helvetica,sans-Serif" font-size="10.00">iostream</text>
</a>
</g>
</g>
<!-- Node21&#45;&gt;Node24 -->
<g id="edge34" class="edge">
<title>Node21&#45;&gt;Node24</title>
<path fill="none" stroke="midnightblue" d="M1526.79,-280.32C1513.53,-271.9 1493.18,-258.97 1477.6,-249.07"/>
<polygon fill="midnightblue" stroke="midnightblue" points="1479.38,-246.06 1469.07,-243.65 1475.63,-251.97 1479.38,-246.06"/>
</g>
<!-- Node22&#45;&gt;Node7 -->
<g id="edge28" class="edge">
<title>Node22&#45;&gt;Node7</title>
<path fill="none" stroke="midnightblue" d="M1348.21,-224.32C1358.21,-216.26 1373.33,-204.08 1385.37,-194.37"/>
<polygon fill="midnightblue" stroke="midnightblue" points="1387.89,-196.83 1393.48,-187.83 1383.5,-191.38 1387.89,-196.83"/>
</g>
<!-- Node22&#45;&gt;Node13 -->
<g id="edge29" class="edge">
<title>Node22&#45;&gt;Node13</title>
<path fill="none" stroke="midnightblue" d="M1377.73,-224.48C1444.52,-208.12 1577.44,-165.68 1644.44,-76 1654.45,-62.61 1659.2,-44.04 1661.45,-30.18"/>
<polygon fill="midnightblue" stroke="midnightblue" points="1664.97,-30.23 1662.81,-19.86 1658.03,-29.31 1664.97,-30.23"/>
</g>
<!-- Node22&#45;&gt;Node17 -->
<g id="edge31" class="edge">
<title>Node22&#45;&gt;Node17</title>
<path fill="none" stroke="midnightblue" d="M1338.8,-224.5C1341.72,-202.95 1346.29,-145.54 1318.44,-112 1307.82,-99.21 1269.86,-86.75 1238.18,-78.2"/>
<polygon fill="midnightblue" stroke="midnightblue" points="1238.71,-74.72 1228.15,-75.57 1236.93,-81.49 1238.71,-74.72"/>
</g>
<!-- Node23 -->
<g id="node23" class="node">
<title>Node23</title>
<g id="a_node23"><a xlink:title=" ">
<polygon fill="white" stroke="#bfbfbf" points="1150.44,-168.5 1150.44,-187.5 1190.44,-187.5 1190.44,-168.5 1150.44,-168.5"/>
<text text-anchor="middle" x="1170.44" y="-175.5" font-family="Helvetica,sans-Serif" font-size="10.00">span</text>
</a>
</g>
</g>
<!-- Node22&#45;&gt;Node23 -->
<g id="edge30" class="edge">
<title>Node22&#45;&gt;Node23</title>
<path fill="none" stroke="midnightblue" d="M1310.98,-224.44C1280.77,-214.68 1231.49,-198.74 1200.03,-188.57"/>
<polygon fill="midnightblue" stroke="midnightblue" points="1201.08,-185.23 1190.49,-185.48 1198.93,-191.89 1201.08,-185.23"/>
</g>
<!-- Node25&#45;&gt;Node17 -->
<g id="edge54" class="edge">
<title>Node25&#45;&gt;Node17</title>
<path fill="none" stroke="midnightblue" d="M681.97,-286.69C777.19,-282.14 965.06,-270.09 1025.44,-244 1095.76,-213.62 1108.47,-191.72 1156.44,-132 1168.09,-117.51 1177.77,-98.58 1183.98,-84.88"/>
<polygon fill="midnightblue" stroke="midnightblue" points="1187.24,-86.16 1188.02,-75.6 1180.82,-83.37 1187.24,-86.16"/>
</g>
<!-- Node26 -->
<g id="node26" class="node">
<title>Node26</title>
<g id="a_node26"><a xlink:href="pem_8h.html" target="_top" xlink:title=" ">
<polygon fill="white" stroke="black" points="49.44,-224.5 49.44,-243.5 147.44,-243.5 147.44,-224.5 49.44,-224.5"/>
<text text-anchor="middle" x="98.44" y="-231.5" font-family="Helvetica,sans-Serif" font-size="10.00">ccf/crypto/pem.h</text>
</a>
</g>
</g>
<!-- Node25&#45;&gt;Node26 -->
<g id="edge37" class="edge">
<title>Node25&#45;&gt;Node26</title>
<path fill="none" stroke="midnightblue" d="M568.65,-284.63C482.23,-277.73 312.27,-263.25 157.63,-244.08"/>
<polygon fill="midnightblue" stroke="midnightblue" points="157.82,-240.58 147.46,-242.81 156.95,-247.52 157.82,-240.58"/>
</g>
<!-- Node29 -->
<g id="node29" class="node">
<title>Node29</title>
<g id="a_node29"><a xlink:title=" ">
<polygon fill="white" stroke="#bfbfbf" points="12.44,-168.5 12.44,-187.5 70.44,-187.5 70.44,-168.5 12.44,-168.5"/>
<text text-anchor="middle" x="41.44" y="-175.5" font-family="Helvetica,sans-Serif" font-size="10.00">memory</text>
</a>
</g>
</g>
<!-- Node25&#45;&gt;Node29 -->
<g id="edge55" class="edge">
<title>Node25&#45;&gt;Node29</title>
<path fill="none" stroke="midnightblue" d="M568.75,-288.91C428.85,-288.1 75.87,-282.26 40.44,-244 29.2,-231.86 31.16,-212.3 34.89,-197.81"/>
<polygon fill="midnightblue" stroke="midnightblue" points="38.34,-198.5 37.9,-187.92 31.64,-196.47 38.34,-198.5"/>
</g>
<!-- Node30 -->
<g id="node30" class="node">
<title>Node30</title>
<g id="a_node30"><a xlink:title=" ">
<polygon fill="white" stroke="#bfbfbf" points="423.44,-112.5 423.44,-131.5 473.44,-131.5 473.44,-112.5 423.44,-112.5"/>
<text text-anchor="middle" x="448.44" y="-119.5" font-family="Helvetica,sans-Serif" font-size="10.00">chrono</text>
</a>
</g>
</g>
<!-- Node25&#45;&gt;Node30 -->
<g id="edge45" class="edge">
<title>Node25&#45;&gt;Node30</title>
<path fill="none" stroke="midnightblue" d="M568.73,-288C428.19,-285.06 71.98,-274.63 28.44,-244 6.15,-228.32 9.12,-214.66 3.44,-188 1.59,-179.31 -2.52,-174.59 3.44,-168 30.76,-137.78 312.32,-126.87 412.94,-123.91"/>
<polygon fill="midnightblue" stroke="midnightblue" points="413.3,-127.4 423.2,-123.62 413.1,-120.41 413.3,-127.4"/>
</g>
<!-- Node31 -->
<g id="node31" class="node">
<title>Node31</title>
<g id="a_node31"><a xlink:href="x509__time__fmt_8h.html" target="_top" xlink:title=" ">
<polygon fill="white" stroke="black" points="968.44,-168.5 968.44,-187.5 1082.44,-187.5 1082.44,-168.5 968.44,-168.5"/>
<text text-anchor="middle" x="1025.44" y="-175.5" font-family="Helvetica,sans-Serif" font-size="10.00">ds/x509_time_fmt.h</text>
</a>
</g>
</g>
<!-- Node25&#45;&gt;Node31 -->
<g id="edge46" class="edge">
<title>Node25&#45;&gt;Node31</title>
<path fill="none" stroke="midnightblue" d="M682.02,-289.53C775.46,-289.26 956.46,-283.46 1004.44,-244 1018.02,-232.84 1022.91,-212.81 1024.63,-197.93"/>
<polygon fill="midnightblue" stroke="midnightblue" points="1028.13,-198.02 1025.41,-187.78 1021.15,-197.48 1028.13,-198.02"/>
</g>
<!-- Node35 -->
<g id="node35" class="node">
<title>Node35</title>
<g id="a_node35"><a xlink:title=" ">
<polygon fill="white" stroke="#bfbfbf" points="165.94,-224.5 165.94,-243.5 254.94,-243.5 254.94,-224.5 165.94,-224.5"/>
<text text-anchor="middle" x="210.44" y="-231.5" font-family="Helvetica,sans-Serif" font-size="10.00">openssl/asn1.h</text>
</a>
</g>
</g>
<!-- Node25&#45;&gt;Node35 -->
<g id="edge56" class="edge">
<title>Node25&#45;&gt;Node35</title>
<path fill="none" stroke="midnightblue" d="M568.91,-282.76C499.6,-274.94 378.33,-260.68 264.85,-244.16"/>
<polygon fill="midnightblue" stroke="midnightblue" points="265.36,-240.69 254.95,-242.71 264.34,-247.62 265.36,-240.69"/>
</g>
<!-- Node36 -->
<g id="node36" class="node">
<title>Node36</title>
<g id="a_node36"><a xlink:title=" ">
<polygon fill="white" stroke="#bfbfbf" points="272.94,-224.5 272.94,-243.5 349.94,-243.5 349.94,-224.5 272.94,-224.5"/>
<text text-anchor="middle" x="311.44" y="-231.5" font-family="Helvetica,sans-Serif" font-size="10.00">openssl/ec.h</text>
</a>
</g>
</g>
<!-- Node25&#45;&gt;Node36 -->
<g id="edge57" class="edge">
<title>Node25&#45;&gt;Node36</title>
<path fill="none" stroke="midnightblue" d="M572.7,-280.47C521,-272.02 439.71,-258.53 360.33,-244.31"/>
<polygon fill="midnightblue" stroke="midnightblue" points="360.62,-240.81 350.16,-242.48 359.38,-247.7 360.62,-240.81"/>
</g>
<!-- Node37 -->
<g id="node37" class="node">
<title>Node37</title>
<g id="a_node37"><a xlink:title=" ">
<polygon fill="white" stroke="#bfbfbf" points="367.94,-224.5 367.94,-243.5 466.94,-243.5 466.94,-224.5 367.94,-224.5"/>
<text text-anchor="middle" x="417.44" y="-231.5" font-family="Helvetica,sans-Serif" font-size="10.00">openssl/engine.h</text>
</a>
</g>
</g>
<!-- Node25&#45;&gt;Node37 -->
<g id="edge58" class="edge">
<title>Node25&#45;&gt;Node37</title>
<path fill="none" stroke="midnightblue" d="M592.49,-280.44C556.66,-271.14 499.28,-256.25 460.05,-246.06"/>
<polygon fill="midnightblue" stroke="midnightblue" points="460.81,-242.64 450.25,-243.52 459.05,-249.42 460.81,-242.64"/>
</g>
<!-- Node38 -->
<g id="node38" class="node">
<title>Node38</title>
<g id="a_node38"><a xlink:title=" ">
<polygon fill="white" stroke="#bfbfbf" points="484.94,-224.5 484.94,-243.5 563.94,-243.5 563.94,-224.5 484.94,-224.5"/>
<text text-anchor="middle" x="524.44" y="-231.5" font-family="Helvetica,sans-Serif" font-size="10.00">openssl/err.h</text>
</a>
</g>
</g>
<!-- Node25&#45;&gt;Node38 -->
<g id="edge59" class="edge">
<title>Node25&#45;&gt;Node38</title>
<path fill="none" stroke="midnightblue" d="M609.22,-280.32C593.09,-271.7 568.14,-258.36 549.48,-248.39"/>
<polygon fill="midnightblue" stroke="midnightblue" points="551.1,-245.28 540.63,-243.65 547.8,-251.46 551.1,-245.28"/>
</g>
<!-- Node25&#45;&gt;Node39 -->
<g id="edge60" class="edge">
<title>Node25&#45;&gt;Node39</title>
<path fill="none" stroke="midnightblue" d="M682.04,-284.43C767.46,-277.29 934.33,-262.38 1075.44,-244 1076.71,-243.84 1077.99,-243.66 1079.27,-243.49"/>
<polygon fill="midnightblue" stroke="midnightblue" points="1079.88,-246.94 1089.29,-242.05 1078.89,-240.01 1079.88,-246.94"/>
</g>
<!-- Node40 -->
<g id="node40" class="node">
<title>Node40</title>
<g id="a_node40"><a xlink:title=" ">
<polygon fill="white" stroke="#bfbfbf" points="581.44,-224.5 581.44,-243.5 669.44,-243.5 669.44,-224.5 581.44,-224.5"/>
<text text-anchor="middle" x="625.44" y="-231.5" font-family="Helvetica,sans-Serif" font-size="10.00">openssl/pem.h</text>
</a>
</g>
</g>
<!-- Node25&#45;&gt;Node40 -->
<g id="edge61" class="edge">
<title>Node25&#45;&gt;Node40</title>
<path fill="none" stroke="midnightblue" d="M625.44,-280.08C625.44,-273.01 625.44,-262.86 625.44,-253.99"/>
<polygon fill="midnightblue" stroke="midnightblue" points="628.94,-253.75 625.44,-243.75 621.94,-253.75 628.94,-253.75"/>
</g>
<!-- Node41 -->
<g id="node41" class="node">
<title>Node41</title>
<g id="a_node41"><a xlink:title=" ">
<polygon fill="white" stroke="#bfbfbf" points="687.44,-224.5 687.44,-243.5 767.44,-243.5 767.44,-224.5 687.44,-224.5"/>
<text text-anchor="middle" x="727.44" y="-231.5" font-family="Helvetica,sans-Serif" font-size="10.00">openssl/ssl.h</text>
</a>
</g>
</g>
<!-- Node25&#45;&gt;Node41 -->
<g id="edge62" class="edge">
<title>Node25&#45;&gt;Node41</title>
<path fill="none" stroke="midnightblue" d="M641.83,-280.32C658.11,-271.7 683.31,-258.36 702.16,-248.39"/>
<polygon fill="midnightblue" stroke="midnightblue" points="703.9,-251.43 711.1,-243.65 700.62,-245.24 703.9,-251.43"/>
</g>
<!-- Node42 -->
<g id="node42" class="node">
<title>Node42</title>
<g id="a_node42"><a xlink:title=" ">
<polygon fill="white" stroke="#bfbfbf" points="785.44,-224.5 785.44,-243.5 875.44,-243.5 875.44,-224.5 785.44,-224.5"/>
<text text-anchor="middle" x="830.44" y="-231.5" font-family="Helvetica,sans-Serif" font-size="10.00">openssl/x509.h</text>
</a>
</g>
</g>
<!-- Node25&#45;&gt;Node42 -->
<g id="edge63" class="edge">
<title>Node25&#45;&gt;Node42</title>
<path fill="none" stroke="midnightblue" d="M657.93,-280.44C693.16,-271.16 749.55,-256.31 788.2,-246.13"/>
<polygon fill="midnightblue" stroke="midnightblue" points="789.33,-249.45 798.11,-243.52 787.55,-242.68 789.33,-249.45"/>
</g>
<!-- Node43 -->
<g id="node43" class="node">
<title>Node43</title>
<g id="a_node43"><a xlink:title=" ">
<polygon fill="white" stroke="#bfbfbf" points="893.44,-224.5 893.44,-243.5 995.44,-243.5 995.44,-224.5 893.44,-224.5"/>
<text text-anchor="middle" x="944.44" y="-231.5" font-family="Helvetica,sans-Serif" font-size="10.00">openssl/x509v3.h</text>
</a>
</g>
</g>
<!-- Node25&#45;&gt;Node43 -->
<g id="edge64" class="edge">
<title>Node25&#45;&gt;Node43</title>
<path fill="none" stroke="midnightblue" d="M675.99,-280.44C732.46,-270.89 823.82,-255.42 884.01,-245.23"/>
<polygon fill="midnightblue" stroke="midnightblue" points="884.86,-248.64 894.13,-243.52 883.69,-241.73 884.86,-248.64"/>
</g>
<!-- Node26&#45;&gt;Node5 -->
<g id="edge44" class="edge">
<title>Node26&#45;&gt;Node5</title>
<path fill="none" stroke="midnightblue" d="M132.02,-224.49C255.48,-193.24 684.28,-85.14 822.44,-56 900.53,-39.53 993.01,-24.11 1041.65,-16.31"/>
<polygon fill="midnightblue" stroke="midnightblue" points="1042.3,-19.75 1051.63,-14.72 1041.2,-12.83 1042.3,-19.75"/>
</g>
<!-- Node26&#45;&gt;Node7 -->
<g id="edge38" class="edge">
<title>Node26&#45;&gt;Node7</title>
<path fill="none" stroke="midnightblue" d="M147.75,-224.94C150.69,-224.59 153.6,-224.27 156.44,-224 618.22,-180.36 735.97,-206.17 1199.44,-188 1252.93,-185.9 1314.26,-183.17 1355.79,-181.26"/>
<polygon fill="midnightblue" stroke="midnightblue" points="1356.08,-184.75 1365.91,-180.8 1355.76,-177.76 1356.08,-184.75"/>
</g>
<!-- Node26&#45;&gt;Node15 -->
<g id="edge43" class="edge">
<title>Node26&#45;&gt;Node15</title>
<path fill="none" stroke="midnightblue" d="M98.78,-224.38C99.75,-210.86 103.44,-184.49 117.44,-168 191.92,-80.25 326.72,-37.77 397.75,-20.65"/>
<polygon fill="midnightblue" stroke="midnightblue" points="398.82,-24 407.76,-18.31 397.22,-17.18 398.82,-24"/>
</g>
<!-- Node26&#45;&gt;Node23 -->
<g id="edge42" class="edge">
<title>Node26&#45;&gt;Node23</title>
<path fill="none" stroke="midnightblue" d="M147.76,-224.95C150.69,-224.6 153.6,-224.27 156.44,-224 570.38,-184.05 676.78,-219.56 1091.44,-188 1107.61,-186.77 1125.58,-184.77 1140.29,-182.97"/>
<polygon fill="midnightblue" stroke="midnightblue" points="1140.87,-186.43 1150.35,-181.71 1139.99,-179.48 1140.87,-186.43"/>
</g>
<!-- Node27 -->
<g id="node27" class="node">
<title>Node27</title>
<g id="a_node27"><a xlink:title=" ">
<polygon fill="white" stroke="#bfbfbf" points="210.44,-168.5 210.44,-187.5 260.44,-187.5 260.44,-168.5 210.44,-168.5"/>
<text text-anchor="middle" x="235.44" y="-175.5" font-family="Helvetica,sans-Serif" font-size="10.00">cstring</text>
</a>
</g>
</g>
<!-- Node26&#45;&gt;Node27 -->
<g id="edge39" class="edge">
<title>Node26&#45;&gt;Node27</title>
<path fill="none" stroke="midnightblue" d="M120.15,-224.44C142.8,-215.52 178.52,-201.44 204.2,-191.32"/>
<polygon fill="midnightblue" stroke="midnightblue" points="205.82,-194.44 213.84,-187.52 203.25,-187.93 205.82,-194.44"/>
</g>
<!-- Node28 -->
<g id="node28" class="node">
<title>Node28</title>
<g id="a_node28"><a xlink:title=" ">
<polygon fill="white" stroke="#bfbfbf" points="126.94,-168.5 126.94,-187.5 191.94,-187.5 191.94,-168.5 126.94,-168.5"/>
<text text-anchor="middle" x="159.44" y="-175.5" font-family="Helvetica,sans-Serif" font-size="10.00">exception</text>
</a>
</g>
</g>
<!-- Node26&#45;&gt;Node28 -->
<g id="edge40" class="edge">
<title>Node26&#45;&gt;Node28</title>
<path fill="none" stroke="midnightblue" d="M108.24,-224.32C117.26,-216.34 130.85,-204.31 141.76,-194.65"/>
<polygon fill="midnightblue" stroke="midnightblue" points="144.3,-197.08 149.46,-187.83 139.66,-191.84 144.3,-197.08"/>
</g>
<!-- Node26&#45;&gt;Node29 -->
<g id="edge41" class="edge">
<title>Node26&#45;&gt;Node29</title>
<path fill="none" stroke="midnightblue" d="M89.29,-224.32C80.94,-216.42 68.41,-204.55 58.27,-194.94"/>
<polygon fill="midnightblue" stroke="midnightblue" points="60.43,-192.17 50.77,-187.83 55.62,-197.25 60.43,-192.17"/>
</g>
<!-- Node31&#45;&gt;Node5 -->
<g id="edge53" class="edge">
<title>Node31&#45;&gt;Node5</title>
<path fill="none" stroke="midnightblue" d="M968.04,-170.1C923.97,-162.1 873.75,-145.46 893.44,-112 925.52,-57.51 998.77,-30.33 1041.93,-18.57"/>
<polygon fill="midnightblue" stroke="midnightblue" points="1042.89,-21.94 1051.69,-16.04 1041.13,-15.16 1042.89,-21.94"/>
</g>
<!-- Node31&#45;&gt;Node17 -->
<g id="edge49" class="edge">
<title>Node31&#45;&gt;Node17</title>
<path fill="none" stroke="midnightblue" d="M1053.81,-168.42C1075.91,-160.91 1106.73,-148.61 1130.44,-132 1149.76,-118.47 1167.69,-98.02 1179.04,-83.68"/>
<polygon fill="midnightblue" stroke="midnightblue" points="1181.89,-85.72 1185.22,-75.66 1176.35,-81.45 1181.89,-85.72"/>
</g>
<!-- Node31&#45;&gt;Node19 -->
<g id="edge51" class="edge">
<title>Node31&#45;&gt;Node19</title>
<path fill="none" stroke="midnightblue" d="M1066.01,-168.44C1114.74,-158.16 1195.85,-141.05 1243.42,-131.02"/>
<polygon fill="midnightblue" stroke="midnightblue" points="1244.26,-134.42 1253.33,-128.93 1242.82,-127.57 1244.26,-134.42"/>
</g>
<!-- Node31&#45;&gt;Node30 -->
<g id="edge47" class="edge">
<title>Node31&#45;&gt;Node30</title>
<path fill="none" stroke="midnightblue" d="M968.27,-171.65C849.74,-160.56 580.19,-135.33 483.65,-126.3"/>
<polygon fill="midnightblue" stroke="midnightblue" points="483.83,-122.8 473.54,-125.35 483.17,-129.77 483.83,-122.8"/>
</g>
<!-- Node32 -->
<g id="node32" class="node">
<title>Node32</title>
<g id="a_node32"><a xlink:title=" ">
<polygon fill="white" stroke="#bfbfbf" points="902.94,-112.5 902.94,-131.5 981.94,-131.5 981.94,-112.5 902.94,-112.5"/>
<text text-anchor="middle" x="942.44" y="-119.5" font-family="Helvetica,sans-Serif" font-size="10.00">fmt/chrono.h</text>
</a>
</g>
</g>
<!-- Node31&#45;&gt;Node32 -->
<g id="edge48" class="edge">
<title>Node31&#45;&gt;Node32</title>
<path fill="none" stroke="midnightblue" d="M1012.11,-168.32C999.28,-159.98 979.66,-147.21 964.5,-137.35"/>
<polygon fill="midnightblue" stroke="midnightblue" points="966.04,-134.17 955.75,-131.65 962.22,-140.04 966.04,-134.17"/>
</g>
<!-- Node33 -->
<g id="node33" class="node">
<title>Node33</title>
<g id="a_node33"><a xlink:title=" ">
<polygon fill="white" stroke="#bfbfbf" points="999.44,-112.5 999.44,-131.5 1055.44,-131.5 1055.44,-112.5 999.44,-112.5"/>
<text text-anchor="middle" x="1027.44" y="-119.5" font-family="Helvetica,sans-Serif" font-size="10.00">iomanip</text>
</a>
</g>
</g>
<!-- Node31&#45;&gt;Node33 -->
<g id="edge50" class="edge">
<title>Node31&#45;&gt;Node33</title>
<path fill="none" stroke="midnightblue" d="M1025.77,-168.08C1026.04,-161.01 1026.41,-150.86 1026.74,-141.99"/>
<polygon fill="midnightblue" stroke="midnightblue" points="1030.25,-141.87 1027.12,-131.75 1023.25,-141.61 1030.25,-141.87"/>
</g>
<!-- Node34 -->
<g id="node34" class="node">
<title>Node34</title>
<g id="a_node34"><a xlink:title=" ">
<polygon fill="white" stroke="#bfbfbf" points="1073.44,-112.5 1073.44,-131.5 1121.44,-131.5 1121.44,-112.5 1073.44,-112.5"/>
<text text-anchor="middle" x="1097.44" y="-119.5" font-family="Helvetica,sans-Serif" font-size="10.00">time.h</text>
</a>
</g>
</g>
<!-- Node31&#45;&gt;Node34 -->
<g id="edge52" class="edge">
<title>Node31&#45;&gt;Node34</title>
<path fill="none" stroke="midnightblue" d="M1037.01,-168.32C1047.86,-160.18 1064.32,-147.84 1077.33,-138.09"/>
<polygon fill="midnightblue" stroke="midnightblue" points="1079.76,-140.63 1085.66,-131.83 1075.56,-135.03 1079.76,-140.63"/>
</g>
</g>
</svg>
        <g id="navigator" transform="translate(0 0)" fill="#404254">
                <rect fill="#f2f5e9" fill-opacity="0.5" stroke="#606060" stroke-width=".5" x="0" y="0" width="60" height="60"/>
                <use id="zoomplus" xlink:href="#zoomPlus" x="17" y="9" onmousedown="handleZoom(evt,'in')"/>
                <use id="zoomminus" xlink:href="#zoomMin" x="42" y="9" onmousedown="handleZoom(evt,'out')"/>
                <use id="reset" xlink:href="#resetDef" x="30" y="36" onmousedown="handleReset()"/>
                <g id="arrowUp" xlink:href="#dirArrow" transform="translate(30 24)" onmousedown="handlePan(0,-1)">
                  <use xlink:href="#rim" fill="#404040">
                        <set attributeName="fill" to="#808080" begin="arrowUp.mouseover" end="arrowUp.mouseout"/>
                  </use>
                  <path fill="none" stroke="white" stroke-width="1.5" d="M0,-3.0v7 M-2.5,-0.5L0,-3.0L2.5,-0.5"/>
                </g>
                <g id="arrowRight" xlink:href="#dirArrow" transform="rotate(90) translate(36 -43)" onmousedown="handlePan(1,0)">
                  <use xlink:href="#rim" fill="#404040">
                        <set attributeName="fill" to="#808080" begin="arrowRight.mouseover" end="arrowRight.mouseout"/>
                  </use>
                  <path fill="none" stroke="white" stroke-width="1.5" d="M0,-3.0v7 M-2.5,-0.5L0,-3.0L2.5,-0.5"/>
                </g>
                <g id="arrowDown" xlink:href="#dirArrow" transform="rotate(180) translate(-30 -48)" onmousedown="handlePan(0,1)">
                  <use xlink:href="#rim" fill="#404040">
                        <set attributeName="fill" to="#808080" begin="arrowDown.mouseover" end="arrowDown.mouseout"/>
                  </use>
                  <path fill="none" stroke="white" stroke-width="1.5" d="M0,-3.0v7 M-2.5,-0.5L0,-3.0L2.5,-0.5"/>
                </g>
                <g id="arrowLeft" xlink:href="#dirArrow" transform="rotate(270) translate(-36 17)" onmousedown="handlePan(-1,0)">
                  <use xlink:href="#rim" fill="#404040">
                        <set attributeName="fill" to="#808080" begin="arrowLeft.mouseover" end="arrowLeft.mouseout"/>
                  </use>
                  <path fill="none" stroke="white" stroke-width="1.5" d="M0,-3.0v7 M-2.5,-0.5L0,-3.0L2.5,-0.5"/>
                </g>
        </g>
        <svg viewBox="0 0 15 15" width="100%" height="30px" preserveAspectRatio="xMaxYMin meet">
         <g id="arrow_out" transform="scale(0.3 0.3)">
          <a xlink:href="hmac_8cpp__incl_org.svg" target="_base">
           <rect id="button" ry="5" rx="5" y="6" x="6" height="38" width="38"
                fill="#f2f5e9" fill-opacity="0.5" stroke="#606060" stroke-width="1.0"/>
           <path id="arrow"
             d="M 11.500037,31.436501 C 11.940474,20.09759 22.043105,11.32322 32.158766,21.979434 L 37.068811,17.246167 C 37.068811,17.246167 37.088388,32 37.088388,32 L 22.160133,31.978069 C 22.160133,31.978069 26.997745,27.140456 26.997745,27.140456 C 18.528582,18.264221 13.291696,25.230495 11.500037,31.436501 z"
             style="fill:#404040;"/>
          </a>
         </g>
        </svg>
</svg>
