<?xml version="1.0" encoding="UTF-8" standalone="no"?>
<!DOCTYPE svg PUBLIC "-//W3C//DTD SVG 1.1//EN"
 "http://www.w3.org/Graphics/SVG/1.1/DTD/svg11.dtd">
<!-- Generated by graphviz version 2.43.0 (0)
 -->
<!-- Title: src/host/enclave.h Pages: 1 -->
<!--zoomable 476 -->
<svg id="main" version="1.1" xmlns="http://www.w3.org/2000/svg" xmlns:xlink="http://www.w3.org/1999/xlink" xml:space="preserve" onload="init(evt)">
<style type="text/css"><![CDATA[
.edge:hover path { stroke: red; }
.edge:hover polygon { stroke: red; fill: red; }
]]></style>
<script type="text/javascript"><![CDATA[
var edges = document.getElementsByTagName('g');
if (edges && edges.length) {
  for (var i=0;i<edges.length;i++) {
    if (edges[i].id.substr(0,4)=='edge') {
      edges[i].setAttribute('class','edge');
    }
  }
}
]]></script>
        <defs>
                <circle id="rim" cx="0" cy="0" r="7"/>
                <circle id="rim2" cx="0" cy="0" r="3.5"/>
                <g id="zoomPlus">
                        <use xlink:href="#rim" fill="#404040">
                                <set attributeName="fill" to="#808080" begin="zoomplus.mouseover" end="zoomplus.mouseout"/>
                        </use>
                        <path d="M-4,0h8M0,-4v8" fill="none" stroke="white" stroke-width="1.5" pointer-events="none"/>
                </g>
                <g id="zoomMin">
                        <use xlink:href="#rim" fill="#404040">
                                <set attributeName="fill" to="#808080" begin="zoomminus.mouseover" end="zoomminus.mouseout"/>
                        </use>
                        <path d="M-4,0h8" fill="none" stroke="white" stroke-width="1.5" pointer-events="none"/>
                </g>
                <g id="dirArrow">
                        <path fill="none" stroke="white" stroke-width="1.5" d="M0,-3.0v7 M-2.5,-0.5L0,-3.0L2.5,-0.5"/>
                </g>
               <g id="resetDef">
                       <use xlink:href="#rim2" fill="#404040">
                               <set attributeName="fill" to="#808080" begin="reset.mouseover" end="reset.mouseout"/>
                       </use>
               </g>
        </defs>

<script type="text/javascript">
var viewWidth = 2086;
var viewHeight = 476;
var sectionId = 'dynsection-0';
</script>
<script xlink:href="svgpan.js"/>
<svg id="graph" class="graph">
<g id="viewport">
<title>src/host/enclave.h</title>
<polygon fill="white" stroke="transparent" points="-4,4 -4,-472 2082,-472 2082,4 -4,4"/>
<!-- Node1 -->
<g id="node1" class="node">
<title>Node1</title>
<g id="a_node1"><a xlink:title=" ">
<polygon fill="#bfbfbf" stroke="black" points="1302.5,-448.5 1302.5,-467.5 1407.5,-467.5 1407.5,-448.5 1302.5,-448.5"/>
<text text-anchor="middle" x="1355" y="-455.5" font-family="Helvetica,sans-Serif" font-size="10.00">src/host/enclave.h</text>
</a>
</g>
</g>
<!-- Node2 -->
<g id="node2" class="node">
<title>Node2</title>
<g id="a_node2"><a xlink:href="logger_8h.html" target="_top" xlink:title=" ">
<polygon fill="white" stroke="black" points="1310.5,-224.5 1310.5,-243.5 1397.5,-243.5 1397.5,-224.5 1310.5,-224.5"/>
<text text-anchor="middle" x="1354" y="-231.5" font-family="Helvetica,sans-Serif" font-size="10.00">ccf/ds/logger.h</text>
</a>
</g>
</g>
<!-- Node1&#45;&gt;Node2 -->
<g id="edge1" class="edge">
<title>Node1&#45;&gt;Node2</title>
<path fill="none" stroke="midnightblue" d="M1340.63,-448.33C1329.12,-440.47 1313.81,-427.72 1307,-412 1282.73,-355.97 1321.32,-284.4 1342.12,-252.13"/>
<polygon fill="midnightblue" stroke="midnightblue" points="1345.05,-254.04 1347.68,-243.78 1339.23,-250.16 1345.05,-254.04"/>
</g>
<!-- Node16 -->
<g id="node16" class="node">
<title>Node16</title>
<g id="a_node16"><a xlink:title=" ">
<polygon fill="white" stroke="#bfbfbf" points="1315.5,-392.5 1315.5,-411.5 1394.5,-411.5 1394.5,-392.5 1315.5,-392.5"/>
<text text-anchor="middle" x="1355" y="-399.5" font-family="Helvetica,sans-Serif" font-size="10.00">ccf/version.h</text>
</a>
</g>
</g>
<!-- Node1&#45;&gt;Node16 -->
<g id="edge17" class="edge">
<title>Node1&#45;&gt;Node16</title>
<path fill="none" stroke="midnightblue" d="M1355,-448.08C1355,-441.01 1355,-430.86 1355,-421.99"/>
<polygon fill="midnightblue" stroke="midnightblue" points="1358.5,-421.75 1355,-411.75 1351.5,-421.75 1358.5,-421.75"/>
</g>
<!-- Node17 -->
<g id="node17" class="node">
<title>Node17</title>
<g id="a_node17"><a xlink:href="interface_8h.html" target="_top" xlink:title=" ">
<polygon fill="white" stroke="black" points="361,-392.5 361,-411.5 471,-411.5 471,-392.5 361,-392.5"/>
<text text-anchor="middle" x="416" y="-399.5" font-family="Helvetica,sans-Serif" font-size="10.00">enclave/interface.h</text>
</a>
</g>
</g>
<!-- Node1&#45;&gt;Node17 -->
<g id="edge18" class="edge">
<title>Node1&#45;&gt;Node17</title>
<path fill="none" stroke="midnightblue" d="M1302.16,-453.96C1141.34,-444.71 658,-416.92 481.47,-406.76"/>
<polygon fill="midnightblue" stroke="midnightblue" points="481.47,-403.26 471.29,-406.18 481.07,-410.25 481.47,-403.26"/>
</g>
<!-- Node48 -->
<g id="node48" class="node">
<title>Node48</title>
<g id="a_node48"><a xlink:title=" ">
<polygon fill="white" stroke="#bfbfbf" points="1413,-392.5 1413,-411.5 1463,-411.5 1463,-392.5 1413,-392.5"/>
<text text-anchor="middle" x="1438" y="-399.5" font-family="Helvetica,sans-Serif" font-size="10.00">dlfcn.h</text>
</a>
</g>
</g>
<!-- Node1&#45;&gt;Node48 -->
<g id="edge76" class="edge">
<title>Node1&#45;&gt;Node48</title>
<path fill="none" stroke="midnightblue" d="M1368.34,-448.32C1381.16,-439.98 1400.78,-427.21 1415.94,-417.35"/>
<polygon fill="midnightblue" stroke="midnightblue" points="1418.22,-420.04 1424.7,-411.65 1414.41,-414.17 1418.22,-420.04"/>
</g>
<!-- Node49 -->
<g id="node49" class="node">
<title>Node49</title>
<g id="a_node49"><a xlink:title=" ">
<polygon fill="white" stroke="#bfbfbf" points="1481,-392.5 1481,-411.5 1549,-411.5 1549,-392.5 1481,-392.5"/>
<text text-anchor="middle" x="1515" y="-399.5" font-family="Helvetica,sans-Serif" font-size="10.00">filesystem</text>
</a>
</g>
</g>
<!-- Node1&#45;&gt;Node49 -->
<g id="edge77" class="edge">
<title>Node1&#45;&gt;Node49</title>
<path fill="none" stroke="midnightblue" d="M1380.35,-448.44C1407.27,-439.36 1450,-424.94 1480.09,-414.78"/>
<polygon fill="midnightblue" stroke="midnightblue" points="1481.41,-418.03 1489.77,-411.52 1479.17,-411.4 1481.41,-418.03"/>
</g>
<!-- Node3 -->
<g id="node3" class="node">
<title>Node3</title>
<g id="a_node3"><a xlink:href="enum__formatter_8h.html" target="_top" xlink:title=" ">
<polygon fill="white" stroke="black" points="1286,-168.5 1286,-187.5 1422,-187.5 1422,-168.5 1286,-168.5"/>
<text text-anchor="middle" x="1354" y="-175.5" font-family="Helvetica,sans-Serif" font-size="10.00">ccf/ds/enum_formatter.h</text>
</a>
</g>
</g>
<!-- Node2&#45;&gt;Node3 -->
<g id="edge2" class="edge">
<title>Node2&#45;&gt;Node3</title>
<path fill="none" stroke="midnightblue" d="M1354,-224.08C1354,-217.01 1354,-206.86 1354,-197.99"/>
<polygon fill="midnightblue" stroke="midnightblue" points="1357.5,-197.75 1354,-187.75 1350.5,-197.75 1357.5,-197.75"/>
</g>
<!-- Node4 -->
<g id="node4" class="node">
<title>Node4</title>
<g id="a_node4"><a xlink:title=" ">
<polygon fill="white" stroke="#bfbfbf" points="1218.5,-112.5 1218.5,-131.5 1297.5,-131.5 1297.5,-112.5 1218.5,-112.5"/>
<text text-anchor="middle" x="1258" y="-119.5" font-family="Helvetica,sans-Serif" font-size="10.00">fmt/format.h</text>
</a>
</g>
</g>
<!-- Node2&#45;&gt;Node4 -->
<g id="edge11" class="edge">
<title>Node2&#45;&gt;Node4</title>
<path fill="none" stroke="midnightblue" d="M1329.84,-224.48C1312.75,-217.28 1290.54,-205.33 1277,-188 1266.61,-174.69 1261.89,-155.86 1259.76,-141.89"/>
<polygon fill="midnightblue" stroke="midnightblue" points="1263.23,-141.43 1258.54,-131.93 1256.28,-142.28 1263.23,-141.43"/>
</g>
<!-- Node5 -->
<g id="node5" class="node">
<title>Node5</title>
<g id="a_node5"><a xlink:href="thread__ids_8h.html" target="_top" xlink:title=" ">
<polygon fill="white" stroke="black" points="1855,-168.5 1855,-187.5 1963,-187.5 1963,-168.5 1855,-168.5"/>
<text text-anchor="middle" x="1909" y="-175.5" font-family="Helvetica,sans-Serif" font-size="10.00">ccf/ds/thread_ids.h</text>
</a>
</g>
</g>
<!-- Node2&#45;&gt;Node5 -->
<g id="edge4" class="edge">
<title>Node2&#45;&gt;Node5</title>
<path fill="none" stroke="midnightblue" d="M1397.55,-228.76C1494.91,-219.29 1730.59,-196.36 1844.81,-185.25"/>
<polygon fill="midnightblue" stroke="midnightblue" points="1845.2,-188.72 1854.81,-184.27 1844.52,-181.76 1845.2,-188.72"/>
</g>
<!-- Node10 -->
<g id="node10" class="node">
<title>Node10</title>
<g id="a_node10"><a xlink:title=" ">
<polygon fill="white" stroke="#bfbfbf" points="1440.5,-168.5 1440.5,-187.5 1519.5,-187.5 1519.5,-168.5 1440.5,-168.5"/>
<text text-anchor="middle" x="1480" y="-175.5" font-family="Helvetica,sans-Serif" font-size="10.00">fmt/chrono.h</text>
</a>
</g>
</g>
<!-- Node2&#45;&gt;Node10 -->
<g id="edge10" class="edge">
<title>Node2&#45;&gt;Node10</title>
<path fill="none" stroke="midnightblue" d="M1373.97,-224.44C1394.61,-215.6 1427.06,-201.69 1450.63,-191.59"/>
<polygon fill="midnightblue" stroke="midnightblue" points="1452.32,-194.67 1460.13,-187.52 1449.56,-188.24 1452.32,-194.67"/>
</g>
<!-- Node11 -->
<g id="node11" class="node">
<title>Node11</title>
<g id="a_node11"><a xlink:title=" ">
<polygon fill="white" stroke="#bfbfbf" points="1537,-168.5 1537,-187.5 1597,-187.5 1597,-168.5 1537,-168.5"/>
<text text-anchor="middle" x="1567" y="-175.5" font-family="Helvetica,sans-Serif" font-size="10.00">iostream</text>
</a>
</g>
</g>
<!-- Node2&#45;&gt;Node11 -->
<g id="edge12" class="edge">
<title>Node2&#45;&gt;Node11</title>
<path fill="none" stroke="midnightblue" d="M1387.75,-224.44C1425.6,-214.85 1486.93,-199.3 1527.12,-189.11"/>
<polygon fill="midnightblue" stroke="midnightblue" points="1528.02,-192.49 1536.85,-186.64 1526.3,-185.71 1528.02,-192.49"/>
</g>
<!-- Node12 -->
<g id="node12" class="node">
<title>Node12</title>
<g id="a_node12"><a xlink:title=" ">
<polygon fill="white" stroke="#bfbfbf" points="1615,-168.5 1615,-187.5 1725,-187.5 1725,-168.5 1615,-168.5"/>
<text text-anchor="middle" x="1670" y="-175.5" font-family="Helvetica,sans-Serif" font-size="10.00">nlohmann/json.hpp</text>
</a>
</g>
</g>
<!-- Node2&#45;&gt;Node12 -->
<g id="edge13" class="edge">
<title>Node2&#45;&gt;Node12</title>
<path fill="none" stroke="midnightblue" d="M1397.61,-225.55C1452.78,-216.12 1548.06,-199.84 1610.05,-189.25"/>
<polygon fill="midnightblue" stroke="midnightblue" points="1610.81,-192.67 1620.08,-187.53 1609.63,-185.77 1610.81,-192.67"/>
</g>
<!-- Node13 -->
<g id="node13" class="node">
<title>Node13</title>
<g id="a_node13"><a xlink:title=" ">
<polygon fill="white" stroke="#bfbfbf" points="982,-112.5 982,-131.5 1038,-131.5 1038,-112.5 982,-112.5"/>
<text text-anchor="middle" x="1010" y="-119.5" font-family="Helvetica,sans-Serif" font-size="10.00">optional</text>
</a>
</g>
</g>
<!-- Node2&#45;&gt;Node13 -->
<g id="edge14" class="edge">
<title>Node2&#45;&gt;Node13</title>
<path fill="none" stroke="midnightblue" d="M1325.01,-224.42C1295.12,-215.52 1247.21,-201.1 1206,-188 1149.27,-169.97 1083.67,-147.98 1044.58,-134.76"/>
<polygon fill="midnightblue" stroke="midnightblue" points="1045.59,-131.41 1035,-131.51 1043.34,-138.04 1045.59,-131.41"/>
</g>
<!-- Node14 -->
<g id="node14" class="node">
<title>Node14</title>
<g id="a_node14"><a xlink:title=" ">
<polygon fill="white" stroke="#bfbfbf" points="1743,-168.5 1743,-187.5 1799,-187.5 1799,-168.5 1743,-168.5"/>
<text text-anchor="middle" x="1771" y="-175.5" font-family="Helvetica,sans-Serif" font-size="10.00">sstream</text>
</a>
</g>
</g>
<!-- Node2&#45;&gt;Node14 -->
<g id="edge15" class="edge">
<title>Node2&#45;&gt;Node14</title>
<path fill="none" stroke="midnightblue" d="M1397.56,-229.56C1466.66,-223.74 1605.75,-210.49 1732.88,-188.01"/>
<polygon fill="midnightblue" stroke="midnightblue" points="1733.57,-191.44 1742.79,-186.23 1732.33,-184.55 1733.57,-191.44"/>
</g>
<!-- Node15 -->
<g id="node15" class="node">
<title>Node15</title>
<g id="a_node15"><a xlink:title=" ">
<polygon fill="white" stroke="#bfbfbf" points="692.5,-0.5 692.5,-19.5 761.5,-19.5 761.5,-0.5 692.5,-0.5"/>
<text text-anchor="middle" x="727" y="-7.5" font-family="Helvetica,sans-Serif" font-size="10.00">type_traits</text>
</a>
</g>
</g>
<!-- Node2&#45;&gt;Node15 -->
<g id="edge16" class="edge">
<title>Node2&#45;&gt;Node15</title>
<path fill="none" stroke="midnightblue" d="M1336.26,-224.44C1266.28,-190.69 1011.31,-68.19 973,-56 904.63,-34.26 822.03,-21.83 772.05,-15.76"/>
<polygon fill="midnightblue" stroke="midnightblue" points="772.24,-12.26 761.9,-14.56 771.42,-19.21 772.24,-12.26"/>
</g>
<!-- Node3&#45;&gt;Node4 -->
<g id="edge3" class="edge">
<title>Node3&#45;&gt;Node4</title>
<path fill="none" stroke="midnightblue" d="M1338.58,-168.32C1323.46,-159.82 1300.18,-146.73 1282.53,-136.8"/>
<polygon fill="midnightblue" stroke="midnightblue" points="1283.82,-133.51 1273.39,-131.65 1280.39,-139.61 1283.82,-133.51"/>
</g>
<!-- Node5&#45;&gt;Node4 -->
<g id="edge5" class="edge">
<title>Node5&#45;&gt;Node4</title>
<path fill="none" stroke="midnightblue" d="M1854.76,-172.09C1839.62,-170.74 1823.17,-169.3 1808,-168 1623.57,-152.24 1404.24,-134.64 1307.75,-126.95"/>
<polygon fill="midnightblue" stroke="midnightblue" points="1307.94,-123.45 1297.69,-126.15 1307.39,-130.43 1307.94,-123.45"/>
</g>
<!-- Node6 -->
<g id="node6" class="node">
<title>Node6</title>
<g id="a_node6"><a xlink:title=" ">
<polygon fill="white" stroke="#bfbfbf" points="1930,-112.5 1930,-131.5 2016,-131.5 2016,-112.5 1930,-112.5"/>
<text text-anchor="middle" x="1973" y="-119.5" font-family="Helvetica,sans-Serif" font-size="10.00">fmt/ostream.h</text>
</a>
</g>
</g>
<!-- Node5&#45;&gt;Node6 -->
<g id="edge6" class="edge">
<title>Node5&#45;&gt;Node6</title>
<path fill="none" stroke="midnightblue" d="M1919.28,-168.32C1928.84,-160.26 1943.28,-148.08 1954.78,-138.37"/>
<polygon fill="midnightblue" stroke="midnightblue" points="1957.14,-140.96 1962.53,-131.83 1952.63,-135.61 1957.14,-140.96"/>
</g>
<!-- Node7 -->
<g id="node7" class="node">
<title>Node7</title>
<g id="a_node7"><a xlink:title=" ">
<polygon fill="white" stroke="#bfbfbf" points="2034,-112.5 2034,-131.5 2078,-131.5 2078,-112.5 2034,-112.5"/>
<text text-anchor="middle" x="2056" y="-119.5" font-family="Helvetica,sans-Serif" font-size="10.00">limits</text>
</a>
</g>
</g>
<!-- Node5&#45;&gt;Node7 -->
<g id="edge7" class="edge">
<title>Node5&#45;&gt;Node7</title>
<path fill="none" stroke="midnightblue" d="M1932.29,-168.44C1957.1,-159.33 1996.51,-144.85 2024.17,-134.69"/>
<polygon fill="midnightblue" stroke="midnightblue" points="2025.6,-137.9 2033.78,-131.16 2023.19,-131.33 2025.6,-137.9"/>
</g>
<!-- Node8 -->
<g id="node8" class="node">
<title>Node8</title>
<g id="a_node8"><a xlink:title=" ">
<polygon fill="white" stroke="#bfbfbf" points="1808,-112.5 1808,-131.5 1846,-131.5 1846,-112.5 1808,-112.5"/>
<text text-anchor="middle" x="1827" y="-119.5" font-family="Helvetica,sans-Serif" font-size="10.00">map</text>
</a>
</g>
</g>
<!-- Node5&#45;&gt;Node8 -->
<g id="edge8" class="edge">
<title>Node5&#45;&gt;Node8</title>
<path fill="none" stroke="midnightblue" d="M1895.83,-168.32C1883.15,-159.98 1863.77,-147.21 1848.79,-137.35"/>
<polygon fill="midnightblue" stroke="midnightblue" points="1850.42,-134.23 1840.14,-131.65 1846.57,-140.08 1850.42,-134.23"/>
</g>
<!-- Node9 -->
<g id="node9" class="node">
<title>Node9</title>
<g id="a_node9"><a xlink:title=" ">
<polygon fill="white" stroke="#bfbfbf" points="1864,-112.5 1864,-131.5 1912,-131.5 1912,-112.5 1864,-112.5"/>
<text text-anchor="middle" x="1888" y="-119.5" font-family="Helvetica,sans-Serif" font-size="10.00">thread</text>
</a>
</g>
</g>
<!-- Node5&#45;&gt;Node9 -->
<g id="edge9" class="edge">
<title>Node5&#45;&gt;Node9</title>
<path fill="none" stroke="midnightblue" d="M1905.53,-168.08C1902.69,-160.77 1898.57,-150.18 1895.04,-141.1"/>
<polygon fill="midnightblue" stroke="midnightblue" points="1898.29,-139.8 1891.4,-131.75 1891.77,-142.34 1898.29,-139.8"/>
</g>
<!-- Node18 -->
<g id="node18" class="node">
<title>Node18</title>
<g id="a_node18"><a xlink:href="oversized_8h.html" target="_top" xlink:title=" ">
<polygon fill="white" stroke="black" points="819.5,-336.5 819.5,-355.5 906.5,-355.5 906.5,-336.5 819.5,-336.5"/>
<text text-anchor="middle" x="863" y="-343.5" font-family="Helvetica,sans-Serif" font-size="10.00">ds/oversized.h</text>
</a>
</g>
</g>
<!-- Node17&#45;&gt;Node18 -->
<g id="edge19" class="edge">
<title>Node17&#45;&gt;Node18</title>
<path fill="none" stroke="midnightblue" d="M471.26,-394.32C557.68,-383.88 723.74,-363.82 809.23,-353.5"/>
<polygon fill="midnightblue" stroke="midnightblue" points="809.74,-356.96 819.25,-352.29 808.9,-350.01 809.74,-356.96"/>
</g>
<!-- Node26 -->
<g id="node26" class="node">
<title>Node26</title>
<g id="a_node26"><a xlink:href="ring__buffer__types_8h.html" target="_top" xlink:title=" ">
<polygon fill="white" stroke="black" points="482,-168.5 482,-187.5 592,-187.5 592,-168.5 482,-168.5"/>
<text text-anchor="middle" x="537" y="-175.5" font-family="Helvetica,sans-Serif" font-size="10.00">ring_buffer_types.h</text>
</a>
</g>
</g>
<!-- Node17&#45;&gt;Node26 -->
<g id="edge73" class="edge">
<title>Node17&#45;&gt;Node26</title>
<path fill="none" stroke="midnightblue" d="M420.74,-392.3C438.7,-359.36 502.72,-241.9 527.3,-196.81"/>
<polygon fill="midnightblue" stroke="midnightblue" points="530.45,-198.34 532.16,-187.88 524.3,-194.99 530.45,-198.34"/>
</g>
<!-- Node30 -->
<g id="node30" class="node">
<title>Node30</title>
<g id="a_node30"><a xlink:title=" ">
<polygon fill="white" stroke="#bfbfbf" points="475.5,-0.5 475.5,-19.5 522.5,-19.5 522.5,-0.5 475.5,-0.5"/>
<text text-anchor="middle" x="499" y="-7.5" font-family="Helvetica,sans-Serif" font-size="10.00">vector</text>
</a>
</g>
</g>
<!-- Node17&#45;&gt;Node30 -->
<g id="edge75" class="edge">
<title>Node17&#45;&gt;Node30</title>
<path fill="none" stroke="midnightblue" d="M377.92,-392.46C330.88,-379.4 257,-349.57 257,-291 257,-291 257,-291 257,-121 257,-90.9 253.83,-76.36 276,-56 303.26,-30.97 410.13,-18.47 465.43,-13.57"/>
<polygon fill="midnightblue" stroke="midnightblue" points="465.78,-17.05 475.45,-12.71 465.19,-10.08 465.78,-17.05"/>
</g>
<!-- Node47 -->
<g id="node47" class="node">
<title>Node47</title>
<g id="a_node47"><a xlink:title=" ">
<polygon fill="white" stroke="#bfbfbf" points="179,-336.5 179,-355.5 229,-355.5 229,-336.5 179,-336.5"/>
<text text-anchor="middle" x="204" y="-343.5" font-family="Helvetica,sans-Serif" font-size="10.00">chrono</text>
</a>
</g>
</g>
<!-- Node17&#45;&gt;Node47 -->
<g id="edge74" class="edge">
<title>Node17&#45;&gt;Node47</title>
<path fill="none" stroke="midnightblue" d="M382.41,-392.44C343.21,-382.46 278.69,-366.03 238.93,-355.9"/>
<polygon fill="midnightblue" stroke="midnightblue" points="239.69,-352.48 229.14,-353.4 237.96,-359.26 239.69,-352.48"/>
</g>
<!-- Node18&#45;&gt;Node4 -->
<g id="edge71" class="edge">
<title>Node18&#45;&gt;Node4</title>
<path fill="none" stroke="midnightblue" d="M904.5,-336.5C935.42,-329.23 978.14,-317.21 1013,-300 1106.61,-253.79 1202.7,-172.5 1240.87,-138.57"/>
<polygon fill="midnightblue" stroke="midnightblue" points="1243.4,-141 1248.51,-131.72 1238.73,-135.79 1243.4,-141"/>
</g>
<!-- Node19 -->
<g id="node19" class="node">
<title>Node19</title>
<g id="a_node19"><a xlink:href="messaging_8h.html" target="_top" xlink:title=" ">
<polygon fill="white" stroke="black" points="905.5,-280.5 905.5,-299.5 984.5,-299.5 984.5,-280.5 905.5,-280.5"/>
<text text-anchor="middle" x="945" y="-287.5" font-family="Helvetica,sans-Serif" font-size="10.00">messaging.h</text>
</a>
</g>
</g>
<!-- Node18&#45;&gt;Node19 -->
<g id="edge20" class="edge">
<title>Node18&#45;&gt;Node19</title>
<path fill="none" stroke="midnightblue" d="M876.17,-336.32C888.85,-327.98 908.23,-315.21 923.21,-305.35"/>
<polygon fill="midnightblue" stroke="midnightblue" points="925.43,-308.08 931.86,-299.65 921.58,-302.23 925.43,-308.08"/>
</g>
<!-- Node20 -->
<g id="node20" class="node">
<title>Node20</title>
<g id="a_node20"><a xlink:href="ring__buffer_8h.html" target="_top" xlink:title=" ">
<polygon fill="white" stroke="black" points="974.5,-224.5 974.5,-243.5 1051.5,-243.5 1051.5,-224.5 974.5,-224.5"/>
<text text-anchor="middle" x="1013" y="-231.5" font-family="Helvetica,sans-Serif" font-size="10.00">ring_buffer.h</text>
</a>
</g>
</g>
<!-- Node18&#45;&gt;Node20 -->
<g id="edge69" class="edge">
<title>Node18&#45;&gt;Node20</title>
<path fill="none" stroke="midnightblue" d="M906.55,-340.37C935.07,-335.12 971.17,-323.92 994,-300 1005.79,-287.65 1010.31,-268.4 1012.03,-254.05"/>
<polygon fill="midnightblue" stroke="midnightblue" points="1015.54,-254.08 1012.88,-243.82 1008.56,-253.49 1015.54,-254.08"/>
</g>
<!-- Node39 -->
<g id="node39" class="node">
<title>Node39</title>
<g id="a_node39"><a xlink:href="serialized_8h.html" target="_top" xlink:title=" ">
<polygon fill="white" stroke="black" points="890.5,-56.5 890.5,-75.5 963.5,-75.5 963.5,-56.5 890.5,-56.5"/>
<text text-anchor="middle" x="927" y="-63.5" font-family="Helvetica,sans-Serif" font-size="10.00">serialized.h</text>
</a>
</g>
</g>
<!-- Node18&#45;&gt;Node39 -->
<g id="edge70" class="edge">
<title>Node18&#45;&gt;Node39</title>
<path fill="none" stroke="midnightblue" d="M850.34,-336.35C827.56,-319.64 782,-280.54 782,-235 782,-235 782,-235 782,-177 782,-124.53 843.02,-93.84 885.89,-78.76"/>
<polygon fill="midnightblue" stroke="midnightblue" points="887.17,-82.02 895.54,-75.52 884.94,-75.39 887.17,-82.02"/>
</g>
<!-- Node46 -->
<g id="node46" class="node">
<title>Node46</title>
<g id="a_node46"><a xlink:title=" ">
<polygon fill="white" stroke="#bfbfbf" points="660.5,-280.5 660.5,-299.5 753.5,-299.5 753.5,-280.5 660.5,-280.5"/>
<text text-anchor="middle" x="707" y="-287.5" font-family="Helvetica,sans-Serif" font-size="10.00">unordered_map</text>
</a>
</g>
</g>
<!-- Node18&#45;&gt;Node46 -->
<g id="edge72" class="edge">
<title>Node18&#45;&gt;Node46</title>
<path fill="none" stroke="midnightblue" d="M838.28,-336.44C812.15,-327.4 770.74,-313.06 741.42,-302.92"/>
<polygon fill="midnightblue" stroke="midnightblue" points="742.2,-299.48 731.6,-299.52 739.91,-306.1 742.2,-299.48"/>
</g>
<!-- Node19&#45;&gt;Node2 -->
<g id="edge21" class="edge">
<title>Node19&#45;&gt;Node2</title>
<path fill="none" stroke="midnightblue" d="M984.59,-283.77C1058.39,-274.03 1217.05,-253.08 1300.38,-242.08"/>
<polygon fill="midnightblue" stroke="midnightblue" points="1300.95,-245.54 1310.4,-240.76 1300.03,-238.6 1300.95,-245.54"/>
</g>
<!-- Node19&#45;&gt;Node8 -->
<g id="edge67" class="edge">
<title>Node19&#45;&gt;Node8</title>
<path fill="none" stroke="midnightblue" d="M984.62,-286.95C1145.57,-278.29 1744.83,-242.58 1808,-188 1821.19,-176.61 1825.47,-156.62 1826.74,-141.81"/>
<polygon fill="midnightblue" stroke="midnightblue" points="1830.24,-141.87 1827.23,-131.72 1823.25,-141.54 1830.24,-141.87"/>
</g>
<!-- Node19&#45;&gt;Node20 -->
<g id="edge22" class="edge">
<title>Node19&#45;&gt;Node20</title>
<path fill="none" stroke="midnightblue" d="M955.93,-280.32C966.17,-272.18 981.72,-259.84 994,-250.09"/>
<polygon fill="midnightblue" stroke="midnightblue" points="996.22,-252.79 1001.88,-243.83 991.87,-247.31 996.22,-252.79"/>
</g>
<!-- Node40 -->
<g id="node40" class="node">
<title>Node40</title>
<g id="a_node40"><a xlink:title=" ">
<polygon fill="white" stroke="#bfbfbf" points="924.5,-0.5 924.5,-19.5 989.5,-19.5 989.5,-0.5 924.5,-0.5"/>
<text text-anchor="middle" x="957" y="-7.5" font-family="Helvetica,sans-Serif" font-size="10.00">stdexcept</text>
</a>
</g>
</g>
<!-- Node19&#45;&gt;Node40 -->
<g id="edge68" class="edge">
<title>Node19&#45;&gt;Node40</title>
<path fill="none" stroke="midnightblue" d="M946.59,-280.11C951.72,-250.98 967.79,-155.65 973,-76 973.58,-67.13 974.51,-64.76 973,-56 971.43,-46.91 968.21,-37.22 965.06,-29.17"/>
<polygon fill="midnightblue" stroke="midnightblue" points="968.19,-27.6 961.11,-19.72 961.74,-30.3 968.19,-27.6"/>
</g>
<!-- Node43 -->
<g id="node43" class="node">
<title>Node43</title>
<g id="a_node43"><a xlink:title=" ">
<polygon fill="white" stroke="#bfbfbf" points="285,-112.5 285,-131.5 335,-131.5 335,-112.5 285,-112.5"/>
<text text-anchor="middle" x="310" y="-119.5" font-family="Helvetica,sans-Serif" font-size="10.00">atomic</text>
</a>
</g>
</g>
<!-- Node19&#45;&gt;Node43 -->
<g id="edge65" class="edge">
<title>Node19&#45;&gt;Node43</title>
<path fill="none" stroke="midnightblue" d="M905.27,-282.83C823.34,-269.6 630.15,-235.77 473,-188 424.39,-173.22 369.95,-150.12 337.9,-135.8"/>
<polygon fill="midnightblue" stroke="midnightblue" points="339.26,-132.58 328.7,-131.66 336.38,-138.96 339.26,-132.58"/>
</g>
<!-- Node45 -->
<g id="node45" class="node">
<title>Node45</title>
<g id="a_node45"><a xlink:title=" ">
<polygon fill="white" stroke="#bfbfbf" points="810.5,-224.5 810.5,-243.5 917.5,-243.5 917.5,-224.5 810.5,-224.5"/>
<text text-anchor="middle" x="864" y="-231.5" font-family="Helvetica,sans-Serif" font-size="10.00">condition_variable</text>
</a>
</g>
</g>
<!-- Node19&#45;&gt;Node45 -->
<g id="edge66" class="edge">
<title>Node19&#45;&gt;Node45</title>
<path fill="none" stroke="midnightblue" d="M931.99,-280.32C919.47,-271.98 900.32,-259.21 885.53,-249.35"/>
<polygon fill="midnightblue" stroke="midnightblue" points="887.24,-246.29 876.98,-243.65 883.36,-252.11 887.24,-246.29"/>
</g>
<!-- Node21 -->
<g id="node21" class="node">
<title>Node21</title>
<g id="a_node21"><a xlink:href="pal_8h.html" target="_top" xlink:title=" ">
<polygon fill="white" stroke="black" points="1096,-56.5 1096,-75.5 1168,-75.5 1168,-56.5 1096,-56.5"/>
<text text-anchor="middle" x="1132" y="-63.5" font-family="Helvetica,sans-Serif" font-size="10.00">ccf/ds/pal.h</text>
</a>
</g>
</g>
<!-- Node20&#45;&gt;Node21 -->
<g id="edge23" class="edge">
<title>Node20&#45;&gt;Node21</title>
<path fill="none" stroke="midnightblue" d="M1032.27,-224.43C1047.54,-216.79 1068.49,-204.29 1082,-188 1107.78,-156.91 1121.86,-110.68 1128.07,-85.31"/>
<polygon fill="midnightblue" stroke="midnightblue" points="1131.48,-86.06 1130.31,-75.53 1124.66,-84.49 1131.48,-86.06"/>
</g>
<!-- Node24 -->
<g id="node24" class="node">
<title>Node24</title>
<g id="a_node24"><a xlink:title=" ">
<polygon fill="white" stroke="#bfbfbf" points="1039,-0.5 1039,-19.5 1089,-19.5 1089,-0.5 1039,-0.5"/>
<text text-anchor="middle" x="1064" y="-7.5" font-family="Helvetica,sans-Serif" font-size="10.00">cstring</text>
</a>
</g>
</g>
<!-- Node20&#45;&gt;Node24 -->
<g id="edge63" class="edge">
<title>Node20&#45;&gt;Node24</title>
<path fill="none" stroke="midnightblue" d="M1022.54,-224.4C1031.11,-216.04 1043.22,-202.5 1049,-188 1070.67,-133.68 1068.47,-62.71 1065.87,-29.56"/>
<polygon fill="midnightblue" stroke="midnightblue" points="1069.35,-29.16 1064.97,-19.51 1062.37,-29.78 1069.35,-29.16"/>
</g>
<!-- Node20&#45;&gt;Node26 -->
<g id="edge28" class="edge">
<title>Node20&#45;&gt;Node26</title>
<path fill="none" stroke="midnightblue" d="M974.45,-228.63C893.03,-219.39 702.79,-197.81 602.13,-186.39"/>
<polygon fill="midnightblue" stroke="midnightblue" points="602.41,-182.9 592.08,-185.25 601.62,-189.85 602.41,-182.9"/>
</g>
<!-- Node44 -->
<g id="node44" class="node">
<title>Node44</title>
<g id="a_node44"><a xlink:title=" ">
<polygon fill="white" stroke="#bfbfbf" points="974.5,-168.5 974.5,-187.5 1039.5,-187.5 1039.5,-168.5 974.5,-168.5"/>
<text text-anchor="middle" x="1007" y="-175.5" font-family="Helvetica,sans-Serif" font-size="10.00">functional</text>
</a>
</g>
</g>
<!-- Node20&#45;&gt;Node44 -->
<g id="edge64" class="edge">
<title>Node20&#45;&gt;Node44</title>
<path fill="none" stroke="midnightblue" d="M1012.01,-224.08C1011.21,-216.93 1010.07,-206.64 1009.08,-197.69"/>
<polygon fill="midnightblue" stroke="midnightblue" points="1012.56,-197.3 1007.97,-187.75 1005.6,-198.08 1012.56,-197.3"/>
</g>
<!-- Node22 -->
<g id="node22" class="node">
<title>Node22</title>
<g id="a_node22"><a xlink:title=" ">
<polygon fill="white" stroke="#bfbfbf" points="833,-0.5 833,-19.5 883,-19.5 883,-0.5 833,-0.5"/>
<text text-anchor="middle" x="858" y="-7.5" font-family="Helvetica,sans-Serif" font-size="10.00">cstdint</text>
</a>
</g>
</g>
<!-- Node21&#45;&gt;Node22 -->
<g id="edge24" class="edge">
<title>Node21&#45;&gt;Node22</title>
<path fill="none" stroke="midnightblue" d="M1095.9,-57.88C1043.15,-47.49 945.62,-28.27 893.32,-17.96"/>
<polygon fill="midnightblue" stroke="midnightblue" points="893.67,-14.46 883.18,-15.96 892.32,-21.33 893.67,-14.46"/>
</g>
<!-- Node23 -->
<g id="node23" class="node">
<title>Node23</title>
<g id="a_node23"><a xlink:title=" ">
<polygon fill="white" stroke="#bfbfbf" points="1107.5,-0.5 1107.5,-19.5 1156.5,-19.5 1156.5,-0.5 1107.5,-0.5"/>
<text text-anchor="middle" x="1132" y="-7.5" font-family="Helvetica,sans-Serif" font-size="10.00">cstdlib</text>
</a>
</g>
</g>
<!-- Node21&#45;&gt;Node23 -->
<g id="edge25" class="edge">
<title>Node21&#45;&gt;Node23</title>
<path fill="none" stroke="midnightblue" d="M1132,-56.08C1132,-49.01 1132,-38.86 1132,-29.99"/>
<polygon fill="midnightblue" stroke="midnightblue" points="1135.5,-29.75 1132,-19.75 1128.5,-29.75 1135.5,-29.75"/>
</g>
<!-- Node21&#45;&gt;Node24 -->
<g id="edge26" class="edge">
<title>Node21&#45;&gt;Node24</title>
<path fill="none" stroke="midnightblue" d="M1121.07,-56.32C1110.83,-48.18 1095.28,-35.84 1083,-26.09"/>
<polygon fill="midnightblue" stroke="midnightblue" points="1085.13,-23.31 1075.12,-19.83 1080.78,-28.79 1085.13,-23.31"/>
</g>
<!-- Node25 -->
<g id="node25" class="node">
<title>Node25</title>
<g id="a_node25"><a xlink:title=" ">
<polygon fill="white" stroke="#bfbfbf" points="1175,-0.5 1175,-19.5 1223,-19.5 1223,-0.5 1175,-0.5"/>
<text text-anchor="middle" x="1199" y="-7.5" font-family="Helvetica,sans-Serif" font-size="10.00">mutex</text>
</a>
</g>
</g>
<!-- Node21&#45;&gt;Node25 -->
<g id="edge27" class="edge">
<title>Node21&#45;&gt;Node25</title>
<path fill="none" stroke="midnightblue" d="M1142.76,-56.32C1152.77,-48.26 1167.89,-36.08 1179.93,-26.37"/>
<polygon fill="midnightblue" stroke="midnightblue" points="1182.45,-28.83 1188.04,-19.83 1178.06,-23.38 1182.45,-28.83"/>
</g>
<!-- Node26&#45;&gt;Node4 -->
<g id="edge59" class="edge">
<title>Node26&#45;&gt;Node4</title>
<path fill="none" stroke="midnightblue" d="M592.08,-172.87C727.98,-162.7 1077.65,-136.51 1208.02,-126.74"/>
<polygon fill="midnightblue" stroke="midnightblue" points="1208.41,-130.22 1218.12,-125.99 1207.88,-123.24 1208.41,-130.22"/>
</g>
<!-- Node26&#45;&gt;Node13 -->
<g id="edge60" class="edge">
<title>Node26&#45;&gt;Node13</title>
<path fill="none" stroke="midnightblue" d="M592.18,-170.7C689.29,-159.61 888.3,-136.89 971.8,-127.36"/>
<polygon fill="midnightblue" stroke="midnightblue" points="972.32,-130.82 981.86,-126.21 971.53,-123.87 972.32,-130.82"/>
</g>
<!-- Node27 -->
<g id="node27" class="node">
<title>Node27</title>
<g id="a_node27"><a xlink:href="include_2ccf_2ds_2hash_8h.html" target="_top" xlink:title=" ">
<polygon fill="white" stroke="black" points="429,-112.5 429,-131.5 509,-131.5 509,-112.5 429,-112.5"/>
<text text-anchor="middle" x="469" y="-119.5" font-family="Helvetica,sans-Serif" font-size="10.00">ccf/ds/hash.h</text>
</a>
</g>
</g>
<!-- Node26&#45;&gt;Node27 -->
<g id="edge29" class="edge">
<title>Node26&#45;&gt;Node27</title>
<path fill="none" stroke="midnightblue" d="M526.07,-168.32C515.83,-160.18 500.28,-147.84 488,-138.09"/>
<polygon fill="midnightblue" stroke="midnightblue" points="490.13,-135.31 480.12,-131.83 485.78,-140.79 490.13,-135.31"/>
</g>
<!-- Node26&#45;&gt;Node30 -->
<g id="edge62" class="edge">
<title>Node26&#45;&gt;Node30</title>
<path fill="none" stroke="midnightblue" d="M534.96,-168.08C528.98,-141.95 511.41,-65.21 503.25,-29.58"/>
<polygon fill="midnightblue" stroke="midnightblue" points="506.6,-28.53 500.96,-19.57 499.78,-30.1 506.6,-28.53"/>
</g>
<!-- Node33 -->
<g id="node33" class="node">
<title>Node33</title>
<g id="a_node33"><a xlink:href="nonstd_8h.html" target="_top" xlink:title=" ">
<polygon fill="white" stroke="black" points="101,-56.5 101,-75.5 191,-75.5 191,-56.5 101,-56.5"/>
<text text-anchor="middle" x="146" y="-63.5" font-family="Helvetica,sans-Serif" font-size="10.00">ccf/ds/nonstd.h</text>
</a>
</g>
</g>
<!-- Node26&#45;&gt;Node33 -->
<g id="edge38" class="edge">
<title>Node26&#45;&gt;Node33</title>
<path fill="none" stroke="midnightblue" d="M503.47,-168.43C472.77,-160.23 426.26,-146.93 387,-132 367.3,-124.51 363.94,-118.82 344,-112 296.8,-95.86 241.28,-83.82 201.06,-76.27"/>
<polygon fill="midnightblue" stroke="midnightblue" points="201.65,-72.82 191.18,-74.45 200.38,-79.7 201.65,-72.82"/>
</g>
<!-- Node36 -->
<g id="node36" class="node">
<title>Node36</title>
<g id="a_node36"><a xlink:title=" ">
<polygon fill="white" stroke="#bfbfbf" points="301,-0.5 301,-19.5 345,-19.5 345,-0.5 301,-0.5"/>
<text text-anchor="middle" x="323" y="-7.5" font-family="Helvetica,sans-Serif" font-size="10.00">string</text>
</a>
</g>
</g>
<!-- Node26&#45;&gt;Node36 -->
<g id="edge61" class="edge">
<title>Node26&#45;&gt;Node36</title>
<path fill="none" stroke="midnightblue" d="M513,-168.46C489.18,-159.82 451.73,-145.81 420,-132 401.41,-123.91 397.71,-119.8 379,-112 334.24,-93.34 304.07,-115.54 276,-76 263.6,-58.53 283.07,-38.59 300.59,-25.45"/>
<polygon fill="midnightblue" stroke="midnightblue" points="302.74,-28.22 308.89,-19.59 298.7,-22.5 302.74,-28.22"/>
</g>
<!-- Node38 -->
<g id="node38" class="node">
<title>Node38</title>
<g id="a_node38"><a xlink:href="serializer_8h.html" target="_top" xlink:title=" ">
<polygon fill="white" stroke="black" points="684,-112.5 684,-131.5 754,-131.5 754,-112.5 684,-112.5"/>
<text text-anchor="middle" x="719" y="-119.5" font-family="Helvetica,sans-Serif" font-size="10.00">serializer.h</text>
</a>
</g>
</g>
<!-- Node26&#45;&gt;Node38 -->
<g id="edge46" class="edge">
<title>Node26&#45;&gt;Node38</title>
<path fill="none" stroke="midnightblue" d="M565.84,-168.44C596.86,-159.24 646.33,-144.56 680.62,-134.39"/>
<polygon fill="midnightblue" stroke="midnightblue" points="681.71,-137.72 690.3,-131.52 679.71,-131.01 681.71,-137.72"/>
</g>
<!-- Node26&#45;&gt;Node43 -->
<g id="edge58" class="edge">
<title>Node26&#45;&gt;Node43</title>
<path fill="none" stroke="midnightblue" d="M501.03,-168.44C458.3,-158.28 387.48,-141.43 345.12,-131.36"/>
<polygon fill="midnightblue" stroke="midnightblue" points="345.8,-127.92 335.26,-129.01 344.18,-134.73 345.8,-127.92"/>
</g>
<!-- Node27&#45;&gt;Node22 -->
<g id="edge35" class="edge">
<title>Node27&#45;&gt;Node22</title>
<path fill="none" stroke="midnightblue" d="M509.38,-113.35C550.2,-105.3 614.96,-91.62 670,-76 725.72,-60.18 789.13,-37.19 826.23,-23.21"/>
<polygon fill="midnightblue" stroke="midnightblue" points="827.86,-26.34 835.97,-19.52 825.38,-19.79 827.86,-26.34"/>
</g>
<!-- Node28 -->
<g id="node28" class="node">
<title>Node28</title>
<g id="a_node28"><a xlink:href="siphash_8h.html" target="_top" xlink:title=" ">
<polygon fill="white" stroke="black" points="565.5,-56.5 565.5,-75.5 660.5,-75.5 660.5,-56.5 565.5,-56.5"/>
<text text-anchor="middle" x="613" y="-63.5" font-family="Helvetica,sans-Serif" font-size="10.00">ccf/ds/siphash.h</text>
</a>
</g>
</g>
<!-- Node27&#45;&gt;Node28 -->
<g id="edge30" class="edge">
<title>Node27&#45;&gt;Node28</title>
<path fill="none" stroke="midnightblue" d="M491.82,-112.44C515.83,-103.44 553.83,-89.19 580.87,-79.05"/>
<polygon fill="midnightblue" stroke="midnightblue" points="582.16,-82.3 590.29,-75.52 579.7,-75.75 582.16,-82.3"/>
</g>
<!-- Node27&#45;&gt;Node30 -->
<g id="edge37" class="edge">
<title>Node27&#45;&gt;Node30</title>
<path fill="none" stroke="midnightblue" d="M471.01,-112.12C473.88,-99.57 479.45,-75.93 485,-56 487.47,-47.12 490.48,-37.34 493.07,-29.18"/>
<polygon fill="midnightblue" stroke="midnightblue" points="496.43,-30.17 496.16,-19.58 489.76,-28.03 496.43,-30.17"/>
</g>
<!-- Node31 -->
<g id="node31" class="node">
<title>Node31</title>
<g id="a_node31"><a xlink:title=" ">
<polygon fill="white" stroke="#bfbfbf" points="0,-0.5 0,-19.5 42,-19.5 42,-0.5 0,-0.5"/>
<text text-anchor="middle" x="21" y="-7.5" font-family="Helvetica,sans-Serif" font-size="10.00">array</text>
</a>
</g>
</g>
<!-- Node27&#45;&gt;Node31 -->
<g id="edge34" class="edge">
<title>Node27&#45;&gt;Node31</title>
<path fill="none" stroke="midnightblue" d="M428.78,-117.6C337.88,-109.72 122.14,-89.83 92,-76 68.13,-65.05 46.81,-43.05 33.9,-27.69"/>
<polygon fill="midnightblue" stroke="midnightblue" points="36.33,-25.13 27.32,-19.55 30.89,-29.53 36.33,-25.13"/>
</g>
<!-- Node32 -->
<g id="node32" class="node">
<title>Node32</title>
<g id="a_node32"><a xlink:title=" ">
<polygon fill="white" stroke="#bfbfbf" points="284.5,-56.5 284.5,-75.5 433.5,-75.5 433.5,-56.5 284.5,-56.5"/>
<text text-anchor="middle" x="359" y="-63.5" font-family="Helvetica,sans-Serif" font-size="10.00">small_vector/SmallVector.h</text>
</a>
</g>
</g>
<!-- Node27&#45;&gt;Node32 -->
<g id="edge36" class="edge">
<title>Node27&#45;&gt;Node32</title>
<path fill="none" stroke="midnightblue" d="M451.33,-112.32C433.61,-103.62 406.1,-90.12 385.71,-80.11"/>
<polygon fill="midnightblue" stroke="midnightblue" points="387.15,-76.92 376.63,-75.65 384.06,-83.2 387.15,-76.92"/>
</g>
<!-- Node28&#45;&gt;Node22 -->
<g id="edge32" class="edge">
<title>Node28&#45;&gt;Node22</title>
<path fill="none" stroke="midnightblue" d="M651.82,-56.44C698.89,-46.07 777.52,-28.74 822.87,-18.74"/>
<polygon fill="midnightblue" stroke="midnightblue" points="823.81,-22.12 832.83,-16.55 822.31,-15.28 823.81,-22.12"/>
</g>
<!-- Node29 -->
<g id="node29" class="node">
<title>Node29</title>
<g id="a_node29"><a xlink:title=" ">
<polygon fill="white" stroke="#bfbfbf" points="586.5,-0.5 586.5,-19.5 639.5,-19.5 639.5,-0.5 586.5,-0.5"/>
<text text-anchor="middle" x="613" y="-7.5" font-family="Helvetica,sans-Serif" font-size="10.00">cstddef</text>
</a>
</g>
</g>
<!-- Node28&#45;&gt;Node29 -->
<g id="edge31" class="edge">
<title>Node28&#45;&gt;Node29</title>
<path fill="none" stroke="midnightblue" d="M613,-56.08C613,-49.01 613,-38.86 613,-29.99"/>
<polygon fill="midnightblue" stroke="midnightblue" points="616.5,-29.75 613,-19.75 609.5,-29.75 616.5,-29.75"/>
</g>
<!-- Node28&#45;&gt;Node30 -->
<g id="edge33" class="edge">
<title>Node28&#45;&gt;Node30</title>
<path fill="none" stroke="midnightblue" d="M594.94,-56.44C576.43,-47.68 547.42,-33.94 526.14,-23.86"/>
<polygon fill="midnightblue" stroke="midnightblue" points="527.51,-20.63 516.98,-19.52 524.52,-26.96 527.51,-20.63"/>
</g>
<!-- Node33&#45;&gt;Node15 -->
<g id="edge44" class="edge">
<title>Node33&#45;&gt;Node15</title>
<path fill="none" stroke="midnightblue" d="M191.13,-61.35C279.22,-54.15 480.23,-37.28 649,-20 659.79,-18.9 671.41,-17.61 682.3,-16.36"/>
<polygon fill="midnightblue" stroke="midnightblue" points="682.93,-19.81 692.46,-15.18 682.13,-12.85 682.93,-19.81"/>
</g>
<!-- Node33&#45;&gt;Node30 -->
<g id="edge45" class="edge">
<title>Node33&#45;&gt;Node30</title>
<path fill="none" stroke="midnightblue" d="M191.07,-58.11C262.9,-47.12 401.75,-25.88 465.51,-16.12"/>
<polygon fill="midnightblue" stroke="midnightblue" points="466.08,-19.58 475.43,-14.61 465.02,-12.66 466.08,-19.58"/>
</g>
<!-- Node33&#45;&gt;Node31 -->
<g id="edge40" class="edge">
<title>Node33&#45;&gt;Node31</title>
<path fill="none" stroke="midnightblue" d="M126.19,-56.44C105.71,-47.6 73.52,-33.69 50.14,-23.59"/>
<polygon fill="midnightblue" stroke="midnightblue" points="51.28,-20.27 40.71,-19.52 48.51,-26.7 51.28,-20.27"/>
</g>
<!-- Node34 -->
<g id="node34" class="node">
<title>Node34</title>
<g id="a_node34"><a xlink:title=" ">
<polygon fill="white" stroke="#bfbfbf" points="219,-0.5 219,-19.5 283,-19.5 283,-0.5 219,-0.5"/>
<text text-anchor="middle" x="251" y="-7.5" font-family="Helvetica,sans-Serif" font-size="10.00">algorithm</text>
</a>
</g>
</g>
<!-- Node33&#45;&gt;Node34 -->
<g id="edge39" class="edge">
<title>Node33&#45;&gt;Node34</title>
<path fill="none" stroke="midnightblue" d="M162.87,-56.32C179.71,-47.66 205.81,-34.24 225.24,-24.25"/>
<polygon fill="midnightblue" stroke="midnightblue" points="226.88,-27.34 234.17,-19.65 223.68,-21.12 226.88,-27.34"/>
</g>
<!-- Node35 -->
<g id="node35" class="node">
<title>Node35</title>
<g id="a_node35"><a xlink:title=" ">
<polygon fill="white" stroke="#bfbfbf" points="60.5,-0.5 60.5,-19.5 109.5,-19.5 109.5,-0.5 60.5,-0.5"/>
<text text-anchor="middle" x="85" y="-7.5" font-family="Helvetica,sans-Serif" font-size="10.00">cctype</text>
</a>
</g>
</g>
<!-- Node33&#45;&gt;Node35 -->
<g id="edge41" class="edge">
<title>Node33&#45;&gt;Node35</title>
<path fill="none" stroke="midnightblue" d="M136.2,-56.32C127.18,-48.34 113.59,-36.31 102.68,-26.65"/>
<polygon fill="midnightblue" stroke="midnightblue" points="104.79,-23.84 94.98,-19.83 100.15,-29.08 104.79,-23.84"/>
</g>
<!-- Node33&#45;&gt;Node36 -->
<g id="edge42" class="edge">
<title>Node33&#45;&gt;Node36</title>
<path fill="none" stroke="midnightblue" d="M174.05,-56.44C205.94,-46.71 257.89,-30.86 291.24,-20.69"/>
<polygon fill="midnightblue" stroke="midnightblue" points="292.41,-23.99 300.96,-17.73 290.37,-17.3 292.41,-23.99"/>
</g>
<!-- Node37 -->
<g id="node37" class="node">
<title>Node37</title>
<g id="a_node37"><a xlink:title=" ">
<polygon fill="white" stroke="#bfbfbf" points="127.5,-0.5 127.5,-19.5 200.5,-19.5 200.5,-0.5 127.5,-0.5"/>
<text text-anchor="middle" x="164" y="-7.5" font-family="Helvetica,sans-Serif" font-size="10.00">string_view</text>
</a>
</g>
</g>
<!-- Node33&#45;&gt;Node37 -->
<g id="edge43" class="edge">
<title>Node33&#45;&gt;Node37</title>
<path fill="none" stroke="midnightblue" d="M148.97,-56.08C151.38,-48.85 154.86,-38.41 157.87,-29.4"/>
<polygon fill="midnightblue" stroke="midnightblue" points="161.24,-30.34 161.08,-19.75 154.6,-28.13 161.24,-30.34"/>
</g>
<!-- Node38&#45;&gt;Node15 -->
<g id="edge56" class="edge">
<title>Node38&#45;&gt;Node15</title>
<path fill="none" stroke="midnightblue" d="M719.63,-112.37C720.92,-94.62 723.9,-53.67 725.65,-29.6"/>
<polygon fill="midnightblue" stroke="midnightblue" points="729.14,-29.82 726.38,-19.59 722.16,-29.31 729.14,-29.82"/>
</g>
<!-- Node38&#45;&gt;Node30 -->
<g id="edge57" class="edge">
<title>Node38&#45;&gt;Node30</title>
<path fill="none" stroke="midnightblue" d="M683.82,-117.07C649.36,-111.94 596.41,-100.52 557,-76 537.41,-63.81 520.57,-43.06 510.16,-28.29"/>
<polygon fill="midnightblue" stroke="midnightblue" points="512.78,-25.91 504.28,-19.59 506.98,-29.83 512.78,-25.91"/>
</g>
<!-- Node38&#45;&gt;Node33 -->
<g id="edge47" class="edge">
<title>Node38&#45;&gt;Node33</title>
<path fill="none" stroke="midnightblue" d="M683.59,-117.66C586.95,-108.56 318.15,-83.22 201.36,-72.22"/>
<polygon fill="midnightblue" stroke="midnightblue" points="201.49,-68.71 191.21,-71.26 200.84,-75.68 201.49,-68.71"/>
</g>
<!-- Node38&#45;&gt;Node39 -->
<g id="edge48" class="edge">
<title>Node38&#45;&gt;Node39</title>
<path fill="none" stroke="midnightblue" d="M751.96,-112.44C787.79,-103.14 845.16,-88.25 884.39,-78.06"/>
<polygon fill="midnightblue" stroke="midnightblue" points="885.4,-81.42 894.2,-75.52 883.64,-74.64 885.4,-81.42"/>
</g>
<!-- Node41 -->
<g id="node41" class="node">
<title>Node41</title>
<g id="a_node41"><a xlink:title=" ">
<polygon fill="white" stroke="#bfbfbf" points="755,-56.5 755,-75.5 813,-75.5 813,-56.5 755,-56.5"/>
<text text-anchor="middle" x="784" y="-63.5" font-family="Helvetica,sans-Serif" font-size="10.00">memory</text>
</a>
</g>
</g>
<!-- Node38&#45;&gt;Node41 -->
<g id="edge54" class="edge">
<title>Node38&#45;&gt;Node41</title>
<path fill="none" stroke="midnightblue" d="M729.44,-112.32C739.15,-104.26 753.82,-92.08 765.5,-82.37"/>
<polygon fill="midnightblue" stroke="midnightblue" points="767.91,-84.92 773.37,-75.83 763.44,-79.53 767.91,-84.92"/>
</g>
<!-- Node42 -->
<g id="node42" class="node">
<title>Node42</title>
<g id="a_node42"><a xlink:title=" ">
<polygon fill="white" stroke="#bfbfbf" points="831.5,-56.5 831.5,-75.5 872.5,-75.5 872.5,-56.5 831.5,-56.5"/>
<text text-anchor="middle" x="852" y="-63.5" font-family="Helvetica,sans-Serif" font-size="10.00">tuple</text>
</a>
</g>
</g>
<!-- Node38&#45;&gt;Node42 -->
<g id="edge55" class="edge">
<title>Node38&#45;&gt;Node42</title>
<path fill="none" stroke="midnightblue" d="M740.07,-112.44C762.19,-103.46 797.14,-89.27 822.1,-79.14"/>
<polygon fill="midnightblue" stroke="midnightblue" points="823.51,-82.34 831.46,-75.34 820.88,-75.86 823.51,-82.34"/>
</g>
<!-- Node39&#45;&gt;Node22 -->
<g id="edge49" class="edge">
<title>Node39&#45;&gt;Node22</title>
<path fill="none" stroke="midnightblue" d="M915.91,-56.32C905.51,-48.18 889.74,-35.84 877.28,-26.09"/>
<polygon fill="midnightblue" stroke="midnightblue" points="879.32,-23.24 869.29,-19.83 875.01,-28.75 879.32,-23.24"/>
</g>
<!-- Node39&#45;&gt;Node24 -->
<g id="edge50" class="edge">
<title>Node39&#45;&gt;Node24</title>
<path fill="none" stroke="midnightblue" d="M948.71,-56.44C971.35,-47.52 1007.07,-33.44 1032.75,-23.32"/>
<polygon fill="midnightblue" stroke="midnightblue" points="1034.37,-26.44 1042.39,-19.52 1031.81,-19.93 1034.37,-26.44"/>
</g>
<!-- Node39&#45;&gt;Node30 -->
<g id="edge53" class="edge">
<title>Node39&#45;&gt;Node30</title>
<path fill="none" stroke="midnightblue" d="M890.21,-57.39C887.43,-56.89 884.68,-56.42 882,-56 864.81,-53.28 622.68,-25.27 532.51,-14.86"/>
<polygon fill="midnightblue" stroke="midnightblue" points="532.88,-11.38 522.54,-13.71 532.07,-18.34 532.88,-11.38"/>
</g>
<!-- Node39&#45;&gt;Node36 -->
<g id="edge52" class="edge">
<title>Node39&#45;&gt;Node36</title>
<path fill="none" stroke="midnightblue" d="M890.22,-57.28C887.45,-56.81 884.68,-56.37 882,-56 778.98,-41.6 458.46,-19.89 355.32,-13.1"/>
<polygon fill="midnightblue" stroke="midnightblue" points="355.42,-9.6 345.21,-12.44 354.96,-16.59 355.42,-9.6"/>
</g>
<!-- Node39&#45;&gt;Node40 -->
<g id="edge51" class="edge">
<title>Node39&#45;&gt;Node40</title>
<path fill="none" stroke="midnightblue" d="M931.95,-56.08C936.1,-48.61 942.15,-37.72 947.27,-28.52"/>
<polygon fill="midnightblue" stroke="midnightblue" points="950.34,-30.19 952.14,-19.75 944.22,-26.79 950.34,-30.19"/>
</g>
</g>
</svg>
        <g id="navigator" transform="translate(0 0)" fill="#404254">
                <rect fill="#f2f5e9" fill-opacity="0.5" stroke="#606060" stroke-width=".5" x="0" y="0" width="60" height="60"/>
                <use id="zoomplus" xlink:href="#zoomPlus" x="17" y="9" onmousedown="handleZoom(evt,'in')"/>
                <use id="zoomminus" xlink:href="#zoomMin" x="42" y="9" onmousedown="handleZoom(evt,'out')"/>
                <use id="reset" xlink:href="#resetDef" x="30" y="36" onmousedown="handleReset()"/>
                <g id="arrowUp" xlink:href="#dirArrow" transform="translate(30 24)" onmousedown="handlePan(0,-1)">
                  <use xlink:href="#rim" fill="#404040">
                        <set attributeName="fill" to="#808080" begin="arrowUp.mouseover" end="arrowUp.mouseout"/>
                  </use>
                  <path fill="none" stroke="white" stroke-width="1.5" d="M0,-3.0v7 M-2.5,-0.5L0,-3.0L2.5,-0.5"/>
                </g>
                <g id="arrowRight" xlink:href="#dirArrow" transform="rotate(90) translate(36 -43)" onmousedown="handlePan(1,0)">
                  <use xlink:href="#rim" fill="#404040">
                        <set attributeName="fill" to="#808080" begin="arrowRight.mouseover" end="arrowRight.mouseout"/>
                  </use>
                  <path fill="none" stroke="white" stroke-width="1.5" d="M0,-3.0v7 M-2.5,-0.5L0,-3.0L2.5,-0.5"/>
                </g>
                <g id="arrowDown" xlink:href="#dirArrow" transform="rotate(180) translate(-30 -48)" onmousedown="handlePan(0,1)">
                  <use xlink:href="#rim" fill="#404040">
                        <set attributeName="fill" to="#808080" begin="arrowDown.mouseover" end="arrowDown.mouseout"/>
                  </use>
                  <path fill="none" stroke="white" stroke-width="1.5" d="M0,-3.0v7 M-2.5,-0.5L0,-3.0L2.5,-0.5"/>
                </g>
                <g id="arrowLeft" xlink:href="#dirArrow" transform="rotate(270) translate(-36 17)" onmousedown="handlePan(-1,0)">
                  <use xlink:href="#rim" fill="#404040">
                        <set attributeName="fill" to="#808080" begin="arrowLeft.mouseover" end="arrowLeft.mouseout"/>
                  </use>
                  <path fill="none" stroke="white" stroke-width="1.5" d="M0,-3.0v7 M-2.5,-0.5L0,-3.0L2.5,-0.5"/>
                </g>
        </g>
        <svg viewBox="0 0 15 15" width="100%" height="30px" preserveAspectRatio="xMaxYMin meet">
         <g id="arrow_out" transform="scale(0.3 0.3)">
          <a xlink:href="host_2enclave_8h__incl_org.svg" target="_base">
           <rect id="button" ry="5" rx="5" y="6" x="6" height="38" width="38"
                fill="#f2f5e9" fill-opacity="0.5" stroke="#606060" stroke-width="1.0"/>
           <path id="arrow"
             d="M 11.500037,31.436501 C 11.940474,20.09759 22.043105,11.32322 32.158766,21.979434 L 37.068811,17.246167 C 37.068811,17.246167 37.088388,32 37.088388,32 L 22.160133,31.978069 C 22.160133,31.978069 26.997745,27.140456 26.997745,27.140456 C 18.528582,18.264221 13.291696,25.230495 11.500037,31.436501 z"
             style="fill:#404040;"/>
          </a>
         </g>
        </svg>
</svg>
