<?xml version="1.0" encoding="UTF-8" standalone="no"?>
<!DOCTYPE svg PUBLIC "-//W3C//DTD SVG 1.1//EN"
 "http://www.w3.org/Graphics/SVG/1.1/DTD/svg11.dtd">
<!-- Generated by graphviz version 2.43.0 (0)
 -->
<!-- Title: src/host/lfs_file_handler.h Pages: 1 -->
<svg width="1890pt" height="386pt"
 viewBox="0.00 0.00 1889.92 386.00" xmlns="http://www.w3.org/2000/svg" xmlns:xlink="http://www.w3.org/1999/xlink">
<g id="graph0" class="graph" transform="scale(1 1) rotate(0) translate(4 382)">
<title>src/host/lfs_file_handler.h</title>
<polygon fill="white" stroke="transparent" points="-4,4 -4,-382 1885.92,-382 1885.92,4 -4,4"/>
<!-- Node1 -->
<g id="node1" class="node">
<title>Node1</title>
<g id="a_node1"><a xlink:title=" ">
<polygon fill="#bfbfbf" stroke="black" points="1037,-358.5 1037,-377.5 1177,-377.5 1177,-358.5 1037,-358.5"/>
<text text-anchor="middle" x="1107" y="-365.5" font-family="Helvetica,sans-Serif" font-size="10.00">src/host/lfs_file_handler.h</text>
</a>
</g>
</g>
<!-- Node2 -->
<g id="node2" class="node">
<title>Node2</title>
<g id="a_node2"><a xlink:href="messaging_8h.html" target="_top" xlink:title=" ">
<polygon fill="white" stroke="black" points="913.5,-302.5 913.5,-321.5 1006.5,-321.5 1006.5,-302.5 913.5,-302.5"/>
<text text-anchor="middle" x="960" y="-309.5" font-family="Helvetica,sans-Serif" font-size="10.00">ds/messaging.h</text>
</a>
</g>
</g>
<!-- Node1&#45;&gt;Node2 -->
<g id="edge1" class="edge">
<title>Node1&#45;&gt;Node2</title>
<path fill="none" stroke="midnightblue" d="M1083.71,-358.44C1059.19,-349.44 1020.4,-335.19 992.8,-325.05"/>
<polygon fill="midnightblue" stroke="midnightblue" points="993.78,-321.68 983.18,-321.52 991.36,-328.25 993.78,-321.68"/>
</g>
<!-- Node43 -->
<g id="node43" class="node">
<title>Node43</title>
<g id="a_node43"><a xlink:href="lfs__ringbuffer__types_8h.html" target="_top" xlink:title=" ">
<polygon fill="white" stroke="black" points="1055,-235.5 1055,-265.5 1181,-265.5 1181,-235.5 1055,-235.5"/>
<text text-anchor="start" x="1063" y="-253.5" font-family="Helvetica,sans-Serif" font-size="10.00">indexing/lfs_ringbuffer</text>
<text text-anchor="middle" x="1118" y="-242.5" font-family="Helvetica,sans-Serif" font-size="10.00">_types.h</text>
</a>
</g>
</g>
<!-- Node1&#45;&gt;Node43 -->
<g id="edge65" class="edge">
<title>Node1&#45;&gt;Node43</title>
<path fill="none" stroke="midnightblue" d="M1103.13,-358.13C1098.16,-345.59 1090.67,-321.96 1095,-302 1097.03,-292.66 1100.94,-282.98 1104.96,-274.62"/>
<polygon fill="midnightblue" stroke="midnightblue" points="1108.18,-276.01 1109.64,-265.52 1101.96,-272.81 1108.18,-276.01"/>
</g>
<!-- Node46 -->
<g id="node46" class="node">
<title>Node46</title>
<g id="a_node46"><a xlink:title=" ">
<polygon fill="white" stroke="#bfbfbf" points="1104,-302.5 1104,-321.5 1172,-321.5 1172,-302.5 1104,-302.5"/>
<text text-anchor="middle" x="1138" y="-309.5" font-family="Helvetica,sans-Serif" font-size="10.00">filesystem</text>
</a>
</g>
</g>
<!-- Node1&#45;&gt;Node46 -->
<g id="edge72" class="edge">
<title>Node1&#45;&gt;Node46</title>
<path fill="none" stroke="midnightblue" d="M1112.12,-358.08C1116.41,-350.61 1122.66,-339.72 1127.94,-330.52"/>
<polygon fill="midnightblue" stroke="midnightblue" points="1131.03,-332.17 1132.98,-321.75 1124.96,-328.68 1131.03,-332.17"/>
</g>
<!-- Node47 -->
<g id="node47" class="node">
<title>Node47</title>
<g id="a_node47"><a xlink:title=" ">
<polygon fill="white" stroke="#bfbfbf" points="1190.5,-302.5 1190.5,-321.5 1245.5,-321.5 1245.5,-302.5 1190.5,-302.5"/>
<text text-anchor="middle" x="1218" y="-309.5" font-family="Helvetica,sans-Serif" font-size="10.00">fstream</text>
</a>
</g>
</g>
<!-- Node1&#45;&gt;Node47 -->
<g id="edge73" class="edge">
<title>Node1&#45;&gt;Node47</title>
<path fill="none" stroke="midnightblue" d="M1124.83,-358.32C1142.72,-349.62 1170.48,-336.12 1191.05,-326.11"/>
<polygon fill="midnightblue" stroke="midnightblue" points="1192.75,-329.18 1200.21,-321.65 1189.69,-322.88 1192.75,-329.18"/>
</g>
<!-- Node3 -->
<g id="node3" class="node">
<title>Node3</title>
<g id="a_node3"><a xlink:href="logger_8h.html" target="_top" xlink:title=" ">
<polygon fill="white" stroke="black" points="563.5,-241 563.5,-260 650.5,-260 650.5,-241 563.5,-241"/>
<text text-anchor="middle" x="607" y="-248" font-family="Helvetica,sans-Serif" font-size="10.00">ccf/ds/logger.h</text>
</a>
</g>
</g>
<!-- Node2&#45;&gt;Node3 -->
<g id="edge2" class="edge">
<title>Node2&#45;&gt;Node3</title>
<path fill="none" stroke="midnightblue" d="M913.49,-303.16C848.22,-292.16 729.75,-272.19 660.78,-260.56"/>
<polygon fill="midnightblue" stroke="midnightblue" points="661.01,-257.05 650.56,-258.84 659.84,-263.96 661.01,-257.05"/>
</g>
<!-- Node9 -->
<g id="node9" class="node">
<title>Node9</title>
<g id="a_node9"><a xlink:title=" ">
<polygon fill="white" stroke="#bfbfbf" points="0,-123.5 0,-142.5 38,-142.5 38,-123.5 0,-123.5"/>
<text text-anchor="middle" x="19" y="-130.5" font-family="Helvetica,sans-Serif" font-size="10.00">map</text>
</a>
</g>
</g>
<!-- Node2&#45;&gt;Node9 -->
<g id="edge63" class="edge">
<title>Node2&#45;&gt;Node9</title>
<path fill="none" stroke="midnightblue" d="M913.39,-306.12C837.86,-298.15 684.08,-281.65 554,-266 324.4,-238.37 213.71,-349.35 38,-199 24.76,-187.67 20.48,-167.67 19.23,-152.84"/>
<polygon fill="midnightblue" stroke="midnightblue" points="22.72,-152.56 18.76,-142.73 15.73,-152.88 22.72,-152.56"/>
</g>
<!-- Node17 -->
<g id="node17" class="node">
<title>Node17</title>
<g id="a_node17"><a xlink:href="ring__buffer_8h.html" target="_top" xlink:title=" ">
<polygon fill="white" stroke="black" points="921.5,-241 921.5,-260 998.5,-260 998.5,-241 921.5,-241"/>
<text text-anchor="middle" x="960" y="-248" font-family="Helvetica,sans-Serif" font-size="10.00">ring_buffer.h</text>
</a>
</g>
</g>
<!-- Node2&#45;&gt;Node17 -->
<g id="edge18" class="edge">
<title>Node2&#45;&gt;Node17</title>
<path fill="none" stroke="midnightblue" d="M960,-302.48C960,-294.08 960,-280.98 960,-270.16"/>
<polygon fill="midnightblue" stroke="midnightblue" points="963.5,-270.01 960,-260.01 956.5,-270.01 963.5,-270.01"/>
</g>
<!-- Node37 -->
<g id="node37" class="node">
<title>Node37</title>
<g id="a_node37"><a xlink:title=" ">
<polygon fill="white" stroke="#bfbfbf" points="1722.5,-0.5 1722.5,-19.5 1787.5,-19.5 1787.5,-0.5 1722.5,-0.5"/>
<text text-anchor="middle" x="1755" y="-7.5" font-family="Helvetica,sans-Serif" font-size="10.00">stdexcept</text>
</a>
</g>
</g>
<!-- Node2&#45;&gt;Node37 -->
<g id="edge64" class="edge">
<title>Node2&#45;&gt;Node37</title>
<path fill="none" stroke="midnightblue" d="M1006.62,-307.36C1193.84,-292.42 1881,-234.58 1881,-190 1881,-190 1881,-190 1881,-132 1881,-97.18 1884.66,-82.43 1862,-56 1845.62,-36.9 1819.76,-25.72 1797.57,-19.29"/>
<polygon fill="midnightblue" stroke="midnightblue" points="1798.24,-15.85 1787.67,-16.65 1796.44,-22.61 1798.24,-15.85"/>
</g>
<!-- Node40 -->
<g id="node40" class="node">
<title>Node40</title>
<g id="a_node40"><a xlink:title=" ">
<polygon fill="white" stroke="#bfbfbf" points="1003,-123.5 1003,-142.5 1053,-142.5 1053,-123.5 1003,-123.5"/>
<text text-anchor="middle" x="1028" y="-130.5" font-family="Helvetica,sans-Serif" font-size="10.00">atomic</text>
</a>
</g>
</g>
<!-- Node2&#45;&gt;Node40 -->
<g id="edge61" class="edge">
<title>Node2&#45;&gt;Node40</title>
<path fill="none" stroke="midnightblue" d="M973.02,-302.29C983.96,-294.22 999.03,-281.21 1007,-266 1026.23,-229.29 1028.85,-179.57 1028.67,-152.85"/>
<polygon fill="midnightblue" stroke="midnightblue" points="1032.17,-152.54 1028.46,-142.61 1025.17,-152.68 1032.17,-152.54"/>
</g>
<!-- Node42 -->
<g id="node42" class="node">
<title>Node42</title>
<g id="a_node42"><a xlink:title=" ">
<polygon fill="white" stroke="#bfbfbf" points="796.5,-241 796.5,-260 903.5,-260 903.5,-241 796.5,-241"/>
<text text-anchor="middle" x="850" y="-248" font-family="Helvetica,sans-Serif" font-size="10.00">condition_variable</text>
</a>
</g>
</g>
<!-- Node2&#45;&gt;Node42 -->
<g id="edge62" class="edge">
<title>Node2&#45;&gt;Node42</title>
<path fill="none" stroke="midnightblue" d="M944.24,-302.48C926.02,-292.62 895.83,-276.29 874.53,-264.77"/>
<polygon fill="midnightblue" stroke="midnightblue" points="876.19,-261.69 865.73,-260.01 872.86,-267.85 876.19,-261.69"/>
</g>
<!-- Node4 -->
<g id="node4" class="node">
<title>Node4</title>
<g id="a_node4"><a xlink:href="enum__formatter_8h.html" target="_top" xlink:title=" ">
<polygon fill="white" stroke="black" points="173,-179.5 173,-198.5 309,-198.5 309,-179.5 173,-179.5"/>
<text text-anchor="middle" x="241" y="-186.5" font-family="Helvetica,sans-Serif" font-size="10.00">ccf/ds/enum_formatter.h</text>
</a>
</g>
</g>
<!-- Node3&#45;&gt;Node4 -->
<g id="edge3" class="edge">
<title>Node3&#45;&gt;Node4</title>
<path fill="none" stroke="midnightblue" d="M563.22,-242.38C498.61,-231.88 377.44,-212.18 303.5,-200.16"/>
<polygon fill="midnightblue" stroke="midnightblue" points="303.82,-196.67 293.39,-198.52 302.7,-203.58 303.82,-196.67"/>
</g>
<!-- Node5 -->
<g id="node5" class="node">
<title>Node5</title>
<g id="a_node5"><a xlink:title=" ">
<polygon fill="white" stroke="#bfbfbf" points="466.5,-123.5 466.5,-142.5 545.5,-142.5 545.5,-123.5 466.5,-123.5"/>
<text text-anchor="middle" x="506" y="-130.5" font-family="Helvetica,sans-Serif" font-size="10.00">fmt/format.h</text>
</a>
</g>
</g>
<!-- Node3&#45;&gt;Node5 -->
<g id="edge12" class="edge">
<title>Node3&#45;&gt;Node5</title>
<path fill="none" stroke="midnightblue" d="M633.95,-240.97C667.03,-229.09 716.29,-205.96 695,-179 677.93,-157.39 605.77,-145.04 555.73,-138.93"/>
<polygon fill="midnightblue" stroke="midnightblue" points="556.06,-135.45 545.72,-137.76 555.25,-142.4 556.06,-135.45"/>
</g>
<!-- Node6 -->
<g id="node6" class="node">
<title>Node6</title>
<g id="a_node6"><a xlink:href="thread__ids_8h.html" target="_top" xlink:title=" ">
<polygon fill="white" stroke="black" points="47,-179.5 47,-198.5 155,-198.5 155,-179.5 47,-179.5"/>
<text text-anchor="middle" x="101" y="-186.5" font-family="Helvetica,sans-Serif" font-size="10.00">ccf/ds/thread_ids.h</text>
</a>
</g>
</g>
<!-- Node3&#45;&gt;Node6 -->
<g id="edge5" class="edge">
<title>Node3&#45;&gt;Node6</title>
<path fill="none" stroke="midnightblue" d="M563.25,-244.93C485.41,-236.71 317.49,-218.56 165.28,-199.14"/>
<polygon fill="midnightblue" stroke="midnightblue" points="165.65,-195.65 155.28,-197.85 164.76,-202.6 165.65,-195.65"/>
</g>
<!-- Node11 -->
<g id="node11" class="node">
<title>Node11</title>
<g id="a_node11"><a xlink:title=" ">
<polygon fill="white" stroke="#bfbfbf" points="327.5,-179.5 327.5,-198.5 406.5,-198.5 406.5,-179.5 327.5,-179.5"/>
<text text-anchor="middle" x="367" y="-186.5" font-family="Helvetica,sans-Serif" font-size="10.00">fmt/chrono.h</text>
</a>
</g>
</g>
<!-- Node3&#45;&gt;Node11 -->
<g id="edge11" class="edge">
<title>Node3&#45;&gt;Node11</title>
<path fill="none" stroke="midnightblue" d="M572.61,-240.98C530.11,-230.44 457.7,-212.49 411.13,-200.94"/>
<polygon fill="midnightblue" stroke="midnightblue" points="411.87,-197.52 401.32,-198.51 410.19,-204.31 411.87,-197.52"/>
</g>
<!-- Node12 -->
<g id="node12" class="node">
<title>Node12</title>
<g id="a_node12"><a xlink:title=" ">
<polygon fill="white" stroke="#bfbfbf" points="424,-179.5 424,-198.5 484,-198.5 484,-179.5 424,-179.5"/>
<text text-anchor="middle" x="454" y="-186.5" font-family="Helvetica,sans-Serif" font-size="10.00">iostream</text>
</a>
</g>
</g>
<!-- Node3&#45;&gt;Node12 -->
<g id="edge13" class="edge">
<title>Node3&#45;&gt;Node12</title>
<path fill="none" stroke="midnightblue" d="M585.08,-240.98C558.95,-230.81 515.09,-213.76 485.37,-202.2"/>
<polygon fill="midnightblue" stroke="midnightblue" points="486.47,-198.87 475.88,-198.51 483.93,-205.4 486.47,-198.87"/>
</g>
<!-- Node13 -->
<g id="node13" class="node">
<title>Node13</title>
<g id="a_node13"><a xlink:title=" ">
<polygon fill="white" stroke="#bfbfbf" points="502,-179.5 502,-198.5 612,-198.5 612,-179.5 502,-179.5"/>
<text text-anchor="middle" x="557" y="-186.5" font-family="Helvetica,sans-Serif" font-size="10.00">nlohmann/json.hpp</text>
</a>
</g>
</g>
<!-- Node3&#45;&gt;Node13 -->
<g id="edge14" class="edge">
<title>Node3&#45;&gt;Node13</title>
<path fill="none" stroke="midnightblue" d="M599.84,-240.98C592.26,-231.96 580.13,-217.52 570.71,-206.31"/>
<polygon fill="midnightblue" stroke="midnightblue" points="573.26,-203.91 564.15,-198.51 567.9,-208.42 573.26,-203.91"/>
</g>
<!-- Node14 -->
<g id="node14" class="node">
<title>Node14</title>
<g id="a_node14"><a xlink:title=" ">
<polygon fill="white" stroke="#bfbfbf" points="818,-123.5 818,-142.5 874,-142.5 874,-123.5 818,-123.5"/>
<text text-anchor="middle" x="846" y="-130.5" font-family="Helvetica,sans-Serif" font-size="10.00">optional</text>
</a>
</g>
</g>
<!-- Node3&#45;&gt;Node14 -->
<g id="edge15" class="edge">
<title>Node3&#45;&gt;Node14</title>
<path fill="none" stroke="midnightblue" d="M650.79,-247.37C693.48,-243.34 758.44,-231.8 804,-199 820.32,-187.25 831.91,-167.02 838.73,-152.24"/>
<polygon fill="midnightblue" stroke="midnightblue" points="842.12,-153.22 842.85,-142.65 835.69,-150.46 842.12,-153.22"/>
</g>
<!-- Node15 -->
<g id="node15" class="node">
<title>Node15</title>
<g id="a_node15"><a xlink:title=" ">
<polygon fill="white" stroke="#bfbfbf" points="630,-179.5 630,-198.5 686,-198.5 686,-179.5 630,-179.5"/>
<text text-anchor="middle" x="658" y="-186.5" font-family="Helvetica,sans-Serif" font-size="10.00">sstream</text>
</a>
</g>
</g>
<!-- Node3&#45;&gt;Node15 -->
<g id="edge16" class="edge">
<title>Node3&#45;&gt;Node15</title>
<path fill="none" stroke="midnightblue" d="M614.31,-240.98C622.03,-231.96 634.41,-217.52 644.02,-206.31"/>
<polygon fill="midnightblue" stroke="midnightblue" points="646.86,-208.38 650.71,-198.51 641.54,-203.82 646.86,-208.38"/>
</g>
<!-- Node16 -->
<g id="node16" class="node">
<title>Node16</title>
<g id="a_node16"><a xlink:title=" ">
<polygon fill="white" stroke="#bfbfbf" points="967.5,-0.5 967.5,-19.5 1036.5,-19.5 1036.5,-0.5 967.5,-0.5"/>
<text text-anchor="middle" x="1002" y="-7.5" font-family="Helvetica,sans-Serif" font-size="10.00">type_traits</text>
</a>
</g>
</g>
<!-- Node3&#45;&gt;Node16 -->
<g id="edge17" class="edge">
<title>Node3&#45;&gt;Node16</title>
<path fill="none" stroke="midnightblue" d="M634.28,-240.89C656.92,-232.75 689.02,-218.81 712,-199 770.16,-148.85 745.7,-99.48 809,-56 853.31,-25.56 915.44,-15.51 957.12,-12.31"/>
<polygon fill="midnightblue" stroke="midnightblue" points="957.51,-15.79 967.25,-11.63 957.04,-8.8 957.51,-15.79"/>
</g>
<!-- Node4&#45;&gt;Node5 -->
<g id="edge4" class="edge">
<title>Node4&#45;&gt;Node5</title>
<path fill="none" stroke="midnightblue" d="M282.99,-179.44C330.1,-169.84 406.43,-154.29 456.43,-144.1"/>
<polygon fill="midnightblue" stroke="midnightblue" points="457.27,-147.5 466.37,-142.08 455.87,-140.64 457.27,-147.5"/>
</g>
<!-- Node6&#45;&gt;Node5 -->
<g id="edge6" class="edge">
<title>Node6&#45;&gt;Node5</title>
<path fill="none" stroke="midnightblue" d="M155.29,-180.21C158.24,-179.79 161.15,-179.39 164,-179 267.91,-164.74 389.7,-148.93 456.28,-140.37"/>
<polygon fill="midnightblue" stroke="midnightblue" points="457.01,-143.8 466.48,-139.06 456.12,-136.86 457.01,-143.8"/>
</g>
<!-- Node7 -->
<g id="node7" class="node">
<title>Node7</title>
<g id="a_node7"><a xlink:title=" ">
<polygon fill="white" stroke="#bfbfbf" points="122,-123.5 122,-142.5 208,-142.5 208,-123.5 122,-123.5"/>
<text text-anchor="middle" x="165" y="-130.5" font-family="Helvetica,sans-Serif" font-size="10.00">fmt/ostream.h</text>
</a>
</g>
</g>
<!-- Node6&#45;&gt;Node7 -->
<g id="edge7" class="edge">
<title>Node6&#45;&gt;Node7</title>
<path fill="none" stroke="midnightblue" d="M111.28,-179.32C120.84,-171.26 135.28,-159.08 146.78,-149.37"/>
<polygon fill="midnightblue" stroke="midnightblue" points="149.14,-151.96 154.53,-142.83 144.63,-146.61 149.14,-151.96"/>
</g>
<!-- Node8 -->
<g id="node8" class="node">
<title>Node8</title>
<g id="a_node8"><a xlink:title=" ">
<polygon fill="white" stroke="#bfbfbf" points="226,-123.5 226,-142.5 270,-142.5 270,-123.5 226,-123.5"/>
<text text-anchor="middle" x="248" y="-130.5" font-family="Helvetica,sans-Serif" font-size="10.00">limits</text>
</a>
</g>
</g>
<!-- Node6&#45;&gt;Node8 -->
<g id="edge8" class="edge">
<title>Node6&#45;&gt;Node8</title>
<path fill="none" stroke="midnightblue" d="M124.29,-179.44C149.1,-170.33 188.51,-155.85 216.17,-145.69"/>
<polygon fill="midnightblue" stroke="midnightblue" points="217.6,-148.9 225.78,-142.16 215.19,-142.33 217.6,-148.9"/>
</g>
<!-- Node6&#45;&gt;Node9 -->
<g id="edge9" class="edge">
<title>Node6&#45;&gt;Node9</title>
<path fill="none" stroke="midnightblue" d="M87.83,-179.32C75.15,-170.98 55.77,-158.21 40.79,-148.35"/>
<polygon fill="midnightblue" stroke="midnightblue" points="42.42,-145.23 32.14,-142.65 38.57,-151.08 42.42,-145.23"/>
</g>
<!-- Node10 -->
<g id="node10" class="node">
<title>Node10</title>
<g id="a_node10"><a xlink:title=" ">
<polygon fill="white" stroke="#bfbfbf" points="56,-123.5 56,-142.5 104,-142.5 104,-123.5 56,-123.5"/>
<text text-anchor="middle" x="80" y="-130.5" font-family="Helvetica,sans-Serif" font-size="10.00">thread</text>
</a>
</g>
</g>
<!-- Node6&#45;&gt;Node10 -->
<g id="edge10" class="edge">
<title>Node6&#45;&gt;Node10</title>
<path fill="none" stroke="midnightblue" d="M97.53,-179.08C94.69,-171.77 90.57,-161.18 87.04,-152.1"/>
<polygon fill="midnightblue" stroke="midnightblue" points="90.29,-150.8 83.4,-142.75 83.77,-153.34 90.29,-150.8"/>
</g>
<!-- Node18 -->
<g id="node18" class="node">
<title>Node18</title>
<g id="a_node18"><a xlink:href="pal_8h.html" target="_top" xlink:title=" ">
<polygon fill="white" stroke="black" points="614,-62 614,-81 686,-81 686,-62 614,-62"/>
<text text-anchor="middle" x="650" y="-69" font-family="Helvetica,sans-Serif" font-size="10.00">ccf/ds/pal.h</text>
</a>
</g>
</g>
<!-- Node17&#45;&gt;Node18 -->
<g id="edge19" class="edge">
<title>Node17&#45;&gt;Node18</title>
<path fill="none" stroke="midnightblue" d="M945.05,-240.96C895.34,-212.58 735.3,-121.21 674.11,-86.26"/>
<polygon fill="midnightblue" stroke="midnightblue" points="675.58,-83.08 665.17,-81.16 672.11,-89.16 675.58,-83.08"/>
</g>
<!-- Node21 -->
<g id="node21" class="node">
<title>Node21</title>
<g id="a_node21"><a xlink:title=" ">
<polygon fill="white" stroke="#bfbfbf" points="693,-0.5 693,-19.5 743,-19.5 743,-0.5 693,-0.5"/>
<text text-anchor="middle" x="718" y="-7.5" font-family="Helvetica,sans-Serif" font-size="10.00">cstring</text>
</a>
</g>
</g>
<!-- Node17&#45;&gt;Node21 -->
<g id="edge59" class="edge">
<title>Node17&#45;&gt;Node21</title>
<path fill="none" stroke="midnightblue" d="M952.55,-240.94C944.27,-231.18 930.78,-214.57 921,-199 900.92,-167.02 910.98,-148.37 883,-123 849.86,-92.95 826.11,-111.99 789,-87 764.99,-70.83 743.21,-45.11 730.28,-28.14"/>
<polygon fill="midnightblue" stroke="midnightblue" points="732.81,-25.68 724.05,-19.73 727.19,-29.85 732.81,-25.68"/>
</g>
<!-- Node23 -->
<g id="node23" class="node">
<title>Node23</title>
<g id="a_node23"><a xlink:href="ring__buffer__types_8h.html" target="_top" xlink:title=" ">
<polygon fill="white" stroke="black" points="1061,-179.5 1061,-198.5 1171,-198.5 1171,-179.5 1061,-179.5"/>
<text text-anchor="middle" x="1116" y="-186.5" font-family="Helvetica,sans-Serif" font-size="10.00">ring_buffer_types.h</text>
</a>
</g>
</g>
<!-- Node17&#45;&gt;Node23 -->
<g id="edge24" class="edge">
<title>Node17&#45;&gt;Node23</title>
<path fill="none" stroke="midnightblue" d="M982.35,-240.98C1008.99,-230.81 1053.71,-213.76 1084.01,-202.2"/>
<polygon fill="midnightblue" stroke="midnightblue" points="1085.59,-205.34 1093.69,-198.51 1083.1,-198.8 1085.59,-205.34"/>
</g>
<!-- Node41 -->
<g id="node41" class="node">
<title>Node41</title>
<g id="a_node41"><a xlink:title=" ">
<polygon fill="white" stroke="#bfbfbf" points="930.5,-179.5 930.5,-198.5 995.5,-198.5 995.5,-179.5 930.5,-179.5"/>
<text text-anchor="middle" x="963" y="-186.5" font-family="Helvetica,sans-Serif" font-size="10.00">functional</text>
</a>
</g>
</g>
<!-- Node17&#45;&gt;Node41 -->
<g id="edge60" class="edge">
<title>Node17&#45;&gt;Node41</title>
<path fill="none" stroke="midnightblue" d="M960.43,-240.98C960.85,-232.58 961.51,-219.48 962.06,-208.66"/>
<polygon fill="midnightblue" stroke="midnightblue" points="965.56,-208.67 962.57,-198.51 958.57,-208.32 965.56,-208.67"/>
</g>
<!-- Node19 -->
<g id="node19" class="node">
<title>Node19</title>
<g id="a_node19"><a xlink:title=" ">
<polygon fill="white" stroke="#bfbfbf" points="766,-0.5 766,-19.5 816,-19.5 816,-0.5 766,-0.5"/>
<text text-anchor="middle" x="791" y="-7.5" font-family="Helvetica,sans-Serif" font-size="10.00">cstdint</text>
</a>
</g>
</g>
<!-- Node18&#45;&gt;Node19 -->
<g id="edge20" class="edge">
<title>Node18&#45;&gt;Node19</title>
<path fill="none" stroke="midnightblue" d="M670.2,-61.98C694.07,-51.9 734,-35.05 761.37,-23.5"/>
<polygon fill="midnightblue" stroke="midnightblue" points="762.98,-26.62 770.84,-19.51 760.26,-20.17 762.98,-26.62"/>
</g>
<!-- Node20 -->
<g id="node20" class="node">
<title>Node20</title>
<g id="a_node20"><a xlink:title=" ">
<polygon fill="white" stroke="#bfbfbf" points="625.5,-0.5 625.5,-19.5 674.5,-19.5 674.5,-0.5 625.5,-0.5"/>
<text text-anchor="middle" x="650" y="-7.5" font-family="Helvetica,sans-Serif" font-size="10.00">cstdlib</text>
</a>
</g>
</g>
<!-- Node18&#45;&gt;Node20 -->
<g id="edge21" class="edge">
<title>Node18&#45;&gt;Node20</title>
<path fill="none" stroke="midnightblue" d="M650,-61.98C650,-53.58 650,-40.48 650,-29.66"/>
<polygon fill="midnightblue" stroke="midnightblue" points="653.5,-29.51 650,-19.51 646.5,-29.51 653.5,-29.51"/>
</g>
<!-- Node18&#45;&gt;Node21 -->
<g id="edge22" class="edge">
<title>Node18&#45;&gt;Node21</title>
<path fill="none" stroke="midnightblue" d="M659.74,-61.98C670.35,-52.7 687.52,-37.67 700.48,-26.33"/>
<polygon fill="midnightblue" stroke="midnightblue" points="703.05,-28.73 708.28,-19.51 698.44,-23.46 703.05,-28.73"/>
</g>
<!-- Node22 -->
<g id="node22" class="node">
<title>Node22</title>
<g id="a_node22"><a xlink:title=" ">
<polygon fill="white" stroke="#bfbfbf" points="559,-0.5 559,-19.5 607,-19.5 607,-0.5 559,-0.5"/>
<text text-anchor="middle" x="583" y="-7.5" font-family="Helvetica,sans-Serif" font-size="10.00">mutex</text>
</a>
</g>
</g>
<!-- Node18&#45;&gt;Node22 -->
<g id="edge23" class="edge">
<title>Node18&#45;&gt;Node22</title>
<path fill="none" stroke="midnightblue" d="M640.4,-61.98C629.95,-52.7 613.03,-37.67 600.26,-26.33"/>
<polygon fill="midnightblue" stroke="midnightblue" points="602.38,-23.53 592.58,-19.51 597.73,-28.77 602.38,-23.53"/>
</g>
<!-- Node23&#45;&gt;Node5 -->
<g id="edge55" class="edge">
<title>Node23&#45;&gt;Node5</title>
<path fill="none" stroke="midnightblue" d="M1060.79,-183.11C943.05,-172.69 668.85,-148.42 555.94,-138.42"/>
<polygon fill="midnightblue" stroke="midnightblue" points="556.12,-134.92 545.85,-137.53 555.5,-141.9 556.12,-134.92"/>
</g>
<!-- Node23&#45;&gt;Node14 -->
<g id="edge56" class="edge">
<title>Node23&#45;&gt;Node14</title>
<path fill="none" stroke="midnightblue" d="M1073.22,-179.44C1021.16,-169.03 934.06,-151.61 884.17,-141.63"/>
<polygon fill="midnightblue" stroke="midnightblue" points="884.61,-138.15 874.12,-139.62 883.24,-145.02 884.61,-138.15"/>
</g>
<!-- Node24 -->
<g id="node24" class="node">
<title>Node24</title>
<g id="a_node24"><a xlink:href="include_2ccf_2ds_2hash_8h.html" target="_top" xlink:title=" ">
<polygon fill="white" stroke="black" points="1075,-123.5 1075,-142.5 1155,-142.5 1155,-123.5 1075,-123.5"/>
<text text-anchor="middle" x="1115" y="-130.5" font-family="Helvetica,sans-Serif" font-size="10.00">ccf/ds/hash.h</text>
</a>
</g>
</g>
<!-- Node23&#45;&gt;Node24 -->
<g id="edge25" class="edge">
<title>Node23&#45;&gt;Node24</title>
<path fill="none" stroke="midnightblue" d="M1115.83,-179.08C1115.7,-172.01 1115.52,-161.86 1115.35,-152.99"/>
<polygon fill="midnightblue" stroke="midnightblue" points="1118.85,-152.68 1115.16,-142.75 1111.85,-152.81 1118.85,-152.68"/>
</g>
<!-- Node27 -->
<g id="node27" class="node">
<title>Node27</title>
<g id="a_node27"><a xlink:title=" ">
<polygon fill="white" stroke="#bfbfbf" points="1356.5,-0.5 1356.5,-19.5 1403.5,-19.5 1403.5,-0.5 1356.5,-0.5"/>
<text text-anchor="middle" x="1380" y="-7.5" font-family="Helvetica,sans-Serif" font-size="10.00">vector</text>
</a>
</g>
</g>
<!-- Node23&#45;&gt;Node27 -->
<g id="edge58" class="edge">
<title>Node23&#45;&gt;Node27</title>
<path fill="none" stroke="midnightblue" d="M1137.5,-179.46C1174.47,-164.19 1251.56,-129.76 1308,-87 1330.98,-69.59 1353.13,-44.58 1366.65,-28.07"/>
<polygon fill="midnightblue" stroke="midnightblue" points="1369.7,-29.86 1373.22,-19.87 1364.24,-25.48 1369.7,-29.86"/>
</g>
<!-- Node30 -->
<g id="node30" class="node">
<title>Node30</title>
<g id="a_node30"><a xlink:href="nonstd_8h.html" target="_top" xlink:title=" ">
<polygon fill="white" stroke="black" points="1174,-62 1174,-81 1264,-81 1264,-62 1174,-62"/>
<text text-anchor="middle" x="1219" y="-69" font-family="Helvetica,sans-Serif" font-size="10.00">ccf/ds/nonstd.h</text>
</a>
</g>
</g>
<!-- Node23&#45;&gt;Node30 -->
<g id="edge34" class="edge">
<title>Node23&#45;&gt;Node30</title>
<path fill="none" stroke="midnightblue" d="M1125.99,-179.46C1136.01,-170.7 1151.68,-156.5 1164,-143 1179.95,-125.53 1196.4,-103.88 1207.1,-89.22"/>
<polygon fill="midnightblue" stroke="midnightblue" points="1209.95,-91.25 1212.97,-81.09 1204.28,-87.15 1209.95,-91.25"/>
</g>
<!-- Node33 -->
<g id="node33" class="node">
<title>Node33</title>
<g id="a_node33"><a xlink:title=" ">
<polygon fill="white" stroke="#bfbfbf" points="1502,-0.5 1502,-19.5 1546,-19.5 1546,-0.5 1502,-0.5"/>
<text text-anchor="middle" x="1524" y="-7.5" font-family="Helvetica,sans-Serif" font-size="10.00">string</text>
</a>
</g>
</g>
<!-- Node23&#45;&gt;Node33 -->
<g id="edge57" class="edge">
<title>Node23&#45;&gt;Node33</title>
<path fill="none" stroke="midnightblue" d="M1171.06,-186.38C1236.13,-183.09 1346.94,-173.12 1437,-143 1485.68,-126.72 1511.95,-131.23 1538,-87 1548.6,-69 1541.13,-44.79 1533.65,-28.57"/>
<polygon fill="midnightblue" stroke="midnightblue" points="1536.77,-27 1529.15,-19.64 1530.52,-30.14 1536.77,-27"/>
</g>
<!-- Node35 -->
<g id="node35" class="node">
<title>Node35</title>
<g id="a_node35"><a xlink:href="serializer_8h.html" target="_top" xlink:title=" ">
<polygon fill="white" stroke="black" points="1358,-123.5 1358,-142.5 1428,-142.5 1428,-123.5 1358,-123.5"/>
<text text-anchor="middle" x="1393" y="-130.5" font-family="Helvetica,sans-Serif" font-size="10.00">serializer.h</text>
</a>
</g>
</g>
<!-- Node23&#45;&gt;Node35 -->
<g id="edge42" class="edge">
<title>Node23&#45;&gt;Node35</title>
<path fill="none" stroke="midnightblue" d="M1159.89,-179.44C1211.23,-169.43 1295.8,-152.95 1347.73,-142.82"/>
<polygon fill="midnightblue" stroke="midnightblue" points="1348.52,-146.24 1357.66,-140.89 1347.18,-139.37 1348.52,-146.24"/>
</g>
<!-- Node23&#45;&gt;Node40 -->
<g id="edge54" class="edge">
<title>Node23&#45;&gt;Node40</title>
<path fill="none" stroke="midnightblue" d="M1101.86,-179.32C1088.13,-170.9 1067.06,-157.97 1050.94,-148.07"/>
<polygon fill="midnightblue" stroke="midnightblue" points="1052.46,-144.9 1042.1,-142.65 1048.8,-150.87 1052.46,-144.9"/>
</g>
<!-- Node24&#45;&gt;Node19 -->
<g id="edge31" class="edge">
<title>Node24&#45;&gt;Node19</title>
<path fill="none" stroke="midnightblue" d="M1074.79,-125.06C1070.48,-124.35 1066.15,-123.65 1062,-123 1005.89,-114.25 850.94,-125.28 809,-87 793.23,-72.6 790.05,-47.15 789.94,-29.7"/>
<polygon fill="midnightblue" stroke="midnightblue" points="793.44,-29.67 790.21,-19.58 786.44,-29.49 793.44,-29.67"/>
</g>
<!-- Node25 -->
<g id="node25" class="node">
<title>Node25</title>
<g id="a_node25"><a xlink:href="siphash_8h.html" target="_top" xlink:title=" ">
<polygon fill="white" stroke="black" points="818.5,-62 818.5,-81 913.5,-81 913.5,-62 818.5,-62"/>
<text text-anchor="middle" x="866" y="-69" font-family="Helvetica,sans-Serif" font-size="10.00">ccf/ds/siphash.h</text>
</a>
</g>
</g>
<!-- Node24&#45;&gt;Node25 -->
<g id="edge26" class="edge">
<title>Node24&#45;&gt;Node25</title>
<path fill="none" stroke="midnightblue" d="M1077.21,-123.48C1038.26,-114.62 975.79,-100.23 922,-87 917.6,-85.92 913.02,-84.77 908.45,-83.61"/>
<polygon fill="midnightblue" stroke="midnightblue" points="909.1,-80.16 898.54,-81.07 907.36,-86.94 909.1,-80.16"/>
</g>
<!-- Node24&#45;&gt;Node27 -->
<g id="edge33" class="edge">
<title>Node24&#45;&gt;Node27</title>
<path fill="none" stroke="midnightblue" d="M1155.02,-124.63C1187.82,-117.65 1234.88,-105.46 1273,-87 1294.2,-76.73 1296.81,-69.66 1316,-56 1330.42,-45.73 1346.75,-34.25 1359.31,-25.46"/>
<polygon fill="midnightblue" stroke="midnightblue" points="1361.51,-28.18 1367.7,-19.58 1357.5,-22.45 1361.51,-28.18"/>
</g>
<!-- Node28 -->
<g id="node28" class="node">
<title>Node28</title>
<g id="a_node28"><a xlink:title=" ">
<polygon fill="white" stroke="#bfbfbf" points="1055,-0.5 1055,-19.5 1097,-19.5 1097,-0.5 1055,-0.5"/>
<text text-anchor="middle" x="1076" y="-7.5" font-family="Helvetica,sans-Serif" font-size="10.00">array</text>
</a>
</g>
</g>
<!-- Node24&#45;&gt;Node28 -->
<g id="edge30" class="edge">
<title>Node24&#45;&gt;Node28</title>
<path fill="none" stroke="midnightblue" d="M1112.2,-123.3C1105.87,-103.68 1090.39,-55.64 1081.86,-29.19"/>
<polygon fill="midnightblue" stroke="midnightblue" points="1085.18,-28.07 1078.78,-19.62 1078.52,-30.21 1085.18,-28.07"/>
</g>
<!-- Node29 -->
<g id="node29" class="node">
<title>Node29</title>
<g id="a_node29"><a xlink:title=" ">
<polygon fill="white" stroke="#bfbfbf" points="931.5,-62 931.5,-81 1080.5,-81 1080.5,-62 931.5,-62"/>
<text text-anchor="middle" x="1006" y="-69" font-family="Helvetica,sans-Serif" font-size="10.00">small_vector/SmallVector.h</text>
</a>
</g>
</g>
<!-- Node24&#45;&gt;Node29 -->
<g id="edge32" class="edge">
<title>Node24&#45;&gt;Node29</title>
<path fill="none" stroke="midnightblue" d="M1099.38,-123.48C1081.41,-113.67 1051.68,-97.43 1030.59,-85.92"/>
<polygon fill="midnightblue" stroke="midnightblue" points="1032.04,-82.73 1021.59,-81.01 1028.69,-88.87 1032.04,-82.73"/>
</g>
<!-- Node25&#45;&gt;Node19 -->
<g id="edge28" class="edge">
<title>Node25&#45;&gt;Node19</title>
<path fill="none" stroke="midnightblue" d="M855.25,-61.98C843.45,-52.61 824.26,-37.38 809.92,-26.01"/>
<polygon fill="midnightblue" stroke="midnightblue" points="811.74,-22.98 801.73,-19.51 807.38,-28.47 811.74,-22.98"/>
</g>
<!-- Node26 -->
<g id="node26" class="node">
<title>Node26</title>
<g id="a_node26"><a xlink:title=" ">
<polygon fill="white" stroke="#bfbfbf" points="839.5,-0.5 839.5,-19.5 892.5,-19.5 892.5,-0.5 839.5,-0.5"/>
<text text-anchor="middle" x="866" y="-7.5" font-family="Helvetica,sans-Serif" font-size="10.00">cstddef</text>
</a>
</g>
</g>
<!-- Node25&#45;&gt;Node26 -->
<g id="edge27" class="edge">
<title>Node25&#45;&gt;Node26</title>
<path fill="none" stroke="midnightblue" d="M866,-61.98C866,-53.58 866,-40.48 866,-29.66"/>
<polygon fill="midnightblue" stroke="midnightblue" points="869.5,-29.51 866,-19.51 862.5,-29.51 869.5,-29.51"/>
</g>
<!-- Node25&#45;&gt;Node27 -->
<g id="edge29" class="edge">
<title>Node25&#45;&gt;Node27</title>
<path fill="none" stroke="midnightblue" d="M895.15,-61.96C903.74,-59.71 913.19,-57.5 922,-56 1105.67,-24.67 1158.54,-52.1 1346.4,-19.75"/>
<polygon fill="midnightblue" stroke="midnightblue" points="1347.08,-23.19 1356.32,-18.01 1345.87,-16.29 1347.08,-23.19"/>
</g>
<!-- Node30&#45;&gt;Node16 -->
<g id="edge40" class="edge">
<title>Node30&#45;&gt;Node16</title>
<path fill="none" stroke="midnightblue" d="M1187.91,-61.98C1149.72,-51.5 1084.83,-33.71 1042.7,-22.16"/>
<polygon fill="midnightblue" stroke="midnightblue" points="1043.6,-18.78 1033.03,-19.51 1041.75,-25.53 1043.6,-18.78"/>
</g>
<!-- Node30&#45;&gt;Node27 -->
<g id="edge41" class="edge">
<title>Node30&#45;&gt;Node27</title>
<path fill="none" stroke="midnightblue" d="M1242.07,-61.98C1269.68,-51.77 1316.12,-34.61 1347.4,-23.05"/>
<polygon fill="midnightblue" stroke="midnightblue" points="1348.81,-26.26 1356.98,-19.51 1346.38,-19.69 1348.81,-26.26"/>
</g>
<!-- Node30&#45;&gt;Node28 -->
<g id="edge36" class="edge">
<title>Node30&#45;&gt;Node28</title>
<path fill="none" stroke="midnightblue" d="M1198.51,-61.98C1174.19,-51.86 1133.45,-34.9 1105.68,-23.35"/>
<polygon fill="midnightblue" stroke="midnightblue" points="1107.03,-20.12 1096.45,-19.51 1104.34,-26.58 1107.03,-20.12"/>
</g>
<!-- Node31 -->
<g id="node31" class="node">
<title>Node31</title>
<g id="a_node31"><a xlink:title=" ">
<polygon fill="white" stroke="#bfbfbf" points="1274,-0.5 1274,-19.5 1338,-19.5 1338,-0.5 1274,-0.5"/>
<text text-anchor="middle" x="1306" y="-7.5" font-family="Helvetica,sans-Serif" font-size="10.00">algorithm</text>
</a>
</g>
</g>
<!-- Node30&#45;&gt;Node31 -->
<g id="edge35" class="edge">
<title>Node30&#45;&gt;Node31</title>
<path fill="none" stroke="midnightblue" d="M1231.46,-61.98C1245.42,-52.43 1268.26,-36.81 1284.99,-25.37"/>
<polygon fill="midnightblue" stroke="midnightblue" points="1287.28,-28.04 1293.56,-19.51 1283.33,-22.27 1287.28,-28.04"/>
</g>
<!-- Node32 -->
<g id="node32" class="node">
<title>Node32</title>
<g id="a_node32"><a xlink:title=" ">
<polygon fill="white" stroke="#bfbfbf" points="1115.5,-0.5 1115.5,-19.5 1164.5,-19.5 1164.5,-0.5 1115.5,-0.5"/>
<text text-anchor="middle" x="1140" y="-7.5" font-family="Helvetica,sans-Serif" font-size="10.00">cctype</text>
</a>
</g>
</g>
<!-- Node30&#45;&gt;Node32 -->
<g id="edge37" class="edge">
<title>Node30&#45;&gt;Node32</title>
<path fill="none" stroke="midnightblue" d="M1207.68,-61.98C1195.13,-52.52 1174.65,-37.1 1159.5,-25.69"/>
<polygon fill="midnightblue" stroke="midnightblue" points="1161.39,-22.73 1151.3,-19.51 1157.18,-28.32 1161.39,-22.73"/>
</g>
<!-- Node30&#45;&gt;Node33 -->
<g id="edge38" class="edge">
<title>Node30&#45;&gt;Node33</title>
<path fill="none" stroke="midnightblue" d="M1262.7,-61.98C1324.75,-49.87 1436.95,-27.98 1491.91,-17.26"/>
<polygon fill="midnightblue" stroke="midnightblue" points="1492.65,-20.68 1501.79,-15.33 1491.31,-13.81 1492.65,-20.68"/>
</g>
<!-- Node34 -->
<g id="node34" class="node">
<title>Node34</title>
<g id="a_node34"><a xlink:title=" ">
<polygon fill="white" stroke="#bfbfbf" points="1182.5,-0.5 1182.5,-19.5 1255.5,-19.5 1255.5,-0.5 1182.5,-0.5"/>
<text text-anchor="middle" x="1219" y="-7.5" font-family="Helvetica,sans-Serif" font-size="10.00">string_view</text>
</a>
</g>
</g>
<!-- Node30&#45;&gt;Node34 -->
<g id="edge39" class="edge">
<title>Node30&#45;&gt;Node34</title>
<path fill="none" stroke="midnightblue" d="M1219,-61.98C1219,-53.58 1219,-40.48 1219,-29.66"/>
<polygon fill="midnightblue" stroke="midnightblue" points="1222.5,-29.51 1219,-19.51 1215.5,-29.51 1222.5,-29.51"/>
</g>
<!-- Node35&#45;&gt;Node16 -->
<g id="edge52" class="edge">
<title>Node35&#45;&gt;Node16</title>
<path fill="none" stroke="midnightblue" d="M1357.96,-127.76C1312.62,-121.67 1231.55,-108.73 1165,-87 1137.98,-78.18 1066.94,-43.46 1028.17,-24.15"/>
<polygon fill="midnightblue" stroke="midnightblue" points="1029.56,-20.93 1019.05,-19.59 1026.44,-27.19 1029.56,-20.93"/>
</g>
<!-- Node35&#45;&gt;Node27 -->
<g id="edge53" class="edge">
<title>Node35&#45;&gt;Node27</title>
<path fill="none" stroke="midnightblue" d="M1392.03,-123.37C1391.01,-114.32 1389.37,-99.66 1388,-87 1385.91,-67.66 1383.59,-45.54 1381.99,-30.17"/>
<polygon fill="midnightblue" stroke="midnightblue" points="1385.43,-29.48 1380.92,-19.89 1378.47,-30.2 1385.43,-29.48"/>
</g>
<!-- Node35&#45;&gt;Node30 -->
<g id="edge43" class="edge">
<title>Node35&#45;&gt;Node30</title>
<path fill="none" stroke="midnightblue" d="M1368.07,-123.48C1337.96,-113.18 1287.17,-95.81 1253.36,-84.25"/>
<polygon fill="midnightblue" stroke="midnightblue" points="1254.48,-80.93 1243.88,-81.01 1252.21,-87.56 1254.48,-80.93"/>
</g>
<!-- Node36 -->
<g id="node36" class="node">
<title>Node36</title>
<g id="a_node36"><a xlink:href="serialized_8h.html" target="_top" xlink:title=" ">
<polygon fill="white" stroke="black" points="1455.5,-62 1455.5,-81 1528.5,-81 1528.5,-62 1455.5,-62"/>
<text text-anchor="middle" x="1492" y="-69" font-family="Helvetica,sans-Serif" font-size="10.00">serialized.h</text>
</a>
</g>
</g>
<!-- Node35&#45;&gt;Node36 -->
<g id="edge44" class="edge">
<title>Node35&#45;&gt;Node36</title>
<path fill="none" stroke="midnightblue" d="M1407.18,-123.48C1423.36,-113.75 1450.03,-97.73 1469.14,-86.24"/>
<polygon fill="midnightblue" stroke="midnightblue" points="1471.07,-89.16 1477.84,-81.01 1467.47,-83.16 1471.07,-89.16"/>
</g>
<!-- Node38 -->
<g id="node38" class="node">
<title>Node38</title>
<g id="a_node38"><a xlink:title=" ">
<polygon fill="white" stroke="#bfbfbf" points="1585,-62 1585,-81 1643,-81 1643,-62 1585,-62"/>
<text text-anchor="middle" x="1614" y="-69" font-family="Helvetica,sans-Serif" font-size="10.00">memory</text>
</a>
</g>
</g>
<!-- Node35&#45;&gt;Node38 -->
<g id="edge50" class="edge">
<title>Node35&#45;&gt;Node38</title>
<path fill="none" stroke="midnightblue" d="M1424.66,-123.48C1464.33,-112.8 1532.28,-94.5 1575.08,-82.98"/>
<polygon fill="midnightblue" stroke="midnightblue" points="1576.12,-86.32 1584.86,-80.35 1574.3,-79.57 1576.12,-86.32"/>
</g>
<!-- Node39 -->
<g id="node39" class="node">
<title>Node39</title>
<g id="a_node39"><a xlink:title=" ">
<polygon fill="white" stroke="#bfbfbf" points="1396.5,-62 1396.5,-81 1437.5,-81 1437.5,-62 1396.5,-62"/>
<text text-anchor="middle" x="1417" y="-69" font-family="Helvetica,sans-Serif" font-size="10.00">tuple</text>
</a>
</g>
</g>
<!-- Node35&#45;&gt;Node39 -->
<g id="edge51" class="edge">
<title>Node35&#45;&gt;Node39</title>
<path fill="none" stroke="midnightblue" d="M1396.44,-123.48C1399.9,-114.9 1405.33,-101.43 1409.75,-90.48"/>
<polygon fill="midnightblue" stroke="midnightblue" points="1413.07,-91.59 1413.57,-81.01 1406.58,-88.97 1413.07,-91.59"/>
</g>
<!-- Node36&#45;&gt;Node19 -->
<g id="edge45" class="edge">
<title>Node36&#45;&gt;Node19</title>
<path fill="none" stroke="midnightblue" d="M1469.4,-61.98C1462.32,-59.65 1454.42,-57.39 1447,-56 1177,-5.47 1101.9,-59.02 830,-20 828.72,-19.82 827.43,-19.61 826.12,-19.39"/>
<polygon fill="midnightblue" stroke="midnightblue" points="826.54,-15.91 816.06,-17.44 825.21,-22.78 826.54,-15.91"/>
</g>
<!-- Node36&#45;&gt;Node21 -->
<g id="edge46" class="edge">
<title>Node36&#45;&gt;Node21</title>
<path fill="none" stroke="midnightblue" d="M1469.4,-61.95C1462.33,-59.62 1454.43,-57.37 1447,-56 1144.98,-0.44 1061.1,-62.69 757,-20 755.72,-19.82 754.43,-19.62 753.12,-19.4"/>
<polygon fill="midnightblue" stroke="midnightblue" points="753.54,-15.92 743.05,-17.46 752.21,-22.79 753.54,-15.92"/>
</g>
<!-- Node36&#45;&gt;Node27 -->
<g id="edge49" class="edge">
<title>Node36&#45;&gt;Node27</title>
<path fill="none" stroke="midnightblue" d="M1475.95,-61.98C1457.41,-52.12 1426.66,-35.79 1404.98,-24.27"/>
<polygon fill="midnightblue" stroke="midnightblue" points="1406.49,-21.11 1396.02,-19.51 1403.21,-27.29 1406.49,-21.11"/>
</g>
<!-- Node36&#45;&gt;Node33 -->
<g id="edge48" class="edge">
<title>Node36&#45;&gt;Node33</title>
<path fill="none" stroke="midnightblue" d="M1496.58,-61.98C1501.24,-53.32 1508.59,-39.65 1514.51,-28.65"/>
<polygon fill="midnightblue" stroke="midnightblue" points="1517.77,-29.97 1519.42,-19.51 1511.6,-26.66 1517.77,-29.97"/>
</g>
<!-- Node36&#45;&gt;Node37 -->
<g id="edge47" class="edge">
<title>Node36&#45;&gt;Node37</title>
<path fill="none" stroke="midnightblue" d="M1528.57,-62.23C1576.77,-51.32 1661.39,-32.18 1712.42,-20.63"/>
<polygon fill="midnightblue" stroke="midnightblue" points="1713.48,-23.98 1722.46,-18.36 1711.94,-17.15 1713.48,-23.98"/>
</g>
<!-- Node43&#45;&gt;Node23 -->
<g id="edge66" class="edge">
<title>Node43&#45;&gt;Node23</title>
<path fill="none" stroke="midnightblue" d="M1117.53,-235.4C1117.26,-227.47 1116.92,-217.46 1116.63,-208.86"/>
<polygon fill="midnightblue" stroke="midnightblue" points="1120.13,-208.53 1116.29,-198.66 1113.13,-208.77 1120.13,-208.53"/>
</g>
<!-- Node44 -->
<g id="node44" class="node">
<title>Node44</title>
<g id="a_node44"><a xlink:href="lfs__interface_8h.html" target="_top" xlink:title=" ">
<polygon fill="white" stroke="black" points="1605.5,-123.5 1605.5,-142.5 1736.5,-142.5 1736.5,-123.5 1605.5,-123.5"/>
<text text-anchor="middle" x="1671" y="-130.5" font-family="Helvetica,sans-Serif" font-size="10.00">indexing/lfs_interface.h</text>
</a>
</g>
</g>
<!-- Node43&#45;&gt;Node44 -->
<g id="edge67" class="edge">
<title>Node43&#45;&gt;Node44</title>
<path fill="none" stroke="midnightblue" d="M1181.17,-236.31C1291.86,-213.19 1518.73,-165.8 1620.1,-144.63"/>
<polygon fill="midnightblue" stroke="midnightblue" points="1621.02,-148.01 1630.09,-142.54 1619.59,-141.16 1621.02,-148.01"/>
</g>
<!-- Node44&#45;&gt;Node27 -->
<g id="edge71" class="edge">
<title>Node44&#45;&gt;Node27</title>
<path fill="none" stroke="midnightblue" d="M1671.63,-123.44C1672.29,-107.6 1671.2,-73.7 1652,-56 1634.67,-40.02 1483,-21.99 1413.96,-14.53"/>
<polygon fill="midnightblue" stroke="midnightblue" points="1413.94,-11 1403.62,-13.42 1413.19,-17.96 1413.94,-11"/>
</g>
<!-- Node44&#45;&gt;Node33 -->
<g id="edge70" class="edge">
<title>Node44&#45;&gt;Node33</title>
<path fill="none" stroke="midnightblue" d="M1676.38,-123.5C1685.23,-108.33 1700.41,-76.31 1685,-56 1669.51,-35.59 1598.82,-21.93 1556.43,-15.42"/>
<polygon fill="midnightblue" stroke="midnightblue" points="1556.72,-11.92 1546.31,-13.91 1555.69,-18.85 1556.72,-11.92"/>
</g>
<!-- Node44&#45;&gt;Node38 -->
<g id="edge69" class="edge">
<title>Node44&#45;&gt;Node38</title>
<path fill="none" stroke="midnightblue" d="M1662.83,-123.48C1654.11,-114.37 1640.1,-99.74 1629.31,-88.48"/>
<polygon fill="midnightblue" stroke="midnightblue" points="1631.6,-85.81 1622.15,-81.01 1626.54,-90.65 1631.6,-85.81"/>
</g>
<!-- Node45 -->
<g id="node45" class="node">
<title>Node45</title>
<g id="a_node45"><a xlink:href="node__subsystem__interface_8h.html" target="_top" xlink:title=" ">
<polygon fill="white" stroke="black" points="1737,-56.5 1737,-86.5 1853,-86.5 1853,-56.5 1737,-56.5"/>
<text text-anchor="start" x="1745" y="-74.5" font-family="Helvetica,sans-Serif" font-size="10.00">ccf/node_subsystem</text>
<text text-anchor="middle" x="1795" y="-63.5" font-family="Helvetica,sans-Serif" font-size="10.00">_interface.h</text>
</a>
</g>
</g>
<!-- Node44&#45;&gt;Node45 -->
<g id="edge68" class="edge">
<title>Node44&#45;&gt;Node45</title>
<path fill="none" stroke="midnightblue" d="M1688.77,-123.48C1706.42,-115 1734.07,-101.74 1756.73,-90.86"/>
<polygon fill="midnightblue" stroke="midnightblue" points="1758.27,-94 1765.78,-86.52 1755.25,-87.69 1758.27,-94"/>
</g>
</g>
</svg>
