<?xml version="1.0" encoding="UTF-8" standalone="no"?>
<!DOCTYPE svg PUBLIC "-//W3C//DTD SVG 1.1//EN"
 "http://www.w3.org/Graphics/SVG/1.1/DTD/svg11.dtd">
<!-- Generated by graphviz version 2.43.0 (0)
 -->
<!-- Title: src/ds/non_blocking.h Pages: 1 -->
<svg width="1177pt" height="308pt"
 viewBox="0.00 0.00 1177.00 308.00" xmlns="http://www.w3.org/2000/svg" xmlns:xlink="http://www.w3.org/1999/xlink">
<g id="graph0" class="graph" transform="scale(1 1) rotate(0) translate(4 304)">
<title>src/ds/non_blocking.h</title>
<polygon fill="white" stroke="transparent" points="-4,4 -4,-304 1173,-304 1173,4 -4,4"/>
<!-- Node1 -->
<g id="node1" class="node">
<title>Node1</title>
<g id="a_node1"><a xlink:title=" ">
<polygon fill="#bfbfbf" stroke="black" points="468,-280.5 468,-299.5 590,-299.5 590,-280.5 468,-280.5"/>
<text text-anchor="middle" x="529" y="-287.5" font-family="Helvetica,sans-Serif" font-size="10.00">src/ds/non_blocking.h</text>
</a>
</g>
</g>
<!-- Node2 -->
<g id="node2" class="node">
<title>Node2</title>
<g id="a_node2"><a xlink:href="ring__buffer_8h.html" target="_top" xlink:title=" ">
<polygon fill="white" stroke="black" points="557.5,-224.5 557.5,-243.5 634.5,-243.5 634.5,-224.5 557.5,-224.5"/>
<text text-anchor="middle" x="596" y="-231.5" font-family="Helvetica,sans-Serif" font-size="10.00">ring_buffer.h</text>
</a>
</g>
</g>
<!-- Node1&#45;&gt;Node2 -->
<g id="edge1" class="edge">
<title>Node1&#45;&gt;Node2</title>
<path fill="none" stroke="midnightblue" d="M539.76,-280.32C549.77,-272.26 564.89,-260.08 576.93,-250.37"/>
<polygon fill="midnightblue" stroke="midnightblue" points="579.45,-252.83 585.04,-243.83 575.06,-247.38 579.45,-252.83"/>
</g>
<!-- Node12 -->
<g id="node12" class="node">
<title>Node12</title>
<g id="a_node12"><a xlink:title=" ">
<polygon fill="white" stroke="#bfbfbf" points="505.5,-0.5 505.5,-19.5 552.5,-19.5 552.5,-0.5 505.5,-0.5"/>
<text text-anchor="middle" x="529" y="-7.5" font-family="Helvetica,sans-Serif" font-size="10.00">vector</text>
</a>
</g>
</g>
<!-- Node1&#45;&gt;Node12 -->
<g id="edge47" class="edge">
<title>Node1&#45;&gt;Node12</title>
<path fill="none" stroke="midnightblue" d="M529,-280.44C529,-261.94 529,-216.81 529,-179 529,-179 529,-179 529,-121 529,-88.95 529,-51.64 529,-29.75"/>
<polygon fill="midnightblue" stroke="midnightblue" points="532.5,-29.56 529,-19.56 525.5,-29.56 532.5,-29.56"/>
</g>
<!-- Node24 -->
<g id="node24" class="node">
<title>Node24</title>
<g id="a_node24"><a xlink:title=" ">
<polygon fill="white" stroke="#bfbfbf" points="53,-56.5 53,-75.5 111,-75.5 111,-56.5 53,-56.5"/>
<text text-anchor="middle" x="82" y="-63.5" font-family="Helvetica,sans-Serif" font-size="10.00">memory</text>
</a>
</g>
</g>
<!-- Node1&#45;&gt;Node24 -->
<g id="edge46" class="edge">
<title>Node1&#45;&gt;Node24</title>
<path fill="none" stroke="midnightblue" d="M467.64,-289.2C364.67,-285.79 159.48,-262.06 69,-132 59.37,-118.16 65.02,-98.89 71.61,-84.92"/>
<polygon fill="midnightblue" stroke="midnightblue" points="74.82,-86.33 76.37,-75.84 68.63,-83.07 74.82,-86.33"/>
</g>
<!-- Node27 -->
<g id="node27" class="node">
<title>Node27</title>
<g id="a_node27"><a xlink:title=" ">
<polygon fill="white" stroke="#bfbfbf" points="77.5,-112.5 77.5,-131.5 156.5,-131.5 156.5,-112.5 77.5,-112.5"/>
<text text-anchor="middle" x="117" y="-119.5" font-family="Helvetica,sans-Serif" font-size="10.00">fmt/format.h</text>
</a>
</g>
</g>
<!-- Node1&#45;&gt;Node27 -->
<g id="edge45" class="edge">
<title>Node1&#45;&gt;Node27</title>
<path fill="none" stroke="midnightblue" d="M507.72,-280.42C439.77,-253.05 227.83,-167.65 147.91,-135.45"/>
<polygon fill="midnightblue" stroke="midnightblue" points="148.99,-132.11 138.4,-131.62 146.37,-138.61 148.99,-132.11"/>
</g>
<!-- Node30 -->
<g id="node30" class="node">
<title>Node30</title>
<g id="a_node30"><a xlink:title=" ">
<polygon fill="white" stroke="#bfbfbf" points="652.5,-224.5 652.5,-243.5 699.5,-243.5 699.5,-224.5 652.5,-224.5"/>
<text text-anchor="middle" x="676" y="-231.5" font-family="Helvetica,sans-Serif" font-size="10.00">deque</text>
</a>
</g>
</g>
<!-- Node1&#45;&gt;Node30 -->
<g id="edge44" class="edge">
<title>Node1&#45;&gt;Node30</title>
<path fill="none" stroke="midnightblue" d="M552.29,-280.44C576.81,-271.44 615.6,-257.19 643.2,-247.05"/>
<polygon fill="midnightblue" stroke="midnightblue" points="644.64,-250.25 652.82,-243.52 642.22,-243.68 644.64,-250.25"/>
</g>
<!-- Node3 -->
<g id="node3" class="node">
<title>Node3</title>
<g id="a_node3"><a xlink:href="pal_8h.html" target="_top" xlink:title=" ">
<polygon fill="white" stroke="black" points="1042,-56.5 1042,-75.5 1114,-75.5 1114,-56.5 1042,-56.5"/>
<text text-anchor="middle" x="1078" y="-63.5" font-family="Helvetica,sans-Serif" font-size="10.00">ccf/ds/pal.h</text>
</a>
</g>
</g>
<!-- Node2&#45;&gt;Node3 -->
<g id="edge2" class="edge">
<title>Node2&#45;&gt;Node3</title>
<path fill="none" stroke="midnightblue" d="M634.72,-225.42C637.86,-224.91 640.98,-224.42 644,-224 728.88,-212.09 959.06,-238.92 1028,-188 1061.11,-163.54 1072.4,-113.12 1076.17,-85.72"/>
<polygon fill="midnightblue" stroke="midnightblue" points="1079.68,-85.87 1077.37,-75.53 1072.72,-85.05 1079.68,-85.87"/>
</g>
<!-- Node6 -->
<g id="node6" class="node">
<title>Node6</title>
<g id="a_node6"><a xlink:title=" ">
<polygon fill="white" stroke="#bfbfbf" points="985,-0.5 985,-19.5 1035,-19.5 1035,-0.5 985,-0.5"/>
<text text-anchor="middle" x="1010" y="-7.5" font-family="Helvetica,sans-Serif" font-size="10.00">cstring</text>
</a>
</g>
</g>
<!-- Node2&#45;&gt;Node6 -->
<g id="edge42" class="edge">
<title>Node2&#45;&gt;Node6</title>
<path fill="none" stroke="midnightblue" d="M634.54,-225.82C708.4,-210.33 871.61,-167.51 974,-76 988.1,-63.4 997.86,-43.91 1003.62,-29.55"/>
<polygon fill="midnightblue" stroke="midnightblue" points="1007.05,-30.37 1007.26,-19.78 1000.49,-27.93 1007.05,-30.37"/>
</g>
<!-- Node8 -->
<g id="node8" class="node">
<title>Node8</title>
<g id="a_node8"><a xlink:href="ring__buffer__types_8h.html" target="_top" xlink:title=" ">
<polygon fill="white" stroke="black" points="305,-168.5 305,-187.5 415,-187.5 415,-168.5 305,-168.5"/>
<text text-anchor="middle" x="360" y="-175.5" font-family="Helvetica,sans-Serif" font-size="10.00">ring_buffer_types.h</text>
</a>
</g>
</g>
<!-- Node2&#45;&gt;Node8 -->
<g id="edge7" class="edge">
<title>Node2&#45;&gt;Node8</title>
<path fill="none" stroke="midnightblue" d="M558.61,-224.44C517.61,-215.06 451.75,-199.99 407.22,-189.8"/>
<polygon fill="midnightblue" stroke="midnightblue" points="407.75,-186.34 397.22,-187.52 406.19,-193.16 407.75,-186.34"/>
</g>
<!-- Node29 -->
<g id="node29" class="node">
<title>Node29</title>
<g id="a_node29"><a xlink:title=" ">
<polygon fill="white" stroke="#bfbfbf" points="563.5,-168.5 563.5,-187.5 628.5,-187.5 628.5,-168.5 563.5,-168.5"/>
<text text-anchor="middle" x="596" y="-175.5" font-family="Helvetica,sans-Serif" font-size="10.00">functional</text>
</a>
</g>
</g>
<!-- Node2&#45;&gt;Node29 -->
<g id="edge43" class="edge">
<title>Node2&#45;&gt;Node29</title>
<path fill="none" stroke="midnightblue" d="M596,-224.08C596,-217.01 596,-206.86 596,-197.99"/>
<polygon fill="midnightblue" stroke="midnightblue" points="599.5,-197.75 596,-187.75 592.5,-197.75 599.5,-197.75"/>
</g>
<!-- Node4 -->
<g id="node4" class="node">
<title>Node4</title>
<g id="a_node4"><a xlink:title=" ">
<polygon fill="white" stroke="#bfbfbf" points="848,-0.5 848,-19.5 898,-19.5 898,-0.5 848,-0.5"/>
<text text-anchor="middle" x="873" y="-7.5" font-family="Helvetica,sans-Serif" font-size="10.00">cstdint</text>
</a>
</g>
</g>
<!-- Node3&#45;&gt;Node4 -->
<g id="edge3" class="edge">
<title>Node3&#45;&gt;Node4</title>
<path fill="none" stroke="midnightblue" d="M1045.52,-56.44C1008,-46.56 946.51,-30.36 907.97,-20.21"/>
<polygon fill="midnightblue" stroke="midnightblue" points="908.78,-16.81 898.22,-17.64 907,-23.58 908.78,-16.81"/>
</g>
<!-- Node5 -->
<g id="node5" class="node">
<title>Node5</title>
<g id="a_node5"><a xlink:title=" ">
<polygon fill="white" stroke="#bfbfbf" points="1053.5,-0.5 1053.5,-19.5 1102.5,-19.5 1102.5,-0.5 1053.5,-0.5"/>
<text text-anchor="middle" x="1078" y="-7.5" font-family="Helvetica,sans-Serif" font-size="10.00">cstdlib</text>
</a>
</g>
</g>
<!-- Node3&#45;&gt;Node5 -->
<g id="edge4" class="edge">
<title>Node3&#45;&gt;Node5</title>
<path fill="none" stroke="midnightblue" d="M1078,-56.08C1078,-49.01 1078,-38.86 1078,-29.99"/>
<polygon fill="midnightblue" stroke="midnightblue" points="1081.5,-29.75 1078,-19.75 1074.5,-29.75 1081.5,-29.75"/>
</g>
<!-- Node3&#45;&gt;Node6 -->
<g id="edge5" class="edge">
<title>Node3&#45;&gt;Node6</title>
<path fill="none" stroke="midnightblue" d="M1067.07,-56.32C1056.83,-48.18 1041.28,-35.84 1029,-26.09"/>
<polygon fill="midnightblue" stroke="midnightblue" points="1031.13,-23.31 1021.12,-19.83 1026.78,-28.79 1031.13,-23.31"/>
</g>
<!-- Node7 -->
<g id="node7" class="node">
<title>Node7</title>
<g id="a_node7"><a xlink:title=" ">
<polygon fill="white" stroke="#bfbfbf" points="1121,-0.5 1121,-19.5 1169,-19.5 1169,-0.5 1121,-0.5"/>
<text text-anchor="middle" x="1145" y="-7.5" font-family="Helvetica,sans-Serif" font-size="10.00">mutex</text>
</a>
</g>
</g>
<!-- Node3&#45;&gt;Node7 -->
<g id="edge6" class="edge">
<title>Node3&#45;&gt;Node7</title>
<path fill="none" stroke="midnightblue" d="M1088.76,-56.32C1098.77,-48.26 1113.89,-36.08 1125.93,-26.37"/>
<polygon fill="midnightblue" stroke="midnightblue" points="1128.45,-28.83 1134.04,-19.83 1124.06,-23.38 1128.45,-28.83"/>
</g>
<!-- Node9 -->
<g id="node9" class="node">
<title>Node9</title>
<g id="a_node9"><a xlink:href="include_2ccf_2ds_2hash_8h.html" target="_top" xlink:title=" ">
<polygon fill="white" stroke="black" points="626,-112.5 626,-131.5 706,-131.5 706,-112.5 626,-112.5"/>
<text text-anchor="middle" x="666" y="-119.5" font-family="Helvetica,sans-Serif" font-size="10.00">ccf/ds/hash.h</text>
</a>
</g>
</g>
<!-- Node8&#45;&gt;Node9 -->
<g id="edge8" class="edge">
<title>Node8&#45;&gt;Node9</title>
<path fill="none" stroke="midnightblue" d="M408.49,-168.44C465.08,-158.46 558.23,-142.02 615.62,-131.89"/>
<polygon fill="midnightblue" stroke="midnightblue" points="616.32,-135.32 625.56,-130.14 615.1,-128.43 616.32,-135.32"/>
</g>
<!-- Node8&#45;&gt;Node12 -->
<g id="edge41" class="edge">
<title>Node8&#45;&gt;Node12</title>
<path fill="none" stroke="midnightblue" d="M369.09,-168.08C396.38,-141.27 477.9,-61.19 512.83,-26.89"/>
<polygon fill="midnightblue" stroke="midnightblue" points="515.6,-29.07 520.28,-19.57 510.69,-24.08 515.6,-29.07"/>
</g>
<!-- Node15 -->
<g id="node15" class="node">
<title>Node15</title>
<g id="a_node15"><a xlink:href="nonstd_8h.html" target="_top" xlink:title=" ">
<polygon fill="white" stroke="black" points="199,-56.5 199,-75.5 289,-75.5 289,-56.5 199,-56.5"/>
<text text-anchor="middle" x="244" y="-63.5" font-family="Helvetica,sans-Serif" font-size="10.00">ccf/ds/nonstd.h</text>
</a>
</g>
</g>
<!-- Node8&#45;&gt;Node15 -->
<g id="edge17" class="edge">
<title>Node8&#45;&gt;Node15</title>
<path fill="none" stroke="midnightblue" d="M350.9,-168.37C331.42,-149.89 285.44,-106.29 260.6,-82.74"/>
<polygon fill="midnightblue" stroke="midnightblue" points="262.72,-79.93 253.06,-75.59 257.91,-85.01 262.72,-79.93"/>
</g>
<!-- Node18 -->
<g id="node18" class="node">
<title>Node18</title>
<g id="a_node18"><a xlink:title=" ">
<polygon fill="white" stroke="#bfbfbf" points="150,-0.5 150,-19.5 194,-19.5 194,-0.5 150,-0.5"/>
<text text-anchor="middle" x="172" y="-7.5" font-family="Helvetica,sans-Serif" font-size="10.00">string</text>
</a>
</g>
</g>
<!-- Node8&#45;&gt;Node18 -->
<g id="edge40" class="edge">
<title>Node8&#45;&gt;Node18</title>
<path fill="none" stroke="midnightblue" d="M304.72,-174.38C271.29,-169.9 230.21,-158.8 204,-132 176.87,-104.26 172.02,-56.34 171.57,-29.9"/>
<polygon fill="midnightblue" stroke="midnightblue" points="175.07,-29.71 171.6,-19.7 168.07,-29.69 175.07,-29.71"/>
</g>
<!-- Node21 -->
<g id="node21" class="node">
<title>Node21</title>
<g id="a_node21"><a xlink:href="serializer_8h.html" target="_top" xlink:title=" ">
<polygon fill="white" stroke="black" points="325,-112.5 325,-131.5 395,-131.5 395,-112.5 325,-112.5"/>
<text text-anchor="middle" x="360" y="-119.5" font-family="Helvetica,sans-Serif" font-size="10.00">serializer.h</text>
</a>
</g>
</g>
<!-- Node8&#45;&gt;Node21 -->
<g id="edge25" class="edge">
<title>Node8&#45;&gt;Node21</title>
<path fill="none" stroke="midnightblue" d="M360,-168.08C360,-161.01 360,-150.86 360,-141.99"/>
<polygon fill="midnightblue" stroke="midnightblue" points="363.5,-141.75 360,-131.75 356.5,-141.75 363.5,-141.75"/>
</g>
<!-- Node26 -->
<g id="node26" class="node">
<title>Node26</title>
<g id="a_node26"><a xlink:title=" ">
<polygon fill="white" stroke="#bfbfbf" points="451,-112.5 451,-131.5 501,-131.5 501,-112.5 451,-112.5"/>
<text text-anchor="middle" x="476" y="-119.5" font-family="Helvetica,sans-Serif" font-size="10.00">atomic</text>
</a>
</g>
</g>
<!-- Node8&#45;&gt;Node26 -->
<g id="edge37" class="edge">
<title>Node8&#45;&gt;Node26</title>
<path fill="none" stroke="midnightblue" d="M378.38,-168.44C397.22,-159.68 426.73,-145.94 448.38,-135.86"/>
<polygon fill="midnightblue" stroke="midnightblue" points="450.12,-138.91 457.71,-131.52 447.16,-132.56 450.12,-138.91"/>
</g>
<!-- Node8&#45;&gt;Node27 -->
<g id="edge38" class="edge">
<title>Node8&#45;&gt;Node27</title>
<path fill="none" stroke="midnightblue" d="M321.5,-168.44C279.19,-159.04 211.18,-143.93 165.33,-133.74"/>
<polygon fill="midnightblue" stroke="midnightblue" points="165.85,-130.27 155.32,-131.52 164.33,-137.1 165.85,-130.27"/>
</g>
<!-- Node28 -->
<g id="node28" class="node">
<title>Node28</title>
<g id="a_node28"><a xlink:title=" ">
<polygon fill="white" stroke="#bfbfbf" points="213,-112.5 213,-131.5 269,-131.5 269,-112.5 213,-112.5"/>
<text text-anchor="middle" x="241" y="-119.5" font-family="Helvetica,sans-Serif" font-size="10.00">optional</text>
</a>
</g>
</g>
<!-- Node8&#45;&gt;Node28 -->
<g id="edge39" class="edge">
<title>Node8&#45;&gt;Node28</title>
<path fill="none" stroke="midnightblue" d="M341.14,-168.44C321.73,-159.64 291.27,-145.81 269.04,-135.72"/>
<polygon fill="midnightblue" stroke="midnightblue" points="270.32,-132.46 259.77,-131.52 267.43,-138.84 270.32,-132.46"/>
</g>
<!-- Node9&#45;&gt;Node4 -->
<g id="edge14" class="edge">
<title>Node9&#45;&gt;Node4</title>
<path fill="none" stroke="midnightblue" d="M706.18,-120.97C778.49,-119.97 926.03,-113.28 958,-76 977.37,-53.41 939.23,-33.65 907.96,-22.01"/>
<polygon fill="midnightblue" stroke="midnightblue" points="908.73,-18.57 898.13,-18.53 906.39,-25.17 908.73,-18.57"/>
</g>
<!-- Node10 -->
<g id="node10" class="node">
<title>Node10</title>
<g id="a_node10"><a xlink:href="siphash_8h.html" target="_top" xlink:title=" ">
<polygon fill="white" stroke="black" points="686.5,-56.5 686.5,-75.5 781.5,-75.5 781.5,-56.5 686.5,-56.5"/>
<text text-anchor="middle" x="734" y="-63.5" font-family="Helvetica,sans-Serif" font-size="10.00">ccf/ds/siphash.h</text>
</a>
</g>
</g>
<!-- Node9&#45;&gt;Node10 -->
<g id="edge9" class="edge">
<title>Node9&#45;&gt;Node10</title>
<path fill="none" stroke="midnightblue" d="M676.93,-112.32C687.17,-104.18 702.72,-91.84 715,-82.09"/>
<polygon fill="midnightblue" stroke="midnightblue" points="717.22,-84.79 722.88,-75.83 712.87,-79.31 717.22,-84.79"/>
</g>
<!-- Node9&#45;&gt;Node12 -->
<g id="edge16" class="edge">
<title>Node9&#45;&gt;Node12</title>
<path fill="none" stroke="midnightblue" d="M647.04,-112.38C630.33,-104.29 605.78,-91.19 587,-76 569.44,-61.8 552.64,-42.06 541.68,-28.06"/>
<polygon fill="midnightblue" stroke="midnightblue" points="544.23,-25.63 535.37,-19.82 538.67,-29.89 544.23,-25.63"/>
</g>
<!-- Node13 -->
<g id="node13" class="node">
<title>Node13</title>
<g id="a_node13"><a xlink:title=" ">
<polygon fill="white" stroke="#bfbfbf" points="393,-0.5 393,-19.5 435,-19.5 435,-0.5 393,-0.5"/>
<text text-anchor="middle" x="414" y="-7.5" font-family="Helvetica,sans-Serif" font-size="10.00">array</text>
</a>
</g>
</g>
<!-- Node9&#45;&gt;Node13 -->
<g id="edge13" class="edge">
<title>Node9&#45;&gt;Node13</title>
<path fill="none" stroke="midnightblue" d="M646.05,-112.41C625.1,-103.37 591.22,-88.74 562,-76 520.63,-57.96 472.83,-36.94 443.01,-23.79"/>
<polygon fill="midnightblue" stroke="midnightblue" points="444.18,-20.49 433.62,-19.66 441.35,-26.89 444.18,-20.49"/>
</g>
<!-- Node14 -->
<g id="node14" class="node">
<title>Node14</title>
<g id="a_node14"><a xlink:title=" ">
<polygon fill="white" stroke="#bfbfbf" points="799.5,-56.5 799.5,-75.5 948.5,-75.5 948.5,-56.5 799.5,-56.5"/>
<text text-anchor="middle" x="874" y="-63.5" font-family="Helvetica,sans-Serif" font-size="10.00">small_vector/SmallVector.h</text>
</a>
</g>
</g>
<!-- Node9&#45;&gt;Node14 -->
<g id="edge15" class="edge">
<title>Node9&#45;&gt;Node14</title>
<path fill="none" stroke="midnightblue" d="M698.96,-112.44C734.79,-103.14 792.16,-88.25 831.39,-78.06"/>
<polygon fill="midnightblue" stroke="midnightblue" points="832.4,-81.42 841.2,-75.52 830.64,-74.64 832.4,-81.42"/>
</g>
<!-- Node10&#45;&gt;Node4 -->
<g id="edge11" class="edge">
<title>Node10&#45;&gt;Node4</title>
<path fill="none" stroke="midnightblue" d="M756.02,-56.44C779.1,-47.48 815.56,-33.31 841.64,-23.18"/>
<polygon fill="midnightblue" stroke="midnightblue" points="843.02,-26.4 851.08,-19.52 840.49,-19.88 843.02,-26.4"/>
</g>
<!-- Node11 -->
<g id="node11" class="node">
<title>Node11</title>
<g id="a_node11"><a xlink:title=" ">
<polygon fill="white" stroke="#bfbfbf" points="707.5,-0.5 707.5,-19.5 760.5,-19.5 760.5,-0.5 707.5,-0.5"/>
<text text-anchor="middle" x="734" y="-7.5" font-family="Helvetica,sans-Serif" font-size="10.00">cstddef</text>
</a>
</g>
</g>
<!-- Node10&#45;&gt;Node11 -->
<g id="edge10" class="edge">
<title>Node10&#45;&gt;Node11</title>
<path fill="none" stroke="midnightblue" d="M734,-56.08C734,-49.01 734,-38.86 734,-29.99"/>
<polygon fill="midnightblue" stroke="midnightblue" points="737.5,-29.75 734,-19.75 730.5,-29.75 737.5,-29.75"/>
</g>
<!-- Node10&#45;&gt;Node12 -->
<g id="edge12" class="edge">
<title>Node10&#45;&gt;Node12</title>
<path fill="none" stroke="midnightblue" d="M701.52,-56.44C663.48,-46.42 600.81,-29.92 562.39,-19.79"/>
<polygon fill="midnightblue" stroke="midnightblue" points="563.26,-16.41 552.7,-17.24 561.48,-23.18 563.26,-16.41"/>
</g>
<!-- Node15&#45;&gt;Node12 -->
<g id="edge24" class="edge">
<title>Node15&#45;&gt;Node12</title>
<path fill="none" stroke="midnightblue" d="M289.16,-56.44C346.57,-45.56 444.37,-27.03 495.54,-17.34"/>
<polygon fill="midnightblue" stroke="midnightblue" points="496.25,-20.77 505.43,-15.47 494.95,-13.89 496.25,-20.77"/>
</g>
<!-- Node15&#45;&gt;Node13 -->
<g id="edge19" class="edge">
<title>Node15&#45;&gt;Node13</title>
<path fill="none" stroke="midnightblue" d="M270.94,-56.44C301.43,-46.76 351.03,-31 383.09,-20.82"/>
<polygon fill="midnightblue" stroke="midnightblue" points="384.36,-24.09 392.83,-17.73 382.24,-17.42 384.36,-24.09"/>
</g>
<!-- Node16 -->
<g id="node16" class="node">
<title>Node16</title>
<g id="a_node16"><a xlink:title=" ">
<polygon fill="white" stroke="#bfbfbf" points="0,-0.5 0,-19.5 64,-19.5 64,-0.5 0,-0.5"/>
<text text-anchor="middle" x="32" y="-7.5" font-family="Helvetica,sans-Serif" font-size="10.00">algorithm</text>
</a>
</g>
</g>
<!-- Node15&#45;&gt;Node16 -->
<g id="edge18" class="edge">
<title>Node15&#45;&gt;Node16</title>
<path fill="none" stroke="midnightblue" d="M210.41,-56.44C173.38,-47.01 113.78,-31.83 73.77,-21.64"/>
<polygon fill="midnightblue" stroke="midnightblue" points="74.6,-18.24 64.05,-19.16 72.87,-25.02 74.6,-18.24"/>
</g>
<!-- Node17 -->
<g id="node17" class="node">
<title>Node17</title>
<g id="a_node17"><a xlink:title=" ">
<polygon fill="white" stroke="#bfbfbf" points="82.5,-0.5 82.5,-19.5 131.5,-19.5 131.5,-0.5 82.5,-0.5"/>
<text text-anchor="middle" x="107" y="-7.5" font-family="Helvetica,sans-Serif" font-size="10.00">cctype</text>
</a>
</g>
</g>
<!-- Node15&#45;&gt;Node17 -->
<g id="edge20" class="edge">
<title>Node15&#45;&gt;Node17</title>
<path fill="none" stroke="midnightblue" d="M222.29,-56.44C199.65,-47.52 163.93,-33.44 138.25,-23.32"/>
<polygon fill="midnightblue" stroke="midnightblue" points="139.19,-19.93 128.61,-19.52 136.63,-26.44 139.19,-19.93"/>
</g>
<!-- Node15&#45;&gt;Node18 -->
<g id="edge21" class="edge">
<title>Node15&#45;&gt;Node18</title>
<path fill="none" stroke="midnightblue" d="M232.43,-56.32C221.58,-48.18 205.12,-35.84 192.12,-26.09"/>
<polygon fill="midnightblue" stroke="midnightblue" points="193.88,-23.03 183.78,-19.83 189.68,-28.63 193.88,-23.03"/>
</g>
<!-- Node19 -->
<g id="node19" class="node">
<title>Node19</title>
<g id="a_node19"><a xlink:title=" ">
<polygon fill="white" stroke="#bfbfbf" points="212.5,-0.5 212.5,-19.5 285.5,-19.5 285.5,-0.5 212.5,-0.5"/>
<text text-anchor="middle" x="249" y="-7.5" font-family="Helvetica,sans-Serif" font-size="10.00">string_view</text>
</a>
</g>
</g>
<!-- Node15&#45;&gt;Node19 -->
<g id="edge22" class="edge">
<title>Node15&#45;&gt;Node19</title>
<path fill="none" stroke="midnightblue" d="M244.83,-56.08C245.48,-49.01 246.42,-38.86 247.24,-29.99"/>
<polygon fill="midnightblue" stroke="midnightblue" points="250.75,-30.03 248.19,-19.75 243.78,-29.39 250.75,-30.03"/>
</g>
<!-- Node20 -->
<g id="node20" class="node">
<title>Node20</title>
<g id="a_node20"><a xlink:title=" ">
<polygon fill="white" stroke="#bfbfbf" points="303.5,-0.5 303.5,-19.5 372.5,-19.5 372.5,-0.5 303.5,-0.5"/>
<text text-anchor="middle" x="338" y="-7.5" font-family="Helvetica,sans-Serif" font-size="10.00">type_traits</text>
</a>
</g>
</g>
<!-- Node15&#45;&gt;Node20 -->
<g id="edge23" class="edge">
<title>Node15&#45;&gt;Node20</title>
<path fill="none" stroke="midnightblue" d="M259.1,-56.32C273.9,-47.82 296.69,-34.73 313.98,-24.8"/>
<polygon fill="midnightblue" stroke="midnightblue" points="316.01,-27.67 322.93,-19.65 312.52,-21.6 316.01,-27.67"/>
</g>
<!-- Node21&#45;&gt;Node12 -->
<g id="edge36" class="edge">
<title>Node21&#45;&gt;Node12</title>
<path fill="none" stroke="midnightblue" d="M373.26,-112.37C402.26,-93.49 471.56,-48.38 507.13,-25.24"/>
<polygon fill="midnightblue" stroke="midnightblue" points="509.33,-27.98 515.8,-19.59 505.51,-22.11 509.33,-27.98"/>
</g>
<!-- Node21&#45;&gt;Node15 -->
<g id="edge26" class="edge">
<title>Node21&#45;&gt;Node15</title>
<path fill="none" stroke="midnightblue" d="M341.62,-112.44C322.78,-103.68 293.27,-89.94 271.62,-79.86"/>
<polygon fill="midnightblue" stroke="midnightblue" points="272.84,-76.56 262.29,-75.52 269.88,-82.91 272.84,-76.56"/>
</g>
<!-- Node21&#45;&gt;Node20 -->
<g id="edge35" class="edge">
<title>Node21&#45;&gt;Node20</title>
<path fill="none" stroke="midnightblue" d="M353.9,-112.19C348.25,-103.46 340.24,-89.48 337,-76 333.32,-60.72 333.94,-42.84 335.27,-29.7"/>
<polygon fill="midnightblue" stroke="midnightblue" points="338.77,-29.92 336.53,-19.56 331.82,-29.05 338.77,-29.92"/>
</g>
<!-- Node22 -->
<g id="node22" class="node">
<title>Node22</title>
<g id="a_node22"><a xlink:href="serialized_8h.html" target="_top" xlink:title=" ">
<polygon fill="white" stroke="black" points="595.5,-56.5 595.5,-75.5 668.5,-75.5 668.5,-56.5 595.5,-56.5"/>
<text text-anchor="middle" x="632" y="-63.5" font-family="Helvetica,sans-Serif" font-size="10.00">serialized.h</text>
</a>
</g>
</g>
<!-- Node21&#45;&gt;Node22 -->
<g id="edge27" class="edge">
<title>Node21&#45;&gt;Node22</title>
<path fill="none" stroke="midnightblue" d="M395,-114.05C443.53,-104.42 531.36,-86.98 585.39,-76.25"/>
<polygon fill="midnightblue" stroke="midnightblue" points="586.27,-79.65 595.4,-74.27 584.91,-72.78 586.27,-79.65"/>
</g>
<!-- Node21&#45;&gt;Node24 -->
<g id="edge33" class="edge">
<title>Node21&#45;&gt;Node24</title>
<path fill="none" stroke="midnightblue" d="M324.79,-114.16C272.63,-104.03 175.17,-85.1 120.94,-74.56"/>
<polygon fill="midnightblue" stroke="midnightblue" points="121.51,-71.11 111.02,-72.64 120.17,-77.98 121.51,-71.11"/>
</g>
<!-- Node25 -->
<g id="node25" class="node">
<title>Node25</title>
<g id="a_node25"><a xlink:title=" ">
<polygon fill="white" stroke="#bfbfbf" points="345.5,-56.5 345.5,-75.5 386.5,-75.5 386.5,-56.5 345.5,-56.5"/>
<text text-anchor="middle" x="366" y="-63.5" font-family="Helvetica,sans-Serif" font-size="10.00">tuple</text>
</a>
</g>
</g>
<!-- Node21&#45;&gt;Node25 -->
<g id="edge34" class="edge">
<title>Node21&#45;&gt;Node25</title>
<path fill="none" stroke="midnightblue" d="M360.99,-112.08C361.79,-104.93 362.93,-94.64 363.92,-85.69"/>
<polygon fill="midnightblue" stroke="midnightblue" points="367.4,-86.08 365.03,-75.75 360.44,-85.3 367.4,-86.08"/>
</g>
<!-- Node22&#45;&gt;Node4 -->
<g id="edge28" class="edge">
<title>Node22&#45;&gt;Node4</title>
<path fill="none" stroke="midnightblue" d="M668.6,-56.8C714.54,-46.51 792.76,-28.98 837.95,-18.85"/>
<polygon fill="midnightblue" stroke="midnightblue" points="838.88,-22.23 847.88,-16.63 837.35,-15.4 838.88,-22.23"/>
</g>
<!-- Node22&#45;&gt;Node6 -->
<g id="edge29" class="edge">
<title>Node22&#45;&gt;Node6</title>
<path fill="none" stroke="midnightblue" d="M668.62,-57.63C671.79,-57.06 674.95,-56.5 678,-56 785.73,-38.18 913.99,-22.29 974.74,-15.09"/>
<polygon fill="midnightblue" stroke="midnightblue" points="975.42,-18.54 984.94,-13.89 974.6,-11.58 975.42,-18.54"/>
</g>
<!-- Node22&#45;&gt;Node12 -->
<g id="edge32" class="edge">
<title>Node22&#45;&gt;Node12</title>
<path fill="none" stroke="midnightblue" d="M615.45,-56.32C599.01,-47.7 573.57,-34.36 554.53,-24.39"/>
<polygon fill="midnightblue" stroke="midnightblue" points="555.99,-21.2 545.51,-19.65 552.74,-27.4 555.99,-21.2"/>
</g>
<!-- Node22&#45;&gt;Node18 -->
<g id="edge31" class="edge">
<title>Node22&#45;&gt;Node18</title>
<path fill="none" stroke="midnightblue" d="M595.34,-63.24C522.56,-59.3 354.69,-47.97 204.15,-19.67"/>
<polygon fill="midnightblue" stroke="midnightblue" points="204.74,-16.22 194.26,-17.78 203.43,-23.1 204.74,-16.22"/>
</g>
<!-- Node23 -->
<g id="node23" class="node">
<title>Node23</title>
<g id="a_node23"><a xlink:title=" ">
<polygon fill="white" stroke="#bfbfbf" points="599.5,-0.5 599.5,-19.5 664.5,-19.5 664.5,-0.5 599.5,-0.5"/>
<text text-anchor="middle" x="632" y="-7.5" font-family="Helvetica,sans-Serif" font-size="10.00">stdexcept</text>
</a>
</g>
</g>
<!-- Node22&#45;&gt;Node23 -->
<g id="edge30" class="edge">
<title>Node22&#45;&gt;Node23</title>
<path fill="none" stroke="midnightblue" d="M632,-56.08C632,-49.01 632,-38.86 632,-29.99"/>
<polygon fill="midnightblue" stroke="midnightblue" points="635.5,-29.75 632,-19.75 628.5,-29.75 635.5,-29.75"/>
</g>
</g>
</svg>
