<?xml version="1.0" encoding="UTF-8" standalone="no"?>
<!DOCTYPE svg PUBLIC "-//W3C//DTD SVG 1.1//EN"
 "http://www.w3.org/Graphics/SVG/1.1/DTD/svg11.dtd">
<!-- Generated by graphviz version 2.43.0 (0)
 -->
<!-- Title: src/ds/oversized.h Pages: 1 -->
<!--zoomable 364 -->
<svg id="main" version="1.1" xmlns="http://www.w3.org/2000/svg" xmlns:xlink="http://www.w3.org/1999/xlink" xml:space="preserve" onload="init(evt)">
<style type="text/css"><![CDATA[
.edge:hover path { stroke: red; }
.edge:hover polygon { stroke: red; fill: red; }
]]></style>
<script type="text/javascript"><![CDATA[
var edges = document.getElementsByTagName('g');
if (edges && edges.length) {
  for (var i=0;i<edges.length;i++) {
    if (edges[i].id.substr(0,4)=='edge') {
      edges[i].setAttribute('class','edge');
    }
  }
}
]]></script>
        <defs>
                <circle id="rim" cx="0" cy="0" r="7"/>
                <circle id="rim2" cx="0" cy="0" r="3.5"/>
                <g id="zoomPlus">
                        <use xlink:href="#rim" fill="#404040">
                                <set attributeName="fill" to="#808080" begin="zoomplus.mouseover" end="zoomplus.mouseout"/>
                        </use>
                        <path d="M-4,0h8M0,-4v8" fill="none" stroke="white" stroke-width="1.5" pointer-events="none"/>
                </g>
                <g id="zoomMin">
                        <use xlink:href="#rim" fill="#404040">
                                <set attributeName="fill" to="#808080" begin="zoomminus.mouseover" end="zoomminus.mouseout"/>
                        </use>
                        <path d="M-4,0h8" fill="none" stroke="white" stroke-width="1.5" pointer-events="none"/>
                </g>
                <g id="dirArrow">
                        <path fill="none" stroke="white" stroke-width="1.5" d="M0,-3.0v7 M-2.5,-0.5L0,-3.0L2.5,-0.5"/>
                </g>
               <g id="resetDef">
                       <use xlink:href="#rim2" fill="#404040">
                               <set attributeName="fill" to="#808080" begin="reset.mouseover" end="reset.mouseout"/>
                       </use>
               </g>
        </defs>

<script type="text/javascript">
var viewWidth = 1798;
var viewHeight = 364;
var sectionId = 'dynsection-0';
</script>
<script xlink:href="svgpan.js"/>
<svg id="graph" class="graph">
<g id="viewport">
<title>src/ds/oversized.h</title>
<polygon fill="white" stroke="transparent" points="-4,4 -4,-360 1794,-360 1794,4 -4,4"/>
<!-- Node1 -->
<g id="node1" class="node">
<title>Node1</title>
<g id="a_node1"><a xlink:title=" ">
<polygon fill="#bfbfbf" stroke="black" points="824,-336.5 824,-355.5 928,-355.5 928,-336.5 824,-336.5"/>
<text text-anchor="middle" x="876" y="-343.5" font-family="Helvetica,sans-Serif" font-size="10.00">src/ds/oversized.h</text>
</a>
</g>
</g>
<!-- Node2 -->
<g id="node2" class="node">
<title>Node2</title>
<g id="a_node2"><a xlink:href="messaging_8h.html" target="_top" xlink:title=" ">
<polygon fill="white" stroke="black" points="959.5,-280.5 959.5,-299.5 1038.5,-299.5 1038.5,-280.5 959.5,-280.5"/>
<text text-anchor="middle" x="999" y="-287.5" font-family="Helvetica,sans-Serif" font-size="10.00">messaging.h</text>
</a>
</g>
</g>
<!-- Node1&#45;&gt;Node2 -->
<g id="edge1" class="edge">
<title>Node1&#45;&gt;Node2</title>
<path fill="none" stroke="midnightblue" d="M895.49,-336.44C915.64,-327.6 947.32,-313.69 970.33,-303.59"/>
<polygon fill="midnightblue" stroke="midnightblue" points="971.85,-306.74 979.6,-299.52 969.04,-300.33 971.85,-306.74"/>
</g>
<!-- Node5 -->
<g id="node5" class="node">
<title>Node5</title>
<g id="a_node5"><a xlink:title=" ">
<polygon fill="white" stroke="#bfbfbf" points="1325.5,-112.5 1325.5,-131.5 1404.5,-131.5 1404.5,-112.5 1325.5,-112.5"/>
<text text-anchor="middle" x="1365" y="-119.5" font-family="Helvetica,sans-Serif" font-size="10.00">fmt/format.h</text>
</a>
</g>
</g>
<!-- Node1&#45;&gt;Node5 -->
<g id="edge67" class="edge">
<title>Node1&#45;&gt;Node5</title>
<path fill="none" stroke="midnightblue" d="M875.13,-336.21C873.48,-314.97 871.99,-259.94 896,-224 922.17,-184.83 941.54,-183.59 986,-168 1098.78,-128.44 1240.79,-122.28 1314.85,-122.1"/>
<polygon fill="midnightblue" stroke="midnightblue" points="1315.27,-125.6 1325.27,-122.12 1315.28,-118.6 1315.27,-125.6"/>
</g>
<!-- Node17 -->
<g id="node17" class="node">
<title>Node17</title>
<g id="a_node17"><a xlink:href="ring__buffer_8h.html" target="_top" xlink:title=" ">
<polygon fill="white" stroke="black" points="718.5,-224.5 718.5,-243.5 795.5,-243.5 795.5,-224.5 718.5,-224.5"/>
<text text-anchor="middle" x="757" y="-231.5" font-family="Helvetica,sans-Serif" font-size="10.00">ring_buffer.h</text>
</a>
</g>
</g>
<!-- Node1&#45;&gt;Node17 -->
<g id="edge65" class="edge">
<title>Node1&#45;&gt;Node17</title>
<path fill="none" stroke="midnightblue" d="M866.66,-336.37C846.59,-317.81 799.1,-273.91 773.7,-250.44"/>
<polygon fill="midnightblue" stroke="midnightblue" points="776.01,-247.81 766.29,-243.59 771.26,-252.95 776.01,-247.81"/>
</g>
<!-- Node36 -->
<g id="node36" class="node">
<title>Node36</title>
<g id="a_node36"><a xlink:href="serialized_8h.html" target="_top" xlink:title=" ">
<polygon fill="white" stroke="black" points="617.5,-56.5 617.5,-75.5 690.5,-75.5 690.5,-56.5 617.5,-56.5"/>
<text text-anchor="middle" x="654" y="-63.5" font-family="Helvetica,sans-Serif" font-size="10.00">serialized.h</text>
</a>
</g>
</g>
<!-- Node1&#45;&gt;Node36 -->
<g id="edge66" class="edge">
<title>Node1&#45;&gt;Node36</title>
<path fill="none" stroke="midnightblue" d="M823.92,-343.02C754.42,-337.27 640,-315.58 640,-235 640,-235 640,-235 640,-177 640,-144.54 646.07,-107.12 650.22,-85.36"/>
<polygon fill="midnightblue" stroke="midnightblue" points="653.66,-86 652.17,-75.51 646.79,-84.64 653.66,-86"/>
</g>
<!-- Node43 -->
<g id="node43" class="node">
<title>Node43</title>
<g id="a_node43"><a xlink:title=" ">
<polygon fill="white" stroke="#bfbfbf" points="1056.5,-280.5 1056.5,-299.5 1149.5,-299.5 1149.5,-280.5 1056.5,-280.5"/>
<text text-anchor="middle" x="1103" y="-287.5" font-family="Helvetica,sans-Serif" font-size="10.00">unordered_map</text>
</a>
</g>
</g>
<!-- Node1&#45;&gt;Node43 -->
<g id="edge68" class="edge">
<title>Node1&#45;&gt;Node43</title>
<path fill="none" stroke="midnightblue" d="M911.97,-336.44C951.32,-327.08 1014.49,-312.06 1057.31,-301.87"/>
<polygon fill="midnightblue" stroke="midnightblue" points="1058.28,-305.24 1067.2,-299.52 1056.66,-298.43 1058.28,-305.24"/>
</g>
<!-- Node3 -->
<g id="node3" class="node">
<title>Node3</title>
<g id="a_node3"><a xlink:href="logger_8h.html" target="_top" xlink:title=" ">
<polygon fill="white" stroke="black" points="1250.5,-224.5 1250.5,-243.5 1337.5,-243.5 1337.5,-224.5 1250.5,-224.5"/>
<text text-anchor="middle" x="1294" y="-231.5" font-family="Helvetica,sans-Serif" font-size="10.00">ccf/ds/logger.h</text>
</a>
</g>
</g>
<!-- Node2&#45;&gt;Node3 -->
<g id="edge2" class="edge">
<title>Node2&#45;&gt;Node3</title>
<path fill="none" stroke="midnightblue" d="M1038.58,-281.73C1041.77,-281.14 1044.94,-280.56 1048,-280 1114.32,-267.84 1190.71,-253.88 1240.54,-244.77"/>
<polygon fill="midnightblue" stroke="midnightblue" points="1241.24,-248.2 1250.45,-242.96 1239.98,-241.31 1241.24,-248.2"/>
</g>
<!-- Node9 -->
<g id="node9" class="node">
<title>Node9</title>
<g id="a_node9"><a xlink:title=" ">
<polygon fill="white" stroke="#bfbfbf" points="1724,-112.5 1724,-131.5 1762,-131.5 1762,-112.5 1724,-112.5"/>
<text text-anchor="middle" x="1743" y="-119.5" font-family="Helvetica,sans-Serif" font-size="10.00">map</text>
</a>
</g>
</g>
<!-- Node2&#45;&gt;Node9 -->
<g id="edge63" class="edge">
<title>Node2&#45;&gt;Node9</title>
<path fill="none" stroke="midnightblue" d="M1038.55,-281.52C1041.74,-280.98 1044.92,-280.47 1048,-280 1195.49,-257.6 1593.8,-277.7 1713,-188 1727.72,-176.92 1735.45,-156.88 1739.35,-141.97"/>
<polygon fill="midnightblue" stroke="midnightblue" points="1742.86,-142.33 1741.64,-131.8 1736.03,-140.79 1742.86,-142.33"/>
</g>
<!-- Node2&#45;&gt;Node17 -->
<g id="edge18" class="edge">
<title>Node2&#45;&gt;Node17</title>
<path fill="none" stroke="midnightblue" d="M960.65,-280.44C918.53,-271.04 850.79,-255.93 805.13,-245.74"/>
<polygon fill="midnightblue" stroke="midnightblue" points="805.69,-242.28 795.17,-243.52 804.16,-249.11 805.69,-242.28"/>
</g>
<!-- Node37 -->
<g id="node37" class="node">
<title>Node37</title>
<g id="a_node37"><a xlink:title=" ">
<polygon fill="white" stroke="#bfbfbf" points="832.5,-0.5 832.5,-19.5 897.5,-19.5 897.5,-0.5 832.5,-0.5"/>
<text text-anchor="middle" x="865" y="-7.5" font-family="Helvetica,sans-Serif" font-size="10.00">stdexcept</text>
</a>
</g>
</g>
<!-- Node2&#45;&gt;Node37 -->
<g id="edge64" class="edge">
<title>Node2&#45;&gt;Node37</title>
<path fill="none" stroke="midnightblue" d="M1038.52,-281.33C1041.72,-280.84 1044.91,-280.38 1048,-280 1292.43,-249.7 1359.52,-292.48 1601,-244 1688.09,-226.52 1790,-267.83 1790,-179 1790,-179 1790,-179 1790,-121 1790,-24.95 1046.88,-34.95 908.19,-19.75"/>
<polygon fill="midnightblue" stroke="midnightblue" points="908.32,-16.24 897.95,-18.4 907.41,-23.18 908.32,-16.24"/>
</g>
<!-- Node40 -->
<g id="node40" class="node">
<title>Node40</title>
<g id="a_node40"><a xlink:title=" ">
<polygon fill="white" stroke="#bfbfbf" points="922,-112.5 922,-131.5 972,-131.5 972,-112.5 922,-112.5"/>
<text text-anchor="middle" x="947" y="-119.5" font-family="Helvetica,sans-Serif" font-size="10.00">atomic</text>
</a>
</g>
</g>
<!-- Node2&#45;&gt;Node40 -->
<g id="edge61" class="edge">
<title>Node2&#45;&gt;Node40</title>
<path fill="none" stroke="midnightblue" d="M1006.09,-280.34C1015.58,-267.64 1030.18,-243.38 1021,-224 1010.18,-201.17 992.47,-207.98 977,-188 966.07,-173.89 957.97,-155.15 952.95,-141.42"/>
<polygon fill="midnightblue" stroke="midnightblue" points="956.16,-139.99 949.6,-131.67 949.54,-142.26 956.16,-139.99"/>
</g>
<!-- Node42 -->
<g id="node42" class="node">
<title>Node42</title>
<g id="a_node42"><a xlink:title=" ">
<polygon fill="white" stroke="#bfbfbf" points="904.5,-224.5 904.5,-243.5 1011.5,-243.5 1011.5,-224.5 904.5,-224.5"/>
<text text-anchor="middle" x="958" y="-231.5" font-family="Helvetica,sans-Serif" font-size="10.00">condition_variable</text>
</a>
</g>
</g>
<!-- Node2&#45;&gt;Node42 -->
<g id="edge62" class="edge">
<title>Node2&#45;&gt;Node42</title>
<path fill="none" stroke="midnightblue" d="M992.23,-280.08C986.44,-272.46 977.94,-261.26 970.86,-251.94"/>
<polygon fill="midnightblue" stroke="midnightblue" points="973.48,-249.6 964.64,-243.75 967.9,-253.83 973.48,-249.6"/>
</g>
<!-- Node4 -->
<g id="node4" class="node">
<title>Node4</title>
<g id="a_node4"><a xlink:href="enum__formatter_8h.html" target="_top" xlink:title=" ">
<polygon fill="white" stroke="black" points="1297,-168.5 1297,-187.5 1433,-187.5 1433,-168.5 1297,-168.5"/>
<text text-anchor="middle" x="1365" y="-175.5" font-family="Helvetica,sans-Serif" font-size="10.00">ccf/ds/enum_formatter.h</text>
</a>
</g>
</g>
<!-- Node3&#45;&gt;Node4 -->
<g id="edge3" class="edge">
<title>Node3&#45;&gt;Node4</title>
<path fill="none" stroke="midnightblue" d="M1305.41,-224.32C1316.11,-216.18 1332.34,-203.84 1345.16,-194.09"/>
<polygon fill="midnightblue" stroke="midnightblue" points="1347.54,-196.67 1353.39,-187.83 1343.31,-191.1 1347.54,-196.67"/>
</g>
<!-- Node3&#45;&gt;Node5 -->
<g id="edge12" class="edge">
<title>Node3&#45;&gt;Node5</title>
<path fill="none" stroke="midnightblue" d="M1337.59,-230.52C1395.73,-226.2 1493.91,-215.02 1516,-188 1521.63,-181.12 1521.31,-175.13 1516,-168 1503.73,-151.54 1453.95,-138.91 1414.85,-131.28"/>
<polygon fill="midnightblue" stroke="midnightblue" points="1415.14,-127.77 1404.66,-129.36 1413.84,-134.65 1415.14,-127.77"/>
</g>
<!-- Node6 -->
<g id="node6" class="node">
<title>Node6</title>
<g id="a_node6"><a xlink:href="thread__ids_8h.html" target="_top" xlink:title=" ">
<polygon fill="white" stroke="black" points="1563,-168.5 1563,-187.5 1671,-187.5 1671,-168.5 1563,-168.5"/>
<text text-anchor="middle" x="1617" y="-175.5" font-family="Helvetica,sans-Serif" font-size="10.00">ccf/ds/thread_ids.h</text>
</a>
</g>
</g>
<!-- Node3&#45;&gt;Node6 -->
<g id="edge5" class="edge">
<title>Node3&#45;&gt;Node6</title>
<path fill="none" stroke="midnightblue" d="M1337.56,-225.72C1393.87,-216.3 1492.24,-199.86 1555.97,-189.2"/>
<polygon fill="midnightblue" stroke="midnightblue" points="1556.61,-192.65 1565.89,-187.54 1555.45,-185.74 1556.61,-192.65"/>
</g>
<!-- Node11 -->
<g id="node11" class="node">
<title>Node11</title>
<g id="a_node11"><a xlink:title=" ">
<polygon fill="white" stroke="#bfbfbf" points="994.5,-168.5 994.5,-187.5 1073.5,-187.5 1073.5,-168.5 994.5,-168.5"/>
<text text-anchor="middle" x="1034" y="-175.5" font-family="Helvetica,sans-Serif" font-size="10.00">fmt/chrono.h</text>
</a>
</g>
</g>
<!-- Node3&#45;&gt;Node11 -->
<g id="edge11" class="edge">
<title>Node3&#45;&gt;Node11</title>
<path fill="none" stroke="midnightblue" d="M1252.8,-224.44C1206.95,-214.92 1132.86,-199.53 1083.8,-189.34"/>
<polygon fill="midnightblue" stroke="midnightblue" points="1084.23,-185.86 1073.73,-187.25 1082.81,-192.71 1084.23,-185.86"/>
</g>
<!-- Node12 -->
<g id="node12" class="node">
<title>Node12</title>
<g id="a_node12"><a xlink:title=" ">
<polygon fill="white" stroke="#bfbfbf" points="1091,-168.5 1091,-187.5 1151,-187.5 1151,-168.5 1091,-168.5"/>
<text text-anchor="middle" x="1121" y="-175.5" font-family="Helvetica,sans-Serif" font-size="10.00">iostream</text>
</a>
</g>
</g>
<!-- Node3&#45;&gt;Node12 -->
<g id="edge13" class="edge">
<title>Node3&#45;&gt;Node12</title>
<path fill="none" stroke="midnightblue" d="M1266.59,-224.44C1237.23,-215.28 1190.48,-200.69 1157.9,-190.52"/>
<polygon fill="midnightblue" stroke="midnightblue" points="1158.87,-187.16 1148.28,-187.52 1156.79,-193.84 1158.87,-187.16"/>
</g>
<!-- Node13 -->
<g id="node13" class="node">
<title>Node13</title>
<g id="a_node13"><a xlink:title=" ">
<polygon fill="white" stroke="#bfbfbf" points="1169,-168.5 1169,-187.5 1279,-187.5 1279,-168.5 1169,-168.5"/>
<text text-anchor="middle" x="1224" y="-175.5" font-family="Helvetica,sans-Serif" font-size="10.00">nlohmann/json.hpp</text>
</a>
</g>
</g>
<!-- Node3&#45;&gt;Node13 -->
<g id="edge14" class="edge">
<title>Node3&#45;&gt;Node13</title>
<path fill="none" stroke="midnightblue" d="M1282.75,-224.32C1272.2,-216.18 1256.2,-203.84 1243.56,-194.09"/>
<polygon fill="midnightblue" stroke="midnightblue" points="1245.51,-191.17 1235.45,-187.83 1241.23,-196.71 1245.51,-191.17"/>
</g>
<!-- Node14 -->
<g id="node14" class="node">
<title>Node14</title>
<g id="a_node14"><a xlink:title=" ">
<polygon fill="white" stroke="#bfbfbf" points="990,-112.5 990,-131.5 1046,-131.5 1046,-112.5 990,-112.5"/>
<text text-anchor="middle" x="1018" y="-119.5" font-family="Helvetica,sans-Serif" font-size="10.00">optional</text>
</a>
</g>
</g>
<!-- Node3&#45;&gt;Node14 -->
<g id="edge15" class="edge">
<title>Node3&#45;&gt;Node14</title>
<path fill="none" stroke="midnightblue" d="M1250.44,-233.32C1173.78,-232.84 1019.66,-226.94 986,-188 973.37,-173.39 987.4,-152.92 1000.66,-138.87"/>
<polygon fill="midnightblue" stroke="midnightblue" points="1003.14,-141.34 1007.77,-131.81 998.21,-136.38 1003.14,-141.34"/>
</g>
<!-- Node15 -->
<g id="node15" class="node">
<title>Node15</title>
<g id="a_node15"><a xlink:title=" ">
<polygon fill="white" stroke="#bfbfbf" points="1451,-168.5 1451,-187.5 1507,-187.5 1507,-168.5 1451,-168.5"/>
<text text-anchor="middle" x="1479" y="-175.5" font-family="Helvetica,sans-Serif" font-size="10.00">sstream</text>
</a>
</g>
</g>
<!-- Node3&#45;&gt;Node15 -->
<g id="edge16" class="edge">
<title>Node3&#45;&gt;Node15</title>
<path fill="none" stroke="midnightblue" d="M1323.31,-224.44C1355.12,-215.16 1406.02,-200.3 1440.9,-190.12"/>
<polygon fill="midnightblue" stroke="midnightblue" points="1442.11,-193.41 1450.73,-187.25 1440.15,-186.69 1442.11,-193.41"/>
</g>
<!-- Node16 -->
<g id="node16" class="node">
<title>Node16</title>
<g id="a_node16"><a xlink:title=" ">
<polygon fill="white" stroke="#bfbfbf" points="1073.5,-0.5 1073.5,-19.5 1142.5,-19.5 1142.5,-0.5 1073.5,-0.5"/>
<text text-anchor="middle" x="1108" y="-7.5" font-family="Helvetica,sans-Serif" font-size="10.00">type_traits</text>
</a>
</g>
</g>
<!-- Node3&#45;&gt;Node16 -->
<g id="edge17" class="edge">
<title>Node3&#45;&gt;Node16</title>
<path fill="none" stroke="midnightblue" d="M1337.75,-231.12C1434.03,-226.52 1657.54,-213.23 1680,-188 1690.47,-176.24 1701.89,-140.13 1677,-112 1607.8,-33.78 1274.86,-15.99 1152.9,-12.07"/>
<polygon fill="midnightblue" stroke="midnightblue" points="1152.88,-8.57 1142.78,-11.76 1152.67,-15.56 1152.88,-8.57"/>
</g>
<!-- Node4&#45;&gt;Node5 -->
<g id="edge4" class="edge">
<title>Node4&#45;&gt;Node5</title>
<path fill="none" stroke="midnightblue" d="M1365,-168.08C1365,-161.01 1365,-150.86 1365,-141.99"/>
<polygon fill="midnightblue" stroke="midnightblue" points="1368.5,-141.75 1365,-131.75 1361.5,-141.75 1368.5,-141.75"/>
</g>
<!-- Node6&#45;&gt;Node5 -->
<g id="edge6" class="edge">
<title>Node6&#45;&gt;Node5</title>
<path fill="none" stroke="midnightblue" d="M1577.07,-168.44C1533.11,-159.02 1462.37,-143.87 1414.82,-133.68"/>
<polygon fill="midnightblue" stroke="midnightblue" points="1415.25,-130.19 1404.74,-131.52 1413.79,-137.03 1415.25,-130.19"/>
</g>
<!-- Node7 -->
<g id="node7" class="node">
<title>Node7</title>
<g id="a_node7"><a xlink:title=" ">
<polygon fill="white" stroke="#bfbfbf" points="1520,-112.5 1520,-131.5 1606,-131.5 1606,-112.5 1520,-112.5"/>
<text text-anchor="middle" x="1563" y="-119.5" font-family="Helvetica,sans-Serif" font-size="10.00">fmt/ostream.h</text>
</a>
</g>
</g>
<!-- Node6&#45;&gt;Node7 -->
<g id="edge7" class="edge">
<title>Node6&#45;&gt;Node7</title>
<path fill="none" stroke="midnightblue" d="M1608.08,-168.08C1600.22,-160.22 1588.57,-148.57 1579.08,-139.08"/>
<polygon fill="midnightblue" stroke="midnightblue" points="1581.3,-136.35 1571.75,-131.75 1576.35,-141.3 1581.3,-136.35"/>
</g>
<!-- Node8 -->
<g id="node8" class="node">
<title>Node8</title>
<g id="a_node8"><a xlink:title=" ">
<polygon fill="white" stroke="#bfbfbf" points="1624,-112.5 1624,-131.5 1668,-131.5 1668,-112.5 1624,-112.5"/>
<text text-anchor="middle" x="1646" y="-119.5" font-family="Helvetica,sans-Serif" font-size="10.00">limits</text>
</a>
</g>
</g>
<!-- Node6&#45;&gt;Node8 -->
<g id="edge8" class="edge">
<title>Node6&#45;&gt;Node8</title>
<path fill="none" stroke="midnightblue" d="M1621.79,-168.08C1625.76,-160.69 1631.53,-149.95 1636.43,-140.81"/>
<polygon fill="midnightblue" stroke="midnightblue" points="1639.65,-142.22 1641.3,-131.75 1633.49,-138.91 1639.65,-142.22"/>
</g>
<!-- Node6&#45;&gt;Node9 -->
<g id="edge9" class="edge">
<title>Node6&#45;&gt;Node9</title>
<path fill="none" stroke="midnightblue" d="M1636.97,-168.44C1657.85,-159.49 1690.83,-145.36 1714.46,-135.23"/>
<polygon fill="midnightblue" stroke="midnightblue" points="1716.14,-138.32 1723.95,-131.16 1713.38,-131.89 1716.14,-138.32"/>
</g>
<!-- Node10 -->
<g id="node10" class="node">
<title>Node10</title>
<g id="a_node10"><a xlink:title=" ">
<polygon fill="white" stroke="#bfbfbf" points="1454,-112.5 1454,-131.5 1502,-131.5 1502,-112.5 1454,-112.5"/>
<text text-anchor="middle" x="1478" y="-119.5" font-family="Helvetica,sans-Serif" font-size="10.00">thread</text>
</a>
</g>
</g>
<!-- Node6&#45;&gt;Node10 -->
<g id="edge10" class="edge">
<title>Node6&#45;&gt;Node10</title>
<path fill="none" stroke="midnightblue" d="M1594.98,-168.44C1571.9,-159.48 1535.44,-145.31 1509.36,-135.18"/>
<polygon fill="midnightblue" stroke="midnightblue" points="1510.51,-131.88 1499.92,-131.52 1507.98,-138.4 1510.51,-131.88"/>
</g>
<!-- Node18 -->
<g id="node18" class="node">
<title>Node18</title>
<g id="a_node18"><a xlink:href="pal_8h.html" target="_top" xlink:title=" ">
<polygon fill="white" stroke="black" points="57,-56.5 57,-75.5 129,-75.5 129,-56.5 57,-56.5"/>
<text text-anchor="middle" x="93" y="-63.5" font-family="Helvetica,sans-Serif" font-size="10.00">ccf/ds/pal.h</text>
</a>
</g>
</g>
<!-- Node17&#45;&gt;Node18 -->
<g id="edge19" class="edge">
<title>Node17&#45;&gt;Node18</title>
<path fill="none" stroke="midnightblue" d="M718.38,-232.5C590.99,-230.52 189.55,-221.66 143,-188 109.64,-163.88 98.46,-113.32 94.77,-85.81"/>
<polygon fill="midnightblue" stroke="midnightblue" points="98.21,-85.11 93.6,-75.57 91.26,-85.9 98.21,-85.11"/>
</g>
<!-- Node21 -->
<g id="node21" class="node">
<title>Node21</title>
<g id="a_node21"><a xlink:title=" ">
<polygon fill="white" stroke="#bfbfbf" points="134,-0.5 134,-19.5 184,-19.5 184,-0.5 134,-0.5"/>
<text text-anchor="middle" x="159" y="-7.5" font-family="Helvetica,sans-Serif" font-size="10.00">cstring</text>
</a>
</g>
</g>
<!-- Node17&#45;&gt;Node21 -->
<g id="edge59" class="edge">
<title>Node17&#45;&gt;Node21</title>
<path fill="none" stroke="midnightblue" d="M718.47,-231.72C621.86,-226.64 365.6,-201.39 205,-76 188.71,-63.28 175.76,-43.25 167.8,-28.78"/>
<polygon fill="midnightblue" stroke="midnightblue" points="170.85,-27.06 163.11,-19.82 164.64,-30.3 170.85,-27.06"/>
</g>
<!-- Node23 -->
<g id="node23" class="node">
<title>Node23</title>
<g id="a_node23"><a xlink:href="ring__buffer__types_8h.html" target="_top" xlink:title=" ">
<polygon fill="white" stroke="black" points="752,-168.5 752,-187.5 862,-187.5 862,-168.5 752,-168.5"/>
<text text-anchor="middle" x="807" y="-175.5" font-family="Helvetica,sans-Serif" font-size="10.00">ring_buffer_types.h</text>
</a>
</g>
</g>
<!-- Node17&#45;&gt;Node23 -->
<g id="edge24" class="edge">
<title>Node17&#45;&gt;Node23</title>
<path fill="none" stroke="midnightblue" d="M765.26,-224.08C772.46,-216.3 783.11,-204.8 791.85,-195.37"/>
<polygon fill="midnightblue" stroke="midnightblue" points="794.67,-197.47 798.9,-187.75 789.53,-192.71 794.67,-197.47"/>
</g>
<!-- Node41 -->
<g id="node41" class="node">
<title>Node41</title>
<g id="a_node41"><a xlink:title=" ">
<polygon fill="white" stroke="#bfbfbf" points="668.5,-168.5 668.5,-187.5 733.5,-187.5 733.5,-168.5 668.5,-168.5"/>
<text text-anchor="middle" x="701" y="-175.5" font-family="Helvetica,sans-Serif" font-size="10.00">functional</text>
</a>
</g>
</g>
<!-- Node17&#45;&gt;Node41 -->
<g id="edge60" class="edge">
<title>Node17&#45;&gt;Node41</title>
<path fill="none" stroke="midnightblue" d="M748,-224.32C739.81,-216.42 727.49,-204.55 717.53,-194.94"/>
<polygon fill="midnightblue" stroke="midnightblue" points="719.79,-192.26 710.16,-187.83 714.93,-197.29 719.79,-192.26"/>
</g>
<!-- Node19 -->
<g id="node19" class="node">
<title>Node19</title>
<g id="a_node19"><a xlink:title=" ">
<polygon fill="white" stroke="#bfbfbf" points="202,-0.5 202,-19.5 252,-19.5 252,-0.5 202,-0.5"/>
<text text-anchor="middle" x="227" y="-7.5" font-family="Helvetica,sans-Serif" font-size="10.00">cstdint</text>
</a>
</g>
</g>
<!-- Node18&#45;&gt;Node19 -->
<g id="edge20" class="edge">
<title>Node18&#45;&gt;Node19</title>
<path fill="none" stroke="midnightblue" d="M114.23,-56.44C136.38,-47.52 171.32,-33.44 196.44,-23.32"/>
<polygon fill="midnightblue" stroke="midnightblue" points="197.9,-26.5 205.87,-19.52 195.28,-20.01 197.9,-26.5"/>
</g>
<!-- Node20 -->
<g id="node20" class="node">
<title>Node20</title>
<g id="a_node20"><a xlink:title=" ">
<polygon fill="white" stroke="#bfbfbf" points="66.5,-0.5 66.5,-19.5 115.5,-19.5 115.5,-0.5 66.5,-0.5"/>
<text text-anchor="middle" x="91" y="-7.5" font-family="Helvetica,sans-Serif" font-size="10.00">cstdlib</text>
</a>
</g>
</g>
<!-- Node18&#45;&gt;Node20 -->
<g id="edge21" class="edge">
<title>Node18&#45;&gt;Node20</title>
<path fill="none" stroke="midnightblue" d="M92.67,-56.08C92.41,-49.01 92.03,-38.86 91.7,-29.99"/>
<polygon fill="midnightblue" stroke="midnightblue" points="95.19,-29.61 91.32,-19.75 88.2,-29.87 95.19,-29.61"/>
</g>
<!-- Node18&#45;&gt;Node21 -->
<g id="edge22" class="edge">
<title>Node18&#45;&gt;Node21</title>
<path fill="none" stroke="midnightblue" d="M103.6,-56.32C113.46,-48.26 128.35,-36.08 140.22,-26.37"/>
<polygon fill="midnightblue" stroke="midnightblue" points="142.68,-28.88 148.2,-19.83 138.25,-23.46 142.68,-28.88"/>
</g>
<!-- Node22 -->
<g id="node22" class="node">
<title>Node22</title>
<g id="a_node22"><a xlink:title=" ">
<polygon fill="white" stroke="#bfbfbf" points="0,-0.5 0,-19.5 48,-19.5 48,-0.5 0,-0.5"/>
<text text-anchor="middle" x="24" y="-7.5" font-family="Helvetica,sans-Serif" font-size="10.00">mutex</text>
</a>
</g>
</g>
<!-- Node18&#45;&gt;Node22 -->
<g id="edge23" class="edge">
<title>Node18&#45;&gt;Node22</title>
<path fill="none" stroke="midnightblue" d="M81.91,-56.32C71.51,-48.18 55.74,-35.84 43.28,-26.09"/>
<polygon fill="midnightblue" stroke="midnightblue" points="45.32,-23.24 35.29,-19.83 41.01,-28.75 45.32,-23.24"/>
</g>
<!-- Node23&#45;&gt;Node5 -->
<g id="edge55" class="edge">
<title>Node23&#45;&gt;Node5</title>
<path fill="none" stroke="midnightblue" d="M862.03,-171.67C970.62,-161.17 1210.95,-137.91 1315.17,-127.82"/>
<polygon fill="midnightblue" stroke="midnightblue" points="1315.8,-131.28 1325.42,-126.83 1315.13,-124.31 1315.8,-131.28"/>
</g>
<!-- Node23&#45;&gt;Node14 -->
<g id="edge56" class="edge">
<title>Node23&#45;&gt;Node14</title>
<path fill="none" stroke="midnightblue" d="M840.43,-168.44C878.38,-158.73 940.16,-142.92 979.93,-132.74"/>
<polygon fill="midnightblue" stroke="midnightblue" points="980.97,-136.09 989.79,-130.22 979.23,-129.31 980.97,-136.09"/>
</g>
<!-- Node24 -->
<g id="node24" class="node">
<title>Node24</title>
<g id="a_node24"><a xlink:href="include_2ccf_2ds_2hash_8h.html" target="_top" xlink:title=" ">
<polygon fill="white" stroke="black" points="358,-112.5 358,-131.5 438,-131.5 438,-112.5 358,-112.5"/>
<text text-anchor="middle" x="398" y="-119.5" font-family="Helvetica,sans-Serif" font-size="10.00">ccf/ds/hash.h</text>
</a>
</g>
</g>
<!-- Node23&#45;&gt;Node24 -->
<g id="edge25" class="edge">
<title>Node23&#45;&gt;Node24</title>
<path fill="none" stroke="midnightblue" d="M751.69,-169.31C748.41,-168.87 745.16,-168.43 742,-168 637.6,-153.94 515.29,-138.09 448.27,-129.46"/>
<polygon fill="midnightblue" stroke="midnightblue" points="448.37,-125.94 438,-128.13 447.47,-132.88 448.37,-125.94"/>
</g>
<!-- Node27 -->
<g id="node27" class="node">
<title>Node27</title>
<g id="a_node27"><a xlink:title=" ">
<polygon fill="white" stroke="#bfbfbf" points="562.5,-0.5 562.5,-19.5 609.5,-19.5 609.5,-0.5 562.5,-0.5"/>
<text text-anchor="middle" x="586" y="-7.5" font-family="Helvetica,sans-Serif" font-size="10.00">vector</text>
</a>
</g>
</g>
<!-- Node23&#45;&gt;Node27 -->
<g id="edge58" class="edge">
<title>Node23&#45;&gt;Node27</title>
<path fill="none" stroke="midnightblue" d="M773.17,-168.46C729.08,-155.63 652.39,-127.25 608,-76 596.68,-62.92 591.12,-43.77 588.43,-29.64"/>
<polygon fill="midnightblue" stroke="midnightblue" points="591.86,-28.93 586.84,-19.6 584.95,-30.03 591.86,-28.93"/>
</g>
<!-- Node30 -->
<g id="node30" class="node">
<title>Node30</title>
<g id="a_node30"><a xlink:href="nonstd_8h.html" target="_top" xlink:title=" ">
<polygon fill="white" stroke="black" points="747,-56.5 747,-75.5 837,-75.5 837,-56.5 747,-56.5"/>
<text text-anchor="middle" x="792" y="-63.5" font-family="Helvetica,sans-Serif" font-size="10.00">ccf/ds/nonstd.h</text>
</a>
</g>
</g>
<!-- Node23&#45;&gt;Node30 -->
<g id="edge34" class="edge">
<title>Node23&#45;&gt;Node30</title>
<path fill="none" stroke="midnightblue" d="M801.87,-168.41C796.94,-159.61 789.84,-145.38 787,-132 783.73,-116.59 785.49,-98.71 787.79,-85.62"/>
<polygon fill="midnightblue" stroke="midnightblue" points="791.28,-86.01 789.82,-75.52 784.41,-84.63 791.28,-86.01"/>
</g>
<!-- Node33 -->
<g id="node33" class="node">
<title>Node33</title>
<g id="a_node33"><a xlink:title=" ">
<polygon fill="white" stroke="#bfbfbf" points="770,-0.5 770,-19.5 814,-19.5 814,-0.5 770,-0.5"/>
<text text-anchor="middle" x="792" y="-7.5" font-family="Helvetica,sans-Serif" font-size="10.00">string</text>
</a>
</g>
</g>
<!-- Node23&#45;&gt;Node33 -->
<g id="edge57" class="edge">
<title>Node23&#45;&gt;Node33</title>
<path fill="none" stroke="midnightblue" d="M820.21,-168.49C840.09,-155.78 879,-131.26 913,-112 943.09,-94.95 964.07,-105.58 982,-76 986.61,-68.4 987.55,-62.94 982,-56 938.72,-1.82 896.91,-34.96 824.28,-19.97"/>
<polygon fill="midnightblue" stroke="midnightblue" points="824.84,-16.51 814.31,-17.65 823.25,-23.33 824.84,-16.51"/>
</g>
<!-- Node35 -->
<g id="node35" class="node">
<title>Node35</title>
<g id="a_node35"><a xlink:href="serializer_8h.html" target="_top" xlink:title=" ">
<polygon fill="white" stroke="black" points="796,-112.5 796,-131.5 866,-131.5 866,-112.5 796,-112.5"/>
<text text-anchor="middle" x="831" y="-119.5" font-family="Helvetica,sans-Serif" font-size="10.00">serializer.h</text>
</a>
</g>
</g>
<!-- Node23&#45;&gt;Node35 -->
<g id="edge42" class="edge">
<title>Node23&#45;&gt;Node35</title>
<path fill="none" stroke="midnightblue" d="M810.96,-168.08C814.21,-160.77 818.92,-150.18 822.95,-141.1"/>
<polygon fill="midnightblue" stroke="midnightblue" points="826.25,-142.31 827.11,-131.75 819.85,-139.47 826.25,-142.31"/>
</g>
<!-- Node23&#45;&gt;Node40 -->
<g id="edge54" class="edge">
<title>Node23&#45;&gt;Node40</title>
<path fill="none" stroke="midnightblue" d="M829.18,-168.44C852.43,-159.48 889.15,-145.31 915.42,-135.18"/>
<polygon fill="midnightblue" stroke="midnightblue" points="916.85,-138.38 924.92,-131.52 914.33,-131.85 916.85,-138.38"/>
</g>
<!-- Node24&#45;&gt;Node19 -->
<g id="edge31" class="edge">
<title>Node24&#45;&gt;Node19</title>
<path fill="none" stroke="midnightblue" d="M357.63,-116.88C308.97,-110.99 231.51,-98.31 214,-76 203.38,-62.47 209.6,-42.57 216.61,-28.36"/>
<polygon fill="midnightblue" stroke="midnightblue" points="219.68,-30.04 221.39,-19.58 213.53,-26.69 219.68,-30.04"/>
</g>
<!-- Node25 -->
<g id="node25" class="node">
<title>Node25</title>
<g id="a_node25"><a xlink:href="siphash_8h.html" target="_top" xlink:title=" ">
<polygon fill="white" stroke="black" points="223.5,-56.5 223.5,-75.5 318.5,-75.5 318.5,-56.5 223.5,-56.5"/>
<text text-anchor="middle" x="271" y="-63.5" font-family="Helvetica,sans-Serif" font-size="10.00">ccf/ds/siphash.h</text>
</a>
</g>
</g>
<!-- Node24&#45;&gt;Node25 -->
<g id="edge26" class="edge">
<title>Node24&#45;&gt;Node25</title>
<path fill="none" stroke="midnightblue" d="M377.88,-112.44C356.98,-103.56 324.07,-89.56 300.28,-79.45"/>
<polygon fill="midnightblue" stroke="midnightblue" points="301.6,-76.21 291.03,-75.52 298.86,-82.65 301.6,-76.21"/>
</g>
<!-- Node24&#45;&gt;Node27 -->
<g id="edge33" class="edge">
<title>Node24&#45;&gt;Node27</title>
<path fill="none" stroke="midnightblue" d="M438.15,-113.62C466.24,-107.06 503.66,-95.42 532,-76 550.27,-63.48 565.76,-43.13 575.41,-28.53"/>
<polygon fill="midnightblue" stroke="midnightblue" points="578.48,-30.23 580.87,-19.91 572.56,-26.49 578.48,-30.23"/>
</g>
<!-- Node28 -->
<g id="node28" class="node">
<title>Node28</title>
<g id="a_node28"><a xlink:title=" ">
<polygon fill="white" stroke="#bfbfbf" points="628,-0.5 628,-19.5 670,-19.5 670,-0.5 628,-0.5"/>
<text text-anchor="middle" x="649" y="-7.5" font-family="Helvetica,sans-Serif" font-size="10.00">array</text>
</a>
</g>
</g>
<!-- Node24&#45;&gt;Node28 -->
<g id="edge30" class="edge">
<title>Node24&#45;&gt;Node28</title>
<path fill="none" stroke="midnightblue" d="M387.54,-112.21C372.95,-98.91 349.9,-73.4 365,-56 402.22,-13.11 562.48,-31.95 618,-20 618.1,-19.98 618.2,-19.96 618.3,-19.94"/>
<polygon fill="midnightblue" stroke="midnightblue" points="618.89,-23.4 627.76,-17.6 617.21,-16.6 618.89,-23.4"/>
</g>
<!-- Node29 -->
<g id="node29" class="node">
<title>Node29</title>
<g id="a_node29"><a xlink:title=" ">
<polygon fill="white" stroke="#bfbfbf" points="374.5,-56.5 374.5,-75.5 523.5,-75.5 523.5,-56.5 374.5,-56.5"/>
<text text-anchor="middle" x="449" y="-63.5" font-family="Helvetica,sans-Serif" font-size="10.00">small_vector/SmallVector.h</text>
</a>
</g>
</g>
<!-- Node24&#45;&gt;Node29 -->
<g id="edge32" class="edge">
<title>Node24&#45;&gt;Node29</title>
<path fill="none" stroke="midnightblue" d="M406.42,-112.08C413.85,-104.22 424.85,-92.57 433.81,-83.08"/>
<polygon fill="midnightblue" stroke="midnightblue" points="436.41,-85.42 440.74,-75.75 431.32,-80.62 436.41,-85.42"/>
</g>
<!-- Node25&#45;&gt;Node19 -->
<g id="edge28" class="edge">
<title>Node25&#45;&gt;Node19</title>
<path fill="none" stroke="midnightblue" d="M263.73,-56.08C257.46,-48.38 248.21,-37.03 240.57,-27.65"/>
<polygon fill="midnightblue" stroke="midnightblue" points="243.16,-25.29 234.13,-19.75 237.73,-29.71 243.16,-25.29"/>
</g>
<!-- Node26 -->
<g id="node26" class="node">
<title>Node26</title>
<g id="a_node26"><a xlink:title=" ">
<polygon fill="white" stroke="#bfbfbf" points="270.5,-0.5 270.5,-19.5 323.5,-19.5 323.5,-0.5 270.5,-0.5"/>
<text text-anchor="middle" x="297" y="-7.5" font-family="Helvetica,sans-Serif" font-size="10.00">cstddef</text>
</a>
</g>
</g>
<!-- Node25&#45;&gt;Node26 -->
<g id="edge27" class="edge">
<title>Node25&#45;&gt;Node26</title>
<path fill="none" stroke="midnightblue" d="M275.29,-56.08C278.85,-48.69 284.02,-37.95 288.42,-28.81"/>
<polygon fill="midnightblue" stroke="midnightblue" points="291.6,-30.28 292.79,-19.75 285.29,-27.24 291.6,-30.28"/>
</g>
<!-- Node25&#45;&gt;Node27 -->
<g id="edge29" class="edge">
<title>Node25&#45;&gt;Node27</title>
<path fill="none" stroke="midnightblue" d="M318.84,-56.8C383.19,-45.77 496.03,-26.42 552.22,-16.79"/>
<polygon fill="midnightblue" stroke="midnightblue" points="553.09,-20.19 562.35,-15.05 551.9,-13.29 553.09,-20.19"/>
</g>
<!-- Node30&#45;&gt;Node16 -->
<g id="edge40" class="edge">
<title>Node30&#45;&gt;Node16</title>
<path fill="none" stroke="midnightblue" d="M837.08,-57.48C840.1,-56.98 843.09,-56.48 846,-56 940.18,-40.41 966.37,-38.24 1063.36,-20.25"/>
<polygon fill="midnightblue" stroke="midnightblue" points="1064.1,-23.67 1073.29,-18.4 1062.82,-16.79 1064.1,-23.67"/>
</g>
<!-- Node30&#45;&gt;Node27 -->
<g id="edge41" class="edge">
<title>Node30&#45;&gt;Node27</title>
<path fill="none" stroke="midnightblue" d="M758.8,-56.49C725.93,-48.03 673.9,-34.58 619.59,-20.13"/>
<polygon fill="midnightblue" stroke="midnightblue" points="620.35,-16.71 609.78,-17.52 618.55,-23.48 620.35,-16.71"/>
</g>
<!-- Node30&#45;&gt;Node28 -->
<g id="edge36" class="edge">
<title>Node30&#45;&gt;Node28</title>
<path fill="none" stroke="midnightblue" d="M769.34,-56.44C745.18,-47.32 706.76,-32.81 679.85,-22.65"/>
<polygon fill="midnightblue" stroke="midnightblue" points="680.75,-19.25 670.15,-18.99 678.27,-25.8 680.75,-19.25"/>
</g>
<!-- Node31 -->
<g id="node31" class="node">
<title>Node31</title>
<g id="a_node31"><a xlink:title=" ">
<polygon fill="white" stroke="#bfbfbf" points="688,-0.5 688,-19.5 752,-19.5 752,-0.5 688,-0.5"/>
<text text-anchor="middle" x="720" y="-7.5" font-family="Helvetica,sans-Serif" font-size="10.00">algorithm</text>
</a>
</g>
</g>
<!-- Node30&#45;&gt;Node31 -->
<g id="edge35" class="edge">
<title>Node30&#45;&gt;Node31</title>
<path fill="none" stroke="midnightblue" d="M780.43,-56.32C769.58,-48.18 753.12,-35.84 740.12,-26.09"/>
<polygon fill="midnightblue" stroke="midnightblue" points="741.88,-23.03 731.78,-19.83 737.68,-28.63 741.88,-23.03"/>
</g>
<!-- Node32 -->
<g id="node32" class="node">
<title>Node32</title>
<g id="a_node32"><a xlink:title=" ">
<polygon fill="white" stroke="#bfbfbf" points="915.5,-0.5 915.5,-19.5 964.5,-19.5 964.5,-0.5 915.5,-0.5"/>
<text text-anchor="middle" x="940" y="-7.5" font-family="Helvetica,sans-Serif" font-size="10.00">cctype</text>
</a>
</g>
</g>
<!-- Node30&#45;&gt;Node32 -->
<g id="edge37" class="edge">
<title>Node30&#45;&gt;Node32</title>
<path fill="none" stroke="midnightblue" d="M815.45,-56.44C840.13,-47.44 879.19,-33.19 906.98,-23.05"/>
<polygon fill="midnightblue" stroke="midnightblue" points="908.46,-26.23 916.66,-19.52 906.06,-19.66 908.46,-26.23"/>
</g>
<!-- Node30&#45;&gt;Node33 -->
<g id="edge38" class="edge">
<title>Node30&#45;&gt;Node33</title>
<path fill="none" stroke="midnightblue" d="M792,-56.08C792,-49.01 792,-38.86 792,-29.99"/>
<polygon fill="midnightblue" stroke="midnightblue" points="795.5,-29.75 792,-19.75 788.5,-29.75 795.5,-29.75"/>
</g>
<!-- Node34 -->
<g id="node34" class="node">
<title>Node34</title>
<g id="a_node34"><a xlink:title=" ">
<polygon fill="white" stroke="#bfbfbf" points="982.5,-0.5 982.5,-19.5 1055.5,-19.5 1055.5,-0.5 982.5,-0.5"/>
<text text-anchor="middle" x="1019" y="-7.5" font-family="Helvetica,sans-Serif" font-size="10.00">string_view</text>
</a>
</g>
</g>
<!-- Node30&#45;&gt;Node34 -->
<g id="edge39" class="edge">
<title>Node30&#45;&gt;Node34</title>
<path fill="none" stroke="midnightblue" d="M827.97,-56.44C867.32,-47.08 930.49,-32.06 973.31,-21.87"/>
<polygon fill="midnightblue" stroke="midnightblue" points="974.28,-25.24 983.2,-19.52 972.66,-18.43 974.28,-25.24"/>
</g>
<!-- Node35&#45;&gt;Node16 -->
<g id="edge52" class="edge">
<title>Node35&#45;&gt;Node16</title>
<path fill="none" stroke="midnightblue" d="M866.11,-112.52C897.13,-104.57 943.31,-91.59 982,-76 1019.25,-60.99 1060.2,-38.71 1085,-24.53"/>
<polygon fill="midnightblue" stroke="midnightblue" points="1086.77,-27.55 1093.68,-19.52 1083.26,-21.49 1086.77,-27.55"/>
</g>
<!-- Node35&#45;&gt;Node27 -->
<g id="edge53" class="edge">
<title>Node35&#45;&gt;Node27</title>
<path fill="none" stroke="midnightblue" d="M813.11,-112.5C794.34,-103.54 764.01,-88.96 738,-76 720.56,-67.31 716.74,-64.06 699,-56 672.37,-43.9 641.48,-31.72 618.73,-23.09"/>
<polygon fill="midnightblue" stroke="midnightblue" points="619.8,-19.75 609.21,-19.5 617.33,-26.31 619.8,-19.75"/>
</g>
<!-- Node35&#45;&gt;Node30 -->
<g id="edge43" class="edge">
<title>Node35&#45;&gt;Node30</title>
<path fill="none" stroke="midnightblue" d="M824.56,-112.08C819.05,-104.46 810.97,-93.26 804.24,-83.94"/>
<polygon fill="midnightblue" stroke="midnightblue" points="807.01,-81.81 798.32,-75.75 801.34,-85.91 807.01,-81.81"/>
</g>
<!-- Node35&#45;&gt;Node36 -->
<g id="edge44" class="edge">
<title>Node35&#45;&gt;Node36</title>
<path fill="none" stroke="midnightblue" d="M802.95,-112.44C772.92,-103.28 725.09,-88.69 691.76,-78.52"/>
<polygon fill="midnightblue" stroke="midnightblue" points="692.5,-75.09 681.91,-75.52 690.46,-81.78 692.5,-75.09"/>
</g>
<!-- Node38 -->
<g id="node38" class="node">
<title>Node38</title>
<g id="a_node38"><a xlink:title=" ">
<polygon fill="white" stroke="#bfbfbf" points="855,-56.5 855,-75.5 913,-75.5 913,-56.5 855,-56.5"/>
<text text-anchor="middle" x="884" y="-63.5" font-family="Helvetica,sans-Serif" font-size="10.00">memory</text>
</a>
</g>
</g>
<!-- Node35&#45;&gt;Node38 -->
<g id="edge50" class="edge">
<title>Node35&#45;&gt;Node38</title>
<path fill="none" stroke="midnightblue" d="M839.75,-112.08C847.47,-104.22 858.9,-92.57 868.22,-83.08"/>
<polygon fill="midnightblue" stroke="midnightblue" points="870.9,-85.34 875.41,-75.75 865.91,-80.44 870.9,-85.34"/>
</g>
<!-- Node39 -->
<g id="node39" class="node">
<title>Node39</title>
<g id="a_node39"><a xlink:title=" ">
<polygon fill="white" stroke="#bfbfbf" points="931.5,-56.5 931.5,-75.5 972.5,-75.5 972.5,-56.5 931.5,-56.5"/>
<text text-anchor="middle" x="952" y="-63.5" font-family="Helvetica,sans-Serif" font-size="10.00">tuple</text>
</a>
</g>
</g>
<!-- Node35&#45;&gt;Node39 -->
<g id="edge51" class="edge">
<title>Node35&#45;&gt;Node39</title>
<path fill="none" stroke="midnightblue" d="M850.17,-112.44C869.91,-103.64 900.89,-89.81 923.49,-79.72"/>
<polygon fill="midnightblue" stroke="midnightblue" points="925.21,-82.79 932.92,-75.52 922.36,-76.4 925.21,-82.79"/>
</g>
<!-- Node36&#45;&gt;Node19 -->
<g id="edge45" class="edge">
<title>Node36&#45;&gt;Node19</title>
<path fill="none" stroke="midnightblue" d="M617.43,-62.59C549.37,-57.72 398.51,-45.13 262.35,-20"/>
<polygon fill="midnightblue" stroke="midnightblue" points="262.63,-16.5 252.16,-18.09 261.34,-23.38 262.63,-16.5"/>
</g>
<!-- Node36&#45;&gt;Node21 -->
<g id="edge46" class="edge">
<title>Node36&#45;&gt;Node21</title>
<path fill="none" stroke="midnightblue" d="M617.44,-62.2C526.66,-55.13 291.82,-36.07 194.25,-19.9"/>
<polygon fill="midnightblue" stroke="midnightblue" points="194.6,-16.41 184.15,-18.14 193.4,-23.3 194.6,-16.41"/>
</g>
<!-- Node36&#45;&gt;Node27 -->
<g id="edge49" class="edge">
<title>Node36&#45;&gt;Node27</title>
<path fill="none" stroke="midnightblue" d="M643.07,-56.32C632.83,-48.18 617.28,-35.84 605,-26.09"/>
<polygon fill="midnightblue" stroke="midnightblue" points="607.13,-23.31 597.12,-19.83 602.78,-28.79 607.13,-23.31"/>
</g>
<!-- Node36&#45;&gt;Node33 -->
<g id="edge48" class="edge">
<title>Node36&#45;&gt;Node33</title>
<path fill="none" stroke="midnightblue" d="M675.87,-56.44C698.78,-47.48 734.98,-33.31 760.87,-23.18"/>
<polygon fill="midnightblue" stroke="midnightblue" points="762.2,-26.42 770.24,-19.52 759.65,-19.9 762.2,-26.42"/>
</g>
<!-- Node36&#45;&gt;Node37 -->
<g id="edge47" class="edge">
<title>Node36&#45;&gt;Node37</title>
<path fill="none" stroke="midnightblue" d="M687.43,-56.44C723.99,-47.09 782.67,-32.07 822.48,-21.88"/>
<polygon fill="midnightblue" stroke="midnightblue" points="823.6,-25.21 832.42,-19.34 821.86,-18.43 823.6,-25.21"/>
</g>
</g>
</svg>
        <g id="navigator" transform="translate(0 0)" fill="#404254">
                <rect fill="#f2f5e9" fill-opacity="0.5" stroke="#606060" stroke-width=".5" x="0" y="0" width="60" height="60"/>
                <use id="zoomplus" xlink:href="#zoomPlus" x="17" y="9" onmousedown="handleZoom(evt,'in')"/>
                <use id="zoomminus" xlink:href="#zoomMin" x="42" y="9" onmousedown="handleZoom(evt,'out')"/>
                <use id="reset" xlink:href="#resetDef" x="30" y="36" onmousedown="handleReset()"/>
                <g id="arrowUp" xlink:href="#dirArrow" transform="translate(30 24)" onmousedown="handlePan(0,-1)">
                  <use xlink:href="#rim" fill="#404040">
                        <set attributeName="fill" to="#808080" begin="arrowUp.mouseover" end="arrowUp.mouseout"/>
                  </use>
                  <path fill="none" stroke="white" stroke-width="1.5" d="M0,-3.0v7 M-2.5,-0.5L0,-3.0L2.5,-0.5"/>
                </g>
                <g id="arrowRight" xlink:href="#dirArrow" transform="rotate(90) translate(36 -43)" onmousedown="handlePan(1,0)">
                  <use xlink:href="#rim" fill="#404040">
                        <set attributeName="fill" to="#808080" begin="arrowRight.mouseover" end="arrowRight.mouseout"/>
                  </use>
                  <path fill="none" stroke="white" stroke-width="1.5" d="M0,-3.0v7 M-2.5,-0.5L0,-3.0L2.5,-0.5"/>
                </g>
                <g id="arrowDown" xlink:href="#dirArrow" transform="rotate(180) translate(-30 -48)" onmousedown="handlePan(0,1)">
                  <use xlink:href="#rim" fill="#404040">
                        <set attributeName="fill" to="#808080" begin="arrowDown.mouseover" end="arrowDown.mouseout"/>
                  </use>
                  <path fill="none" stroke="white" stroke-width="1.5" d="M0,-3.0v7 M-2.5,-0.5L0,-3.0L2.5,-0.5"/>
                </g>
                <g id="arrowLeft" xlink:href="#dirArrow" transform="rotate(270) translate(-36 17)" onmousedown="handlePan(-1,0)">
                  <use xlink:href="#rim" fill="#404040">
                        <set attributeName="fill" to="#808080" begin="arrowLeft.mouseover" end="arrowLeft.mouseout"/>
                  </use>
                  <path fill="none" stroke="white" stroke-width="1.5" d="M0,-3.0v7 M-2.5,-0.5L0,-3.0L2.5,-0.5"/>
                </g>
        </g>
        <svg viewBox="0 0 15 15" width="100%" height="30px" preserveAspectRatio="xMaxYMin meet">
         <g id="arrow_out" transform="scale(0.3 0.3)">
          <a xlink:href="oversized_8h__incl_org.svg" target="_base">
           <rect id="button" ry="5" rx="5" y="6" x="6" height="38" width="38"
                fill="#f2f5e9" fill-opacity="0.5" stroke="#606060" stroke-width="1.0"/>
           <path id="arrow"
             d="M 11.500037,31.436501 C 11.940474,20.09759 22.043105,11.32322 32.158766,21.979434 L 37.068811,17.246167 C 37.068811,17.246167 37.088388,32 37.088388,32 L 22.160133,31.978069 C 22.160133,31.978069 26.997745,27.140456 26.997745,27.140456 C 18.528582,18.264221 13.291696,25.230495 11.500037,31.436501 z"
             style="fill:#404040;"/>
          </a>
         </g>
        </svg>
</svg>
