<?xml version="1.0" encoding="UTF-8" standalone="no"?>
<!DOCTYPE svg PUBLIC "-//W3C//DTD SVG 1.1//EN"
 "http://www.w3.org/Graphics/SVG/1.1/DTD/svg11.dtd">
<!-- Generated by graphviz version 2.43.0 (0)
 -->
<!-- Title: src/host/process_launcher.h Pages: 1 -->
<svg width="1688pt" height="476pt"
 viewBox="0.00 0.00 1687.50 476.00" xmlns="http://www.w3.org/2000/svg" xmlns:xlink="http://www.w3.org/1999/xlink">
<g id="graph0" class="graph" transform="scale(1 1) rotate(0) translate(4 472)">
<title>src/host/process_launcher.h</title>
<polygon fill="white" stroke="transparent" points="-4,4 -4,-472 1683.5,-472 1683.5,4 -4,4"/>
<!-- Node1 -->
<g id="node1" class="node">
<title>Node1</title>
<g id="a_node1"><a xlink:title=" ">
<polygon fill="#bfbfbf" stroke="black" points="1320.5,-448.5 1320.5,-467.5 1471.5,-467.5 1471.5,-448.5 1320.5,-448.5"/>
<text text-anchor="middle" x="1396" y="-455.5" font-family="Helvetica,sans-Serif" font-size="10.00">src/host/process_launcher.h</text>
</a>
</g>
</g>
<!-- Node2 -->
<g id="node2" class="node">
<title>Node2</title>
<g id="a_node2"><a xlink:href="messaging_8h.html" target="_top" xlink:title=" ">
<polygon fill="white" stroke="black" points="953.5,-280.5 953.5,-299.5 1046.5,-299.5 1046.5,-280.5 953.5,-280.5"/>
<text text-anchor="middle" x="1000" y="-287.5" font-family="Helvetica,sans-Serif" font-size="10.00">ds/messaging.h</text>
</a>
</g>
</g>
<!-- Node1&#45;&gt;Node2 -->
<g id="edge1" class="edge">
<title>Node1&#45;&gt;Node2</title>
<path fill="none" stroke="midnightblue" d="M1344.84,-448.46C1307.25,-441.24 1255.38,-429.29 1212,-412 1137.6,-382.35 1057.51,-330.53 1020.68,-305.44"/>
<polygon fill="midnightblue" stroke="midnightblue" points="1022.5,-302.44 1012.28,-299.66 1018.54,-308.21 1022.5,-302.44"/>
</g>
<!-- Node43 -->
<g id="node43" class="node">
<title>Node43</title>
<g id="a_node43"><a xlink:href="interface_8h.html" target="_top" xlink:title=" ">
<polygon fill="white" stroke="black" points="1221,-392.5 1221,-411.5 1331,-411.5 1331,-392.5 1221,-392.5"/>
<text text-anchor="middle" x="1276" y="-399.5" font-family="Helvetica,sans-Serif" font-size="10.00">enclave/interface.h</text>
</a>
</g>
</g>
<!-- Node1&#45;&gt;Node43 -->
<g id="edge65" class="edge">
<title>Node1&#45;&gt;Node43</title>
<path fill="none" stroke="midnightblue" d="M1376.99,-448.44C1357.41,-439.64 1326.69,-425.81 1304.27,-415.72"/>
<polygon fill="midnightblue" stroke="midnightblue" points="1305.48,-412.43 1294.93,-411.52 1302.61,-418.81 1305.48,-412.43"/>
</g>
<!-- Node45 -->
<g id="node45" class="node">
<title>Node45</title>
<g id="a_node45"><a xlink:title=" ">
<polygon fill="white" stroke="#bfbfbf" points="1405.5,-280.5 1405.5,-299.5 1498.5,-299.5 1498.5,-280.5 1405.5,-280.5"/>
<text text-anchor="middle" x="1452" y="-287.5" font-family="Helvetica,sans-Serif" font-size="10.00">unordered_map</text>
</a>
</g>
</g>
<!-- Node1&#45;&gt;Node45 -->
<g id="edge77" class="edge">
<title>Node1&#45;&gt;Node45</title>
<path fill="none" stroke="midnightblue" d="M1399.01,-448.08C1407.86,-421.83 1433.94,-344.55 1445.89,-309.12"/>
<polygon fill="midnightblue" stroke="midnightblue" points="1449.23,-310.16 1449.11,-299.57 1442.6,-307.92 1449.23,-310.16"/>
</g>
<!-- Node46 -->
<g id="node46" class="node">
<title>Node46</title>
<g id="a_node46"><a xlink:title=" ">
<polygon fill="white" stroke="#bfbfbf" points="1338,-336.5 1338,-355.5 1388,-355.5 1388,-336.5 1338,-336.5"/>
<text text-anchor="middle" x="1363" y="-343.5" font-family="Helvetica,sans-Serif" font-size="10.00">chrono</text>
</a>
</g>
</g>
<!-- Node1&#45;&gt;Node46 -->
<g id="edge75" class="edge">
<title>Node1&#45;&gt;Node46</title>
<path fill="none" stroke="midnightblue" d="M1393.41,-448.37C1388.06,-430.54 1375.69,-389.3 1368.48,-365.27"/>
<polygon fill="midnightblue" stroke="midnightblue" points="1371.8,-364.16 1365.58,-355.59 1365.1,-366.18 1371.8,-364.16"/>
</g>
<!-- Node47 -->
<g id="node47" class="node">
<title>Node47</title>
<g id="a_node47"><a xlink:title=" ">
<polygon fill="white" stroke="#bfbfbf" points="1444.5,-392.5 1444.5,-411.5 1491.5,-411.5 1491.5,-392.5 1444.5,-392.5"/>
<text text-anchor="middle" x="1468" y="-399.5" font-family="Helvetica,sans-Serif" font-size="10.00">queue</text>
</a>
</g>
</g>
<!-- Node1&#45;&gt;Node47 -->
<g id="edge76" class="edge">
<title>Node1&#45;&gt;Node47</title>
<path fill="none" stroke="midnightblue" d="M1407.57,-448.32C1418.42,-440.18 1434.88,-427.84 1447.88,-418.09"/>
<polygon fill="midnightblue" stroke="midnightblue" points="1450.32,-420.63 1456.22,-411.83 1446.12,-415.03 1450.32,-420.63"/>
</g>
<!-- Node48 -->
<g id="node48" class="node">
<title>Node48</title>
<g id="a_node48"><a xlink:title=" ">
<polygon fill="white" stroke="#bfbfbf" points="1509.5,-392.5 1509.5,-411.5 1546.5,-411.5 1546.5,-392.5 1509.5,-392.5"/>
<text text-anchor="middle" x="1528" y="-399.5" font-family="Helvetica,sans-Serif" font-size="10.00">uv.h</text>
</a>
</g>
</g>
<!-- Node1&#45;&gt;Node48 -->
<g id="edge78" class="edge">
<title>Node1&#45;&gt;Node48</title>
<path fill="none" stroke="midnightblue" d="M1416.92,-448.44C1439.38,-439.25 1475.19,-424.61 1500.05,-414.43"/>
<polygon fill="midnightblue" stroke="midnightblue" points="1501.39,-417.67 1509.32,-410.64 1498.74,-411.19 1501.39,-417.67"/>
</g>
<!-- Node3 -->
<g id="node3" class="node">
<title>Node3</title>
<g id="a_node3"><a xlink:href="logger_8h.html" target="_top" xlink:title=" ">
<polygon fill="white" stroke="black" points="470.5,-224.5 470.5,-243.5 557.5,-243.5 557.5,-224.5 470.5,-224.5"/>
<text text-anchor="middle" x="514" y="-231.5" font-family="Helvetica,sans-Serif" font-size="10.00">ccf/ds/logger.h</text>
</a>
</g>
</g>
<!-- Node2&#45;&gt;Node3 -->
<g id="edge2" class="edge">
<title>Node2&#45;&gt;Node3</title>
<path fill="none" stroke="midnightblue" d="M953.4,-283.82C862.85,-273.76 663.65,-251.63 567.71,-240.97"/>
<polygon fill="midnightblue" stroke="midnightblue" points="567.97,-237.48 557.65,-239.85 567.2,-244.43 567.97,-237.48"/>
</g>
<!-- Node9 -->
<g id="node9" class="node">
<title>Node9</title>
<g id="a_node9"><a xlink:title=" ">
<polygon fill="white" stroke="#bfbfbf" points="0,-112.5 0,-131.5 38,-131.5 38,-112.5 0,-112.5"/>
<text text-anchor="middle" x="19" y="-119.5" font-family="Helvetica,sans-Serif" font-size="10.00">map</text>
</a>
</g>
</g>
<!-- Node2&#45;&gt;Node9 -->
<g id="edge63" class="edge">
<title>Node2&#45;&gt;Node9</title>
<path fill="none" stroke="midnightblue" d="M953.38,-287.18C770.43,-279.61 108.22,-248.24 38,-188 24.77,-176.65 20.49,-156.66 19.23,-141.83"/>
<polygon fill="midnightblue" stroke="midnightblue" points="22.73,-141.55 18.76,-131.73 15.73,-141.88 22.73,-141.55"/>
</g>
<!-- Node17 -->
<g id="node17" class="node">
<title>Node17</title>
<g id="a_node17"><a xlink:href="ring__buffer_8h.html" target="_top" xlink:title=" ">
<polygon fill="white" stroke="black" points="1367.5,-224.5 1367.5,-243.5 1444.5,-243.5 1444.5,-224.5 1367.5,-224.5"/>
<text text-anchor="middle" x="1406" y="-231.5" font-family="Helvetica,sans-Serif" font-size="10.00">ring_buffer.h</text>
</a>
</g>
</g>
<!-- Node2&#45;&gt;Node17 -->
<g id="edge18" class="edge">
<title>Node2&#45;&gt;Node17</title>
<path fill="none" stroke="midnightblue" d="M1046.57,-282.81C1124.02,-272.51 1278.52,-251.95 1357.33,-241.47"/>
<polygon fill="midnightblue" stroke="midnightblue" points="1358.02,-244.91 1367.48,-240.12 1357.1,-237.97 1358.02,-244.91"/>
</g>
<!-- Node37 -->
<g id="node37" class="node">
<title>Node37</title>
<g id="a_node37"><a xlink:title=" ">
<polygon fill="white" stroke="#bfbfbf" points="1409.5,-0.5 1409.5,-19.5 1474.5,-19.5 1474.5,-0.5 1409.5,-0.5"/>
<text text-anchor="middle" x="1442" y="-7.5" font-family="Helvetica,sans-Serif" font-size="10.00">stdexcept</text>
</a>
</g>
</g>
<!-- Node2&#45;&gt;Node37 -->
<g id="edge64" class="edge">
<title>Node2&#45;&gt;Node37</title>
<path fill="none" stroke="midnightblue" d="M1028.38,-280.45C1121.44,-251.78 1414.37,-156.36 1466,-76 1475.71,-60.89 1465.93,-41.3 1456.09,-27.59"/>
<polygon fill="midnightblue" stroke="midnightblue" points="1458.73,-25.28 1449.82,-19.54 1453.2,-29.58 1458.73,-25.28"/>
</g>
<!-- Node40 -->
<g id="node40" class="node">
<title>Node40</title>
<g id="a_node40"><a xlink:title=" ">
<polygon fill="white" stroke="#bfbfbf" points="1088,-112.5 1088,-131.5 1138,-131.5 1138,-112.5 1088,-112.5"/>
<text text-anchor="middle" x="1113" y="-119.5" font-family="Helvetica,sans-Serif" font-size="10.00">atomic</text>
</a>
</g>
</g>
<!-- Node2&#45;&gt;Node40 -->
<g id="edge61" class="edge">
<title>Node2&#45;&gt;Node40</title>
<path fill="none" stroke="midnightblue" d="M1013.65,-280.38C1025.74,-272.19 1043.26,-258.94 1055,-244 1080.45,-211.61 1098.42,-166.23 1107.09,-141.27"/>
<polygon fill="midnightblue" stroke="midnightblue" points="1110.46,-142.22 1110.33,-131.63 1103.83,-140 1110.46,-142.22"/>
</g>
<!-- Node42 -->
<g id="node42" class="node">
<title>Node42</title>
<g id="a_node42"><a xlink:title=" ">
<polygon fill="white" stroke="#bfbfbf" points="939.5,-224.5 939.5,-243.5 1046.5,-243.5 1046.5,-224.5 939.5,-224.5"/>
<text text-anchor="middle" x="993" y="-231.5" font-family="Helvetica,sans-Serif" font-size="10.00">condition_variable</text>
</a>
</g>
</g>
<!-- Node2&#45;&gt;Node42 -->
<g id="edge62" class="edge">
<title>Node2&#45;&gt;Node42</title>
<path fill="none" stroke="midnightblue" d="M998.84,-280.08C997.92,-272.93 996.58,-262.64 995.42,-253.69"/>
<polygon fill="midnightblue" stroke="midnightblue" points="998.89,-253.22 994.13,-243.75 991.95,-254.12 998.89,-253.22"/>
</g>
<!-- Node4 -->
<g id="node4" class="node">
<title>Node4</title>
<g id="a_node4"><a xlink:href="enum__formatter_8h.html" target="_top" xlink:title=" ">
<polygon fill="white" stroke="black" points="588,-168.5 588,-187.5 724,-187.5 724,-168.5 588,-168.5"/>
<text text-anchor="middle" x="656" y="-175.5" font-family="Helvetica,sans-Serif" font-size="10.00">ccf/ds/enum_formatter.h</text>
</a>
</g>
</g>
<!-- Node3&#45;&gt;Node4 -->
<g id="edge3" class="edge">
<title>Node3&#45;&gt;Node4</title>
<path fill="none" stroke="midnightblue" d="M536.5,-224.44C560.08,-215.48 597.32,-201.31 623.96,-191.18"/>
<polygon fill="midnightblue" stroke="midnightblue" points="625.5,-194.34 633.6,-187.52 623.01,-187.8 625.5,-194.34"/>
</g>
<!-- Node5 -->
<g id="node5" class="node">
<title>Node5</title>
<g id="a_node5"><a xlink:title=" ">
<polygon fill="white" stroke="#bfbfbf" points="508.5,-112.5 508.5,-131.5 587.5,-131.5 587.5,-112.5 508.5,-112.5"/>
<text text-anchor="middle" x="548" y="-119.5" font-family="Helvetica,sans-Serif" font-size="10.00">fmt/format.h</text>
</a>
</g>
</g>
<!-- Node3&#45;&gt;Node5 -->
<g id="edge12" class="edge">
<title>Node3&#45;&gt;Node5</title>
<path fill="none" stroke="midnightblue" d="M510.07,-224.25C504.92,-211.44 497.37,-187.03 505,-168 509.68,-156.33 518.99,-145.97 527.76,-138.14"/>
<polygon fill="midnightblue" stroke="midnightblue" points="530.05,-140.78 535.5,-131.7 525.58,-135.4 530.05,-140.78"/>
</g>
<!-- Node6 -->
<g id="node6" class="node">
<title>Node6</title>
<g id="a_node6"><a xlink:href="thread__ids_8h.html" target="_top" xlink:title=" ">
<polygon fill="white" stroke="black" points="47,-168.5 47,-187.5 155,-187.5 155,-168.5 47,-168.5"/>
<text text-anchor="middle" x="101" y="-175.5" font-family="Helvetica,sans-Serif" font-size="10.00">ccf/ds/thread_ids.h</text>
</a>
</g>
</g>
<!-- Node3&#45;&gt;Node6 -->
<g id="edge5" class="edge">
<title>Node3&#45;&gt;Node6</title>
<path fill="none" stroke="midnightblue" d="M470.32,-227.58C405.94,-219.56 281.49,-203.87 165.42,-188.18"/>
<polygon fill="midnightblue" stroke="midnightblue" points="165.67,-184.68 155.29,-186.8 164.73,-191.62 165.67,-184.68"/>
</g>
<!-- Node11 -->
<g id="node11" class="node">
<title>Node11</title>
<g id="a_node11"><a xlink:title=" ">
<polygon fill="white" stroke="#bfbfbf" points="173.5,-168.5 173.5,-187.5 252.5,-187.5 252.5,-168.5 173.5,-168.5"/>
<text text-anchor="middle" x="213" y="-175.5" font-family="Helvetica,sans-Serif" font-size="10.00">fmt/chrono.h</text>
</a>
</g>
</g>
<!-- Node3&#45;&gt;Node11 -->
<g id="edge11" class="edge">
<title>Node3&#45;&gt;Node11</title>
<path fill="none" stroke="midnightblue" d="M470.1,-225.32C421.7,-216.82 341.23,-202.61 262.62,-188.28"/>
<polygon fill="midnightblue" stroke="midnightblue" points="263.01,-184.8 252.55,-186.45 261.76,-191.68 263.01,-184.8"/>
</g>
<!-- Node12 -->
<g id="node12" class="node">
<title>Node12</title>
<g id="a_node12"><a xlink:title=" ">
<polygon fill="white" stroke="#bfbfbf" points="270,-168.5 270,-187.5 330,-187.5 330,-168.5 270,-168.5"/>
<text text-anchor="middle" x="300" y="-175.5" font-family="Helvetica,sans-Serif" font-size="10.00">iostream</text>
</a>
</g>
</g>
<!-- Node3&#45;&gt;Node12 -->
<g id="edge13" class="edge">
<title>Node3&#45;&gt;Node12</title>
<path fill="none" stroke="midnightblue" d="M480.09,-224.44C442.06,-214.85 380.44,-199.3 340.07,-189.11"/>
<polygon fill="midnightblue" stroke="midnightblue" points="340.84,-185.7 330.29,-186.64 339.13,-192.48 340.84,-185.7"/>
</g>
<!-- Node13 -->
<g id="node13" class="node">
<title>Node13</title>
<g id="a_node13"><a xlink:title=" ">
<polygon fill="white" stroke="#bfbfbf" points="348,-168.5 348,-187.5 458,-187.5 458,-168.5 348,-168.5"/>
<text text-anchor="middle" x="403" y="-175.5" font-family="Helvetica,sans-Serif" font-size="10.00">nlohmann/json.hpp</text>
</a>
</g>
</g>
<!-- Node3&#45;&gt;Node13 -->
<g id="edge14" class="edge">
<title>Node3&#45;&gt;Node13</title>
<path fill="none" stroke="midnightblue" d="M496.17,-224.32C478.28,-215.62 450.52,-202.12 429.95,-192.11"/>
<polygon fill="midnightblue" stroke="midnightblue" points="431.31,-188.88 420.79,-187.65 428.25,-195.18 431.31,-188.88"/>
</g>
<!-- Node14 -->
<g id="node14" class="node">
<title>Node14</title>
<g id="a_node14"><a xlink:title=" ">
<polygon fill="white" stroke="#bfbfbf" points="644,-112.5 644,-131.5 700,-131.5 700,-112.5 644,-112.5"/>
<text text-anchor="middle" x="672" y="-119.5" font-family="Helvetica,sans-Serif" font-size="10.00">optional</text>
</a>
</g>
</g>
<!-- Node3&#45;&gt;Node14 -->
<g id="edge15" class="edge">
<title>Node3&#45;&gt;Node14</title>
<path fill="none" stroke="midnightblue" d="M557.63,-232.86C630.67,-231.61 772.8,-224.42 804,-188 809.78,-181.25 809.17,-175.23 804,-168 798.3,-160.04 747.08,-144.16 710.16,-133.56"/>
<polygon fill="midnightblue" stroke="midnightblue" points="710.75,-130.09 700.17,-130.72 708.83,-136.82 710.75,-130.09"/>
</g>
<!-- Node15 -->
<g id="node15" class="node">
<title>Node15</title>
<g id="a_node15"><a xlink:title=" ">
<polygon fill="white" stroke="#bfbfbf" points="514,-168.5 514,-187.5 570,-187.5 570,-168.5 514,-168.5"/>
<text text-anchor="middle" x="542" y="-175.5" font-family="Helvetica,sans-Serif" font-size="10.00">sstream</text>
</a>
</g>
</g>
<!-- Node3&#45;&gt;Node15 -->
<g id="edge16" class="edge">
<title>Node3&#45;&gt;Node15</title>
<path fill="none" stroke="midnightblue" d="M518.62,-224.08C522.46,-216.69 528.02,-205.95 532.76,-196.81"/>
<polygon fill="midnightblue" stroke="midnightblue" points="535.97,-198.24 537.46,-187.75 529.75,-195.02 535.97,-198.24"/>
</g>
<!-- Node16 -->
<g id="node16" class="node">
<title>Node16</title>
<g id="a_node16"><a xlink:title=" ">
<polygon fill="white" stroke="#bfbfbf" points="493.5,-0.5 493.5,-19.5 562.5,-19.5 562.5,-0.5 493.5,-0.5"/>
<text text-anchor="middle" x="528" y="-7.5" font-family="Helvetica,sans-Serif" font-size="10.00">type_traits</text>
</a>
</g>
</g>
<!-- Node3&#45;&gt;Node16 -->
<g id="edge17" class="edge">
<title>Node3&#45;&gt;Node16</title>
<path fill="none" stroke="midnightblue" d="M557.98,-230.36C615.45,-225.88 711.35,-214.55 733,-188 738.62,-181.11 738.09,-175.29 733,-168 706.44,-129.95 675.93,-153.85 635,-132 597.67,-112.07 584.84,-108.71 558,-76 546.68,-62.2 538.62,-43.43 533.72,-29.61"/>
<polygon fill="midnightblue" stroke="midnightblue" points="536.93,-28.17 530.47,-19.77 530.29,-30.36 536.93,-28.17"/>
</g>
<!-- Node4&#45;&gt;Node5 -->
<g id="edge4" class="edge">
<title>Node4&#45;&gt;Node5</title>
<path fill="none" stroke="midnightblue" d="M638.65,-168.32C621.33,-159.66 594.48,-146.24 574.5,-136.25"/>
<polygon fill="midnightblue" stroke="midnightblue" points="575.82,-133 565.31,-131.65 572.69,-139.26 575.82,-133"/>
</g>
<!-- Node6&#45;&gt;Node5 -->
<g id="edge6" class="edge">
<title>Node6&#45;&gt;Node5</title>
<path fill="none" stroke="midnightblue" d="M155.28,-169.16C158.23,-168.76 161.15,-168.37 164,-168 283.75,-152.43 424.83,-136.52 498.12,-128.44"/>
<polygon fill="midnightblue" stroke="midnightblue" points="498.88,-131.88 508.43,-127.3 498.11,-124.92 498.88,-131.88"/>
</g>
<!-- Node7 -->
<g id="node7" class="node">
<title>Node7</title>
<g id="a_node7"><a xlink:title=" ">
<polygon fill="white" stroke="#bfbfbf" points="122,-112.5 122,-131.5 208,-131.5 208,-112.5 122,-112.5"/>
<text text-anchor="middle" x="165" y="-119.5" font-family="Helvetica,sans-Serif" font-size="10.00">fmt/ostream.h</text>
</a>
</g>
</g>
<!-- Node6&#45;&gt;Node7 -->
<g id="edge7" class="edge">
<title>Node6&#45;&gt;Node7</title>
<path fill="none" stroke="midnightblue" d="M111.28,-168.32C120.84,-160.26 135.28,-148.08 146.78,-138.37"/>
<polygon fill="midnightblue" stroke="midnightblue" points="149.14,-140.96 154.53,-131.83 144.63,-135.61 149.14,-140.96"/>
</g>
<!-- Node8 -->
<g id="node8" class="node">
<title>Node8</title>
<g id="a_node8"><a xlink:title=" ">
<polygon fill="white" stroke="#bfbfbf" points="226,-112.5 226,-131.5 270,-131.5 270,-112.5 226,-112.5"/>
<text text-anchor="middle" x="248" y="-119.5" font-family="Helvetica,sans-Serif" font-size="10.00">limits</text>
</a>
</g>
</g>
<!-- Node6&#45;&gt;Node8 -->
<g id="edge8" class="edge">
<title>Node6&#45;&gt;Node8</title>
<path fill="none" stroke="midnightblue" d="M124.29,-168.44C149.1,-159.33 188.51,-144.85 216.17,-134.69"/>
<polygon fill="midnightblue" stroke="midnightblue" points="217.6,-137.9 225.78,-131.16 215.19,-131.33 217.6,-137.9"/>
</g>
<!-- Node6&#45;&gt;Node9 -->
<g id="edge9" class="edge">
<title>Node6&#45;&gt;Node9</title>
<path fill="none" stroke="midnightblue" d="M87.83,-168.32C75.15,-159.98 55.77,-147.21 40.79,-137.35"/>
<polygon fill="midnightblue" stroke="midnightblue" points="42.42,-134.23 32.14,-131.65 38.57,-140.08 42.42,-134.23"/>
</g>
<!-- Node10 -->
<g id="node10" class="node">
<title>Node10</title>
<g id="a_node10"><a xlink:title=" ">
<polygon fill="white" stroke="#bfbfbf" points="56,-112.5 56,-131.5 104,-131.5 104,-112.5 56,-112.5"/>
<text text-anchor="middle" x="80" y="-119.5" font-family="Helvetica,sans-Serif" font-size="10.00">thread</text>
</a>
</g>
</g>
<!-- Node6&#45;&gt;Node10 -->
<g id="edge10" class="edge">
<title>Node6&#45;&gt;Node10</title>
<path fill="none" stroke="midnightblue" d="M97.53,-168.08C94.69,-160.77 90.57,-150.18 87.04,-141.1"/>
<polygon fill="midnightblue" stroke="midnightblue" points="90.29,-139.8 83.4,-131.75 83.77,-142.34 90.29,-139.8"/>
</g>
<!-- Node18 -->
<g id="node18" class="node">
<title>Node18</title>
<g id="a_node18"><a xlink:href="pal_8h.html" target="_top" xlink:title=" ">
<polygon fill="white" stroke="black" points="1552,-56.5 1552,-75.5 1624,-75.5 1624,-56.5 1552,-56.5"/>
<text text-anchor="middle" x="1588" y="-63.5" font-family="Helvetica,sans-Serif" font-size="10.00">ccf/ds/pal.h</text>
</a>
</g>
</g>
<!-- Node17&#45;&gt;Node18 -->
<g id="edge19" class="edge">
<title>Node17&#45;&gt;Node18</title>
<path fill="none" stroke="midnightblue" d="M1444.79,-228.45C1473.72,-223.19 1512.49,-211.94 1538,-188 1567.6,-160.22 1580.23,-112.32 1585.17,-85.89"/>
<polygon fill="midnightblue" stroke="midnightblue" points="1588.67,-86.14 1586.88,-75.7 1581.77,-84.98 1588.67,-86.14"/>
</g>
<!-- Node21 -->
<g id="node21" class="node">
<title>Node21</title>
<g id="a_node21"><a xlink:title=" ">
<polygon fill="white" stroke="#bfbfbf" points="1496,-0.5 1496,-19.5 1546,-19.5 1546,-0.5 1496,-0.5"/>
<text text-anchor="middle" x="1521" y="-7.5" font-family="Helvetica,sans-Serif" font-size="10.00">cstring</text>
</a>
</g>
</g>
<!-- Node17&#45;&gt;Node21 -->
<g id="edge59" class="edge">
<title>Node17&#45;&gt;Node21</title>
<path fill="none" stroke="midnightblue" d="M1415.34,-224.36C1424.26,-215.76 1437.7,-201.87 1447,-188 1482.32,-135.3 1506.05,-63.04 1515.88,-29.5"/>
<polygon fill="midnightblue" stroke="midnightblue" points="1519.3,-30.27 1518.68,-19.69 1512.57,-28.35 1519.3,-30.27"/>
</g>
<!-- Node23 -->
<g id="node23" class="node">
<title>Node23</title>
<g id="a_node23"><a xlink:href="ring__buffer__types_8h.html" target="_top" xlink:title=" ">
<polygon fill="white" stroke="black" points="856,-168.5 856,-187.5 966,-187.5 966,-168.5 856,-168.5"/>
<text text-anchor="middle" x="911" y="-175.5" font-family="Helvetica,sans-Serif" font-size="10.00">ring_buffer_types.h</text>
</a>
</g>
</g>
<!-- Node17&#45;&gt;Node23 -->
<g id="edge24" class="edge">
<title>Node17&#45;&gt;Node23</title>
<path fill="none" stroke="midnightblue" d="M1367.16,-228.76C1282.57,-219.53 1080.92,-197.54 976.37,-186.13"/>
<polygon fill="midnightblue" stroke="midnightblue" points="976.58,-182.63 966.26,-185.03 975.82,-189.59 976.58,-182.63"/>
</g>
<!-- Node41 -->
<g id="node41" class="node">
<title>Node41</title>
<g id="a_node41"><a xlink:title=" ">
<polygon fill="white" stroke="#bfbfbf" points="1373.5,-168.5 1373.5,-187.5 1438.5,-187.5 1438.5,-168.5 1373.5,-168.5"/>
<text text-anchor="middle" x="1406" y="-175.5" font-family="Helvetica,sans-Serif" font-size="10.00">functional</text>
</a>
</g>
</g>
<!-- Node17&#45;&gt;Node41 -->
<g id="edge60" class="edge">
<title>Node17&#45;&gt;Node41</title>
<path fill="none" stroke="midnightblue" d="M1406,-224.08C1406,-217.01 1406,-206.86 1406,-197.99"/>
<polygon fill="midnightblue" stroke="midnightblue" points="1409.5,-197.75 1406,-187.75 1402.5,-197.75 1409.5,-197.75"/>
</g>
<!-- Node19 -->
<g id="node19" class="node">
<title>Node19</title>
<g id="a_node19"><a xlink:title=" ">
<polygon fill="white" stroke="#bfbfbf" points="1335,-0.5 1335,-19.5 1385,-19.5 1385,-0.5 1335,-0.5"/>
<text text-anchor="middle" x="1360" y="-7.5" font-family="Helvetica,sans-Serif" font-size="10.00">cstdint</text>
</a>
</g>
</g>
<!-- Node18&#45;&gt;Node19 -->
<g id="edge20" class="edge">
<title>Node18&#45;&gt;Node19</title>
<path fill="none" stroke="midnightblue" d="M1551.87,-56.44C1508.84,-46.25 1437.44,-29.34 1394.93,-19.27"/>
<polygon fill="midnightblue" stroke="midnightblue" points="1395.58,-15.83 1385.04,-16.93 1393.97,-22.64 1395.58,-15.83"/>
</g>
<!-- Node20 -->
<g id="node20" class="node">
<title>Node20</title>
<g id="a_node20"><a xlink:title=" ">
<polygon fill="white" stroke="#bfbfbf" points="1630.5,-0.5 1630.5,-19.5 1679.5,-19.5 1679.5,-0.5 1630.5,-0.5"/>
<text text-anchor="middle" x="1655" y="-7.5" font-family="Helvetica,sans-Serif" font-size="10.00">cstdlib</text>
</a>
</g>
</g>
<!-- Node18&#45;&gt;Node20 -->
<g id="edge21" class="edge">
<title>Node18&#45;&gt;Node20</title>
<path fill="none" stroke="midnightblue" d="M1598.76,-56.32C1608.77,-48.26 1623.89,-36.08 1635.93,-26.37"/>
<polygon fill="midnightblue" stroke="midnightblue" points="1638.45,-28.83 1644.04,-19.83 1634.06,-23.38 1638.45,-28.83"/>
</g>
<!-- Node18&#45;&gt;Node21 -->
<g id="edge22" class="edge">
<title>Node18&#45;&gt;Node21</title>
<path fill="none" stroke="midnightblue" d="M1577.24,-56.32C1567.23,-48.26 1552.11,-36.08 1540.07,-26.37"/>
<polygon fill="midnightblue" stroke="midnightblue" points="1541.94,-23.38 1531.96,-19.83 1537.55,-28.83 1541.94,-23.38"/>
</g>
<!-- Node22 -->
<g id="node22" class="node">
<title>Node22</title>
<g id="a_node22"><a xlink:title=" ">
<polygon fill="white" stroke="#bfbfbf" points="1564,-0.5 1564,-19.5 1612,-19.5 1612,-0.5 1564,-0.5"/>
<text text-anchor="middle" x="1588" y="-7.5" font-family="Helvetica,sans-Serif" font-size="10.00">mutex</text>
</a>
</g>
</g>
<!-- Node18&#45;&gt;Node22 -->
<g id="edge23" class="edge">
<title>Node18&#45;&gt;Node22</title>
<path fill="none" stroke="midnightblue" d="M1588,-56.08C1588,-49.01 1588,-38.86 1588,-29.99"/>
<polygon fill="midnightblue" stroke="midnightblue" points="1591.5,-29.75 1588,-19.75 1584.5,-29.75 1591.5,-29.75"/>
</g>
<!-- Node23&#45;&gt;Node5 -->
<g id="edge55" class="edge">
<title>Node23&#45;&gt;Node5</title>
<path fill="none" stroke="midnightblue" d="M855.87,-168.8C785.6,-158.34 665.15,-140.43 597.62,-130.38"/>
<polygon fill="midnightblue" stroke="midnightblue" points="598.06,-126.91 587.66,-128.9 597.03,-133.83 598.06,-126.91"/>
</g>
<!-- Node23&#45;&gt;Node14 -->
<g id="edge56" class="edge">
<title>Node23&#45;&gt;Node14</title>
<path fill="none" stroke="midnightblue" d="M873.13,-168.44C828.56,-158.37 754.97,-141.75 710.24,-131.64"/>
<polygon fill="midnightblue" stroke="midnightblue" points="710.86,-128.19 700.34,-129.4 709.32,-135.02 710.86,-128.19"/>
</g>
<!-- Node24 -->
<g id="node24" class="node">
<title>Node24</title>
<g id="a_node24"><a xlink:href="include_2ccf_2ds_2hash_8h.html" target="_top" xlink:title=" ">
<polygon fill="white" stroke="black" points="990,-112.5 990,-131.5 1070,-131.5 1070,-112.5 990,-112.5"/>
<text text-anchor="middle" x="1030" y="-119.5" font-family="Helvetica,sans-Serif" font-size="10.00">ccf/ds/hash.h</text>
</a>
</g>
</g>
<!-- Node23&#45;&gt;Node24 -->
<g id="edge25" class="edge">
<title>Node23&#45;&gt;Node24</title>
<path fill="none" stroke="midnightblue" d="M929.86,-168.44C949.27,-159.64 979.73,-145.81 1001.96,-135.72"/>
<polygon fill="midnightblue" stroke="midnightblue" points="1003.57,-138.84 1011.23,-131.52 1000.68,-132.46 1003.57,-138.84"/>
</g>
<!-- Node27 -->
<g id="node27" class="node">
<title>Node27</title>
<g id="a_node27"><a xlink:title=" ">
<polygon fill="white" stroke="#bfbfbf" points="976.5,-0.5 976.5,-19.5 1023.5,-19.5 1023.5,-0.5 976.5,-0.5"/>
<text text-anchor="middle" x="1000" y="-7.5" font-family="Helvetica,sans-Serif" font-size="10.00">vector</text>
</a>
</g>
</g>
<!-- Node23&#45;&gt;Node27 -->
<g id="edge58" class="edge">
<title>Node23&#45;&gt;Node27</title>
<path fill="none" stroke="midnightblue" d="M915.79,-168.08C929.92,-141.72 971.65,-63.88 990.53,-28.66"/>
<polygon fill="midnightblue" stroke="midnightblue" points="993.77,-30.04 995.41,-19.57 987.6,-26.73 993.77,-30.04"/>
</g>
<!-- Node30 -->
<g id="node30" class="node">
<title>Node30</title>
<g id="a_node30"><a xlink:href="nonstd_8h.html" target="_top" xlink:title=" ">
<polygon fill="white" stroke="black" points="594,-56.5 594,-75.5 684,-75.5 684,-56.5 594,-56.5"/>
<text text-anchor="middle" x="639" y="-63.5" font-family="Helvetica,sans-Serif" font-size="10.00">ccf/ds/nonstd.h</text>
</a>
</g>
</g>
<!-- Node23&#45;&gt;Node30 -->
<g id="edge34" class="edge">
<title>Node23&#45;&gt;Node30</title>
<path fill="none" stroke="midnightblue" d="M867.43,-168.47C833.74,-161.06 786.35,-148.86 747,-132 729.73,-124.6 687.02,-97.87 660.78,-81.08"/>
<polygon fill="midnightblue" stroke="midnightblue" points="662.56,-78.06 652.25,-75.6 658.78,-83.95 662.56,-78.06"/>
</g>
<!-- Node33 -->
<g id="node33" class="node">
<title>Node33</title>
<g id="a_node33"><a xlink:title=" ">
<polygon fill="white" stroke="#bfbfbf" points="882,-0.5 882,-19.5 926,-19.5 926,-0.5 882,-0.5"/>
<text text-anchor="middle" x="904" y="-7.5" font-family="Helvetica,sans-Serif" font-size="10.00">string</text>
</a>
</g>
</g>
<!-- Node23&#45;&gt;Node33 -->
<g id="edge57" class="edge">
<title>Node23&#45;&gt;Node33</title>
<path fill="none" stroke="midnightblue" d="M910.62,-168.08C909.52,-141.95 906.29,-65.21 904.78,-29.58"/>
<polygon fill="midnightblue" stroke="midnightblue" points="908.28,-29.41 904.36,-19.57 901.29,-29.71 908.28,-29.41"/>
</g>
<!-- Node35 -->
<g id="node35" class="node">
<title>Node35</title>
<g id="a_node35"><a xlink:href="serializer_8h.html" target="_top" xlink:title=" ">
<polygon fill="white" stroke="black" points="756,-112.5 756,-131.5 826,-131.5 826,-112.5 756,-112.5"/>
<text text-anchor="middle" x="791" y="-119.5" font-family="Helvetica,sans-Serif" font-size="10.00">serializer.h</text>
</a>
</g>
</g>
<!-- Node23&#45;&gt;Node35 -->
<g id="edge42" class="edge">
<title>Node23&#45;&gt;Node35</title>
<path fill="none" stroke="midnightblue" d="M891.99,-168.44C872.41,-159.64 841.69,-145.81 819.27,-135.72"/>
<polygon fill="midnightblue" stroke="midnightblue" points="820.48,-132.43 809.93,-131.52 817.61,-138.81 820.48,-132.43"/>
</g>
<!-- Node23&#45;&gt;Node40 -->
<g id="edge54" class="edge">
<title>Node23&#45;&gt;Node40</title>
<path fill="none" stroke="midnightblue" d="M943.01,-168.44C979.72,-158.63 1039.72,-142.59 1077.74,-132.43"/>
<polygon fill="midnightblue" stroke="midnightblue" points="1079.09,-135.69 1087.84,-129.73 1077.28,-128.93 1079.09,-135.69"/>
</g>
<!-- Node24&#45;&gt;Node19 -->
<g id="edge31" class="edge">
<title>Node24&#45;&gt;Node19</title>
<path fill="none" stroke="midnightblue" d="M1070.09,-113.49C1073.1,-112.97 1076.1,-112.47 1079,-112 1135.93,-102.79 1291.09,-112.18 1336,-76 1349.88,-64.81 1355.74,-44.79 1358.2,-29.92"/>
<polygon fill="midnightblue" stroke="midnightblue" points="1361.7,-30.14 1359.51,-19.77 1354.76,-29.25 1361.7,-30.14"/>
</g>
<!-- Node25 -->
<g id="node25" class="node">
<title>Node25</title>
<g id="a_node25"><a xlink:href="siphash_8h.html" target="_top" xlink:title=" ">
<polygon fill="white" stroke="black" points="1232.5,-56.5 1232.5,-75.5 1327.5,-75.5 1327.5,-56.5 1232.5,-56.5"/>
<text text-anchor="middle" x="1280" y="-63.5" font-family="Helvetica,sans-Serif" font-size="10.00">ccf/ds/siphash.h</text>
</a>
</g>
</g>
<!-- Node24&#45;&gt;Node25 -->
<g id="edge26" class="edge">
<title>Node24&#45;&gt;Node25</title>
<path fill="none" stroke="midnightblue" d="M1069.61,-112.44C1113.23,-103.02 1183.4,-87.87 1230.58,-77.68"/>
<polygon fill="midnightblue" stroke="midnightblue" points="1231.54,-81.05 1240.57,-75.52 1230.06,-74.21 1231.54,-81.05"/>
</g>
<!-- Node24&#45;&gt;Node27 -->
<g id="edge33" class="edge">
<title>Node24&#45;&gt;Node27</title>
<path fill="none" stroke="midnightblue" d="M1027.65,-112.37C1022.78,-94.54 1011.54,-53.3 1004.98,-29.27"/>
<polygon fill="midnightblue" stroke="midnightblue" points="1008.35,-28.32 1002.34,-19.59 1001.6,-30.16 1008.35,-28.32"/>
</g>
<!-- Node28 -->
<g id="node28" class="node">
<title>Node28</title>
<g id="a_node28"><a xlink:title=" ">
<polygon fill="white" stroke="#bfbfbf" points="822,-0.5 822,-19.5 864,-19.5 864,-0.5 822,-0.5"/>
<text text-anchor="middle" x="843" y="-7.5" font-family="Helvetica,sans-Serif" font-size="10.00">array</text>
</a>
</g>
</g>
<!-- Node24&#45;&gt;Node28 -->
<g id="edge30" class="edge">
<title>Node24&#45;&gt;Node28</title>
<path fill="none" stroke="midnightblue" d="M1015.33,-112.37C983.1,-93.41 905.9,-48 866.7,-24.94"/>
<polygon fill="midnightblue" stroke="midnightblue" points="868,-21.64 857.61,-19.59 864.45,-27.68 868,-21.64"/>
</g>
<!-- Node29 -->
<g id="node29" class="node">
<title>Node29</title>
<g id="a_node29"><a xlink:title=" ">
<polygon fill="white" stroke="#bfbfbf" points="1027.5,-56.5 1027.5,-75.5 1176.5,-75.5 1176.5,-56.5 1027.5,-56.5"/>
<text text-anchor="middle" x="1102" y="-63.5" font-family="Helvetica,sans-Serif" font-size="10.00">small_vector/SmallVector.h</text>
</a>
</g>
</g>
<!-- Node24&#45;&gt;Node29 -->
<g id="edge32" class="edge">
<title>Node24&#45;&gt;Node29</title>
<path fill="none" stroke="midnightblue" d="M1041.57,-112.32C1052.42,-104.18 1068.88,-91.84 1081.88,-82.09"/>
<polygon fill="midnightblue" stroke="midnightblue" points="1084.32,-84.63 1090.22,-75.83 1080.12,-79.03 1084.32,-84.63"/>
</g>
<!-- Node25&#45;&gt;Node19 -->
<g id="edge28" class="edge">
<title>Node25&#45;&gt;Node19</title>
<path fill="none" stroke="midnightblue" d="M1292.85,-56.32C1305.22,-47.98 1324.13,-35.21 1338.74,-25.35"/>
<polygon fill="midnightblue" stroke="midnightblue" points="1340.85,-28.15 1347.18,-19.65 1336.93,-22.35 1340.85,-28.15"/>
</g>
<!-- Node26 -->
<g id="node26" class="node">
<title>Node26</title>
<g id="a_node26"><a xlink:title=" ">
<polygon fill="white" stroke="#bfbfbf" points="1253.5,-0.5 1253.5,-19.5 1306.5,-19.5 1306.5,-0.5 1253.5,-0.5"/>
<text text-anchor="middle" x="1280" y="-7.5" font-family="Helvetica,sans-Serif" font-size="10.00">cstddef</text>
</a>
</g>
</g>
<!-- Node25&#45;&gt;Node26 -->
<g id="edge27" class="edge">
<title>Node25&#45;&gt;Node26</title>
<path fill="none" stroke="midnightblue" d="M1280,-56.08C1280,-49.01 1280,-38.86 1280,-29.99"/>
<polygon fill="midnightblue" stroke="midnightblue" points="1283.5,-29.75 1280,-19.75 1276.5,-29.75 1283.5,-29.75"/>
</g>
<!-- Node25&#45;&gt;Node27 -->
<g id="edge29" class="edge">
<title>Node25&#45;&gt;Node27</title>
<path fill="none" stroke="midnightblue" d="M1235.63,-56.44C1179.49,-45.62 1084.03,-27.21 1033.57,-17.47"/>
<polygon fill="midnightblue" stroke="midnightblue" points="1034,-13.99 1023.52,-15.54 1032.67,-20.87 1034,-13.99"/>
</g>
<!-- Node30&#45;&gt;Node16 -->
<g id="edge40" class="edge">
<title>Node30&#45;&gt;Node16</title>
<path fill="none" stroke="midnightblue" d="M621.17,-56.32C603.28,-47.62 575.52,-34.12 554.95,-24.11"/>
<polygon fill="midnightblue" stroke="midnightblue" points="556.31,-20.88 545.79,-19.65 553.25,-27.18 556.31,-20.88"/>
</g>
<!-- Node30&#45;&gt;Node27 -->
<g id="edge41" class="edge">
<title>Node30&#45;&gt;Node27</title>
<path fill="none" stroke="midnightblue" d="M684.07,-57.42C687.09,-56.93 690.09,-56.46 693,-56 792.24,-40.46 909.8,-23.68 966.33,-15.71"/>
<polygon fill="midnightblue" stroke="midnightblue" points="967.07,-19.15 976.48,-14.29 966.09,-12.21 967.07,-19.15"/>
</g>
<!-- Node30&#45;&gt;Node28 -->
<g id="edge36" class="edge">
<title>Node30&#45;&gt;Node28</title>
<path fill="none" stroke="midnightblue" d="M672.89,-56.48C707.82,-47.64 763.83,-33.26 812,-20 812.1,-19.97 812.2,-19.95 812.29,-19.92"/>
<polygon fill="midnightblue" stroke="midnightblue" points="813,-23.36 821.68,-17.28 811.1,-16.62 813,-23.36"/>
</g>
<!-- Node31 -->
<g id="node31" class="node">
<title>Node31</title>
<g id="a_node31"><a xlink:title=" ">
<polygon fill="white" stroke="#bfbfbf" points="581,-0.5 581,-19.5 645,-19.5 645,-0.5 581,-0.5"/>
<text text-anchor="middle" x="613" y="-7.5" font-family="Helvetica,sans-Serif" font-size="10.00">algorithm</text>
</a>
</g>
</g>
<!-- Node30&#45;&gt;Node31 -->
<g id="edge35" class="edge">
<title>Node30&#45;&gt;Node31</title>
<path fill="none" stroke="midnightblue" d="M634.71,-56.08C631.15,-48.69 625.98,-37.95 621.58,-28.81"/>
<polygon fill="midnightblue" stroke="midnightblue" points="624.71,-27.24 617.21,-19.75 618.4,-30.28 624.71,-27.24"/>
</g>
<!-- Node32 -->
<g id="node32" class="node">
<title>Node32</title>
<g id="a_node32"><a xlink:title=" ">
<polygon fill="white" stroke="#bfbfbf" points="663.5,-0.5 663.5,-19.5 712.5,-19.5 712.5,-0.5 663.5,-0.5"/>
<text text-anchor="middle" x="688" y="-7.5" font-family="Helvetica,sans-Serif" font-size="10.00">cctype</text>
</a>
</g>
</g>
<!-- Node30&#45;&gt;Node32 -->
<g id="edge37" class="edge">
<title>Node30&#45;&gt;Node32</title>
<path fill="none" stroke="midnightblue" d="M647.09,-56.08C654.16,-48.3 664.59,-36.8 673.15,-27.37"/>
<polygon fill="midnightblue" stroke="midnightblue" points="675.93,-29.51 680.06,-19.75 670.75,-24.8 675.93,-29.51"/>
</g>
<!-- Node30&#45;&gt;Node33 -->
<g id="edge38" class="edge">
<title>Node30&#45;&gt;Node33</title>
<path fill="none" stroke="midnightblue" d="M684.38,-56.79C737.89,-47.03 824.6,-30.92 871.73,-20.1"/>
<polygon fill="midnightblue" stroke="midnightblue" points="872.79,-23.44 881.71,-17.74 871.18,-16.63 872.79,-23.44"/>
</g>
<!-- Node34 -->
<g id="node34" class="node">
<title>Node34</title>
<g id="a_node34"><a xlink:title=" ">
<polygon fill="white" stroke="#bfbfbf" points="730.5,-0.5 730.5,-19.5 803.5,-19.5 803.5,-0.5 730.5,-0.5"/>
<text text-anchor="middle" x="767" y="-7.5" font-family="Helvetica,sans-Serif" font-size="10.00">string_view</text>
</a>
</g>
</g>
<!-- Node30&#45;&gt;Node34 -->
<g id="edge39" class="edge">
<title>Node30&#45;&gt;Node34</title>
<path fill="none" stroke="midnightblue" d="M659.28,-56.44C680.35,-47.56 713.52,-33.56 737.49,-23.45"/>
<polygon fill="midnightblue" stroke="midnightblue" points="738.96,-26.63 746.81,-19.52 736.24,-20.18 738.96,-26.63"/>
</g>
<!-- Node35&#45;&gt;Node16 -->
<g id="edge52" class="edge">
<title>Node35&#45;&gt;Node16</title>
<path fill="none" stroke="midnightblue" d="M755.66,-116.01C704.7,-108.36 613.53,-92.83 585,-76 565.28,-64.36 548.82,-43.51 538.73,-28.56"/>
<polygon fill="midnightblue" stroke="midnightblue" points="541.42,-26.26 533.06,-19.74 535.53,-30.04 541.42,-26.26"/>
</g>
<!-- Node35&#45;&gt;Node27 -->
<g id="edge53" class="edge">
<title>Node35&#45;&gt;Node27</title>
<path fill="none" stroke="midnightblue" d="M807.4,-112.37C843.72,-93.25 931.16,-47.23 974.61,-24.36"/>
<polygon fill="midnightblue" stroke="midnightblue" points="976.46,-27.35 983.68,-19.59 973.2,-21.15 976.46,-27.35"/>
</g>
<!-- Node35&#45;&gt;Node30 -->
<g id="edge43" class="edge">
<title>Node35&#45;&gt;Node30</title>
<path fill="none" stroke="midnightblue" d="M766.92,-112.44C741.46,-103.4 701.11,-89.06 672.54,-78.92"/>
<polygon fill="midnightblue" stroke="midnightblue" points="673.57,-75.57 662.97,-75.52 671.22,-82.16 673.57,-75.57"/>
</g>
<!-- Node36 -->
<g id="node36" class="node">
<title>Node36</title>
<g id="a_node36"><a xlink:href="serialized_8h.html" target="_top" xlink:title=" ">
<polygon fill="white" stroke="black" points="1384.5,-56.5 1384.5,-75.5 1457.5,-75.5 1457.5,-56.5 1384.5,-56.5"/>
<text text-anchor="middle" x="1421" y="-63.5" font-family="Helvetica,sans-Serif" font-size="10.00">serialized.h</text>
</a>
</g>
</g>
<!-- Node35&#45;&gt;Node36 -->
<g id="edge44" class="edge">
<title>Node35&#45;&gt;Node36</title>
<path fill="none" stroke="midnightblue" d="M826.09,-118.39C912.72,-111.87 1143.65,-94.12 1336,-76 1348.35,-74.84 1361.7,-73.47 1374.08,-72.16"/>
<polygon fill="midnightblue" stroke="midnightblue" points="1374.63,-75.63 1384.2,-71.08 1373.89,-68.67 1374.63,-75.63"/>
</g>
<!-- Node38 -->
<g id="node38" class="node">
<title>Node38</title>
<g id="a_node38"><a xlink:title=" ">
<polygon fill="white" stroke="#bfbfbf" points="762,-56.5 762,-75.5 820,-75.5 820,-56.5 762,-56.5"/>
<text text-anchor="middle" x="791" y="-63.5" font-family="Helvetica,sans-Serif" font-size="10.00">memory</text>
</a>
</g>
</g>
<!-- Node35&#45;&gt;Node38 -->
<g id="edge50" class="edge">
<title>Node35&#45;&gt;Node38</title>
<path fill="none" stroke="midnightblue" d="M791,-112.08C791,-105.01 791,-94.86 791,-85.99"/>
<polygon fill="midnightblue" stroke="midnightblue" points="794.5,-85.75 791,-75.75 787.5,-85.75 794.5,-85.75"/>
</g>
<!-- Node39 -->
<g id="node39" class="node">
<title>Node39</title>
<g id="a_node39"><a xlink:title=" ">
<polygon fill="white" stroke="#bfbfbf" points="702.5,-56.5 702.5,-75.5 743.5,-75.5 743.5,-56.5 702.5,-56.5"/>
<text text-anchor="middle" x="723" y="-63.5" font-family="Helvetica,sans-Serif" font-size="10.00">tuple</text>
</a>
</g>
</g>
<!-- Node35&#45;&gt;Node39 -->
<g id="edge51" class="edge">
<title>Node35&#45;&gt;Node39</title>
<path fill="none" stroke="midnightblue" d="M780.07,-112.32C769.83,-104.18 754.28,-91.84 742,-82.09"/>
<polygon fill="midnightblue" stroke="midnightblue" points="744.13,-79.31 734.12,-75.83 739.78,-84.79 744.13,-79.31"/>
</g>
<!-- Node36&#45;&gt;Node19 -->
<g id="edge45" class="edge">
<title>Node36&#45;&gt;Node19</title>
<path fill="none" stroke="midnightblue" d="M1411.2,-56.32C1402.18,-48.34 1388.59,-36.31 1377.68,-26.65"/>
<polygon fill="midnightblue" stroke="midnightblue" points="1379.79,-23.84 1369.98,-19.83 1375.15,-29.08 1379.79,-23.84"/>
</g>
<!-- Node36&#45;&gt;Node21 -->
<g id="edge46" class="edge">
<title>Node36&#45;&gt;Node21</title>
<path fill="none" stroke="midnightblue" d="M1437.07,-56.32C1452.96,-47.74 1477.51,-34.49 1495.96,-24.52"/>
<polygon fill="midnightblue" stroke="midnightblue" points="1497.84,-27.49 1504.97,-19.65 1494.51,-21.33 1497.84,-27.49"/>
</g>
<!-- Node36&#45;&gt;Node27 -->
<g id="edge49" class="edge">
<title>Node36&#45;&gt;Node27</title>
<path fill="none" stroke="midnightblue" d="M1384.38,-60.3C1303.75,-49.96 1111.87,-25.35 1033.86,-15.34"/>
<polygon fill="midnightblue" stroke="midnightblue" points="1033.99,-11.83 1023.63,-14.03 1033.1,-18.77 1033.99,-11.83"/>
</g>
<!-- Node36&#45;&gt;Node33 -->
<g id="edge48" class="edge">
<title>Node36&#45;&gt;Node33</title>
<path fill="none" stroke="midnightblue" d="M1384.19,-61.04C1369.24,-59.44 1351.8,-57.61 1336,-56 1172.07,-39.32 1130.6,-39.66 967,-20 957.01,-18.8 946.16,-17.31 936.32,-15.9"/>
<polygon fill="midnightblue" stroke="midnightblue" points="936.53,-12.39 926.13,-14.41 935.51,-19.32 936.53,-12.39"/>
</g>
<!-- Node36&#45;&gt;Node37 -->
<g id="edge47" class="edge">
<title>Node36&#45;&gt;Node37</title>
<path fill="none" stroke="midnightblue" d="M1424.47,-56.08C1427.31,-48.77 1431.43,-38.18 1434.96,-29.1"/>
<polygon fill="midnightblue" stroke="midnightblue" points="1438.23,-30.34 1438.6,-19.75 1431.71,-27.8 1438.23,-30.34"/>
</g>
<!-- Node43&#45;&gt;Node23 -->
<g id="edge72" class="edge">
<title>Node43&#45;&gt;Node23</title>
<path fill="none" stroke="midnightblue" d="M1220.96,-399.88C1147.46,-395.33 1017.99,-376.17 944,-300 916.91,-272.11 911.56,-224.25 910.8,-197.86"/>
<polygon fill="midnightblue" stroke="midnightblue" points="914.29,-197.65 910.7,-187.68 907.29,-197.71 914.29,-197.65"/>
</g>
<!-- Node43&#45;&gt;Node27 -->
<g id="edge74" class="edge">
<title>Node43&#45;&gt;Node27</title>
<path fill="none" stroke="midnightblue" d="M1261.81,-392.37C1249.8,-384.37 1232.99,-371.39 1223,-356 1206.62,-330.75 1204,-321.1 1204,-291 1204,-291 1204,-291 1204,-121 1204,-90.9 1206.76,-76.79 1185,-56 1163.5,-35.46 1080.86,-21.57 1033.63,-15.12"/>
<polygon fill="midnightblue" stroke="midnightblue" points="1033.93,-11.63 1023.56,-13.79 1033.01,-18.57 1033.93,-11.63"/>
</g>
<!-- Node44 -->
<g id="node44" class="node">
<title>Node44</title>
<g id="a_node44"><a xlink:href="oversized_8h.html" target="_top" xlink:title=" ">
<polygon fill="white" stroke="black" points="1232.5,-336.5 1232.5,-355.5 1319.5,-355.5 1319.5,-336.5 1232.5,-336.5"/>
<text text-anchor="middle" x="1276" y="-343.5" font-family="Helvetica,sans-Serif" font-size="10.00">ds/oversized.h</text>
</a>
</g>
</g>
<!-- Node43&#45;&gt;Node44 -->
<g id="edge66" class="edge">
<title>Node43&#45;&gt;Node44</title>
<path fill="none" stroke="midnightblue" d="M1276,-392.08C1276,-385.01 1276,-374.86 1276,-365.99"/>
<polygon fill="midnightblue" stroke="midnightblue" points="1279.5,-365.75 1276,-355.75 1272.5,-365.75 1279.5,-365.75"/>
</g>
<!-- Node43&#45;&gt;Node46 -->
<g id="edge73" class="edge">
<title>Node43&#45;&gt;Node46</title>
<path fill="none" stroke="midnightblue" d="M1289.98,-392.32C1303.55,-383.9 1324.38,-370.97 1340.32,-361.07"/>
<polygon fill="midnightblue" stroke="midnightblue" points="1342.41,-363.9 1349.06,-355.65 1338.71,-357.95 1342.41,-363.9"/>
</g>
<!-- Node44&#45;&gt;Node2 -->
<g id="edge67" class="edge">
<title>Node44&#45;&gt;Node2</title>
<path fill="none" stroke="midnightblue" d="M1232.27,-336.44C1183.82,-326.96 1105.67,-311.67 1053.58,-301.48"/>
<polygon fill="midnightblue" stroke="midnightblue" points="1054.01,-298 1043.53,-299.52 1052.67,-304.87 1054.01,-298"/>
</g>
<!-- Node44&#45;&gt;Node5 -->
<g id="edge70" class="edge">
<title>Node44&#45;&gt;Node5</title>
<path fill="none" stroke="midnightblue" d="M1263.74,-336.36C1231.33,-313.96 1140.07,-253.72 1055,-224 966.43,-193.05 939.08,-205.97 847,-188 757.48,-170.53 653.55,-147.26 594.8,-133.82"/>
<polygon fill="midnightblue" stroke="midnightblue" points="595.25,-130.33 584.72,-131.51 593.69,-137.16 595.25,-130.33"/>
</g>
<!-- Node44&#45;&gt;Node17 -->
<g id="edge68" class="edge">
<title>Node44&#45;&gt;Node17</title>
<path fill="none" stroke="midnightblue" d="M1294.62,-336.49C1311.01,-328.47 1335,-315.4 1353,-300 1369.52,-285.87 1384.79,-266.11 1394.66,-252.1"/>
<polygon fill="midnightblue" stroke="midnightblue" points="1397.56,-254.06 1400.32,-243.83 1391.78,-250.11 1397.56,-254.06"/>
</g>
<!-- Node44&#45;&gt;Node36 -->
<g id="edge69" class="edge">
<title>Node44&#45;&gt;Node36</title>
<path fill="none" stroke="midnightblue" d="M1285.3,-336.28C1302.82,-318.85 1339,-277.69 1339,-235 1339,-235 1339,-235 1339,-177 1339,-136.27 1375.59,-100.87 1399.88,-81.86"/>
<polygon fill="midnightblue" stroke="midnightblue" points="1402.3,-84.42 1408.19,-75.61 1398.09,-78.82 1402.3,-84.42"/>
</g>
<!-- Node44&#45;&gt;Node45 -->
<g id="edge71" class="edge">
<title>Node44&#45;&gt;Node45</title>
<path fill="none" stroke="midnightblue" d="M1303.89,-336.44C1333.75,-327.28 1381.31,-312.69 1414.46,-302.52"/>
<polygon fill="midnightblue" stroke="midnightblue" points="1415.71,-305.8 1424.24,-299.52 1413.66,-299.1 1415.71,-305.8"/>
</g>
</g>
</svg>
