<?xml version="1.0" encoding="UTF-8" standalone="no"?>
<!DOCTYPE svg PUBLIC "-//W3C//DTD SVG 1.1//EN"
 "http://www.w3.org/Graphics/SVG/1.1/DTD/svg11.dtd">
<!-- Generated by graphviz version 2.43.0 (0)
 -->
<!-- Title: src/ds/ring_buffer.h Pages: 1 -->
<svg width="1198pt" height="252pt"
 viewBox="0.00 0.00 1198.00 252.00" xmlns="http://www.w3.org/2000/svg" xmlns:xlink="http://www.w3.org/1999/xlink">
<g id="graph0" class="graph" transform="scale(1 1) rotate(0) translate(4 248)">
<title>src/ds/ring_buffer.h</title>
<polygon fill="white" stroke="transparent" points="-4,4 -4,-248 1194,-248 1194,4 -4,4"/>
<!-- Node1 -->
<g id="node1" class="node">
<title>Node1</title>
<g id="a_node1"><a xlink:title=" ">
<polygon fill="#bfbfbf" stroke="black" points="402,-224.5 402,-243.5 511,-243.5 511,-224.5 402,-224.5"/>
<text text-anchor="middle" x="456.5" y="-231.5" font-family="Helvetica,sans-Serif" font-size="10.00">src/ds/ring_buffer.h</text>
</a>
</g>
</g>
<!-- Node2 -->
<g id="node2" class="node">
<title>Node2</title>
<g id="a_node2"><a xlink:href="pal_8h.html" target="_top" xlink:title=" ">
<polygon fill="white" stroke="black" points="56.5,-56.5 56.5,-75.5 128.5,-75.5 128.5,-56.5 56.5,-56.5"/>
<text text-anchor="middle" x="92.5" y="-63.5" font-family="Helvetica,sans-Serif" font-size="10.00">ccf/ds/pal.h</text>
</a>
</g>
</g>
<!-- Node1&#45;&gt;Node2 -->
<g id="edge1" class="edge">
<title>Node1&#45;&gt;Node2</title>
<path fill="none" stroke="midnightblue" d="M401.9,-231.56C322.91,-228.44 181.91,-218.62 142.5,-188 110.15,-162.86 98.57,-113.14 94.55,-85.91"/>
<polygon fill="midnightblue" stroke="midnightblue" points="97.99,-85.23 93.25,-75.76 91.04,-86.12 97.99,-85.23"/>
</g>
<!-- Node5 -->
<g id="node5" class="node">
<title>Node5</title>
<g id="a_node5"><a xlink:title=" ">
<polygon fill="white" stroke="#bfbfbf" points="133.5,-0.5 133.5,-19.5 183.5,-19.5 183.5,-0.5 133.5,-0.5"/>
<text text-anchor="middle" x="158.5" y="-7.5" font-family="Helvetica,sans-Serif" font-size="10.00">cstring</text>
</a>
</g>
</g>
<!-- Node1&#45;&gt;Node5 -->
<g id="edge41" class="edge">
<title>Node1&#45;&gt;Node5</title>
<path fill="none" stroke="midnightblue" d="M437.37,-224.37C392.8,-203.61 280.07,-147.26 204.5,-76 189.63,-61.97 176.59,-42.46 168.23,-28.49"/>
<polygon fill="midnightblue" stroke="midnightblue" points="171.26,-26.73 163.22,-19.83 165.2,-30.24 171.26,-26.73"/>
</g>
<!-- Node7 -->
<g id="node7" class="node">
<title>Node7</title>
<g id="a_node7"><a xlink:href="ring__buffer__types_8h.html" target="_top" xlink:title=" ">
<polygon fill="white" stroke="black" points="732.5,-168.5 732.5,-187.5 842.5,-187.5 842.5,-168.5 732.5,-168.5"/>
<text text-anchor="middle" x="787.5" y="-175.5" font-family="Helvetica,sans-Serif" font-size="10.00">ring_buffer_types.h</text>
</a>
</g>
</g>
<!-- Node1&#45;&gt;Node7 -->
<g id="edge6" class="edge">
<title>Node1&#45;&gt;Node7</title>
<path fill="none" stroke="midnightblue" d="M508.95,-224.44C567.66,-214.87 662.73,-199.36 725.18,-189.17"/>
<polygon fill="midnightblue" stroke="midnightblue" points="725.99,-192.58 735.3,-187.52 724.86,-185.67 725.99,-192.58"/>
</g>
<!-- Node28 -->
<g id="node28" class="node">
<title>Node28</title>
<g id="a_node28"><a xlink:title=" ">
<polygon fill="white" stroke="#bfbfbf" points="861,-168.5 861,-187.5 926,-187.5 926,-168.5 861,-168.5"/>
<text text-anchor="middle" x="893.5" y="-175.5" font-family="Helvetica,sans-Serif" font-size="10.00">functional</text>
</a>
</g>
</g>
<!-- Node1&#45;&gt;Node28 -->
<g id="edge42" class="edge">
<title>Node1&#45;&gt;Node28</title>
<path fill="none" stroke="midnightblue" d="M511.04,-228.48C585.52,-221.94 723.37,-208.5 850.62,-188"/>
<polygon fill="midnightblue" stroke="midnightblue" points="851.24,-191.44 860.54,-186.38 850.11,-184.53 851.24,-191.44"/>
</g>
<!-- Node3 -->
<g id="node3" class="node">
<title>Node3</title>
<g id="a_node3"><a xlink:title=" ">
<polygon fill="white" stroke="#bfbfbf" points="201.5,-0.5 201.5,-19.5 251.5,-19.5 251.5,-0.5 201.5,-0.5"/>
<text text-anchor="middle" x="226.5" y="-7.5" font-family="Helvetica,sans-Serif" font-size="10.00">cstdint</text>
</a>
</g>
</g>
<!-- Node2&#45;&gt;Node3 -->
<g id="edge2" class="edge">
<title>Node2&#45;&gt;Node3</title>
<path fill="none" stroke="midnightblue" d="M113.73,-56.44C135.88,-47.52 170.82,-33.44 195.94,-23.32"/>
<polygon fill="midnightblue" stroke="midnightblue" points="197.4,-26.5 205.37,-19.52 194.78,-20.01 197.4,-26.5"/>
</g>
<!-- Node4 -->
<g id="node4" class="node">
<title>Node4</title>
<g id="a_node4"><a xlink:title=" ">
<polygon fill="white" stroke="#bfbfbf" points="0,-0.5 0,-19.5 49,-19.5 49,-0.5 0,-0.5"/>
<text text-anchor="middle" x="24.5" y="-7.5" font-family="Helvetica,sans-Serif" font-size="10.00">cstdlib</text>
</a>
</g>
</g>
<!-- Node2&#45;&gt;Node4 -->
<g id="edge3" class="edge">
<title>Node2&#45;&gt;Node4</title>
<path fill="none" stroke="midnightblue" d="M81.57,-56.32C71.33,-48.18 55.78,-35.84 43.5,-26.09"/>
<polygon fill="midnightblue" stroke="midnightblue" points="45.63,-23.31 35.62,-19.83 41.28,-28.79 45.63,-23.31"/>
</g>
<!-- Node2&#45;&gt;Node5 -->
<g id="edge4" class="edge">
<title>Node2&#45;&gt;Node5</title>
<path fill="none" stroke="midnightblue" d="M103.1,-56.32C112.96,-48.26 127.85,-36.08 139.72,-26.37"/>
<polygon fill="midnightblue" stroke="midnightblue" points="142.18,-28.88 147.7,-19.83 137.75,-23.46 142.18,-28.88"/>
</g>
<!-- Node6 -->
<g id="node6" class="node">
<title>Node6</title>
<g id="a_node6"><a xlink:title=" ">
<polygon fill="white" stroke="#bfbfbf" points="67.5,-0.5 67.5,-19.5 115.5,-19.5 115.5,-0.5 67.5,-0.5"/>
<text text-anchor="middle" x="91.5" y="-7.5" font-family="Helvetica,sans-Serif" font-size="10.00">mutex</text>
</a>
</g>
</g>
<!-- Node2&#45;&gt;Node6 -->
<g id="edge5" class="edge">
<title>Node2&#45;&gt;Node6</title>
<path fill="none" stroke="midnightblue" d="M92.33,-56.08C92.2,-49.01 92.02,-38.86 91.85,-29.99"/>
<polygon fill="midnightblue" stroke="midnightblue" points="95.35,-29.68 91.66,-19.75 88.35,-29.81 95.35,-29.68"/>
</g>
<!-- Node8 -->
<g id="node8" class="node">
<title>Node8</title>
<g id="a_node8"><a xlink:href="include_2ccf_2ds_2hash_8h.html" target="_top" xlink:title=" ">
<polygon fill="white" stroke="black" points="357.5,-112.5 357.5,-131.5 437.5,-131.5 437.5,-112.5 357.5,-112.5"/>
<text text-anchor="middle" x="397.5" y="-119.5" font-family="Helvetica,sans-Serif" font-size="10.00">ccf/ds/hash.h</text>
</a>
</g>
</g>
<!-- Node7&#45;&gt;Node8 -->
<g id="edge7" class="edge">
<title>Node7&#45;&gt;Node8</title>
<path fill="none" stroke="midnightblue" d="M732.45,-169.38C656.7,-158.89 521.41,-140.16 448.09,-130"/>
<polygon fill="midnightblue" stroke="midnightblue" points="448.12,-126.48 437.73,-128.57 447.16,-133.41 448.12,-126.48"/>
</g>
<!-- Node11 -->
<g id="node11" class="node">
<title>Node11</title>
<g id="a_node11"><a xlink:title=" ">
<polygon fill="white" stroke="#bfbfbf" points="541,-0.5 541,-19.5 588,-19.5 588,-0.5 541,-0.5"/>
<text text-anchor="middle" x="564.5" y="-7.5" font-family="Helvetica,sans-Serif" font-size="10.00">vector</text>
</a>
</g>
</g>
<!-- Node7&#45;&gt;Node11 -->
<g id="edge40" class="edge">
<title>Node7&#45;&gt;Node11</title>
<path fill="none" stroke="midnightblue" d="M751.22,-168.41C705.78,-155.79 628.57,-127.92 584.5,-76 573.41,-62.93 568.46,-43.78 566.26,-29.65"/>
<polygon fill="midnightblue" stroke="midnightblue" points="569.72,-29.1 565.02,-19.6 562.77,-29.96 569.72,-29.1"/>
</g>
<!-- Node14 -->
<g id="node14" class="node">
<title>Node14</title>
<g id="a_node14"><a xlink:href="nonstd_8h.html" target="_top" xlink:title=" ">
<polygon fill="white" stroke="black" points="958.5,-56.5 958.5,-75.5 1048.5,-75.5 1048.5,-56.5 958.5,-56.5"/>
<text text-anchor="middle" x="1003.5" y="-63.5" font-family="Helvetica,sans-Serif" font-size="10.00">ccf/ds/nonstd.h</text>
</a>
</g>
</g>
<!-- Node7&#45;&gt;Node14 -->
<g id="edge16" class="edge">
<title>Node7&#45;&gt;Node14</title>
<path fill="none" stroke="midnightblue" d="M801.64,-168.31C822.94,-155.37 864.68,-130.56 901.5,-112 925.12,-100.1 952.58,-88.08 973.06,-79.46"/>
<polygon fill="midnightblue" stroke="midnightblue" points="974.62,-82.6 982.5,-75.52 971.93,-76.14 974.62,-82.6"/>
</g>
<!-- Node17 -->
<g id="node17" class="node">
<title>Node17</title>
<g id="a_node17"><a xlink:title=" ">
<polygon fill="white" stroke="#bfbfbf" points="734.5,-0.5 734.5,-19.5 778.5,-19.5 778.5,-0.5 734.5,-0.5"/>
<text text-anchor="middle" x="756.5" y="-7.5" font-family="Helvetica,sans-Serif" font-size="10.00">string</text>
</a>
</g>
</g>
<!-- Node7&#45;&gt;Node17 -->
<g id="edge39" class="edge">
<title>Node7&#45;&gt;Node17</title>
<path fill="none" stroke="midnightblue" d="M784.93,-168.44C782.29,-159.43 778.21,-144.82 775.5,-132 767.91,-96.06 761.91,-53.53 758.81,-29.67"/>
<polygon fill="midnightblue" stroke="midnightblue" points="762.26,-29.04 757.53,-19.56 755.32,-29.93 762.26,-29.04"/>
</g>
<!-- Node20 -->
<g id="node20" class="node">
<title>Node20</title>
<g id="a_node20"><a xlink:href="serializer_8h.html" target="_top" xlink:title=" ">
<polygon fill="white" stroke="black" points="784.5,-112.5 784.5,-131.5 854.5,-131.5 854.5,-112.5 784.5,-112.5"/>
<text text-anchor="middle" x="819.5" y="-119.5" font-family="Helvetica,sans-Serif" font-size="10.00">serializer.h</text>
</a>
</g>
</g>
<!-- Node7&#45;&gt;Node20 -->
<g id="edge24" class="edge">
<title>Node7&#45;&gt;Node20</title>
<path fill="none" stroke="midnightblue" d="M792.78,-168.08C797.21,-160.61 803.66,-149.72 809.12,-140.52"/>
<polygon fill="midnightblue" stroke="midnightblue" points="812.23,-142.14 814.31,-131.75 806.21,-138.57 812.23,-142.14"/>
</g>
<!-- Node25 -->
<g id="node25" class="node">
<title>Node25</title>
<g id="a_node25"><a xlink:title=" ">
<polygon fill="white" stroke="#bfbfbf" points="910.5,-112.5 910.5,-131.5 960.5,-131.5 960.5,-112.5 910.5,-112.5"/>
<text text-anchor="middle" x="935.5" y="-119.5" font-family="Helvetica,sans-Serif" font-size="10.00">atomic</text>
</a>
</g>
</g>
<!-- Node7&#45;&gt;Node25 -->
<g id="edge36" class="edge">
<title>Node7&#45;&gt;Node25</title>
<path fill="none" stroke="midnightblue" d="M810.95,-168.44C835.63,-159.44 874.69,-145.19 902.48,-135.05"/>
<polygon fill="midnightblue" stroke="midnightblue" points="903.96,-138.23 912.16,-131.52 901.56,-131.66 903.96,-138.23"/>
</g>
<!-- Node26 -->
<g id="node26" class="node">
<title>Node26</title>
<g id="a_node26"><a xlink:title=" ">
<polygon fill="white" stroke="#bfbfbf" points="979,-112.5 979,-131.5 1058,-131.5 1058,-112.5 979,-112.5"/>
<text text-anchor="middle" x="1018.5" y="-119.5" font-family="Helvetica,sans-Serif" font-size="10.00">fmt/format.h</text>
</a>
</g>
</g>
<!-- Node7&#45;&gt;Node26 -->
<g id="edge37" class="edge">
<title>Node7&#45;&gt;Node26</title>
<path fill="none" stroke="midnightblue" d="M824.1,-168.44C864.23,-159.06 928.7,-143.99 972.28,-133.8"/>
<polygon fill="midnightblue" stroke="midnightblue" points="973.13,-137.2 982.07,-131.52 971.53,-130.38 973.13,-137.2"/>
</g>
<!-- Node27 -->
<g id="node27" class="node">
<title>Node27</title>
<g id="a_node27"><a xlink:title=" ">
<polygon fill="white" stroke="#bfbfbf" points="1075.5,-112.5 1075.5,-131.5 1131.5,-131.5 1131.5,-112.5 1075.5,-112.5"/>
<text text-anchor="middle" x="1103.5" y="-119.5" font-family="Helvetica,sans-Serif" font-size="10.00">optional</text>
</a>
</g>
</g>
<!-- Node7&#45;&gt;Node27 -->
<g id="edge38" class="edge">
<title>Node7&#45;&gt;Node27</title>
<path fill="none" stroke="midnightblue" d="M842.66,-168.71C907.29,-158.9 1011.52,-142.77 1065.22,-132.32"/>
<polygon fill="midnightblue" stroke="midnightblue" points="1066.14,-135.7 1075.25,-130.3 1064.76,-128.84 1066.14,-135.7"/>
</g>
<!-- Node8&#45;&gt;Node3 -->
<g id="edge13" class="edge">
<title>Node8&#45;&gt;Node3</title>
<path fill="none" stroke="midnightblue" d="M357.13,-116.88C308.47,-110.99 231.01,-98.31 213.5,-76 202.88,-62.47 209.1,-42.57 216.11,-28.36"/>
<polygon fill="midnightblue" stroke="midnightblue" points="219.18,-30.04 220.89,-19.58 213.03,-26.69 219.18,-30.04"/>
</g>
<!-- Node9 -->
<g id="node9" class="node">
<title>Node9</title>
<g id="a_node9"><a xlink:href="siphash_8h.html" target="_top" xlink:title=" ">
<polygon fill="white" stroke="black" points="223,-56.5 223,-75.5 318,-75.5 318,-56.5 223,-56.5"/>
<text text-anchor="middle" x="270.5" y="-63.5" font-family="Helvetica,sans-Serif" font-size="10.00">ccf/ds/siphash.h</text>
</a>
</g>
</g>
<!-- Node8&#45;&gt;Node9 -->
<g id="edge8" class="edge">
<title>Node8&#45;&gt;Node9</title>
<path fill="none" stroke="midnightblue" d="M377.38,-112.44C356.48,-103.56 323.57,-89.56 299.78,-79.45"/>
<polygon fill="midnightblue" stroke="midnightblue" points="301.1,-76.21 290.53,-75.52 298.36,-82.65 301.1,-76.21"/>
</g>
<!-- Node8&#45;&gt;Node11 -->
<g id="edge15" class="edge">
<title>Node8&#45;&gt;Node11</title>
<path fill="none" stroke="midnightblue" d="M387.22,-112.35C372.86,-99.25 350.11,-73.99 364.5,-56 384.94,-30.45 479.16,-18.39 530.65,-13.62"/>
<polygon fill="midnightblue" stroke="midnightblue" points="531,-17.11 540.65,-12.74 530.38,-10.13 531,-17.11"/>
</g>
<!-- Node12 -->
<g id="node12" class="node">
<title>Node12</title>
<g id="a_node12"><a xlink:title=" ">
<polygon fill="white" stroke="#bfbfbf" points="808.5,-0.5 808.5,-19.5 850.5,-19.5 850.5,-0.5 808.5,-0.5"/>
<text text-anchor="middle" x="829.5" y="-7.5" font-family="Helvetica,sans-Serif" font-size="10.00">array</text>
</a>
</g>
</g>
<!-- Node8&#45;&gt;Node12 -->
<g id="edge12" class="edge">
<title>Node8&#45;&gt;Node12</title>
<path fill="none" stroke="midnightblue" d="M437.83,-118.96C496.44,-115.12 608.02,-104.44 698.5,-76 738.66,-63.38 781.76,-39.84 807.13,-24.82"/>
<polygon fill="midnightblue" stroke="midnightblue" points="809.18,-27.67 815.95,-19.52 805.58,-21.67 809.18,-27.67"/>
</g>
<!-- Node13 -->
<g id="node13" class="node">
<title>Node13</title>
<g id="a_node13"><a xlink:title=" ">
<polygon fill="white" stroke="#bfbfbf" points="374,-56.5 374,-75.5 523,-75.5 523,-56.5 374,-56.5"/>
<text text-anchor="middle" x="448.5" y="-63.5" font-family="Helvetica,sans-Serif" font-size="10.00">small_vector/SmallVector.h</text>
</a>
</g>
</g>
<!-- Node8&#45;&gt;Node13 -->
<g id="edge14" class="edge">
<title>Node8&#45;&gt;Node13</title>
<path fill="none" stroke="midnightblue" d="M405.92,-112.08C413.35,-104.22 424.35,-92.57 433.31,-83.08"/>
<polygon fill="midnightblue" stroke="midnightblue" points="435.91,-85.42 440.24,-75.75 430.82,-80.62 435.91,-85.42"/>
</g>
<!-- Node9&#45;&gt;Node3 -->
<g id="edge10" class="edge">
<title>Node9&#45;&gt;Node3</title>
<path fill="none" stroke="midnightblue" d="M263.23,-56.08C256.96,-48.38 247.71,-37.03 240.07,-27.65"/>
<polygon fill="midnightblue" stroke="midnightblue" points="242.66,-25.29 233.63,-19.75 237.23,-29.71 242.66,-25.29"/>
</g>
<!-- Node10 -->
<g id="node10" class="node">
<title>Node10</title>
<g id="a_node10"><a xlink:title=" ">
<polygon fill="white" stroke="#bfbfbf" points="270,-0.5 270,-19.5 323,-19.5 323,-0.5 270,-0.5"/>
<text text-anchor="middle" x="296.5" y="-7.5" font-family="Helvetica,sans-Serif" font-size="10.00">cstddef</text>
</a>
</g>
</g>
<!-- Node9&#45;&gt;Node10 -->
<g id="edge9" class="edge">
<title>Node9&#45;&gt;Node10</title>
<path fill="none" stroke="midnightblue" d="M274.79,-56.08C278.35,-48.69 283.52,-37.95 287.92,-28.81"/>
<polygon fill="midnightblue" stroke="midnightblue" points="291.1,-30.28 292.29,-19.75 284.79,-27.24 291.1,-30.28"/>
</g>
<!-- Node9&#45;&gt;Node11 -->
<g id="edge11" class="edge">
<title>Node9&#45;&gt;Node11</title>
<path fill="none" stroke="midnightblue" d="M317.09,-56.44C376.62,-45.51 478.23,-26.84 530.79,-17.19"/>
<polygon fill="midnightblue" stroke="midnightblue" points="531.73,-20.58 540.93,-15.33 530.46,-13.69 531.73,-20.58"/>
</g>
<!-- Node14&#45;&gt;Node11 -->
<g id="edge23" class="edge">
<title>Node14&#45;&gt;Node11</title>
<path fill="none" stroke="midnightblue" d="M958.24,-60.24C869.91,-50.87 677.44,-30.08 611.5,-20 607.25,-19.35 602.8,-18.6 598.4,-17.8"/>
<polygon fill="midnightblue" stroke="midnightblue" points="598.82,-14.32 588.35,-15.93 597.54,-21.2 598.82,-14.32"/>
</g>
<!-- Node14&#45;&gt;Node12 -->
<g id="edge18" class="edge">
<title>Node14&#45;&gt;Node12</title>
<path fill="none" stroke="midnightblue" d="M975.93,-56.44C944.54,-46.7 893.38,-30.83 860.6,-20.65"/>
<polygon fill="midnightblue" stroke="midnightblue" points="861.24,-17.18 850.65,-17.56 859.16,-23.87 861.24,-17.18"/>
</g>
<!-- Node15 -->
<g id="node15" class="node">
<title>Node15</title>
<g id="a_node15"><a xlink:title=" ">
<polygon fill="white" stroke="#bfbfbf" points="1058.5,-0.5 1058.5,-19.5 1122.5,-19.5 1122.5,-0.5 1058.5,-0.5"/>
<text text-anchor="middle" x="1090.5" y="-7.5" font-family="Helvetica,sans-Serif" font-size="10.00">algorithm</text>
</a>
</g>
</g>
<!-- Node14&#45;&gt;Node15 -->
<g id="edge17" class="edge">
<title>Node14&#45;&gt;Node15</title>
<path fill="none" stroke="midnightblue" d="M1017.48,-56.32C1031.05,-47.9 1051.88,-34.97 1067.82,-25.07"/>
<polygon fill="midnightblue" stroke="midnightblue" points="1069.91,-27.9 1076.56,-19.65 1066.21,-21.95 1069.91,-27.9"/>
</g>
<!-- Node16 -->
<g id="node16" class="node">
<title>Node16</title>
<g id="a_node16"><a xlink:title=" ">
<polygon fill="white" stroke="#bfbfbf" points="1141,-0.5 1141,-19.5 1190,-19.5 1190,-0.5 1141,-0.5"/>
<text text-anchor="middle" x="1165.5" y="-7.5" font-family="Helvetica,sans-Serif" font-size="10.00">cctype</text>
</a>
</g>
</g>
<!-- Node14&#45;&gt;Node16 -->
<g id="edge19" class="edge">
<title>Node14&#45;&gt;Node16</title>
<path fill="none" stroke="midnightblue" d="M1029.17,-56.44C1056.66,-47.28 1100.45,-32.68 1130.95,-22.52"/>
<polygon fill="midnightblue" stroke="midnightblue" points="1132.37,-25.73 1140.75,-19.25 1130.15,-19.09 1132.37,-25.73"/>
</g>
<!-- Node14&#45;&gt;Node17 -->
<g id="edge20" class="edge">
<title>Node14&#45;&gt;Node17</title>
<path fill="none" stroke="midnightblue" d="M964.36,-56.44C915.65,-45.79 833.39,-27.81 788.35,-17.96"/>
<polygon fill="midnightblue" stroke="midnightblue" points="789.05,-14.53 778.53,-15.82 787.55,-21.37 789.05,-14.53"/>
</g>
<!-- Node18 -->
<g id="node18" class="node">
<title>Node18</title>
<g id="a_node18"><a xlink:title=" ">
<polygon fill="white" stroke="#bfbfbf" points="967,-0.5 967,-19.5 1040,-19.5 1040,-0.5 967,-0.5"/>
<text text-anchor="middle" x="1003.5" y="-7.5" font-family="Helvetica,sans-Serif" font-size="10.00">string_view</text>
</a>
</g>
</g>
<!-- Node14&#45;&gt;Node18 -->
<g id="edge21" class="edge">
<title>Node14&#45;&gt;Node18</title>
<path fill="none" stroke="midnightblue" d="M1003.5,-56.08C1003.5,-49.01 1003.5,-38.86 1003.5,-29.99"/>
<polygon fill="midnightblue" stroke="midnightblue" points="1007,-29.75 1003.5,-19.75 1000,-29.75 1007,-29.75"/>
</g>
<!-- Node19 -->
<g id="node19" class="node">
<title>Node19</title>
<g id="a_node19"><a xlink:title=" ">
<polygon fill="white" stroke="#bfbfbf" points="880,-0.5 880,-19.5 949,-19.5 949,-0.5 880,-0.5"/>
<text text-anchor="middle" x="914.5" y="-7.5" font-family="Helvetica,sans-Serif" font-size="10.00">type_traits</text>
</a>
</g>
</g>
<!-- Node14&#45;&gt;Node19 -->
<g id="edge22" class="edge">
<title>Node14&#45;&gt;Node19</title>
<path fill="none" stroke="midnightblue" d="M989.2,-56.32C975.32,-47.9 954.01,-34.97 937.7,-25.07"/>
<polygon fill="midnightblue" stroke="midnightblue" points="939.13,-21.85 928.76,-19.65 935.5,-27.83 939.13,-21.85"/>
</g>
<!-- Node20&#45;&gt;Node11 -->
<g id="edge35" class="edge">
<title>Node20&#45;&gt;Node11</title>
<path fill="none" stroke="midnightblue" d="M784.45,-121.44C739.66,-120.35 661.46,-112.74 607.5,-76 590.6,-64.49 578.67,-43.92 571.73,-28.99"/>
<polygon fill="midnightblue" stroke="midnightblue" points="574.91,-27.53 567.72,-19.75 568.48,-30.31 574.91,-27.53"/>
</g>
<!-- Node20&#45;&gt;Node14 -->
<g id="edge25" class="edge">
<title>Node20&#45;&gt;Node14</title>
<path fill="none" stroke="midnightblue" d="M848.66,-112.44C880.01,-103.24 930.03,-88.56 964.7,-78.39"/>
<polygon fill="midnightblue" stroke="midnightblue" points="965.87,-81.69 974.48,-75.52 963.9,-74.97 965.87,-81.69"/>
</g>
<!-- Node20&#45;&gt;Node19 -->
<g id="edge34" class="edge">
<title>Node20&#45;&gt;Node19</title>
<path fill="none" stroke="midnightblue" d="M854.74,-113.22C874.92,-106.8 898.72,-95.47 911.5,-76 920.4,-62.44 920.26,-43.64 918.42,-29.74"/>
<polygon fill="midnightblue" stroke="midnightblue" points="921.86,-29.11 916.72,-19.85 914.97,-30.29 921.86,-29.11"/>
</g>
<!-- Node21 -->
<g id="node21" class="node">
<title>Node21</title>
<g id="a_node21"><a xlink:href="serialized_8h.html" target="_top" xlink:title=" ">
<polygon fill="white" stroke="black" points="617,-56.5 617,-75.5 690,-75.5 690,-56.5 617,-56.5"/>
<text text-anchor="middle" x="653.5" y="-63.5" font-family="Helvetica,sans-Serif" font-size="10.00">serialized.h</text>
</a>
</g>
</g>
<!-- Node20&#45;&gt;Node21 -->
<g id="edge26" class="edge">
<title>Node20&#45;&gt;Node21</title>
<path fill="none" stroke="midnightblue" d="M793.2,-112.44C765.15,-103.32 720.56,-88.81 689.32,-78.65"/>
<polygon fill="midnightblue" stroke="midnightblue" points="690.27,-75.28 679.68,-75.52 688.11,-81.94 690.27,-75.28"/>
</g>
<!-- Node23 -->
<g id="node23" class="node">
<title>Node23</title>
<g id="a_node23"><a xlink:title=" ">
<polygon fill="white" stroke="#bfbfbf" points="784.5,-56.5 784.5,-75.5 842.5,-75.5 842.5,-56.5 784.5,-56.5"/>
<text text-anchor="middle" x="813.5" y="-63.5" font-family="Helvetica,sans-Serif" font-size="10.00">memory</text>
</a>
</g>
</g>
<!-- Node20&#45;&gt;Node23 -->
<g id="edge32" class="edge">
<title>Node20&#45;&gt;Node23</title>
<path fill="none" stroke="midnightblue" d="M818.51,-112.08C817.71,-104.93 816.57,-94.64 815.58,-85.69"/>
<polygon fill="midnightblue" stroke="midnightblue" points="819.06,-85.3 814.47,-75.75 812.1,-86.08 819.06,-85.3"/>
</g>
<!-- Node24 -->
<g id="node24" class="node">
<title>Node24</title>
<g id="a_node24"><a xlink:title=" ">
<polygon fill="white" stroke="#bfbfbf" points="861,-56.5 861,-75.5 902,-75.5 902,-56.5 861,-56.5"/>
<text text-anchor="middle" x="881.5" y="-63.5" font-family="Helvetica,sans-Serif" font-size="10.00">tuple</text>
</a>
</g>
</g>
<!-- Node20&#45;&gt;Node24 -->
<g id="edge33" class="edge">
<title>Node20&#45;&gt;Node24</title>
<path fill="none" stroke="midnightblue" d="M829.46,-112.32C838.63,-104.34 852.44,-92.31 863.53,-82.65"/>
<polygon fill="midnightblue" stroke="midnightblue" points="866.12,-85.04 871.36,-75.83 861.52,-79.76 866.12,-85.04"/>
</g>
<!-- Node21&#45;&gt;Node3 -->
<g id="edge27" class="edge">
<title>Node21&#45;&gt;Node3</title>
<path fill="none" stroke="midnightblue" d="M616.93,-62.59C548.87,-57.72 398.01,-45.13 261.85,-20"/>
<polygon fill="midnightblue" stroke="midnightblue" points="262.13,-16.5 251.66,-18.09 260.84,-23.38 262.13,-16.5"/>
</g>
<!-- Node21&#45;&gt;Node5 -->
<g id="edge28" class="edge">
<title>Node21&#45;&gt;Node5</title>
<path fill="none" stroke="midnightblue" d="M616.94,-62.2C526.16,-55.13 291.32,-36.07 193.75,-19.9"/>
<polygon fill="midnightblue" stroke="midnightblue" points="194.1,-16.41 183.65,-18.14 192.9,-23.3 194.1,-16.41"/>
</g>
<!-- Node21&#45;&gt;Node11 -->
<g id="edge31" class="edge">
<title>Node21&#45;&gt;Node11</title>
<path fill="none" stroke="midnightblue" d="M639.2,-56.32C625.32,-47.9 604.01,-34.97 587.7,-25.07"/>
<polygon fill="midnightblue" stroke="midnightblue" points="589.13,-21.85 578.76,-19.65 585.5,-27.83 589.13,-21.85"/>
</g>
<!-- Node21&#45;&gt;Node17 -->
<g id="edge30" class="edge">
<title>Node21&#45;&gt;Node17</title>
<path fill="none" stroke="midnightblue" d="M670.05,-56.32C686.49,-47.7 711.93,-34.36 730.97,-24.39"/>
<polygon fill="midnightblue" stroke="midnightblue" points="732.76,-27.4 739.99,-19.65 729.51,-21.2 732.76,-27.4"/>
</g>
<!-- Node22 -->
<g id="node22" class="node">
<title>Node22</title>
<g id="a_node22"><a xlink:title=" ">
<polygon fill="white" stroke="#bfbfbf" points="621,-0.5 621,-19.5 686,-19.5 686,-0.5 621,-0.5"/>
<text text-anchor="middle" x="653.5" y="-7.5" font-family="Helvetica,sans-Serif" font-size="10.00">stdexcept</text>
</a>
</g>
</g>
<!-- Node21&#45;&gt;Node22 -->
<g id="edge29" class="edge">
<title>Node21&#45;&gt;Node22</title>
<path fill="none" stroke="midnightblue" d="M653.5,-56.08C653.5,-49.01 653.5,-38.86 653.5,-29.99"/>
<polygon fill="midnightblue" stroke="midnightblue" points="657,-29.75 653.5,-19.75 650,-29.75 657,-29.75"/>
</g>
</g>
</svg>
