<?xml version="1.0" encoding="UTF-8" standalone="no"?>
<!DOCTYPE svg PUBLIC "-//W3C//DTD SVG 1.1//EN"
 "http://www.w3.org/Graphics/SVG/1.1/DTD/svg11.dtd">
<!-- Generated by graphviz version 2.43.0 (0)
 -->
<!-- Title: src/host/sig_term.h Pages: 1 -->
<svg width="1617pt" height="532pt"
 viewBox="0.00 0.00 1616.50 532.00" xmlns="http://www.w3.org/2000/svg" xmlns:xlink="http://www.w3.org/1999/xlink">
<g id="graph0" class="graph" transform="scale(1 1) rotate(0) translate(4 528)">
<title>src/host/sig_term.h</title>
<polygon fill="white" stroke="transparent" points="-4,4 -4,-528 1612.5,-528 1612.5,4 -4,4"/>
<!-- Node1 -->
<g id="node1" class="node">
<title>Node1</title>
<g id="a_node1"><a xlink:title=" ">
<polygon fill="#bfbfbf" stroke="black" points="301,-504.5 301,-523.5 411,-523.5 411,-504.5 301,-504.5"/>
<text text-anchor="middle" x="356" y="-511.5" font-family="Helvetica,sans-Serif" font-size="10.00">src/host/sig_term.h</text>
</a>
</g>
</g>
<!-- Node2 -->
<g id="node2" class="node">
<title>Node2</title>
<g id="a_node2"><a xlink:href="host_2enclave_8h.html" target="_top" xlink:title=" ">
<polygon fill="white" stroke="black" points="513,-448.5 513,-467.5 577,-467.5 577,-448.5 513,-448.5"/>
<text text-anchor="middle" x="545" y="-455.5" font-family="Helvetica,sans-Serif" font-size="10.00">enclave.h</text>
</a>
</g>
</g>
<!-- Node1&#45;&gt;Node2 -->
<g id="edge1" class="edge">
<title>Node1&#45;&gt;Node2</title>
<path fill="none" stroke="midnightblue" d="M385.95,-504.44C418.16,-495.24 469.53,-480.56 505.14,-470.39"/>
<polygon fill="midnightblue" stroke="midnightblue" points="506.54,-473.63 515.19,-467.52 504.62,-466.9 506.54,-473.63"/>
</g>
<!-- Node48 -->
<g id="node48" class="node">
<title>Node48</title>
<g id="a_node48"><a xlink:title=" ">
<polygon fill="white" stroke="#bfbfbf" points="331,-336.5 331,-355.5 381,-355.5 381,-336.5 331,-336.5"/>
<text text-anchor="middle" x="356" y="-343.5" font-family="Helvetica,sans-Serif" font-size="10.00">chrono</text>
</a>
</g>
</g>
<!-- Node1&#45;&gt;Node48 -->
<g id="edge84" class="edge">
<title>Node1&#45;&gt;Node48</title>
<path fill="none" stroke="midnightblue" d="M356,-504.08C356,-477.95 356,-401.21 356,-365.58"/>
<polygon fill="midnightblue" stroke="midnightblue" points="359.5,-365.57 356,-355.57 352.5,-365.57 359.5,-365.57"/>
</g>
<!-- Node51 -->
<g id="node51" class="node">
<title>Node51</title>
<g id="a_node51"><a xlink:href="signal_8h.html" target="_top" xlink:title=" ">
<polygon fill="white" stroke="black" points="272.5,-392.5 272.5,-411.5 327.5,-411.5 327.5,-392.5 272.5,-392.5"/>
<text text-anchor="middle" x="300" y="-399.5" font-family="Helvetica,sans-Serif" font-size="10.00">signal.h</text>
</a>
</g>
</g>
<!-- Node1&#45;&gt;Node51 -->
<g id="edge79" class="edge">
<title>Node1&#45;&gt;Node51</title>
<path fill="none" stroke="midnightblue" d="M351.61,-504.37C342.45,-486.38 321.15,-444.55 308.97,-420.63"/>
<polygon fill="midnightblue" stroke="midnightblue" points="312.03,-418.92 304.37,-411.59 305.79,-422.09 312.03,-418.92"/>
</g>
<!-- Node3 -->
<g id="node3" class="node">
<title>Node3</title>
<g id="a_node3"><a xlink:href="logger_8h.html" target="_top" xlink:title=" ">
<polygon fill="white" stroke="black" points="416.5,-224.5 416.5,-243.5 503.5,-243.5 503.5,-224.5 416.5,-224.5"/>
<text text-anchor="middle" x="460" y="-231.5" font-family="Helvetica,sans-Serif" font-size="10.00">ccf/ds/logger.h</text>
</a>
</g>
</g>
<!-- Node2&#45;&gt;Node3 -->
<g id="edge2" class="edge">
<title>Node2&#45;&gt;Node3</title>
<path fill="none" stroke="midnightblue" d="M573.74,-448.44C601.85,-438.33 638.82,-419.35 627,-392 597.81,-324.49 523.71,-272.62 484.77,-249"/>
<polygon fill="midnightblue" stroke="midnightblue" points="486.07,-245.7 475.68,-243.61 482.5,-251.72 486.07,-245.7"/>
</g>
<!-- Node17 -->
<g id="node17" class="node">
<title>Node17</title>
<g id="a_node17"><a xlink:title=" ">
<polygon fill="white" stroke="#bfbfbf" points="384.5,-392.5 384.5,-411.5 463.5,-411.5 463.5,-392.5 384.5,-392.5"/>
<text text-anchor="middle" x="424" y="-399.5" font-family="Helvetica,sans-Serif" font-size="10.00">ccf/version.h</text>
</a>
</g>
</g>
<!-- Node2&#45;&gt;Node17 -->
<g id="edge18" class="edge">
<title>Node2&#45;&gt;Node17</title>
<path fill="none" stroke="midnightblue" d="M525.83,-448.44C506.09,-439.64 475.11,-425.81 452.51,-415.72"/>
<polygon fill="midnightblue" stroke="midnightblue" points="453.64,-412.4 443.08,-411.52 450.79,-418.79 453.64,-412.4"/>
</g>
<!-- Node18 -->
<g id="node18" class="node">
<title>Node18</title>
<g id="a_node18"><a xlink:href="interface_8h.html" target="_top" xlink:title=" ">
<polygon fill="white" stroke="black" points="754,-392.5 754,-411.5 864,-411.5 864,-392.5 754,-392.5"/>
<text text-anchor="middle" x="809" y="-399.5" font-family="Helvetica,sans-Serif" font-size="10.00">enclave/interface.h</text>
</a>
</g>
</g>
<!-- Node2&#45;&gt;Node18 -->
<g id="edge19" class="edge">
<title>Node2&#45;&gt;Node18</title>
<path fill="none" stroke="midnightblue" d="M577.11,-450.43C621.9,-441.27 703.66,-424.55 757.16,-413.6"/>
<polygon fill="midnightblue" stroke="midnightblue" points="758.03,-417 767.13,-411.56 756.63,-410.14 758.03,-417"/>
</g>
<!-- Node49 -->
<g id="node49" class="node">
<title>Node49</title>
<g id="a_node49"><a xlink:title=" ">
<polygon fill="white" stroke="#bfbfbf" points="482,-392.5 482,-411.5 532,-411.5 532,-392.5 482,-392.5"/>
<text text-anchor="middle" x="507" y="-399.5" font-family="Helvetica,sans-Serif" font-size="10.00">dlfcn.h</text>
</a>
</g>
</g>
<!-- Node2&#45;&gt;Node49 -->
<g id="edge77" class="edge">
<title>Node2&#45;&gt;Node49</title>
<path fill="none" stroke="midnightblue" d="M538.73,-448.08C533.36,-440.46 525.48,-429.26 518.92,-419.94"/>
<polygon fill="midnightblue" stroke="midnightblue" points="521.78,-417.91 513.16,-411.75 516.05,-421.94 521.78,-417.91"/>
</g>
<!-- Node50 -->
<g id="node50" class="node">
<title>Node50</title>
<g id="a_node50"><a xlink:title=" ">
<polygon fill="white" stroke="#bfbfbf" points="550,-392.5 550,-411.5 618,-411.5 618,-392.5 550,-392.5"/>
<text text-anchor="middle" x="584" y="-399.5" font-family="Helvetica,sans-Serif" font-size="10.00">filesystem</text>
</a>
</g>
</g>
<!-- Node2&#45;&gt;Node50 -->
<g id="edge78" class="edge">
<title>Node2&#45;&gt;Node50</title>
<path fill="none" stroke="midnightblue" d="M551.44,-448.08C556.95,-440.46 565.03,-429.26 571.76,-419.94"/>
<polygon fill="midnightblue" stroke="midnightblue" points="574.66,-421.91 577.68,-411.75 568.99,-417.81 574.66,-421.91"/>
</g>
<!-- Node4 -->
<g id="node4" class="node">
<title>Node4</title>
<g id="a_node4"><a xlink:href="enum__formatter_8h.html" target="_top" xlink:title=" ">
<polygon fill="white" stroke="black" points="645,-168.5 645,-187.5 781,-187.5 781,-168.5 645,-168.5"/>
<text text-anchor="middle" x="713" y="-175.5" font-family="Helvetica,sans-Serif" font-size="10.00">ccf/ds/enum_formatter.h</text>
</a>
</g>
</g>
<!-- Node3&#45;&gt;Node4 -->
<g id="edge3" class="edge">
<title>Node3&#45;&gt;Node4</title>
<path fill="none" stroke="midnightblue" d="M500.09,-224.44C544.32,-215 615.54,-199.8 663.28,-189.61"/>
<polygon fill="midnightblue" stroke="midnightblue" points="664.05,-193.03 673.1,-187.52 662.59,-186.18 664.05,-193.03"/>
</g>
<!-- Node5 -->
<g id="node5" class="node">
<title>Node5</title>
<g id="a_node5"><a xlink:title=" ">
<polygon fill="white" stroke="#bfbfbf" points="532.5,-112.5 532.5,-131.5 611.5,-131.5 611.5,-112.5 532.5,-112.5"/>
<text text-anchor="middle" x="572" y="-119.5" font-family="Helvetica,sans-Serif" font-size="10.00">fmt/format.h</text>
</a>
</g>
</g>
<!-- Node3&#45;&gt;Node5 -->
<g id="edge12" class="edge">
<title>Node3&#45;&gt;Node5</title>
<path fill="none" stroke="midnightblue" d="M503.56,-231.6C535.4,-228.01 576.61,-217.47 598,-188 608.76,-173.17 597.84,-153.28 587.03,-139.42"/>
<polygon fill="midnightblue" stroke="midnightblue" points="589.63,-137.07 580.52,-131.67 584.28,-141.57 589.63,-137.07"/>
</g>
<!-- Node6 -->
<g id="node6" class="node">
<title>Node6</title>
<g id="a_node6"><a xlink:href="thread__ids_8h.html" target="_top" xlink:title=" ">
<polygon fill="white" stroke="black" points="66,-168.5 66,-187.5 174,-187.5 174,-168.5 66,-168.5"/>
<text text-anchor="middle" x="120" y="-175.5" font-family="Helvetica,sans-Serif" font-size="10.00">ccf/ds/thread_ids.h</text>
</a>
</g>
</g>
<!-- Node3&#45;&gt;Node6 -->
<g id="edge5" class="edge">
<title>Node3&#45;&gt;Node6</title>
<path fill="none" stroke="midnightblue" d="M416.25,-226.05C357.22,-216.68 251.68,-199.91 183.8,-189.13"/>
<polygon fill="midnightblue" stroke="midnightblue" points="184.09,-185.63 173.66,-187.52 182.99,-192.55 184.09,-185.63"/>
</g>
<!-- Node11 -->
<g id="node11" class="node">
<title>Node11</title>
<g id="a_node11"><a xlink:title=" ">
<polygon fill="white" stroke="#bfbfbf" points="230.5,-168.5 230.5,-187.5 309.5,-187.5 309.5,-168.5 230.5,-168.5"/>
<text text-anchor="middle" x="270" y="-175.5" font-family="Helvetica,sans-Serif" font-size="10.00">fmt/chrono.h</text>
</a>
</g>
</g>
<!-- Node3&#45;&gt;Node11 -->
<g id="edge11" class="edge">
<title>Node3&#45;&gt;Node11</title>
<path fill="none" stroke="midnightblue" d="M429.89,-224.44C397.37,-215.2 345.42,-200.44 309.61,-190.26"/>
<polygon fill="midnightblue" stroke="midnightblue" points="310.54,-186.88 299.97,-187.52 308.63,-193.62 310.54,-186.88"/>
</g>
<!-- Node12 -->
<g id="node12" class="node">
<title>Node12</title>
<g id="a_node12"><a xlink:title=" ">
<polygon fill="white" stroke="#bfbfbf" points="327,-168.5 327,-187.5 387,-187.5 387,-168.5 327,-168.5"/>
<text text-anchor="middle" x="357" y="-175.5" font-family="Helvetica,sans-Serif" font-size="10.00">iostream</text>
</a>
</g>
</g>
<!-- Node3&#45;&gt;Node12 -->
<g id="edge13" class="edge">
<title>Node3&#45;&gt;Node12</title>
<path fill="none" stroke="midnightblue" d="M443.45,-224.32C427.01,-215.7 401.57,-202.36 382.53,-192.39"/>
<polygon fill="midnightblue" stroke="midnightblue" points="383.99,-189.2 373.51,-187.65 380.74,-195.4 383.99,-189.2"/>
</g>
<!-- Node13 -->
<g id="node13" class="node">
<title>Node13</title>
<g id="a_node13"><a xlink:title=" ">
<polygon fill="white" stroke="#bfbfbf" points="405,-168.5 405,-187.5 515,-187.5 515,-168.5 405,-168.5"/>
<text text-anchor="middle" x="460" y="-175.5" font-family="Helvetica,sans-Serif" font-size="10.00">nlohmann/json.hpp</text>
</a>
</g>
</g>
<!-- Node3&#45;&gt;Node13 -->
<g id="edge14" class="edge">
<title>Node3&#45;&gt;Node13</title>
<path fill="none" stroke="midnightblue" d="M460,-224.08C460,-217.01 460,-206.86 460,-197.99"/>
<polygon fill="midnightblue" stroke="midnightblue" points="463.5,-197.75 460,-187.75 456.5,-197.75 463.5,-197.75"/>
</g>
<!-- Node14 -->
<g id="node14" class="node">
<title>Node14</title>
<g id="a_node14"><a xlink:title=" ">
<polygon fill="white" stroke="#bfbfbf" points="629,-112.5 629,-131.5 685,-131.5 685,-112.5 629,-112.5"/>
<text text-anchor="middle" x="657" y="-119.5" font-family="Helvetica,sans-Serif" font-size="10.00">optional</text>
</a>
</g>
</g>
<!-- Node3&#45;&gt;Node14 -->
<g id="edge15" class="edge">
<title>Node3&#45;&gt;Node14</title>
<path fill="none" stroke="midnightblue" d="M416.24,-231.22C354.16,-227.67 245.32,-217.33 221,-188 215.33,-181.16 215,-174.56 221,-168 249.5,-136.81 543.83,-138.96 618.74,-131.59"/>
<polygon fill="midnightblue" stroke="midnightblue" points="619.32,-135.04 628.81,-130.31 618.45,-128.1 619.32,-135.04"/>
</g>
<!-- Node15 -->
<g id="node15" class="node">
<title>Node15</title>
<g id="a_node15"><a xlink:title=" ">
<polygon fill="white" stroke="#bfbfbf" points="533,-168.5 533,-187.5 589,-187.5 589,-168.5 533,-168.5"/>
<text text-anchor="middle" x="561" y="-175.5" font-family="Helvetica,sans-Serif" font-size="10.00">sstream</text>
</a>
</g>
</g>
<!-- Node3&#45;&gt;Node15 -->
<g id="edge16" class="edge">
<title>Node3&#45;&gt;Node15</title>
<path fill="none" stroke="midnightblue" d="M476.23,-224.32C492.35,-215.7 517.3,-202.36 535.96,-192.39"/>
<polygon fill="midnightblue" stroke="midnightblue" points="537.64,-195.46 544.81,-187.65 534.34,-189.28 537.64,-195.46"/>
</g>
<!-- Node16 -->
<g id="node16" class="node">
<title>Node16</title>
<g id="a_node16"><a xlink:title=" ">
<polygon fill="white" stroke="#bfbfbf" points="490.5,-0.5 490.5,-19.5 559.5,-19.5 559.5,-0.5 490.5,-0.5"/>
<text text-anchor="middle" x="525" y="-7.5" font-family="Helvetica,sans-Serif" font-size="10.00">type_traits</text>
</a>
</g>
</g>
<!-- Node3&#45;&gt;Node16 -->
<g id="edge17" class="edge">
<title>Node3&#45;&gt;Node16</title>
<path fill="none" stroke="midnightblue" d="M416.2,-231.34C316.74,-227.13 80.64,-214.43 57,-188 34.48,-162.83 36.62,-138.94 57,-112 107.95,-44.64 372.96,-20.58 480.04,-13.52"/>
<polygon fill="midnightblue" stroke="midnightblue" points="480.44,-17 490.2,-12.87 480,-10.01 480.44,-17"/>
</g>
<!-- Node4&#45;&gt;Node5 -->
<g id="edge4" class="edge">
<title>Node4&#45;&gt;Node5</title>
<path fill="none" stroke="midnightblue" d="M690.66,-168.44C667.25,-159.48 630.26,-145.31 603.81,-135.18"/>
<polygon fill="midnightblue" stroke="midnightblue" points="604.83,-131.82 594.24,-131.52 602.32,-138.36 604.83,-131.82"/>
</g>
<!-- Node6&#45;&gt;Node5 -->
<g id="edge6" class="edge">
<title>Node6&#45;&gt;Node5</title>
<path fill="none" stroke="midnightblue" d="M174.18,-169.75C178.85,-169.15 183.51,-168.56 188,-168 307.83,-153.05 448.88,-136.89 522.14,-128.6"/>
<polygon fill="midnightblue" stroke="midnightblue" points="522.91,-132.04 532.45,-127.44 522.12,-125.08 522.91,-132.04"/>
</g>
<!-- Node7 -->
<g id="node7" class="node">
<title>Node7</title>
<g id="a_node7"><a xlink:title=" ">
<polygon fill="white" stroke="#bfbfbf" points="66,-112.5 66,-131.5 152,-131.5 152,-112.5 66,-112.5"/>
<text text-anchor="middle" x="109" y="-119.5" font-family="Helvetica,sans-Serif" font-size="10.00">fmt/ostream.h</text>
</a>
</g>
</g>
<!-- Node6&#45;&gt;Node7 -->
<g id="edge7" class="edge">
<title>Node6&#45;&gt;Node7</title>
<path fill="none" stroke="midnightblue" d="M118.18,-168.08C116.73,-160.93 114.63,-150.64 112.81,-141.69"/>
<polygon fill="midnightblue" stroke="midnightblue" points="116.21,-140.85 110.78,-131.75 109.35,-142.25 116.21,-140.85"/>
</g>
<!-- Node8 -->
<g id="node8" class="node">
<title>Node8</title>
<g id="a_node8"><a xlink:title=" ">
<polygon fill="white" stroke="#bfbfbf" points="170,-112.5 170,-131.5 214,-131.5 214,-112.5 170,-112.5"/>
<text text-anchor="middle" x="192" y="-119.5" font-family="Helvetica,sans-Serif" font-size="10.00">limits</text>
</a>
</g>
</g>
<!-- Node6&#45;&gt;Node8 -->
<g id="edge8" class="edge">
<title>Node6&#45;&gt;Node8</title>
<path fill="none" stroke="midnightblue" d="M131.57,-168.32C142.42,-160.18 158.88,-147.84 171.88,-138.09"/>
<polygon fill="midnightblue" stroke="midnightblue" points="174.32,-140.63 180.22,-131.83 170.12,-135.03 174.32,-140.63"/>
</g>
<!-- Node9 -->
<g id="node9" class="node">
<title>Node9</title>
<g id="a_node9"><a xlink:title=" ">
<polygon fill="white" stroke="#bfbfbf" points="399,-112.5 399,-131.5 437,-131.5 437,-112.5 399,-112.5"/>
<text text-anchor="middle" x="418" y="-119.5" font-family="Helvetica,sans-Serif" font-size="10.00">map</text>
</a>
</g>
</g>
<!-- Node6&#45;&gt;Node9 -->
<g id="edge9" class="edge">
<title>Node6&#45;&gt;Node9</title>
<path fill="none" stroke="midnightblue" d="M167.22,-168.44C229.43,-157.17 336.97,-137.68 388.63,-128.32"/>
<polygon fill="midnightblue" stroke="midnightblue" points="389.56,-131.71 398.77,-126.48 388.31,-124.82 389.56,-131.71"/>
</g>
<!-- Node10 -->
<g id="node10" class="node">
<title>Node10</title>
<g id="a_node10"><a xlink:title=" ">
<polygon fill="white" stroke="#bfbfbf" points="232,-112.5 232,-131.5 280,-131.5 280,-112.5 232,-112.5"/>
<text text-anchor="middle" x="256" y="-119.5" font-family="Helvetica,sans-Serif" font-size="10.00">thread</text>
</a>
</g>
</g>
<!-- Node6&#45;&gt;Node10 -->
<g id="edge10" class="edge">
<title>Node6&#45;&gt;Node10</title>
<path fill="none" stroke="midnightblue" d="M141.55,-168.44C164.03,-159.52 199.49,-145.44 224.98,-135.32"/>
<polygon fill="midnightblue" stroke="midnightblue" points="226.55,-138.46 234.55,-131.52 223.97,-131.95 226.55,-138.46"/>
</g>
<!-- Node19 -->
<g id="node19" class="node">
<title>Node19</title>
<g id="a_node19"><a xlink:href="oversized_8h.html" target="_top" xlink:title=" ">
<polygon fill="white" stroke="black" points="1033.5,-336.5 1033.5,-355.5 1120.5,-355.5 1120.5,-336.5 1033.5,-336.5"/>
<text text-anchor="middle" x="1077" y="-343.5" font-family="Helvetica,sans-Serif" font-size="10.00">ds/oversized.h</text>
</a>
</g>
</g>
<!-- Node18&#45;&gt;Node19 -->
<g id="edge20" class="edge">
<title>Node18&#45;&gt;Node19</title>
<path fill="none" stroke="midnightblue" d="M851.47,-392.44C898.41,-382.98 974.08,-367.74 1024.65,-357.55"/>
<polygon fill="midnightblue" stroke="midnightblue" points="1025.62,-360.92 1034.73,-355.52 1024.24,-354.06 1025.62,-360.92"/>
</g>
<!-- Node27 -->
<g id="node27" class="node">
<title>Node27</title>
<g id="a_node27"><a xlink:href="ring__buffer__types_8h.html" target="_top" xlink:title=" ">
<polygon fill="white" stroke="black" points="913,-168.5 913,-187.5 1023,-187.5 1023,-168.5 913,-168.5"/>
<text text-anchor="middle" x="968" y="-175.5" font-family="Helvetica,sans-Serif" font-size="10.00">ring_buffer_types.h</text>
</a>
</g>
</g>
<!-- Node18&#45;&gt;Node27 -->
<g id="edge74" class="edge">
<title>Node18&#45;&gt;Node27</title>
<path fill="none" stroke="midnightblue" d="M815.23,-392.3C838.93,-359.22 923.66,-240.91 955.65,-196.24"/>
<polygon fill="midnightblue" stroke="midnightblue" points="958.66,-198.05 961.64,-187.88 952.97,-193.98 958.66,-198.05"/>
</g>
<!-- Node31 -->
<g id="node31" class="node">
<title>Node31</title>
<g id="a_node31"><a xlink:title=" ">
<polygon fill="white" stroke="#bfbfbf" points="878.5,-0.5 878.5,-19.5 925.5,-19.5 925.5,-0.5 878.5,-0.5"/>
<text text-anchor="middle" x="902" y="-7.5" font-family="Helvetica,sans-Serif" font-size="10.00">vector</text>
</a>
</g>
</g>
<!-- Node18&#45;&gt;Node31 -->
<g id="edge76" class="edge">
<title>Node18&#45;&gt;Node31</title>
<path fill="none" stroke="midnightblue" d="M811.03,-392.49C822.65,-343.74 880.87,-99.61 897.54,-29.72"/>
<polygon fill="midnightblue" stroke="midnightblue" points="901,-30.27 899.92,-19.73 894.19,-28.65 901,-30.27"/>
</g>
<!-- Node18&#45;&gt;Node48 -->
<g id="edge75" class="edge">
<title>Node18&#45;&gt;Node48</title>
<path fill="none" stroke="midnightblue" d="M753.91,-394.43C659.66,-383.2 470.06,-360.6 391.43,-351.22"/>
<polygon fill="midnightblue" stroke="midnightblue" points="391.43,-347.7 381.09,-349.99 390.61,-354.65 391.43,-347.7"/>
</g>
<!-- Node19&#45;&gt;Node5 -->
<g id="edge72" class="edge">
<title>Node19&#45;&gt;Node5</title>
<path fill="none" stroke="midnightblue" d="M1051.75,-336.44C1029.34,-328.39 996.05,-315.31 969,-300 882.98,-251.31 880.28,-208.26 790,-168 782.29,-164.56 683.5,-144.84 621.59,-132.68"/>
<polygon fill="midnightblue" stroke="midnightblue" points="622.1,-129.21 611.61,-130.72 620.75,-136.08 622.1,-129.21"/>
</g>
<!-- Node20 -->
<g id="node20" class="node">
<title>Node20</title>
<g id="a_node20"><a xlink:href="messaging_8h.html" target="_top" xlink:title=" ">
<polygon fill="white" stroke="black" points="1089.5,-280.5 1089.5,-299.5 1168.5,-299.5 1168.5,-280.5 1089.5,-280.5"/>
<text text-anchor="middle" x="1129" y="-287.5" font-family="Helvetica,sans-Serif" font-size="10.00">messaging.h</text>
</a>
</g>
</g>
<!-- Node19&#45;&gt;Node20 -->
<g id="edge21" class="edge">
<title>Node19&#45;&gt;Node20</title>
<path fill="none" stroke="midnightblue" d="M1085.59,-336.08C1093.16,-328.22 1104.38,-316.57 1113.51,-307.08"/>
<polygon fill="midnightblue" stroke="midnightblue" points="1116.16,-309.38 1120.57,-299.75 1111.12,-304.53 1116.16,-309.38"/>
</g>
<!-- Node21 -->
<g id="node21" class="node">
<title>Node21</title>
<g id="a_node21"><a xlink:href="ring__buffer_8h.html" target="_top" xlink:title=" ">
<polygon fill="white" stroke="black" points="1241.5,-224.5 1241.5,-243.5 1318.5,-243.5 1318.5,-224.5 1241.5,-224.5"/>
<text text-anchor="middle" x="1280" y="-231.5" font-family="Helvetica,sans-Serif" font-size="10.00">ring_buffer.h</text>
</a>
</g>
</g>
<!-- Node19&#45;&gt;Node21 -->
<g id="edge70" class="edge">
<title>Node19&#45;&gt;Node21</title>
<path fill="none" stroke="midnightblue" d="M1098.48,-336.36C1119.02,-327.86 1150.67,-314.14 1177,-300 1206.4,-284.21 1238.7,-263.18 1259.15,-249.38"/>
<polygon fill="midnightblue" stroke="midnightblue" points="1261.36,-252.11 1267.65,-243.59 1257.42,-246.32 1261.36,-252.11"/>
</g>
<!-- Node40 -->
<g id="node40" class="node">
<title>Node40</title>
<g id="a_node40"><a xlink:href="serialized_8h.html" target="_top" xlink:title=" ">
<polygon fill="white" stroke="black" points="1261.5,-56.5 1261.5,-75.5 1334.5,-75.5 1334.5,-56.5 1261.5,-56.5"/>
<text text-anchor="middle" x="1298" y="-63.5" font-family="Helvetica,sans-Serif" font-size="10.00">serialized.h</text>
</a>
</g>
</g>
<!-- Node19&#45;&gt;Node40 -->
<g id="edge71" class="edge">
<title>Node19&#45;&gt;Node40</title>
<path fill="none" stroke="midnightblue" d="M1120.57,-342.26C1224.24,-334.57 1477,-308.28 1477,-235 1477,-235 1477,-235 1477,-177 1477,-114.81 1397.59,-86.66 1344.55,-74.8"/>
<polygon fill="midnightblue" stroke="midnightblue" points="1345.16,-71.35 1334.66,-72.71 1343.71,-78.2 1345.16,-71.35"/>
</g>
<!-- Node47 -->
<g id="node47" class="node">
<title>Node47</title>
<g id="a_node47"><a xlink:title=" ">
<polygon fill="white" stroke="#bfbfbf" points="978.5,-280.5 978.5,-299.5 1071.5,-299.5 1071.5,-280.5 978.5,-280.5"/>
<text text-anchor="middle" x="1025" y="-287.5" font-family="Helvetica,sans-Serif" font-size="10.00">unordered_map</text>
</a>
</g>
</g>
<!-- Node19&#45;&gt;Node47 -->
<g id="edge73" class="edge">
<title>Node19&#45;&gt;Node47</title>
<path fill="none" stroke="midnightblue" d="M1068.41,-336.08C1060.84,-328.22 1049.62,-316.57 1040.49,-307.08"/>
<polygon fill="midnightblue" stroke="midnightblue" points="1042.88,-304.53 1033.43,-299.75 1037.84,-309.38 1042.88,-304.53"/>
</g>
<!-- Node20&#45;&gt;Node3 -->
<g id="edge22" class="edge">
<title>Node20&#45;&gt;Node3</title>
<path fill="none" stroke="midnightblue" d="M1089.48,-281.36C1086.28,-280.86 1083.09,-280.39 1080,-280 871.76,-253.4 622.01,-241.24 514.07,-236.94"/>
<polygon fill="midnightblue" stroke="midnightblue" points="513.89,-233.43 503.76,-236.53 513.62,-240.42 513.89,-233.43"/>
</g>
<!-- Node20&#45;&gt;Node9 -->
<g id="edge68" class="edge">
<title>Node20&#45;&gt;Node9</title>
<path fill="none" stroke="midnightblue" d="M1109.59,-280.34C1058.45,-257.89 915.29,-197.55 790,-168 724.82,-152.63 523.89,-132.88 447.7,-125.73"/>
<polygon fill="midnightblue" stroke="midnightblue" points="447.68,-122.21 437.4,-124.77 447.03,-129.18 447.68,-122.21"/>
</g>
<!-- Node20&#45;&gt;Node21 -->
<g id="edge23" class="edge">
<title>Node20&#45;&gt;Node21</title>
<path fill="none" stroke="midnightblue" d="M1152.93,-280.44C1178.22,-271.4 1218.3,-257.06 1246.68,-246.92"/>
<polygon fill="midnightblue" stroke="midnightblue" points="1247.95,-250.18 1256.19,-243.52 1245.59,-243.59 1247.95,-250.18"/>
</g>
<!-- Node41 -->
<g id="node41" class="node">
<title>Node41</title>
<g id="a_node41"><a xlink:title=" ">
<polygon fill="white" stroke="#bfbfbf" points="1543.5,-0.5 1543.5,-19.5 1608.5,-19.5 1608.5,-0.5 1543.5,-0.5"/>
<text text-anchor="middle" x="1576" y="-7.5" font-family="Helvetica,sans-Serif" font-size="10.00">stdexcept</text>
</a>
</g>
</g>
<!-- Node20&#45;&gt;Node41 -->
<g id="edge69" class="edge">
<title>Node20&#45;&gt;Node41</title>
<path fill="none" stroke="midnightblue" d="M1168.79,-287.13C1274.09,-281.1 1552,-257.73 1552,-179 1552,-179 1552,-179 1552,-121 1552,-88.06 1562.4,-50.82 1569.51,-29.21"/>
<polygon fill="midnightblue" stroke="midnightblue" points="1572.84,-30.29 1572.76,-19.7 1566.22,-28.03 1572.84,-30.29"/>
</g>
<!-- Node44 -->
<g id="node44" class="node">
<title>Node44</title>
<g id="a_node44"><a xlink:title=" ">
<polygon fill="white" stroke="#bfbfbf" points="1261,-112.5 1261,-131.5 1311,-131.5 1311,-112.5 1261,-112.5"/>
<text text-anchor="middle" x="1286" y="-119.5" font-family="Helvetica,sans-Serif" font-size="10.00">atomic</text>
</a>
</g>
</g>
<!-- Node20&#45;&gt;Node44 -->
<g id="edge66" class="edge">
<title>Node20&#45;&gt;Node44</title>
<path fill="none" stroke="midnightblue" d="M1121.71,-280.09C1112,-267.09 1097.26,-242.45 1108,-224 1138.79,-171.13 1208.69,-143.69 1251.16,-131.39"/>
<polygon fill="midnightblue" stroke="midnightblue" points="1252.11,-134.76 1260.81,-128.72 1250.24,-128.01 1252.11,-134.76"/>
</g>
<!-- Node46 -->
<g id="node46" class="node">
<title>Node46</title>
<g id="a_node46"><a xlink:title=" ">
<polygon fill="white" stroke="#bfbfbf" points="1116.5,-224.5 1116.5,-243.5 1223.5,-243.5 1223.5,-224.5 1116.5,-224.5"/>
<text text-anchor="middle" x="1170" y="-231.5" font-family="Helvetica,sans-Serif" font-size="10.00">condition_variable</text>
</a>
</g>
</g>
<!-- Node20&#45;&gt;Node46 -->
<g id="edge67" class="edge">
<title>Node20&#45;&gt;Node46</title>
<path fill="none" stroke="midnightblue" d="M1135.77,-280.08C1141.56,-272.46 1150.06,-261.26 1157.14,-251.94"/>
<polygon fill="midnightblue" stroke="midnightblue" points="1160.1,-253.83 1163.36,-243.75 1154.52,-249.6 1160.1,-253.83"/>
</g>
<!-- Node22 -->
<g id="node22" class="node">
<title>Node22</title>
<g id="a_node22"><a xlink:href="pal_8h.html" target="_top" xlink:title=" ">
<polygon fill="white" stroke="black" points="1429,-56.5 1429,-75.5 1501,-75.5 1501,-56.5 1429,-56.5"/>
<text text-anchor="middle" x="1465" y="-63.5" font-family="Helvetica,sans-Serif" font-size="10.00">ccf/ds/pal.h</text>
</a>
</g>
</g>
<!-- Node21&#45;&gt;Node22 -->
<g id="edge24" class="edge">
<title>Node21&#45;&gt;Node22</title>
<path fill="none" stroke="midnightblue" d="M1318.74,-228.84C1348.42,-223.77 1388.62,-212.6 1415,-188 1444.69,-160.32 1457.29,-112.38 1462.19,-85.91"/>
<polygon fill="midnightblue" stroke="midnightblue" points="1465.7,-86.15 1463.9,-75.71 1458.8,-85 1465.7,-86.15"/>
</g>
<!-- Node25 -->
<g id="node25" class="node">
<title>Node25</title>
<g id="a_node25"><a xlink:title=" ">
<polygon fill="white" stroke="#bfbfbf" points="1341,-0.5 1341,-19.5 1391,-19.5 1391,-0.5 1341,-0.5"/>
<text text-anchor="middle" x="1366" y="-7.5" font-family="Helvetica,sans-Serif" font-size="10.00">cstring</text>
</a>
</g>
</g>
<!-- Node21&#45;&gt;Node25 -->
<g id="edge64" class="edge">
<title>Node21&#45;&gt;Node25</title>
<path fill="none" stroke="midnightblue" d="M1290.3,-224.31C1299.72,-215.89 1313.44,-202.31 1322,-188 1348.98,-142.89 1349.06,-127.41 1360,-76 1363.28,-60.57 1364.77,-42.7 1365.44,-29.6"/>
<polygon fill="midnightblue" stroke="midnightblue" points="1368.94,-29.64 1365.85,-19.51 1361.95,-29.36 1368.94,-29.64"/>
</g>
<!-- Node21&#45;&gt;Node27 -->
<g id="edge29" class="edge">
<title>Node21&#45;&gt;Node27</title>
<path fill="none" stroke="midnightblue" d="M1241.28,-225.52C1238.48,-225 1235.7,-224.49 1233,-224 1163.76,-211.49 1084.15,-198.11 1030.41,-189.22"/>
<polygon fill="midnightblue" stroke="midnightblue" points="1030.79,-185.73 1020.35,-187.56 1029.65,-192.64 1030.79,-185.73"/>
</g>
<!-- Node45 -->
<g id="node45" class="node">
<title>Node45</title>
<g id="a_node45"><a xlink:title=" ">
<polygon fill="white" stroke="#bfbfbf" points="1247.5,-168.5 1247.5,-187.5 1312.5,-187.5 1312.5,-168.5 1247.5,-168.5"/>
<text text-anchor="middle" x="1280" y="-175.5" font-family="Helvetica,sans-Serif" font-size="10.00">functional</text>
</a>
</g>
</g>
<!-- Node21&#45;&gt;Node45 -->
<g id="edge65" class="edge">
<title>Node21&#45;&gt;Node45</title>
<path fill="none" stroke="midnightblue" d="M1280,-224.08C1280,-217.01 1280,-206.86 1280,-197.99"/>
<polygon fill="midnightblue" stroke="midnightblue" points="1283.5,-197.75 1280,-187.75 1276.5,-197.75 1283.5,-197.75"/>
</g>
<!-- Node23 -->
<g id="node23" class="node">
<title>Node23</title>
<g id="a_node23"><a xlink:title=" ">
<polygon fill="white" stroke="#bfbfbf" points="1273,-0.5 1273,-19.5 1323,-19.5 1323,-0.5 1273,-0.5"/>
<text text-anchor="middle" x="1298" y="-7.5" font-family="Helvetica,sans-Serif" font-size="10.00">cstdint</text>
</a>
</g>
</g>
<!-- Node22&#45;&gt;Node23 -->
<g id="edge25" class="edge">
<title>Node22&#45;&gt;Node23</title>
<path fill="none" stroke="midnightblue" d="M1438.54,-56.44C1409.99,-47.21 1364.4,-32.47 1332.93,-22.29"/>
<polygon fill="midnightblue" stroke="midnightblue" points="1333.84,-18.91 1323.24,-19.16 1331.68,-25.57 1333.84,-18.91"/>
</g>
<!-- Node24 -->
<g id="node24" class="node">
<title>Node24</title>
<g id="a_node24"><a xlink:title=" ">
<polygon fill="white" stroke="#bfbfbf" points="1409.5,-0.5 1409.5,-19.5 1458.5,-19.5 1458.5,-0.5 1409.5,-0.5"/>
<text text-anchor="middle" x="1434" y="-7.5" font-family="Helvetica,sans-Serif" font-size="10.00">cstdlib</text>
</a>
</g>
</g>
<!-- Node22&#45;&gt;Node24 -->
<g id="edge26" class="edge">
<title>Node22&#45;&gt;Node24</title>
<path fill="none" stroke="midnightblue" d="M1459.88,-56.08C1455.59,-48.61 1449.34,-37.72 1444.06,-28.52"/>
<polygon fill="midnightblue" stroke="midnightblue" points="1447.04,-26.68 1439.02,-19.75 1440.97,-30.17 1447.04,-26.68"/>
</g>
<!-- Node22&#45;&gt;Node25 -->
<g id="edge27" class="edge">
<title>Node22&#45;&gt;Node25</title>
<path fill="none" stroke="midnightblue" d="M1449.09,-56.32C1433.36,-47.74 1409.06,-34.49 1390.79,-24.52"/>
<polygon fill="midnightblue" stroke="midnightblue" points="1392.32,-21.37 1381.87,-19.65 1388.97,-27.52 1392.32,-21.37"/>
</g>
<!-- Node26 -->
<g id="node26" class="node">
<title>Node26</title>
<g id="a_node26"><a xlink:title=" ">
<polygon fill="white" stroke="#bfbfbf" points="1477,-0.5 1477,-19.5 1525,-19.5 1525,-0.5 1477,-0.5"/>
<text text-anchor="middle" x="1501" y="-7.5" font-family="Helvetica,sans-Serif" font-size="10.00">mutex</text>
</a>
</g>
</g>
<!-- Node22&#45;&gt;Node26 -->
<g id="edge28" class="edge">
<title>Node22&#45;&gt;Node26</title>
<path fill="none" stroke="midnightblue" d="M1470.94,-56.08C1475.98,-48.53 1483.34,-37.49 1489.51,-28.23"/>
<polygon fill="midnightblue" stroke="midnightblue" points="1492.53,-30.01 1495.17,-19.75 1486.71,-26.13 1492.53,-30.01"/>
</g>
<!-- Node27&#45;&gt;Node5 -->
<g id="edge60" class="edge">
<title>Node27&#45;&gt;Node5</title>
<path fill="none" stroke="midnightblue" d="M912.64,-169.77C908.03,-169.17 903.43,-168.58 899,-168 778.28,-152.34 745.22,-151.56 621.75,-132.21"/>
<polygon fill="midnightblue" stroke="midnightblue" points="621.94,-128.7 611.52,-130.6 620.85,-135.61 621.94,-128.7"/>
</g>
<!-- Node27&#45;&gt;Node14 -->
<g id="edge61" class="edge">
<title>Node27&#45;&gt;Node14</title>
<path fill="none" stroke="midnightblue" d="M912.93,-169.21C859.61,-161.39 776.29,-148.42 695.12,-132.11"/>
<polygon fill="midnightblue" stroke="midnightblue" points="695.73,-128.66 685.23,-130.1 694.34,-135.52 695.73,-128.66"/>
</g>
<!-- Node28 -->
<g id="node28" class="node">
<title>Node28</title>
<g id="a_node28"><a xlink:href="include_2ccf_2ds_2hash_8h.html" target="_top" xlink:title=" ">
<polygon fill="white" stroke="black" points="936,-112.5 936,-131.5 1016,-131.5 1016,-112.5 936,-112.5"/>
<text text-anchor="middle" x="976" y="-119.5" font-family="Helvetica,sans-Serif" font-size="10.00">ccf/ds/hash.h</text>
</a>
</g>
</g>
<!-- Node27&#45;&gt;Node28 -->
<g id="edge30" class="edge">
<title>Node27&#45;&gt;Node28</title>
<path fill="none" stroke="midnightblue" d="M969.32,-168.08C970.38,-160.93 971.91,-150.64 973.23,-141.69"/>
<polygon fill="midnightblue" stroke="midnightblue" points="976.7,-142.16 974.7,-131.75 969.78,-141.13 976.7,-142.16"/>
</g>
<!-- Node27&#45;&gt;Node31 -->
<g id="edge63" class="edge">
<title>Node27&#45;&gt;Node31</title>
<path fill="none" stroke="midnightblue" d="M957.55,-168.49C948.07,-160.19 934.49,-146.69 927,-132 910.01,-98.67 904.57,-54.6 902.82,-29.89"/>
<polygon fill="midnightblue" stroke="midnightblue" points="906.31,-29.51 902.24,-19.73 899.32,-29.91 906.31,-29.51"/>
</g>
<!-- Node34 -->
<g id="node34" class="node">
<title>Node34</title>
<g id="a_node34"><a xlink:href="nonstd_8h.html" target="_top" xlink:title=" ">
<polygon fill="white" stroke="black" points="645,-56.5 645,-75.5 735,-75.5 735,-56.5 645,-56.5"/>
<text text-anchor="middle" x="690" y="-63.5" font-family="Helvetica,sans-Serif" font-size="10.00">ccf/ds/nonstd.h</text>
</a>
</g>
</g>
<!-- Node27&#45;&gt;Node34 -->
<g id="edge39" class="edge">
<title>Node27&#45;&gt;Node34</title>
<path fill="none" stroke="midnightblue" d="M946.19,-168.37C897.16,-148.97 778.12,-101.87 721.26,-79.37"/>
<polygon fill="midnightblue" stroke="midnightblue" points="722.3,-76.02 711.71,-75.59 719.72,-82.53 722.3,-76.02"/>
</g>
<!-- Node37 -->
<g id="node37" class="node">
<title>Node37</title>
<g id="a_node37"><a xlink:title=" ">
<polygon fill="white" stroke="#bfbfbf" points="1211,-0.5 1211,-19.5 1255,-19.5 1255,-0.5 1211,-0.5"/>
<text text-anchor="middle" x="1233" y="-7.5" font-family="Helvetica,sans-Serif" font-size="10.00">string</text>
</a>
</g>
</g>
<!-- Node27&#45;&gt;Node37 -->
<g id="edge62" class="edge">
<title>Node27&#45;&gt;Node37</title>
<path fill="none" stroke="midnightblue" d="M1023.17,-168.58C1079.01,-157.19 1164.05,-131.51 1214,-76 1225.42,-63.31 1230,-44.11 1231.82,-29.86"/>
<polygon fill="midnightblue" stroke="midnightblue" points="1235.32,-30 1232.77,-19.72 1228.35,-29.35 1235.32,-30"/>
</g>
<!-- Node39 -->
<g id="node39" class="node">
<title>Node39</title>
<g id="a_node39"><a xlink:href="serializer_8h.html" target="_top" xlink:title=" ">
<polygon fill="white" stroke="black" points="703,-112.5 703,-131.5 773,-131.5 773,-112.5 703,-112.5"/>
<text text-anchor="middle" x="738" y="-119.5" font-family="Helvetica,sans-Serif" font-size="10.00">serializer.h</text>
</a>
</g>
</g>
<!-- Node27&#45;&gt;Node39 -->
<g id="edge47" class="edge">
<title>Node27&#45;&gt;Node39</title>
<path fill="none" stroke="midnightblue" d="M931.56,-168.44C891.33,-159 826.55,-143.79 783.15,-133.6"/>
<polygon fill="midnightblue" stroke="midnightblue" points="783.68,-130.13 773.14,-131.25 782.08,-136.94 783.68,-130.13"/>
</g>
<!-- Node27&#45;&gt;Node44 -->
<g id="edge59" class="edge">
<title>Node27&#45;&gt;Node44</title>
<path fill="none" stroke="midnightblue" d="M1023.25,-169.2C1079.68,-160.98 1169.72,-147.13 1247,-132 1248.27,-131.75 1249.55,-131.49 1250.85,-131.23"/>
<polygon fill="midnightblue" stroke="midnightblue" points="1251.84,-134.59 1260.88,-129.06 1250.36,-127.75 1251.84,-134.59"/>
</g>
<!-- Node28&#45;&gt;Node23 -->
<g id="edge36" class="edge">
<title>Node28&#45;&gt;Node23</title>
<path fill="none" stroke="midnightblue" d="M1016.01,-119.05C1106.86,-114.22 1322.51,-100.28 1344,-76 1358.25,-59.9 1338.2,-39.37 1320.27,-25.73"/>
<polygon fill="midnightblue" stroke="midnightblue" points="1321.96,-22.64 1311.8,-19.64 1317.88,-28.32 1321.96,-22.64"/>
</g>
<!-- Node29 -->
<g id="node29" class="node">
<title>Node29</title>
<g id="a_node29"><a xlink:href="siphash_8h.html" target="_top" xlink:title=" ">
<polygon fill="white" stroke="black" points="943.5,-56.5 943.5,-75.5 1038.5,-75.5 1038.5,-56.5 943.5,-56.5"/>
<text text-anchor="middle" x="991" y="-63.5" font-family="Helvetica,sans-Serif" font-size="10.00">ccf/ds/siphash.h</text>
</a>
</g>
</g>
<!-- Node28&#45;&gt;Node29 -->
<g id="edge31" class="edge">
<title>Node28&#45;&gt;Node29</title>
<path fill="none" stroke="midnightblue" d="M978.48,-112.08C980.49,-104.85 983.39,-94.41 985.89,-85.4"/>
<polygon fill="midnightblue" stroke="midnightblue" points="989.26,-86.32 988.57,-75.75 982.52,-84.45 989.26,-86.32"/>
</g>
<!-- Node28&#45;&gt;Node31 -->
<g id="edge38" class="edge">
<title>Node28&#45;&gt;Node31</title>
<path fill="none" stroke="midnightblue" d="M966.46,-112.37C957.34,-103.78 943.59,-89.9 934,-76 923.85,-61.3 915.11,-42.9 909.35,-29.44"/>
<polygon fill="midnightblue" stroke="midnightblue" points="912.44,-27.76 905.39,-19.86 905.97,-30.44 912.44,-27.76"/>
</g>
<!-- Node32 -->
<g id="node32" class="node">
<title>Node32</title>
<g id="a_node32"><a xlink:title=" ">
<polygon fill="white" stroke="#bfbfbf" points="818,-0.5 818,-19.5 860,-19.5 860,-0.5 818,-0.5"/>
<text text-anchor="middle" x="839" y="-7.5" font-family="Helvetica,sans-Serif" font-size="10.00">array</text>
</a>
</g>
</g>
<!-- Node28&#45;&gt;Node32 -->
<g id="edge35" class="edge">
<title>Node28&#45;&gt;Node32</title>
<path fill="none" stroke="midnightblue" d="M965.04,-112.42C953.53,-103.4 934.94,-88.77 919,-76 897.9,-59.1 873.86,-39.52 857.68,-26.3"/>
<polygon fill="midnightblue" stroke="midnightblue" points="859.53,-23.29 849.57,-19.67 855.1,-28.71 859.53,-23.29"/>
</g>
<!-- Node33 -->
<g id="node33" class="node">
<title>Node33</title>
<g id="a_node33"><a xlink:title=" ">
<polygon fill="white" stroke="#bfbfbf" points="1056.5,-56.5 1056.5,-75.5 1205.5,-75.5 1205.5,-56.5 1056.5,-56.5"/>
<text text-anchor="middle" x="1131" y="-63.5" font-family="Helvetica,sans-Serif" font-size="10.00">small_vector/SmallVector.h</text>
</a>
</g>
</g>
<!-- Node28&#45;&gt;Node33 -->
<g id="edge37" class="edge">
<title>Node28&#45;&gt;Node33</title>
<path fill="none" stroke="midnightblue" d="M1000.56,-112.44C1026.52,-103.4 1067.67,-89.06 1096.8,-78.92"/>
<polygon fill="midnightblue" stroke="midnightblue" points="1098.26,-82.11 1106.55,-75.52 1095.96,-75.5 1098.26,-82.11"/>
</g>
<!-- Node29&#45;&gt;Node23 -->
<g id="edge33" class="edge">
<title>Node29&#45;&gt;Node23</title>
<path fill="none" stroke="midnightblue" d="M1038.51,-57.42C1104.6,-46.85 1220.22,-28.21 1262.83,-19.98"/>
<polygon fill="midnightblue" stroke="midnightblue" points="1263.71,-23.37 1272.81,-17.95 1262.32,-16.51 1263.71,-23.37"/>
</g>
<!-- Node30 -->
<g id="node30" class="node">
<title>Node30</title>
<g id="a_node30"><a xlink:title=" ">
<polygon fill="white" stroke="#bfbfbf" points="964.5,-0.5 964.5,-19.5 1017.5,-19.5 1017.5,-0.5 964.5,-0.5"/>
<text text-anchor="middle" x="991" y="-7.5" font-family="Helvetica,sans-Serif" font-size="10.00">cstddef</text>
</a>
</g>
</g>
<!-- Node29&#45;&gt;Node30 -->
<g id="edge32" class="edge">
<title>Node29&#45;&gt;Node30</title>
<path fill="none" stroke="midnightblue" d="M991,-56.08C991,-49.01 991,-38.86 991,-29.99"/>
<polygon fill="midnightblue" stroke="midnightblue" points="994.5,-29.75 991,-19.75 987.5,-29.75 994.5,-29.75"/>
</g>
<!-- Node29&#45;&gt;Node31 -->
<g id="edge34" class="edge">
<title>Node29&#45;&gt;Node31</title>
<path fill="none" stroke="midnightblue" d="M976.7,-56.32C962.82,-47.9 941.51,-34.97 925.2,-25.07"/>
<polygon fill="midnightblue" stroke="midnightblue" points="926.63,-21.85 916.26,-19.65 923,-27.83 926.63,-21.85"/>
</g>
<!-- Node34&#45;&gt;Node16 -->
<g id="edge45" class="edge">
<title>Node34&#45;&gt;Node16</title>
<path fill="none" stroke="midnightblue" d="M663.86,-56.44C635.98,-47.32 591.65,-32.81 560.6,-22.65"/>
<polygon fill="midnightblue" stroke="midnightblue" points="561.62,-19.3 551.02,-19.52 559.44,-25.95 561.62,-19.3"/>
</g>
<!-- Node34&#45;&gt;Node31 -->
<g id="edge46" class="edge">
<title>Node34&#45;&gt;Node31</title>
<path fill="none" stroke="midnightblue" d="M724.7,-56.49C758.83,-48.08 812.65,-34.68 868.51,-20.09"/>
<polygon fill="midnightblue" stroke="midnightblue" points="869.44,-23.47 878.22,-17.55 867.66,-16.69 869.44,-23.47"/>
</g>
<!-- Node34&#45;&gt;Node32 -->
<g id="edge41" class="edge">
<title>Node34&#45;&gt;Node32</title>
<path fill="none" stroke="midnightblue" d="M713.61,-56.44C739.19,-47.17 780.1,-32.35 808.19,-22.17"/>
<polygon fill="midnightblue" stroke="midnightblue" points="809.7,-25.34 817.91,-18.64 807.32,-18.76 809.7,-25.34"/>
</g>
<!-- Node35 -->
<g id="node35" class="node">
<title>Node35</title>
<g id="a_node35"><a xlink:title=" ">
<polygon fill="white" stroke="#bfbfbf" points="736,-0.5 736,-19.5 800,-19.5 800,-0.5 736,-0.5"/>
<text text-anchor="middle" x="768" y="-7.5" font-family="Helvetica,sans-Serif" font-size="10.00">algorithm</text>
</a>
</g>
</g>
<!-- Node34&#45;&gt;Node35 -->
<g id="edge40" class="edge">
<title>Node34&#45;&gt;Node35</title>
<path fill="none" stroke="midnightblue" d="M702.53,-56.32C714.59,-47.98 733.03,-35.21 747.27,-25.35"/>
<polygon fill="midnightblue" stroke="midnightblue" points="749.27,-28.22 755.5,-19.65 745.28,-22.47 749.27,-28.22"/>
</g>
<!-- Node36 -->
<g id="node36" class="node">
<title>Node36</title>
<g id="a_node36"><a xlink:title=" ">
<polygon fill="white" stroke="#bfbfbf" points="577.5,-0.5 577.5,-19.5 626.5,-19.5 626.5,-0.5 577.5,-0.5"/>
<text text-anchor="middle" x="602" y="-7.5" font-family="Helvetica,sans-Serif" font-size="10.00">cctype</text>
</a>
</g>
</g>
<!-- Node34&#45;&gt;Node36 -->
<g id="edge42" class="edge">
<title>Node34&#45;&gt;Node36</title>
<path fill="none" stroke="midnightblue" d="M675.86,-56.32C662.13,-47.9 641.06,-34.97 624.94,-25.07"/>
<polygon fill="midnightblue" stroke="midnightblue" points="626.46,-21.9 616.1,-19.65 622.8,-27.87 626.46,-21.9"/>
</g>
<!-- Node34&#45;&gt;Node37 -->
<g id="edge43" class="edge">
<title>Node34&#45;&gt;Node37</title>
<path fill="none" stroke="midnightblue" d="M735.36,-60.49C842.38,-49.85 1108.54,-23.38 1200.86,-14.2"/>
<polygon fill="midnightblue" stroke="midnightblue" points="1201.38,-17.66 1210.99,-13.19 1200.69,-10.7 1201.38,-17.66"/>
</g>
<!-- Node38 -->
<g id="node38" class="node">
<title>Node38</title>
<g id="a_node38"><a xlink:title=" ">
<polygon fill="white" stroke="#bfbfbf" points="644.5,-0.5 644.5,-19.5 717.5,-19.5 717.5,-0.5 644.5,-0.5"/>
<text text-anchor="middle" x="681" y="-7.5" font-family="Helvetica,sans-Serif" font-size="10.00">string_view</text>
</a>
</g>
</g>
<!-- Node34&#45;&gt;Node38 -->
<g id="edge44" class="edge">
<title>Node34&#45;&gt;Node38</title>
<path fill="none" stroke="midnightblue" d="M688.51,-56.08C687.32,-48.93 685.61,-38.64 684.12,-29.69"/>
<polygon fill="midnightblue" stroke="midnightblue" points="687.55,-29.04 682.46,-19.75 680.65,-30.19 687.55,-29.04"/>
</g>
<!-- Node39&#45;&gt;Node16 -->
<g id="edge57" class="edge">
<title>Node39&#45;&gt;Node16</title>
<path fill="none" stroke="midnightblue" d="M702.8,-112.46C658.43,-101.51 586.62,-83.09 576,-76 557.79,-63.86 543.17,-43.1 534.33,-28.31"/>
<polygon fill="midnightblue" stroke="midnightblue" points="537.36,-26.56 529.38,-19.6 531.28,-30.02 537.36,-26.56"/>
</g>
<!-- Node39&#45;&gt;Node31 -->
<g id="edge58" class="edge">
<title>Node39&#45;&gt;Node31</title>
<path fill="none" stroke="midnightblue" d="M742.53,-112.2C750.03,-98.42 766.28,-71.71 787,-56 800.26,-45.95 839.71,-31.54 868.72,-21.76"/>
<polygon fill="midnightblue" stroke="midnightblue" points="870.1,-24.99 878.48,-18.51 867.89,-18.35 870.1,-24.99"/>
</g>
<!-- Node39&#45;&gt;Node34 -->
<g id="edge48" class="edge">
<title>Node39&#45;&gt;Node34</title>
<path fill="none" stroke="midnightblue" d="M730.07,-112.08C723.15,-104.3 712.93,-92.8 704.55,-83.37"/>
<polygon fill="midnightblue" stroke="midnightblue" points="707.04,-80.9 697.78,-75.75 701.81,-85.55 707.04,-80.9"/>
</g>
<!-- Node39&#45;&gt;Node40 -->
<g id="edge49" class="edge">
<title>Node39&#45;&gt;Node40</title>
<path fill="none" stroke="midnightblue" d="M773.25,-117.82C852.2,-110.66 1049.24,-92.61 1214,-76 1225.96,-74.79 1238.88,-73.44 1250.91,-72.15"/>
<polygon fill="midnightblue" stroke="midnightblue" points="1251.64,-75.59 1261.21,-71.04 1250.89,-68.63 1251.64,-75.59"/>
</g>
<!-- Node42 -->
<g id="node42" class="node">
<title>Node42</title>
<g id="a_node42"><a xlink:title=" ">
<polygon fill="white" stroke="#bfbfbf" points="264,-56.5 264,-75.5 322,-75.5 322,-56.5 264,-56.5"/>
<text text-anchor="middle" x="293" y="-63.5" font-family="Helvetica,sans-Serif" font-size="10.00">memory</text>
</a>
</g>
</g>
<!-- Node39&#45;&gt;Node42 -->
<g id="edge55" class="edge">
<title>Node39&#45;&gt;Node42</title>
<path fill="none" stroke="midnightblue" d="M702.99,-113.54C699.95,-112.99 696.93,-112.46 694,-112 562.09,-91.15 404.29,-76.4 332.29,-70.23"/>
<polygon fill="midnightblue" stroke="midnightblue" points="332.56,-66.74 322.3,-69.38 331.97,-73.71 332.56,-66.74"/>
</g>
<!-- Node43 -->
<g id="node43" class="node">
<title>Node43</title>
<g id="a_node43"><a xlink:title=" ">
<polygon fill="white" stroke="#bfbfbf" points="585.5,-56.5 585.5,-75.5 626.5,-75.5 626.5,-56.5 585.5,-56.5"/>
<text text-anchor="middle" x="606" y="-63.5" font-family="Helvetica,sans-Serif" font-size="10.00">tuple</text>
</a>
</g>
</g>
<!-- Node39&#45;&gt;Node43 -->
<g id="edge56" class="edge">
<title>Node39&#45;&gt;Node43</title>
<path fill="none" stroke="midnightblue" d="M717.08,-112.44C695.26,-103.52 660.85,-89.44 636.11,-79.32"/>
<polygon fill="midnightblue" stroke="midnightblue" points="637.4,-76.06 626.82,-75.52 634.75,-82.54 637.4,-76.06"/>
</g>
<!-- Node40&#45;&gt;Node23 -->
<g id="edge50" class="edge">
<title>Node40&#45;&gt;Node23</title>
<path fill="none" stroke="midnightblue" d="M1298,-56.08C1298,-49.01 1298,-38.86 1298,-29.99"/>
<polygon fill="midnightblue" stroke="midnightblue" points="1301.5,-29.75 1298,-19.75 1294.5,-29.75 1301.5,-29.75"/>
</g>
<!-- Node40&#45;&gt;Node25 -->
<g id="edge51" class="edge">
<title>Node40&#45;&gt;Node25</title>
<path fill="none" stroke="midnightblue" d="M1308.93,-56.32C1319.17,-48.18 1334.72,-35.84 1347,-26.09"/>
<polygon fill="midnightblue" stroke="midnightblue" points="1349.22,-28.79 1354.88,-19.83 1344.87,-23.31 1349.22,-28.79"/>
</g>
<!-- Node40&#45;&gt;Node31 -->
<g id="edge54" class="edge">
<title>Node40&#45;&gt;Node31</title>
<path fill="none" stroke="midnightblue" d="M1261.39,-60.66C1198.59,-53.11 1066.36,-36.75 955,-20 948.85,-19.07 942.31,-18.02 936,-16.97"/>
<polygon fill="midnightblue" stroke="midnightblue" points="936.16,-13.45 925.71,-15.22 934.99,-20.35 936.16,-13.45"/>
</g>
<!-- Node40&#45;&gt;Node37 -->
<g id="edge53" class="edge">
<title>Node40&#45;&gt;Node37</title>
<path fill="none" stroke="midnightblue" d="M1287.56,-56.32C1277.85,-48.26 1263.18,-36.08 1251.5,-26.37"/>
<polygon fill="midnightblue" stroke="midnightblue" points="1253.56,-23.53 1243.63,-19.83 1249.09,-28.92 1253.56,-23.53"/>
</g>
<!-- Node40&#45;&gt;Node41 -->
<g id="edge52" class="edge">
<title>Node40&#45;&gt;Node41</title>
<path fill="none" stroke="midnightblue" d="M1334.84,-58.24C1379.41,-50.01 1456.99,-35.49 1533.63,-20.04"/>
<polygon fill="midnightblue" stroke="midnightblue" points="1534.35,-23.46 1543.46,-18.05 1532.96,-16.6 1534.35,-23.46"/>
</g>
<!-- Node51&#45;&gt;Node48 -->
<g id="edge83" class="edge">
<title>Node51&#45;&gt;Node48</title>
<path fill="none" stroke="midnightblue" d="M309,-392.32C317.19,-384.42 329.51,-372.55 339.47,-362.94"/>
<polygon fill="midnightblue" stroke="midnightblue" points="342.07,-365.29 346.84,-355.83 337.21,-360.26 342.07,-365.29"/>
</g>
<!-- Node52 -->
<g id="node52" class="node">
<title>Node52</title>
<g id="a_node52"><a xlink:href="proxy_8h.html" target="_top" xlink:title=" ">
<polygon fill="white" stroke="black" points="181,-336.5 181,-355.5 233,-355.5 233,-336.5 181,-336.5"/>
<text text-anchor="middle" x="207" y="-343.5" font-family="Helvetica,sans-Serif" font-size="10.00">proxy.h</text>
</a>
</g>
</g>
<!-- Node51&#45;&gt;Node52 -->
<g id="edge80" class="edge">
<title>Node51&#45;&gt;Node52</title>
<path fill="none" stroke="midnightblue" d="M285.06,-392.32C270.41,-383.82 247.87,-370.73 230.76,-360.8"/>
<polygon fill="midnightblue" stroke="midnightblue" points="232.31,-357.65 221.9,-355.65 228.8,-363.7 232.31,-357.65"/>
</g>
<!-- Node52&#45;&gt;Node42 -->
<g id="edge81" class="edge">
<title>Node52&#45;&gt;Node42</title>
<path fill="none" stroke="midnightblue" d="M180.78,-343.11C125.08,-337.53 0,-315.99 0,-235 0,-235 0,-235 0,-177 0,-138.58 23.65,-131.08 57,-112 119.23,-76.4 204.29,-68.32 253.46,-66.85"/>
<polygon fill="midnightblue" stroke="midnightblue" points="253.77,-70.35 263.69,-66.63 253.61,-63.35 253.77,-70.35"/>
</g>
<!-- Node53 -->
<g id="node53" class="node">
<title>Node53</title>
<g id="a_node53"><a xlink:title=" ">
<polygon fill="white" stroke="#bfbfbf" points="188.5,-280.5 188.5,-299.5 225.5,-299.5 225.5,-280.5 188.5,-280.5"/>
<text text-anchor="middle" x="207" y="-287.5" font-family="Helvetica,sans-Serif" font-size="10.00">uv.h</text>
</a>
</g>
</g>
<!-- Node52&#45;&gt;Node53 -->
<g id="edge82" class="edge">
<title>Node52&#45;&gt;Node53</title>
<path fill="none" stroke="midnightblue" d="M207,-336.08C207,-329.01 207,-318.86 207,-309.99"/>
<polygon fill="midnightblue" stroke="midnightblue" points="210.5,-309.75 207,-299.75 203.5,-309.75 210.5,-309.75"/>
</g>
</g>
</svg>
