<?xml version="1.0" encoding="UTF-8" standalone="no"?>
<!DOCTYPE svg PUBLIC "-//W3C//DTD SVG 1.1//EN"
 "http://www.w3.org/Graphics/SVG/1.1/DTD/svg11.dtd">
<!-- Generated by graphviz version 2.43.0 (0)
 -->
<!-- Title: src/crypto/openssl/hash.h Pages: 1 -->
<!--zoomable 375 -->
<svg id="main" version="1.1" xmlns="http://www.w3.org/2000/svg" xmlns:xlink="http://www.w3.org/1999/xlink" xml:space="preserve" onload="init(evt)">
<style type="text/css"><![CDATA[
.edge:hover path { stroke: red; }
.edge:hover polygon { stroke: red; fill: red; }
]]></style>
<script type="text/javascript"><![CDATA[
var edges = document.getElementsByTagName('g');
if (edges && edges.length) {
  for (var i=0;i<edges.length;i++) {
    if (edges[i].id.substr(0,4)=='edge') {
      edges[i].setAttribute('class','edge');
    }
  }
}
]]></script>
        <defs>
                <circle id="rim" cx="0" cy="0" r="7"/>
                <circle id="rim2" cx="0" cy="0" r="3.5"/>
                <g id="zoomPlus">
                        <use xlink:href="#rim" fill="#404040">
                                <set attributeName="fill" to="#808080" begin="zoomplus.mouseover" end="zoomplus.mouseout"/>
                        </use>
                        <path d="M-4,0h8M0,-4v8" fill="none" stroke="white" stroke-width="1.5" pointer-events="none"/>
                </g>
                <g id="zoomMin">
                        <use xlink:href="#rim" fill="#404040">
                                <set attributeName="fill" to="#808080" begin="zoomminus.mouseover" end="zoomminus.mouseout"/>
                        </use>
                        <path d="M-4,0h8" fill="none" stroke="white" stroke-width="1.5" pointer-events="none"/>
                </g>
                <g id="dirArrow">
                        <path fill="none" stroke="white" stroke-width="1.5" d="M0,-3.0v7 M-2.5,-0.5L0,-3.0L2.5,-0.5"/>
                </g>
               <g id="resetDef">
                       <use xlink:href="#rim2" fill="#404040">
                               <set attributeName="fill" to="#808080" begin="reset.mouseover" end="reset.mouseout"/>
                       </use>
               </g>
        </defs>

<script type="text/javascript">
var viewWidth = 1874;
var viewHeight = 375;
var sectionId = 'dynsection-0';
</script>
<script xlink:href="svgpan.js"/>
<svg id="graph" class="graph">
<g id="viewport">
<title>src/crypto/openssl/hash.h</title>
<polygon fill="white" stroke="transparent" points="-4,4 -4,-371 1870,-371 1870,4 -4,4"/>
<!-- Node1 -->
<g id="node1" class="node">
<title>Node1</title>
<g id="a_node1"><a xlink:title=" ">
<polygon fill="#bfbfbf" stroke="black" points="1251.5,-336.5 1251.5,-366.5 1356.5,-366.5 1356.5,-336.5 1251.5,-336.5"/>
<text text-anchor="start" x="1259.5" y="-354.5" font-family="Helvetica,sans-Serif" font-size="10.00">src/crypto/openssl</text>
<text text-anchor="middle" x="1304" y="-343.5" font-family="Helvetica,sans-Serif" font-size="10.00">/hash.h</text>
</a>
</g>
</g>
<!-- Node2 -->
<g id="node2" class="node">
<title>Node2</title>
<g id="a_node2"><a xlink:href="hash__provider_8h.html" target="_top" xlink:title=" ">
<polygon fill="white" stroke="black" points="156.5,-280.5 156.5,-299.5 301.5,-299.5 301.5,-280.5 156.5,-280.5"/>
<text text-anchor="middle" x="229" y="-287.5" font-family="Helvetica,sans-Serif" font-size="10.00">ccf/crypto/hash_provider.h</text>
</a>
</g>
</g>
<!-- Node1&#45;&gt;Node2 -->
<g id="edge1" class="edge">
<title>Node1&#45;&gt;Node2</title>
<path fill="none" stroke="midnightblue" d="M1251.42,-347.59C1077.96,-337.99 522.86,-307.26 311.65,-295.57"/>
<polygon fill="midnightblue" stroke="midnightblue" points="311.73,-292.07 301.55,-295.02 311.34,-299.06 311.73,-292.07"/>
</g>
<!-- Node17 -->
<g id="node17" class="node">
<title>Node17</title>
<g id="a_node17"><a xlink:title=" ">
<polygon fill="white" stroke="#bfbfbf" points="422.5,-56.5 422.5,-75.5 501.5,-75.5 501.5,-56.5 422.5,-56.5"/>
<text text-anchor="middle" x="462" y="-63.5" font-family="Helvetica,sans-Serif" font-size="10.00">fmt/format.h</text>
</a>
</g>
</g>
<!-- Node1&#45;&gt;Node17 -->
<g id="edge64" class="edge">
<title>Node1&#45;&gt;Node17</title>
<path fill="none" stroke="midnightblue" d="M1251.34,-349.79C1031.03,-346.62 192.46,-332.46 147,-300 98.34,-265.26 81.48,-212.87 121,-168 162.9,-120.43 347.9,-161.52 404,-132 424.84,-121.04 441.78,-99.37 451.86,-84.07"/>
<polygon fill="midnightblue" stroke="midnightblue" points="454.87,-85.85 457.22,-75.52 448.94,-82.13 454.87,-85.85"/>
</g>
<!-- Node23 -->
<g id="node23" class="node">
<title>Node23</title>
<g id="a_node23"><a xlink:href="openssl__wrappers_8h.html" target="_top" xlink:title=" ">
<polygon fill="white" stroke="black" points="1205.5,-280.5 1205.5,-299.5 1318.5,-299.5 1318.5,-280.5 1205.5,-280.5"/>
<text text-anchor="middle" x="1262" y="-287.5" font-family="Helvetica,sans-Serif" font-size="10.00">openssl_wrappers.h</text>
</a>
</g>
</g>
<!-- Node1&#45;&gt;Node23 -->
<g id="edge32" class="edge">
<title>Node1&#45;&gt;Node23</title>
<path fill="none" stroke="midnightblue" d="M1294.05,-336.4C1288.01,-327.84 1280.26,-316.87 1273.9,-307.86"/>
<polygon fill="midnightblue" stroke="midnightblue" points="1276.74,-305.81 1268.11,-299.66 1271.02,-309.85 1276.74,-305.81"/>
</g>
<!-- Node37 -->
<g id="node37" class="node">
<title>Node37</title>
<g id="a_node37"><a xlink:title=" ">
<polygon fill="white" stroke="#bfbfbf" points="1782,-224.5 1782,-243.5 1866,-243.5 1866,-224.5 1782,-224.5"/>
<text text-anchor="middle" x="1824" y="-231.5" font-family="Helvetica,sans-Serif" font-size="10.00">openssl/evp.h</text>
</a>
</g>
</g>
<!-- Node1&#45;&gt;Node37 -->
<g id="edge61" class="edge">
<title>Node1&#45;&gt;Node37</title>
<path fill="none" stroke="midnightblue" d="M1312.11,-336.21C1322.46,-319.49 1342.06,-292.51 1367,-280 1445.47,-240.65 1668.52,-255.01 1771.58,-244.1"/>
<polygon fill="midnightblue" stroke="midnightblue" points="1772.25,-247.54 1781.76,-242.88 1771.41,-240.59 1772.25,-247.54"/>
</g>
<!-- Node42 -->
<g id="node42" class="node">
<title>Node42</title>
<g id="a_node42"><a xlink:title=" ">
<polygon fill="white" stroke="#bfbfbf" points="1375.5,-280.5 1375.5,-299.5 1456.5,-299.5 1456.5,-280.5 1375.5,-280.5"/>
<text text-anchor="middle" x="1416" y="-287.5" font-family="Helvetica,sans-Serif" font-size="10.00">openssl/kdf.h</text>
</a>
</g>
</g>
<!-- Node1&#45;&gt;Node42 -->
<g id="edge62" class="edge">
<title>Node1&#45;&gt;Node42</title>
<path fill="none" stroke="midnightblue" d="M1330.54,-336.4C1348.66,-326.77 1372.54,-314.09 1390.44,-304.58"/>
<polygon fill="midnightblue" stroke="midnightblue" points="1392.51,-307.44 1399.7,-299.66 1389.23,-301.26 1392.51,-307.44"/>
</g>
<!-- Node43 -->
<g id="node43" class="node">
<title>Node43</title>
<g id="a_node43"><a xlink:title=" ">
<polygon fill="white" stroke="#bfbfbf" points="1474.5,-280.5 1474.5,-299.5 1557.5,-299.5 1557.5,-280.5 1474.5,-280.5"/>
<text text-anchor="middle" x="1516" y="-287.5" font-family="Helvetica,sans-Serif" font-size="10.00">openssl/sha.h</text>
</a>
</g>
</g>
<!-- Node1&#45;&gt;Node43 -->
<g id="edge63" class="edge">
<title>Node1&#45;&gt;Node43</title>
<path fill="none" stroke="midnightblue" d="M1353.97,-336.47C1391.19,-326.03 1441.33,-311.96 1475.93,-302.25"/>
<polygon fill="midnightblue" stroke="midnightblue" points="1477.01,-305.58 1485.69,-299.51 1475.12,-298.84 1477.01,-305.58"/>
</g>
<!-- Node3 -->
<g id="node3" class="node">
<title>Node3</title>
<g id="a_node3"><a xlink:href="hash__bytes_8h.html" target="_top" xlink:title=" ">
<polygon fill="white" stroke="black" points="220,-224.5 220,-243.5 352,-243.5 352,-224.5 220,-224.5"/>
<text text-anchor="middle" x="286" y="-231.5" font-family="Helvetica,sans-Serif" font-size="10.00">ccf/crypto/hash_bytes.h</text>
</a>
</g>
</g>
<!-- Node2&#45;&gt;Node3 -->
<g id="edge2" class="edge">
<title>Node2&#45;&gt;Node3</title>
<path fill="none" stroke="midnightblue" d="M238.16,-280.32C246.5,-272.42 259.03,-260.55 269.18,-250.94"/>
<polygon fill="midnightblue" stroke="midnightblue" points="271.82,-253.25 276.68,-243.83 267.01,-248.17 271.82,-253.25"/>
</g>
<!-- Node4 -->
<g id="node4" class="node">
<title>Node4</title>
<g id="a_node4"><a xlink:title=" ">
<polygon fill="white" stroke="#bfbfbf" points="130,-168.5 130,-187.5 180,-187.5 180,-168.5 130,-168.5"/>
<text text-anchor="middle" x="155" y="-175.5" font-family="Helvetica,sans-Serif" font-size="10.00">cstdint</text>
</a>
</g>
</g>
<!-- Node2&#45;&gt;Node4 -->
<g id="edge29" class="edge">
<title>Node2&#45;&gt;Node4</title>
<path fill="none" stroke="midnightblue" d="M187.53,-280.5C167.41,-274.06 145.05,-262.95 133,-244 123.55,-229.13 132.36,-209.75 141.48,-196.03"/>
<polygon fill="midnightblue" stroke="midnightblue" points="144.59,-197.72 147.63,-187.57 138.92,-193.6 144.59,-197.72"/>
</g>
<!-- Node5 -->
<g id="node5" class="node">
<title>Node5</title>
<g id="a_node5"><a xlink:title=" ">
<polygon fill="white" stroke="#bfbfbf" points="520.5,-0.5 520.5,-19.5 567.5,-19.5 567.5,-0.5 520.5,-0.5"/>
<text text-anchor="middle" x="544" y="-7.5" font-family="Helvetica,sans-Serif" font-size="10.00">vector</text>
</a>
</g>
</g>
<!-- Node2&#45;&gt;Node5 -->
<g id="edge31" class="edge">
<title>Node2&#45;&gt;Node5</title>
<path fill="none" stroke="midnightblue" d="M182.89,-280.46C161.77,-274.07 138.49,-263.02 125,-244 105.43,-216.41 106.35,-198.49 121,-168 155.52,-96.18 187.97,-87.87 261,-56 360.26,-12.68 395.44,-39.36 502,-20 504.66,-19.52 507.41,-18.99 510.17,-18.44"/>
<polygon fill="midnightblue" stroke="midnightblue" points="510.98,-21.85 520.06,-16.4 509.56,-14.99 510.98,-21.85"/>
</g>
<!-- Node6 -->
<g id="node6" class="node">
<title>Node6</title>
<g id="a_node6"><a xlink:href="md__type_8h.html" target="_top" xlink:title=" ">
<polygon fill="white" stroke="black" points="528.5,-224.5 528.5,-243.5 647.5,-243.5 647.5,-224.5 528.5,-224.5"/>
<text text-anchor="middle" x="588" y="-231.5" font-family="Helvetica,sans-Serif" font-size="10.00">ccf/crypto/md_type.h</text>
</a>
</g>
</g>
<!-- Node2&#45;&gt;Node6 -->
<g id="edge5" class="edge">
<title>Node2&#45;&gt;Node6</title>
<path fill="none" stroke="midnightblue" d="M285.88,-280.44C349.82,-270.83 453.52,-255.23 521.25,-245.04"/>
<polygon fill="midnightblue" stroke="midnightblue" points="522.01,-248.47 531.38,-243.52 520.97,-241.54 522.01,-248.47"/>
</g>
<!-- Node13 -->
<g id="node13" class="node">
<title>Node13</title>
<g id="a_node13"><a xlink:title=" ">
<polygon fill="white" stroke="#bfbfbf" points="9,-0.5 9,-19.5 51,-19.5 51,-0.5 9,-0.5"/>
<text text-anchor="middle" x="30" y="-7.5" font-family="Helvetica,sans-Serif" font-size="10.00">array</text>
</a>
</g>
</g>
<!-- Node2&#45;&gt;Node13 -->
<g id="edge28" class="edge">
<title>Node2&#45;&gt;Node13</title>
<path fill="none" stroke="midnightblue" d="M156.23,-283.92C89.17,-274.82 0,-249.46 0,-179 0,-179 0,-179 0,-121 0,-87.64 13,-50.53 21.89,-29.07"/>
<polygon fill="midnightblue" stroke="midnightblue" points="25.21,-30.19 25.95,-19.62 18.78,-27.42 25.21,-30.19"/>
</g>
<!-- Node20 -->
<g id="node20" class="node">
<title>Node20</title>
<g id="a_node20"><a xlink:href="sha256__hash_8h.html" target="_top" xlink:title=" ">
<polygon fill="white" stroke="black" points="370,-224.5 370,-243.5 510,-243.5 510,-224.5 370,-224.5"/>
<text text-anchor="middle" x="440" y="-231.5" font-family="Helvetica,sans-Serif" font-size="10.00">ccf/crypto/sha256_hash.h</text>
</a>
</g>
</g>
<!-- Node2&#45;&gt;Node20 -->
<g id="edge23" class="edge">
<title>Node2&#45;&gt;Node20</title>
<path fill="none" stroke="midnightblue" d="M262.43,-280.44C298.86,-271.12 357.23,-256.18 397.03,-246"/>
<polygon fill="midnightblue" stroke="midnightblue" points="397.9,-249.39 406.72,-243.52 396.17,-242.61 397.9,-249.39"/>
</g>
<!-- Node22 -->
<g id="node22" class="node">
<title>Node22</title>
<g id="a_node22"><a xlink:title=" ">
<polygon fill="white" stroke="#bfbfbf" points="142,-224.5 142,-243.5 202,-243.5 202,-224.5 142,-224.5"/>
<text text-anchor="middle" x="172" y="-231.5" font-family="Helvetica,sans-Serif" font-size="10.00">iostream</text>
</a>
</g>
</g>
<!-- Node2&#45;&gt;Node22 -->
<g id="edge30" class="edge">
<title>Node2&#45;&gt;Node22</title>
<path fill="none" stroke="midnightblue" d="M219.84,-280.32C211.5,-272.42 198.97,-260.55 188.82,-250.94"/>
<polygon fill="midnightblue" stroke="midnightblue" points="190.99,-248.17 181.32,-243.83 186.18,-253.25 190.99,-248.17"/>
</g>
<!-- Node3&#45;&gt;Node4 -->
<g id="edge3" class="edge">
<title>Node3&#45;&gt;Node4</title>
<path fill="none" stroke="midnightblue" d="M265.24,-224.44C243.68,-215.56 209.74,-201.56 185.21,-191.45"/>
<polygon fill="midnightblue" stroke="midnightblue" points="186.24,-188.09 175.66,-187.52 183.57,-194.56 186.24,-188.09"/>
</g>
<!-- Node3&#45;&gt;Node5 -->
<g id="edge4" class="edge">
<title>Node3&#45;&gt;Node5</title>
<path fill="none" stroke="midnightblue" d="M281.73,-224.31C268.16,-195.3 229.66,-101.13 278,-56 314.85,-21.6 452.45,-29.28 502,-20 504.82,-19.47 507.74,-18.9 510.66,-18.31"/>
<polygon fill="midnightblue" stroke="midnightblue" points="511.42,-21.73 520.5,-16.26 509.99,-14.87 511.42,-21.73"/>
</g>
<!-- Node7 -->
<g id="node7" class="node">
<title>Node7</title>
<g id="a_node7"><a xlink:href="json_8h.html" target="_top" xlink:title=" ">
<polygon fill="white" stroke="black" points="512.5,-168.5 512.5,-187.5 589.5,-187.5 589.5,-168.5 512.5,-168.5"/>
<text text-anchor="middle" x="551" y="-175.5" font-family="Helvetica,sans-Serif" font-size="10.00">ccf/ds/json.h</text>
</a>
</g>
</g>
<!-- Node6&#45;&gt;Node7 -->
<g id="edge6" class="edge">
<title>Node6&#45;&gt;Node7</title>
<path fill="none" stroke="midnightblue" d="M581.89,-224.08C576.72,-216.53 569.15,-205.49 562.81,-196.23"/>
<polygon fill="midnightblue" stroke="midnightblue" points="565.54,-194.02 557,-187.75 559.76,-197.98 565.54,-194.02"/>
</g>
<!-- Node8 -->
<g id="node8" class="node">
<title>Node8</title>
<g id="a_node8"><a xlink:href="include_2ccf_2crypto_2base64_8h.html" target="_top" xlink:title=" ">
<polygon fill="white" stroke="black" points="519,-56.5 519,-75.5 631,-75.5 631,-56.5 519,-56.5"/>
<text text-anchor="middle" x="575" y="-63.5" font-family="Helvetica,sans-Serif" font-size="10.00">ccf/crypto/base64.h</text>
</a>
</g>
</g>
<!-- Node7&#45;&gt;Node8 -->
<g id="edge7" class="edge">
<title>Node7&#45;&gt;Node8</title>
<path fill="none" stroke="midnightblue" d="M552.88,-168.37C556.76,-150.62 565.69,-109.67 570.94,-85.6"/>
<polygon fill="midnightblue" stroke="midnightblue" points="574.41,-86.11 573.13,-75.59 567.57,-84.62 574.41,-86.11"/>
</g>
<!-- Node10 -->
<g id="node10" class="node">
<title>Node10</title>
<g id="a_node10"><a xlink:href="include_2ccf_2ds_2json__schema_8h.html" target="_top" xlink:title=" ">
<polygon fill="white" stroke="black" points="274.5,-112.5 274.5,-131.5 395.5,-131.5 395.5,-112.5 274.5,-112.5"/>
<text text-anchor="middle" x="335" y="-119.5" font-family="Helvetica,sans-Serif" font-size="10.00">ccf/ds/json_schema.h</text>
</a>
</g>
</g>
<!-- Node7&#45;&gt;Node10 -->
<g id="edge10" class="edge">
<title>Node7&#45;&gt;Node10</title>
<path fill="none" stroke="midnightblue" d="M516.77,-168.44C479.49,-159.12 419.73,-144.18 378.99,-134"/>
<polygon fill="midnightblue" stroke="midnightblue" points="379.62,-130.55 369.07,-131.52 377.92,-137.34 379.62,-130.55"/>
</g>
<!-- Node7&#45;&gt;Node17 -->
<g id="edge21" class="edge">
<title>Node7&#45;&gt;Node17</title>
<path fill="none" stroke="midnightblue" d="M544.02,-168.37C529.26,-150.14 494.71,-107.43 475.49,-83.68"/>
<polygon fill="midnightblue" stroke="midnightblue" points="477.96,-81.16 468.95,-75.59 472.52,-85.57 477.96,-81.16"/>
</g>
<!-- Node19 -->
<g id="node19" class="node">
<title>Node19</title>
<g id="a_node19"><a xlink:title=" ">
<polygon fill="white" stroke="#bfbfbf" points="911,-112.5 911,-131.5 967,-131.5 967,-112.5 911,-112.5"/>
<text text-anchor="middle" x="939" y="-119.5" font-family="Helvetica,sans-Serif" font-size="10.00">sstream</text>
</a>
</g>
</g>
<!-- Node7&#45;&gt;Node19 -->
<g id="edge22" class="edge">
<title>Node7&#45;&gt;Node19</title>
<path fill="none" stroke="midnightblue" d="M589.74,-169.55C592.87,-169.01 595.99,-168.48 599,-168 707.94,-150.59 837.29,-134.81 900.44,-127.42"/>
<polygon fill="midnightblue" stroke="midnightblue" points="901.19,-130.86 910.72,-126.22 900.38,-123.9 901.19,-130.86"/>
</g>
<!-- Node8&#45;&gt;Node5 -->
<g id="edge9" class="edge">
<title>Node8&#45;&gt;Node5</title>
<path fill="none" stroke="midnightblue" d="M569.88,-56.08C565.59,-48.61 559.34,-37.72 554.06,-28.52"/>
<polygon fill="midnightblue" stroke="midnightblue" points="557.04,-26.68 549.02,-19.75 550.97,-30.17 557.04,-26.68"/>
</g>
<!-- Node9 -->
<g id="node9" class="node">
<title>Node9</title>
<g id="a_node9"><a xlink:title=" ">
<polygon fill="white" stroke="#bfbfbf" points="341,-0.5 341,-19.5 385,-19.5 385,-0.5 341,-0.5"/>
<text text-anchor="middle" x="363" y="-7.5" font-family="Helvetica,sans-Serif" font-size="10.00">string</text>
</a>
</g>
</g>
<!-- Node8&#45;&gt;Node9 -->
<g id="edge8" class="edge">
<title>Node8&#45;&gt;Node9</title>
<path fill="none" stroke="midnightblue" d="M541.41,-56.44C501.22,-46.21 434.42,-29.19 394.97,-19.14"/>
<polygon fill="midnightblue" stroke="midnightblue" points="395.64,-15.7 385.08,-16.62 393.91,-22.48 395.64,-15.7"/>
</g>
<!-- Node11 -->
<g id="node11" class="node">
<title>Node11</title>
<g id="a_node11"><a xlink:href="nonstd_8h.html" target="_top" xlink:title=" ">
<polygon fill="white" stroke="black" points="103,-56.5 103,-75.5 193,-75.5 193,-56.5 103,-56.5"/>
<text text-anchor="middle" x="148" y="-63.5" font-family="Helvetica,sans-Serif" font-size="10.00">ccf/ds/nonstd.h</text>
</a>
</g>
</g>
<!-- Node10&#45;&gt;Node11 -->
<g id="edge11" class="edge">
<title>Node10&#45;&gt;Node11</title>
<path fill="none" stroke="midnightblue" d="M305.37,-112.44C273.5,-103.24 222.67,-88.56 187.44,-78.39"/>
<polygon fill="midnightblue" stroke="midnightblue" points="188.07,-74.93 177.49,-75.52 186.13,-81.65 188.07,-74.93"/>
</g>
<!-- Node10&#45;&gt;Node17 -->
<g id="edge19" class="edge">
<title>Node10&#45;&gt;Node17</title>
<path fill="none" stroke="midnightblue" d="M355.12,-112.44C376.02,-103.56 408.93,-89.56 432.72,-79.45"/>
<polygon fill="midnightblue" stroke="midnightblue" points="434.14,-82.65 441.97,-75.52 431.4,-76.21 434.14,-82.65"/>
</g>
<!-- Node18 -->
<g id="node18" class="node">
<title>Node18</title>
<g id="a_node18"><a xlink:title=" ">
<polygon fill="white" stroke="#bfbfbf" points="287,-56.5 287,-75.5 397,-75.5 397,-56.5 287,-56.5"/>
<text text-anchor="middle" x="342" y="-63.5" font-family="Helvetica,sans-Serif" font-size="10.00">nlohmann/json.hpp</text>
</a>
</g>
</g>
<!-- Node10&#45;&gt;Node18 -->
<g id="edge20" class="edge">
<title>Node10&#45;&gt;Node18</title>
<path fill="none" stroke="midnightblue" d="M336.16,-112.08C337.08,-104.93 338.42,-94.64 339.58,-85.69"/>
<polygon fill="midnightblue" stroke="midnightblue" points="343.05,-86.12 340.87,-75.75 336.11,-85.22 343.05,-86.12"/>
</g>
<!-- Node11&#45;&gt;Node5 -->
<g id="edge18" class="edge">
<title>Node11&#45;&gt;Node5</title>
<path fill="none" stroke="midnightblue" d="M193.08,-57.98C197.78,-57.29 202.48,-56.62 207,-56 337.86,-38.04 371.74,-41.86 502,-20 504.67,-19.55 507.42,-19.05 510.18,-18.52"/>
<polygon fill="midnightblue" stroke="midnightblue" points="510.98,-21.93 520.08,-16.51 509.59,-15.07 510.98,-21.93"/>
</g>
<!-- Node11&#45;&gt;Node9 -->
<g id="edge15" class="edge">
<title>Node11&#45;&gt;Node9</title>
<path fill="none" stroke="midnightblue" d="M182.07,-56.44C223.02,-46.16 291.22,-29.03 331.16,-19"/>
<polygon fill="midnightblue" stroke="midnightblue" points="332.06,-22.38 340.91,-16.55 330.36,-15.59 332.06,-22.38"/>
</g>
<!-- Node12 -->
<g id="node12" class="node">
<title>Node12</title>
<g id="a_node12"><a xlink:title=" ">
<polygon fill="white" stroke="#bfbfbf" points="224,-0.5 224,-19.5 288,-19.5 288,-0.5 224,-0.5"/>
<text text-anchor="middle" x="256" y="-7.5" font-family="Helvetica,sans-Serif" font-size="10.00">algorithm</text>
</a>
</g>
</g>
<!-- Node11&#45;&gt;Node12 -->
<g id="edge12" class="edge">
<title>Node11&#45;&gt;Node12</title>
<path fill="none" stroke="midnightblue" d="M165.35,-56.32C182.67,-47.66 209.52,-34.24 229.5,-24.25"/>
<polygon fill="midnightblue" stroke="midnightblue" points="231.31,-27.26 238.69,-19.65 228.18,-21 231.31,-27.26"/>
</g>
<!-- Node11&#45;&gt;Node13 -->
<g id="edge13" class="edge">
<title>Node11&#45;&gt;Node13</title>
<path fill="none" stroke="midnightblue" d="M129.3,-56.44C110.06,-47.64 79.85,-33.81 57.8,-23.72"/>
<polygon fill="midnightblue" stroke="midnightblue" points="59.16,-20.5 48.61,-19.52 56.25,-26.86 59.16,-20.5"/>
</g>
<!-- Node14 -->
<g id="node14" class="node">
<title>Node14</title>
<g id="a_node14"><a xlink:title=" ">
<polygon fill="white" stroke="#bfbfbf" points="69.5,-0.5 69.5,-19.5 118.5,-19.5 118.5,-0.5 69.5,-0.5"/>
<text text-anchor="middle" x="94" y="-7.5" font-family="Helvetica,sans-Serif" font-size="10.00">cctype</text>
</a>
</g>
</g>
<!-- Node11&#45;&gt;Node14 -->
<g id="edge14" class="edge">
<title>Node11&#45;&gt;Node14</title>
<path fill="none" stroke="midnightblue" d="M139.08,-56.08C131.22,-48.22 119.57,-36.57 110.08,-27.08"/>
<polygon fill="midnightblue" stroke="midnightblue" points="112.3,-24.35 102.75,-19.75 107.35,-29.3 112.3,-24.35"/>
</g>
<!-- Node15 -->
<g id="node15" class="node">
<title>Node15</title>
<g id="a_node15"><a xlink:title=" ">
<polygon fill="white" stroke="#bfbfbf" points="420.5,-0.5 420.5,-19.5 493.5,-19.5 493.5,-0.5 420.5,-0.5"/>
<text text-anchor="middle" x="457" y="-7.5" font-family="Helvetica,sans-Serif" font-size="10.00">string_view</text>
</a>
</g>
</g>
<!-- Node11&#45;&gt;Node15 -->
<g id="edge16" class="edge">
<title>Node11&#45;&gt;Node15</title>
<path fill="none" stroke="midnightblue" d="M193.26,-57.09C251.3,-46.95 351.44,-29.45 410.21,-19.18"/>
<polygon fill="midnightblue" stroke="midnightblue" points="411.08,-22.58 420.33,-17.41 409.87,-15.68 411.08,-22.58"/>
</g>
<!-- Node16 -->
<g id="node16" class="node">
<title>Node16</title>
<g id="a_node16"><a xlink:title=" ">
<polygon fill="white" stroke="#bfbfbf" points="136.5,-0.5 136.5,-19.5 205.5,-19.5 205.5,-0.5 136.5,-0.5"/>
<text text-anchor="middle" x="171" y="-7.5" font-family="Helvetica,sans-Serif" font-size="10.00">type_traits</text>
</a>
</g>
</g>
<!-- Node11&#45;&gt;Node16 -->
<g id="edge17" class="edge">
<title>Node11&#45;&gt;Node16</title>
<path fill="none" stroke="midnightblue" d="M151.8,-56.08C154.91,-48.77 159.42,-38.18 163.29,-29.1"/>
<polygon fill="midnightblue" stroke="midnightblue" points="166.57,-30.32 167.27,-19.75 160.13,-27.58 166.57,-30.32"/>
</g>
<!-- Node20&#45;&gt;Node7 -->
<g id="edge24" class="edge">
<title>Node20&#45;&gt;Node7</title>
<path fill="none" stroke="midnightblue" d="M457.83,-224.32C475.72,-215.62 503.48,-202.12 524.05,-192.11"/>
<polygon fill="midnightblue" stroke="midnightblue" points="525.75,-195.18 533.21,-187.65 522.69,-188.88 525.75,-195.18"/>
</g>
<!-- Node20&#45;&gt;Node13 -->
<g id="edge25" class="edge">
<title>Node20&#45;&gt;Node13</title>
<path fill="none" stroke="midnightblue" d="M412.65,-224.44C351.75,-204.6 201.9,-151.34 94,-76 74.21,-62.18 55.31,-41.79 43.24,-27.54"/>
<polygon fill="midnightblue" stroke="midnightblue" points="45.74,-25.06 36.67,-19.57 40.34,-29.51 45.74,-25.06"/>
</g>
<!-- Node20&#45;&gt;Node17 -->
<g id="edge27" class="edge">
<title>Node20&#45;&gt;Node17</title>
<path fill="none" stroke="midnightblue" d="M441.18,-224.08C444.65,-197.95 454.82,-121.21 459.54,-85.58"/>
<polygon fill="midnightblue" stroke="midnightblue" points="463.02,-85.94 460.86,-75.57 456.08,-85.02 463.02,-85.94"/>
</g>
<!-- Node21 -->
<g id="node21" class="node">
<title>Node21</title>
<g id="a_node21"><a xlink:title=" ">
<polygon fill="white" stroke="#bfbfbf" points="608,-168.5 608,-187.5 648,-187.5 648,-168.5 608,-168.5"/>
<text text-anchor="middle" x="628" y="-175.5" font-family="Helvetica,sans-Serif" font-size="10.00">span</text>
</a>
</g>
</g>
<!-- Node20&#45;&gt;Node21 -->
<g id="edge26" class="edge">
<title>Node20&#45;&gt;Node21</title>
<path fill="none" stroke="midnightblue" d="M471.14,-224.43C501.3,-216.09 548.56,-202.86 598.13,-188.21"/>
<polygon fill="midnightblue" stroke="midnightblue" points="599.15,-191.56 607.74,-185.36 597.16,-184.85 599.15,-191.56"/>
</g>
<!-- Node23&#45;&gt;Node17 -->
<g id="edge50" class="edge">
<title>Node23&#45;&gt;Node17</title>
<path fill="none" stroke="midnightblue" d="M1205.5,-287.64C1070.37,-283.95 736.66,-272.08 695,-244 663.69,-222.89 683.51,-194.89 657,-168 612.43,-122.79 543.33,-93.66 500.47,-78.82"/>
<polygon fill="midnightblue" stroke="midnightblue" points="501.56,-75.49 490.96,-75.61 499.32,-82.12 501.56,-75.49"/>
</g>
<!-- Node24 -->
<g id="node24" class="node">
<title>Node24</title>
<g id="a_node24"><a xlink:href="pem_8h.html" target="_top" xlink:title=" ">
<polygon fill="white" stroke="black" points="1136,-224.5 1136,-243.5 1234,-243.5 1234,-224.5 1136,-224.5"/>
<text text-anchor="middle" x="1185" y="-231.5" font-family="Helvetica,sans-Serif" font-size="10.00">ccf/crypto/pem.h</text>
</a>
</g>
</g>
<!-- Node23&#45;&gt;Node24 -->
<g id="edge33" class="edge">
<title>Node23&#45;&gt;Node24</title>
<path fill="none" stroke="midnightblue" d="M1249.63,-280.32C1237.84,-272.06 1219.87,-259.45 1205.86,-249.63"/>
<polygon fill="midnightblue" stroke="midnightblue" points="1207.54,-246.53 1197.34,-243.65 1203.52,-252.26 1207.54,-246.53"/>
</g>
<!-- Node27 -->
<g id="node27" class="node">
<title>Node27</title>
<g id="a_node27"><a xlink:title=" ">
<polygon fill="white" stroke="#bfbfbf" points="1213,-168.5 1213,-187.5 1271,-187.5 1271,-168.5 1213,-168.5"/>
<text text-anchor="middle" x="1242" y="-175.5" font-family="Helvetica,sans-Serif" font-size="10.00">memory</text>
</a>
</g>
</g>
<!-- Node23&#45;&gt;Node27 -->
<g id="edge51" class="edge">
<title>Node23&#45;&gt;Node27</title>
<path fill="none" stroke="midnightblue" d="M1260.43,-280.37C1257.2,-262.62 1249.76,-221.67 1245.38,-197.6"/>
<polygon fill="midnightblue" stroke="midnightblue" points="1248.79,-196.8 1243.56,-187.59 1241.91,-198.06 1248.79,-196.8"/>
</g>
<!-- Node28 -->
<g id="node28" class="node">
<title>Node28</title>
<g id="a_node28"><a xlink:title=" ">
<polygon fill="white" stroke="#bfbfbf" points="1216,-112.5 1216,-131.5 1266,-131.5 1266,-112.5 1216,-112.5"/>
<text text-anchor="middle" x="1241" y="-119.5" font-family="Helvetica,sans-Serif" font-size="10.00">chrono</text>
</a>
</g>
</g>
<!-- Node23&#45;&gt;Node28 -->
<g id="edge41" class="edge">
<title>Node23&#45;&gt;Node28</title>
<path fill="none" stroke="midnightblue" d="M1266.07,-280.49C1275.12,-260.29 1294.99,-208.2 1280,-168 1275.83,-156.81 1267.48,-146.56 1259.58,-138.68"/>
<polygon fill="midnightblue" stroke="midnightblue" points="1261.7,-135.87 1251.99,-131.63 1256.94,-141 1261.7,-135.87"/>
</g>
<!-- Node29 -->
<g id="node29" class="node">
<title>Node29</title>
<g id="a_node29"><a xlink:href="x509__time__fmt_8h.html" target="_top" xlink:title=" ">
<polygon fill="white" stroke="black" points="1327,-168.5 1327,-187.5 1441,-187.5 1441,-168.5 1327,-168.5"/>
<text text-anchor="middle" x="1384" y="-175.5" font-family="Helvetica,sans-Serif" font-size="10.00">ds/x509_time_fmt.h</text>
</a>
</g>
</g>
<!-- Node23&#45;&gt;Node29 -->
<g id="edge42" class="edge">
<title>Node23&#45;&gt;Node29</title>
<path fill="none" stroke="midnightblue" d="M1272.06,-280.48C1282.6,-271.5 1299.6,-256.91 1314,-244 1332.58,-227.34 1353.5,-207.81 1367.59,-194.54"/>
<polygon fill="midnightblue" stroke="midnightblue" points="1370.16,-196.93 1375.03,-187.52 1365.36,-191.84 1370.16,-196.93"/>
</g>
<!-- Node33 -->
<g id="node33" class="node">
<title>Node33</title>
<g id="a_node33"><a xlink:title=" ">
<polygon fill="white" stroke="#bfbfbf" points="1366.5,-224.5 1366.5,-243.5 1455.5,-243.5 1455.5,-224.5 1366.5,-224.5"/>
<text text-anchor="middle" x="1411" y="-231.5" font-family="Helvetica,sans-Serif" font-size="10.00">openssl/asn1.h</text>
</a>
</g>
</g>
<!-- Node23&#45;&gt;Node33 -->
<g id="edge52" class="edge">
<title>Node23&#45;&gt;Node33</title>
<path fill="none" stroke="midnightblue" d="M1285.61,-280.44C1310.46,-271.44 1349.77,-257.19 1377.75,-247.05"/>
<polygon fill="midnightblue" stroke="midnightblue" points="1379.29,-250.21 1387.5,-243.52 1376.91,-243.63 1379.29,-250.21"/>
</g>
<!-- Node34 -->
<g id="node34" class="node">
<title>Node34</title>
<g id="a_node34"><a xlink:title=" ">
<polygon fill="white" stroke="#bfbfbf" points="1473.5,-224.5 1473.5,-243.5 1550.5,-243.5 1550.5,-224.5 1473.5,-224.5"/>
<text text-anchor="middle" x="1512" y="-231.5" font-family="Helvetica,sans-Serif" font-size="10.00">openssl/ec.h</text>
</a>
</g>
</g>
<!-- Node23&#45;&gt;Node34 -->
<g id="edge53" class="edge">
<title>Node23&#45;&gt;Node34</title>
<path fill="none" stroke="midnightblue" d="M1301.61,-280.44C1345.48,-270.97 1416.23,-255.69 1463.41,-245.5"/>
<polygon fill="midnightblue" stroke="midnightblue" points="1464.36,-248.87 1473.39,-243.34 1462.88,-242.03 1464.36,-248.87"/>
</g>
<!-- Node35 -->
<g id="node35" class="node">
<title>Node35</title>
<g id="a_node35"><a xlink:title=" ">
<polygon fill="white" stroke="#bfbfbf" points="1568.5,-224.5 1568.5,-243.5 1667.5,-243.5 1667.5,-224.5 1568.5,-224.5"/>
<text text-anchor="middle" x="1618" y="-231.5" font-family="Helvetica,sans-Serif" font-size="10.00">openssl/engine.h</text>
</a>
</g>
</g>
<!-- Node23&#45;&gt;Node35 -->
<g id="edge54" class="edge">
<title>Node23&#45;&gt;Node35</title>
<path fill="none" stroke="midnightblue" d="M1318.58,-280.53C1376.37,-271.86 1468.96,-257.92 1558.3,-244.26"/>
<polygon fill="midnightblue" stroke="midnightblue" points="1558.97,-247.69 1568.33,-242.72 1557.91,-240.77 1558.97,-247.69"/>
</g>
<!-- Node36 -->
<g id="node36" class="node">
<title>Node36</title>
<g id="a_node36"><a xlink:title=" ">
<polygon fill="white" stroke="#bfbfbf" points="1685.5,-224.5 1685.5,-243.5 1764.5,-243.5 1764.5,-224.5 1685.5,-224.5"/>
<text text-anchor="middle" x="1725" y="-231.5" font-family="Helvetica,sans-Serif" font-size="10.00">openssl/err.h</text>
</a>
</g>
</g>
<!-- Node23&#45;&gt;Node36 -->
<g id="edge55" class="edge">
<title>Node23&#45;&gt;Node36</title>
<path fill="none" stroke="midnightblue" d="M1318.57,-281.72C1323.45,-281.12 1328.31,-280.54 1333,-280 1482.42,-262.71 1523.15,-266.03 1675.3,-244.15"/>
<polygon fill="midnightblue" stroke="midnightblue" points="1676.1,-247.57 1685.49,-242.67 1675.09,-240.64 1676.1,-247.57"/>
</g>
<!-- Node23&#45;&gt;Node37 -->
<g id="edge56" class="edge">
<title>Node23&#45;&gt;Node37</title>
<path fill="none" stroke="midnightblue" d="M1318.55,-281.6C1323.44,-281.03 1328.3,-280.49 1333,-280 1525.35,-259.97 1577.29,-269.13 1771.79,-244.19"/>
<polygon fill="midnightblue" stroke="midnightblue" points="1772.29,-247.66 1781.76,-242.9 1771.4,-240.71 1772.29,-247.66"/>
</g>
<!-- Node38 -->
<g id="node38" class="node">
<title>Node38</title>
<g id="a_node38"><a xlink:title=" ">
<polygon fill="white" stroke="#bfbfbf" points="704,-224.5 704,-243.5 792,-243.5 792,-224.5 704,-224.5"/>
<text text-anchor="middle" x="748" y="-231.5" font-family="Helvetica,sans-Serif" font-size="10.00">openssl/pem.h</text>
</a>
</g>
</g>
<!-- Node23&#45;&gt;Node38 -->
<g id="edge57" class="edge">
<title>Node23&#45;&gt;Node38</title>
<path fill="none" stroke="midnightblue" d="M1205.43,-284.78C1120.21,-278.13 953.62,-264.02 802.16,-244.07"/>
<polygon fill="midnightblue" stroke="midnightblue" points="802.58,-240.6 792.21,-242.75 801.66,-247.54 802.58,-240.6"/>
</g>
<!-- Node39 -->
<g id="node39" class="node">
<title>Node39</title>
<g id="a_node39"><a xlink:title=" ">
<polygon fill="white" stroke="#bfbfbf" points="810,-224.5 810,-243.5 890,-243.5 890,-224.5 810,-224.5"/>
<text text-anchor="middle" x="850" y="-231.5" font-family="Helvetica,sans-Serif" font-size="10.00">openssl/ssl.h</text>
</a>
</g>
</g>
<!-- Node23&#45;&gt;Node39 -->
<g id="edge58" class="edge">
<title>Node23&#45;&gt;Node39</title>
<path fill="none" stroke="midnightblue" d="M1205.27,-283C1135.74,-275.42 1014.09,-261.41 900.03,-244.08"/>
<polygon fill="midnightblue" stroke="midnightblue" points="900.49,-240.61 890.08,-242.56 899.43,-247.53 900.49,-240.61"/>
</g>
<!-- Node40 -->
<g id="node40" class="node">
<title>Node40</title>
<g id="a_node40"><a xlink:title=" ">
<polygon fill="white" stroke="#bfbfbf" points="908,-224.5 908,-243.5 998,-243.5 998,-224.5 908,-224.5"/>
<text text-anchor="middle" x="953" y="-231.5" font-family="Helvetica,sans-Serif" font-size="10.00">openssl/x509.h</text>
</a>
</g>
</g>
<!-- Node23&#45;&gt;Node40 -->
<g id="edge59" class="edge">
<title>Node23&#45;&gt;Node40</title>
<path fill="none" stroke="midnightblue" d="M1213.04,-280.44C1157.33,-270.71 1066.56,-254.85 1008.34,-244.67"/>
<polygon fill="midnightblue" stroke="midnightblue" points="1008.67,-241.18 998.21,-242.9 1007.46,-248.07 1008.67,-241.18"/>
</g>
<!-- Node41 -->
<g id="node41" class="node">
<title>Node41</title>
<g id="a_node41"><a xlink:title=" ">
<polygon fill="white" stroke="#bfbfbf" points="1016,-224.5 1016,-243.5 1118,-243.5 1118,-224.5 1016,-224.5"/>
<text text-anchor="middle" x="1067" y="-231.5" font-family="Helvetica,sans-Serif" font-size="10.00">openssl/x509v3.h</text>
</a>
</g>
</g>
<!-- Node23&#45;&gt;Node41 -->
<g id="edge60" class="edge">
<title>Node23&#45;&gt;Node41</title>
<path fill="none" stroke="midnightblue" d="M1231.1,-280.44C1197.73,-271.2 1144.41,-256.44 1107.65,-246.26"/>
<polygon fill="midnightblue" stroke="midnightblue" points="1108.33,-242.81 1097.75,-243.52 1106.46,-249.56 1108.33,-242.81"/>
</g>
<!-- Node24&#45;&gt;Node5 -->
<g id="edge40" class="edge">
<title>Node24&#45;&gt;Node5</title>
<path fill="none" stroke="midnightblue" d="M1135.61,-224.68C1092.02,-216.51 1032.58,-203.1 1014,-188 984.69,-164.19 1005.64,-135.4 976,-112 913.2,-62.41 667.77,-26.79 577.53,-15.12"/>
<polygon fill="midnightblue" stroke="midnightblue" points="577.93,-11.65 567.56,-13.85 577.04,-18.59 577.93,-11.65"/>
</g>
<!-- Node24&#45;&gt;Node7 -->
<g id="edge34" class="edge">
<title>Node24&#45;&gt;Node7</title>
<path fill="none" stroke="midnightblue" d="M1135.99,-225.09C1132.95,-224.7 1129.94,-224.33 1127,-224 896.55,-198.31 834.09,-217.17 599.91,-187.95"/>
<polygon fill="midnightblue" stroke="midnightblue" points="600.07,-184.44 589.71,-186.66 599.19,-191.39 600.07,-184.44"/>
</g>
<!-- Node24&#45;&gt;Node15 -->
<g id="edge39" class="edge">
<title>Node24&#45;&gt;Node15</title>
<path fill="none" stroke="midnightblue" d="M1185.23,-224.28C1185.09,-210.12 1182.57,-182.27 1166,-168 1121.14,-129.36 959.92,-144.28 902,-132 783.39,-106.85 757.12,-87.37 640,-56 593.78,-43.62 540.64,-30.7 503.58,-21.89"/>
<polygon fill="midnightblue" stroke="midnightblue" points="504.11,-18.42 493.57,-19.52 502.49,-25.23 504.11,-18.42"/>
</g>
<!-- Node24&#45;&gt;Node21 -->
<g id="edge38" class="edge">
<title>Node24&#45;&gt;Node21</title>
<path fill="none" stroke="midnightblue" d="M1135.98,-225.17C1132.95,-224.75 1129.93,-224.36 1127,-224 949.71,-202.27 735.78,-186.45 658.06,-181.04"/>
<polygon fill="midnightblue" stroke="midnightblue" points="658.23,-177.54 648.01,-180.34 657.75,-184.52 658.23,-177.54"/>
</g>
<!-- Node25 -->
<g id="node25" class="node">
<title>Node25</title>
<g id="a_node25"><a xlink:title=" ">
<polygon fill="white" stroke="#bfbfbf" points="1023,-168.5 1023,-187.5 1073,-187.5 1073,-168.5 1023,-168.5"/>
<text text-anchor="middle" x="1048" y="-175.5" font-family="Helvetica,sans-Serif" font-size="10.00">cstring</text>
</a>
</g>
</g>
<!-- Node24&#45;&gt;Node25 -->
<g id="edge35" class="edge">
<title>Node24&#45;&gt;Node25</title>
<path fill="none" stroke="midnightblue" d="M1163.29,-224.44C1140.65,-215.52 1104.93,-201.44 1079.25,-191.32"/>
<polygon fill="midnightblue" stroke="midnightblue" points="1080.19,-187.93 1069.61,-187.52 1077.63,-194.44 1080.19,-187.93"/>
</g>
<!-- Node26 -->
<g id="node26" class="node">
<title>Node26</title>
<g id="a_node26"><a xlink:title=" ">
<polygon fill="white" stroke="#bfbfbf" points="1091.5,-168.5 1091.5,-187.5 1156.5,-187.5 1156.5,-168.5 1091.5,-168.5"/>
<text text-anchor="middle" x="1124" y="-175.5" font-family="Helvetica,sans-Serif" font-size="10.00">exception</text>
</a>
</g>
</g>
<!-- Node24&#45;&gt;Node26 -->
<g id="edge36" class="edge">
<title>Node24&#45;&gt;Node26</title>
<path fill="none" stroke="midnightblue" d="M1175.2,-224.32C1166.18,-216.34 1152.59,-204.31 1141.68,-194.65"/>
<polygon fill="midnightblue" stroke="midnightblue" points="1143.79,-191.84 1133.98,-187.83 1139.15,-197.08 1143.79,-191.84"/>
</g>
<!-- Node24&#45;&gt;Node27 -->
<g id="edge37" class="edge">
<title>Node24&#45;&gt;Node27</title>
<path fill="none" stroke="midnightblue" d="M1194.16,-224.32C1202.5,-216.42 1215.03,-204.55 1225.18,-194.94"/>
<polygon fill="midnightblue" stroke="midnightblue" points="1227.82,-197.25 1232.68,-187.83 1223.01,-192.17 1227.82,-197.25"/>
</g>
<!-- Node29&#45;&gt;Node5 -->
<g id="edge49" class="edge">
<title>Node29&#45;&gt;Node5</title>
<path fill="none" stroke="midnightblue" d="M1376.59,-168.2C1364.05,-153.94 1337.13,-125.94 1308,-112 1175.5,-48.59 708.23,-19.65 577.95,-12.7"/>
<polygon fill="midnightblue" stroke="midnightblue" points="577.95,-9.2 567.78,-12.17 577.58,-16.19 577.95,-9.2"/>
</g>
<!-- Node29&#45;&gt;Node17 -->
<g id="edge45" class="edge">
<title>Node29&#45;&gt;Node17</title>
<path fill="none" stroke="midnightblue" d="M1371.52,-168.49C1347.51,-152.31 1295.46,-118.16 1275,-112 1115.06,-63.86 695.02,-94.54 511.88,-76"/>
<polygon fill="midnightblue" stroke="midnightblue" points="512.07,-72.5 501.75,-74.89 511.31,-79.46 512.07,-72.5"/>
</g>
<!-- Node29&#45;&gt;Node19 -->
<g id="edge47" class="edge">
<title>Node29&#45;&gt;Node19</title>
<path fill="none" stroke="midnightblue" d="M1326.74,-170.05C1234.59,-158.87 1055.83,-137.18 977.43,-127.66"/>
<polygon fill="midnightblue" stroke="midnightblue" points="977.4,-124.13 967.05,-126.4 976.55,-131.08 977.4,-124.13"/>
</g>
<!-- Node29&#45;&gt;Node28 -->
<g id="edge43" class="edge">
<title>Node29&#45;&gt;Node28</title>
<path fill="none" stroke="midnightblue" d="M1361.34,-168.44C1337.6,-159.48 1300.09,-145.31 1273.26,-135.18"/>
<polygon fill="midnightblue" stroke="midnightblue" points="1274.14,-131.77 1263.55,-131.52 1271.67,-138.32 1274.14,-131.77"/>
</g>
<!-- Node30 -->
<g id="node30" class="node">
<title>Node30</title>
<g id="a_node30"><a xlink:title=" ">
<polygon fill="white" stroke="#bfbfbf" points="1426.5,-112.5 1426.5,-131.5 1505.5,-131.5 1505.5,-112.5 1426.5,-112.5"/>
<text text-anchor="middle" x="1466" y="-119.5" font-family="Helvetica,sans-Serif" font-size="10.00">fmt/chrono.h</text>
</a>
</g>
</g>
<!-- Node29&#45;&gt;Node30 -->
<g id="edge44" class="edge">
<title>Node29&#45;&gt;Node30</title>
<path fill="none" stroke="midnightblue" d="M1397.17,-168.32C1409.85,-159.98 1429.23,-147.21 1444.21,-137.35"/>
<polygon fill="midnightblue" stroke="midnightblue" points="1446.43,-140.08 1452.86,-131.65 1442.58,-134.23 1446.43,-140.08"/>
</g>
<!-- Node31 -->
<g id="node31" class="node">
<title>Node31</title>
<g id="a_node31"><a xlink:title=" ">
<polygon fill="white" stroke="#bfbfbf" points="1523,-112.5 1523,-131.5 1579,-131.5 1579,-112.5 1523,-112.5"/>
<text text-anchor="middle" x="1551" y="-119.5" font-family="Helvetica,sans-Serif" font-size="10.00">iomanip</text>
</a>
</g>
</g>
<!-- Node29&#45;&gt;Node31 -->
<g id="edge46" class="edge">
<title>Node29&#45;&gt;Node31</title>
<path fill="none" stroke="midnightblue" d="M1410.46,-168.44C1438.68,-159.32 1483.54,-144.81 1514.97,-134.65"/>
<polygon fill="midnightblue" stroke="midnightblue" points="1516.22,-137.92 1524.66,-131.52 1514.07,-131.26 1516.22,-137.92"/>
</g>
<!-- Node32 -->
<g id="node32" class="node">
<title>Node32</title>
<g id="a_node32"><a xlink:title=" ">
<polygon fill="white" stroke="#bfbfbf" points="1360,-112.5 1360,-131.5 1408,-131.5 1408,-112.5 1360,-112.5"/>
<text text-anchor="middle" x="1384" y="-119.5" font-family="Helvetica,sans-Serif" font-size="10.00">time.h</text>
</a>
</g>
</g>
<!-- Node29&#45;&gt;Node32 -->
<g id="edge48" class="edge">
<title>Node29&#45;&gt;Node32</title>
<path fill="none" stroke="midnightblue" d="M1384,-168.08C1384,-161.01 1384,-150.86 1384,-141.99"/>
<polygon fill="midnightblue" stroke="midnightblue" points="1387.5,-141.75 1384,-131.75 1380.5,-141.75 1387.5,-141.75"/>
</g>
</g>
</svg>
        <g id="navigator" transform="translate(0 0)" fill="#404254">
                <rect fill="#f2f5e9" fill-opacity="0.5" stroke="#606060" stroke-width=".5" x="0" y="0" width="60" height="60"/>
                <use id="zoomplus" xlink:href="#zoomPlus" x="17" y="9" onmousedown="handleZoom(evt,'in')"/>
                <use id="zoomminus" xlink:href="#zoomMin" x="42" y="9" onmousedown="handleZoom(evt,'out')"/>
                <use id="reset" xlink:href="#resetDef" x="30" y="36" onmousedown="handleReset()"/>
                <g id="arrowUp" xlink:href="#dirArrow" transform="translate(30 24)" onmousedown="handlePan(0,-1)">
                  <use xlink:href="#rim" fill="#404040">
                        <set attributeName="fill" to="#808080" begin="arrowUp.mouseover" end="arrowUp.mouseout"/>
                  </use>
                  <path fill="none" stroke="white" stroke-width="1.5" d="M0,-3.0v7 M-2.5,-0.5L0,-3.0L2.5,-0.5"/>
                </g>
                <g id="arrowRight" xlink:href="#dirArrow" transform="rotate(90) translate(36 -43)" onmousedown="handlePan(1,0)">
                  <use xlink:href="#rim" fill="#404040">
                        <set attributeName="fill" to="#808080" begin="arrowRight.mouseover" end="arrowRight.mouseout"/>
                  </use>
                  <path fill="none" stroke="white" stroke-width="1.5" d="M0,-3.0v7 M-2.5,-0.5L0,-3.0L2.5,-0.5"/>
                </g>
                <g id="arrowDown" xlink:href="#dirArrow" transform="rotate(180) translate(-30 -48)" onmousedown="handlePan(0,1)">
                  <use xlink:href="#rim" fill="#404040">
                        <set attributeName="fill" to="#808080" begin="arrowDown.mouseover" end="arrowDown.mouseout"/>
                  </use>
                  <path fill="none" stroke="white" stroke-width="1.5" d="M0,-3.0v7 M-2.5,-0.5L0,-3.0L2.5,-0.5"/>
                </g>
                <g id="arrowLeft" xlink:href="#dirArrow" transform="rotate(270) translate(-36 17)" onmousedown="handlePan(-1,0)">
                  <use xlink:href="#rim" fill="#404040">
                        <set attributeName="fill" to="#808080" begin="arrowLeft.mouseover" end="arrowLeft.mouseout"/>
                  </use>
                  <path fill="none" stroke="white" stroke-width="1.5" d="M0,-3.0v7 M-2.5,-0.5L0,-3.0L2.5,-0.5"/>
                </g>
        </g>
        <svg viewBox="0 0 15 15" width="100%" height="30px" preserveAspectRatio="xMaxYMin meet">
         <g id="arrow_out" transform="scale(0.3 0.3)">
          <a xlink:href="src_2crypto_2openssl_2hash_8h__incl_org.svg" target="_base">
           <rect id="button" ry="5" rx="5" y="6" x="6" height="38" width="38"
                fill="#f2f5e9" fill-opacity="0.5" stroke="#606060" stroke-width="1.0"/>
           <path id="arrow"
             d="M 11.500037,31.436501 C 11.940474,20.09759 22.043105,11.32322 32.158766,21.979434 L 37.068811,17.246167 C 37.068811,17.246167 37.088388,32 37.088388,32 L 22.160133,31.978069 C 22.160133,31.978069 26.997745,27.140456 26.997745,27.140456 C 18.528582,18.264221 13.291696,25.230495 11.500037,31.436501 z"
             style="fill:#404040;"/>
          </a>
         </g>
        </svg>
</svg>
