<?xml version="1.0" encoding="UTF-8" standalone="no"?>
<!DOCTYPE svg PUBLIC "-//W3C//DTD SVG 1.1//EN"
 "http://www.w3.org/Graphics/SVG/1.1/DTD/svg11.dtd">
<!-- Generated by graphviz version 2.43.0 (0)
 -->
<!-- Title: src/crypto/hash.cpp Pages: 1 -->
<svg width="1950pt" height="420pt"
 viewBox="0.00 0.00 1950.00 420.00" xmlns="http://www.w3.org/2000/svg" xmlns:xlink="http://www.w3.org/1999/xlink">
<g id="graph0" class="graph" transform="scale(1 1) rotate(0) translate(4 416)">
<title>src/crypto/hash.cpp</title>
<polygon fill="white" stroke="transparent" points="-4,4 -4,-416 1946,-416 1946,4 -4,4"/>
<!-- Node1 -->
<g id="node1" class="node">
<title>Node1</title>
<g id="a_node1"><a xlink:title=" ">
<polygon fill="#bfbfbf" stroke="black" points="561.5,-392.5 561.5,-411.5 672.5,-411.5 672.5,-392.5 561.5,-392.5"/>
<text text-anchor="middle" x="617" y="-399.5" font-family="Helvetica,sans-Serif" font-size="10.00">src/crypto/hash.cpp</text>
</a>
</g>
</g>
<!-- Node2 -->
<g id="node2" class="node">
<title>Node2</title>
<g id="a_node2"><a xlink:href="src_2crypto_2openssl_2hash_8h.html" target="_top" xlink:title=" ">
<polygon fill="white" stroke="black" points="721.5,-336.5 721.5,-355.5 844.5,-355.5 844.5,-336.5 721.5,-336.5"/>
<text text-anchor="middle" x="783" y="-343.5" font-family="Helvetica,sans-Serif" font-size="10.00">crypto/openssl/hash.h</text>
</a>
</g>
</g>
<!-- Node1&#45;&gt;Node2 -->
<g id="edge1" class="edge">
<title>Node1&#45;&gt;Node2</title>
<path fill="none" stroke="midnightblue" d="M643.3,-392.44C671.35,-383.32 715.94,-368.81 747.18,-358.65"/>
<polygon fill="midnightblue" stroke="midnightblue" points="748.39,-361.94 756.82,-355.52 746.23,-355.28 748.39,-361.94"/>
</g>
<!-- Node44 -->
<g id="node44" class="node">
<title>Node44</title>
<g id="a_node44"><a xlink:title=" ">
<polygon fill="white" stroke="#bfbfbf" points="1232.5,-280.5 1232.5,-299.5 1315.5,-299.5 1315.5,-280.5 1232.5,-280.5"/>
<text text-anchor="middle" x="1274" y="-287.5" font-family="Helvetica,sans-Serif" font-size="10.00">openssl/sha.h</text>
</a>
</g>
</g>
<!-- Node1&#45;&gt;Node44 -->
<g id="edge72" class="edge">
<title>Node1&#45;&gt;Node44</title>
<path fill="none" stroke="midnightblue" d="M669.82,-392.45C773.6,-375.61 1011.67,-336.7 1222.26,-300.29"/>
<polygon fill="midnightblue" stroke="midnightblue" points="1223.01,-303.71 1232.27,-298.55 1221.81,-296.81 1223.01,-303.71"/>
</g>
<!-- Node45 -->
<g id="node45" class="node">
<title>Node45</title>
<g id="a_node45"><a xlink:href="hkdf_8h.html" target="_top" xlink:title=" ">
<polygon fill="white" stroke="black" points="223,-280.5 223,-299.5 321,-299.5 321,-280.5 223,-280.5"/>
<text text-anchor="middle" x="272" y="-287.5" font-family="Helvetica,sans-Serif" font-size="10.00">ccf/crypto/hkdf.h</text>
</a>
</g>
</g>
<!-- Node1&#45;&gt;Node45 -->
<g id="edge66" class="edge">
<title>Node1&#45;&gt;Node45</title>
<path fill="none" stroke="midnightblue" d="M590.22,-392.46C528.95,-372.93 378.52,-324.96 308.7,-302.7"/>
<polygon fill="midnightblue" stroke="midnightblue" points="309.6,-299.31 299.01,-299.61 307.47,-305.98 309.6,-299.31"/>
</g>
<!-- Node46 -->
<g id="node46" class="node">
<title>Node46</title>
<g id="a_node46"><a xlink:href="sha256_8h.html" target="_top" xlink:title=" ">
<polygon fill="white" stroke="black" points="93,-280.5 93,-299.5 205,-299.5 205,-280.5 93,-280.5"/>
<text text-anchor="middle" x="149" y="-287.5" font-family="Helvetica,sans-Serif" font-size="10.00">ccf/crypto/sha256.h</text>
</a>
</g>
</g>
<!-- Node1&#45;&gt;Node46 -->
<g id="edge69" class="edge">
<title>Node1&#45;&gt;Node46</title>
<path fill="none" stroke="midnightblue" d="M576.07,-392.48C534.25,-383.69 467.49,-369.4 410,-356 332.83,-338.01 243.29,-315.31 191.69,-302.05"/>
<polygon fill="midnightblue" stroke="midnightblue" points="192.44,-298.63 181.88,-299.53 190.7,-305.41 192.44,-298.63"/>
</g>
<!-- Node3 -->
<g id="node3" class="node">
<title>Node3</title>
<g id="a_node3"><a xlink:href="hash__provider_8h.html" target="_top" xlink:title=" ">
<polygon fill="white" stroke="black" points="339.5,-280.5 339.5,-299.5 484.5,-299.5 484.5,-280.5 339.5,-280.5"/>
<text text-anchor="middle" x="412" y="-287.5" font-family="Helvetica,sans-Serif" font-size="10.00">ccf/crypto/hash_provider.h</text>
</a>
</g>
</g>
<!-- Node2&#45;&gt;Node3 -->
<g id="edge2" class="edge">
<title>Node2&#45;&gt;Node3</title>
<path fill="none" stroke="midnightblue" d="M724.21,-336.44C658,-326.81 550.53,-311.16 480.55,-300.98"/>
<polygon fill="midnightblue" stroke="midnightblue" points="480.91,-297.49 470.51,-299.52 479.9,-304.42 480.91,-297.49"/>
</g>
<!-- Node18 -->
<g id="node18" class="node">
<title>Node18</title>
<g id="a_node18"><a xlink:title=" ">
<polygon fill="white" stroke="#bfbfbf" points="655.5,-56.5 655.5,-75.5 734.5,-75.5 734.5,-56.5 655.5,-56.5"/>
<text text-anchor="middle" x="695" y="-63.5" font-family="Helvetica,sans-Serif" font-size="10.00">fmt/format.h</text>
</a>
</g>
</g>
<!-- Node2&#45;&gt;Node18 -->
<g id="edge65" class="edge">
<title>Node2&#45;&gt;Node18</title>
<path fill="none" stroke="midnightblue" d="M769.63,-336.19C758.3,-328.08 742.45,-315.03 733,-300 716.98,-274.52 714,-265.1 714,-235 714,-235 714,-235 714,-177 714,-144.49 705.84,-107.35 700.22,-85.61"/>
<polygon fill="midnightblue" stroke="midnightblue" points="703.54,-84.5 697.56,-75.75 696.78,-86.32 703.54,-84.5"/>
</g>
<!-- Node24 -->
<g id="node24" class="node">
<title>Node24</title>
<g id="a_node24"><a xlink:href="openssl__wrappers_8h.html" target="_top" xlink:title=" ">
<polygon fill="white" stroke="black" points="1101.5,-280.5 1101.5,-299.5 1214.5,-299.5 1214.5,-280.5 1101.5,-280.5"/>
<text text-anchor="middle" x="1158" y="-287.5" font-family="Helvetica,sans-Serif" font-size="10.00">openssl_wrappers.h</text>
</a>
</g>
</g>
<!-- Node2&#45;&gt;Node24 -->
<g id="edge33" class="edge">
<title>Node2&#45;&gt;Node24</title>
<path fill="none" stroke="midnightblue" d="M842.42,-336.44C910.13,-326.69 1020.54,-310.79 1091.19,-300.62"/>
<polygon fill="midnightblue" stroke="midnightblue" points="1091.91,-304.05 1101.31,-299.16 1090.92,-297.12 1091.91,-304.05"/>
</g>
<!-- Node38 -->
<g id="node38" class="node">
<title>Node38</title>
<g id="a_node38"><a xlink:title=" ">
<polygon fill="white" stroke="#bfbfbf" points="742,-224.5 742,-243.5 826,-243.5 826,-224.5 742,-224.5"/>
<text text-anchor="middle" x="784" y="-231.5" font-family="Helvetica,sans-Serif" font-size="10.00">openssl/evp.h</text>
</a>
</g>
</g>
<!-- Node2&#45;&gt;Node38 -->
<g id="edge62" class="edge">
<title>Node2&#45;&gt;Node38</title>
<path fill="none" stroke="midnightblue" d="M797.66,-336.4C809.41,-328.58 825.03,-315.86 832,-300 840.41,-280.86 822.76,-261.98 806.55,-249.54"/>
<polygon fill="midnightblue" stroke="midnightblue" points="808.51,-246.64 798.34,-243.65 804.43,-252.33 808.51,-246.64"/>
</g>
<!-- Node43 -->
<g id="node43" class="node">
<title>Node43</title>
<g id="a_node43"><a xlink:title=" ">
<polygon fill="white" stroke="#bfbfbf" points="742.5,-280.5 742.5,-299.5 823.5,-299.5 823.5,-280.5 742.5,-280.5"/>
<text text-anchor="middle" x="783" y="-287.5" font-family="Helvetica,sans-Serif" font-size="10.00">openssl/kdf.h</text>
</a>
</g>
</g>
<!-- Node2&#45;&gt;Node43 -->
<g id="edge63" class="edge">
<title>Node2&#45;&gt;Node43</title>
<path fill="none" stroke="midnightblue" d="M783,-336.08C783,-329.01 783,-318.86 783,-309.99"/>
<polygon fill="midnightblue" stroke="midnightblue" points="786.5,-309.75 783,-299.75 779.5,-309.75 786.5,-309.75"/>
</g>
<!-- Node2&#45;&gt;Node44 -->
<g id="edge64" class="edge">
<title>Node2&#45;&gt;Node44</title>
<path fill="none" stroke="midnightblue" d="M844.53,-340.22C927.93,-333.4 1081.69,-319.66 1222.2,-300.17"/>
<polygon fill="midnightblue" stroke="midnightblue" points="1222.88,-303.61 1232.3,-298.75 1221.91,-296.67 1222.88,-303.61"/>
</g>
<!-- Node4 -->
<g id="node4" class="node">
<title>Node4</title>
<g id="a_node4"><a xlink:href="hash__bytes_8h.html" target="_top" xlink:title=" ">
<polygon fill="white" stroke="black" points="104,-224.5 104,-243.5 236,-243.5 236,-224.5 104,-224.5"/>
<text text-anchor="middle" x="170" y="-231.5" font-family="Helvetica,sans-Serif" font-size="10.00">ccf/crypto/hash_bytes.h</text>
</a>
</g>
</g>
<!-- Node3&#45;&gt;Node4 -->
<g id="edge3" class="edge">
<title>Node3&#45;&gt;Node4</title>
<path fill="none" stroke="midnightblue" d="M373.65,-280.44C331.53,-271.04 263.79,-255.93 218.13,-245.74"/>
<polygon fill="midnightblue" stroke="midnightblue" points="218.69,-242.28 208.17,-243.52 217.16,-249.11 218.69,-242.28"/>
</g>
<!-- Node5 -->
<g id="node5" class="node">
<title>Node5</title>
<g id="a_node5"><a xlink:title=" ">
<polygon fill="white" stroke="#bfbfbf" points="224,-168.5 224,-187.5 274,-187.5 274,-168.5 224,-168.5"/>
<text text-anchor="middle" x="249" y="-175.5" font-family="Helvetica,sans-Serif" font-size="10.00">cstdint</text>
</a>
</g>
</g>
<!-- Node3&#45;&gt;Node5 -->
<g id="edge30" class="edge">
<title>Node3&#45;&gt;Node5</title>
<path fill="none" stroke="midnightblue" d="M366.97,-280.48C341.62,-273.89 310.62,-262.64 288,-244 272.96,-231.61 262.27,-211.81 255.93,-197.31"/>
<polygon fill="midnightblue" stroke="midnightblue" points="259.1,-195.82 252.09,-187.88 252.62,-198.46 259.1,-195.82"/>
</g>
<!-- Node6 -->
<g id="node6" class="node">
<title>Node6</title>
<g id="a_node6"><a xlink:title=" ">
<polygon fill="white" stroke="#bfbfbf" points="337.5,-0.5 337.5,-19.5 384.5,-19.5 384.5,-0.5 337.5,-0.5"/>
<text text-anchor="middle" x="361" y="-7.5" font-family="Helvetica,sans-Serif" font-size="10.00">vector</text>
</a>
</g>
</g>
<!-- Node3&#45;&gt;Node6 -->
<g id="edge32" class="edge">
<title>Node3&#45;&gt;Node6</title>
<path fill="none" stroke="midnightblue" d="M380.04,-280.41C360.4,-273.58 336.18,-262.09 321,-244 301.66,-220.94 302,-209.1 302,-179 302,-179 302,-179 302,-121 302,-84.02 328.21,-47.47 345.69,-27.21"/>
<polygon fill="midnightblue" stroke="midnightblue" points="348.47,-29.34 352.55,-19.56 343.26,-24.67 348.47,-29.34"/>
</g>
<!-- Node7 -->
<g id="node7" class="node">
<title>Node7</title>
<g id="a_node7"><a xlink:href="md__type_8h.html" target="_top" xlink:title=" ">
<polygon fill="white" stroke="black" points="330.5,-224.5 330.5,-243.5 449.5,-243.5 449.5,-224.5 330.5,-224.5"/>
<text text-anchor="middle" x="390" y="-231.5" font-family="Helvetica,sans-Serif" font-size="10.00">ccf/crypto/md_type.h</text>
</a>
</g>
</g>
<!-- Node3&#45;&gt;Node7 -->
<g id="edge6" class="edge">
<title>Node3&#45;&gt;Node7</title>
<path fill="none" stroke="midnightblue" d="M408.37,-280.08C405.39,-272.77 401.07,-262.18 397.38,-253.1"/>
<polygon fill="midnightblue" stroke="midnightblue" points="400.58,-251.69 393.57,-243.75 394.1,-254.33 400.58,-251.69"/>
</g>
<!-- Node14 -->
<g id="node14" class="node">
<title>Node14</title>
<g id="a_node14"><a xlink:title=" ">
<polygon fill="white" stroke="#bfbfbf" points="99,-0.5 99,-19.5 141,-19.5 141,-0.5 99,-0.5"/>
<text text-anchor="middle" x="120" y="-7.5" font-family="Helvetica,sans-Serif" font-size="10.00">array</text>
</a>
</g>
</g>
<!-- Node3&#45;&gt;Node14 -->
<g id="edge29" class="edge">
<title>Node3&#45;&gt;Node14</title>
<path fill="none" stroke="midnightblue" d="M339.25,-280.68C248.54,-270.01 104.18,-251.95 95,-244 72.25,-224.3 76,-209.1 76,-179 76,-179 76,-179 76,-121 76,-86.04 95.4,-49.01 108.43,-28.07"/>
<polygon fill="midnightblue" stroke="midnightblue" points="111.39,-29.95 113.88,-19.65 105.51,-26.15 111.39,-29.95"/>
</g>
<!-- Node21 -->
<g id="node21" class="node">
<title>Node21</title>
<g id="a_node21"><a xlink:href="sha256__hash_8h.html" target="_top" xlink:title=" ">
<polygon fill="white" stroke="black" points="546,-224.5 546,-243.5 686,-243.5 686,-224.5 546,-224.5"/>
<text text-anchor="middle" x="616" y="-231.5" font-family="Helvetica,sans-Serif" font-size="10.00">ccf/crypto/sha256_hash.h</text>
</a>
</g>
</g>
<!-- Node3&#45;&gt;Node21 -->
<g id="edge24" class="edge">
<title>Node3&#45;&gt;Node21</title>
<path fill="none" stroke="midnightblue" d="M444.32,-280.44C479.39,-271.16 535.5,-256.31 573.96,-246.13"/>
<polygon fill="midnightblue" stroke="midnightblue" points="575.06,-249.46 583.83,-243.52 573.26,-242.69 575.06,-249.46"/>
</g>
<!-- Node23 -->
<g id="node23" class="node">
<title>Node23</title>
<g id="a_node23"><a xlink:title=" ">
<polygon fill="white" stroke="#bfbfbf" points="468,-224.5 468,-243.5 528,-243.5 528,-224.5 468,-224.5"/>
<text text-anchor="middle" x="498" y="-231.5" font-family="Helvetica,sans-Serif" font-size="10.00">iostream</text>
</a>
</g>
</g>
<!-- Node3&#45;&gt;Node23 -->
<g id="edge31" class="edge">
<title>Node3&#45;&gt;Node23</title>
<path fill="none" stroke="midnightblue" d="M425.82,-280.32C439.23,-271.9 459.82,-258.97 475.59,-249.07"/>
<polygon fill="midnightblue" stroke="midnightblue" points="477.61,-251.94 484.22,-243.65 473.89,-246.01 477.61,-251.94"/>
</g>
<!-- Node4&#45;&gt;Node5 -->
<g id="edge4" class="edge">
<title>Node4&#45;&gt;Node5</title>
<path fill="none" stroke="midnightblue" d="M182.69,-224.32C194.9,-215.98 213.58,-203.21 228,-193.35"/>
<polygon fill="midnightblue" stroke="midnightblue" points="230.06,-196.19 236.34,-187.65 226.11,-190.41 230.06,-196.19"/>
</g>
<!-- Node4&#45;&gt;Node6 -->
<g id="edge5" class="edge">
<title>Node4&#45;&gt;Node6</title>
<path fill="none" stroke="midnightblue" d="M174.08,-224.32C187.3,-196.88 231.39,-110.63 288,-56 301.27,-43.19 318.79,-32.25 333.34,-24.35"/>
<polygon fill="midnightblue" stroke="midnightblue" points="335.15,-27.36 342.4,-19.62 331.91,-21.15 335.15,-27.36"/>
</g>
<!-- Node8 -->
<g id="node8" class="node">
<title>Node8</title>
<g id="a_node8"><a xlink:href="json_8h.html" target="_top" xlink:title=" ">
<polygon fill="white" stroke="black" points="570.5,-168.5 570.5,-187.5 647.5,-187.5 647.5,-168.5 570.5,-168.5"/>
<text text-anchor="middle" x="609" y="-175.5" font-family="Helvetica,sans-Serif" font-size="10.00">ccf/ds/json.h</text>
</a>
</g>
</g>
<!-- Node7&#45;&gt;Node8 -->
<g id="edge7" class="edge">
<title>Node7&#45;&gt;Node8</title>
<path fill="none" stroke="midnightblue" d="M424.7,-224.44C462.58,-215.1 523.35,-200.12 564.66,-189.93"/>
<polygon fill="midnightblue" stroke="midnightblue" points="565.59,-193.31 574.46,-187.52 563.91,-186.51 565.59,-193.31"/>
</g>
<!-- Node9 -->
<g id="node9" class="node">
<title>Node9</title>
<g id="a_node9"><a xlink:href="include_2ccf_2crypto_2base64_8h.html" target="_top" xlink:title=" ">
<polygon fill="white" stroke="black" points="374,-56.5 374,-75.5 486,-75.5 486,-56.5 374,-56.5"/>
<text text-anchor="middle" x="430" y="-63.5" font-family="Helvetica,sans-Serif" font-size="10.00">ccf/crypto/base64.h</text>
</a>
</g>
</g>
<!-- Node8&#45;&gt;Node9 -->
<g id="edge8" class="edge">
<title>Node8&#45;&gt;Node9</title>
<path fill="none" stroke="midnightblue" d="M570.35,-169.91C542.9,-163.45 506.23,-151.81 479,-132 461.92,-119.57 448.08,-99.49 439.52,-84.93"/>
<polygon fill="midnightblue" stroke="midnightblue" points="442.4,-82.92 434.46,-75.9 436.29,-86.34 442.4,-82.92"/>
</g>
<!-- Node11 -->
<g id="node11" class="node">
<title>Node11</title>
<g id="a_node11"><a xlink:href="include_2ccf_2ds_2json__schema_8h.html" target="_top" xlink:title=" ">
<polygon fill="white" stroke="black" points="488.5,-112.5 488.5,-131.5 609.5,-131.5 609.5,-112.5 488.5,-112.5"/>
<text text-anchor="middle" x="549" y="-119.5" font-family="Helvetica,sans-Serif" font-size="10.00">ccf/ds/json_schema.h</text>
</a>
</g>
</g>
<!-- Node8&#45;&gt;Node11 -->
<g id="edge11" class="edge">
<title>Node8&#45;&gt;Node11</title>
<path fill="none" stroke="midnightblue" d="M599.36,-168.32C590.49,-160.34 577.13,-148.31 566.39,-138.65"/>
<polygon fill="midnightblue" stroke="midnightblue" points="568.59,-135.92 558.82,-131.83 563.91,-141.13 568.59,-135.92"/>
</g>
<!-- Node8&#45;&gt;Node18 -->
<g id="edge22" class="edge">
<title>Node8&#45;&gt;Node18</title>
<path fill="none" stroke="midnightblue" d="M615.75,-168.37C630,-150.14 663.39,-107.43 681.96,-83.68"/>
<polygon fill="midnightblue" stroke="midnightblue" points="684.88,-85.63 688.28,-75.59 679.37,-81.31 684.88,-85.63"/>
</g>
<!-- Node20 -->
<g id="node20" class="node">
<title>Node20</title>
<g id="a_node20"><a xlink:title=" ">
<polygon fill="white" stroke="#bfbfbf" points="742,-112.5 742,-131.5 798,-131.5 798,-112.5 742,-112.5"/>
<text text-anchor="middle" x="770" y="-119.5" font-family="Helvetica,sans-Serif" font-size="10.00">sstream</text>
</a>
</g>
</g>
<!-- Node8&#45;&gt;Node20 -->
<g id="edge23" class="edge">
<title>Node8&#45;&gt;Node20</title>
<path fill="none" stroke="midnightblue" d="M634.51,-168.44C661.6,-159.36 704.59,-144.94 734.87,-134.78"/>
<polygon fill="midnightblue" stroke="midnightblue" points="736.24,-138.01 744.61,-131.52 734.01,-131.38 736.24,-138.01"/>
</g>
<!-- Node9&#45;&gt;Node6 -->
<g id="edge10" class="edge">
<title>Node9&#45;&gt;Node6</title>
<path fill="none" stroke="midnightblue" d="M418.91,-56.32C408.51,-48.18 392.74,-35.84 380.28,-26.09"/>
<polygon fill="midnightblue" stroke="midnightblue" points="382.32,-23.24 372.29,-19.83 378.01,-28.75 382.32,-23.24"/>
</g>
<!-- Node10 -->
<g id="node10" class="node">
<title>Node10</title>
<g id="a_node10"><a xlink:title=" ">
<polygon fill="white" stroke="#bfbfbf" points="666,-0.5 666,-19.5 710,-19.5 710,-0.5 666,-0.5"/>
<text text-anchor="middle" x="688" y="-7.5" font-family="Helvetica,sans-Serif" font-size="10.00">string</text>
</a>
</g>
</g>
<!-- Node9&#45;&gt;Node10 -->
<g id="edge9" class="edge">
<title>Node9&#45;&gt;Node10</title>
<path fill="none" stroke="midnightblue" d="M470.88,-56.44C522.27,-45.69 609.39,-27.45 656.12,-17.67"/>
<polygon fill="midnightblue" stroke="midnightblue" points="656.93,-21.08 666,-15.6 655.49,-14.23 656.93,-21.08"/>
</g>
<!-- Node12 -->
<g id="node12" class="node">
<title>Node12</title>
<g id="a_node12"><a xlink:href="nonstd_8h.html" target="_top" xlink:title=" ">
<polygon fill="white" stroke="black" points="1052,-56.5 1052,-75.5 1142,-75.5 1142,-56.5 1052,-56.5"/>
<text text-anchor="middle" x="1097" y="-63.5" font-family="Helvetica,sans-Serif" font-size="10.00">ccf/ds/nonstd.h</text>
</a>
</g>
</g>
<!-- Node11&#45;&gt;Node12 -->
<g id="edge12" class="edge">
<title>Node11&#45;&gt;Node12</title>
<path fill="none" stroke="midnightblue" d="M609.74,-115.01C716.97,-104.45 938.23,-82.65 1041.56,-72.46"/>
<polygon fill="midnightblue" stroke="midnightblue" points="1042.17,-75.92 1051.78,-71.46 1041.49,-68.95 1042.17,-75.92"/>
</g>
<!-- Node11&#45;&gt;Node18 -->
<g id="edge20" class="edge">
<title>Node11&#45;&gt;Node18</title>
<path fill="none" stroke="midnightblue" d="M572.13,-112.44C596.48,-103.44 635.01,-89.19 662.42,-79.05"/>
<polygon fill="midnightblue" stroke="midnightblue" points="663.81,-82.27 671.97,-75.52 661.38,-75.7 663.81,-82.27"/>
</g>
<!-- Node19 -->
<g id="node19" class="node">
<title>Node19</title>
<g id="a_node19"><a xlink:title=" ">
<polygon fill="white" stroke="#bfbfbf" points="504,-56.5 504,-75.5 614,-75.5 614,-56.5 504,-56.5"/>
<text text-anchor="middle" x="559" y="-63.5" font-family="Helvetica,sans-Serif" font-size="10.00">nlohmann/json.hpp</text>
</a>
</g>
</g>
<!-- Node11&#45;&gt;Node19 -->
<g id="edge21" class="edge">
<title>Node11&#45;&gt;Node19</title>
<path fill="none" stroke="midnightblue" d="M550.65,-112.08C551.98,-104.93 553.88,-94.64 555.54,-85.69"/>
<polygon fill="midnightblue" stroke="midnightblue" points="559,-86.22 557.38,-75.75 552.12,-84.95 559,-86.22"/>
</g>
<!-- Node12&#45;&gt;Node6 -->
<g id="edge19" class="edge">
<title>Node12&#45;&gt;Node6</title>
<path fill="none" stroke="midnightblue" d="M1051.95,-57.73C1047.25,-57.09 1042.53,-56.5 1038,-56 791.99,-29.11 493.8,-16.05 394.77,-12.23"/>
<polygon fill="midnightblue" stroke="midnightblue" points="394.87,-8.73 384.75,-11.85 394.61,-15.72 394.87,-8.73"/>
</g>
<!-- Node12&#45;&gt;Node10 -->
<g id="edge16" class="edge">
<title>Node12&#45;&gt;Node10</title>
<path fill="none" stroke="midnightblue" d="M1051.92,-58.01C1047.22,-57.32 1042.51,-56.63 1038,-56 921.25,-39.59 782.24,-22.42 720.42,-14.91"/>
<polygon fill="midnightblue" stroke="midnightblue" points="720.49,-11.39 710.14,-13.66 719.64,-18.34 720.49,-11.39"/>
</g>
<!-- Node13 -->
<g id="node13" class="node">
<title>Node13</title>
<g id="a_node13"><a xlink:title=" ">
<polygon fill="white" stroke="#bfbfbf" points="1150,-0.5 1150,-19.5 1214,-19.5 1214,-0.5 1150,-0.5"/>
<text text-anchor="middle" x="1182" y="-7.5" font-family="Helvetica,sans-Serif" font-size="10.00">algorithm</text>
</a>
</g>
</g>
<!-- Node12&#45;&gt;Node13 -->
<g id="edge13" class="edge">
<title>Node12&#45;&gt;Node13</title>
<path fill="none" stroke="midnightblue" d="M1110.66,-56.32C1123.92,-47.9 1144.27,-34.97 1159.85,-25.07"/>
<polygon fill="midnightblue" stroke="midnightblue" points="1161.81,-27.97 1168.38,-19.65 1158.06,-22.06 1161.81,-27.97"/>
</g>
<!-- Node12&#45;&gt;Node14 -->
<g id="edge14" class="edge">
<title>Node12&#45;&gt;Node14</title>
<path fill="none" stroke="midnightblue" d="M1051.84,-62.5C883.41,-53.19 294.25,-20.63 151.38,-12.73"/>
<polygon fill="midnightblue" stroke="midnightblue" points="151.32,-9.23 141.14,-12.17 150.93,-16.22 151.32,-9.23"/>
</g>
<!-- Node15 -->
<g id="node15" class="node">
<title>Node15</title>
<g id="a_node15"><a xlink:title=" ">
<polygon fill="white" stroke="#bfbfbf" points="995.5,-0.5 995.5,-19.5 1044.5,-19.5 1044.5,-0.5 995.5,-0.5"/>
<text text-anchor="middle" x="1020" y="-7.5" font-family="Helvetica,sans-Serif" font-size="10.00">cctype</text>
</a>
</g>
</g>
<!-- Node12&#45;&gt;Node15 -->
<g id="edge15" class="edge">
<title>Node12&#45;&gt;Node15</title>
<path fill="none" stroke="midnightblue" d="M1084.63,-56.32C1072.84,-48.06 1054.87,-35.45 1040.86,-25.63"/>
<polygon fill="midnightblue" stroke="midnightblue" points="1042.54,-22.53 1032.34,-19.65 1038.52,-28.26 1042.54,-22.53"/>
</g>
<!-- Node16 -->
<g id="node16" class="node">
<title>Node16</title>
<g id="a_node16"><a xlink:title=" ">
<polygon fill="white" stroke="#bfbfbf" points="1241.5,-0.5 1241.5,-19.5 1314.5,-19.5 1314.5,-0.5 1241.5,-0.5"/>
<text text-anchor="middle" x="1278" y="-7.5" font-family="Helvetica,sans-Serif" font-size="10.00">string_view</text>
</a>
</g>
</g>
<!-- Node12&#45;&gt;Node16 -->
<g id="edge17" class="edge">
<title>Node12&#45;&gt;Node16</title>
<path fill="none" stroke="midnightblue" d="M1125.68,-56.44C1156.53,-47.24 1205.73,-32.56 1239.83,-22.39"/>
<polygon fill="midnightblue" stroke="midnightblue" points="1240.87,-25.73 1249.45,-19.52 1238.87,-19.02 1240.87,-25.73"/>
</g>
<!-- Node17 -->
<g id="node17" class="node">
<title>Node17</title>
<g id="a_node17"><a xlink:title=" ">
<polygon fill="white" stroke="#bfbfbf" points="1062.5,-0.5 1062.5,-19.5 1131.5,-19.5 1131.5,-0.5 1062.5,-0.5"/>
<text text-anchor="middle" x="1097" y="-7.5" font-family="Helvetica,sans-Serif" font-size="10.00">type_traits</text>
</a>
</g>
</g>
<!-- Node12&#45;&gt;Node17 -->
<g id="edge18" class="edge">
<title>Node12&#45;&gt;Node17</title>
<path fill="none" stroke="midnightblue" d="M1097,-56.08C1097,-49.01 1097,-38.86 1097,-29.99"/>
<polygon fill="midnightblue" stroke="midnightblue" points="1100.5,-29.75 1097,-19.75 1093.5,-29.75 1100.5,-29.75"/>
</g>
<!-- Node21&#45;&gt;Node8 -->
<g id="edge25" class="edge">
<title>Node21&#45;&gt;Node8</title>
<path fill="none" stroke="midnightblue" d="M614.84,-224.08C613.92,-216.93 612.58,-206.64 611.42,-197.69"/>
<polygon fill="midnightblue" stroke="midnightblue" points="614.89,-197.22 610.13,-187.75 607.95,-198.12 614.89,-197.22"/>
</g>
<!-- Node21&#45;&gt;Node14 -->
<g id="edge26" class="edge">
<title>Node21&#45;&gt;Node14</title>
<path fill="none" stroke="midnightblue" d="M596.86,-224.43C520.76,-190.37 239.32,-64.41 148.48,-23.75"/>
<polygon fill="midnightblue" stroke="midnightblue" points="149.64,-20.43 139.08,-19.54 146.78,-26.82 149.64,-20.43"/>
</g>
<!-- Node21&#45;&gt;Node18 -->
<g id="edge28" class="edge">
<title>Node21&#45;&gt;Node18</title>
<path fill="none" stroke="midnightblue" d="M625.84,-224.25C634.83,-215.77 647.91,-202.16 656,-188 675.18,-154.43 686.37,-110.15 691.53,-85.53"/>
<polygon fill="midnightblue" stroke="midnightblue" points="694.96,-86.2 693.48,-75.71 688.1,-84.84 694.96,-86.2"/>
</g>
<!-- Node22 -->
<g id="node22" class="node">
<title>Node22</title>
<g id="a_node22"><a xlink:title=" ">
<polygon fill="white" stroke="#bfbfbf" points="1003,-168.5 1003,-187.5 1043,-187.5 1043,-168.5 1003,-168.5"/>
<text text-anchor="middle" x="1023" y="-175.5" font-family="Helvetica,sans-Serif" font-size="10.00">span</text>
</a>
</g>
</g>
<!-- Node21&#45;&gt;Node22 -->
<g id="edge27" class="edge">
<title>Node21&#45;&gt;Node22</title>
<path fill="none" stroke="midnightblue" d="M686.22,-226.19C774.54,-217.37 922.28,-201.7 992.99,-187.81"/>
<polygon fill="midnightblue" stroke="midnightblue" points="993.76,-191.22 1002.84,-185.77 992.34,-184.37 993.76,-191.22"/>
</g>
<!-- Node24&#45;&gt;Node18 -->
<g id="edge51" class="edge">
<title>Node24&#45;&gt;Node18</title>
<path fill="none" stroke="midnightblue" d="M1101.39,-286.13C1028.91,-281.44 908.42,-269.93 873,-244 820.07,-205.26 855.23,-156.45 807,-112 789.57,-95.94 765.69,-85.29 744.45,-78.4"/>
<polygon fill="midnightblue" stroke="midnightblue" points="745.18,-74.96 734.59,-75.4 743.14,-81.66 745.18,-74.96"/>
</g>
<!-- Node25 -->
<g id="node25" class="node">
<title>Node25</title>
<g id="a_node25"><a xlink:href="pem_8h.html" target="_top" xlink:title=" ">
<polygon fill="white" stroke="black" points="1186,-224.5 1186,-243.5 1284,-243.5 1284,-224.5 1186,-224.5"/>
<text text-anchor="middle" x="1235" y="-231.5" font-family="Helvetica,sans-Serif" font-size="10.00">ccf/crypto/pem.h</text>
</a>
</g>
</g>
<!-- Node24&#45;&gt;Node25 -->
<g id="edge34" class="edge">
<title>Node24&#45;&gt;Node25</title>
<path fill="none" stroke="midnightblue" d="M1170.37,-280.32C1182.16,-272.06 1200.13,-259.45 1214.14,-249.63"/>
<polygon fill="midnightblue" stroke="midnightblue" points="1216.48,-252.26 1222.66,-243.65 1212.46,-246.53 1216.48,-252.26"/>
</g>
<!-- Node28 -->
<g id="node28" class="node">
<title>Node28</title>
<g id="a_node28"><a xlink:title=" ">
<polygon fill="white" stroke="#bfbfbf" points="1327,-168.5 1327,-187.5 1385,-187.5 1385,-168.5 1327,-168.5"/>
<text text-anchor="middle" x="1356" y="-175.5" font-family="Helvetica,sans-Serif" font-size="10.00">memory</text>
</a>
</g>
</g>
<!-- Node24&#45;&gt;Node28 -->
<g id="edge52" class="edge">
<title>Node24&#45;&gt;Node28</title>
<path fill="none" stroke="midnightblue" d="M1200.13,-280.47C1227.97,-273.55 1264.45,-261.95 1293,-244 1313.27,-231.25 1331.73,-210.65 1343.35,-196.06"/>
<polygon fill="midnightblue" stroke="midnightblue" points="1346.33,-197.94 1349.66,-187.88 1340.78,-193.66 1346.33,-197.94"/>
</g>
<!-- Node29 -->
<g id="node29" class="node">
<title>Node29</title>
<g id="a_node29"><a xlink:title=" ">
<polygon fill="white" stroke="#bfbfbf" points="1167,-112.5 1167,-131.5 1217,-131.5 1217,-112.5 1167,-112.5"/>
<text text-anchor="middle" x="1192" y="-119.5" font-family="Helvetica,sans-Serif" font-size="10.00">chrono</text>
</a>
</g>
</g>
<!-- Node24&#45;&gt;Node29 -->
<g id="edge42" class="edge">
<title>Node24&#45;&gt;Node29</title>
<path fill="none" stroke="midnightblue" d="M1154.66,-280.11C1149.57,-267.12 1139.05,-242.5 1126,-224 1109.08,-200.02 1075.02,-192.62 1091,-168 1098.69,-156.15 1130.93,-143.05 1156.94,-134.05"/>
<polygon fill="midnightblue" stroke="midnightblue" points="1158.19,-137.33 1166.54,-130.82 1155.95,-130.7 1158.19,-137.33"/>
</g>
<!-- Node30 -->
<g id="node30" class="node">
<title>Node30</title>
<g id="a_node30"><a xlink:href="x509__time__fmt_8h.html" target="_top" xlink:title=" ">
<polygon fill="white" stroke="black" points="871,-168.5 871,-187.5 985,-187.5 985,-168.5 871,-168.5"/>
<text text-anchor="middle" x="928" y="-175.5" font-family="Helvetica,sans-Serif" font-size="10.00">ds/x509_time_fmt.h</text>
</a>
</g>
</g>
<!-- Node24&#45;&gt;Node30 -->
<g id="edge43" class="edge">
<title>Node24&#45;&gt;Node30</title>
<path fill="none" stroke="midnightblue" d="M1152.87,-280.37C1144.08,-266.33 1124.76,-238.66 1101,-224 1081.31,-211.86 1025.91,-198.6 983.05,-189.64"/>
<polygon fill="midnightblue" stroke="midnightblue" points="983.51,-186.16 973.01,-187.57 982.09,-193.02 983.51,-186.16"/>
</g>
<!-- Node34 -->
<g id="node34" class="node">
<title>Node34</title>
<g id="a_node34"><a xlink:title=" ">
<polygon fill="white" stroke="#bfbfbf" points="1340.5,-224.5 1340.5,-243.5 1429.5,-243.5 1429.5,-224.5 1340.5,-224.5"/>
<text text-anchor="middle" x="1385" y="-231.5" font-family="Helvetica,sans-Serif" font-size="10.00">openssl/asn1.h</text>
</a>
</g>
</g>
<!-- Node24&#45;&gt;Node34 -->
<g id="edge53" class="edge">
<title>Node24&#45;&gt;Node34</title>
<path fill="none" stroke="midnightblue" d="M1193.97,-280.44C1233.32,-271.08 1296.49,-256.06 1339.31,-245.87"/>
<polygon fill="midnightblue" stroke="midnightblue" points="1340.28,-249.24 1349.2,-243.52 1338.66,-242.43 1340.28,-249.24"/>
</g>
<!-- Node35 -->
<g id="node35" class="node">
<title>Node35</title>
<g id="a_node35"><a xlink:title=" ">
<polygon fill="white" stroke="#bfbfbf" points="1447.5,-224.5 1447.5,-243.5 1524.5,-243.5 1524.5,-224.5 1447.5,-224.5"/>
<text text-anchor="middle" x="1486" y="-231.5" font-family="Helvetica,sans-Serif" font-size="10.00">openssl/ec.h</text>
</a>
</g>
</g>
<!-- Node24&#45;&gt;Node35 -->
<g id="edge54" class="edge">
<title>Node24&#45;&gt;Node35</title>
<path fill="none" stroke="midnightblue" d="M1214.33,-280.49C1268.91,-272.14 1354.27,-258.76 1437.19,-244.28"/>
<polygon fill="midnightblue" stroke="midnightblue" points="1438.04,-247.68 1447.29,-242.51 1436.83,-240.79 1438.04,-247.68"/>
</g>
<!-- Node36 -->
<g id="node36" class="node">
<title>Node36</title>
<g id="a_node36"><a xlink:title=" ">
<polygon fill="white" stroke="#bfbfbf" points="1542.5,-224.5 1542.5,-243.5 1641.5,-243.5 1641.5,-224.5 1542.5,-224.5"/>
<text text-anchor="middle" x="1592" y="-231.5" font-family="Helvetica,sans-Serif" font-size="10.00">openssl/engine.h</text>
</a>
</g>
</g>
<!-- Node24&#45;&gt;Node36 -->
<g id="edge55" class="edge">
<title>Node24&#45;&gt;Node36</title>
<path fill="none" stroke="midnightblue" d="M1214.52,-281.22C1217.72,-280.8 1220.9,-280.39 1224,-280 1358.39,-263.04 1394.86,-262.65 1532.27,-244.19"/>
<polygon fill="midnightblue" stroke="midnightblue" points="1532.9,-247.64 1542.34,-242.83 1531.97,-240.7 1532.9,-247.64"/>
</g>
<!-- Node37 -->
<g id="node37" class="node">
<title>Node37</title>
<g id="a_node37"><a xlink:title=" ">
<polygon fill="white" stroke="#bfbfbf" points="1659.5,-224.5 1659.5,-243.5 1738.5,-243.5 1738.5,-224.5 1659.5,-224.5"/>
<text text-anchor="middle" x="1699" y="-231.5" font-family="Helvetica,sans-Serif" font-size="10.00">openssl/err.h</text>
</a>
</g>
</g>
<!-- Node24&#45;&gt;Node37 -->
<g id="edge56" class="edge">
<title>Node24&#45;&gt;Node37</title>
<path fill="none" stroke="midnightblue" d="M1214.5,-281.1C1217.71,-280.71 1220.9,-280.34 1224,-280 1410.07,-259.48 1460.56,-269.23 1649.52,-244.08"/>
<polygon fill="midnightblue" stroke="midnightblue" points="1650.06,-247.54 1659.5,-242.73 1649.12,-240.6 1650.06,-247.54"/>
</g>
<!-- Node24&#45;&gt;Node38 -->
<g id="edge57" class="edge">
<title>Node24&#45;&gt;Node38</title>
<path fill="none" stroke="midnightblue" d="M1101.37,-281.31C1037.74,-272.6 931.38,-257.81 840,-244 838.74,-243.81 837.46,-243.62 836.18,-243.42"/>
<polygon fill="midnightblue" stroke="midnightblue" points="836.6,-239.94 826.18,-241.87 835.53,-246.86 836.6,-239.94"/>
</g>
<!-- Node39 -->
<g id="node39" class="node">
<title>Node39</title>
<g id="a_node39"><a xlink:title=" ">
<polygon fill="white" stroke="#bfbfbf" points="1756,-224.5 1756,-243.5 1844,-243.5 1844,-224.5 1756,-224.5"/>
<text text-anchor="middle" x="1800" y="-231.5" font-family="Helvetica,sans-Serif" font-size="10.00">openssl/pem.h</text>
</a>
</g>
</g>
<!-- Node24&#45;&gt;Node39 -->
<g id="edge58" class="edge">
<title>Node24&#45;&gt;Node39</title>
<path fill="none" stroke="midnightblue" d="M1214.85,-281C1217.94,-280.64 1221.01,-280.31 1224,-280 1452.93,-256.55 1514.51,-271.5 1745.72,-244.17"/>
<polygon fill="midnightblue" stroke="midnightblue" points="1746.28,-247.63 1755.79,-242.97 1745.45,-240.68 1746.28,-247.63"/>
</g>
<!-- Node40 -->
<g id="node40" class="node">
<title>Node40</title>
<g id="a_node40"><a xlink:title=" ">
<polygon fill="white" stroke="#bfbfbf" points="1862,-224.5 1862,-243.5 1942,-243.5 1942,-224.5 1862,-224.5"/>
<text text-anchor="middle" x="1902" y="-231.5" font-family="Helvetica,sans-Serif" font-size="10.00">openssl/ssl.h</text>
</a>
</g>
</g>
<!-- Node24&#45;&gt;Node40 -->
<g id="edge59" class="edge">
<title>Node24&#45;&gt;Node40</title>
<path fill="none" stroke="midnightblue" d="M1214.85,-280.96C1217.94,-280.61 1221.01,-280.29 1224,-280 1499.45,-253.38 1573.26,-276.79 1851.95,-243.97"/>
<polygon fill="midnightblue" stroke="midnightblue" points="1852.43,-247.43 1861.95,-242.78 1851.61,-240.48 1852.43,-247.43"/>
</g>
<!-- Node41 -->
<g id="node41" class="node">
<title>Node41</title>
<g id="a_node41"><a xlink:title=" ">
<polygon fill="white" stroke="#bfbfbf" points="882,-224.5 882,-243.5 972,-243.5 972,-224.5 882,-224.5"/>
<text text-anchor="middle" x="927" y="-231.5" font-family="Helvetica,sans-Serif" font-size="10.00">openssl/x509.h</text>
</a>
</g>
</g>
<!-- Node24&#45;&gt;Node41 -->
<g id="edge60" class="edge">
<title>Node24&#45;&gt;Node41</title>
<path fill="none" stroke="midnightblue" d="M1121.4,-280.44C1081.27,-271.06 1016.8,-255.99 973.22,-245.8"/>
<polygon fill="midnightblue" stroke="midnightblue" points="973.97,-242.38 963.43,-243.52 972.37,-249.2 973.97,-242.38"/>
</g>
<!-- Node42 -->
<g id="node42" class="node">
<title>Node42</title>
<g id="a_node42"><a xlink:title=" ">
<polygon fill="white" stroke="#bfbfbf" points="990,-224.5 990,-243.5 1092,-243.5 1092,-224.5 990,-224.5"/>
<text text-anchor="middle" x="1041" y="-231.5" font-family="Helvetica,sans-Serif" font-size="10.00">openssl/x509v3.h</text>
</a>
</g>
</g>
<!-- Node24&#45;&gt;Node42 -->
<g id="edge61" class="edge">
<title>Node24&#45;&gt;Node42</title>
<path fill="none" stroke="midnightblue" d="M1139.46,-280.44C1120.38,-271.64 1090.43,-257.81 1068.56,-247.72"/>
<polygon fill="midnightblue" stroke="midnightblue" points="1070,-244.53 1059.45,-243.52 1067.07,-250.88 1070,-244.53"/>
</g>
<!-- Node25&#45;&gt;Node6 -->
<g id="edge41" class="edge">
<title>Node25&#45;&gt;Node6</title>
<path fill="none" stroke="midnightblue" d="M1237.81,-224.26C1244.49,-201.62 1258.42,-140.85 1226,-112 1211.58,-99.16 902.16,-58.39 883,-56 699.46,-33.14 478.16,-18.2 394.88,-13.03"/>
<polygon fill="midnightblue" stroke="midnightblue" points="394.94,-9.52 384.74,-12.4 394.51,-16.51 394.94,-9.52"/>
</g>
<!-- Node25&#45;&gt;Node8 -->
<g id="edge35" class="edge">
<title>Node25&#45;&gt;Node8</title>
<path fill="none" stroke="midnightblue" d="M1185.88,-228.76C1068.79,-218.66 774.34,-193.26 657.69,-183.2"/>
<polygon fill="midnightblue" stroke="midnightblue" points="657.88,-179.7 647.62,-182.33 657.28,-186.68 657.88,-179.7"/>
</g>
<!-- Node25&#45;&gt;Node16 -->
<g id="edge40" class="edge">
<title>Node25&#45;&gt;Node16</title>
<path fill="none" stroke="midnightblue" d="M1246.2,-224.4C1255.86,-216.24 1269.15,-203 1275,-188 1296.17,-133.7 1287.62,-62.72 1281.77,-29.57"/>
<polygon fill="midnightblue" stroke="midnightblue" points="1285.16,-28.68 1279.86,-19.51 1278.28,-29.99 1285.16,-28.68"/>
</g>
<!-- Node25&#45;&gt;Node22 -->
<g id="edge39" class="edge">
<title>Node25&#45;&gt;Node22</title>
<path fill="none" stroke="midnightblue" d="M1201.41,-224.44C1160.47,-214.02 1091.92,-196.55 1052.78,-186.59"/>
<polygon fill="midnightblue" stroke="midnightblue" points="1053.59,-183.18 1043.04,-184.1 1051.87,-189.96 1053.59,-183.18"/>
</g>
<!-- Node26 -->
<g id="node26" class="node">
<title>Node26</title>
<g id="a_node26"><a xlink:title=" ">
<polygon fill="white" stroke="#bfbfbf" points="1183,-168.5 1183,-187.5 1233,-187.5 1233,-168.5 1183,-168.5"/>
<text text-anchor="middle" x="1208" y="-175.5" font-family="Helvetica,sans-Serif" font-size="10.00">cstring</text>
</a>
</g>
</g>
<!-- Node25&#45;&gt;Node26 -->
<g id="edge36" class="edge">
<title>Node25&#45;&gt;Node26</title>
<path fill="none" stroke="midnightblue" d="M1230.54,-224.08C1226.85,-216.69 1221.48,-205.95 1216.91,-196.81"/>
<polygon fill="midnightblue" stroke="midnightblue" points="1219.98,-195.13 1212.38,-187.75 1213.72,-198.26 1219.98,-195.13"/>
</g>
<!-- Node27 -->
<g id="node27" class="node">
<title>Node27</title>
<g id="a_node27"><a xlink:title=" ">
<polygon fill="white" stroke="#bfbfbf" points="1099.5,-168.5 1099.5,-187.5 1164.5,-187.5 1164.5,-168.5 1099.5,-168.5"/>
<text text-anchor="middle" x="1132" y="-175.5" font-family="Helvetica,sans-Serif" font-size="10.00">exception</text>
</a>
</g>
</g>
<!-- Node25&#45;&gt;Node27 -->
<g id="edge37" class="edge">
<title>Node25&#45;&gt;Node27</title>
<path fill="none" stroke="midnightblue" d="M1218.45,-224.32C1202.01,-215.7 1176.57,-202.36 1157.53,-192.39"/>
<polygon fill="midnightblue" stroke="midnightblue" points="1158.99,-189.2 1148.51,-187.65 1155.74,-195.4 1158.99,-189.2"/>
</g>
<!-- Node25&#45;&gt;Node28 -->
<g id="edge38" class="edge">
<title>Node25&#45;&gt;Node28</title>
<path fill="none" stroke="midnightblue" d="M1254.17,-224.44C1273.91,-215.64 1304.89,-201.81 1327.49,-191.72"/>
<polygon fill="midnightblue" stroke="midnightblue" points="1329.21,-194.79 1336.92,-187.52 1326.36,-188.4 1329.21,-194.79"/>
</g>
<!-- Node30&#45;&gt;Node6 -->
<g id="edge50" class="edge">
<title>Node30&#45;&gt;Node6</title>
<path fill="none" stroke="midnightblue" d="M935.54,-168.14C945.96,-154.77 962.11,-129.15 949,-112 881.13,-23.22 509.89,-12.35 394.94,-11.12"/>
<polygon fill="midnightblue" stroke="midnightblue" points="394.67,-7.62 384.64,-11.03 394.6,-14.62 394.67,-7.62"/>
</g>
<!-- Node30&#45;&gt;Node18 -->
<g id="edge46" class="edge">
<title>Node30&#45;&gt;Node18</title>
<path fill="none" stroke="midnightblue" d="M918.43,-168.21C903,-154.46 871.18,-127.78 840,-112 809.71,-96.67 773.19,-85.37 744.38,-77.93"/>
<polygon fill="midnightblue" stroke="midnightblue" points="745.08,-74.5 734.53,-75.46 743.38,-81.29 745.08,-74.5"/>
</g>
<!-- Node30&#45;&gt;Node20 -->
<g id="edge48" class="edge">
<title>Node30&#45;&gt;Node20</title>
<path fill="none" stroke="midnightblue" d="M902.96,-168.44C876.38,-159.36 834.19,-144.94 804.48,-134.78"/>
<polygon fill="midnightblue" stroke="midnightblue" points="805.51,-131.44 794.92,-131.52 803.25,-138.06 805.51,-131.44"/>
</g>
<!-- Node30&#45;&gt;Node29 -->
<g id="edge44" class="edge">
<title>Node30&#45;&gt;Node29</title>
<path fill="none" stroke="midnightblue" d="M976.66,-168.44C1021.15,-160.39 1089.01,-147.58 1156.8,-132.16"/>
<polygon fill="midnightblue" stroke="midnightblue" points="1157.83,-135.52 1166.79,-129.87 1156.27,-128.69 1157.83,-135.52"/>
</g>
<!-- Node31 -->
<g id="node31" class="node">
<title>Node31</title>
<g id="a_node31"><a xlink:title=" ">
<polygon fill="white" stroke="#bfbfbf" points="996.5,-112.5 996.5,-131.5 1075.5,-131.5 1075.5,-112.5 996.5,-112.5"/>
<text text-anchor="middle" x="1036" y="-119.5" font-family="Helvetica,sans-Serif" font-size="10.00">fmt/chrono.h</text>
</a>
</g>
</g>
<!-- Node30&#45;&gt;Node31 -->
<g id="edge45" class="edge">
<title>Node30&#45;&gt;Node31</title>
<path fill="none" stroke="midnightblue" d="M945.35,-168.32C962.67,-159.66 989.52,-146.24 1009.5,-136.25"/>
<polygon fill="midnightblue" stroke="midnightblue" points="1011.31,-139.26 1018.69,-131.65 1008.18,-133 1011.31,-139.26"/>
</g>
<!-- Node32 -->
<g id="node32" class="node">
<title>Node32</title>
<g id="a_node32"><a xlink:title=" ">
<polygon fill="white" stroke="#bfbfbf" points="1093,-112.5 1093,-131.5 1149,-131.5 1149,-112.5 1093,-112.5"/>
<text text-anchor="middle" x="1121" y="-119.5" font-family="Helvetica,sans-Serif" font-size="10.00">iomanip</text>
</a>
</g>
</g>
<!-- Node30&#45;&gt;Node32 -->
<g id="edge47" class="edge">
<title>Node30&#45;&gt;Node32</title>
<path fill="none" stroke="midnightblue" d="M958.58,-168.44C992.29,-159.01 1046.57,-143.83 1082.99,-133.63"/>
<polygon fill="midnightblue" stroke="midnightblue" points="1084.07,-136.97 1092.76,-130.9 1082.19,-130.23 1084.07,-136.97"/>
</g>
<!-- Node33 -->
<g id="node33" class="node">
<title>Node33</title>
<g id="a_node33"><a xlink:title=" ">
<polygon fill="white" stroke="#bfbfbf" points="892,-112.5 892,-131.5 940,-131.5 940,-112.5 892,-112.5"/>
<text text-anchor="middle" x="916" y="-119.5" font-family="Helvetica,sans-Serif" font-size="10.00">time.h</text>
</a>
</g>
</g>
<!-- Node30&#45;&gt;Node33 -->
<g id="edge49" class="edge">
<title>Node30&#45;&gt;Node33</title>
<path fill="none" stroke="midnightblue" d="M926.02,-168.08C924.43,-160.93 922.14,-150.64 920.15,-141.69"/>
<polygon fill="midnightblue" stroke="midnightblue" points="923.53,-140.75 917.94,-131.75 916.7,-142.27 923.53,-140.75"/>
</g>
<!-- Node45&#45;&gt;Node6 -->
<g id="edge68" class="edge">
<title>Node45&#45;&gt;Node6</title>
<path fill="none" stroke="midnightblue" d="M225.03,-280.45C167.56,-269.76 76.11,-251.9 62,-244 27.16,-224.51 0,-218.92 0,-179 0,-179 0,-179 0,-121 0,-53 237.31,-22.96 327.12,-14.02"/>
<polygon fill="midnightblue" stroke="midnightblue" points="327.7,-17.48 337.31,-13.03 327.02,-10.51 327.7,-17.48"/>
</g>
<!-- Node45&#45;&gt;Node7 -->
<g id="edge67" class="edge">
<title>Node45&#45;&gt;Node7</title>
<path fill="none" stroke="midnightblue" d="M290.7,-280.44C309.94,-271.64 340.15,-257.81 362.2,-247.72"/>
<polygon fill="midnightblue" stroke="midnightblue" points="363.75,-250.86 371.39,-243.52 360.84,-244.5 363.75,-250.86"/>
</g>
<!-- Node46&#45;&gt;Node4 -->
<g id="edge70" class="edge">
<title>Node46&#45;&gt;Node4</title>
<path fill="none" stroke="midnightblue" d="M152.47,-280.08C155.31,-272.77 159.43,-262.18 162.96,-253.1"/>
<polygon fill="midnightblue" stroke="midnightblue" points="166.23,-254.34 166.6,-243.75 159.71,-251.8 166.23,-254.34"/>
</g>
<!-- Node46&#45;&gt;Node6 -->
<g id="edge71" class="edge">
<title>Node46&#45;&gt;Node6</title>
<path fill="none" stroke="midnightblue" d="M117.69,-280.5C87.72,-270.53 48.85,-251.78 62,-224 115.3,-111.4 261.52,-46.57 327.69,-22.21"/>
<polygon fill="midnightblue" stroke="midnightblue" points="329,-25.46 337.23,-18.78 326.63,-18.87 329,-25.46"/>
</g>
</g>
</svg>
