<?xml version="1.0" encoding="UTF-8" standalone="no"?>
<!DOCTYPE svg PUBLIC "-//W3C//DTD SVG 1.1//EN"
 "http://www.w3.org/Graphics/SVG/1.1/DTD/svg11.dtd">
<!-- Generated by graphviz version 2.43.0 (0)
 -->
<!-- Title: src/enclave/interface.h Pages: 1 -->
<svg width="1959pt" height="420pt"
 viewBox="0.00 0.00 1958.50 420.00" xmlns="http://www.w3.org/2000/svg" xmlns:xlink="http://www.w3.org/1999/xlink">
<g id="graph0" class="graph" transform="scale(1 1) rotate(0) translate(4 416)">
<title>src/enclave/interface.h</title>
<polygon fill="white" stroke="transparent" points="-4,4 -4,-416 1954.5,-416 1954.5,4 -4,4"/>
<!-- Node1 -->
<g id="node1" class="node">
<title>Node1</title>
<g id="a_node1"><a xlink:title=" ">
<polygon fill="#bfbfbf" stroke="black" points="1326,-392.5 1326,-411.5 1454,-411.5 1454,-392.5 1326,-392.5"/>
<text text-anchor="middle" x="1390" y="-399.5" font-family="Helvetica,sans-Serif" font-size="10.00">src/enclave/interface.h</text>
</a>
</g>
</g>
<!-- Node2 -->
<g id="node2" class="node">
<title>Node2</title>
<g id="a_node2"><a xlink:href="oversized_8h.html" target="_top" xlink:title=" ">
<polygon fill="white" stroke="black" points="1039.5,-336.5 1039.5,-355.5 1126.5,-355.5 1126.5,-336.5 1039.5,-336.5"/>
<text text-anchor="middle" x="1083" y="-343.5" font-family="Helvetica,sans-Serif" font-size="10.00">ds/oversized.h</text>
</a>
</g>
</g>
<!-- Node1&#45;&gt;Node2 -->
<g id="edge1" class="edge">
<title>Node1&#45;&gt;Node2</title>
<path fill="none" stroke="midnightblue" d="M1341.35,-392.44C1285.69,-382.65 1194.79,-366.66 1136.98,-356.49"/>
<polygon fill="midnightblue" stroke="midnightblue" points="1137.4,-353.01 1126.94,-354.73 1136.18,-359.91 1137.4,-353.01"/>
</g>
<!-- Node24 -->
<g id="node24" class="node">
<title>Node24</title>
<g id="a_node24"><a xlink:href="ring__buffer__types_8h.html" target="_top" xlink:title=" ">
<polygon fill="white" stroke="black" points="1115,-168.5 1115,-187.5 1225,-187.5 1225,-168.5 1115,-168.5"/>
<text text-anchor="middle" x="1170" y="-175.5" font-family="Helvetica,sans-Serif" font-size="10.00">ring_buffer_types.h</text>
</a>
</g>
</g>
<!-- Node1&#45;&gt;Node24 -->
<g id="edge70" class="edge">
<title>Node1&#45;&gt;Node24</title>
<path fill="none" stroke="midnightblue" d="M1381.38,-392.3C1348.32,-358.94 1229.38,-238.92 1185.99,-195.13"/>
<polygon fill="midnightblue" stroke="midnightblue" points="1188.33,-192.52 1178.8,-187.88 1183.36,-197.45 1188.33,-192.52"/>
</g>
<!-- Node28 -->
<g id="node28" class="node">
<title>Node28</title>
<g id="a_node28"><a xlink:title=" ">
<polygon fill="white" stroke="#bfbfbf" points="1385.5,-0.5 1385.5,-19.5 1432.5,-19.5 1432.5,-0.5 1385.5,-0.5"/>
<text text-anchor="middle" x="1409" y="-7.5" font-family="Helvetica,sans-Serif" font-size="10.00">vector</text>
</a>
</g>
</g>
<!-- Node1&#45;&gt;Node28 -->
<g id="edge72" class="edge">
<title>Node1&#45;&gt;Node28</title>
<path fill="none" stroke="midnightblue" d="M1405.69,-392.4C1432.67,-376.31 1485,-338.94 1485,-291 1485,-291 1485,-291 1485,-121 1485,-81.28 1451.04,-45.5 1428.52,-26.15"/>
<polygon fill="midnightblue" stroke="midnightblue" points="1430.48,-23.24 1420.54,-19.57 1426.02,-28.63 1430.48,-23.24"/>
</g>
<!-- Node45 -->
<g id="node45" class="node">
<title>Node45</title>
<g id="a_node45"><a xlink:title=" ">
<polygon fill="white" stroke="#bfbfbf" points="1513,-336.5 1513,-355.5 1563,-355.5 1563,-336.5 1513,-336.5"/>
<text text-anchor="middle" x="1538" y="-343.5" font-family="Helvetica,sans-Serif" font-size="10.00">chrono</text>
</a>
</g>
</g>
<!-- Node1&#45;&gt;Node45 -->
<g id="edge71" class="edge">
<title>Node1&#45;&gt;Node45</title>
<path fill="none" stroke="midnightblue" d="M1413.45,-392.44C1438.13,-383.44 1477.19,-369.19 1504.98,-359.05"/>
<polygon fill="midnightblue" stroke="midnightblue" points="1506.46,-362.23 1514.66,-355.52 1504.06,-355.66 1506.46,-362.23"/>
</g>
<!-- Node3 -->
<g id="node3" class="node">
<title>Node3</title>
<g id="a_node3"><a xlink:href="messaging_8h.html" target="_top" xlink:title=" ">
<polygon fill="white" stroke="black" points="665.5,-280.5 665.5,-299.5 744.5,-299.5 744.5,-280.5 665.5,-280.5"/>
<text text-anchor="middle" x="705" y="-287.5" font-family="Helvetica,sans-Serif" font-size="10.00">messaging.h</text>
</a>
</g>
</g>
<!-- Node2&#45;&gt;Node3 -->
<g id="edge2" class="edge">
<title>Node2&#45;&gt;Node3</title>
<path fill="none" stroke="midnightblue" d="M1039.27,-338.75C968.46,-328.64 829.15,-308.74 754.69,-298.1"/>
<polygon fill="midnightblue" stroke="midnightblue" points="755.02,-294.61 744.63,-296.66 754.03,-301.54 755.02,-294.61"/>
</g>
<!-- Node6 -->
<g id="node6" class="node">
<title>Node6</title>
<g id="a_node6"><a xlink:title=" ">
<polygon fill="white" stroke="#bfbfbf" points="666.5,-112.5 666.5,-131.5 745.5,-131.5 745.5,-112.5 666.5,-112.5"/>
<text text-anchor="middle" x="706" y="-119.5" font-family="Helvetica,sans-Serif" font-size="10.00">fmt/format.h</text>
</a>
</g>
</g>
<!-- Node2&#45;&gt;Node6 -->
<g id="edge68" class="edge">
<title>Node2&#45;&gt;Node6</title>
<path fill="none" stroke="midnightblue" d="M1060.54,-336.48C1020.09,-320.72 932.89,-284.89 865,-244 810.34,-211.07 752.13,-162.98 723.7,-138.53"/>
<polygon fill="midnightblue" stroke="midnightblue" points="725.72,-135.64 715.87,-131.74 721.13,-140.93 725.72,-135.64"/>
</g>
<!-- Node18 -->
<g id="node18" class="node">
<title>Node18</title>
<g id="a_node18"><a xlink:href="ring__buffer_8h.html" target="_top" xlink:title=" ">
<polygon fill="white" stroke="black" points="874.5,-224.5 874.5,-243.5 951.5,-243.5 951.5,-224.5 874.5,-224.5"/>
<text text-anchor="middle" x="913" y="-231.5" font-family="Helvetica,sans-Serif" font-size="10.00">ring_buffer.h</text>
</a>
</g>
</g>
<!-- Node2&#45;&gt;Node18 -->
<g id="edge66" class="edge">
<title>Node2&#45;&gt;Node18</title>
<path fill="none" stroke="midnightblue" d="M1114.73,-336.43C1149.11,-325.62 1196.36,-305.35 1175,-280 1148.26,-248.28 1029.88,-238.92 961.74,-236.16"/>
<polygon fill="midnightblue" stroke="midnightblue" points="961.79,-232.66 951.67,-235.78 961.53,-239.65 961.79,-232.66"/>
</g>
<!-- Node37 -->
<g id="node37" class="node">
<title>Node37</title>
<g id="a_node37"><a xlink:href="serialized_8h.html" target="_top" xlink:title=" ">
<polygon fill="white" stroke="black" points="951.5,-56.5 951.5,-75.5 1024.5,-75.5 1024.5,-56.5 951.5,-56.5"/>
<text text-anchor="middle" x="988" y="-63.5" font-family="Helvetica,sans-Serif" font-size="10.00">serialized.h</text>
</a>
</g>
</g>
<!-- Node2&#45;&gt;Node37 -->
<g id="edge67" class="edge">
<title>Node2&#45;&gt;Node37</title>
<path fill="none" stroke="midnightblue" d="M1077.72,-336.23C1067.27,-318.04 1045,-274.6 1045,-235 1045,-235 1045,-235 1045,-177 1045,-146.9 1040.24,-138.52 1026,-112 1020.34,-101.46 1011.92,-91.15 1004.44,-83.07"/>
<polygon fill="midnightblue" stroke="midnightblue" points="1006.88,-80.56 997.41,-75.8 1001.84,-85.42 1006.88,-80.56"/>
</g>
<!-- Node44 -->
<g id="node44" class="node">
<title>Node44</title>
<g id="a_node44"><a xlink:title=" ">
<polygon fill="white" stroke="#bfbfbf" points="1073.5,-280.5 1073.5,-299.5 1166.5,-299.5 1166.5,-280.5 1073.5,-280.5"/>
<text text-anchor="middle" x="1120" y="-287.5" font-family="Helvetica,sans-Serif" font-size="10.00">unordered_map</text>
</a>
</g>
</g>
<!-- Node2&#45;&gt;Node44 -->
<g id="edge69" class="edge">
<title>Node2&#45;&gt;Node44</title>
<path fill="none" stroke="midnightblue" d="M1089.11,-336.08C1094.28,-328.53 1101.85,-317.49 1108.19,-308.23"/>
<polygon fill="midnightblue" stroke="midnightblue" points="1111.24,-309.98 1114,-299.75 1105.46,-306.02 1111.24,-309.98"/>
</g>
<!-- Node4 -->
<g id="node4" class="node">
<title>Node4</title>
<g id="a_node4"><a xlink:href="logger_8h.html" target="_top" xlink:title=" ">
<polygon fill="white" stroke="black" points="523.5,-224.5 523.5,-243.5 610.5,-243.5 610.5,-224.5 523.5,-224.5"/>
<text text-anchor="middle" x="567" y="-231.5" font-family="Helvetica,sans-Serif" font-size="10.00">ccf/ds/logger.h</text>
</a>
</g>
</g>
<!-- Node3&#45;&gt;Node4 -->
<g id="edge3" class="edge">
<title>Node3&#45;&gt;Node4</title>
<path fill="none" stroke="midnightblue" d="M683.13,-280.44C660.22,-271.48 624.02,-257.31 598.13,-247.18"/>
<polygon fill="midnightblue" stroke="midnightblue" points="599.35,-243.9 588.76,-243.52 596.8,-250.42 599.35,-243.9"/>
</g>
<!-- Node10 -->
<g id="node10" class="node">
<title>Node10</title>
<g id="a_node10"><a xlink:title=" ">
<polygon fill="white" stroke="#bfbfbf" points="28,-112.5 28,-131.5 66,-131.5 66,-112.5 28,-112.5"/>
<text text-anchor="middle" x="47" y="-119.5" font-family="Helvetica,sans-Serif" font-size="10.00">map</text>
</a>
</g>
</g>
<!-- Node3&#45;&gt;Node10 -->
<g id="edge64" class="edge">
<title>Node3&#45;&gt;Node10</title>
<path fill="none" stroke="midnightblue" d="M665.35,-288.7C538.06,-286.87 143.06,-274.23 57,-188 45.16,-176.14 43.61,-156.51 44.44,-141.93"/>
<polygon fill="midnightblue" stroke="midnightblue" points="47.97,-141.85 45.47,-131.55 41,-141.16 47.97,-141.85"/>
</g>
<!-- Node3&#45;&gt;Node18 -->
<g id="edge19" class="edge">
<title>Node3&#45;&gt;Node18</title>
<path fill="none" stroke="midnightblue" d="M737.96,-280.44C773.79,-271.14 831.16,-256.25 870.39,-246.06"/>
<polygon fill="midnightblue" stroke="midnightblue" points="871.4,-249.42 880.2,-243.52 869.64,-242.64 871.4,-249.42"/>
</g>
<!-- Node38 -->
<g id="node38" class="node">
<title>Node38</title>
<g id="a_node38"><a xlink:title=" ">
<polygon fill="white" stroke="#bfbfbf" points="811.5,-0.5 811.5,-19.5 876.5,-19.5 876.5,-0.5 811.5,-0.5"/>
<text text-anchor="middle" x="844" y="-7.5" font-family="Helvetica,sans-Serif" font-size="10.00">stdexcept</text>
</a>
</g>
</g>
<!-- Node3&#45;&gt;Node38 -->
<g id="edge65" class="edge">
<title>Node3&#45;&gt;Node38</title>
<path fill="none" stroke="midnightblue" d="M665.21,-288.05C551.09,-284.99 224.34,-273.79 122,-244 63.01,-226.83 0,-240.44 0,-179 0,-179 0,-179 0,-121 0,-33.82 672.2,-34.54 801.32,-19.67"/>
<polygon fill="midnightblue" stroke="midnightblue" points="802.07,-23.1 811.5,-18.28 801.12,-16.17 802.07,-23.1"/>
</g>
<!-- Node41 -->
<g id="node41" class="node">
<title>Node41</title>
<g id="a_node41"><a xlink:title=" ">
<polygon fill="white" stroke="#bfbfbf" points="967,-112.5 967,-131.5 1017,-131.5 1017,-112.5 967,-112.5"/>
<text text-anchor="middle" x="992" y="-119.5" font-family="Helvetica,sans-Serif" font-size="10.00">atomic</text>
</a>
</g>
</g>
<!-- Node3&#45;&gt;Node41 -->
<g id="edge62" class="edge">
<title>Node3&#45;&gt;Node41</title>
<path fill="none" stroke="midnightblue" d="M744.55,-286.39C807.48,-281.52 926.71,-269.2 960,-244 991.38,-220.24 994.37,-169.53 993.44,-141.9"/>
<polygon fill="midnightblue" stroke="midnightblue" points="996.92,-141.41 992.87,-131.62 989.93,-141.8 996.92,-141.41"/>
</g>
<!-- Node43 -->
<g id="node43" class="node">
<title>Node43</title>
<g id="a_node43"><a xlink:title=" ">
<polygon fill="white" stroke="#bfbfbf" points="651.5,-224.5 651.5,-243.5 758.5,-243.5 758.5,-224.5 651.5,-224.5"/>
<text text-anchor="middle" x="705" y="-231.5" font-family="Helvetica,sans-Serif" font-size="10.00">condition_variable</text>
</a>
</g>
</g>
<!-- Node3&#45;&gt;Node43 -->
<g id="edge63" class="edge">
<title>Node3&#45;&gt;Node43</title>
<path fill="none" stroke="midnightblue" d="M705,-280.08C705,-273.01 705,-262.86 705,-253.99"/>
<polygon fill="midnightblue" stroke="midnightblue" points="708.5,-253.75 705,-243.75 701.5,-253.75 708.5,-253.75"/>
</g>
<!-- Node5 -->
<g id="node5" class="node">
<title>Node5</title>
<g id="a_node5"><a xlink:href="enum__formatter_8h.html" target="_top" xlink:title=" ">
<polygon fill="white" stroke="black" points="569,-168.5 569,-187.5 705,-187.5 705,-168.5 569,-168.5"/>
<text text-anchor="middle" x="637" y="-175.5" font-family="Helvetica,sans-Serif" font-size="10.00">ccf/ds/enum_formatter.h</text>
</a>
</g>
</g>
<!-- Node4&#45;&gt;Node5 -->
<g id="edge4" class="edge">
<title>Node4&#45;&gt;Node5</title>
<path fill="none" stroke="midnightblue" d="M578.25,-224.32C588.8,-216.18 604.8,-203.84 617.44,-194.09"/>
<polygon fill="midnightblue" stroke="midnightblue" points="619.77,-196.71 625.55,-187.83 615.49,-191.17 619.77,-196.71"/>
</g>
<!-- Node4&#45;&gt;Node6 -->
<g id="edge13" class="edge">
<title>Node4&#45;&gt;Node6</title>
<path fill="none" stroke="midnightblue" d="M610.73,-225.5C649.41,-217.87 701.58,-204.79 714,-188 723.91,-174.6 719.85,-155.22 714.56,-141.12"/>
<polygon fill="midnightblue" stroke="midnightblue" points="717.63,-139.38 710.49,-131.54 711.18,-142.11 717.63,-139.38"/>
</g>
<!-- Node7 -->
<g id="node7" class="node">
<title>Node7</title>
<g id="a_node7"><a xlink:href="thread__ids_8h.html" target="_top" xlink:title=" ">
<polygon fill="white" stroke="black" points="66,-168.5 66,-187.5 174,-187.5 174,-168.5 66,-168.5"/>
<text text-anchor="middle" x="120" y="-175.5" font-family="Helvetica,sans-Serif" font-size="10.00">ccf/ds/thread_ids.h</text>
</a>
</g>
</g>
<!-- Node4&#45;&gt;Node7 -->
<g id="edge6" class="edge">
<title>Node4&#45;&gt;Node7</title>
<path fill="none" stroke="midnightblue" d="M523.48,-228.26C454.04,-220.62 313.67,-204.86 184.37,-188.15"/>
<polygon fill="midnightblue" stroke="midnightblue" points="184.65,-184.66 174.28,-186.84 183.75,-191.6 184.65,-184.66"/>
</g>
<!-- Node12 -->
<g id="node12" class="node">
<title>Node12</title>
<g id="a_node12"><a xlink:title=" ">
<polygon fill="white" stroke="#bfbfbf" points="192.5,-168.5 192.5,-187.5 271.5,-187.5 271.5,-168.5 192.5,-168.5"/>
<text text-anchor="middle" x="232" y="-175.5" font-family="Helvetica,sans-Serif" font-size="10.00">fmt/chrono.h</text>
</a>
</g>
</g>
<!-- Node4&#45;&gt;Node12 -->
<g id="edge12" class="edge">
<title>Node4&#45;&gt;Node12</title>
<path fill="none" stroke="midnightblue" d="M523.17,-226.54C468.81,-218.44 373.02,-203.87 281.52,-188.22"/>
<polygon fill="midnightblue" stroke="midnightblue" points="281.98,-184.75 271.54,-186.51 280.8,-191.65 281.98,-184.75"/>
</g>
<!-- Node13 -->
<g id="node13" class="node">
<title>Node13</title>
<g id="a_node13"><a xlink:title=" ">
<polygon fill="white" stroke="#bfbfbf" points="289,-168.5 289,-187.5 349,-187.5 349,-168.5 289,-168.5"/>
<text text-anchor="middle" x="319" y="-175.5" font-family="Helvetica,sans-Serif" font-size="10.00">iostream</text>
</a>
</g>
</g>
<!-- Node4&#45;&gt;Node13 -->
<g id="edge14" class="edge">
<title>Node4&#45;&gt;Node13</title>
<path fill="none" stroke="midnightblue" d="M526.5,-224.47C486.43,-215.98 423.07,-202.45 359.08,-188.22"/>
<polygon fill="midnightblue" stroke="midnightblue" points="359.75,-184.78 349.22,-186.02 358.22,-191.61 359.75,-184.78"/>
</g>
<!-- Node14 -->
<g id="node14" class="node">
<title>Node14</title>
<g id="a_node14"><a xlink:title=" ">
<polygon fill="white" stroke="#bfbfbf" points="367,-168.5 367,-187.5 477,-187.5 477,-168.5 367,-168.5"/>
<text text-anchor="middle" x="422" y="-175.5" font-family="Helvetica,sans-Serif" font-size="10.00">nlohmann/json.hpp</text>
</a>
</g>
</g>
<!-- Node4&#45;&gt;Node14 -->
<g id="edge15" class="edge">
<title>Node4&#45;&gt;Node14</title>
<path fill="none" stroke="midnightblue" d="M544.02,-224.44C519.84,-215.44 481.58,-201.19 454.35,-191.05"/>
<polygon fill="midnightblue" stroke="midnightblue" points="455.46,-187.73 444.87,-187.52 453.02,-194.29 455.46,-187.73"/>
</g>
<!-- Node15 -->
<g id="node15" class="node">
<title>Node15</title>
<g id="a_node15"><a xlink:title=" ">
<polygon fill="white" stroke="#bfbfbf" points="763,-112.5 763,-131.5 819,-131.5 819,-112.5 763,-112.5"/>
<text text-anchor="middle" x="791" y="-119.5" font-family="Helvetica,sans-Serif" font-size="10.00">optional</text>
</a>
</g>
</g>
<!-- Node4&#45;&gt;Node15 -->
<g id="edge16" class="edge">
<title>Node4&#45;&gt;Node15</title>
<path fill="none" stroke="midnightblue" d="M610.67,-227.94C645.58,-222.34 694.66,-210.89 732,-188 752.01,-175.73 769.3,-154.69 779.9,-139.88"/>
<polygon fill="midnightblue" stroke="midnightblue" points="782.81,-141.82 785.6,-131.6 777.05,-137.85 782.81,-141.82"/>
</g>
<!-- Node16 -->
<g id="node16" class="node">
<title>Node16</title>
<g id="a_node16"><a xlink:title=" ">
<polygon fill="white" stroke="#bfbfbf" points="495,-168.5 495,-187.5 551,-187.5 551,-168.5 495,-168.5"/>
<text text-anchor="middle" x="523" y="-175.5" font-family="Helvetica,sans-Serif" font-size="10.00">sstream</text>
</a>
</g>
</g>
<!-- Node4&#45;&gt;Node16 -->
<g id="edge17" class="edge">
<title>Node4&#45;&gt;Node16</title>
<path fill="none" stroke="midnightblue" d="M559.73,-224.08C553.46,-216.38 544.21,-205.03 536.57,-195.65"/>
<polygon fill="midnightblue" stroke="midnightblue" points="539.16,-193.29 530.13,-187.75 533.73,-197.71 539.16,-193.29"/>
</g>
<!-- Node17 -->
<g id="node17" class="node">
<title>Node17</title>
<g id="a_node17"><a xlink:title=" ">
<polygon fill="white" stroke="#bfbfbf" points="1579.5,-0.5 1579.5,-19.5 1648.5,-19.5 1648.5,-0.5 1579.5,-0.5"/>
<text text-anchor="middle" x="1614" y="-7.5" font-family="Helvetica,sans-Serif" font-size="10.00">type_traits</text>
</a>
</g>
</g>
<!-- Node4&#45;&gt;Node17 -->
<g id="edge18" class="edge">
<title>Node4&#45;&gt;Node17</title>
<path fill="none" stroke="midnightblue" d="M610.58,-227.33C620.87,-226.12 631.81,-224.92 642,-224 904.53,-200.29 978.49,-252.79 1234,-188 1378.68,-151.32 1535.42,-59.81 1592.05,-24.87"/>
<polygon fill="midnightblue" stroke="midnightblue" points="1593.92,-27.83 1600.56,-19.58 1590.22,-21.89 1593.92,-27.83"/>
</g>
<!-- Node5&#45;&gt;Node6 -->
<g id="edge5" class="edge">
<title>Node5&#45;&gt;Node6</title>
<path fill="none" stroke="midnightblue" d="M648.09,-168.32C658.49,-160.18 674.26,-147.84 686.72,-138.09"/>
<polygon fill="midnightblue" stroke="midnightblue" points="688.99,-140.75 694.71,-131.83 684.68,-135.24 688.99,-140.75"/>
</g>
<!-- Node7&#45;&gt;Node6 -->
<g id="edge7" class="edge">
<title>Node7&#45;&gt;Node6</title>
<path fill="none" stroke="midnightblue" d="M174.27,-169.05C177.22,-168.68 180.15,-168.33 183,-168 356.45,-148.16 563.18,-132.82 656.25,-126.35"/>
<polygon fill="midnightblue" stroke="midnightblue" points="656.5,-129.84 666.23,-125.66 656.01,-122.86 656.5,-129.84"/>
</g>
<!-- Node8 -->
<g id="node8" class="node">
<title>Node8</title>
<g id="a_node8"><a xlink:title=" ">
<polygon fill="white" stroke="#bfbfbf" points="150,-112.5 150,-131.5 236,-131.5 236,-112.5 150,-112.5"/>
<text text-anchor="middle" x="193" y="-119.5" font-family="Helvetica,sans-Serif" font-size="10.00">fmt/ostream.h</text>
</a>
</g>
</g>
<!-- Node7&#45;&gt;Node8 -->
<g id="edge8" class="edge">
<title>Node7&#45;&gt;Node8</title>
<path fill="none" stroke="midnightblue" d="M131.73,-168.32C142.84,-160.11 159.74,-147.6 172.98,-137.81"/>
<polygon fill="midnightblue" stroke="midnightblue" points="175.1,-140.59 181.06,-131.83 170.94,-134.97 175.1,-140.59"/>
</g>
<!-- Node9 -->
<g id="node9" class="node">
<title>Node9</title>
<g id="a_node9"><a xlink:title=" ">
<polygon fill="white" stroke="#bfbfbf" points="254,-112.5 254,-131.5 298,-131.5 298,-112.5 254,-112.5"/>
<text text-anchor="middle" x="276" y="-119.5" font-family="Helvetica,sans-Serif" font-size="10.00">limits</text>
</a>
</g>
</g>
<!-- Node7&#45;&gt;Node9 -->
<g id="edge9" class="edge">
<title>Node7&#45;&gt;Node9</title>
<path fill="none" stroke="midnightblue" d="M144.72,-168.44C171.62,-159.13 214.71,-144.22 244.13,-134.03"/>
<polygon fill="midnightblue" stroke="midnightblue" points="245.61,-137.22 253.92,-130.64 243.32,-130.61 245.61,-137.22"/>
</g>
<!-- Node7&#45;&gt;Node10 -->
<g id="edge10" class="edge">
<title>Node7&#45;&gt;Node10</title>
<path fill="none" stroke="midnightblue" d="M108.27,-168.32C97.16,-160.11 80.26,-147.6 67.02,-137.81"/>
<polygon fill="midnightblue" stroke="midnightblue" points="69.06,-134.97 58.94,-131.83 64.9,-140.59 69.06,-134.97"/>
</g>
<!-- Node11 -->
<g id="node11" class="node">
<title>Node11</title>
<g id="a_node11"><a xlink:title=" ">
<polygon fill="white" stroke="#bfbfbf" points="84,-112.5 84,-131.5 132,-131.5 132,-112.5 84,-112.5"/>
<text text-anchor="middle" x="108" y="-119.5" font-family="Helvetica,sans-Serif" font-size="10.00">thread</text>
</a>
</g>
</g>
<!-- Node7&#45;&gt;Node11 -->
<g id="edge11" class="edge">
<title>Node7&#45;&gt;Node11</title>
<path fill="none" stroke="midnightblue" d="M118.02,-168.08C116.43,-160.93 114.14,-150.64 112.15,-141.69"/>
<polygon fill="midnightblue" stroke="midnightblue" points="115.53,-140.75 109.94,-131.75 108.7,-142.27 115.53,-140.75"/>
</g>
<!-- Node19 -->
<g id="node19" class="node">
<title>Node19</title>
<g id="a_node19"><a xlink:href="pal_8h.html" target="_top" xlink:title=" ">
<polygon fill="white" stroke="black" points="785,-56.5 785,-75.5 857,-75.5 857,-56.5 785,-56.5"/>
<text text-anchor="middle" x="821" y="-63.5" font-family="Helvetica,sans-Serif" font-size="10.00">ccf/ds/pal.h</text>
</a>
</g>
</g>
<!-- Node18&#45;&gt;Node19 -->
<g id="edge20" class="edge">
<title>Node18&#45;&gt;Node19</title>
<path fill="none" stroke="midnightblue" d="M902.91,-224.18C893.64,-215.67 880.02,-202.02 871,-188 849.47,-154.51 833.99,-110.2 826.37,-85.55"/>
<polygon fill="midnightblue" stroke="midnightblue" points="829.64,-84.3 823.42,-75.72 822.94,-86.31 829.64,-84.3"/>
</g>
<!-- Node22 -->
<g id="node22" class="node">
<title>Node22</title>
<g id="a_node22"><a xlink:title=" ">
<polygon fill="white" stroke="#bfbfbf" points="895,-0.5 895,-19.5 945,-19.5 945,-0.5 895,-0.5"/>
<text text-anchor="middle" x="920" y="-7.5" font-family="Helvetica,sans-Serif" font-size="10.00">cstring</text>
</a>
</g>
</g>
<!-- Node18&#45;&gt;Node22 -->
<g id="edge60" class="edge">
<title>Node18&#45;&gt;Node22</title>
<path fill="none" stroke="midnightblue" d="M910.77,-224.45C908.54,-215.45 905.27,-200.84 904,-188 898.29,-130.32 909.57,-61.98 915.99,-29.69"/>
<polygon fill="midnightblue" stroke="midnightblue" points="919.43,-30.35 918.02,-19.85 912.57,-28.93 919.43,-30.35"/>
</g>
<!-- Node18&#45;&gt;Node24 -->
<g id="edge25" class="edge">
<title>Node18&#45;&gt;Node24</title>
<path fill="none" stroke="midnightblue" d="M951.75,-224.86C996.49,-215.46 1070.21,-199.97 1119.42,-189.63"/>
<polygon fill="midnightblue" stroke="midnightblue" points="1120.16,-193.05 1129.23,-187.57 1118.72,-186.2 1120.16,-193.05"/>
</g>
<!-- Node42 -->
<g id="node42" class="node">
<title>Node42</title>
<g id="a_node42"><a xlink:title=" ">
<polygon fill="white" stroke="#bfbfbf" points="913.5,-168.5 913.5,-187.5 978.5,-187.5 978.5,-168.5 913.5,-168.5"/>
<text text-anchor="middle" x="946" y="-175.5" font-family="Helvetica,sans-Serif" font-size="10.00">functional</text>
</a>
</g>
</g>
<!-- Node18&#45;&gt;Node42 -->
<g id="edge61" class="edge">
<title>Node18&#45;&gt;Node42</title>
<path fill="none" stroke="midnightblue" d="M918.45,-224.08C923.01,-216.61 929.67,-205.72 935.29,-196.52"/>
<polygon fill="midnightblue" stroke="midnightblue" points="938.42,-198.11 940.65,-187.75 932.45,-194.46 938.42,-198.11"/>
</g>
<!-- Node20 -->
<g id="node20" class="node">
<title>Node20</title>
<g id="a_node20"><a xlink:title=" ">
<polygon fill="white" stroke="#bfbfbf" points="963,-0.5 963,-19.5 1013,-19.5 1013,-0.5 963,-0.5"/>
<text text-anchor="middle" x="988" y="-7.5" font-family="Helvetica,sans-Serif" font-size="10.00">cstdint</text>
</a>
</g>
</g>
<!-- Node19&#45;&gt;Node20 -->
<g id="edge21" class="edge">
<title>Node19&#45;&gt;Node20</title>
<path fill="none" stroke="midnightblue" d="M847.46,-56.44C876.01,-47.21 921.6,-32.47 953.07,-22.29"/>
<polygon fill="midnightblue" stroke="midnightblue" points="954.32,-25.57 962.76,-19.16 952.16,-18.91 954.32,-25.57"/>
</g>
<!-- Node21 -->
<g id="node21" class="node">
<title>Node21</title>
<g id="a_node21"><a xlink:title=" ">
<polygon fill="white" stroke="#bfbfbf" points="744.5,-0.5 744.5,-19.5 793.5,-19.5 793.5,-0.5 744.5,-0.5"/>
<text text-anchor="middle" x="769" y="-7.5" font-family="Helvetica,sans-Serif" font-size="10.00">cstdlib</text>
</a>
</g>
</g>
<!-- Node19&#45;&gt;Node21 -->
<g id="edge22" class="edge">
<title>Node19&#45;&gt;Node21</title>
<path fill="none" stroke="midnightblue" d="M812.41,-56.08C804.84,-48.22 793.62,-36.57 784.49,-27.08"/>
<polygon fill="midnightblue" stroke="midnightblue" points="786.88,-24.53 777.43,-19.75 781.84,-29.38 786.88,-24.53"/>
</g>
<!-- Node19&#45;&gt;Node22 -->
<g id="edge23" class="edge">
<title>Node19&#45;&gt;Node22</title>
<path fill="none" stroke="midnightblue" d="M836.91,-56.32C852.64,-47.74 876.94,-34.49 895.21,-24.52"/>
<polygon fill="midnightblue" stroke="midnightblue" points="897.03,-27.52 904.13,-19.65 893.68,-21.37 897.03,-27.52"/>
</g>
<!-- Node23 -->
<g id="node23" class="node">
<title>Node23</title>
<g id="a_node23"><a xlink:title=" ">
<polygon fill="white" stroke="#bfbfbf" points="678,-0.5 678,-19.5 726,-19.5 726,-0.5 678,-0.5"/>
<text text-anchor="middle" x="702" y="-7.5" font-family="Helvetica,sans-Serif" font-size="10.00">mutex</text>
</a>
</g>
</g>
<!-- Node19&#45;&gt;Node23 -->
<g id="edge24" class="edge">
<title>Node19&#45;&gt;Node23</title>
<path fill="none" stroke="midnightblue" d="M802.14,-56.44C782.73,-47.64 752.27,-33.81 730.04,-23.72"/>
<polygon fill="midnightblue" stroke="midnightblue" points="731.32,-20.46 720.77,-19.52 728.43,-26.84 731.32,-20.46"/>
</g>
<!-- Node24&#45;&gt;Node6 -->
<g id="edge56" class="edge">
<title>Node24&#45;&gt;Node6</title>
<path fill="none" stroke="midnightblue" d="M1114.98,-172.42C1037.14,-165.63 890.21,-151.72 755.59,-132.14"/>
<polygon fill="midnightblue" stroke="midnightblue" points="755.91,-128.65 745.51,-130.66 754.9,-135.58 755.91,-128.65"/>
</g>
<!-- Node24&#45;&gt;Node15 -->
<g id="edge57" class="edge">
<title>Node24&#45;&gt;Node15</title>
<path fill="none" stroke="midnightblue" d="M1114.89,-169.15C1037.13,-158.07 897.18,-138.13 829.6,-128.5"/>
<polygon fill="midnightblue" stroke="midnightblue" points="829.79,-124.99 819.4,-127.05 828.8,-131.92 829.79,-124.99"/>
</g>
<!-- Node25 -->
<g id="node25" class="node">
<title>Node25</title>
<g id="a_node25"><a xlink:href="include_2ccf_2ds_2hash_8h.html" target="_top" xlink:title=" ">
<polygon fill="white" stroke="black" points="1213,-112.5 1213,-131.5 1293,-131.5 1293,-112.5 1213,-112.5"/>
<text text-anchor="middle" x="1253" y="-119.5" font-family="Helvetica,sans-Serif" font-size="10.00">ccf/ds/hash.h</text>
</a>
</g>
</g>
<!-- Node24&#45;&gt;Node25 -->
<g id="edge26" class="edge">
<title>Node24&#45;&gt;Node25</title>
<path fill="none" stroke="midnightblue" d="M1183.34,-168.32C1196.16,-159.98 1215.78,-147.21 1230.94,-137.35"/>
<polygon fill="midnightblue" stroke="midnightblue" points="1233.22,-140.04 1239.7,-131.65 1229.41,-134.17 1233.22,-140.04"/>
</g>
<!-- Node24&#45;&gt;Node28 -->
<g id="edge59" class="edge">
<title>Node24&#45;&gt;Node28</title>
<path fill="none" stroke="midnightblue" d="M1207.79,-168.49C1254.17,-156.08 1332.05,-128.56 1376,-76 1387.77,-61.92 1396.8,-42.93 1402.41,-29.11"/>
<polygon fill="midnightblue" stroke="midnightblue" points="1405.7,-30.31 1406.03,-19.72 1399.17,-27.8 1405.7,-30.31"/>
</g>
<!-- Node31 -->
<g id="node31" class="node">
<title>Node31</title>
<g id="a_node31"><a xlink:href="nonstd_8h.html" target="_top" xlink:title=" ">
<polygon fill="white" stroke="black" points="1763,-56.5 1763,-75.5 1853,-75.5 1853,-56.5 1763,-56.5"/>
<text text-anchor="middle" x="1808" y="-63.5" font-family="Helvetica,sans-Serif" font-size="10.00">ccf/ds/nonstd.h</text>
</a>
</g>
</g>
<!-- Node24&#45;&gt;Node31 -->
<g id="edge35" class="edge">
<title>Node24&#45;&gt;Node31</title>
<path fill="none" stroke="midnightblue" d="M1225.24,-177.77C1317.34,-177.78 1507.41,-172.3 1662,-132 1707.15,-120.23 1755.99,-95.87 1784.18,-80.55"/>
<polygon fill="midnightblue" stroke="midnightblue" points="1786.19,-83.43 1793.25,-75.54 1782.81,-77.31 1786.19,-83.43"/>
</g>
<!-- Node34 -->
<g id="node34" class="node">
<title>Node34</title>
<g id="a_node34"><a xlink:title=" ">
<polygon fill="white" stroke="#bfbfbf" points="1031,-0.5 1031,-19.5 1075,-19.5 1075,-0.5 1031,-0.5"/>
<text text-anchor="middle" x="1053" y="-7.5" font-family="Helvetica,sans-Serif" font-size="10.00">string</text>
</a>
</g>
</g>
<!-- Node24&#45;&gt;Node34 -->
<g id="edge58" class="edge">
<title>Node24&#45;&gt;Node34</title>
<path fill="none" stroke="midnightblue" d="M1158.3,-168.38C1137.54,-152.48 1094.29,-116.42 1071,-76 1062.69,-61.57 1058.06,-43.12 1055.58,-29.56"/>
<polygon fill="midnightblue" stroke="midnightblue" points="1059.01,-28.85 1053.98,-19.53 1052.1,-29.95 1059.01,-28.85"/>
</g>
<!-- Node36 -->
<g id="node36" class="node">
<title>Node36</title>
<g id="a_node36"><a xlink:href="serializer_8h.html" target="_top" xlink:title=" ">
<polygon fill="white" stroke="black" points="1583,-112.5 1583,-131.5 1653,-131.5 1653,-112.5 1583,-112.5"/>
<text text-anchor="middle" x="1618" y="-119.5" font-family="Helvetica,sans-Serif" font-size="10.00">serializer.h</text>
</a>
</g>
</g>
<!-- Node24&#45;&gt;Node36 -->
<g id="edge43" class="edge">
<title>Node24&#45;&gt;Node36</title>
<path fill="none" stroke="midnightblue" d="M1225.38,-170.32C1314.96,-159.53 1489.93,-138.44 1572.63,-128.47"/>
<polygon fill="midnightblue" stroke="midnightblue" points="1573.21,-131.92 1582.72,-127.25 1572.37,-124.97 1573.21,-131.92"/>
</g>
<!-- Node24&#45;&gt;Node41 -->
<g id="edge55" class="edge">
<title>Node24&#45;&gt;Node41</title>
<path fill="none" stroke="midnightblue" d="M1141.8,-168.44C1110.7,-159.01 1060.64,-143.82 1027.05,-133.63"/>
<polygon fill="midnightblue" stroke="midnightblue" points="1027.78,-130.2 1017.19,-130.64 1025.75,-136.9 1027.78,-130.2"/>
</g>
<!-- Node25&#45;&gt;Node20 -->
<g id="edge32" class="edge">
<title>Node25&#45;&gt;Node20</title>
<path fill="none" stroke="midnightblue" d="M1212.91,-121.4C1136.96,-121.21 976.59,-115.96 942,-76 927.93,-59.74 947.94,-39.24 965.81,-25.66"/>
<polygon fill="midnightblue" stroke="midnightblue" points="968.17,-28.27 974.25,-19.6 964.09,-22.59 968.17,-28.27"/>
</g>
<!-- Node26 -->
<g id="node26" class="node">
<title>Node26</title>
<g id="a_node26"><a xlink:href="siphash_8h.html" target="_top" xlink:title=" ">
<polygon fill="white" stroke="black" points="1247.5,-56.5 1247.5,-75.5 1342.5,-75.5 1342.5,-56.5 1247.5,-56.5"/>
<text text-anchor="middle" x="1295" y="-63.5" font-family="Helvetica,sans-Serif" font-size="10.00">ccf/ds/siphash.h</text>
</a>
</g>
</g>
<!-- Node25&#45;&gt;Node26 -->
<g id="edge27" class="edge">
<title>Node25&#45;&gt;Node26</title>
<path fill="none" stroke="midnightblue" d="M1259.94,-112.08C1265.93,-104.38 1274.75,-93.03 1282.05,-83.65"/>
<polygon fill="midnightblue" stroke="midnightblue" points="1284.82,-85.79 1288.19,-75.75 1279.29,-81.5 1284.82,-85.79"/>
</g>
<!-- Node25&#45;&gt;Node28 -->
<g id="edge34" class="edge">
<title>Node25&#45;&gt;Node28</title>
<path fill="none" stroke="midnightblue" d="M1279.13,-112.37C1299.84,-104.76 1328.87,-92.35 1351,-76 1369.36,-62.43 1386.23,-42.27 1396.99,-28"/>
<polygon fill="midnightblue" stroke="midnightblue" points="1400.05,-29.75 1403.13,-19.61 1394.4,-25.61 1400.05,-29.75"/>
</g>
<!-- Node29 -->
<g id="node29" class="node">
<title>Node29</title>
<g id="a_node29"><a xlink:title=" ">
<polygon fill="white" stroke="#bfbfbf" points="1667,-0.5 1667,-19.5 1709,-19.5 1709,-0.5 1667,-0.5"/>
<text text-anchor="middle" x="1688" y="-7.5" font-family="Helvetica,sans-Serif" font-size="10.00">array</text>
</a>
</g>
</g>
<!-- Node25&#45;&gt;Node29 -->
<g id="edge31" class="edge">
<title>Node25&#45;&gt;Node29</title>
<path fill="none" stroke="midnightblue" d="M1289.73,-112.45C1359.41,-96.1 1515.73,-58.8 1657.02,-20.18"/>
<polygon fill="midnightblue" stroke="midnightblue" points="1658.01,-23.54 1666.73,-17.52 1656.16,-16.78 1658.01,-23.54"/>
</g>
<!-- Node30 -->
<g id="node30" class="node">
<title>Node30</title>
<g id="a_node30"><a xlink:title=" ">
<polygon fill="white" stroke="#bfbfbf" points="1080.5,-56.5 1080.5,-75.5 1229.5,-75.5 1229.5,-56.5 1080.5,-56.5"/>
<text text-anchor="middle" x="1155" y="-63.5" font-family="Helvetica,sans-Serif" font-size="10.00">small_vector/SmallVector.h</text>
</a>
</g>
</g>
<!-- Node25&#45;&gt;Node30 -->
<g id="edge33" class="edge">
<title>Node25&#45;&gt;Node30</title>
<path fill="none" stroke="midnightblue" d="M1237.25,-112.32C1221.68,-103.74 1197.62,-90.49 1179.54,-80.52"/>
<polygon fill="midnightblue" stroke="midnightblue" points="1181.15,-77.42 1170.71,-75.65 1177.78,-83.55 1181.15,-77.42"/>
</g>
<!-- Node26&#45;&gt;Node20 -->
<g id="edge29" class="edge">
<title>Node26&#45;&gt;Node20</title>
<path fill="none" stroke="midnightblue" d="M1247.49,-57.42C1181.4,-46.85 1065.78,-28.21 1023.17,-19.98"/>
<polygon fill="midnightblue" stroke="midnightblue" points="1023.68,-16.51 1013.19,-17.95 1022.29,-23.37 1023.68,-16.51"/>
</g>
<!-- Node27 -->
<g id="node27" class="node">
<title>Node27</title>
<g id="a_node27"><a xlink:title=" ">
<polygon fill="white" stroke="#bfbfbf" points="1268.5,-0.5 1268.5,-19.5 1321.5,-19.5 1321.5,-0.5 1268.5,-0.5"/>
<text text-anchor="middle" x="1295" y="-7.5" font-family="Helvetica,sans-Serif" font-size="10.00">cstddef</text>
</a>
</g>
</g>
<!-- Node26&#45;&gt;Node27 -->
<g id="edge28" class="edge">
<title>Node26&#45;&gt;Node27</title>
<path fill="none" stroke="midnightblue" d="M1295,-56.08C1295,-49.01 1295,-38.86 1295,-29.99"/>
<polygon fill="midnightblue" stroke="midnightblue" points="1298.5,-29.75 1295,-19.75 1291.5,-29.75 1298.5,-29.75"/>
</g>
<!-- Node26&#45;&gt;Node28 -->
<g id="edge30" class="edge">
<title>Node26&#45;&gt;Node28</title>
<path fill="none" stroke="midnightblue" d="M1313.06,-56.44C1331.57,-47.68 1360.58,-33.94 1381.86,-23.86"/>
<polygon fill="midnightblue" stroke="midnightblue" points="1383.48,-26.96 1391.02,-19.52 1380.49,-20.63 1383.48,-26.96"/>
</g>
<!-- Node31&#45;&gt;Node17 -->
<g id="edge41" class="edge">
<title>Node31&#45;&gt;Node17</title>
<path fill="none" stroke="midnightblue" d="M1777.26,-56.44C1744.06,-47.2 1691.01,-32.44 1654.44,-22.26"/>
<polygon fill="midnightblue" stroke="midnightblue" points="1655.17,-18.83 1644.6,-19.52 1653.29,-25.57 1655.17,-18.83"/>
</g>
<!-- Node31&#45;&gt;Node28 -->
<g id="edge42" class="edge">
<title>Node31&#45;&gt;Node28</title>
<path fill="none" stroke="midnightblue" d="M1762.62,-58.86C1681.8,-47.92 1514.7,-25.3 1442.94,-15.59"/>
<polygon fill="midnightblue" stroke="midnightblue" points="1443.05,-12.08 1432.67,-14.2 1442.11,-19.01 1443.05,-12.08"/>
</g>
<!-- Node31&#45;&gt;Node29 -->
<g id="edge37" class="edge">
<title>Node31&#45;&gt;Node29</title>
<path fill="none" stroke="midnightblue" d="M1788.99,-56.44C1769.41,-47.64 1738.69,-33.81 1716.27,-23.72"/>
<polygon fill="midnightblue" stroke="midnightblue" points="1717.48,-20.43 1706.93,-19.52 1714.61,-26.81 1717.48,-20.43"/>
</g>
<!-- Node32 -->
<g id="node32" class="node">
<title>Node32</title>
<g id="a_node32"><a xlink:title=" ">
<polygon fill="white" stroke="#bfbfbf" points="1819,-0.5 1819,-19.5 1883,-19.5 1883,-0.5 1819,-0.5"/>
<text text-anchor="middle" x="1851" y="-7.5" font-family="Helvetica,sans-Serif" font-size="10.00">algorithm</text>
</a>
</g>
</g>
<!-- Node31&#45;&gt;Node32 -->
<g id="edge36" class="edge">
<title>Node31&#45;&gt;Node32</title>
<path fill="none" stroke="midnightblue" d="M1815.1,-56.08C1821.24,-48.38 1830.27,-37.03 1837.74,-27.65"/>
<polygon fill="midnightblue" stroke="midnightblue" points="1840.54,-29.75 1844.03,-19.75 1835.06,-25.39 1840.54,-29.75"/>
</g>
<!-- Node33 -->
<g id="node33" class="node">
<title>Node33</title>
<g id="a_node33"><a xlink:title=" ">
<polygon fill="white" stroke="#bfbfbf" points="1901.5,-0.5 1901.5,-19.5 1950.5,-19.5 1950.5,-0.5 1901.5,-0.5"/>
<text text-anchor="middle" x="1926" y="-7.5" font-family="Helvetica,sans-Serif" font-size="10.00">cctype</text>
</a>
</g>
</g>
<!-- Node31&#45;&gt;Node33 -->
<g id="edge38" class="edge">
<title>Node31&#45;&gt;Node33</title>
<path fill="none" stroke="midnightblue" d="M1826.7,-56.44C1845.94,-47.64 1876.15,-33.81 1898.2,-23.72"/>
<polygon fill="midnightblue" stroke="midnightblue" points="1899.75,-26.86 1907.39,-19.52 1896.84,-20.5 1899.75,-26.86"/>
</g>
<!-- Node31&#45;&gt;Node34 -->
<g id="edge39" class="edge">
<title>Node31&#45;&gt;Node34</title>
<path fill="none" stroke="midnightblue" d="M1762.63,-60.29C1747.78,-58.82 1731.19,-57.26 1716,-56 1473.82,-35.94 1181.33,-18.43 1085.27,-12.85"/>
<polygon fill="midnightblue" stroke="midnightblue" points="1085.24,-9.34 1075.05,-12.26 1084.83,-16.33 1085.24,-9.34"/>
</g>
<!-- Node35 -->
<g id="node35" class="node">
<title>Node35</title>
<g id="a_node35"><a xlink:title=" ">
<polygon fill="white" stroke="#bfbfbf" points="1727.5,-0.5 1727.5,-19.5 1800.5,-19.5 1800.5,-0.5 1727.5,-0.5"/>
<text text-anchor="middle" x="1764" y="-7.5" font-family="Helvetica,sans-Serif" font-size="10.00">string_view</text>
</a>
</g>
</g>
<!-- Node31&#45;&gt;Node35 -->
<g id="edge40" class="edge">
<title>Node31&#45;&gt;Node35</title>
<path fill="none" stroke="midnightblue" d="M1800.73,-56.08C1794.46,-48.38 1785.21,-37.03 1777.57,-27.65"/>
<polygon fill="midnightblue" stroke="midnightblue" points="1780.16,-25.29 1771.13,-19.75 1774.73,-29.71 1780.16,-25.29"/>
</g>
<!-- Node36&#45;&gt;Node17 -->
<g id="edge53" class="edge">
<title>Node36&#45;&gt;Node17</title>
<path fill="none" stroke="midnightblue" d="M1653,-112.99C1688.09,-103.18 1734.45,-84.31 1716,-56 1708.43,-44.39 1677.41,-31.69 1651.55,-22.75"/>
<polygon fill="midnightblue" stroke="midnightblue" points="1652.54,-19.39 1641.95,-19.52 1650.31,-26.02 1652.54,-19.39"/>
</g>
<!-- Node36&#45;&gt;Node28 -->
<g id="edge54" class="edge">
<title>Node36&#45;&gt;Node28</title>
<path fill="none" stroke="midnightblue" d="M1602.69,-112.41C1580.13,-99.79 1536.55,-75.63 1499,-56 1477.97,-45 1453.92,-33.01 1435.97,-24.17"/>
<polygon fill="midnightblue" stroke="midnightblue" points="1437.21,-20.87 1426.69,-19.61 1434.12,-27.16 1437.21,-20.87"/>
</g>
<!-- Node36&#45;&gt;Node31 -->
<g id="edge44" class="edge">
<title>Node36&#45;&gt;Node31</title>
<path fill="none" stroke="midnightblue" d="M1648.11,-112.44C1680.63,-103.2 1732.58,-88.44 1768.39,-78.26"/>
<polygon fill="midnightblue" stroke="midnightblue" points="1769.37,-81.62 1778.03,-75.52 1767.46,-74.88 1769.37,-81.62"/>
</g>
<!-- Node36&#45;&gt;Node37 -->
<g id="edge45" class="edge">
<title>Node36&#45;&gt;Node37</title>
<path fill="none" stroke="midnightblue" d="M1582.78,-118.42C1495.82,-111.98 1264.03,-94.4 1071,-76 1059.28,-74.88 1046.65,-73.57 1034.85,-72.3"/>
<polygon fill="midnightblue" stroke="midnightblue" points="1035.07,-68.8 1024.75,-71.19 1034.31,-75.76 1035.07,-68.8"/>
</g>
<!-- Node39 -->
<g id="node39" class="node">
<title>Node39</title>
<g id="a_node39"><a xlink:title=" ">
<polygon fill="white" stroke="#bfbfbf" points="1589,-56.5 1589,-75.5 1647,-75.5 1647,-56.5 1589,-56.5"/>
<text text-anchor="middle" x="1618" y="-63.5" font-family="Helvetica,sans-Serif" font-size="10.00">memory</text>
</a>
</g>
</g>
<!-- Node36&#45;&gt;Node39 -->
<g id="edge51" class="edge">
<title>Node36&#45;&gt;Node39</title>
<path fill="none" stroke="midnightblue" d="M1618,-112.08C1618,-105.01 1618,-94.86 1618,-85.99"/>
<polygon fill="midnightblue" stroke="midnightblue" points="1621.5,-85.75 1618,-75.75 1614.5,-85.75 1621.5,-85.75"/>
</g>
<!-- Node40 -->
<g id="node40" class="node">
<title>Node40</title>
<g id="a_node40"><a xlink:title=" ">
<polygon fill="white" stroke="#bfbfbf" points="1665.5,-56.5 1665.5,-75.5 1706.5,-75.5 1706.5,-56.5 1665.5,-56.5"/>
<text text-anchor="middle" x="1686" y="-63.5" font-family="Helvetica,sans-Serif" font-size="10.00">tuple</text>
</a>
</g>
</g>
<!-- Node36&#45;&gt;Node40 -->
<g id="edge52" class="edge">
<title>Node36&#45;&gt;Node40</title>
<path fill="none" stroke="midnightblue" d="M1628.93,-112.32C1639.17,-104.18 1654.72,-91.84 1667,-82.09"/>
<polygon fill="midnightblue" stroke="midnightblue" points="1669.22,-84.79 1674.88,-75.83 1664.87,-79.31 1669.22,-84.79"/>
</g>
<!-- Node37&#45;&gt;Node20 -->
<g id="edge46" class="edge">
<title>Node37&#45;&gt;Node20</title>
<path fill="none" stroke="midnightblue" d="M988,-56.08C988,-49.01 988,-38.86 988,-29.99"/>
<polygon fill="midnightblue" stroke="midnightblue" points="991.5,-29.75 988,-19.75 984.5,-29.75 991.5,-29.75"/>
</g>
<!-- Node37&#45;&gt;Node22 -->
<g id="edge47" class="edge">
<title>Node37&#45;&gt;Node22</title>
<path fill="none" stroke="midnightblue" d="M977.07,-56.32C966.83,-48.18 951.28,-35.84 939,-26.09"/>
<polygon fill="midnightblue" stroke="midnightblue" points="941.13,-23.31 931.12,-19.83 936.78,-28.79 941.13,-23.31"/>
</g>
<!-- Node37&#45;&gt;Node28 -->
<g id="edge50" class="edge">
<title>Node37&#45;&gt;Node28</title>
<path fill="none" stroke="midnightblue" d="M1024.62,-60.3C1105.25,-49.96 1297.13,-25.35 1375.14,-15.34"/>
<polygon fill="midnightblue" stroke="midnightblue" points="1375.9,-18.77 1385.37,-14.03 1375.01,-11.83 1375.9,-18.77"/>
</g>
<!-- Node37&#45;&gt;Node34 -->
<g id="edge49" class="edge">
<title>Node37&#45;&gt;Node34</title>
<path fill="none" stroke="midnightblue" d="M998.44,-56.32C1008.15,-48.26 1022.82,-36.08 1034.5,-26.37"/>
<polygon fill="midnightblue" stroke="midnightblue" points="1036.91,-28.92 1042.37,-19.83 1032.44,-23.53 1036.91,-28.92"/>
</g>
<!-- Node37&#45;&gt;Node38 -->
<g id="edge48" class="edge">
<title>Node37&#45;&gt;Node38</title>
<path fill="none" stroke="midnightblue" d="M965.18,-56.44C941.17,-47.44 903.17,-33.19 876.13,-23.05"/>
<polygon fill="midnightblue" stroke="midnightblue" points="877.3,-19.75 866.71,-19.52 874.84,-26.3 877.3,-19.75"/>
</g>
</g>
</svg>
