<?xml version="1.0" encoding="UTF-8" standalone="no"?>
<!DOCTYPE svg PUBLIC "-//W3C//DTD SVG 1.1//EN"
 "http://www.w3.org/Graphics/SVG/1.1/DTD/svg11.dtd">
<!-- Generated by graphviz version 2.43.0 (0)
 -->
<!-- Title: include/ccf/crypto/key_wrap.h Pages: 1 -->
<!--zoomable 565 -->
<svg id="main" version="1.1" xmlns="http://www.w3.org/2000/svg" xmlns:xlink="http://www.w3.org/1999/xlink" xml:space="preserve" onload="init(evt)">
<style type="text/css"><![CDATA[
.edge:hover path { stroke: red; }
.edge:hover polygon { stroke: red; fill: red; }
]]></style>
<script type="text/javascript"><![CDATA[
var edges = document.getElementsByTagName('g');
if (edges && edges.length) {
  for (var i=0;i<edges.length;i++) {
    if (edges[i].id.substr(0,4)=='edge') {
      edges[i].setAttribute('class','edge');
    }
  }
}
]]></script>
        <defs>
                <circle id="rim" cx="0" cy="0" r="7"/>
                <circle id="rim2" cx="0" cy="0" r="3.5"/>
                <g id="zoomPlus">
                        <use xlink:href="#rim" fill="#404040">
                                <set attributeName="fill" to="#808080" begin="zoomplus.mouseover" end="zoomplus.mouseout"/>
                        </use>
                        <path d="M-4,0h8M0,-4v8" fill="none" stroke="white" stroke-width="1.5" pointer-events="none"/>
                </g>
                <g id="zoomMin">
                        <use xlink:href="#rim" fill="#404040">
                                <set attributeName="fill" to="#808080" begin="zoomminus.mouseover" end="zoomminus.mouseout"/>
                        </use>
                        <path d="M-4,0h8" fill="none" stroke="white" stroke-width="1.5" pointer-events="none"/>
                </g>
                <g id="dirArrow">
                        <path fill="none" stroke="white" stroke-width="1.5" d="M0,-3.0v7 M-2.5,-0.5L0,-3.0L2.5,-0.5"/>
                </g>
               <g id="resetDef">
                       <use xlink:href="#rim2" fill="#404040">
                               <set attributeName="fill" to="#808080" begin="reset.mouseover" end="reset.mouseout"/>
                       </use>
               </g>
        </defs>

<script type="text/javascript">
var viewWidth = 1605;
var viewHeight = 565;
var sectionId = 'dynsection-0';
</script>
<script xlink:href="svgpan.js"/>
<svg id="graph" class="graph">
<g id="viewport">
<title>include/ccf/crypto/key_wrap.h</title>
<polygon fill="white" stroke="transparent" points="-4,4 -4,-561 1600.5,-561 1600.5,4 -4,4"/>
<!-- Node1 -->
<g id="node1" class="node">
<title>Node1</title>
<g id="a_node1"><a xlink:title=" ">
<polygon fill="#bfbfbf" stroke="black" points="1189.5,-526.5 1189.5,-556.5 1292.5,-556.5 1292.5,-526.5 1189.5,-526.5"/>
<text text-anchor="start" x="1197.5" y="-544.5" font-family="Helvetica,sans-Serif" font-size="10.00">include/ccf/crypto</text>
<text text-anchor="middle" x="1241" y="-533.5" font-family="Helvetica,sans-Serif" font-size="10.00">/key_wrap.h</text>
</a>
</g>
</g>
<!-- Node2 -->
<g id="node2" class="node">
<title>Node2</title>
<g id="a_node2"><a xlink:href="include_2ccf_2crypto_2rsa__key__pair_8h.html" target="_top" xlink:title=" ">
<polygon fill="white" stroke="black" points="776.5,-459.5 776.5,-489.5 881.5,-489.5 881.5,-459.5 776.5,-459.5"/>
<text text-anchor="start" x="784.5" y="-477.5" font-family="Helvetica,sans-Serif" font-size="10.00">ccf/crypto/rsa_key</text>
<text text-anchor="middle" x="829" y="-466.5" font-family="Helvetica,sans-Serif" font-size="10.00">_pair.h</text>
</a>
</g>
</g>
<!-- Node1&#45;&gt;Node2 -->
<g id="edge1" class="edge">
<title>Node1&#45;&gt;Node2</title>
<path fill="none" stroke="midnightblue" d="M1189.24,-532.33C1113.59,-520.4 973.01,-498.22 891.63,-485.38"/>
<polygon fill="midnightblue" stroke="midnightblue" points="891.95,-481.89 881.53,-483.79 890.86,-488.8 891.95,-481.89"/>
</g>
<!-- Node9 -->
<g id="node9" class="node">
<title>Node9</title>
<g id="a_node9"><a xlink:title=" ">
<polygon fill="white" stroke="#bfbfbf" points="843.5,-0.5 843.5,-19.5 890.5,-19.5 890.5,-0.5 843.5,-0.5"/>
<text text-anchor="middle" x="867" y="-7.5" font-family="Helvetica,sans-Serif" font-size="10.00">vector</text>
</a>
</g>
</g>
<!-- Node1&#45;&gt;Node9 -->
<g id="edge80" class="edge">
<title>Node1&#45;&gt;Node9</title>
<path fill="none" stroke="midnightblue" d="M1292.54,-539.07C1371.91,-533.83 1515,-510.93 1515,-414 1515,-414 1515,-414 1515,-121 1515,-76.55 1480.06,-73.02 1439,-56 1340.81,-15.29 1008.79,-11.18 901.06,-10.94"/>
<polygon fill="midnightblue" stroke="midnightblue" points="900.78,-7.44 890.77,-10.93 900.77,-14.44 900.78,-7.44"/>
</g>
<!-- Node29 -->
<g id="node29" class="node">
<title>Node29</title>
<g id="a_node29"><a xlink:title=" ">
<polygon fill="white" stroke="#bfbfbf" points="751,-224.5 751,-243.5 801,-243.5 801,-224.5 751,-224.5"/>
<text text-anchor="middle" x="776" y="-231.5" font-family="Helvetica,sans-Serif" font-size="10.00">cstdint</text>
</a>
</g>
</g>
<!-- Node1&#45;&gt;Node29 -->
<g id="edge79" class="edge">
<title>Node1&#45;&gt;Node29</title>
<path fill="none" stroke="midnightblue" d="M1231.32,-526.2C1199.62,-480.68 1093.54,-338.7 966,-280 902.76,-250.89 878.68,-261.41 811.02,-245.17"/>
<polygon fill="midnightblue" stroke="midnightblue" points="811.72,-241.74 801.17,-242.69 810.02,-248.52 811.72,-241.74"/>
</g>
<!-- Node33 -->
<g id="node33" class="node">
<title>Node33</title>
<g id="a_node33"><a xlink:href="include_2ccf_2crypto_2symmetric__key_8h.html" target="_top" xlink:title=" ">
<polygon fill="white" stroke="black" points="1181,-336.5 1181,-366.5 1301,-366.5 1301,-336.5 1181,-336.5"/>
<text text-anchor="start" x="1189" y="-354.5" font-family="Helvetica,sans-Serif" font-size="10.00">ccf/crypto/symmetric</text>
<text text-anchor="middle" x="1241" y="-343.5" font-family="Helvetica,sans-Serif" font-size="10.00">_key.h</text>
</a>
</g>
</g>
<!-- Node1&#45;&gt;Node33 -->
<g id="edge67" class="edge">
<title>Node1&#45;&gt;Node33</title>
<path fill="none" stroke="midnightblue" d="M1241,-526.37C1241,-494.44 1241,-416.44 1241,-376.67"/>
<polygon fill="midnightblue" stroke="midnightblue" points="1244.5,-376.54 1241,-366.54 1237.5,-376.54 1244.5,-376.54"/>
</g>
<!-- Node37 -->
<g id="node37" class="node">
<title>Node37</title>
<g id="a_node37"><a xlink:title=" ">
<polygon fill="white" stroke="#bfbfbf" points="1543.5,-465 1543.5,-484 1596.5,-484 1596.5,-465 1543.5,-465"/>
<text text-anchor="middle" x="1570" y="-472" font-family="Helvetica,sans-Serif" font-size="10.00">cstddef</text>
</a>
</g>
</g>
<!-- Node1&#45;&gt;Node37 -->
<g id="edge78" class="edge">
<title>Node1&#45;&gt;Node37</title>
<path fill="none" stroke="midnightblue" d="M1292.54,-534.1C1350.6,-526.28 1447.5,-511.4 1529,-490 1532.04,-489.2 1535.18,-488.28 1538.3,-487.29"/>
<polygon fill="midnightblue" stroke="midnightblue" points="1539.72,-490.51 1548.08,-484.01 1537.49,-483.87 1539.72,-490.51"/>
</g>
<!-- Node3 -->
<g id="node3" class="node">
<title>Node3</title>
<g id="a_node3"><a xlink:href="include_2ccf_2crypto_2key__pair_8h.html" target="_top" xlink:title=" ">
<polygon fill="white" stroke="black" points="713.5,-403.5 713.5,-422.5 830.5,-422.5 830.5,-403.5 713.5,-403.5"/>
<text text-anchor="middle" x="772" y="-410.5" font-family="Helvetica,sans-Serif" font-size="10.00">ccf/crypto/key_pair.h</text>
</a>
</g>
</g>
<!-- Node2&#45;&gt;Node3 -->
<g id="edge2" class="edge">
<title>Node2&#45;&gt;Node3</title>
<path fill="none" stroke="midnightblue" d="M815.49,-459.4C807.04,-450.58 796.12,-439.18 787.34,-430.02"/>
<polygon fill="midnightblue" stroke="midnightblue" points="789.74,-427.46 780.29,-422.66 784.68,-432.3 789.74,-427.46"/>
</g>
<!-- Node8 -->
<g id="node8" class="node">
<title>Node8</title>
<g id="a_node8"><a xlink:title=" ">
<polygon fill="white" stroke="#bfbfbf" points="111,-0.5 111,-19.5 155,-19.5 155,-0.5 111,-0.5"/>
<text text-anchor="middle" x="133" y="-7.5" font-family="Helvetica,sans-Serif" font-size="10.00">string</text>
</a>
</g>
</g>
<!-- Node2&#45;&gt;Node8 -->
<g id="edge65" class="edge">
<title>Node2&#45;&gt;Node8</title>
<path fill="none" stroke="midnightblue" d="M776.2,-471.38C593.6,-463.37 0,-431.27 0,-352.5 0,-352.5 0,-352.5 0,-121 0,-68.65 61.93,-36.53 101.28,-21.4"/>
<polygon fill="midnightblue" stroke="midnightblue" points="102.56,-24.65 110.74,-17.92 100.15,-18.08 102.56,-24.65"/>
</g>
<!-- Node2&#45;&gt;Node9 -->
<g id="edge66" class="edge">
<title>Node2&#45;&gt;Node9</title>
<path fill="none" stroke="midnightblue" d="M776.1,-469.32C734.32,-463.91 676.09,-451.48 633,-423 577.84,-386.54 576.59,-344.3 592,-280 623.53,-148.42 777.39,-56.62 840.21,-24.05"/>
<polygon fill="midnightblue" stroke="midnightblue" points="841.81,-27.17 849.14,-19.51 838.64,-20.93 841.81,-27.17"/>
</g>
<!-- Node22 -->
<g id="node22" class="node">
<title>Node22</title>
<g id="a_node22"><a xlink:href="pem_8h.html" target="_top" xlink:title=" ">
<polygon fill="white" stroke="black" points="1030,-280.5 1030,-299.5 1128,-299.5 1128,-280.5 1030,-280.5"/>
<text text-anchor="middle" x="1079" y="-287.5" font-family="Helvetica,sans-Serif" font-size="10.00">ccf/crypto/pem.h</text>
</a>
</g>
</g>
<!-- Node2&#45;&gt;Node22 -->
<g id="edge56" class="edge">
<title>Node2&#45;&gt;Node22</title>
<path fill="none" stroke="midnightblue" d="M881.53,-464.73C936.44,-452.66 1020.77,-425.4 1066,-367 1078.65,-350.66 1080.77,-326.39 1080.46,-309.7"/>
<polygon fill="midnightblue" stroke="midnightblue" points="1083.95,-309.35 1079.96,-299.54 1076.96,-309.7 1083.95,-309.35"/>
</g>
<!-- Node2&#45;&gt;Node29 -->
<g id="edge63" class="edge">
<title>Node2&#45;&gt;Node29</title>
<path fill="none" stroke="midnightblue" d="M776.19,-465.44C722.31,-454.02 641.84,-427.34 607,-367 587.67,-333.51 583.44,-310.66 607,-280 607.13,-279.83 691.59,-257.4 741.04,-244.27"/>
<polygon fill="midnightblue" stroke="midnightblue" points="741.96,-247.65 750.72,-241.7 740.16,-240.89 741.96,-247.65"/>
</g>
<!-- Node31 -->
<g id="node31" class="node">
<title>Node31</title>
<g id="a_node31"><a xlink:title=" ">
<polygon fill="white" stroke="#bfbfbf" points="880,-280.5 880,-299.5 936,-299.5 936,-280.5 880,-280.5"/>
<text text-anchor="middle" x="908" y="-287.5" font-family="Helvetica,sans-Serif" font-size="10.00">optional</text>
</a>
</g>
</g>
<!-- Node2&#45;&gt;Node31 -->
<g id="edge64" class="edge">
<title>Node2&#45;&gt;Node31</title>
<path fill="none" stroke="midnightblue" d="M835.07,-459.48C849.21,-426.82 884.34,-345.65 900.12,-309.21"/>
<polygon fill="midnightblue" stroke="midnightblue" points="903.42,-310.39 904.18,-299.82 897,-307.61 903.42,-310.39"/>
</g>
<!-- Node32 -->
<g id="node32" class="node">
<title>Node32</title>
<g id="a_node32"><a xlink:href="include_2ccf_2crypto_2rsa__public__key_8h.html" target="_top" xlink:title=" ">
<polygon fill="white" stroke="black" points="914.5,-336.5 914.5,-366.5 1031.5,-366.5 1031.5,-336.5 914.5,-336.5"/>
<text text-anchor="start" x="922.5" y="-354.5" font-family="Helvetica,sans-Serif" font-size="10.00">ccf/crypto/rsa_public</text>
<text text-anchor="middle" x="973" y="-343.5" font-family="Helvetica,sans-Serif" font-size="10.00">_key.h</text>
</a>
</g>
</g>
<!-- Node2&#45;&gt;Node32 -->
<g id="edge57" class="edge">
<title>Node2&#45;&gt;Node32</title>
<path fill="none" stroke="midnightblue" d="M850.43,-459.49C864.85,-449.77 884.06,-436.24 900,-423 918.53,-407.61 938.08,-388.56 952.28,-374.14"/>
<polygon fill="midnightblue" stroke="midnightblue" points="955.1,-376.26 959.58,-366.66 950.09,-371.37 955.1,-376.26"/>
</g>
<!-- Node4 -->
<g id="node4" class="node">
<title>Node4</title>
<g id="a_node4"><a xlink:href="curve_8h.html" target="_top" xlink:title=" ">
<polygon fill="white" stroke="black" points="380,-280.5 380,-299.5 484,-299.5 484,-280.5 380,-280.5"/>
<text text-anchor="middle" x="432" y="-287.5" font-family="Helvetica,sans-Serif" font-size="10.00">ccf/crypto/curve.h</text>
</a>
</g>
</g>
<!-- Node3&#45;&gt;Node4 -->
<g id="edge3" class="edge">
<title>Node3&#45;&gt;Node4</title>
<path fill="none" stroke="midnightblue" d="M734.84,-403.48C701.09,-395.37 650.14,-382.16 607,-367 553.24,-348.11 492.72,-320.29 458.79,-304.07"/>
<polygon fill="midnightblue" stroke="midnightblue" points="460.08,-300.81 449.55,-299.63 457.04,-307.12 460.08,-300.81"/>
</g>
<!-- Node3&#45;&gt;Node8 -->
<g id="edge54" class="edge">
<title>Node3&#45;&gt;Node8</title>
<path fill="none" stroke="midnightblue" d="M713.48,-408.51C539.59,-397.38 38,-359.33 38,-291 38,-291 38,-291 38,-121 38,-77.74 80.61,-43.09 108.75,-24.91"/>
<polygon fill="midnightblue" stroke="midnightblue" points="110.66,-27.85 117.31,-19.6 106.97,-21.9 110.66,-27.85"/>
</g>
<!-- Node3&#45;&gt;Node9 -->
<g id="edge55" class="edge">
<title>Node3&#45;&gt;Node9</title>
<path fill="none" stroke="midnightblue" d="M778.53,-403.21C799.99,-373.43 867,-272.92 867,-179 867,-179 867,-179 867,-121 867,-88.95 867,-51.64 867,-29.75"/>
<polygon fill="midnightblue" stroke="midnightblue" points="870.5,-29.56 867,-19.56 863.5,-29.56 870.5,-29.56"/>
</g>
<!-- Node3&#45;&gt;Node22 -->
<g id="edge28" class="edge">
<title>Node3&#45;&gt;Node22</title>
<path fill="none" stroke="midnightblue" d="M830.51,-408.37C899.36,-403.06 1008.44,-391.06 1041,-367 1059.86,-353.06 1069.95,-327.12 1074.89,-309.46"/>
<polygon fill="midnightblue" stroke="midnightblue" points="1078.3,-310.27 1077.33,-299.72 1071.51,-308.57 1078.3,-310.27"/>
</g>
<!-- Node27 -->
<g id="node27" class="node">
<title>Node27</title>
<g id="a_node27"><a xlink:href="include_2ccf_2crypto_2public__key_8h.html" target="_top" xlink:title=" ">
<polygon fill="white" stroke="black" points="616.5,-342 616.5,-361 743.5,-361 743.5,-342 616.5,-342"/>
<text text-anchor="middle" x="680" y="-349" font-family="Helvetica,sans-Serif" font-size="10.00">ccf/crypto/public_key.h</text>
</a>
</g>
</g>
<!-- Node3&#45;&gt;Node27 -->
<g id="edge36" class="edge">
<title>Node3&#45;&gt;Node27</title>
<path fill="none" stroke="midnightblue" d="M758.82,-403.48C743.93,-393.84 719.46,-378.02 701.73,-366.55"/>
<polygon fill="midnightblue" stroke="midnightblue" points="703.45,-363.5 693.16,-361.01 699.65,-369.38 703.45,-363.5"/>
</g>
<!-- Node3&#45;&gt;Node29 -->
<g id="edge52" class="edge">
<title>Node3&#45;&gt;Node29</title>
<path fill="none" stroke="midnightblue" d="M772.42,-403.29C773.3,-384.45 775.31,-338.52 776,-300 776.28,-284.47 776.26,-266.84 776.18,-253.87"/>
<polygon fill="midnightblue" stroke="midnightblue" points="779.68,-253.8 776.1,-243.83 772.68,-253.86 779.68,-253.8"/>
</g>
<!-- Node30 -->
<g id="node30" class="node">
<title>Node30</title>
<g id="a_node30"><a xlink:href="san_8h.html" target="_top" xlink:title=" ">
<polygon fill="white" stroke="black" points="189,-224.5 189,-243.5 283,-243.5 283,-224.5 189,-224.5"/>
<text text-anchor="middle" x="236" y="-231.5" font-family="Helvetica,sans-Serif" font-size="10.00">ccf/crypto/san.h</text>
</a>
</g>
</g>
<!-- Node3&#45;&gt;Node30 -->
<g id="edge51" class="edge">
<title>Node3&#45;&gt;Node30</title>
<path fill="none" stroke="midnightblue" d="M713.16,-406.84C623.28,-396.95 448.48,-369.75 318,-300 292.9,-286.58 267.8,-265.24 252.11,-250.7"/>
<polygon fill="midnightblue" stroke="midnightblue" points="254.48,-248.12 244.82,-243.79 249.67,-253.21 254.48,-248.12"/>
</g>
<!-- Node3&#45;&gt;Node31 -->
<g id="edge53" class="edge">
<title>Node3&#45;&gt;Node31</title>
<path fill="none" stroke="midnightblue" d="M782.03,-403.44C792.54,-394.43 809.52,-379.82 824,-367 847.54,-346.17 874.43,-321.72 891.31,-306.3"/>
<polygon fill="midnightblue" stroke="midnightblue" points="893.72,-308.84 898.74,-299.5 889,-303.67 893.72,-308.84"/>
</g>
<!-- Node5 -->
<g id="node5" class="node">
<title>Node5</title>
<g id="a_node5"><a xlink:href="md__type_8h.html" target="_top" xlink:title=" ">
<polygon fill="white" stroke="black" points="339.5,-224.5 339.5,-243.5 458.5,-243.5 458.5,-224.5 339.5,-224.5"/>
<text text-anchor="middle" x="399" y="-231.5" font-family="Helvetica,sans-Serif" font-size="10.00">ccf/crypto/md_type.h</text>
</a>
</g>
</g>
<!-- Node4&#45;&gt;Node5 -->
<g id="edge4" class="edge">
<title>Node4&#45;&gt;Node5</title>
<path fill="none" stroke="midnightblue" d="M426.55,-280.08C421.99,-272.61 415.33,-261.72 409.71,-252.52"/>
<polygon fill="midnightblue" stroke="midnightblue" points="412.55,-250.46 404.35,-243.75 406.58,-254.11 412.55,-250.46"/>
</g>
<!-- Node6 -->
<g id="node6" class="node">
<title>Node6</title>
<g id="a_node6"><a xlink:href="json_8h.html" target="_top" xlink:title=" ">
<polygon fill="white" stroke="black" points="448.5,-168.5 448.5,-187.5 525.5,-187.5 525.5,-168.5 448.5,-168.5"/>
<text text-anchor="middle" x="487" y="-175.5" font-family="Helvetica,sans-Serif" font-size="10.00">ccf/ds/json.h</text>
</a>
</g>
</g>
<!-- Node4&#45;&gt;Node6 -->
<g id="edge24" class="edge">
<title>Node4&#45;&gt;Node6</title>
<path fill="none" stroke="midnightblue" d="M440.29,-280.36C448.14,-271.76 459.78,-257.87 467,-244 474.66,-229.27 479.94,-211.11 483.14,-197.73"/>
<polygon fill="midnightblue" stroke="midnightblue" points="486.6,-198.32 485.35,-187.8 479.77,-196.8 486.6,-198.32"/>
</g>
<!-- Node4&#45;&gt;Node8 -->
<g id="edge27" class="edge">
<title>Node4&#45;&gt;Node8</title>
<path fill="none" stroke="midnightblue" d="M379.81,-282.36C310.63,-273.15 195.45,-256.25 180,-244 155.35,-224.46 152,-210.46 152,-179 152,-179 152,-179 152,-121 152,-88.49 143.84,-51.35 138.22,-29.61"/>
<polygon fill="midnightblue" stroke="midnightblue" points="141.54,-28.5 135.56,-19.75 134.78,-30.32 141.54,-28.5"/>
</g>
<!-- Node17 -->
<g id="node17" class="node">
<title>Node17</title>
<g id="a_node17"><a xlink:title=" ">
<polygon fill="white" stroke="#bfbfbf" points="230.5,-56.5 230.5,-75.5 309.5,-75.5 309.5,-56.5 230.5,-56.5"/>
<text text-anchor="middle" x="270" y="-63.5" font-family="Helvetica,sans-Serif" font-size="10.00">fmt/format.h</text>
</a>
</g>
</g>
<!-- Node4&#45;&gt;Node17 -->
<g id="edge25" class="edge">
<title>Node4&#45;&gt;Node17</title>
<path fill="none" stroke="midnightblue" d="M449.31,-280.48C485.94,-261.3 565.45,-212.9 534,-168 507.14,-129.65 477.81,-150.95 435,-132 417.55,-124.28 414.48,-119.65 397,-112 367.49,-99.08 332.97,-87.04 307.38,-78.67"/>
<polygon fill="midnightblue" stroke="midnightblue" points="308.29,-75.29 297.69,-75.54 306.13,-81.95 308.29,-75.29"/>
</g>
<!-- Node20 -->
<g id="node20" class="node">
<title>Node20</title>
<g id="a_node20"><a xlink:href="enum__formatter_8h.html" target="_top" xlink:title=" ">
<polygon fill="white" stroke="black" points="294,-168.5 294,-187.5 430,-187.5 430,-168.5 294,-168.5"/>
<text text-anchor="middle" x="362" y="-175.5" font-family="Helvetica,sans-Serif" font-size="10.00">ccf/ds/enum_formatter.h</text>
</a>
</g>
</g>
<!-- Node4&#45;&gt;Node20 -->
<g id="edge22" class="edge">
<title>Node4&#45;&gt;Node20</title>
<path fill="none" stroke="midnightblue" d="M385.64,-280.47C364.93,-274.1 342.42,-263.05 330,-244 319.67,-228.14 332.53,-208.47 344.9,-194.95"/>
<polygon fill="midnightblue" stroke="midnightblue" points="347.44,-197.36 351.94,-187.77 342.44,-192.46 347.44,-197.36"/>
</g>
<!-- Node21 -->
<g id="node21" class="node">
<title>Node21</title>
<g id="a_node21"><a xlink:title=" ">
<polygon fill="white" stroke="#bfbfbf" points="667.5,-224.5 667.5,-243.5 732.5,-243.5 732.5,-224.5 667.5,-224.5"/>
<text text-anchor="middle" x="700" y="-231.5" font-family="Helvetica,sans-Serif" font-size="10.00">stdexcept</text>
</a>
</g>
</g>
<!-- Node4&#45;&gt;Node21 -->
<g id="edge26" class="edge">
<title>Node4&#45;&gt;Node21</title>
<path fill="none" stroke="midnightblue" d="M474.47,-280.44C524.59,-270.34 607.44,-253.65 657.56,-243.55"/>
<polygon fill="midnightblue" stroke="midnightblue" points="658.32,-246.97 667.43,-241.56 656.93,-240.11 658.32,-246.97"/>
</g>
<!-- Node5&#45;&gt;Node6 -->
<g id="edge5" class="edge">
<title>Node5&#45;&gt;Node6</title>
<path fill="none" stroke="midnightblue" d="M413.14,-224.32C426.87,-215.9 447.94,-202.97 464.06,-193.07"/>
<polygon fill="midnightblue" stroke="midnightblue" points="466.2,-195.87 472.9,-187.65 462.54,-189.9 466.2,-195.87"/>
</g>
<!-- Node7 -->
<g id="node7" class="node">
<title>Node7</title>
<g id="a_node7"><a xlink:href="include_2ccf_2crypto_2base64_8h.html" target="_top" xlink:title=" ">
<polygon fill="white" stroke="black" points="564,-56.5 564,-75.5 676,-75.5 676,-56.5 564,-56.5"/>
<text text-anchor="middle" x="620" y="-63.5" font-family="Helvetica,sans-Serif" font-size="10.00">ccf/crypto/base64.h</text>
</a>
</g>
</g>
<!-- Node6&#45;&gt;Node7 -->
<g id="edge6" class="edge">
<title>Node6&#45;&gt;Node7</title>
<path fill="none" stroke="midnightblue" d="M525.72,-172.62C552.79,-167.47 587.6,-156.28 608,-132 618.72,-119.24 621.14,-100.05 621.22,-85.82"/>
<polygon fill="midnightblue" stroke="midnightblue" points="624.72,-85.58 620.91,-75.7 617.72,-85.8 624.72,-85.58"/>
</g>
<!-- Node10 -->
<g id="node10" class="node">
<title>Node10</title>
<g id="a_node10"><a xlink:href="include_2ccf_2ds_2json__schema_8h.html" target="_top" xlink:title=" ">
<polygon fill="white" stroke="black" points="444.5,-112.5 444.5,-131.5 565.5,-131.5 565.5,-112.5 444.5,-112.5"/>
<text text-anchor="middle" x="505" y="-119.5" font-family="Helvetica,sans-Serif" font-size="10.00">ccf/ds/json_schema.h</text>
</a>
</g>
</g>
<!-- Node6&#45;&gt;Node10 -->
<g id="edge9" class="edge">
<title>Node6&#45;&gt;Node10</title>
<path fill="none" stroke="midnightblue" d="M489.97,-168.08C492.38,-160.85 495.86,-150.41 498.87,-141.4"/>
<polygon fill="midnightblue" stroke="midnightblue" points="502.24,-142.34 502.08,-131.75 495.6,-140.13 502.24,-142.34"/>
</g>
<!-- Node6&#45;&gt;Node17 -->
<g id="edge20" class="edge">
<title>Node6&#45;&gt;Node17</title>
<path fill="none" stroke="midnightblue" d="M448.43,-169.26C406.77,-160.41 343.6,-145.41 323,-132 304.38,-119.88 289.13,-99.11 279.85,-84.32"/>
<polygon fill="midnightblue" stroke="midnightblue" points="282.77,-82.39 274.63,-75.61 276.76,-85.98 282.77,-82.39"/>
</g>
<!-- Node19 -->
<g id="node19" class="node">
<title>Node19</title>
<g id="a_node19"><a xlink:title=" ">
<polygon fill="white" stroke="#bfbfbf" points="332,-112.5 332,-131.5 388,-131.5 388,-112.5 332,-112.5"/>
<text text-anchor="middle" x="360" y="-119.5" font-family="Helvetica,sans-Serif" font-size="10.00">sstream</text>
</a>
</g>
</g>
<!-- Node6&#45;&gt;Node19 -->
<g id="edge21" class="edge">
<title>Node6&#45;&gt;Node19</title>
<path fill="none" stroke="midnightblue" d="M466.88,-168.44C445.98,-159.56 413.07,-145.56 389.28,-135.45"/>
<polygon fill="midnightblue" stroke="midnightblue" points="390.6,-132.21 380.03,-131.52 387.86,-138.65 390.6,-132.21"/>
</g>
<!-- Node7&#45;&gt;Node8 -->
<g id="edge7" class="edge">
<title>Node7&#45;&gt;Node8</title>
<path fill="none" stroke="midnightblue" d="M563.99,-57.13C560.95,-56.74 557.94,-56.36 555,-56 409.96,-38.23 236.38,-20.99 165.53,-14.12"/>
<polygon fill="midnightblue" stroke="midnightblue" points="165.74,-10.62 155.45,-13.14 165.06,-17.59 165.74,-10.62"/>
</g>
<!-- Node7&#45;&gt;Node9 -->
<g id="edge8" class="edge">
<title>Node7&#45;&gt;Node9</title>
<path fill="none" stroke="midnightblue" d="M659.14,-56.44C707.22,-45.93 787.98,-28.28 833.38,-18.35"/>
<polygon fill="midnightblue" stroke="midnightblue" points="834.3,-21.73 843.32,-16.18 832.8,-14.89 834.3,-21.73"/>
</g>
<!-- Node11 -->
<g id="node11" class="node">
<title>Node11</title>
<g id="a_node11"><a xlink:href="nonstd_8h.html" target="_top" xlink:title=" ">
<polygon fill="white" stroke="black" points="456,-56.5 456,-75.5 546,-75.5 546,-56.5 456,-56.5"/>
<text text-anchor="middle" x="501" y="-63.5" font-family="Helvetica,sans-Serif" font-size="10.00">ccf/ds/nonstd.h</text>
</a>
</g>
</g>
<!-- Node10&#45;&gt;Node11 -->
<g id="edge10" class="edge">
<title>Node10&#45;&gt;Node11</title>
<path fill="none" stroke="midnightblue" d="M504.34,-112.08C503.82,-105.01 503.06,-94.86 502.41,-85.99"/>
<polygon fill="midnightblue" stroke="midnightblue" points="505.88,-85.47 501.65,-75.75 498.9,-85.98 505.88,-85.47"/>
</g>
<!-- Node10&#45;&gt;Node17 -->
<g id="edge18" class="edge">
<title>Node10&#45;&gt;Node17</title>
<path fill="none" stroke="midnightblue" d="M467.76,-112.44C426.94,-103.06 361.36,-87.99 317.02,-77.8"/>
<polygon fill="midnightblue" stroke="midnightblue" points="317.59,-74.34 307.06,-75.52 316.02,-81.17 317.59,-74.34"/>
</g>
<!-- Node18 -->
<g id="node18" class="node">
<title>Node18</title>
<g id="a_node18"><a xlink:title=" ">
<polygon fill="white" stroke="#bfbfbf" points="328,-56.5 328,-75.5 438,-75.5 438,-56.5 328,-56.5"/>
<text text-anchor="middle" x="383" y="-63.5" font-family="Helvetica,sans-Serif" font-size="10.00">nlohmann/json.hpp</text>
</a>
</g>
</g>
<!-- Node10&#45;&gt;Node18 -->
<g id="edge19" class="edge">
<title>Node10&#45;&gt;Node18</title>
<path fill="none" stroke="midnightblue" d="M485.67,-112.44C465.68,-103.6 434.26,-89.69 411.44,-79.59"/>
<polygon fill="midnightblue" stroke="midnightblue" points="412.8,-76.36 402.24,-75.52 409.97,-82.76 412.8,-76.36"/>
</g>
<!-- Node11&#45;&gt;Node8 -->
<g id="edge14" class="edge">
<title>Node11&#45;&gt;Node8</title>
<path fill="none" stroke="midnightblue" d="M455.93,-57.41C452.91,-56.93 449.91,-56.45 447,-56 344.24,-40.07 222.23,-23.16 165.28,-15.38"/>
<polygon fill="midnightblue" stroke="midnightblue" points="165.49,-11.87 155.11,-13.99 164.54,-18.81 165.49,-11.87"/>
</g>
<!-- Node11&#45;&gt;Node9 -->
<g id="edge17" class="edge">
<title>Node11&#45;&gt;Node9</title>
<path fill="none" stroke="midnightblue" d="M546.07,-57.41C549.09,-56.93 552.09,-56.45 555,-56 656.31,-40.25 776.43,-23.45 833.57,-15.58"/>
<polygon fill="midnightblue" stroke="midnightblue" points="834.06,-19.04 843.49,-14.21 833.11,-12.11 834.06,-19.04"/>
</g>
<!-- Node12 -->
<g id="node12" class="node">
<title>Node12</title>
<g id="a_node12"><a xlink:title=" ">
<polygon fill="white" stroke="#bfbfbf" points="352,-0.5 352,-19.5 416,-19.5 416,-0.5 352,-0.5"/>
<text text-anchor="middle" x="384" y="-7.5" font-family="Helvetica,sans-Serif" font-size="10.00">algorithm</text>
</a>
</g>
</g>
<!-- Node11&#45;&gt;Node12 -->
<g id="edge11" class="edge">
<title>Node11&#45;&gt;Node12</title>
<path fill="none" stroke="midnightblue" d="M482.46,-56.44C463.38,-47.64 433.43,-33.81 411.56,-23.72"/>
<polygon fill="midnightblue" stroke="midnightblue" points="413,-20.53 402.45,-19.52 410.07,-26.88 413,-20.53"/>
</g>
<!-- Node13 -->
<g id="node13" class="node">
<title>Node13</title>
<g id="a_node13"><a xlink:title=" ">
<polygon fill="white" stroke="#bfbfbf" points="434,-0.5 434,-19.5 476,-19.5 476,-0.5 434,-0.5"/>
<text text-anchor="middle" x="455" y="-7.5" font-family="Helvetica,sans-Serif" font-size="10.00">array</text>
</a>
</g>
</g>
<!-- Node11&#45;&gt;Node13 -->
<g id="edge12" class="edge">
<title>Node11&#45;&gt;Node13</title>
<path fill="none" stroke="midnightblue" d="M493.4,-56.08C486.77,-48.3 476.98,-36.8 468.94,-27.37"/>
<polygon fill="midnightblue" stroke="midnightblue" points="471.6,-25.09 462.45,-19.75 466.27,-29.63 471.6,-25.09"/>
</g>
<!-- Node14 -->
<g id="node14" class="node">
<title>Node14</title>
<g id="a_node14"><a xlink:title=" ">
<polygon fill="white" stroke="#bfbfbf" points="494.5,-0.5 494.5,-19.5 543.5,-19.5 543.5,-0.5 494.5,-0.5"/>
<text text-anchor="middle" x="519" y="-7.5" font-family="Helvetica,sans-Serif" font-size="10.00">cctype</text>
</a>
</g>
</g>
<!-- Node11&#45;&gt;Node14 -->
<g id="edge13" class="edge">
<title>Node11&#45;&gt;Node14</title>
<path fill="none" stroke="midnightblue" d="M503.97,-56.08C506.38,-48.85 509.86,-38.41 512.87,-29.4"/>
<polygon fill="midnightblue" stroke="midnightblue" points="516.24,-30.34 516.08,-19.75 509.6,-28.13 516.24,-30.34"/>
</g>
<!-- Node15 -->
<g id="node15" class="node">
<title>Node15</title>
<g id="a_node15"><a xlink:title=" ">
<polygon fill="white" stroke="#bfbfbf" points="658.5,-0.5 658.5,-19.5 731.5,-19.5 731.5,-0.5 658.5,-0.5"/>
<text text-anchor="middle" x="695" y="-7.5" font-family="Helvetica,sans-Serif" font-size="10.00">string_view</text>
</a>
</g>
</g>
<!-- Node11&#45;&gt;Node15 -->
<g id="edge15" class="edge">
<title>Node11&#45;&gt;Node15</title>
<path fill="none" stroke="midnightblue" d="M531.74,-56.44C564.94,-47.2 617.99,-32.44 654.56,-22.26"/>
<polygon fill="midnightblue" stroke="midnightblue" points="655.71,-25.57 664.4,-19.52 653.83,-18.83 655.71,-25.57"/>
</g>
<!-- Node16 -->
<g id="node16" class="node">
<title>Node16</title>
<g id="a_node16"><a xlink:title=" ">
<polygon fill="white" stroke="#bfbfbf" points="561.5,-0.5 561.5,-19.5 630.5,-19.5 630.5,-0.5 561.5,-0.5"/>
<text text-anchor="middle" x="596" y="-7.5" font-family="Helvetica,sans-Serif" font-size="10.00">type_traits</text>
</a>
</g>
</g>
<!-- Node11&#45;&gt;Node16 -->
<g id="edge16" class="edge">
<title>Node11&#45;&gt;Node16</title>
<path fill="none" stroke="midnightblue" d="M516.26,-56.32C531.22,-47.82 554.25,-34.73 571.73,-24.8"/>
<polygon fill="midnightblue" stroke="midnightblue" points="573.81,-27.64 580.77,-19.65 570.35,-21.55 573.81,-27.64"/>
</g>
<!-- Node20&#45;&gt;Node17 -->
<g id="edge23" class="edge">
<title>Node20&#45;&gt;Node17</title>
<path fill="none" stroke="midnightblue" d="M340.14,-168.36C324.1,-160.96 302.94,-148.83 290,-132 279.67,-118.56 274.63,-99.74 272.2,-85.81"/>
<polygon fill="midnightblue" stroke="midnightblue" points="275.66,-85.28 270.76,-75.88 268.74,-86.28 275.66,-85.28"/>
</g>
<!-- Node22&#45;&gt;Node6 -->
<g id="edge29" class="edge">
<title>Node22&#45;&gt;Node6</title>
<path fill="none" stroke="midnightblue" d="M1042.94,-280.45C1005.08,-271.45 943.83,-256.84 891,-244 854.97,-235.24 846.41,-231.01 810,-224 713.62,-205.44 599.66,-191.38 536.13,-184.24"/>
<polygon fill="midnightblue" stroke="midnightblue" points="536.32,-180.74 526,-183.11 535.55,-187.7 536.32,-180.74"/>
</g>
<!-- Node22&#45;&gt;Node9 -->
<g id="edge35" class="edge">
<title>Node22&#45;&gt;Node9</title>
<path fill="none" stroke="midnightblue" d="M1071.17,-280.3C1063.76,-271.65 1052.78,-257.73 1046,-244 1032.68,-217.01 1027,-209.1 1027,-179 1027,-179 1027,-179 1027,-121 1027,-60.07 947.25,-30.35 900.36,-18.13"/>
<polygon fill="midnightblue" stroke="midnightblue" points="901.16,-14.73 890.61,-15.72 899.48,-21.52 901.16,-14.73"/>
</g>
<!-- Node22&#45;&gt;Node15 -->
<g id="edge34" class="edge">
<title>Node22&#45;&gt;Node15</title>
<path fill="none" stroke="midnightblue" d="M1029.95,-281.26C998.35,-274.73 957.29,-263.27 925,-244 824.96,-184.29 737.68,-70.84 706.85,-27.97"/>
<polygon fill="midnightblue" stroke="midnightblue" points="709.64,-25.85 701,-19.73 703.93,-29.9 709.64,-25.85"/>
</g>
<!-- Node23 -->
<g id="node23" class="node">
<title>Node23</title>
<g id="a_node23"><a xlink:title=" ">
<polygon fill="white" stroke="#bfbfbf" points="1189,-224.5 1189,-243.5 1239,-243.5 1239,-224.5 1189,-224.5"/>
<text text-anchor="middle" x="1214" y="-231.5" font-family="Helvetica,sans-Serif" font-size="10.00">cstring</text>
</a>
</g>
</g>
<!-- Node22&#45;&gt;Node23 -->
<g id="edge30" class="edge">
<title>Node22&#45;&gt;Node23</title>
<path fill="none" stroke="midnightblue" d="M1100.39,-280.44C1122.71,-271.52 1157.9,-257.44 1183.21,-247.32"/>
<polygon fill="midnightblue" stroke="midnightblue" points="1184.72,-250.48 1192.71,-243.52 1182.12,-243.98 1184.72,-250.48"/>
</g>
<!-- Node24 -->
<g id="node24" class="node">
<title>Node24</title>
<g id="a_node24"><a xlink:title=" ">
<polygon fill="white" stroke="#bfbfbf" points="933.5,-224.5 933.5,-243.5 998.5,-243.5 998.5,-224.5 933.5,-224.5"/>
<text text-anchor="middle" x="966" y="-231.5" font-family="Helvetica,sans-Serif" font-size="10.00">exception</text>
</a>
</g>
</g>
<!-- Node22&#45;&gt;Node24 -->
<g id="edge31" class="edge">
<title>Node22&#45;&gt;Node24</title>
<path fill="none" stroke="midnightblue" d="M1061.09,-280.44C1042.75,-271.68 1013.99,-257.94 992.91,-247.86"/>
<polygon fill="midnightblue" stroke="midnightblue" points="994.35,-244.67 983.82,-243.52 991.33,-250.99 994.35,-244.67"/>
</g>
<!-- Node25 -->
<g id="node25" class="node">
<title>Node25</title>
<g id="a_node25"><a xlink:title=" ">
<polygon fill="white" stroke="#bfbfbf" points="1113,-224.5 1113,-243.5 1171,-243.5 1171,-224.5 1113,-224.5"/>
<text text-anchor="middle" x="1142" y="-231.5" font-family="Helvetica,sans-Serif" font-size="10.00">memory</text>
</a>
</g>
</g>
<!-- Node22&#45;&gt;Node25 -->
<g id="edge32" class="edge">
<title>Node22&#45;&gt;Node25</title>
<path fill="none" stroke="midnightblue" d="M1089.12,-280.32C1098.53,-272.26 1112.74,-260.08 1124.07,-250.37"/>
<polygon fill="midnightblue" stroke="midnightblue" points="1126.38,-253 1131.69,-243.83 1121.82,-247.68 1126.38,-253"/>
</g>
<!-- Node26 -->
<g id="node26" class="node">
<title>Node26</title>
<g id="a_node26"><a xlink:title=" ">
<polygon fill="white" stroke="#bfbfbf" points="1055,-224.5 1055,-243.5 1095,-243.5 1095,-224.5 1055,-224.5"/>
<text text-anchor="middle" x="1075" y="-231.5" font-family="Helvetica,sans-Serif" font-size="10.00">span</text>
</a>
</g>
</g>
<!-- Node22&#45;&gt;Node26 -->
<g id="edge33" class="edge">
<title>Node22&#45;&gt;Node26</title>
<path fill="none" stroke="midnightblue" d="M1078.34,-280.08C1077.82,-273.01 1077.06,-262.86 1076.41,-253.99"/>
<polygon fill="midnightblue" stroke="midnightblue" points="1079.88,-253.47 1075.65,-243.75 1072.9,-253.98 1079.88,-253.47"/>
</g>
<!-- Node27&#45;&gt;Node4 -->
<g id="edge37" class="edge">
<title>Node27&#45;&gt;Node4</title>
<path fill="none" stroke="midnightblue" d="M644.47,-341.98C600.45,-331.42 525.41,-313.41 477.3,-301.87"/>
<polygon fill="midnightblue" stroke="midnightblue" points="478.01,-298.44 467.47,-299.51 476.37,-305.25 478.01,-298.44"/>
</g>
<!-- Node27&#45;&gt;Node8 -->
<g id="edge49" class="edge">
<title>Node27&#45;&gt;Node8</title>
<path fill="none" stroke="midnightblue" d="M616.22,-344.96C460.96,-330.61 76,-289.55 76,-235 76,-235 76,-235 76,-121 76,-84.3 101.32,-47.66 118.21,-27.3"/>
<polygon fill="midnightblue" stroke="midnightblue" points="120.95,-29.48 124.83,-19.62 115.65,-24.9 120.95,-29.48"/>
</g>
<!-- Node27&#45;&gt;Node9 -->
<g id="edge50" class="edge">
<title>Node27&#45;&gt;Node9</title>
<path fill="none" stroke="midnightblue" d="M657.64,-341.91C640.33,-333.92 617.59,-320.2 607,-300 602.87,-292.13 604.24,-288.45 607,-280 626.17,-221.36 642.45,-208.49 689,-168 714.5,-145.81 729.31,-152.75 756,-132 777.42,-115.35 828.34,-56.59 853.06,-27.52"/>
<polygon fill="midnightblue" stroke="midnightblue" points="856.03,-29.43 859.83,-19.54 850.69,-24.9 856.03,-29.43"/>
</g>
<!-- Node27&#45;&gt;Node22 -->
<g id="edge41" class="edge">
<title>Node27&#45;&gt;Node22</title>
<path fill="none" stroke="midnightblue" d="M737.17,-341.98C812.34,-330.77 943.76,-311.17 1019.88,-299.82"/>
<polygon fill="midnightblue" stroke="midnightblue" points="1020.42,-303.27 1029.79,-298.34 1019.39,-296.35 1020.42,-303.27"/>
</g>
<!-- Node28 -->
<g id="node28" class="node">
<title>Node28</title>
<g id="a_node28"><a xlink:href="hash__bytes_8h.html" target="_top" xlink:title=" ">
<polygon fill="white" stroke="black" points="616,-280.5 616,-299.5 748,-299.5 748,-280.5 616,-280.5"/>
<text text-anchor="middle" x="682" y="-287.5" font-family="Helvetica,sans-Serif" font-size="10.00">ccf/crypto/hash_bytes.h</text>
</a>
</g>
</g>
<!-- Node27&#45;&gt;Node28 -->
<g id="edge38" class="edge">
<title>Node27&#45;&gt;Node28</title>
<path fill="none" stroke="midnightblue" d="M680.29,-341.98C680.57,-333.58 681.01,-320.48 681.37,-309.66"/>
<polygon fill="midnightblue" stroke="midnightblue" points="684.88,-309.62 681.71,-299.51 677.88,-309.39 684.88,-309.62"/>
</g>
<!-- Node27&#45;&gt;Node29 -->
<g id="edge47" class="edge">
<title>Node27&#45;&gt;Node29</title>
<path fill="none" stroke="midnightblue" d="M700.64,-341.94C718.11,-333.67 742.54,-319.53 757,-300 766.95,-286.57 771.71,-268 773.97,-254.15"/>
<polygon fill="midnightblue" stroke="midnightblue" points="777.49,-254.22 775.35,-243.84 770.56,-253.29 777.49,-254.22"/>
</g>
<!-- Node27&#45;&gt;Node30 -->
<g id="edge42" class="edge">
<title>Node27&#45;&gt;Node30</title>
<path fill="none" stroke="midnightblue" d="M616.33,-345.46C552.98,-339.21 453.56,-326.02 371,-300 329.9,-287.05 285.46,-263.64 259.22,-248.73"/>
<polygon fill="midnightblue" stroke="midnightblue" points="260.82,-245.62 250.41,-243.66 257.33,-251.68 260.82,-245.62"/>
</g>
<!-- Node27&#45;&gt;Node31 -->
<g id="edge48" class="edge">
<title>Node27&#45;&gt;Node31</title>
<path fill="none" stroke="midnightblue" d="M712.67,-341.98C754.25,-331.12 825.95,-312.41 869.96,-300.93"/>
<polygon fill="midnightblue" stroke="midnightblue" points="870.91,-304.3 879.71,-298.38 869.15,-297.52 870.91,-304.3"/>
</g>
<!-- Node28&#45;&gt;Node9 -->
<g id="edge40" class="edge">
<title>Node28&#45;&gt;Node9</title>
<path fill="none" stroke="midnightblue" d="M674.23,-280.27C663.84,-267.49 647.85,-243.13 658,-224 692.22,-159.54 743.76,-184.92 794,-132 824,-100.4 847.52,-54.4 859.1,-29.19"/>
<polygon fill="midnightblue" stroke="midnightblue" points="862.43,-30.32 863.32,-19.77 856.04,-27.46 862.43,-30.32"/>
</g>
<!-- Node28&#45;&gt;Node29 -->
<g id="edge39" class="edge">
<title>Node28&#45;&gt;Node29</title>
<path fill="none" stroke="midnightblue" d="M697.1,-280.32C711.9,-271.82 734.69,-258.73 751.98,-248.8"/>
<polygon fill="midnightblue" stroke="midnightblue" points="754.01,-251.67 760.93,-243.65 750.52,-245.6 754.01,-251.67"/>
</g>
<!-- Node30&#45;&gt;Node6 -->
<g id="edge43" class="edge">
<title>Node30&#45;&gt;Node6</title>
<path fill="none" stroke="midnightblue" d="M275.77,-224.44C319.82,-214.97 390.84,-199.69 438.21,-189.5"/>
<polygon fill="midnightblue" stroke="midnightblue" points="439.2,-192.86 448.24,-187.34 437.73,-186.02 439.2,-192.86"/>
</g>
<!-- Node30&#45;&gt;Node8 -->
<g id="edge46" class="edge">
<title>Node30&#45;&gt;Node8</title>
<path fill="none" stroke="midnightblue" d="M233.4,-224.17C225.41,-197.7 199.71,-117.03 166,-56 160.5,-46.04 153.09,-35.74 146.69,-27.51"/>
<polygon fill="midnightblue" stroke="midnightblue" points="149.27,-25.13 140.28,-19.51 143.8,-29.51 149.27,-25.13"/>
</g>
<!-- Node30&#45;&gt;Node11 -->
<g id="edge44" class="edge">
<title>Node30&#45;&gt;Node11</title>
<path fill="none" stroke="midnightblue" d="M239.67,-224.49C246.36,-210.12 262,-181.3 285,-168 341.02,-135.6 531.16,-180.51 574,-132 591.69,-111.98 560.01,-92 533,-79.58"/>
<polygon fill="midnightblue" stroke="midnightblue" points="534.29,-76.33 523.72,-75.52 531.48,-82.74 534.29,-76.33"/>
</g>
<!-- Node30&#45;&gt;Node17 -->
<g id="edge45" class="edge">
<title>Node30&#45;&gt;Node17</title>
<path fill="none" stroke="midnightblue" d="M237.83,-224.08C243.18,-197.95 258.9,-121.21 266.2,-85.58"/>
<polygon fill="midnightblue" stroke="midnightblue" points="269.67,-86.07 268.25,-75.57 262.81,-84.66 269.67,-86.07"/>
</g>
<!-- Node32&#45;&gt;Node8 -->
<g id="edge61" class="edge">
<title>Node32&#45;&gt;Node8</title>
<path fill="none" stroke="midnightblue" d="M914.32,-346.16C773.4,-335.65 423.62,-309.05 371,-300 274.53,-283.4 237.87,-300.59 158,-244 129.53,-223.83 114,-213.89 114,-179 114,-179 114,-179 114,-121 114,-88.49 122.16,-51.35 127.78,-29.61"/>
<polygon fill="midnightblue" stroke="midnightblue" points="131.22,-30.32 130.44,-19.75 124.46,-28.5 131.22,-30.32"/>
</g>
<!-- Node32&#45;&gt;Node9 -->
<g id="edge62" class="edge">
<title>Node32&#45;&gt;Node9</title>
<path fill="none" stroke="midnightblue" d="M1031.55,-347.1C1099.21,-341.94 1213.27,-329.39 1307,-300 1369.4,-280.44 1439,-300.39 1439,-235 1439,-235 1439,-235 1439,-121 1439,-76.55 1403.96,-73.27 1363,-56 1279.2,-20.67 998.2,-13.02 900.68,-11.41"/>
<polygon fill="midnightblue" stroke="midnightblue" points="900.56,-7.91 890.5,-11.26 900.45,-14.91 900.56,-7.91"/>
</g>
<!-- Node32&#45;&gt;Node22 -->
<g id="edge58" class="edge">
<title>Node32&#45;&gt;Node22</title>
<path fill="none" stroke="midnightblue" d="M998.12,-336.4C1015.27,-326.77 1037.86,-314.09 1054.81,-304.58"/>
<polygon fill="midnightblue" stroke="midnightblue" points="1056.57,-307.6 1063.58,-299.66 1053.14,-301.5 1056.57,-307.6"/>
</g>
<!-- Node32&#45;&gt;Node29 -->
<g id="edge59" class="edge">
<title>Node32&#45;&gt;Node29</title>
<path fill="none" stroke="midnightblue" d="M971.21,-336.45C968.43,-320.47 961.54,-294.7 945,-280 939.91,-275.48 859.01,-255.21 811.02,-243.47"/>
<polygon fill="midnightblue" stroke="midnightblue" points="811.57,-240.01 801.03,-241.04 809.91,-246.81 811.57,-240.01"/>
</g>
<!-- Node32&#45;&gt;Node31 -->
<g id="edge60" class="edge">
<title>Node32&#45;&gt;Node31</title>
<path fill="none" stroke="midnightblue" d="M957.6,-336.4C947.76,-327.4 935.01,-315.72 924.89,-306.47"/>
<polygon fill="midnightblue" stroke="midnightblue" points="927.2,-303.83 917.46,-299.66 922.47,-308.99 927.2,-303.83"/>
</g>
<!-- Node33&#45;&gt;Node9 -->
<g id="edge77" class="edge">
<title>Node33&#45;&gt;Node9</title>
<path fill="none" stroke="midnightblue" d="M1301.16,-346.63C1371.08,-338.48 1477,-313.23 1477,-235 1477,-235 1477,-235 1477,-121 1477,-76.55 1442.01,-73.14 1401,-56 1310.01,-17.98 1003.52,-12.07 900.84,-11.16"/>
<polygon fill="midnightblue" stroke="midnightblue" points="900.75,-7.66 890.73,-11.08 900.7,-14.66 900.75,-7.66"/>
</g>
<!-- Node33&#45;&gt;Node26 -->
<g id="edge76" class="edge">
<title>Node33&#45;&gt;Node26</title>
<path fill="none" stroke="midnightblue" d="M1220.65,-336.34C1188.97,-314.3 1128.19,-272.01 1096.08,-249.66"/>
<polygon fill="midnightblue" stroke="midnightblue" points="1097.67,-246.51 1087.46,-243.67 1093.67,-252.25 1097.67,-246.51"/>
</g>
<!-- Node34 -->
<g id="node34" class="node">
<title>Node34</title>
<g id="a_node34"><a xlink:href="include_2ccf_2crypto_2entropy_8h.html" target="_top" xlink:title=" ">
<polygon fill="white" stroke="black" points="1184.5,-280.5 1184.5,-299.5 1297.5,-299.5 1297.5,-280.5 1184.5,-280.5"/>
<text text-anchor="middle" x="1241" y="-287.5" font-family="Helvetica,sans-Serif" font-size="10.00">ccf/crypto/entropy.h</text>
</a>
</g>
</g>
<!-- Node33&#45;&gt;Node34 -->
<g id="edge68" class="edge">
<title>Node33&#45;&gt;Node34</title>
<path fill="none" stroke="midnightblue" d="M1241,-336.4C1241,-328.47 1241,-318.46 1241,-309.86"/>
<polygon fill="midnightblue" stroke="midnightblue" points="1244.5,-309.66 1241,-299.66 1237.5,-309.66 1244.5,-309.66"/>
</g>
<!-- Node34&#45;&gt;Node9 -->
<g id="edge75" class="edge">
<title>Node34&#45;&gt;Node9</title>
<path fill="none" stroke="midnightblue" d="M1297.76,-283.5C1326.52,-277.89 1359.93,-266.62 1382,-244 1403.02,-222.46 1401,-209.1 1401,-179 1401,-179 1401,-179 1401,-121 1401,-18.43 1018.25,-10.69 900.84,-10.73"/>
<polygon fill="midnightblue" stroke="midnightblue" points="900.63,-7.23 890.63,-10.75 900.64,-14.23 900.63,-7.23"/>
</g>
<!-- Node34&#45;&gt;Node21 -->
<g id="edge73" class="edge">
<title>Node34&#45;&gt;Node21</title>
<path fill="none" stroke="midnightblue" d="M1184.32,-284.07C1067.04,-273.86 804.17,-250.83 743.17,-243.77"/>
<polygon fill="midnightblue" stroke="midnightblue" points="743.31,-240.26 732.95,-242.45 742.42,-247.2 743.31,-240.26"/>
</g>
<!-- Node34&#45;&gt;Node23 -->
<g id="edge71" class="edge">
<title>Node34&#45;&gt;Node23</title>
<path fill="none" stroke="midnightblue" d="M1236.54,-280.08C1232.85,-272.69 1227.48,-261.95 1222.91,-252.81"/>
<polygon fill="midnightblue" stroke="midnightblue" points="1225.98,-251.13 1218.38,-243.75 1219.72,-254.26 1225.98,-251.13"/>
</g>
<!-- Node34&#45;&gt;Node25 -->
<g id="edge72" class="edge">
<title>Node34&#45;&gt;Node25</title>
<path fill="none" stroke="midnightblue" d="M1225.09,-280.32C1209.36,-271.74 1185.06,-258.49 1166.79,-248.52"/>
<polygon fill="midnightblue" stroke="midnightblue" points="1168.32,-245.37 1157.87,-243.65 1164.97,-251.52 1168.32,-245.37"/>
</g>
<!-- Node34&#45;&gt;Node29 -->
<g id="edge70" class="edge">
<title>Node34&#45;&gt;Node29</title>
<path fill="none" stroke="midnightblue" d="M1184.45,-282.43C1087.27,-271.15 891.36,-248.4 811.3,-239.1"/>
<polygon fill="midnightblue" stroke="midnightblue" points="811.57,-235.61 801.24,-237.93 810.76,-242.56 811.57,-235.61"/>
</g>
<!-- Node35 -->
<g id="node35" class="node">
<title>Node35</title>
<g id="a_node35"><a xlink:title=" ">
<polygon fill="white" stroke="#bfbfbf" points="1321,-224.5 1321,-243.5 1373,-243.5 1373,-224.5 1321,-224.5"/>
<text text-anchor="middle" x="1347" y="-231.5" font-family="Helvetica,sans-Serif" font-size="10.00">cassert</text>
</a>
</g>
</g>
<!-- Node34&#45;&gt;Node35 -->
<g id="edge69" class="edge">
<title>Node34&#45;&gt;Node35</title>
<path fill="none" stroke="midnightblue" d="M1258.03,-280.32C1275.03,-271.66 1301.38,-258.24 1320.99,-248.25"/>
<polygon fill="midnightblue" stroke="midnightblue" points="1322.69,-251.31 1330.01,-243.65 1319.51,-245.08 1322.69,-251.31"/>
</g>
<!-- Node36 -->
<g id="node36" class="node">
<title>Node36</title>
<g id="a_node36"><a xlink:title=" ">
<polygon fill="white" stroke="#bfbfbf" points="1257.5,-224.5 1257.5,-243.5 1302.5,-243.5 1302.5,-224.5 1257.5,-224.5"/>
<text text-anchor="middle" x="1280" y="-231.5" font-family="Helvetica,sans-Serif" font-size="10.00">utility</text>
</a>
</g>
</g>
<!-- Node34&#45;&gt;Node36 -->
<g id="edge74" class="edge">
<title>Node34&#45;&gt;Node36</title>
<path fill="none" stroke="midnightblue" d="M1247.44,-280.08C1252.95,-272.46 1261.03,-261.26 1267.76,-251.94"/>
<polygon fill="midnightblue" stroke="midnightblue" points="1270.66,-253.91 1273.68,-243.75 1264.99,-249.81 1270.66,-253.91"/>
</g>
</g>
</svg>
        <g id="navigator" transform="translate(0 0)" fill="#404254">
                <rect fill="#f2f5e9" fill-opacity="0.5" stroke="#606060" stroke-width=".5" x="0" y="0" width="60" height="60"/>
                <use id="zoomplus" xlink:href="#zoomPlus" x="17" y="9" onmousedown="handleZoom(evt,'in')"/>
                <use id="zoomminus" xlink:href="#zoomMin" x="42" y="9" onmousedown="handleZoom(evt,'out')"/>
                <use id="reset" xlink:href="#resetDef" x="30" y="36" onmousedown="handleReset()"/>
                <g id="arrowUp" xlink:href="#dirArrow" transform="translate(30 24)" onmousedown="handlePan(0,-1)">
                  <use xlink:href="#rim" fill="#404040">
                        <set attributeName="fill" to="#808080" begin="arrowUp.mouseover" end="arrowUp.mouseout"/>
                  </use>
                  <path fill="none" stroke="white" stroke-width="1.5" d="M0,-3.0v7 M-2.5,-0.5L0,-3.0L2.5,-0.5"/>
                </g>
                <g id="arrowRight" xlink:href="#dirArrow" transform="rotate(90) translate(36 -43)" onmousedown="handlePan(1,0)">
                  <use xlink:href="#rim" fill="#404040">
                        <set attributeName="fill" to="#808080" begin="arrowRight.mouseover" end="arrowRight.mouseout"/>
                  </use>
                  <path fill="none" stroke="white" stroke-width="1.5" d="M0,-3.0v7 M-2.5,-0.5L0,-3.0L2.5,-0.5"/>
                </g>
                <g id="arrowDown" xlink:href="#dirArrow" transform="rotate(180) translate(-30 -48)" onmousedown="handlePan(0,1)">
                  <use xlink:href="#rim" fill="#404040">
                        <set attributeName="fill" to="#808080" begin="arrowDown.mouseover" end="arrowDown.mouseout"/>
                  </use>
                  <path fill="none" stroke="white" stroke-width="1.5" d="M0,-3.0v7 M-2.5,-0.5L0,-3.0L2.5,-0.5"/>
                </g>
                <g id="arrowLeft" xlink:href="#dirArrow" transform="rotate(270) translate(-36 17)" onmousedown="handlePan(-1,0)">
                  <use xlink:href="#rim" fill="#404040">
                        <set attributeName="fill" to="#808080" begin="arrowLeft.mouseover" end="arrowLeft.mouseout"/>
                  </use>
                  <path fill="none" stroke="white" stroke-width="1.5" d="M0,-3.0v7 M-2.5,-0.5L0,-3.0L2.5,-0.5"/>
                </g>
        </g>
        <svg viewBox="0 0 15 15" width="100%" height="30px" preserveAspectRatio="xMaxYMin meet">
         <g id="arrow_out" transform="scale(0.3 0.3)">
          <a xlink:href="key__wrap_8h__incl_org.svg" target="_base">
           <rect id="button" ry="5" rx="5" y="6" x="6" height="38" width="38"
                fill="#f2f5e9" fill-opacity="0.5" stroke="#606060" stroke-width="1.0"/>
           <path id="arrow"
             d="M 11.500037,31.436501 C 11.940474,20.09759 22.043105,11.32322 32.158766,21.979434 L 37.068811,17.246167 C 37.068811,17.246167 37.088388,32 37.088388,32 L 22.160133,31.978069 C 22.160133,31.978069 26.997745,27.140456 26.997745,27.140456 C 18.528582,18.264221 13.291696,25.230495 11.500037,31.436501 z"
             style="fill:#404040;"/>
          </a>
         </g>
        </svg>
</svg>
