<?xml version="1.0" encoding="UTF-8" standalone="no"?>
<!DOCTYPE svg PUBLIC "-//W3C//DTD SVG 1.1//EN"
 "http://www.w3.org/Graphics/SVG/1.1/DTD/svg11.dtd">
<!-- Generated by graphviz version 2.43.0 (0)
 -->
<!-- Title: src/host/load_monitor.h Pages: 1 -->
<!--zoomable 364 -->
<svg id="main" version="1.1" xmlns="http://www.w3.org/2000/svg" xmlns:xlink="http://www.w3.org/1999/xlink" xml:space="preserve" onload="init(evt)">
<style type="text/css"><![CDATA[
.edge:hover path { stroke: red; }
.edge:hover polygon { stroke: red; fill: red; }
]]></style>
<script type="text/javascript"><![CDATA[
var edges = document.getElementsByTagName('g');
if (edges && edges.length) {
  for (var i=0;i<edges.length;i++) {
    if (edges[i].id.substr(0,4)=='edge') {
      edges[i].setAttribute('class','edge');
    }
  }
}
]]></script>
        <defs>
                <circle id="rim" cx="0" cy="0" r="7"/>
                <circle id="rim2" cx="0" cy="0" r="3.5"/>
                <g id="zoomPlus">
                        <use xlink:href="#rim" fill="#404040">
                                <set attributeName="fill" to="#808080" begin="zoomplus.mouseover" end="zoomplus.mouseout"/>
                        </use>
                        <path d="M-4,0h8M0,-4v8" fill="none" stroke="white" stroke-width="1.5" pointer-events="none"/>
                </g>
                <g id="zoomMin">
                        <use xlink:href="#rim" fill="#404040">
                                <set attributeName="fill" to="#808080" begin="zoomminus.mouseover" end="zoomminus.mouseout"/>
                        </use>
                        <path d="M-4,0h8" fill="none" stroke="white" stroke-width="1.5" pointer-events="none"/>
                </g>
                <g id="dirArrow">
                        <path fill="none" stroke="white" stroke-width="1.5" d="M0,-3.0v7 M-2.5,-0.5L0,-3.0L2.5,-0.5"/>
                </g>
               <g id="resetDef">
                       <use xlink:href="#rim2" fill="#404040">
                               <set attributeName="fill" to="#808080" begin="reset.mouseover" end="reset.mouseout"/>
                       </use>
               </g>
        </defs>

<script type="text/javascript">
var viewWidth = 1897;
var viewHeight = 364;
var sectionId = 'dynsection-0';
</script>
<script xlink:href="svgpan.js"/>
<svg id="graph" class="graph">
<g id="viewport">
<title>src/host/load_monitor.h</title>
<polygon fill="white" stroke="transparent" points="-4,4 -4,-360 1893,-360 1893,4 -4,4"/>
<!-- Node1 -->
<g id="node1" class="node">
<title>Node1</title>
<g id="a_node1"><a xlink:title=" ">
<polygon fill="#bfbfbf" stroke="black" points="1407.5,-336.5 1407.5,-355.5 1538.5,-355.5 1538.5,-336.5 1407.5,-336.5"/>
<text text-anchor="middle" x="1473" y="-343.5" font-family="Helvetica,sans-Serif" font-size="10.00">src/host/load_monitor.h</text>
</a>
</g>
</g>
<!-- Node2 -->
<g id="node2" class="node">
<title>Node2</title>
<g id="a_node2"><a xlink:href="messaging_8h.html" target="_top" xlink:title=" ">
<polygon fill="white" stroke="black" points="1074.5,-280.5 1074.5,-299.5 1167.5,-299.5 1167.5,-280.5 1074.5,-280.5"/>
<text text-anchor="middle" x="1121" y="-287.5" font-family="Helvetica,sans-Serif" font-size="10.00">ds/messaging.h</text>
</a>
</g>
</g>
<!-- Node1&#45;&gt;Node2 -->
<g id="edge1" class="edge">
<title>Node1&#45;&gt;Node2</title>
<path fill="none" stroke="midnightblue" d="M1417.22,-336.44C1351.72,-326.39 1243.64,-309.81 1177.73,-299.7"/>
<polygon fill="midnightblue" stroke="midnightblue" points="1177.94,-296.19 1167.52,-298.14 1176.88,-303.11 1177.94,-296.19"/>
</g>
<!-- Node43 -->
<g id="node43" class="node">
<title>Node43</title>
<g id="a_node43"><a xlink:href="timer_8h.html" target="_top" xlink:title=" ">
<polygon fill="white" stroke="black" points="1769.5,-280.5 1769.5,-299.5 1820.5,-299.5 1820.5,-280.5 1769.5,-280.5"/>
<text text-anchor="middle" x="1795" y="-287.5" font-family="Helvetica,sans-Serif" font-size="10.00">timer.h</text>
</a>
</g>
</g>
<!-- Node1&#45;&gt;Node43 -->
<g id="edge65" class="edge">
<title>Node1&#45;&gt;Node43</title>
<path fill="none" stroke="midnightblue" d="M1524.02,-336.44C1589.63,-325.44 1701.91,-306.61 1759.16,-297.01"/>
<polygon fill="midnightblue" stroke="midnightblue" points="1759.9,-300.44 1769.18,-295.33 1758.74,-293.53 1759.9,-300.44"/>
</g>
<!-- Node3 -->
<g id="node3" class="node">
<title>Node3</title>
<g id="a_node3"><a xlink:href="logger_8h.html" target="_top" xlink:title=" ">
<polygon fill="white" stroke="black" points="1267.5,-224.5 1267.5,-243.5 1354.5,-243.5 1354.5,-224.5 1267.5,-224.5"/>
<text text-anchor="middle" x="1311" y="-231.5" font-family="Helvetica,sans-Serif" font-size="10.00">ccf/ds/logger.h</text>
</a>
</g>
</g>
<!-- Node2&#45;&gt;Node3 -->
<g id="edge2" class="edge">
<title>Node2&#45;&gt;Node3</title>
<path fill="none" stroke="midnightblue" d="M1151.11,-280.44C1183.63,-271.2 1235.58,-256.44 1271.39,-246.26"/>
<polygon fill="midnightblue" stroke="midnightblue" points="1272.37,-249.62 1281.03,-243.52 1270.46,-242.88 1272.37,-249.62"/>
</g>
<!-- Node9 -->
<g id="node9" class="node">
<title>Node9</title>
<g id="a_node9"><a xlink:title=" ">
<polygon fill="white" stroke="#bfbfbf" points="1711,-112.5 1711,-131.5 1749,-131.5 1749,-112.5 1711,-112.5"/>
<text text-anchor="middle" x="1730" y="-119.5" font-family="Helvetica,sans-Serif" font-size="10.00">map</text>
</a>
</g>
</g>
<!-- Node2&#45;&gt;Node9 -->
<g id="edge63" class="edge">
<title>Node2&#45;&gt;Node9</title>
<path fill="none" stroke="midnightblue" d="M1167.52,-288.09C1295.04,-284.57 1645.74,-267.69 1722,-188 1733.41,-176.07 1734.45,-156.77 1733.22,-142.29"/>
<polygon fill="midnightblue" stroke="midnightblue" points="1736.63,-141.42 1731.89,-131.95 1729.69,-142.31 1736.63,-141.42"/>
</g>
<!-- Node17 -->
<g id="node17" class="node">
<title>Node17</title>
<g id="a_node17"><a xlink:href="ring__buffer_8h.html" target="_top" xlink:title=" ">
<polygon fill="white" stroke="black" points="721.5,-224.5 721.5,-243.5 798.5,-243.5 798.5,-224.5 721.5,-224.5"/>
<text text-anchor="middle" x="760" y="-231.5" font-family="Helvetica,sans-Serif" font-size="10.00">ring_buffer.h</text>
</a>
</g>
</g>
<!-- Node2&#45;&gt;Node17 -->
<g id="edge18" class="edge">
<title>Node2&#45;&gt;Node17</title>
<path fill="none" stroke="midnightblue" d="M1074.18,-282C1005.67,-271.75 878.73,-252.76 809.01,-242.33"/>
<polygon fill="midnightblue" stroke="midnightblue" points="809.15,-238.81 798.74,-240.8 808.11,-245.74 809.15,-238.81"/>
</g>
<!-- Node37 -->
<g id="node37" class="node">
<title>Node37</title>
<g id="a_node37"><a xlink:title=" ">
<polygon fill="white" stroke="#bfbfbf" points="993.5,-0.5 993.5,-19.5 1058.5,-19.5 1058.5,-0.5 993.5,-0.5"/>
<text text-anchor="middle" x="1026" y="-7.5" font-family="Helvetica,sans-Serif" font-size="10.00">stdexcept</text>
</a>
</g>
</g>
<!-- Node2&#45;&gt;Node37 -->
<g id="edge64" class="edge">
<title>Node2&#45;&gt;Node37</title>
<path fill="none" stroke="midnightblue" d="M1100.24,-280.38C1085.56,-273.06 1066.95,-261.01 1058,-244 1019.1,-170.05 1083.42,-135.6 1058,-56 1054.66,-45.54 1047.9,-35.43 1041.45,-27.45"/>
<polygon fill="midnightblue" stroke="midnightblue" points="1043.94,-24.98 1034.75,-19.71 1038.65,-29.56 1043.94,-24.98"/>
</g>
<!-- Node40 -->
<g id="node40" class="node">
<title>Node40</title>
<g id="a_node40"><a xlink:title=" ">
<polygon fill="white" stroke="#bfbfbf" points="876,-112.5 876,-131.5 926,-131.5 926,-112.5 876,-112.5"/>
<text text-anchor="middle" x="901" y="-119.5" font-family="Helvetica,sans-Serif" font-size="10.00">atomic</text>
</a>
</g>
</g>
<!-- Node2&#45;&gt;Node40 -->
<g id="edge61" class="edge">
<title>Node2&#45;&gt;Node40</title>
<path fill="none" stroke="midnightblue" d="M1078.65,-280.48C1052.47,-273.71 1019.17,-262.28 994,-244 955.2,-215.83 924.78,-167.02 910.28,-140.83"/>
<polygon fill="midnightblue" stroke="midnightblue" points="913.19,-138.84 905.37,-131.69 907.03,-142.16 913.19,-138.84"/>
</g>
<!-- Node42 -->
<g id="node42" class="node">
<title>Node42</title>
<g id="a_node42"><a xlink:title=" ">
<polygon fill="white" stroke="#bfbfbf" points="1067.5,-224.5 1067.5,-243.5 1174.5,-243.5 1174.5,-224.5 1067.5,-224.5"/>
<text text-anchor="middle" x="1121" y="-231.5" font-family="Helvetica,sans-Serif" font-size="10.00">condition_variable</text>
</a>
</g>
</g>
<!-- Node2&#45;&gt;Node42 -->
<g id="edge62" class="edge">
<title>Node2&#45;&gt;Node42</title>
<path fill="none" stroke="midnightblue" d="M1121,-280.08C1121,-273.01 1121,-262.86 1121,-253.99"/>
<polygon fill="midnightblue" stroke="midnightblue" points="1124.5,-253.75 1121,-243.75 1117.5,-253.75 1124.5,-253.75"/>
</g>
<!-- Node4 -->
<g id="node4" class="node">
<title>Node4</title>
<g id="a_node4"><a xlink:href="enum__formatter_8h.html" target="_top" xlink:title=" ">
<polygon fill="white" stroke="black" points="1074,-168.5 1074,-187.5 1210,-187.5 1210,-168.5 1074,-168.5"/>
<text text-anchor="middle" x="1142" y="-175.5" font-family="Helvetica,sans-Serif" font-size="10.00">ccf/ds/enum_formatter.h</text>
</a>
</g>
</g>
<!-- Node3&#45;&gt;Node4 -->
<g id="edge3" class="edge">
<title>Node3&#45;&gt;Node4</title>
<path fill="none" stroke="midnightblue" d="M1284.22,-224.44C1255.67,-215.32 1210.27,-200.81 1178.46,-190.65"/>
<polygon fill="midnightblue" stroke="midnightblue" points="1179.24,-187.23 1168.65,-187.52 1177.11,-193.89 1179.24,-187.23"/>
</g>
<!-- Node5 -->
<g id="node5" class="node">
<title>Node5</title>
<g id="a_node5"><a xlink:title=" ">
<polygon fill="white" stroke="#bfbfbf" points="1091.5,-112.5 1091.5,-131.5 1170.5,-131.5 1170.5,-112.5 1091.5,-112.5"/>
<text text-anchor="middle" x="1131" y="-119.5" font-family="Helvetica,sans-Serif" font-size="10.00">fmt/format.h</text>
</a>
</g>
</g>
<!-- Node3&#45;&gt;Node5 -->
<g id="edge12" class="edge">
<title>Node3&#45;&gt;Node5</title>
<path fill="none" stroke="midnightblue" d="M1267.42,-228.06C1200.27,-220.01 1077.84,-203.4 1065,-188 1048.84,-168.61 1077.3,-148.57 1101.75,-135.96"/>
<polygon fill="midnightblue" stroke="midnightblue" points="1103.38,-139.05 1110.82,-131.5 1100.3,-132.77 1103.38,-139.05"/>
</g>
<!-- Node6 -->
<g id="node6" class="node">
<title>Node6</title>
<g id="a_node6"><a xlink:href="thread__ids_8h.html" target="_top" xlink:title=" ">
<polygon fill="white" stroke="black" points="1531,-168.5 1531,-187.5 1639,-187.5 1639,-168.5 1531,-168.5"/>
<text text-anchor="middle" x="1585" y="-175.5" font-family="Helvetica,sans-Serif" font-size="10.00">ccf/ds/thread_ids.h</text>
</a>
</g>
</g>
<!-- Node3&#45;&gt;Node6 -->
<g id="edge5" class="edge">
<title>Node3&#45;&gt;Node6</title>
<path fill="none" stroke="midnightblue" d="M1354.42,-224.44C1402.52,-214.96 1480.09,-199.67 1531.81,-189.48"/>
<polygon fill="midnightblue" stroke="midnightblue" points="1532.65,-192.88 1541.79,-187.52 1531.3,-186.02 1532.65,-192.88"/>
</g>
<!-- Node11 -->
<g id="node11" class="node">
<title>Node11</title>
<g id="a_node11"><a xlink:title=" ">
<polygon fill="white" stroke="#bfbfbf" points="1228.5,-168.5 1228.5,-187.5 1307.5,-187.5 1307.5,-168.5 1228.5,-168.5"/>
<text text-anchor="middle" x="1268" y="-175.5" font-family="Helvetica,sans-Serif" font-size="10.00">fmt/chrono.h</text>
</a>
</g>
</g>
<!-- Node3&#45;&gt;Node11 -->
<g id="edge11" class="edge">
<title>Node3&#45;&gt;Node11</title>
<path fill="none" stroke="midnightblue" d="M1303.9,-224.08C1297.76,-216.38 1288.73,-205.03 1281.26,-195.65"/>
<polygon fill="midnightblue" stroke="midnightblue" points="1283.94,-193.39 1274.97,-187.75 1278.46,-197.75 1283.94,-193.39"/>
</g>
<!-- Node12 -->
<g id="node12" class="node">
<title>Node12</title>
<g id="a_node12"><a xlink:title=" ">
<polygon fill="white" stroke="#bfbfbf" points="1325,-168.5 1325,-187.5 1385,-187.5 1385,-168.5 1325,-168.5"/>
<text text-anchor="middle" x="1355" y="-175.5" font-family="Helvetica,sans-Serif" font-size="10.00">iostream</text>
</a>
</g>
</g>
<!-- Node3&#45;&gt;Node12 -->
<g id="edge13" class="edge">
<title>Node3&#45;&gt;Node12</title>
<path fill="none" stroke="midnightblue" d="M1318.27,-224.08C1324.54,-216.38 1333.79,-205.03 1341.43,-195.65"/>
<polygon fill="midnightblue" stroke="midnightblue" points="1344.27,-197.71 1347.87,-187.75 1338.84,-193.29 1344.27,-197.71"/>
</g>
<!-- Node13 -->
<g id="node13" class="node">
<title>Node13</title>
<g id="a_node13"><a xlink:title=" ">
<polygon fill="white" stroke="#bfbfbf" points="1403,-168.5 1403,-187.5 1513,-187.5 1513,-168.5 1403,-168.5"/>
<text text-anchor="middle" x="1458" y="-175.5" font-family="Helvetica,sans-Serif" font-size="10.00">nlohmann/json.hpp</text>
</a>
</g>
</g>
<!-- Node3&#45;&gt;Node13 -->
<g id="edge14" class="edge">
<title>Node3&#45;&gt;Node13</title>
<path fill="none" stroke="midnightblue" d="M1334.29,-224.44C1358.81,-215.44 1397.6,-201.19 1425.2,-191.05"/>
<polygon fill="midnightblue" stroke="midnightblue" points="1426.64,-194.25 1434.82,-187.52 1424.22,-187.68 1426.64,-194.25"/>
</g>
<!-- Node14 -->
<g id="node14" class="node">
<title>Node14</title>
<g id="a_node14"><a xlink:title=" ">
<polygon fill="white" stroke="#bfbfbf" points="944,-112.5 944,-131.5 1000,-131.5 1000,-112.5 944,-112.5"/>
<text text-anchor="middle" x="972" y="-119.5" font-family="Helvetica,sans-Serif" font-size="10.00">optional</text>
</a>
</g>
</g>
<!-- Node3&#45;&gt;Node14 -->
<g id="edge15" class="edge">
<title>Node3&#45;&gt;Node14</title>
<path fill="none" stroke="midnightblue" d="M1267.4,-231.52C1215.31,-228.37 1126.49,-218.54 1057,-188 1030.06,-176.16 1003.92,-154.09 987.9,-138.98"/>
<polygon fill="midnightblue" stroke="midnightblue" points="990.11,-136.25 980.49,-131.8 985.24,-141.28 990.11,-136.25"/>
</g>
<!-- Node15 -->
<g id="node15" class="node">
<title>Node15</title>
<g id="a_node15"><a xlink:title=" ">
<polygon fill="white" stroke="#bfbfbf" points="1657,-168.5 1657,-187.5 1713,-187.5 1713,-168.5 1657,-168.5"/>
<text text-anchor="middle" x="1685" y="-175.5" font-family="Helvetica,sans-Serif" font-size="10.00">sstream</text>
</a>
</g>
</g>
<!-- Node3&#45;&gt;Node15 -->
<g id="edge16" class="edge">
<title>Node3&#45;&gt;Node15</title>
<path fill="none" stroke="midnightblue" d="M1354.59,-228.67C1417.16,-222.13 1536.2,-208.47 1646.8,-188.06"/>
<polygon fill="midnightblue" stroke="midnightblue" points="1647.6,-191.47 1656.78,-186.19 1646.31,-184.59 1647.6,-191.47"/>
</g>
<!-- Node16 -->
<g id="node16" class="node">
<title>Node16</title>
<g id="a_node16"><a xlink:title=" ">
<polygon fill="white" stroke="#bfbfbf" points="1076.5,-0.5 1076.5,-19.5 1145.5,-19.5 1145.5,-0.5 1076.5,-0.5"/>
<text text-anchor="middle" x="1111" y="-7.5" font-family="Helvetica,sans-Serif" font-size="10.00">type_traits</text>
</a>
</g>
</g>
<!-- Node3&#45;&gt;Node16 -->
<g id="edge17" class="edge">
<title>Node3&#45;&gt;Node16</title>
<path fill="none" stroke="midnightblue" d="M1354.72,-232.88C1447.68,-231.9 1661.42,-225.5 1722,-188 1753.78,-168.33 1782.31,-140.39 1758,-112 1679.9,-20.76 1290.02,-11.33 1156.19,-10.82"/>
<polygon fill="midnightblue" stroke="midnightblue" points="1155.9,-7.32 1145.89,-10.79 1155.88,-14.32 1155.9,-7.32"/>
</g>
<!-- Node4&#45;&gt;Node5 -->
<g id="edge4" class="edge">
<title>Node4&#45;&gt;Node5</title>
<path fill="none" stroke="midnightblue" d="M1140.18,-168.08C1138.73,-160.93 1136.63,-150.64 1134.81,-141.69"/>
<polygon fill="midnightblue" stroke="midnightblue" points="1138.21,-140.85 1132.78,-131.75 1131.35,-142.25 1138.21,-140.85"/>
</g>
<!-- Node6&#45;&gt;Node5 -->
<g id="edge6" class="edge">
<title>Node6&#45;&gt;Node5</title>
<path fill="none" stroke="midnightblue" d="M1530.72,-169.15C1527.77,-168.75 1524.85,-168.37 1522,-168 1399.51,-152.2 1255.07,-136.28 1180.74,-128.28"/>
<polygon fill="midnightblue" stroke="midnightblue" points="1181.04,-124.8 1170.73,-127.21 1180.3,-131.76 1181.04,-124.8"/>
</g>
<!-- Node7 -->
<g id="node7" class="node">
<title>Node7</title>
<g id="a_node7"><a xlink:title=" ">
<polygon fill="white" stroke="#bfbfbf" points="1542,-112.5 1542,-131.5 1628,-131.5 1628,-112.5 1542,-112.5"/>
<text text-anchor="middle" x="1585" y="-119.5" font-family="Helvetica,sans-Serif" font-size="10.00">fmt/ostream.h</text>
</a>
</g>
</g>
<!-- Node6&#45;&gt;Node7 -->
<g id="edge7" class="edge">
<title>Node6&#45;&gt;Node7</title>
<path fill="none" stroke="midnightblue" d="M1585,-168.08C1585,-161.01 1585,-150.86 1585,-141.99"/>
<polygon fill="midnightblue" stroke="midnightblue" points="1588.5,-141.75 1585,-131.75 1581.5,-141.75 1588.5,-141.75"/>
</g>
<!-- Node8 -->
<g id="node8" class="node">
<title>Node8</title>
<g id="a_node8"><a xlink:title=" ">
<polygon fill="white" stroke="#bfbfbf" points="1646,-112.5 1646,-131.5 1690,-131.5 1690,-112.5 1646,-112.5"/>
<text text-anchor="middle" x="1668" y="-119.5" font-family="Helvetica,sans-Serif" font-size="10.00">limits</text>
</a>
</g>
</g>
<!-- Node6&#45;&gt;Node8 -->
<g id="edge8" class="edge">
<title>Node6&#45;&gt;Node8</title>
<path fill="none" stroke="midnightblue" d="M1598.34,-168.32C1611.16,-159.98 1630.78,-147.21 1645.94,-137.35"/>
<polygon fill="midnightblue" stroke="midnightblue" points="1648.22,-140.04 1654.7,-131.65 1644.41,-134.17 1648.22,-140.04"/>
</g>
<!-- Node6&#45;&gt;Node9 -->
<g id="edge9" class="edge">
<title>Node6&#45;&gt;Node9</title>
<path fill="none" stroke="midnightblue" d="M1607.98,-168.44C1633.29,-159.01 1674.05,-143.84 1701.41,-133.65"/>
<polygon fill="midnightblue" stroke="midnightblue" points="1702.69,-136.91 1710.84,-130.14 1700.24,-130.35 1702.69,-136.91"/>
</g>
<!-- Node10 -->
<g id="node10" class="node">
<title>Node10</title>
<g id="a_node10"><a xlink:title=" ">
<polygon fill="white" stroke="#bfbfbf" points="1476,-112.5 1476,-131.5 1524,-131.5 1524,-112.5 1476,-112.5"/>
<text text-anchor="middle" x="1500" y="-119.5" font-family="Helvetica,sans-Serif" font-size="10.00">thread</text>
</a>
</g>
</g>
<!-- Node6&#45;&gt;Node10 -->
<g id="edge10" class="edge">
<title>Node6&#45;&gt;Node10</title>
<path fill="none" stroke="midnightblue" d="M1571.34,-168.32C1558.08,-159.9 1537.73,-146.97 1522.15,-137.07"/>
<polygon fill="midnightblue" stroke="midnightblue" points="1523.94,-134.06 1513.62,-131.65 1520.19,-139.97 1523.94,-134.06"/>
</g>
<!-- Node18 -->
<g id="node18" class="node">
<title>Node18</title>
<g id="a_node18"><a xlink:href="pal_8h.html" target="_top" xlink:title=" ">
<polygon fill="white" stroke="black" points="57,-56.5 57,-75.5 129,-75.5 129,-56.5 57,-56.5"/>
<text text-anchor="middle" x="93" y="-63.5" font-family="Helvetica,sans-Serif" font-size="10.00">ccf/ds/pal.h</text>
</a>
</g>
</g>
<!-- Node17&#45;&gt;Node18 -->
<g id="edge19" class="edge">
<title>Node17&#45;&gt;Node18</title>
<path fill="none" stroke="midnightblue" d="M721.19,-232.51C593.18,-230.57 189.79,-221.82 143,-188 109.63,-163.88 98.45,-113.32 94.77,-85.81"/>
<polygon fill="midnightblue" stroke="midnightblue" points="98.21,-85.11 93.6,-75.57 91.26,-85.9 98.21,-85.11"/>
</g>
<!-- Node21 -->
<g id="node21" class="node">
<title>Node21</title>
<g id="a_node21"><a xlink:title=" ">
<polygon fill="white" stroke="#bfbfbf" points="134,-0.5 134,-19.5 184,-19.5 184,-0.5 134,-0.5"/>
<text text-anchor="middle" x="159" y="-7.5" font-family="Helvetica,sans-Serif" font-size="10.00">cstring</text>
</a>
</g>
</g>
<!-- Node17&#45;&gt;Node21 -->
<g id="edge59" class="edge">
<title>Node17&#45;&gt;Node21</title>
<path fill="none" stroke="midnightblue" d="M721.25,-231.8C624.1,-226.89 366.41,-202.02 205,-76 188.71,-63.28 175.76,-43.25 167.8,-28.78"/>
<polygon fill="midnightblue" stroke="midnightblue" points="170.85,-27.06 163.11,-19.82 164.64,-30.3 170.85,-27.06"/>
</g>
<!-- Node23 -->
<g id="node23" class="node">
<title>Node23</title>
<g id="a_node23"><a xlink:href="ring__buffer__types_8h.html" target="_top" xlink:title=" ">
<polygon fill="white" stroke="black" points="705,-168.5 705,-187.5 815,-187.5 815,-168.5 705,-168.5"/>
<text text-anchor="middle" x="760" y="-175.5" font-family="Helvetica,sans-Serif" font-size="10.00">ring_buffer_types.h</text>
</a>
</g>
</g>
<!-- Node17&#45;&gt;Node23 -->
<g id="edge24" class="edge">
<title>Node17&#45;&gt;Node23</title>
<path fill="none" stroke="midnightblue" d="M760,-224.08C760,-217.01 760,-206.86 760,-197.99"/>
<polygon fill="midnightblue" stroke="midnightblue" points="763.5,-197.75 760,-187.75 756.5,-197.75 763.5,-197.75"/>
</g>
<!-- Node41 -->
<g id="node41" class="node">
<title>Node41</title>
<g id="a_node41"><a xlink:title=" ">
<polygon fill="white" stroke="#bfbfbf" points="833.5,-168.5 833.5,-187.5 898.5,-187.5 898.5,-168.5 833.5,-168.5"/>
<text text-anchor="middle" x="866" y="-175.5" font-family="Helvetica,sans-Serif" font-size="10.00">functional</text>
</a>
</g>
</g>
<!-- Node17&#45;&gt;Node41 -->
<g id="edge60" class="edge">
<title>Node17&#45;&gt;Node41</title>
<path fill="none" stroke="midnightblue" d="M777.03,-224.32C794.03,-215.66 820.38,-202.24 839.99,-192.25"/>
<polygon fill="midnightblue" stroke="midnightblue" points="841.69,-195.31 849.01,-187.65 838.51,-189.08 841.69,-195.31"/>
</g>
<!-- Node19 -->
<g id="node19" class="node">
<title>Node19</title>
<g id="a_node19"><a xlink:title=" ">
<polygon fill="white" stroke="#bfbfbf" points="202,-0.5 202,-19.5 252,-19.5 252,-0.5 202,-0.5"/>
<text text-anchor="middle" x="227" y="-7.5" font-family="Helvetica,sans-Serif" font-size="10.00">cstdint</text>
</a>
</g>
</g>
<!-- Node18&#45;&gt;Node19 -->
<g id="edge20" class="edge">
<title>Node18&#45;&gt;Node19</title>
<path fill="none" stroke="midnightblue" d="M114.23,-56.44C136.38,-47.52 171.32,-33.44 196.44,-23.32"/>
<polygon fill="midnightblue" stroke="midnightblue" points="197.9,-26.5 205.87,-19.52 195.28,-20.01 197.9,-26.5"/>
</g>
<!-- Node20 -->
<g id="node20" class="node">
<title>Node20</title>
<g id="a_node20"><a xlink:title=" ">
<polygon fill="white" stroke="#bfbfbf" points="66.5,-0.5 66.5,-19.5 115.5,-19.5 115.5,-0.5 66.5,-0.5"/>
<text text-anchor="middle" x="91" y="-7.5" font-family="Helvetica,sans-Serif" font-size="10.00">cstdlib</text>
</a>
</g>
</g>
<!-- Node18&#45;&gt;Node20 -->
<g id="edge21" class="edge">
<title>Node18&#45;&gt;Node20</title>
<path fill="none" stroke="midnightblue" d="M92.67,-56.08C92.41,-49.01 92.03,-38.86 91.7,-29.99"/>
<polygon fill="midnightblue" stroke="midnightblue" points="95.19,-29.61 91.32,-19.75 88.2,-29.87 95.19,-29.61"/>
</g>
<!-- Node18&#45;&gt;Node21 -->
<g id="edge22" class="edge">
<title>Node18&#45;&gt;Node21</title>
<path fill="none" stroke="midnightblue" d="M103.6,-56.32C113.46,-48.26 128.35,-36.08 140.22,-26.37"/>
<polygon fill="midnightblue" stroke="midnightblue" points="142.68,-28.88 148.2,-19.83 138.25,-23.46 142.68,-28.88"/>
</g>
<!-- Node22 -->
<g id="node22" class="node">
<title>Node22</title>
<g id="a_node22"><a xlink:title=" ">
<polygon fill="white" stroke="#bfbfbf" points="0,-0.5 0,-19.5 48,-19.5 48,-0.5 0,-0.5"/>
<text text-anchor="middle" x="24" y="-7.5" font-family="Helvetica,sans-Serif" font-size="10.00">mutex</text>
</a>
</g>
</g>
<!-- Node18&#45;&gt;Node22 -->
<g id="edge23" class="edge">
<title>Node18&#45;&gt;Node22</title>
<path fill="none" stroke="midnightblue" d="M81.91,-56.32C71.51,-48.18 55.74,-35.84 43.28,-26.09"/>
<polygon fill="midnightblue" stroke="midnightblue" points="45.32,-23.24 35.29,-19.83 41.01,-28.75 45.32,-23.24"/>
</g>
<!-- Node23&#45;&gt;Node5 -->
<g id="edge55" class="edge">
<title>Node23&#45;&gt;Node5</title>
<path fill="none" stroke="midnightblue" d="M815.14,-168.97C887.04,-158.51 1011.79,-140.35 1081.04,-130.27"/>
<polygon fill="midnightblue" stroke="midnightblue" points="1081.86,-133.69 1091.25,-128.79 1080.85,-126.76 1081.86,-133.69"/>
</g>
<!-- Node23&#45;&gt;Node14 -->
<g id="edge56" class="edge">
<title>Node23&#45;&gt;Node14</title>
<path fill="none" stroke="midnightblue" d="M793.59,-168.44C831.83,-158.7 894.14,-142.83 934.09,-132.66"/>
<polygon fill="midnightblue" stroke="midnightblue" points="935.15,-136 943.98,-130.14 933.43,-129.21 935.15,-136"/>
</g>
<!-- Node24 -->
<g id="node24" class="node">
<title>Node24</title>
<g id="a_node24"><a xlink:href="include_2ccf_2ds_2hash_8h.html" target="_top" xlink:title=" ">
<polygon fill="white" stroke="black" points="358,-112.5 358,-131.5 438,-131.5 438,-112.5 358,-112.5"/>
<text text-anchor="middle" x="398" y="-119.5" font-family="Helvetica,sans-Serif" font-size="10.00">ccf/ds/hash.h</text>
</a>
</g>
</g>
<!-- Node23&#45;&gt;Node24 -->
<g id="edge25" class="edge">
<title>Node23&#45;&gt;Node24</title>
<path fill="none" stroke="midnightblue" d="M704.63,-168.74C634.73,-158.31 515.53,-140.53 448.18,-130.49"/>
<polygon fill="midnightblue" stroke="midnightblue" points="448.64,-127.02 438.24,-129 447.61,-133.94 448.64,-127.02"/>
</g>
<!-- Node27 -->
<g id="node27" class="node">
<title>Node27</title>
<g id="a_node27"><a xlink:title=" ">
<polygon fill="white" stroke="#bfbfbf" points="565.5,-0.5 565.5,-19.5 612.5,-19.5 612.5,-0.5 565.5,-0.5"/>
<text text-anchor="middle" x="589" y="-7.5" font-family="Helvetica,sans-Serif" font-size="10.00">vector</text>
</a>
</g>
</g>
<!-- Node23&#45;&gt;Node27 -->
<g id="edge58" class="edge">
<title>Node23&#45;&gt;Node27</title>
<path fill="none" stroke="midnightblue" d="M738.35,-168.44C705.27,-154.25 642.36,-122.7 608,-76 598.09,-62.54 593.33,-43.98 591.05,-30.13"/>
<polygon fill="midnightblue" stroke="midnightblue" points="594.47,-29.28 589.67,-19.83 587.53,-30.21 594.47,-29.28"/>
</g>
<!-- Node30 -->
<g id="node30" class="node">
<title>Node30</title>
<g id="a_node30"><a xlink:href="nonstd_8h.html" target="_top" xlink:title=" ">
<polygon fill="white" stroke="black" points="785,-56.5 785,-75.5 875,-75.5 875,-56.5 785,-56.5"/>
<text text-anchor="middle" x="830" y="-63.5" font-family="Helvetica,sans-Serif" font-size="10.00">ccf/ds/nonstd.h</text>
</a>
</g>
</g>
<!-- Node23&#45;&gt;Node30 -->
<g id="edge34" class="edge">
<title>Node23&#45;&gt;Node30</title>
<path fill="none" stroke="midnightblue" d="M760.97,-168.37C762.76,-155.29 767.52,-130.06 779,-112 786.52,-100.17 798.04,-89.63 808.23,-81.73"/>
<polygon fill="midnightblue" stroke="midnightblue" points="810.38,-84.49 816.35,-75.75 806.23,-78.86 810.38,-84.49"/>
</g>
<!-- Node33 -->
<g id="node33" class="node">
<title>Node33</title>
<g id="a_node33"><a xlink:title=" ">
<polygon fill="white" stroke="#bfbfbf" points="691,-0.5 691,-19.5 735,-19.5 735,-0.5 691,-0.5"/>
<text text-anchor="middle" x="713" y="-7.5" font-family="Helvetica,sans-Serif" font-size="10.00">string</text>
</a>
</g>
</g>
<!-- Node23&#45;&gt;Node33 -->
<g id="edge57" class="edge">
<title>Node23&#45;&gt;Node33</title>
<path fill="none" stroke="midnightblue" d="M757.47,-168.08C750.07,-141.95 728.35,-65.21 718.26,-29.58"/>
<polygon fill="midnightblue" stroke="midnightblue" points="721.52,-28.24 715.43,-19.57 714.78,-30.14 721.52,-28.24"/>
</g>
<!-- Node35 -->
<g id="node35" class="node">
<title>Node35</title>
<g id="a_node35"><a xlink:href="serializer_8h.html" target="_top" xlink:title=" ">
<polygon fill="white" stroke="black" points="788,-112.5 788,-131.5 858,-131.5 858,-112.5 788,-112.5"/>
<text text-anchor="middle" x="823" y="-119.5" font-family="Helvetica,sans-Serif" font-size="10.00">serializer.h</text>
</a>
</g>
</g>
<!-- Node23&#45;&gt;Node35 -->
<g id="edge42" class="edge">
<title>Node23&#45;&gt;Node35</title>
<path fill="none" stroke="midnightblue" d="M770.12,-168.32C779.53,-160.26 793.74,-148.08 805.07,-138.37"/>
<polygon fill="midnightblue" stroke="midnightblue" points="807.38,-141 812.69,-131.83 802.82,-135.68 807.38,-141"/>
</g>
<!-- Node23&#45;&gt;Node40 -->
<g id="edge54" class="edge">
<title>Node23&#45;&gt;Node40</title>
<path fill="none" stroke="midnightblue" d="M782.34,-168.44C805.75,-159.48 842.74,-145.31 869.19,-135.18"/>
<polygon fill="midnightblue" stroke="midnightblue" points="870.68,-138.36 878.76,-131.52 868.17,-131.82 870.68,-138.36"/>
</g>
<!-- Node24&#45;&gt;Node19 -->
<g id="edge31" class="edge">
<title>Node24&#45;&gt;Node19</title>
<path fill="none" stroke="midnightblue" d="M357.63,-116.88C308.97,-110.99 231.51,-98.31 214,-76 203.38,-62.47 209.6,-42.57 216.61,-28.36"/>
<polygon fill="midnightblue" stroke="midnightblue" points="219.68,-30.04 221.39,-19.58 213.53,-26.69 219.68,-30.04"/>
</g>
<!-- Node25 -->
<g id="node25" class="node">
<title>Node25</title>
<g id="a_node25"><a xlink:href="siphash_8h.html" target="_top" xlink:title=" ">
<polygon fill="white" stroke="black" points="223.5,-56.5 223.5,-75.5 318.5,-75.5 318.5,-56.5 223.5,-56.5"/>
<text text-anchor="middle" x="271" y="-63.5" font-family="Helvetica,sans-Serif" font-size="10.00">ccf/ds/siphash.h</text>
</a>
</g>
</g>
<!-- Node24&#45;&gt;Node25 -->
<g id="edge26" class="edge">
<title>Node24&#45;&gt;Node25</title>
<path fill="none" stroke="midnightblue" d="M377.88,-112.44C356.98,-103.56 324.07,-89.56 300.28,-79.45"/>
<polygon fill="midnightblue" stroke="midnightblue" points="301.6,-76.21 291.03,-75.52 298.86,-82.65 301.6,-76.21"/>
</g>
<!-- Node24&#45;&gt;Node27 -->
<g id="edge33" class="edge">
<title>Node24&#45;&gt;Node27</title>
<path fill="none" stroke="midnightblue" d="M387.66,-112.31C373.24,-99.15 350.4,-73.82 365,-56 388.61,-27.17 498.23,-16.42 554.88,-12.74"/>
<polygon fill="midnightblue" stroke="midnightblue" points="555.37,-16.22 565.14,-12.11 554.95,-9.23 555.37,-16.22"/>
</g>
<!-- Node28 -->
<g id="node28" class="node">
<title>Node28</title>
<g id="a_node28"><a xlink:title=" ">
<polygon fill="white" stroke="#bfbfbf" points="631,-0.5 631,-19.5 673,-19.5 673,-0.5 631,-0.5"/>
<text text-anchor="middle" x="652" y="-7.5" font-family="Helvetica,sans-Serif" font-size="10.00">array</text>
</a>
</g>
</g>
<!-- Node24&#45;&gt;Node28 -->
<g id="edge30" class="edge">
<title>Node24&#45;&gt;Node28</title>
<path fill="none" stroke="midnightblue" d="M428.36,-112.44C455.89,-104.29 497.34,-91.07 532,-76 567.1,-60.73 605.69,-38.85 629.39,-24.78"/>
<polygon fill="midnightblue" stroke="midnightblue" points="631.21,-27.77 637.99,-19.62 627.61,-21.76 631.21,-27.77"/>
</g>
<!-- Node29 -->
<g id="node29" class="node">
<title>Node29</title>
<g id="a_node29"><a xlink:title=" ">
<polygon fill="white" stroke="#bfbfbf" points="374.5,-56.5 374.5,-75.5 523.5,-75.5 523.5,-56.5 374.5,-56.5"/>
<text text-anchor="middle" x="449" y="-63.5" font-family="Helvetica,sans-Serif" font-size="10.00">small_vector/SmallVector.h</text>
</a>
</g>
</g>
<!-- Node24&#45;&gt;Node29 -->
<g id="edge32" class="edge">
<title>Node24&#45;&gt;Node29</title>
<path fill="none" stroke="midnightblue" d="M406.42,-112.08C413.85,-104.22 424.85,-92.57 433.81,-83.08"/>
<polygon fill="midnightblue" stroke="midnightblue" points="436.41,-85.42 440.74,-75.75 431.32,-80.62 436.41,-85.42"/>
</g>
<!-- Node25&#45;&gt;Node19 -->
<g id="edge28" class="edge">
<title>Node25&#45;&gt;Node19</title>
<path fill="none" stroke="midnightblue" d="M263.73,-56.08C257.46,-48.38 248.21,-37.03 240.57,-27.65"/>
<polygon fill="midnightblue" stroke="midnightblue" points="243.16,-25.29 234.13,-19.75 237.73,-29.71 243.16,-25.29"/>
</g>
<!-- Node26 -->
<g id="node26" class="node">
<title>Node26</title>
<g id="a_node26"><a xlink:title=" ">
<polygon fill="white" stroke="#bfbfbf" points="270.5,-0.5 270.5,-19.5 323.5,-19.5 323.5,-0.5 270.5,-0.5"/>
<text text-anchor="middle" x="297" y="-7.5" font-family="Helvetica,sans-Serif" font-size="10.00">cstddef</text>
</a>
</g>
</g>
<!-- Node25&#45;&gt;Node26 -->
<g id="edge27" class="edge">
<title>Node25&#45;&gt;Node26</title>
<path fill="none" stroke="midnightblue" d="M275.29,-56.08C278.85,-48.69 284.02,-37.95 288.42,-28.81"/>
<polygon fill="midnightblue" stroke="midnightblue" points="291.6,-30.28 292.79,-19.75 285.29,-27.24 291.6,-30.28"/>
</g>
<!-- Node25&#45;&gt;Node27 -->
<g id="edge29" class="edge">
<title>Node25&#45;&gt;Node27</title>
<path fill="none" stroke="midnightblue" d="M318.61,-56.92C383.69,-45.86 498.81,-26.32 555.52,-16.69"/>
<polygon fill="midnightblue" stroke="midnightblue" points="556.13,-20.13 565.4,-15.01 554.96,-13.23 556.13,-20.13"/>
</g>
<!-- Node30&#45;&gt;Node16 -->
<g id="edge40" class="edge">
<title>Node30&#45;&gt;Node16</title>
<path fill="none" stroke="midnightblue" d="M875.03,-56.65C920.68,-48.13 993.62,-34.41 1066.6,-20.06"/>
<polygon fill="midnightblue" stroke="midnightblue" points="1067.29,-23.49 1076.42,-18.12 1065.93,-16.62 1067.29,-23.49"/>
</g>
<!-- Node30&#45;&gt;Node27 -->
<g id="edge41" class="edge">
<title>Node30&#45;&gt;Node27</title>
<path fill="none" stroke="midnightblue" d="M787.22,-56.44C747.21,-48.28 685.55,-35.3 622.83,-20.1"/>
<polygon fill="midnightblue" stroke="midnightblue" points="623.3,-16.61 612.75,-17.64 621.64,-23.41 623.3,-16.61"/>
</g>
<!-- Node30&#45;&gt;Node28 -->
<g id="edge36" class="edge">
<title>Node30&#45;&gt;Node28</title>
<path fill="none" stroke="midnightblue" d="M801.8,-56.44C769.37,-46.61 716.32,-30.51 682.83,-20.35"/>
<polygon fill="midnightblue" stroke="midnightblue" points="683.69,-16.96 673.1,-17.4 681.66,-23.66 683.69,-16.96"/>
</g>
<!-- Node31 -->
<g id="node31" class="node">
<title>Node31</title>
<g id="a_node31"><a xlink:title=" ">
<polygon fill="white" stroke="#bfbfbf" points="753,-0.5 753,-19.5 817,-19.5 817,-0.5 753,-0.5"/>
<text text-anchor="middle" x="785" y="-7.5" font-family="Helvetica,sans-Serif" font-size="10.00">algorithm</text>
</a>
</g>
</g>
<!-- Node30&#45;&gt;Node31 -->
<g id="edge35" class="edge">
<title>Node30&#45;&gt;Node31</title>
<path fill="none" stroke="midnightblue" d="M822.57,-56.08C816.15,-48.38 806.69,-37.03 798.88,-27.65"/>
<polygon fill="midnightblue" stroke="midnightblue" points="801.38,-25.19 792.29,-19.75 796.01,-29.67 801.38,-25.19"/>
</g>
<!-- Node32 -->
<g id="node32" class="node">
<title>Node32</title>
<g id="a_node32"><a xlink:title=" ">
<polygon fill="white" stroke="#bfbfbf" points="835.5,-0.5 835.5,-19.5 884.5,-19.5 884.5,-0.5 835.5,-0.5"/>
<text text-anchor="middle" x="860" y="-7.5" font-family="Helvetica,sans-Serif" font-size="10.00">cctype</text>
</a>
</g>
</g>
<!-- Node30&#45;&gt;Node32 -->
<g id="edge37" class="edge">
<title>Node30&#45;&gt;Node32</title>
<path fill="none" stroke="midnightblue" d="M834.95,-56.08C839.1,-48.61 845.15,-37.72 850.27,-28.52"/>
<polygon fill="midnightblue" stroke="midnightblue" points="853.34,-30.19 855.14,-19.75 847.22,-26.79 853.34,-30.19"/>
</g>
<!-- Node30&#45;&gt;Node33 -->
<g id="edge38" class="edge">
<title>Node30&#45;&gt;Node33</title>
<path fill="none" stroke="midnightblue" d="M811.46,-56.44C792.38,-47.64 762.43,-33.81 740.56,-23.72"/>
<polygon fill="midnightblue" stroke="midnightblue" points="742,-20.53 731.45,-19.52 739.07,-26.88 742,-20.53"/>
</g>
<!-- Node34 -->
<g id="node34" class="node">
<title>Node34</title>
<g id="a_node34"><a xlink:title=" ">
<polygon fill="white" stroke="#bfbfbf" points="902.5,-0.5 902.5,-19.5 975.5,-19.5 975.5,-0.5 902.5,-0.5"/>
<text text-anchor="middle" x="939" y="-7.5" font-family="Helvetica,sans-Serif" font-size="10.00">string_view</text>
</a>
</g>
</g>
<!-- Node30&#45;&gt;Node34 -->
<g id="edge39" class="edge">
<title>Node30&#45;&gt;Node34</title>
<path fill="none" stroke="midnightblue" d="M847.51,-56.32C865.07,-47.62 892.33,-34.12 912.53,-24.11"/>
<polygon fill="midnightblue" stroke="midnightblue" points="914.12,-27.23 921.53,-19.65 911.02,-20.96 914.12,-27.23"/>
</g>
<!-- Node35&#45;&gt;Node16 -->
<g id="edge52" class="edge">
<title>Node35&#45;&gt;Node16</title>
<path fill="none" stroke="midnightblue" d="M848.62,-112.35C873.16,-103.85 911.05,-90.13 943,-76 960.82,-68.12 964.09,-63.67 982,-56 1012.03,-43.14 1047.08,-31.09 1073.06,-22.7"/>
<polygon fill="midnightblue" stroke="midnightblue" points="1074.43,-25.94 1082.9,-19.56 1072.31,-19.27 1074.43,-25.94"/>
</g>
<!-- Node35&#45;&gt;Node27 -->
<g id="edge53" class="edge">
<title>Node35&#45;&gt;Node27</title>
<path fill="none" stroke="midnightblue" d="M807.58,-112.31C784.36,-99.37 738.89,-74.56 699,-56 673.21,-44 643.29,-31.87 621.17,-23.23"/>
<polygon fill="midnightblue" stroke="midnightblue" points="622.19,-19.87 611.6,-19.52 619.66,-26.4 622.19,-19.87"/>
</g>
<!-- Node35&#45;&gt;Node30 -->
<g id="edge43" class="edge">
<title>Node35&#45;&gt;Node30</title>
<path fill="none" stroke="midnightblue" d="M824.16,-112.08C825.08,-104.93 826.42,-94.64 827.58,-85.69"/>
<polygon fill="midnightblue" stroke="midnightblue" points="831.05,-86.12 828.87,-75.75 824.11,-85.22 831.05,-86.12"/>
</g>
<!-- Node36 -->
<g id="node36" class="node">
<title>Node36</title>
<g id="a_node36"><a xlink:href="serialized_8h.html" target="_top" xlink:title=" ">
<polygon fill="white" stroke="black" points="617.5,-56.5 617.5,-75.5 690.5,-75.5 690.5,-56.5 617.5,-56.5"/>
<text text-anchor="middle" x="654" y="-63.5" font-family="Helvetica,sans-Serif" font-size="10.00">serialized.h</text>
</a>
</g>
</g>
<!-- Node35&#45;&gt;Node36 -->
<g id="edge44" class="edge">
<title>Node35&#45;&gt;Node36</title>
<path fill="none" stroke="midnightblue" d="M796.22,-112.44C767.67,-103.32 722.27,-88.81 690.46,-78.65"/>
<polygon fill="midnightblue" stroke="midnightblue" points="691.24,-75.23 680.65,-75.52 689.11,-81.89 691.24,-75.23"/>
</g>
<!-- Node38 -->
<g id="node38" class="node">
<title>Node38</title>
<g id="a_node38"><a xlink:title=" ">
<polygon fill="white" stroke="#bfbfbf" points="991,-56.5 991,-75.5 1049,-75.5 1049,-56.5 991,-56.5"/>
<text text-anchor="middle" x="1020" y="-63.5" font-family="Helvetica,sans-Serif" font-size="10.00">memory</text>
</a>
</g>
</g>
<!-- Node35&#45;&gt;Node38 -->
<g id="edge50" class="edge">
<title>Node35&#45;&gt;Node38</title>
<path fill="none" stroke="midnightblue" d="M854.22,-112.44C888.53,-103.04 943.71,-87.91 980.88,-77.72"/>
<polygon fill="midnightblue" stroke="midnightblue" points="982.14,-81.01 990.86,-74.99 980.29,-74.26 982.14,-81.01"/>
</g>
<!-- Node39 -->
<g id="node39" class="node">
<title>Node39</title>
<g id="a_node39"><a xlink:title=" ">
<polygon fill="white" stroke="#bfbfbf" points="893.5,-56.5 893.5,-75.5 934.5,-75.5 934.5,-56.5 893.5,-56.5"/>
<text text-anchor="middle" x="914" y="-63.5" font-family="Helvetica,sans-Serif" font-size="10.00">tuple</text>
</a>
</g>
</g>
<!-- Node35&#45;&gt;Node39 -->
<g id="edge51" class="edge">
<title>Node35&#45;&gt;Node39</title>
<path fill="none" stroke="midnightblue" d="M837.62,-112.32C851.95,-103.82 874.01,-90.73 890.75,-80.8"/>
<polygon fill="midnightblue" stroke="midnightblue" points="892.6,-83.77 899.42,-75.65 889.03,-77.75 892.6,-83.77"/>
</g>
<!-- Node36&#45;&gt;Node19 -->
<g id="edge45" class="edge">
<title>Node36&#45;&gt;Node19</title>
<path fill="none" stroke="midnightblue" d="M617.43,-62.59C549.37,-57.72 398.51,-45.13 262.35,-20"/>
<polygon fill="midnightblue" stroke="midnightblue" points="262.63,-16.5 252.16,-18.09 261.34,-23.38 262.63,-16.5"/>
</g>
<!-- Node36&#45;&gt;Node21 -->
<g id="edge46" class="edge">
<title>Node36&#45;&gt;Node21</title>
<path fill="none" stroke="midnightblue" d="M617.44,-62.2C526.66,-55.13 291.82,-36.07 194.25,-19.9"/>
<polygon fill="midnightblue" stroke="midnightblue" points="194.6,-16.41 184.15,-18.14 193.4,-23.3 194.6,-16.41"/>
</g>
<!-- Node36&#45;&gt;Node27 -->
<g id="edge49" class="edge">
<title>Node36&#45;&gt;Node27</title>
<path fill="none" stroke="midnightblue" d="M643.56,-56.32C633.85,-48.26 619.18,-36.08 607.5,-26.37"/>
<polygon fill="midnightblue" stroke="midnightblue" points="609.56,-23.53 599.63,-19.83 605.09,-28.92 609.56,-23.53"/>
</g>
<!-- Node36&#45;&gt;Node33 -->
<g id="edge48" class="edge">
<title>Node36&#45;&gt;Node33</title>
<path fill="none" stroke="midnightblue" d="M663.48,-56.32C672.2,-48.34 685.34,-36.31 695.9,-26.65"/>
<polygon fill="midnightblue" stroke="midnightblue" points="698.33,-29.17 703.35,-19.83 693.61,-24 698.33,-29.17"/>
</g>
<!-- Node36&#45;&gt;Node37 -->
<g id="edge47" class="edge">
<title>Node36&#45;&gt;Node37</title>
<path fill="none" stroke="midnightblue" d="M690.76,-60.91C750.07,-54.1 870.72,-39.44 983.32,-19.99"/>
<polygon fill="midnightblue" stroke="midnightblue" points="984.24,-23.39 993.49,-18.22 983.04,-16.49 984.24,-23.39"/>
</g>
<!-- Node44 -->
<g id="node44" class="node">
<title>Node44</title>
<g id="a_node44"><a xlink:href="proxy_8h.html" target="_top" xlink:title=" ">
<polygon fill="white" stroke="black" points="1769,-224.5 1769,-243.5 1821,-243.5 1821,-224.5 1769,-224.5"/>
<text text-anchor="middle" x="1795" y="-231.5" font-family="Helvetica,sans-Serif" font-size="10.00">proxy.h</text>
</a>
</g>
</g>
<!-- Node43&#45;&gt;Node44 -->
<g id="edge66" class="edge">
<title>Node43&#45;&gt;Node44</title>
<path fill="none" stroke="midnightblue" d="M1795,-280.08C1795,-273.01 1795,-262.86 1795,-253.99"/>
<polygon fill="midnightblue" stroke="midnightblue" points="1798.5,-253.75 1795,-243.75 1791.5,-253.75 1798.5,-253.75"/>
</g>
<!-- Node46 -->
<g id="node46" class="node">
<title>Node46</title>
<g id="a_node46"><a xlink:title=" ">
<polygon fill="white" stroke="#bfbfbf" points="1839,-224.5 1839,-243.5 1889,-243.5 1889,-224.5 1839,-224.5"/>
<text text-anchor="middle" x="1864" y="-231.5" font-family="Helvetica,sans-Serif" font-size="10.00">chrono</text>
</a>
</g>
</g>
<!-- Node43&#45;&gt;Node46 -->
<g id="edge69" class="edge">
<title>Node43&#45;&gt;Node46</title>
<path fill="none" stroke="midnightblue" d="M1806.09,-280.32C1816.49,-272.18 1832.26,-259.84 1844.72,-250.09"/>
<polygon fill="midnightblue" stroke="midnightblue" points="1846.99,-252.75 1852.71,-243.83 1842.68,-247.24 1846.99,-252.75"/>
</g>
<!-- Node44&#45;&gt;Node38 -->
<g id="edge67" class="edge">
<title>Node44&#45;&gt;Node38</title>
<path fill="none" stroke="midnightblue" d="M1795.38,-224.49C1795.86,-201.89 1793.71,-140.15 1758,-112 1702.92,-68.59 1204.1,-66.5 1059.26,-66.82"/>
<polygon fill="midnightblue" stroke="midnightblue" points="1059.05,-63.32 1049.06,-66.85 1059.07,-70.32 1059.05,-63.32"/>
</g>
<!-- Node45 -->
<g id="node45" class="node">
<title>Node45</title>
<g id="a_node45"><a xlink:title=" ">
<polygon fill="white" stroke="#bfbfbf" points="1845.5,-168.5 1845.5,-187.5 1882.5,-187.5 1882.5,-168.5 1845.5,-168.5"/>
<text text-anchor="middle" x="1864" y="-175.5" font-family="Helvetica,sans-Serif" font-size="10.00">uv.h</text>
</a>
</g>
</g>
<!-- Node44&#45;&gt;Node45 -->
<g id="edge68" class="edge">
<title>Node44&#45;&gt;Node45</title>
<path fill="none" stroke="midnightblue" d="M1806.09,-224.32C1816.49,-216.18 1832.26,-203.84 1844.72,-194.09"/>
<polygon fill="midnightblue" stroke="midnightblue" points="1846.99,-196.75 1852.71,-187.83 1842.68,-191.24 1846.99,-196.75"/>
</g>
</g>
</svg>
        <g id="navigator" transform="translate(0 0)" fill="#404254">
                <rect fill="#f2f5e9" fill-opacity="0.5" stroke="#606060" stroke-width=".5" x="0" y="0" width="60" height="60"/>
                <use id="zoomplus" xlink:href="#zoomPlus" x="17" y="9" onmousedown="handleZoom(evt,'in')"/>
                <use id="zoomminus" xlink:href="#zoomMin" x="42" y="9" onmousedown="handleZoom(evt,'out')"/>
                <use id="reset" xlink:href="#resetDef" x="30" y="36" onmousedown="handleReset()"/>
                <g id="arrowUp" xlink:href="#dirArrow" transform="translate(30 24)" onmousedown="handlePan(0,-1)">
                  <use xlink:href="#rim" fill="#404040">
                        <set attributeName="fill" to="#808080" begin="arrowUp.mouseover" end="arrowUp.mouseout"/>
                  </use>
                  <path fill="none" stroke="white" stroke-width="1.5" d="M0,-3.0v7 M-2.5,-0.5L0,-3.0L2.5,-0.5"/>
                </g>
                <g id="arrowRight" xlink:href="#dirArrow" transform="rotate(90) translate(36 -43)" onmousedown="handlePan(1,0)">
                  <use xlink:href="#rim" fill="#404040">
                        <set attributeName="fill" to="#808080" begin="arrowRight.mouseover" end="arrowRight.mouseout"/>
                  </use>
                  <path fill="none" stroke="white" stroke-width="1.5" d="M0,-3.0v7 M-2.5,-0.5L0,-3.0L2.5,-0.5"/>
                </g>
                <g id="arrowDown" xlink:href="#dirArrow" transform="rotate(180) translate(-30 -48)" onmousedown="handlePan(0,1)">
                  <use xlink:href="#rim" fill="#404040">
                        <set attributeName="fill" to="#808080" begin="arrowDown.mouseover" end="arrowDown.mouseout"/>
                  </use>
                  <path fill="none" stroke="white" stroke-width="1.5" d="M0,-3.0v7 M-2.5,-0.5L0,-3.0L2.5,-0.5"/>
                </g>
                <g id="arrowLeft" xlink:href="#dirArrow" transform="rotate(270) translate(-36 17)" onmousedown="handlePan(-1,0)">
                  <use xlink:href="#rim" fill="#404040">
                        <set attributeName="fill" to="#808080" begin="arrowLeft.mouseover" end="arrowLeft.mouseout"/>
                  </use>
                  <path fill="none" stroke="white" stroke-width="1.5" d="M0,-3.0v7 M-2.5,-0.5L0,-3.0L2.5,-0.5"/>
                </g>
        </g>
        <svg viewBox="0 0 15 15" width="100%" height="30px" preserveAspectRatio="xMaxYMin meet">
         <g id="arrow_out" transform="scale(0.3 0.3)">
          <a xlink:href="load__monitor_8h__incl_org.svg" target="_base">
           <rect id="button" ry="5" rx="5" y="6" x="6" height="38" width="38"
                fill="#f2f5e9" fill-opacity="0.5" stroke="#606060" stroke-width="1.0"/>
           <path id="arrow"
             d="M 11.500037,31.436501 C 11.940474,20.09759 22.043105,11.32322 32.158766,21.979434 L 37.068811,17.246167 C 37.068811,17.246167 37.088388,32 37.088388,32 L 22.160133,31.978069 C 22.160133,31.978069 26.997745,27.140456 26.997745,27.140456 C 18.528582,18.264221 13.291696,25.230495 11.500037,31.436501 z"
             style="fill:#404040;"/>
          </a>
         </g>
        </svg>
</svg>
