<?xml version="1.0" encoding="UTF-8" standalone="no"?>
<!DOCTYPE svg PUBLIC "-//W3C//DTD SVG 1.1//EN"
 "http://www.w3.org/Graphics/SVG/1.1/DTD/svg11.dtd">
<!-- Generated by graphviz version 2.43.0 (0)
 -->
<!-- Title: src/ds/messaging.h Pages: 1 -->
<svg width="1630pt" height="308pt"
 viewBox="0.00 0.00 1630.00 308.00" xmlns="http://www.w3.org/2000/svg" xmlns:xlink="http://www.w3.org/1999/xlink">
<g id="graph0" class="graph" transform="scale(1 1) rotate(0) translate(4 304)">
<title>src/ds/messaging.h</title>
<polygon fill="white" stroke="transparent" points="-4,4 -4,-304 1626,-304 1626,4 -4,4"/>
<!-- Node1 -->
<g id="node1" class="node">
<title>Node1</title>
<g id="a_node1"><a xlink:title=" ">
<polygon fill="#bfbfbf" stroke="black" points="1114.5,-280.5 1114.5,-299.5 1224.5,-299.5 1224.5,-280.5 1114.5,-280.5"/>
<text text-anchor="middle" x="1169.5" y="-287.5" font-family="Helvetica,sans-Serif" font-size="10.00">src/ds/messaging.h</text>
</a>
</g>
</g>
<!-- Node2 -->
<g id="node2" class="node">
<title>Node2</title>
<g id="a_node2"><a xlink:href="logger_8h.html" target="_top" xlink:title=" ">
<polygon fill="white" stroke="black" points="939,-224.5 939,-243.5 1026,-243.5 1026,-224.5 939,-224.5"/>
<text text-anchor="middle" x="982.5" y="-231.5" font-family="Helvetica,sans-Serif" font-size="10.00">ccf/ds/logger.h</text>
</a>
</g>
</g>
<!-- Node1&#45;&gt;Node2 -->
<g id="edge1" class="edge">
<title>Node1&#45;&gt;Node2</title>
<path fill="none" stroke="midnightblue" d="M1139.87,-280.44C1108,-271.24 1057.17,-256.56 1021.94,-246.39"/>
<polygon fill="midnightblue" stroke="midnightblue" points="1022.57,-242.93 1011.99,-243.52 1020.63,-249.65 1022.57,-242.93"/>
</g>
<!-- Node8 -->
<g id="node8" class="node">
<title>Node8</title>
<g id="a_node8"><a xlink:title=" ">
<polygon fill="white" stroke="#bfbfbf" points="1476.5,-112.5 1476.5,-131.5 1514.5,-131.5 1514.5,-112.5 1476.5,-112.5"/>
<text text-anchor="middle" x="1495.5" y="-119.5" font-family="Helvetica,sans-Serif" font-size="10.00">map</text>
</a>
</g>
</g>
<!-- Node1&#45;&gt;Node8 -->
<g id="edge62" class="edge">
<title>Node1&#45;&gt;Node8</title>
<path fill="none" stroke="midnightblue" d="M1224.54,-282.58C1288.51,-272.53 1394.03,-247.63 1462.5,-188 1476.49,-175.81 1485.28,-156.26 1490.24,-141.78"/>
<polygon fill="midnightblue" stroke="midnightblue" points="1493.68,-142.49 1493.3,-131.9 1487,-140.42 1493.68,-142.49"/>
</g>
<!-- Node16 -->
<g id="node16" class="node">
<title>Node16</title>
<g id="a_node16"><a xlink:href="ring__buffer_8h.html" target="_top" xlink:title=" ">
<polygon fill="white" stroke="black" points="435,-224.5 435,-243.5 512,-243.5 512,-224.5 435,-224.5"/>
<text text-anchor="middle" x="473.5" y="-231.5" font-family="Helvetica,sans-Serif" font-size="10.00">ring_buffer.h</text>
</a>
</g>
</g>
<!-- Node1&#45;&gt;Node16 -->
<g id="edge17" class="edge">
<title>Node1&#45;&gt;Node16</title>
<path fill="none" stroke="midnightblue" d="M1114.3,-284.72C981.86,-274.44 647.75,-248.52 522.2,-238.78"/>
<polygon fill="midnightblue" stroke="midnightblue" points="522.35,-235.28 512.11,-238 521.81,-242.26 522.35,-235.28"/>
</g>
<!-- Node36 -->
<g id="node36" class="node">
<title>Node36</title>
<g id="a_node36"><a xlink:title=" ">
<polygon fill="white" stroke="#bfbfbf" points="665,-0.5 665,-19.5 730,-19.5 730,-0.5 665,-0.5"/>
<text text-anchor="middle" x="697.5" y="-7.5" font-family="Helvetica,sans-Serif" font-size="10.00">stdexcept</text>
</a>
</g>
</g>
<!-- Node1&#45;&gt;Node36 -->
<g id="edge63" class="edge">
<title>Node1&#45;&gt;Node36</title>
<path fill="none" stroke="midnightblue" d="M1185.77,-280.46C1219.8,-261.44 1293.13,-213.65 1265.5,-168 1264.63,-166.57 1160.09,-112.54 1158.5,-112 1068.79,-81.68 1041.04,-96.07 948.5,-76 914.37,-68.6 906.3,-64.79 872.5,-56 827.32,-44.25 775.53,-30.95 740.09,-21.88"/>
<polygon fill="midnightblue" stroke="midnightblue" points="740.65,-18.41 730.09,-19.32 738.91,-25.19 740.65,-18.41"/>
</g>
<!-- Node39 -->
<g id="node39" class="node">
<title>Node39</title>
<g id="a_node39"><a xlink:title=" ">
<polygon fill="white" stroke="#bfbfbf" points="1002.5,-112.5 1002.5,-131.5 1052.5,-131.5 1052.5,-112.5 1002.5,-112.5"/>
<text text-anchor="middle" x="1027.5" y="-119.5" font-family="Helvetica,sans-Serif" font-size="10.00">atomic</text>
</a>
</g>
</g>
<!-- Node1&#45;&gt;Node39 -->
<g id="edge60" class="edge">
<title>Node1&#45;&gt;Node39</title>
<path fill="none" stroke="midnightblue" d="M1161.87,-280.08C1139.03,-253.38 1071.01,-173.87 1041.46,-139.32"/>
<polygon fill="midnightblue" stroke="midnightblue" points="1043.99,-136.89 1034.83,-131.57 1038.67,-141.44 1043.99,-136.89"/>
</g>
<!-- Node41 -->
<g id="node41" class="node">
<title>Node41</title>
<g id="a_node41"><a xlink:title=" ">
<polygon fill="white" stroke="#bfbfbf" points="1515,-224.5 1515,-243.5 1622,-243.5 1622,-224.5 1515,-224.5"/>
<text text-anchor="middle" x="1568.5" y="-231.5" font-family="Helvetica,sans-Serif" font-size="10.00">condition_variable</text>
</a>
</g>
</g>
<!-- Node1&#45;&gt;Node41 -->
<g id="edge61" class="edge">
<title>Node1&#45;&gt;Node41</title>
<path fill="none" stroke="midnightblue" d="M1224.56,-281.55C1297.91,-271.62 1427.4,-254.1 1504.85,-243.61"/>
<polygon fill="midnightblue" stroke="midnightblue" points="1505.52,-247.06 1514.96,-242.25 1504.58,-240.12 1505.52,-247.06"/>
</g>
<!-- Node3 -->
<g id="node3" class="node">
<title>Node3</title>
<g id="a_node3"><a xlink:href="enum__formatter_8h.html" target="_top" xlink:title=" ">
<polygon fill="white" stroke="black" points="1120.5,-168.5 1120.5,-187.5 1256.5,-187.5 1256.5,-168.5 1120.5,-168.5"/>
<text text-anchor="middle" x="1188.5" y="-175.5" font-family="Helvetica,sans-Serif" font-size="10.00">ccf/ds/enum_formatter.h</text>
</a>
</g>
</g>
<!-- Node2&#45;&gt;Node3 -->
<g id="edge2" class="edge">
<title>Node2&#45;&gt;Node3</title>
<path fill="none" stroke="midnightblue" d="M1015.14,-224.44C1050.55,-215.16 1107.21,-200.31 1146.05,-190.13"/>
<polygon fill="midnightblue" stroke="midnightblue" points="1147.23,-193.44 1156.01,-187.52 1145.45,-186.67 1147.23,-193.44"/>
</g>
<!-- Node4 -->
<g id="node4" class="node">
<title>Node4</title>
<g id="a_node4"><a xlink:title=" ">
<polygon fill="white" stroke="#bfbfbf" points="1071,-112.5 1071,-131.5 1150,-131.5 1150,-112.5 1071,-112.5"/>
<text text-anchor="middle" x="1110.5" y="-119.5" font-family="Helvetica,sans-Serif" font-size="10.00">fmt/format.h</text>
</a>
</g>
</g>
<!-- Node2&#45;&gt;Node4 -->
<g id="edge11" class="edge">
<title>Node2&#45;&gt;Node4</title>
<path fill="none" stroke="midnightblue" d="M992.69,-224.4C1003.38,-215.37 1020.66,-200.73 1035.5,-188 1055.14,-171.15 1077.55,-151.7 1092.72,-138.5"/>
<polygon fill="midnightblue" stroke="midnightblue" points="1095.1,-141.07 1100.34,-131.86 1090.5,-135.79 1095.1,-141.07"/>
</g>
<!-- Node5 -->
<g id="node5" class="node">
<title>Node5</title>
<g id="a_node5"><a xlink:href="thread__ids_8h.html" target="_top" xlink:title=" ">
<polygon fill="white" stroke="black" points="1312.5,-168.5 1312.5,-187.5 1420.5,-187.5 1420.5,-168.5 1312.5,-168.5"/>
<text text-anchor="middle" x="1366.5" y="-175.5" font-family="Helvetica,sans-Serif" font-size="10.00">ccf/ds/thread_ids.h</text>
</a>
</g>
</g>
<!-- Node2&#45;&gt;Node5 -->
<g id="edge4" class="edge">
<title>Node2&#45;&gt;Node5</title>
<path fill="none" stroke="midnightblue" d="M1026.18,-226.86C1093.71,-217.36 1223.86,-199.06 1302.17,-188.05"/>
<polygon fill="midnightblue" stroke="midnightblue" points="1302.98,-191.47 1312.4,-186.61 1302.01,-184.53 1302.98,-191.47"/>
</g>
<!-- Node10 -->
<g id="node10" class="node">
<title>Node10</title>
<g id="a_node10"><a xlink:title=" ">
<polygon fill="white" stroke="#bfbfbf" points="630,-168.5 630,-187.5 709,-187.5 709,-168.5 630,-168.5"/>
<text text-anchor="middle" x="669.5" y="-175.5" font-family="Helvetica,sans-Serif" font-size="10.00">fmt/chrono.h</text>
</a>
</g>
</g>
<!-- Node2&#45;&gt;Node10 -->
<g id="edge10" class="edge">
<title>Node2&#45;&gt;Node10</title>
<path fill="none" stroke="midnightblue" d="M938.85,-225.82C888.29,-217.46 802.24,-203.06 718.92,-188.23"/>
<polygon fill="midnightblue" stroke="midnightblue" points="719.5,-184.78 709.04,-186.47 718.27,-191.67 719.5,-184.78"/>
</g>
<!-- Node11 -->
<g id="node11" class="node">
<title>Node11</title>
<g id="a_node11"><a xlink:title=" ">
<polygon fill="white" stroke="#bfbfbf" points="726.5,-168.5 726.5,-187.5 786.5,-187.5 786.5,-168.5 726.5,-168.5"/>
<text text-anchor="middle" x="756.5" y="-175.5" font-family="Helvetica,sans-Serif" font-size="10.00">iostream</text>
</a>
</g>
</g>
<!-- Node2&#45;&gt;Node11 -->
<g id="edge12" class="edge">
<title>Node2&#45;&gt;Node11</title>
<path fill="none" stroke="midnightblue" d="M946.69,-224.44C905.78,-214.67 839.03,-198.72 796.46,-188.55"/>
<polygon fill="midnightblue" stroke="midnightblue" points="797.26,-185.14 786.72,-186.22 795.63,-191.95 797.26,-185.14"/>
</g>
<!-- Node12 -->
<g id="node12" class="node">
<title>Node12</title>
<g id="a_node12"><a xlink:title=" ">
<polygon fill="white" stroke="#bfbfbf" points="804.5,-168.5 804.5,-187.5 914.5,-187.5 914.5,-168.5 804.5,-168.5"/>
<text text-anchor="middle" x="859.5" y="-175.5" font-family="Helvetica,sans-Serif" font-size="10.00">nlohmann/json.hpp</text>
</a>
</g>
</g>
<!-- Node2&#45;&gt;Node12 -->
<g id="edge13" class="edge">
<title>Node2&#45;&gt;Node12</title>
<path fill="none" stroke="midnightblue" d="M963.01,-224.44C942.86,-215.6 911.18,-201.69 888.17,-191.59"/>
<polygon fill="midnightblue" stroke="midnightblue" points="889.46,-188.33 878.9,-187.52 886.65,-194.74 889.46,-188.33"/>
</g>
<!-- Node13 -->
<g id="node13" class="node">
<title>Node13</title>
<g id="a_node13"><a xlink:title=" ">
<polygon fill="white" stroke="#bfbfbf" points="928.5,-112.5 928.5,-131.5 984.5,-131.5 984.5,-112.5 928.5,-112.5"/>
<text text-anchor="middle" x="956.5" y="-119.5" font-family="Helvetica,sans-Serif" font-size="10.00">optional</text>
</a>
</g>
</g>
<!-- Node2&#45;&gt;Node13 -->
<g id="edge14" class="edge">
<title>Node2&#45;&gt;Node13</title>
<path fill="none" stroke="midnightblue" d="M977.33,-224.39C972.33,-215.58 965,-201.34 961.5,-188 957.5,-172.76 956.37,-154.87 956.17,-141.72"/>
<polygon fill="midnightblue" stroke="midnightblue" points="959.67,-141.58 956.19,-131.57 952.67,-141.57 959.67,-141.58"/>
</g>
<!-- Node14 -->
<g id="node14" class="node">
<title>Node14</title>
<g id="a_node14"><a xlink:title=" ">
<polygon fill="white" stroke="#bfbfbf" points="970.5,-168.5 970.5,-187.5 1026.5,-187.5 1026.5,-168.5 970.5,-168.5"/>
<text text-anchor="middle" x="998.5" y="-175.5" font-family="Helvetica,sans-Serif" font-size="10.00">sstream</text>
</a>
</g>
</g>
<!-- Node2&#45;&gt;Node14 -->
<g id="edge15" class="edge">
<title>Node2&#45;&gt;Node14</title>
<path fill="none" stroke="midnightblue" d="M985.14,-224.08C987.29,-216.85 990.38,-206.41 993.05,-197.4"/>
<polygon fill="midnightblue" stroke="midnightblue" points="996.42,-198.33 995.91,-187.75 989.71,-196.34 996.42,-198.33"/>
</g>
<!-- Node15 -->
<g id="node15" class="node">
<title>Node15</title>
<g id="a_node15"><a xlink:title=" ">
<polygon fill="white" stroke="#bfbfbf" points="1120,-0.5 1120,-19.5 1189,-19.5 1189,-0.5 1120,-0.5"/>
<text text-anchor="middle" x="1154.5" y="-7.5" font-family="Helvetica,sans-Serif" font-size="10.00">type_traits</text>
</a>
</g>
</g>
<!-- Node2&#45;&gt;Node15 -->
<g id="edge16" class="edge">
<title>Node2&#45;&gt;Node15</title>
<path fill="none" stroke="midnightblue" d="M1026.24,-231.86C1133.5,-228.61 1402.75,-217.57 1429.5,-188 1452.16,-162.95 1448.83,-139.7 1429.5,-112 1377.24,-37.14 1263.06,-17.6 1199.49,-12.61"/>
<polygon fill="midnightblue" stroke="midnightblue" points="1199.58,-9.11 1189.36,-11.91 1199.09,-16.09 1199.58,-9.11"/>
</g>
<!-- Node3&#45;&gt;Node4 -->
<g id="edge3" class="edge">
<title>Node3&#45;&gt;Node4</title>
<path fill="none" stroke="midnightblue" d="M1175.97,-168.32C1163.91,-159.98 1145.47,-147.21 1131.23,-137.35"/>
<polygon fill="midnightblue" stroke="midnightblue" points="1133.22,-134.47 1123,-131.65 1129.23,-140.22 1133.22,-134.47"/>
</g>
<!-- Node5&#45;&gt;Node4 -->
<g id="edge5" class="edge">
<title>Node5&#45;&gt;Node4</title>
<path fill="none" stroke="midnightblue" d="M1325.94,-168.44C1280.92,-158.95 1208.27,-143.62 1159.95,-133.43"/>
<polygon fill="midnightblue" stroke="midnightblue" points="1160.54,-129.98 1150.03,-131.34 1159.1,-136.83 1160.54,-129.98"/>
</g>
<!-- Node6 -->
<g id="node6" class="node">
<title>Node6</title>
<g id="a_node6"><a xlink:title=" ">
<polygon fill="white" stroke="#bfbfbf" points="1334.5,-112.5 1334.5,-131.5 1420.5,-131.5 1420.5,-112.5 1334.5,-112.5"/>
<text text-anchor="middle" x="1377.5" y="-119.5" font-family="Helvetica,sans-Serif" font-size="10.00">fmt/ostream.h</text>
</a>
</g>
</g>
<!-- Node5&#45;&gt;Node6 -->
<g id="edge6" class="edge">
<title>Node5&#45;&gt;Node6</title>
<path fill="none" stroke="midnightblue" d="M1368.32,-168.08C1369.77,-160.93 1371.87,-150.64 1373.69,-141.69"/>
<polygon fill="midnightblue" stroke="midnightblue" points="1377.15,-142.25 1375.72,-131.75 1370.29,-140.85 1377.15,-142.25"/>
</g>
<!-- Node7 -->
<g id="node7" class="node">
<title>Node7</title>
<g id="a_node7"><a xlink:title=" ">
<polygon fill="white" stroke="#bfbfbf" points="1206.5,-112.5 1206.5,-131.5 1250.5,-131.5 1250.5,-112.5 1206.5,-112.5"/>
<text text-anchor="middle" x="1228.5" y="-119.5" font-family="Helvetica,sans-Serif" font-size="10.00">limits</text>
</a>
</g>
</g>
<!-- Node5&#45;&gt;Node7 -->
<g id="edge7" class="edge">
<title>Node5&#45;&gt;Node7</title>
<path fill="none" stroke="midnightblue" d="M1344.63,-168.44C1321.72,-159.48 1285.52,-145.31 1259.63,-135.18"/>
<polygon fill="midnightblue" stroke="midnightblue" points="1260.85,-131.9 1250.26,-131.52 1258.3,-138.42 1260.85,-131.9"/>
</g>
<!-- Node5&#45;&gt;Node8 -->
<g id="edge8" class="edge">
<title>Node5&#45;&gt;Node8</title>
<path fill="none" stroke="midnightblue" d="M1386.94,-168.44C1408.55,-159.4 1442.78,-145.07 1467.03,-134.92"/>
<polygon fill="midnightblue" stroke="midnightblue" points="1468.54,-138.08 1476.42,-130.99 1465.84,-131.62 1468.54,-138.08"/>
</g>
<!-- Node9 -->
<g id="node9" class="node">
<title>Node9</title>
<g id="a_node9"><a xlink:title=" ">
<polygon fill="white" stroke="#bfbfbf" points="1268.5,-112.5 1268.5,-131.5 1316.5,-131.5 1316.5,-112.5 1268.5,-112.5"/>
<text text-anchor="middle" x="1292.5" y="-119.5" font-family="Helvetica,sans-Serif" font-size="10.00">thread</text>
</a>
</g>
</g>
<!-- Node5&#45;&gt;Node9 -->
<g id="edge9" class="edge">
<title>Node5&#45;&gt;Node9</title>
<path fill="none" stroke="midnightblue" d="M1354.61,-168.32C1343.35,-160.11 1326.21,-147.6 1312.79,-137.81"/>
<polygon fill="midnightblue" stroke="midnightblue" points="1314.75,-134.9 1304.61,-131.83 1310.62,-140.56 1314.75,-134.9"/>
</g>
<!-- Node17 -->
<g id="node17" class="node">
<title>Node17</title>
<g id="a_node17"><a xlink:href="pal_8h.html" target="_top" xlink:title=" ">
<polygon fill="white" stroke="black" points="55.5,-56.5 55.5,-75.5 127.5,-75.5 127.5,-56.5 55.5,-56.5"/>
<text text-anchor="middle" x="91.5" y="-63.5" font-family="Helvetica,sans-Serif" font-size="10.00">ccf/ds/pal.h</text>
</a>
</g>
</g>
<!-- Node16&#45;&gt;Node17 -->
<g id="edge18" class="edge">
<title>Node16&#45;&gt;Node17</title>
<path fill="none" stroke="midnightblue" d="M434.78,-232.48C357.27,-230.69 186.64,-222.81 141.5,-188 109.05,-162.98 97.51,-113.21 93.52,-85.94"/>
<polygon fill="midnightblue" stroke="midnightblue" points="96.96,-85.25 92.23,-75.77 90.02,-86.13 96.96,-85.25"/>
</g>
<!-- Node20 -->
<g id="node20" class="node">
<title>Node20</title>
<g id="a_node20"><a xlink:title=" ">
<polygon fill="white" stroke="#bfbfbf" points="133.5,-0.5 133.5,-19.5 183.5,-19.5 183.5,-0.5 133.5,-0.5"/>
<text text-anchor="middle" x="158.5" y="-7.5" font-family="Helvetica,sans-Serif" font-size="10.00">cstring</text>
</a>
</g>
</g>
<!-- Node16&#45;&gt;Node20 -->
<g id="edge58" class="edge">
<title>Node16&#45;&gt;Node20</title>
<path fill="none" stroke="midnightblue" d="M437.57,-224.5C374.27,-207.59 243.09,-163.59 174.5,-76 164.1,-62.72 160.35,-43.59 159.05,-29.53"/>
<polygon fill="midnightblue" stroke="midnightblue" points="162.54,-29.31 158.46,-19.54 155.56,-29.73 162.54,-29.31"/>
</g>
<!-- Node22 -->
<g id="node22" class="node">
<title>Node22</title>
<g id="a_node22"><a xlink:href="ring__buffer__types_8h.html" target="_top" xlink:title=" ">
<polygon fill="white" stroke="black" points="418.5,-168.5 418.5,-187.5 528.5,-187.5 528.5,-168.5 418.5,-168.5"/>
<text text-anchor="middle" x="473.5" y="-175.5" font-family="Helvetica,sans-Serif" font-size="10.00">ring_buffer_types.h</text>
</a>
</g>
</g>
<!-- Node16&#45;&gt;Node22 -->
<g id="edge23" class="edge">
<title>Node16&#45;&gt;Node22</title>
<path fill="none" stroke="midnightblue" d="M473.5,-224.08C473.5,-217.01 473.5,-206.86 473.5,-197.99"/>
<polygon fill="midnightblue" stroke="midnightblue" points="477,-197.75 473.5,-187.75 470,-197.75 477,-197.75"/>
</g>
<!-- Node40 -->
<g id="node40" class="node">
<title>Node40</title>
<g id="a_node40"><a xlink:title=" ">
<polygon fill="white" stroke="#bfbfbf" points="547,-168.5 547,-187.5 612,-187.5 612,-168.5 547,-168.5"/>
<text text-anchor="middle" x="579.5" y="-175.5" font-family="Helvetica,sans-Serif" font-size="10.00">functional</text>
</a>
</g>
</g>
<!-- Node16&#45;&gt;Node40 -->
<g id="edge59" class="edge">
<title>Node16&#45;&gt;Node40</title>
<path fill="none" stroke="midnightblue" d="M490.53,-224.32C507.53,-215.66 533.88,-202.24 553.49,-192.25"/>
<polygon fill="midnightblue" stroke="midnightblue" points="555.19,-195.31 562.51,-187.65 552.01,-189.08 555.19,-195.31"/>
</g>
<!-- Node18 -->
<g id="node18" class="node">
<title>Node18</title>
<g id="a_node18"><a xlink:title=" ">
<polygon fill="white" stroke="#bfbfbf" points="362.5,-0.5 362.5,-19.5 412.5,-19.5 412.5,-0.5 362.5,-0.5"/>
<text text-anchor="middle" x="387.5" y="-7.5" font-family="Helvetica,sans-Serif" font-size="10.00">cstdint</text>
</a>
</g>
</g>
<!-- Node17&#45;&gt;Node18 -->
<g id="edge19" class="edge">
<title>Node17&#45;&gt;Node18</title>
<path fill="none" stroke="midnightblue" d="M127.8,-58.38C185.06,-47.93 295.65,-27.76 352.25,-17.43"/>
<polygon fill="midnightblue" stroke="midnightblue" points="352.96,-20.86 362.17,-15.62 351.7,-13.97 352.96,-20.86"/>
</g>
<!-- Node19 -->
<g id="node19" class="node">
<title>Node19</title>
<g id="a_node19"><a xlink:title=" ">
<polygon fill="white" stroke="#bfbfbf" points="0,-0.5 0,-19.5 49,-19.5 49,-0.5 0,-0.5"/>
<text text-anchor="middle" x="24.5" y="-7.5" font-family="Helvetica,sans-Serif" font-size="10.00">cstdlib</text>
</a>
</g>
</g>
<!-- Node17&#45;&gt;Node19 -->
<g id="edge20" class="edge">
<title>Node17&#45;&gt;Node19</title>
<path fill="none" stroke="midnightblue" d="M80.74,-56.32C70.73,-48.26 55.61,-36.08 43.57,-26.37"/>
<polygon fill="midnightblue" stroke="midnightblue" points="45.44,-23.38 35.46,-19.83 41.05,-28.83 45.44,-23.38"/>
</g>
<!-- Node17&#45;&gt;Node20 -->
<g id="edge21" class="edge">
<title>Node17&#45;&gt;Node20</title>
<path fill="none" stroke="midnightblue" d="M102.26,-56.32C112.27,-48.26 127.39,-36.08 139.43,-26.37"/>
<polygon fill="midnightblue" stroke="midnightblue" points="141.95,-28.83 147.54,-19.83 137.56,-23.38 141.95,-28.83"/>
</g>
<!-- Node21 -->
<g id="node21" class="node">
<title>Node21</title>
<g id="a_node21"><a xlink:title=" ">
<polygon fill="white" stroke="#bfbfbf" points="67.5,-0.5 67.5,-19.5 115.5,-19.5 115.5,-0.5 67.5,-0.5"/>
<text text-anchor="middle" x="91.5" y="-7.5" font-family="Helvetica,sans-Serif" font-size="10.00">mutex</text>
</a>
</g>
</g>
<!-- Node17&#45;&gt;Node21 -->
<g id="edge22" class="edge">
<title>Node17&#45;&gt;Node21</title>
<path fill="none" stroke="midnightblue" d="M91.5,-56.08C91.5,-49.01 91.5,-38.86 91.5,-29.99"/>
<polygon fill="midnightblue" stroke="midnightblue" points="95,-29.75 91.5,-19.75 88,-29.75 95,-29.75"/>
</g>
<!-- Node22&#45;&gt;Node4 -->
<g id="edge54" class="edge">
<title>Node22&#45;&gt;Node4</title>
<path fill="none" stroke="midnightblue" d="M528.63,-168.99C531.63,-168.64 534.6,-168.3 537.5,-168 766.39,-144.07 828.15,-160.65 1060.85,-131.92"/>
<polygon fill="midnightblue" stroke="midnightblue" points="1061.49,-135.37 1070.98,-130.66 1060.62,-128.42 1061.49,-135.37"/>
</g>
<!-- Node22&#45;&gt;Node13 -->
<g id="edge55" class="edge">
<title>Node22&#45;&gt;Node13</title>
<path fill="none" stroke="midnightblue" d="M528.64,-169.09C531.63,-168.71 534.6,-168.34 537.5,-168 704.66,-148.28 748.15,-157.68 914.5,-132 915.74,-131.81 917.01,-131.6 918.28,-131.39"/>
<polygon fill="midnightblue" stroke="midnightblue" points="918.93,-134.82 928.12,-129.55 917.64,-127.94 918.93,-134.82"/>
</g>
<!-- Node23 -->
<g id="node23" class="node">
<title>Node23</title>
<g id="a_node23"><a xlink:href="include_2ccf_2ds_2hash_8h.html" target="_top" xlink:title=" ">
<polygon fill="white" stroke="black" points="433.5,-112.5 433.5,-131.5 513.5,-131.5 513.5,-112.5 433.5,-112.5"/>
<text text-anchor="middle" x="473.5" y="-119.5" font-family="Helvetica,sans-Serif" font-size="10.00">ccf/ds/hash.h</text>
</a>
</g>
</g>
<!-- Node22&#45;&gt;Node23 -->
<g id="edge24" class="edge">
<title>Node22&#45;&gt;Node23</title>
<path fill="none" stroke="midnightblue" d="M473.5,-168.08C473.5,-161.01 473.5,-150.86 473.5,-141.99"/>
<polygon fill="midnightblue" stroke="midnightblue" points="477,-141.75 473.5,-131.75 470,-141.75 477,-141.75"/>
</g>
<!-- Node26 -->
<g id="node26" class="node">
<title>Node26</title>
<g id="a_node26"><a xlink:title=" ">
<polygon fill="white" stroke="#bfbfbf" points="559,-0.5 559,-19.5 606,-19.5 606,-0.5 559,-0.5"/>
<text text-anchor="middle" x="582.5" y="-7.5" font-family="Helvetica,sans-Serif" font-size="10.00">vector</text>
</a>
</g>
</g>
<!-- Node22&#45;&gt;Node26 -->
<g id="edge57" class="edge">
<title>Node22&#45;&gt;Node26</title>
<path fill="none" stroke="midnightblue" d="M485.14,-168.36C495.85,-159.97 511.68,-146.41 522.5,-132 547.4,-98.85 566.53,-53.76 575.98,-29.05"/>
<polygon fill="midnightblue" stroke="midnightblue" points="579.32,-30.11 579.53,-19.52 572.76,-27.67 579.32,-30.11"/>
</g>
<!-- Node29 -->
<g id="node29" class="node">
<title>Node29</title>
<g id="a_node29"><a xlink:href="nonstd_8h.html" target="_top" xlink:title=" ">
<polygon fill="white" stroke="black" points="957.5,-56.5 957.5,-75.5 1047.5,-75.5 1047.5,-56.5 957.5,-56.5"/>
<text text-anchor="middle" x="1002.5" y="-63.5" font-family="Helvetica,sans-Serif" font-size="10.00">ccf/ds/nonstd.h</text>
</a>
</g>
</g>
<!-- Node22&#45;&gt;Node29 -->
<g id="edge33" class="edge">
<title>Node22&#45;&gt;Node29</title>
<path fill="none" stroke="midnightblue" d="M528.64,-169.12C531.64,-168.73 534.6,-168.36 537.5,-168 687.87,-149.45 731.36,-175.48 876.5,-132 887.01,-128.85 943.96,-98.58 977.6,-80.48"/>
<polygon fill="midnightblue" stroke="midnightblue" points="979.26,-83.55 986.41,-75.73 975.94,-77.39 979.26,-83.55"/>
</g>
<!-- Node32 -->
<g id="node32" class="node">
<title>Node32</title>
<g id="a_node32"><a xlink:title=" ">
<polygon fill="white" stroke="#bfbfbf" points="756.5,-0.5 756.5,-19.5 800.5,-19.5 800.5,-0.5 756.5,-0.5"/>
<text text-anchor="middle" x="778.5" y="-7.5" font-family="Helvetica,sans-Serif" font-size="10.00">string</text>
</a>
</g>
</g>
<!-- Node22&#45;&gt;Node32 -->
<g id="edge56" class="edge">
<title>Node22&#45;&gt;Node32</title>
<path fill="none" stroke="midnightblue" d="M528.65,-169.21C531.65,-168.8 534.61,-168.39 537.5,-168 658.76,-151.48 699.4,-183.34 810.5,-132 850.07,-113.71 895.73,-92.88 872.5,-56 865.34,-44.63 834.84,-31.31 810.5,-22.12"/>
<polygon fill="midnightblue" stroke="midnightblue" points="811.46,-18.75 800.87,-18.58 809.04,-25.31 811.46,-18.75"/>
</g>
<!-- Node34 -->
<g id="node34" class="node">
<title>Node34</title>
<g id="a_node34"><a xlink:href="serializer_8h.html" target="_top" xlink:title=" ">
<polygon fill="white" stroke="black" points="731.5,-112.5 731.5,-131.5 801.5,-131.5 801.5,-112.5 731.5,-112.5"/>
<text text-anchor="middle" x="766.5" y="-119.5" font-family="Helvetica,sans-Serif" font-size="10.00">serializer.h</text>
</a>
</g>
</g>
<!-- Node22&#45;&gt;Node34 -->
<g id="edge41" class="edge">
<title>Node22&#45;&gt;Node34</title>
<path fill="none" stroke="midnightblue" d="M519.93,-168.44C575.11,-158.27 666.57,-141.42 721.23,-131.34"/>
<polygon fill="midnightblue" stroke="midnightblue" points="722.13,-134.74 731.33,-129.48 720.86,-127.85 722.13,-134.74"/>
</g>
<!-- Node22&#45;&gt;Node39 -->
<g id="edge53" class="edge">
<title>Node22&#45;&gt;Node39</title>
<path fill="none" stroke="midnightblue" d="M528.63,-169.03C531.63,-168.66 534.6,-168.32 537.5,-168 736.33,-146.19 791.33,-165.51 992.36,-131.89"/>
<polygon fill="midnightblue" stroke="midnightblue" points="993.09,-135.32 1002.36,-130.19 991.92,-128.42 993.09,-135.32"/>
</g>
<!-- Node23&#45;&gt;Node18 -->
<g id="edge30" class="edge">
<title>Node23&#45;&gt;Node18</title>
<path fill="none" stroke="midnightblue" d="M472.82,-112.17C471.41,-98.84 467.14,-73.27 454.5,-56 444.68,-42.59 429.58,-31.94 416.19,-24.38"/>
<polygon fill="midnightblue" stroke="midnightblue" points="417.76,-21.25 407.29,-19.64 414.47,-27.43 417.76,-21.25"/>
</g>
<!-- Node24 -->
<g id="node24" class="node">
<title>Node24</title>
<g id="a_node24"><a xlink:href="siphash_8h.html" target="_top" xlink:title=" ">
<polygon fill="white" stroke="black" points="184,-56.5 184,-75.5 279,-75.5 279,-56.5 184,-56.5"/>
<text text-anchor="middle" x="231.5" y="-63.5" font-family="Helvetica,sans-Serif" font-size="10.00">ccf/ds/siphash.h</text>
</a>
</g>
</g>
<!-- Node23&#45;&gt;Node24 -->
<g id="edge25" class="edge">
<title>Node23&#45;&gt;Node24</title>
<path fill="none" stroke="midnightblue" d="M435.15,-112.44C393.03,-103.04 325.29,-87.93 279.63,-77.74"/>
<polygon fill="midnightblue" stroke="midnightblue" points="280.19,-74.28 269.67,-75.52 278.66,-81.11 280.19,-74.28"/>
</g>
<!-- Node23&#45;&gt;Node26 -->
<g id="edge32" class="edge">
<title>Node23&#45;&gt;Node26</title>
<path fill="none" stroke="midnightblue" d="M481.41,-112.47C493.07,-99.93 515.67,-75.87 535.5,-56 545.5,-45.98 556.97,-34.99 566.08,-26.38"/>
<polygon fill="midnightblue" stroke="midnightblue" points="568.49,-28.91 573.37,-19.51 563.69,-23.81 568.49,-28.91"/>
</g>
<!-- Node27 -->
<g id="node27" class="node">
<title>Node27</title>
<g id="a_node27"><a xlink:title=" ">
<polygon fill="white" stroke="#bfbfbf" points="818.5,-0.5 818.5,-19.5 860.5,-19.5 860.5,-0.5 818.5,-0.5"/>
<text text-anchor="middle" x="839.5" y="-7.5" font-family="Helvetica,sans-Serif" font-size="10.00">array</text>
</a>
</g>
</g>
<!-- Node23&#45;&gt;Node27 -->
<g id="edge29" class="edge">
<title>Node23&#45;&gt;Node27</title>
<path fill="none" stroke="midnightblue" d="M513.75,-112.59C551.65,-104.36 609.86,-90.92 659.5,-76 712.87,-59.96 773.58,-37.04 809.09,-23.13"/>
<polygon fill="midnightblue" stroke="midnightblue" points="810.39,-26.38 818.42,-19.46 807.83,-19.87 810.39,-26.38"/>
</g>
<!-- Node28 -->
<g id="node28" class="node">
<title>Node28</title>
<g id="a_node28"><a xlink:title=" ">
<polygon fill="white" stroke="#bfbfbf" points="297,-56.5 297,-75.5 446,-75.5 446,-56.5 297,-56.5"/>
<text text-anchor="middle" x="371.5" y="-63.5" font-family="Helvetica,sans-Serif" font-size="10.00">small_vector/SmallVector.h</text>
</a>
</g>
</g>
<!-- Node23&#45;&gt;Node28 -->
<g id="edge31" class="edge">
<title>Node23&#45;&gt;Node28</title>
<path fill="none" stroke="midnightblue" d="M457.11,-112.32C440.83,-103.7 415.63,-90.36 396.78,-80.39"/>
<polygon fill="midnightblue" stroke="midnightblue" points="398.32,-77.24 387.85,-75.65 395.05,-83.43 398.32,-77.24"/>
</g>
<!-- Node24&#45;&gt;Node18 -->
<g id="edge27" class="edge">
<title>Node24&#45;&gt;Node18</title>
<path fill="none" stroke="midnightblue" d="M256.22,-56.44C282.35,-47.4 323.76,-33.06 353.08,-22.92"/>
<polygon fill="midnightblue" stroke="midnightblue" points="354.59,-26.1 362.9,-19.52 352.3,-19.48 354.59,-26.1"/>
</g>
<!-- Node25 -->
<g id="node25" class="node">
<title>Node25</title>
<g id="a_node25"><a xlink:title=" ">
<polygon fill="white" stroke="#bfbfbf" points="205,-0.5 205,-19.5 258,-19.5 258,-0.5 205,-0.5"/>
<text text-anchor="middle" x="231.5" y="-7.5" font-family="Helvetica,sans-Serif" font-size="10.00">cstddef</text>
</a>
</g>
</g>
<!-- Node24&#45;&gt;Node25 -->
<g id="edge26" class="edge">
<title>Node24&#45;&gt;Node25</title>
<path fill="none" stroke="midnightblue" d="M231.5,-56.08C231.5,-49.01 231.5,-38.86 231.5,-29.99"/>
<polygon fill="midnightblue" stroke="midnightblue" points="235,-29.75 231.5,-19.75 228,-29.75 235,-29.75"/>
</g>
<!-- Node24&#45;&gt;Node26 -->
<g id="edge28" class="edge">
<title>Node24&#45;&gt;Node26</title>
<path fill="none" stroke="midnightblue" d="M279.15,-57.31C281.98,-56.87 284.78,-56.43 287.5,-56 382.03,-41.19 493.7,-24.33 548.59,-16.08"/>
<polygon fill="midnightblue" stroke="midnightblue" points="549.41,-19.5 558.78,-14.55 548.37,-12.58 549.41,-19.5"/>
</g>
<!-- Node29&#45;&gt;Node15 -->
<g id="edge39" class="edge">
<title>Node29&#45;&gt;Node15</title>
<path fill="none" stroke="midnightblue" d="M1026.58,-56.44C1052.04,-47.4 1092.39,-33.06 1120.96,-22.92"/>
<polygon fill="midnightblue" stroke="midnightblue" points="1122.28,-26.16 1130.53,-19.52 1119.93,-19.57 1122.28,-26.16"/>
</g>
<!-- Node29&#45;&gt;Node26 -->
<g id="edge40" class="edge">
<title>Node29&#45;&gt;Node26</title>
<path fill="none" stroke="midnightblue" d="M957.15,-59.17C872.44,-48.28 691.94,-25.07 616.62,-15.39"/>
<polygon fill="midnightblue" stroke="midnightblue" points="616.66,-11.86 606.3,-14.06 615.77,-18.81 616.66,-11.86"/>
</g>
<!-- Node29&#45;&gt;Node27 -->
<g id="edge35" class="edge">
<title>Node29&#45;&gt;Node27</title>
<path fill="none" stroke="midnightblue" d="M976.67,-56.44C947.8,-46.88 901.07,-31.4 870.31,-21.21"/>
<polygon fill="midnightblue" stroke="midnightblue" points="871.14,-17.79 860.54,-17.97 868.93,-24.44 871.14,-17.79"/>
</g>
<!-- Node30 -->
<g id="node30" class="node">
<title>Node30</title>
<g id="a_node30"><a xlink:title=" ">
<polygon fill="white" stroke="#bfbfbf" points="970.5,-0.5 970.5,-19.5 1034.5,-19.5 1034.5,-0.5 970.5,-0.5"/>
<text text-anchor="middle" x="1002.5" y="-7.5" font-family="Helvetica,sans-Serif" font-size="10.00">algorithm</text>
</a>
</g>
</g>
<!-- Node29&#45;&gt;Node30 -->
<g id="edge34" class="edge">
<title>Node29&#45;&gt;Node30</title>
<path fill="none" stroke="midnightblue" d="M1002.5,-56.08C1002.5,-49.01 1002.5,-38.86 1002.5,-29.99"/>
<polygon fill="midnightblue" stroke="midnightblue" points="1006,-29.75 1002.5,-19.75 999,-29.75 1006,-29.75"/>
</g>
<!-- Node31 -->
<g id="node31" class="node">
<title>Node31</title>
<g id="a_node31"><a xlink:title=" ">
<polygon fill="white" stroke="#bfbfbf" points="1053,-0.5 1053,-19.5 1102,-19.5 1102,-0.5 1053,-0.5"/>
<text text-anchor="middle" x="1077.5" y="-7.5" font-family="Helvetica,sans-Serif" font-size="10.00">cctype</text>
</a>
</g>
</g>
<!-- Node29&#45;&gt;Node31 -->
<g id="edge36" class="edge">
<title>Node29&#45;&gt;Node31</title>
<path fill="none" stroke="midnightblue" d="M1014.55,-56.32C1025.96,-48.11 1043.33,-35.6 1056.93,-25.81"/>
<polygon fill="midnightblue" stroke="midnightblue" points="1059.16,-28.52 1065.23,-19.83 1055.07,-22.84 1059.16,-28.52"/>
</g>
<!-- Node29&#45;&gt;Node32 -->
<g id="edge37" class="edge">
<title>Node29&#45;&gt;Node32</title>
<path fill="none" stroke="midnightblue" d="M963.17,-56.48C926.12,-48.3 868.86,-35.3 810.56,-20.18"/>
<polygon fill="midnightblue" stroke="midnightblue" points="811.37,-16.77 800.81,-17.63 809.6,-23.55 811.37,-16.77"/>
</g>
<!-- Node33 -->
<g id="node33" class="node">
<title>Node33</title>
<g id="a_node33"><a xlink:title=" ">
<polygon fill="white" stroke="#bfbfbf" points="879,-0.5 879,-19.5 952,-19.5 952,-0.5 879,-0.5"/>
<text text-anchor="middle" x="915.5" y="-7.5" font-family="Helvetica,sans-Serif" font-size="10.00">string_view</text>
</a>
</g>
</g>
<!-- Node29&#45;&gt;Node33 -->
<g id="edge38" class="edge">
<title>Node29&#45;&gt;Node33</title>
<path fill="none" stroke="midnightblue" d="M988.52,-56.32C974.95,-47.9 954.12,-34.97 938.18,-25.07"/>
<polygon fill="midnightblue" stroke="midnightblue" points="939.79,-21.95 929.44,-19.65 936.09,-27.9 939.79,-21.95"/>
</g>
<!-- Node34&#45;&gt;Node15 -->
<g id="edge51" class="edge">
<title>Node34&#45;&gt;Node15</title>
<path fill="none" stroke="midnightblue" d="M801.67,-120.36C857.52,-118.31 969.09,-109.88 1056.5,-76 1087.23,-64.09 1118.17,-41.35 1136.84,-26.18"/>
<polygon fill="midnightblue" stroke="midnightblue" points="1139.29,-28.7 1144.74,-19.61 1134.81,-23.32 1139.29,-28.7"/>
</g>
<!-- Node34&#45;&gt;Node26 -->
<g id="edge52" class="edge">
<title>Node34&#45;&gt;Node26</title>
<path fill="none" stroke="midnightblue" d="M752.35,-112.3C731.92,-99.76 692.92,-75.92 659.5,-56 641.66,-45.37 621.37,-33.52 606.1,-24.65"/>
<polygon fill="midnightblue" stroke="midnightblue" points="607.71,-21.54 597.31,-19.55 604.2,-27.6 607.71,-21.54"/>
</g>
<!-- Node34&#45;&gt;Node29 -->
<g id="edge42" class="edge">
<title>Node34&#45;&gt;Node29</title>
<path fill="none" stroke="midnightblue" d="M801.58,-112.97C842.4,-103.63 910.01,-88.16 955.39,-77.78"/>
<polygon fill="midnightblue" stroke="midnightblue" points="956.31,-81.16 965.28,-75.52 954.75,-74.33 956.31,-81.16"/>
</g>
<!-- Node35 -->
<g id="node35" class="node">
<title>Node35</title>
<g id="a_node35"><a xlink:href="serialized_8h.html" target="_top" xlink:title=" ">
<polygon fill="white" stroke="black" points="578,-56.5 578,-75.5 651,-75.5 651,-56.5 578,-56.5"/>
<text text-anchor="middle" x="614.5" y="-63.5" font-family="Helvetica,sans-Serif" font-size="10.00">serialized.h</text>
</a>
</g>
</g>
<!-- Node34&#45;&gt;Node35 -->
<g id="edge43" class="edge">
<title>Node34&#45;&gt;Node35</title>
<path fill="none" stroke="midnightblue" d="M742.42,-112.44C716.96,-103.4 676.61,-89.06 648.04,-78.92"/>
<polygon fill="midnightblue" stroke="midnightblue" points="649.07,-75.57 638.47,-75.52 646.72,-82.16 649.07,-75.57"/>
</g>
<!-- Node37 -->
<g id="node37" class="node">
<title>Node37</title>
<g id="a_node37"><a xlink:title=" ">
<polygon fill="white" stroke="#bfbfbf" points="805.5,-56.5 805.5,-75.5 863.5,-75.5 863.5,-56.5 805.5,-56.5"/>
<text text-anchor="middle" x="834.5" y="-63.5" font-family="Helvetica,sans-Serif" font-size="10.00">memory</text>
</a>
</g>
</g>
<!-- Node34&#45;&gt;Node37 -->
<g id="edge49" class="edge">
<title>Node34&#45;&gt;Node37</title>
<path fill="none" stroke="midnightblue" d="M777.43,-112.32C787.67,-104.18 803.22,-91.84 815.5,-82.09"/>
<polygon fill="midnightblue" stroke="midnightblue" points="817.72,-84.79 823.38,-75.83 813.37,-79.31 817.72,-84.79"/>
</g>
<!-- Node38 -->
<g id="node38" class="node">
<title>Node38</title>
<g id="a_node38"><a xlink:title=" ">
<polygon fill="white" stroke="#bfbfbf" points="746,-56.5 746,-75.5 787,-75.5 787,-56.5 746,-56.5"/>
<text text-anchor="middle" x="766.5" y="-63.5" font-family="Helvetica,sans-Serif" font-size="10.00">tuple</text>
</a>
</g>
</g>
<!-- Node34&#45;&gt;Node38 -->
<g id="edge50" class="edge">
<title>Node34&#45;&gt;Node38</title>
<path fill="none" stroke="midnightblue" d="M766.5,-112.08C766.5,-105.01 766.5,-94.86 766.5,-85.99"/>
<polygon fill="midnightblue" stroke="midnightblue" points="770,-85.75 766.5,-75.75 763,-85.75 770,-85.75"/>
</g>
<!-- Node35&#45;&gt;Node18 -->
<g id="edge44" class="edge">
<title>Node35&#45;&gt;Node18</title>
<path fill="none" stroke="midnightblue" d="M578.53,-56.44C535.8,-46.28 464.98,-29.43 422.62,-19.36"/>
<polygon fill="midnightblue" stroke="midnightblue" points="423.3,-15.92 412.76,-17.01 421.68,-22.73 423.3,-15.92"/>
</g>
<!-- Node35&#45;&gt;Node20 -->
<g id="edge45" class="edge">
<title>Node35&#45;&gt;Node20</title>
<path fill="none" stroke="midnightblue" d="M577.84,-62.69C504.72,-57.73 335.68,-44.47 195.5,-20 194.91,-19.9 194.32,-19.79 193.72,-19.68"/>
<polygon fill="midnightblue" stroke="midnightblue" points="194.39,-16.24 183.88,-17.64 192.97,-23.1 194.39,-16.24"/>
</g>
<!-- Node35&#45;&gt;Node26 -->
<g id="edge48" class="edge">
<title>Node35&#45;&gt;Node26</title>
<path fill="none" stroke="midnightblue" d="M609.22,-56.08C604.79,-48.61 598.34,-37.72 592.88,-28.52"/>
<polygon fill="midnightblue" stroke="midnightblue" points="595.79,-26.57 587.69,-19.75 589.77,-30.14 595.79,-26.57"/>
</g>
<!-- Node35&#45;&gt;Node32 -->
<g id="edge47" class="edge">
<title>Node35&#45;&gt;Node32</title>
<path fill="none" stroke="midnightblue" d="M640.49,-56.44C669.21,-46.99 715.51,-31.74 746.46,-21.55"/>
<polygon fill="midnightblue" stroke="midnightblue" points="747.91,-24.76 756.32,-18.3 745.72,-18.11 747.91,-24.76"/>
</g>
<!-- Node35&#45;&gt;Node36 -->
<g id="edge46" class="edge">
<title>Node35&#45;&gt;Node36</title>
<path fill="none" stroke="midnightblue" d="M627.84,-56.32C640.66,-47.98 660.28,-35.21 675.44,-25.35"/>
<polygon fill="midnightblue" stroke="midnightblue" points="677.72,-28.04 684.2,-19.65 673.91,-22.17 677.72,-28.04"/>
</g>
</g>
</svg>
