<?xml version="1.0" encoding="UTF-8" standalone="no"?>
<!DOCTYPE svg PUBLIC "-//W3C//DTD SVG 1.1//EN"
 "http://www.w3.org/Graphics/SVG/1.1/DTD/svg11.dtd">
<!-- Generated by graphviz version 2.43.0 (0)
 -->
<!-- Title: src/crypto/openssl/hash.cpp Pages: 1 -->
<svg width="1874pt" height="431pt"
 viewBox="0.00 0.00 1874.00 431.00" xmlns="http://www.w3.org/2000/svg" xmlns:xlink="http://www.w3.org/1999/xlink">
<g id="graph0" class="graph" transform="scale(1 1) rotate(0) translate(4 427)">
<title>src/crypto/openssl/hash.cpp</title>
<polygon fill="white" stroke="transparent" points="-4,4 -4,-427 1870,-427 1870,4 -4,4"/>
<!-- Node1 -->
<g id="node1" class="node">
<title>Node1</title>
<g id="a_node1"><a xlink:title=" ">
<polygon fill="#bfbfbf" stroke="black" points="1120.5,-392.5 1120.5,-422.5 1225.5,-422.5 1225.5,-392.5 1120.5,-392.5"/>
<text text-anchor="start" x="1128.5" y="-410.5" font-family="Helvetica,sans-Serif" font-size="10.00">src/crypto/openssl</text>
<text text-anchor="middle" x="1173" y="-399.5" font-family="Helvetica,sans-Serif" font-size="10.00">/hash.cpp</text>
</a>
</g>
</g>
<!-- Node2 -->
<g id="node2" class="node">
<title>Node2</title>
<g id="a_node2"><a xlink:href="src_2crypto_2openssl_2hash_8h.html" target="_top" xlink:title=" ">
<polygon fill="white" stroke="black" points="816.5,-336.5 816.5,-355.5 939.5,-355.5 939.5,-336.5 816.5,-336.5"/>
<text text-anchor="middle" x="878" y="-343.5" font-family="Helvetica,sans-Serif" font-size="10.00">crypto/openssl/hash.h</text>
</a>
</g>
</g>
<!-- Node1&#45;&gt;Node2 -->
<g id="edge1" class="edge">
<title>Node1&#45;&gt;Node2</title>
<path fill="none" stroke="midnightblue" d="M1120.26,-395.86C1066.55,-385.03 983.76,-368.33 930.23,-357.53"/>
<polygon fill="midnightblue" stroke="midnightblue" points="930.75,-354.07 920.26,-355.52 929.37,-360.93 930.75,-354.07"/>
</g>
<!-- Node44 -->
<g id="node44" class="node">
<title>Node44</title>
<g id="a_node44"><a xlink:title=" ">
<polygon fill="white" stroke="#bfbfbf" points="1234.5,-280.5 1234.5,-299.5 1317.5,-299.5 1317.5,-280.5 1234.5,-280.5"/>
<text text-anchor="middle" x="1276" y="-287.5" font-family="Helvetica,sans-Serif" font-size="10.00">openssl/sha.h</text>
</a>
</g>
</g>
<!-- Node1&#45;&gt;Node44 -->
<g id="edge66" class="edge">
<title>Node1&#45;&gt;Node44</title>
<path fill="none" stroke="midnightblue" d="M1173.57,-392.32C1174.86,-376.93 1178.99,-352.38 1192,-336 1203.78,-321.16 1221.83,-310.59 1238.19,-303.45"/>
<polygon fill="midnightblue" stroke="midnightblue" points="1239.62,-306.64 1247.56,-299.62 1236.98,-300.16 1239.62,-306.64"/>
</g>
<!-- Node45 -->
<g id="node45" class="node">
<title>Node45</title>
<g id="a_node45"><a xlink:title=" ">
<polygon fill="white" stroke="#bfbfbf" points="1201.5,-336.5 1201.5,-355.5 1266.5,-355.5 1266.5,-336.5 1201.5,-336.5"/>
<text text-anchor="middle" x="1234" y="-343.5" font-family="Helvetica,sans-Serif" font-size="10.00">stdexcept</text>
</a>
</g>
</g>
<!-- Node1&#45;&gt;Node45 -->
<g id="edge67" class="edge">
<title>Node1&#45;&gt;Node45</title>
<path fill="none" stroke="midnightblue" d="M1187.46,-392.4C1196.59,-383.49 1208.42,-371.95 1217.86,-362.74"/>
<polygon fill="midnightblue" stroke="midnightblue" points="1220.41,-365.15 1225.12,-355.66 1215.52,-360.13 1220.41,-365.15"/>
</g>
<!-- Node3 -->
<g id="node3" class="node">
<title>Node3</title>
<g id="a_node3"><a xlink:href="hash__provider_8h.html" target="_top" xlink:title=" ">
<polygon fill="white" stroke="black" points="154.5,-280.5 154.5,-299.5 299.5,-299.5 299.5,-280.5 154.5,-280.5"/>
<text text-anchor="middle" x="227" y="-287.5" font-family="Helvetica,sans-Serif" font-size="10.00">ccf/crypto/hash_provider.h</text>
</a>
</g>
</g>
<!-- Node2&#45;&gt;Node3 -->
<g id="edge2" class="edge">
<title>Node2&#45;&gt;Node3</title>
<path fill="none" stroke="midnightblue" d="M816.46,-339.9C698.85,-330.14 442.08,-308.84 309.65,-297.86"/>
<polygon fill="midnightblue" stroke="midnightblue" points="309.81,-294.36 299.56,-297.02 309.23,-301.33 309.81,-294.36"/>
</g>
<!-- Node18 -->
<g id="node18" class="node">
<title>Node18</title>
<g id="a_node18"><a xlink:title=" ">
<polygon fill="white" stroke="#bfbfbf" points="488.5,-56.5 488.5,-75.5 567.5,-75.5 567.5,-56.5 488.5,-56.5"/>
<text text-anchor="middle" x="528" y="-63.5" font-family="Helvetica,sans-Serif" font-size="10.00">fmt/format.h</text>
</a>
</g>
</g>
<!-- Node2&#45;&gt;Node18 -->
<g id="edge65" class="edge">
<title>Node2&#45;&gt;Node18</title>
<path fill="none" stroke="midnightblue" d="M829.95,-336.4C778.96,-324.66 699.96,-298.5 657,-244 619.36,-196.24 659.86,-158.78 621,-112 608.23,-96.63 588.97,-86.12 571.29,-79.15"/>
<polygon fill="midnightblue" stroke="midnightblue" points="572.27,-75.78 561.67,-75.63 569.86,-82.35 572.27,-75.78"/>
</g>
<!-- Node24 -->
<g id="node24" class="node">
<title>Node24</title>
<g id="a_node24"><a xlink:href="openssl__wrappers_8h.html" target="_top" xlink:title=" ">
<polygon fill="white" stroke="black" points="1103.5,-280.5 1103.5,-299.5 1216.5,-299.5 1216.5,-280.5 1103.5,-280.5"/>
<text text-anchor="middle" x="1160" y="-287.5" font-family="Helvetica,sans-Serif" font-size="10.00">openssl_wrappers.h</text>
</a>
</g>
</g>
<!-- Node2&#45;&gt;Node24 -->
<g id="edge33" class="edge">
<title>Node2&#45;&gt;Node24</title>
<path fill="none" stroke="midnightblue" d="M922.68,-336.44C972.29,-326.94 1052.36,-311.61 1105.59,-301.42"/>
<polygon fill="midnightblue" stroke="midnightblue" points="1106.36,-304.83 1115.53,-299.52 1105.05,-297.96 1106.36,-304.83"/>
</g>
<!-- Node38 -->
<g id="node38" class="node">
<title>Node38</title>
<g id="a_node38"><a xlink:title=" ">
<polygon fill="white" stroke="#bfbfbf" points="666,-224.5 666,-243.5 750,-243.5 750,-224.5 666,-224.5"/>
<text text-anchor="middle" x="708" y="-231.5" font-family="Helvetica,sans-Serif" font-size="10.00">openssl/evp.h</text>
</a>
</g>
</g>
<!-- Node2&#45;&gt;Node38 -->
<g id="edge62" class="edge">
<title>Node2&#45;&gt;Node38</title>
<path fill="none" stroke="midnightblue" d="M877.8,-336.1C877,-322.19 873.42,-295.31 858,-280 843.96,-266.06 797.43,-253.43 759.87,-245.12"/>
<polygon fill="midnightblue" stroke="midnightblue" points="760.56,-241.69 750.05,-243 759.08,-248.54 760.56,-241.69"/>
</g>
<!-- Node43 -->
<g id="node43" class="node">
<title>Node43</title>
<g id="a_node43"><a xlink:title=" ">
<polygon fill="white" stroke="#bfbfbf" points="768.5,-280.5 768.5,-299.5 849.5,-299.5 849.5,-280.5 768.5,-280.5"/>
<text text-anchor="middle" x="809" y="-287.5" font-family="Helvetica,sans-Serif" font-size="10.00">openssl/kdf.h</text>
</a>
</g>
</g>
<!-- Node2&#45;&gt;Node43 -->
<g id="edge63" class="edge">
<title>Node2&#45;&gt;Node43</title>
<path fill="none" stroke="midnightblue" d="M866.91,-336.32C856.51,-328.18 840.74,-315.84 828.28,-306.09"/>
<polygon fill="midnightblue" stroke="midnightblue" points="830.32,-303.24 820.29,-299.83 826.01,-308.75 830.32,-303.24"/>
</g>
<!-- Node2&#45;&gt;Node44 -->
<g id="edge64" class="edge">
<title>Node2&#45;&gt;Node44</title>
<path fill="none" stroke="midnightblue" d="M939.55,-337.88C1006.91,-329.89 1118.32,-316.12 1224.36,-300.04"/>
<polygon fill="midnightblue" stroke="midnightblue" points="1224.92,-303.49 1234.28,-298.52 1223.86,-296.57 1224.92,-303.49"/>
</g>
<!-- Node4 -->
<g id="node4" class="node">
<title>Node4</title>
<g id="a_node4"><a xlink:href="hash__bytes_8h.html" target="_top" xlink:title=" ">
<polygon fill="white" stroke="black" points="104,-224.5 104,-243.5 236,-243.5 236,-224.5 104,-224.5"/>
<text text-anchor="middle" x="170" y="-231.5" font-family="Helvetica,sans-Serif" font-size="10.00">ccf/crypto/hash_bytes.h</text>
</a>
</g>
</g>
<!-- Node3&#45;&gt;Node4 -->
<g id="edge3" class="edge">
<title>Node3&#45;&gt;Node4</title>
<path fill="none" stroke="midnightblue" d="M217.84,-280.32C209.5,-272.42 196.97,-260.55 186.82,-250.94"/>
<polygon fill="midnightblue" stroke="midnightblue" points="188.99,-248.17 179.32,-243.83 184.18,-253.25 188.99,-248.17"/>
</g>
<!-- Node5 -->
<g id="node5" class="node">
<title>Node5</title>
<g id="a_node5"><a xlink:title=" ">
<polygon fill="white" stroke="#bfbfbf" points="66,-168.5 66,-187.5 116,-187.5 116,-168.5 66,-168.5"/>
<text text-anchor="middle" x="91" y="-175.5" font-family="Helvetica,sans-Serif" font-size="10.00">cstdint</text>
</a>
</g>
</g>
<!-- Node3&#45;&gt;Node5 -->
<g id="edge30" class="edge">
<title>Node3&#45;&gt;Node5</title>
<path fill="none" stroke="midnightblue" d="M155.36,-280.48C132.58,-274.1 109.54,-263.05 95,-244 85.04,-230.95 85.09,-211.8 87,-197.66"/>
<polygon fill="midnightblue" stroke="midnightblue" points="90.48,-198.06 88.78,-187.61 83.59,-196.85 90.48,-198.06"/>
</g>
<!-- Node6 -->
<g id="node6" class="node">
<title>Node6</title>
<g id="a_node6"><a xlink:title=" ">
<polygon fill="white" stroke="#bfbfbf" points="609.5,-0.5 609.5,-19.5 656.5,-19.5 656.5,-0.5 609.5,-0.5"/>
<text text-anchor="middle" x="633" y="-7.5" font-family="Helvetica,sans-Serif" font-size="10.00">vector</text>
</a>
</g>
</g>
<!-- Node3&#45;&gt;Node6 -->
<g id="edge32" class="edge">
<title>Node3&#45;&gt;Node6</title>
<path fill="none" stroke="midnightblue" d="M163.45,-280.49C136.44,-274.17 106.14,-263.16 84,-244 56.89,-220.55 37.47,-198.06 57,-168 111.86,-83.58 172.74,-118.52 264,-76 282.38,-67.44 285.58,-61.81 305,-56 425.2,-20.02 461.07,-39.57 585,-20 589.55,-19.28 594.33,-18.46 599.04,-17.62"/>
<polygon fill="midnightblue" stroke="midnightblue" points="599.92,-21.01 609.12,-15.76 598.65,-14.13 599.92,-21.01"/>
</g>
<!-- Node7 -->
<g id="node7" class="node">
<title>Node7</title>
<g id="a_node7"><a xlink:href="md__type_8h.html" target="_top" xlink:title=" ">
<polygon fill="white" stroke="black" points="490.5,-224.5 490.5,-243.5 609.5,-243.5 609.5,-224.5 490.5,-224.5"/>
<text text-anchor="middle" x="550" y="-231.5" font-family="Helvetica,sans-Serif" font-size="10.00">ccf/crypto/md_type.h</text>
</a>
</g>
</g>
<!-- Node3&#45;&gt;Node7 -->
<g id="edge6" class="edge">
<title>Node3&#45;&gt;Node7</title>
<path fill="none" stroke="midnightblue" d="M278.18,-280.44C335.47,-270.87 428.24,-255.36 489.19,-245.17"/>
<polygon fill="midnightblue" stroke="midnightblue" points="489.77,-248.62 499.06,-243.52 488.62,-241.71 489.77,-248.62"/>
</g>
<!-- Node14 -->
<g id="node14" class="node">
<title>Node14</title>
<g id="a_node14"><a xlink:title=" ">
<polygon fill="white" stroke="#bfbfbf" points="51,-0.5 51,-19.5 93,-19.5 93,-0.5 51,-0.5"/>
<text text-anchor="middle" x="72" y="-7.5" font-family="Helvetica,sans-Serif" font-size="10.00">array</text>
</a>
</g>
</g>
<!-- Node3&#45;&gt;Node14 -->
<g id="edge29" class="edge">
<title>Node3&#45;&gt;Node14</title>
<path fill="none" stroke="midnightblue" d="M155.41,-280.47C105.15,-273.15 43.55,-261.06 24,-244 0.8,-223.75 0,-209.8 0,-179 0,-179 0,-179 0,-121 0,-81.94 32.18,-45.94 53.51,-26.37"/>
<polygon fill="midnightblue" stroke="midnightblue" points="55.88,-28.94 61.06,-19.7 51.25,-23.7 55.88,-28.94"/>
</g>
<!-- Node21 -->
<g id="node21" class="node">
<title>Node21</title>
<g id="a_node21"><a xlink:href="sha256__hash_8h.html" target="_top" xlink:title=" ">
<polygon fill="white" stroke="black" points="332,-224.5 332,-243.5 472,-243.5 472,-224.5 332,-224.5"/>
<text text-anchor="middle" x="402" y="-231.5" font-family="Helvetica,sans-Serif" font-size="10.00">ccf/crypto/sha256_hash.h</text>
</a>
</g>
</g>
<!-- Node3&#45;&gt;Node21 -->
<g id="edge24" class="edge">
<title>Node3&#45;&gt;Node21</title>
<path fill="none" stroke="midnightblue" d="M254.73,-280.44C284.43,-271.28 331.72,-256.69 364.67,-246.52"/>
<polygon fill="midnightblue" stroke="midnightblue" points="365.88,-249.81 374.4,-243.52 363.81,-243.12 365.88,-249.81"/>
</g>
<!-- Node23 -->
<g id="node23" class="node">
<title>Node23</title>
<g id="a_node23"><a xlink:title=" ">
<polygon fill="white" stroke="#bfbfbf" points="254,-224.5 254,-243.5 314,-243.5 314,-224.5 254,-224.5"/>
<text text-anchor="middle" x="284" y="-231.5" font-family="Helvetica,sans-Serif" font-size="10.00">iostream</text>
</a>
</g>
</g>
<!-- Node3&#45;&gt;Node23 -->
<g id="edge31" class="edge">
<title>Node3&#45;&gt;Node23</title>
<path fill="none" stroke="midnightblue" d="M236.16,-280.32C244.5,-272.42 257.03,-260.55 267.18,-250.94"/>
<polygon fill="midnightblue" stroke="midnightblue" points="269.82,-253.25 274.68,-243.83 265.01,-248.17 269.82,-253.25"/>
</g>
<!-- Node4&#45;&gt;Node5 -->
<g id="edge4" class="edge">
<title>Node4&#45;&gt;Node5</title>
<path fill="none" stroke="midnightblue" d="M157.31,-224.32C145.1,-215.98 126.42,-203.21 112,-193.35"/>
<polygon fill="midnightblue" stroke="midnightblue" points="113.89,-190.41 103.66,-187.65 109.94,-196.19 113.89,-190.41"/>
</g>
<!-- Node4&#45;&gt;Node6 -->
<g id="edge5" class="edge">
<title>Node4&#45;&gt;Node6</title>
<path fill="none" stroke="midnightblue" d="M175.16,-224.47C193.41,-195.18 258.19,-98.15 340,-56 437.84,-5.59 476.45,-38.14 585,-20 589.54,-19.24 594.32,-18.4 599.03,-17.54"/>
<polygon fill="midnightblue" stroke="midnightblue" points="599.91,-20.94 609.11,-15.67 598.64,-14.06 599.91,-20.94"/>
</g>
<!-- Node8 -->
<g id="node8" class="node">
<title>Node8</title>
<g id="a_node8"><a xlink:href="json_8h.html" target="_top" xlink:title=" ">
<polygon fill="white" stroke="black" points="476.5,-168.5 476.5,-187.5 553.5,-187.5 553.5,-168.5 476.5,-168.5"/>
<text text-anchor="middle" x="515" y="-175.5" font-family="Helvetica,sans-Serif" font-size="10.00">ccf/ds/json.h</text>
</a>
</g>
</g>
<!-- Node7&#45;&gt;Node8 -->
<g id="edge7" class="edge">
<title>Node7&#45;&gt;Node8</title>
<path fill="none" stroke="midnightblue" d="M544.22,-224.08C539.33,-216.53 532.17,-205.49 526.17,-196.23"/>
<polygon fill="midnightblue" stroke="midnightblue" points="529.05,-194.24 520.67,-187.75 523.17,-198.05 529.05,-194.24"/>
</g>
<!-- Node9 -->
<g id="node9" class="node">
<title>Node9</title>
<g id="a_node9"><a xlink:href="include_2ccf_2crypto_2base64_8h.html" target="_top" xlink:title=" ">
<polygon fill="white" stroke="black" points="585,-56.5 585,-75.5 697,-75.5 697,-56.5 585,-56.5"/>
<text text-anchor="middle" x="641" y="-63.5" font-family="Helvetica,sans-Serif" font-size="10.00">ccf/crypto/base64.h</text>
</a>
</g>
</g>
<!-- Node8&#45;&gt;Node9 -->
<g id="edge8" class="edge">
<title>Node8&#45;&gt;Node9</title>
<path fill="none" stroke="midnightblue" d="M553.59,-169.2C576.11,-162.78 603.46,-151.45 621,-132 632.48,-119.27 637.37,-100.07 639.46,-85.84"/>
<polygon fill="midnightblue" stroke="midnightblue" points="642.96,-86.03 640.6,-75.7 636,-85.25 642.96,-86.03"/>
</g>
<!-- Node11 -->
<g id="node11" class="node">
<title>Node11</title>
<g id="a_node11"><a xlink:href="include_2ccf_2ds_2json__schema_8h.html" target="_top" xlink:title=" ">
<polygon fill="white" stroke="black" points="340.5,-112.5 340.5,-131.5 461.5,-131.5 461.5,-112.5 340.5,-112.5"/>
<text text-anchor="middle" x="401" y="-119.5" font-family="Helvetica,sans-Serif" font-size="10.00">ccf/ds/json_schema.h</text>
</a>
</g>
</g>
<!-- Node8&#45;&gt;Node11 -->
<g id="edge11" class="edge">
<title>Node8&#45;&gt;Node11</title>
<path fill="none" stroke="midnightblue" d="M496.94,-168.44C478.43,-159.68 449.42,-145.94 428.14,-135.86"/>
<polygon fill="midnightblue" stroke="midnightblue" points="429.51,-132.63 418.98,-131.52 426.52,-138.96 429.51,-132.63"/>
</g>
<!-- Node8&#45;&gt;Node18 -->
<g id="edge22" class="edge">
<title>Node8&#45;&gt;Node18</title>
<path fill="none" stroke="midnightblue" d="M516.02,-168.37C518.12,-150.62 522.96,-109.67 525.8,-85.6"/>
<polygon fill="midnightblue" stroke="midnightblue" points="529.29,-85.93 526.98,-75.59 522.34,-85.11 529.29,-85.93"/>
</g>
<!-- Node20 -->
<g id="node20" class="node">
<title>Node20</title>
<g id="a_node20"><a xlink:title=" ">
<polygon fill="white" stroke="#bfbfbf" points="556,-112.5 556,-131.5 612,-131.5 612,-112.5 556,-112.5"/>
<text text-anchor="middle" x="584" y="-119.5" font-family="Helvetica,sans-Serif" font-size="10.00">sstream</text>
</a>
</g>
</g>
<!-- Node8&#45;&gt;Node20 -->
<g id="edge23" class="edge">
<title>Node8&#45;&gt;Node20</title>
<path fill="none" stroke="midnightblue" d="M526.09,-168.32C536.49,-160.18 552.26,-147.84 564.72,-138.09"/>
<polygon fill="midnightblue" stroke="midnightblue" points="566.99,-140.75 572.71,-131.83 562.68,-135.24 566.99,-140.75"/>
</g>
<!-- Node9&#45;&gt;Node6 -->
<g id="edge10" class="edge">
<title>Node9&#45;&gt;Node6</title>
<path fill="none" stroke="midnightblue" d="M639.68,-56.08C638.62,-48.93 637.09,-38.64 635.77,-29.69"/>
<polygon fill="midnightblue" stroke="midnightblue" points="639.22,-29.13 634.3,-19.75 632.3,-30.16 639.22,-29.13"/>
</g>
<!-- Node10 -->
<g id="node10" class="node">
<title>Node10</title>
<g id="a_node10"><a xlink:title=" ">
<polygon fill="white" stroke="#bfbfbf" points="410,-0.5 410,-19.5 454,-19.5 454,-0.5 410,-0.5"/>
<text text-anchor="middle" x="432" y="-7.5" font-family="Helvetica,sans-Serif" font-size="10.00">string</text>
</a>
</g>
</g>
<!-- Node9&#45;&gt;Node10 -->
<g id="edge9" class="edge">
<title>Node9&#45;&gt;Node10</title>
<path fill="none" stroke="midnightblue" d="M607.88,-56.44C568.37,-46.23 502.76,-29.28 463.82,-19.22"/>
<polygon fill="midnightblue" stroke="midnightblue" points="464.62,-15.81 454.06,-16.7 462.87,-22.59 464.62,-15.81"/>
</g>
<!-- Node12 -->
<g id="node12" class="node">
<title>Node12</title>
<g id="a_node12"><a xlink:href="nonstd_8h.html" target="_top" xlink:title=" ">
<polygon fill="white" stroke="black" points="165,-56.5 165,-75.5 255,-75.5 255,-56.5 165,-56.5"/>
<text text-anchor="middle" x="210" y="-63.5" font-family="Helvetica,sans-Serif" font-size="10.00">ccf/ds/nonstd.h</text>
</a>
</g>
</g>
<!-- Node11&#45;&gt;Node12 -->
<g id="edge12" class="edge">
<title>Node11&#45;&gt;Node12</title>
<path fill="none" stroke="midnightblue" d="M370.74,-112.44C338.04,-103.2 285.82,-88.44 249.82,-78.26"/>
<polygon fill="midnightblue" stroke="midnightblue" points="250.7,-74.87 240.12,-75.52 248.79,-81.61 250.7,-74.87"/>
</g>
<!-- Node11&#45;&gt;Node18 -->
<g id="edge20" class="edge">
<title>Node11&#45;&gt;Node18</title>
<path fill="none" stroke="midnightblue" d="M421.12,-112.44C442.02,-103.56 474.93,-89.56 498.72,-79.45"/>
<polygon fill="midnightblue" stroke="midnightblue" points="500.14,-82.65 507.97,-75.52 497.4,-76.21 500.14,-82.65"/>
</g>
<!-- Node19 -->
<g id="node19" class="node">
<title>Node19</title>
<g id="a_node19"><a xlink:title=" ">
<polygon fill="white" stroke="#bfbfbf" points="349,-56.5 349,-75.5 459,-75.5 459,-56.5 349,-56.5"/>
<text text-anchor="middle" x="404" y="-63.5" font-family="Helvetica,sans-Serif" font-size="10.00">nlohmann/json.hpp</text>
</a>
</g>
</g>
<!-- Node11&#45;&gt;Node19 -->
<g id="edge21" class="edge">
<title>Node11&#45;&gt;Node19</title>
<path fill="none" stroke="midnightblue" d="M401.5,-112.08C401.89,-105.01 402.45,-94.86 402.95,-85.99"/>
<polygon fill="midnightblue" stroke="midnightblue" points="406.45,-85.93 403.51,-75.75 399.46,-85.54 406.45,-85.93"/>
</g>
<!-- Node12&#45;&gt;Node6 -->
<g id="edge19" class="edge">
<title>Node12&#45;&gt;Node6</title>
<path fill="none" stroke="midnightblue" d="M255.07,-57.94C259.77,-57.26 264.48,-56.6 269,-56 409.12,-37.34 445.22,-41.04 585,-20 589.56,-19.31 594.34,-18.51 599.05,-17.68"/>
<polygon fill="midnightblue" stroke="midnightblue" points="599.93,-21.08 609.13,-15.83 598.66,-14.19 599.93,-21.08"/>
</g>
<!-- Node12&#45;&gt;Node10 -->
<g id="edge16" class="edge">
<title>Node12&#45;&gt;Node10</title>
<path fill="none" stroke="midnightblue" d="M245.18,-56.44C287.78,-46.08 358.93,-28.77 400.04,-18.77"/>
<polygon fill="midnightblue" stroke="midnightblue" points="400.92,-22.16 409.8,-16.4 399.26,-15.36 400.92,-22.16"/>
</g>
<!-- Node13 -->
<g id="node13" class="node">
<title>Node13</title>
<g id="a_node13"><a xlink:title=" ">
<polygon fill="white" stroke="#bfbfbf" points="111,-0.5 111,-19.5 175,-19.5 175,-0.5 111,-0.5"/>
<text text-anchor="middle" x="143" y="-7.5" font-family="Helvetica,sans-Serif" font-size="10.00">algorithm</text>
</a>
</g>
</g>
<!-- Node12&#45;&gt;Node13 -->
<g id="edge13" class="edge">
<title>Node12&#45;&gt;Node13</title>
<path fill="none" stroke="midnightblue" d="M199.24,-56.32C189.23,-48.26 174.11,-36.08 162.07,-26.37"/>
<polygon fill="midnightblue" stroke="midnightblue" points="163.94,-23.38 153.96,-19.83 159.55,-28.83 163.94,-23.38"/>
</g>
<!-- Node12&#45;&gt;Node14 -->
<g id="edge14" class="edge">
<title>Node12&#45;&gt;Node14</title>
<path fill="none" stroke="midnightblue" d="M188.13,-56.44C165.09,-47.42 128.6,-33.15 102.68,-23"/>
<polygon fill="midnightblue" stroke="midnightblue" points="103.9,-19.72 93.31,-19.34 101.35,-26.24 103.9,-19.72"/>
</g>
<!-- Node15 -->
<g id="node15" class="node">
<title>Node15</title>
<g id="a_node15"><a xlink:title=" ">
<polygon fill="white" stroke="#bfbfbf" points="193.5,-0.5 193.5,-19.5 242.5,-19.5 242.5,-0.5 193.5,-0.5"/>
<text text-anchor="middle" x="218" y="-7.5" font-family="Helvetica,sans-Serif" font-size="10.00">cctype</text>
</a>
</g>
</g>
<!-- Node12&#45;&gt;Node15 -->
<g id="edge15" class="edge">
<title>Node12&#45;&gt;Node15</title>
<path fill="none" stroke="midnightblue" d="M211.32,-56.08C212.38,-48.93 213.91,-38.64 215.23,-29.69"/>
<polygon fill="midnightblue" stroke="midnightblue" points="218.7,-30.16 216.7,-19.75 211.78,-29.13 218.7,-30.16"/>
</g>
<!-- Node16 -->
<g id="node16" class="node">
<title>Node16</title>
<g id="a_node16"><a xlink:title=" ">
<polygon fill="white" stroke="#bfbfbf" points="503.5,-0.5 503.5,-19.5 576.5,-19.5 576.5,-0.5 503.5,-0.5"/>
<text text-anchor="middle" x="540" y="-7.5" font-family="Helvetica,sans-Serif" font-size="10.00">string_view</text>
</a>
</g>
</g>
<!-- Node12&#45;&gt;Node16 -->
<g id="edge17" class="edge">
<title>Node12&#45;&gt;Node16</title>
<path fill="none" stroke="midnightblue" d="M255.19,-57.6C317.73,-47.37 430.09,-28.99 493.37,-18.63"/>
<polygon fill="midnightblue" stroke="midnightblue" points="494.17,-22.05 503.47,-16.98 493.04,-15.14 494.17,-22.05"/>
</g>
<!-- Node17 -->
<g id="node17" class="node">
<title>Node17</title>
<g id="a_node17"><a xlink:title=" ">
<polygon fill="white" stroke="#bfbfbf" points="260.5,-0.5 260.5,-19.5 329.5,-19.5 329.5,-0.5 260.5,-0.5"/>
<text text-anchor="middle" x="295" y="-7.5" font-family="Helvetica,sans-Serif" font-size="10.00">type_traits</text>
</a>
</g>
</g>
<!-- Node12&#45;&gt;Node17 -->
<g id="edge18" class="edge">
<title>Node12&#45;&gt;Node17</title>
<path fill="none" stroke="midnightblue" d="M223.66,-56.32C236.92,-47.9 257.27,-34.97 272.85,-25.07"/>
<polygon fill="midnightblue" stroke="midnightblue" points="274.81,-27.97 281.38,-19.65 271.06,-22.06 274.81,-27.97"/>
</g>
<!-- Node21&#45;&gt;Node8 -->
<g id="edge25" class="edge">
<title>Node21&#45;&gt;Node8</title>
<path fill="none" stroke="midnightblue" d="M419.91,-224.44C438.25,-215.68 467.01,-201.94 488.09,-191.86"/>
<polygon fill="midnightblue" stroke="midnightblue" points="489.67,-194.99 497.18,-187.52 486.65,-188.67 489.67,-194.99"/>
</g>
<!-- Node21&#45;&gt;Node14 -->
<g id="edge26" class="edge">
<title>Node21&#45;&gt;Node14</title>
<path fill="none" stroke="midnightblue" d="M387.56,-224.41C349.15,-201.44 241.56,-136.22 156,-76 132.76,-59.64 107.05,-39.42 90.28,-25.91"/>
<polygon fill="midnightblue" stroke="midnightblue" points="92.35,-23.09 82.38,-19.52 87.95,-28.53 92.35,-23.09"/>
</g>
<!-- Node21&#45;&gt;Node18 -->
<g id="edge28" class="edge">
<title>Node21&#45;&gt;Node18</title>
<path fill="none" stroke="midnightblue" d="M408.77,-224.08C428.95,-197.49 488.88,-118.54 515.28,-83.76"/>
<polygon fill="midnightblue" stroke="midnightblue" points="518.24,-85.65 521.5,-75.57 512.66,-81.42 518.24,-85.65"/>
</g>
<!-- Node22 -->
<g id="node22" class="node">
<title>Node22</title>
<g id="a_node22"><a xlink:title=" ">
<polygon fill="white" stroke="#bfbfbf" points="572,-168.5 572,-187.5 612,-187.5 612,-168.5 572,-168.5"/>
<text text-anchor="middle" x="592" y="-175.5" font-family="Helvetica,sans-Serif" font-size="10.00">span</text>
</a>
</g>
</g>
<!-- Node21&#45;&gt;Node22 -->
<g id="edge27" class="edge">
<title>Node21&#45;&gt;Node22</title>
<path fill="none" stroke="midnightblue" d="M433.02,-224.45C465.28,-215.51 517.25,-201 562,-188 562.1,-187.97 562.2,-187.94 562.29,-187.91"/>
<polygon fill="midnightblue" stroke="midnightblue" points="563.08,-191.33 571.68,-185.15 561.1,-184.62 563.08,-191.33"/>
</g>
<!-- Node24&#45;&gt;Node18 -->
<g id="edge51" class="edge">
<title>Node24&#45;&gt;Node18</title>
<path fill="none" stroke="midnightblue" d="M1103.3,-286.2C1015.23,-281.15 850.14,-268.65 797,-244 718.54,-207.6 728,-156.78 654,-112 629.02,-96.88 598.2,-85.76 573.29,-78.36"/>
<polygon fill="midnightblue" stroke="midnightblue" points="573.94,-74.91 563.37,-75.51 572.01,-81.63 573.94,-74.91"/>
</g>
<!-- Node25 -->
<g id="node25" class="node">
<title>Node25</title>
<g id="a_node25"><a xlink:href="pem_8h.html" target="_top" xlink:title=" ">
<polygon fill="white" stroke="black" points="1034,-224.5 1034,-243.5 1132,-243.5 1132,-224.5 1034,-224.5"/>
<text text-anchor="middle" x="1083" y="-231.5" font-family="Helvetica,sans-Serif" font-size="10.00">ccf/crypto/pem.h</text>
</a>
</g>
</g>
<!-- Node24&#45;&gt;Node25 -->
<g id="edge34" class="edge">
<title>Node24&#45;&gt;Node25</title>
<path fill="none" stroke="midnightblue" d="M1147.63,-280.32C1135.84,-272.06 1117.87,-259.45 1103.86,-249.63"/>
<polygon fill="midnightblue" stroke="midnightblue" points="1105.54,-246.53 1095.34,-243.65 1101.52,-252.26 1105.54,-246.53"/>
</g>
<!-- Node28 -->
<g id="node28" class="node">
<title>Node28</title>
<g id="a_node28"><a xlink:title=" ">
<polygon fill="white" stroke="#bfbfbf" points="1111,-168.5 1111,-187.5 1169,-187.5 1169,-168.5 1111,-168.5"/>
<text text-anchor="middle" x="1140" y="-175.5" font-family="Helvetica,sans-Serif" font-size="10.00">memory</text>
</a>
</g>
</g>
<!-- Node24&#45;&gt;Node28 -->
<g id="edge52" class="edge">
<title>Node24&#45;&gt;Node28</title>
<path fill="none" stroke="midnightblue" d="M1158.43,-280.37C1155.2,-262.62 1147.76,-221.67 1143.38,-197.6"/>
<polygon fill="midnightblue" stroke="midnightblue" points="1146.79,-196.8 1141.56,-187.59 1139.91,-198.06 1146.79,-196.8"/>
</g>
<!-- Node29 -->
<g id="node29" class="node">
<title>Node29</title>
<g id="a_node29"><a xlink:title=" ">
<polygon fill="white" stroke="#bfbfbf" points="1098,-112.5 1098,-131.5 1148,-131.5 1148,-112.5 1098,-112.5"/>
<text text-anchor="middle" x="1123" y="-119.5" font-family="Helvetica,sans-Serif" font-size="10.00">chrono</text>
</a>
</g>
</g>
<!-- Node24&#45;&gt;Node29 -->
<g id="edge42" class="edge">
<title>Node24&#45;&gt;Node29</title>
<path fill="none" stroke="midnightblue" d="M1164.52,-280.29C1174.54,-259.69 1196.37,-206.77 1178,-168 1171.87,-155.07 1160.01,-144.62 1148.86,-137.05"/>
<polygon fill="midnightblue" stroke="midnightblue" points="1150.53,-133.97 1140.2,-131.61 1146.81,-139.9 1150.53,-133.97"/>
</g>
<!-- Node30 -->
<g id="node30" class="node">
<title>Node30</title>
<g id="a_node30"><a xlink:href="x509__time__fmt_8h.html" target="_top" xlink:title=" ">
<polygon fill="white" stroke="black" points="1225,-168.5 1225,-187.5 1339,-187.5 1339,-168.5 1225,-168.5"/>
<text text-anchor="middle" x="1282" y="-175.5" font-family="Helvetica,sans-Serif" font-size="10.00">ds/x509_time_fmt.h</text>
</a>
</g>
</g>
<!-- Node24&#45;&gt;Node30 -->
<g id="edge43" class="edge">
<title>Node24&#45;&gt;Node30</title>
<path fill="none" stroke="midnightblue" d="M1170.06,-280.48C1180.6,-271.5 1197.6,-256.91 1212,-244 1230.58,-227.34 1251.5,-207.81 1265.59,-194.54"/>
<polygon fill="midnightblue" stroke="midnightblue" points="1268.16,-196.93 1273.03,-187.52 1263.36,-191.84 1268.16,-196.93"/>
</g>
<!-- Node34 -->
<g id="node34" class="node">
<title>Node34</title>
<g id="a_node34"><a xlink:title=" ">
<polygon fill="white" stroke="#bfbfbf" points="1264.5,-224.5 1264.5,-243.5 1353.5,-243.5 1353.5,-224.5 1264.5,-224.5"/>
<text text-anchor="middle" x="1309" y="-231.5" font-family="Helvetica,sans-Serif" font-size="10.00">openssl/asn1.h</text>
</a>
</g>
</g>
<!-- Node24&#45;&gt;Node34 -->
<g id="edge53" class="edge">
<title>Node24&#45;&gt;Node34</title>
<path fill="none" stroke="midnightblue" d="M1183.61,-280.44C1208.46,-271.44 1247.77,-257.19 1275.75,-247.05"/>
<polygon fill="midnightblue" stroke="midnightblue" points="1277.29,-250.21 1285.5,-243.52 1274.91,-243.63 1277.29,-250.21"/>
</g>
<!-- Node35 -->
<g id="node35" class="node">
<title>Node35</title>
<g id="a_node35"><a xlink:title=" ">
<polygon fill="white" stroke="#bfbfbf" points="1371.5,-224.5 1371.5,-243.5 1448.5,-243.5 1448.5,-224.5 1371.5,-224.5"/>
<text text-anchor="middle" x="1410" y="-231.5" font-family="Helvetica,sans-Serif" font-size="10.00">openssl/ec.h</text>
</a>
</g>
</g>
<!-- Node24&#45;&gt;Node35 -->
<g id="edge54" class="edge">
<title>Node24&#45;&gt;Node35</title>
<path fill="none" stroke="midnightblue" d="M1199.61,-280.44C1243.48,-270.97 1314.23,-255.69 1361.41,-245.5"/>
<polygon fill="midnightblue" stroke="midnightblue" points="1362.36,-248.87 1371.39,-243.34 1360.88,-242.03 1362.36,-248.87"/>
</g>
<!-- Node36 -->
<g id="node36" class="node">
<title>Node36</title>
<g id="a_node36"><a xlink:title=" ">
<polygon fill="white" stroke="#bfbfbf" points="1466.5,-224.5 1466.5,-243.5 1565.5,-243.5 1565.5,-224.5 1466.5,-224.5"/>
<text text-anchor="middle" x="1516" y="-231.5" font-family="Helvetica,sans-Serif" font-size="10.00">openssl/engine.h</text>
</a>
</g>
</g>
<!-- Node24&#45;&gt;Node36 -->
<g id="edge55" class="edge">
<title>Node24&#45;&gt;Node36</title>
<path fill="none" stroke="midnightblue" d="M1216.58,-280.53C1274.37,-271.86 1366.96,-257.92 1456.3,-244.26"/>
<polygon fill="midnightblue" stroke="midnightblue" points="1456.97,-247.69 1466.33,-242.72 1455.91,-240.77 1456.97,-247.69"/>
</g>
<!-- Node37 -->
<g id="node37" class="node">
<title>Node37</title>
<g id="a_node37"><a xlink:title=" ">
<polygon fill="white" stroke="#bfbfbf" points="1583.5,-224.5 1583.5,-243.5 1662.5,-243.5 1662.5,-224.5 1583.5,-224.5"/>
<text text-anchor="middle" x="1623" y="-231.5" font-family="Helvetica,sans-Serif" font-size="10.00">openssl/err.h</text>
</a>
</g>
</g>
<!-- Node24&#45;&gt;Node37 -->
<g id="edge56" class="edge">
<title>Node24&#45;&gt;Node37</title>
<path fill="none" stroke="midnightblue" d="M1216.71,-281.03C1219.51,-280.67 1222.29,-280.33 1225,-280 1376.92,-261.68 1418.47,-266.22 1573.14,-244.17"/>
<polygon fill="midnightblue" stroke="midnightblue" points="1574.09,-247.57 1583.49,-242.68 1573.09,-240.64 1574.09,-247.57"/>
</g>
<!-- Node24&#45;&gt;Node38 -->
<g id="edge57" class="edge">
<title>Node24&#45;&gt;Node38</title>
<path fill="none" stroke="midnightblue" d="M1103.17,-283.38C1026.18,-275.56 884.48,-260.52 764,-244 762.74,-243.83 761.46,-243.65 760.17,-243.47"/>
<polygon fill="midnightblue" stroke="midnightblue" points="760.57,-239.99 750.17,-241.99 759.55,-246.91 760.57,-239.99"/>
</g>
<!-- Node39 -->
<g id="node39" class="node">
<title>Node39</title>
<g id="a_node39"><a xlink:title=" ">
<polygon fill="white" stroke="#bfbfbf" points="1680,-224.5 1680,-243.5 1768,-243.5 1768,-224.5 1680,-224.5"/>
<text text-anchor="middle" x="1724" y="-231.5" font-family="Helvetica,sans-Serif" font-size="10.00">openssl/pem.h</text>
</a>
</g>
</g>
<!-- Node24&#45;&gt;Node39 -->
<g id="edge58" class="edge">
<title>Node24&#45;&gt;Node39</title>
<path fill="none" stroke="midnightblue" d="M1216.7,-280.96C1219.5,-280.62 1222.28,-280.3 1225,-280 1419.84,-258.68 1472.53,-268.67 1669.68,-244.2"/>
<polygon fill="midnightblue" stroke="midnightblue" points="1670.3,-247.65 1679.79,-242.93 1669.43,-240.71 1670.3,-247.65"/>
</g>
<!-- Node40 -->
<g id="node40" class="node">
<title>Node40</title>
<g id="a_node40"><a xlink:title=" ">
<polygon fill="white" stroke="#bfbfbf" points="1786,-224.5 1786,-243.5 1866,-243.5 1866,-224.5 1786,-224.5"/>
<text text-anchor="middle" x="1826" y="-231.5" font-family="Helvetica,sans-Serif" font-size="10.00">openssl/ssl.h</text>
</a>
</g>
</g>
<!-- Node24&#45;&gt;Node40 -->
<g id="edge59" class="edge">
<title>Node24&#45;&gt;Node40</title>
<path fill="none" stroke="midnightblue" d="M1216.69,-280.9C1219.5,-280.58 1222.28,-280.28 1225,-280 1466.25,-255.46 1531.25,-273.74 1775.68,-244.01"/>
<polygon fill="midnightblue" stroke="midnightblue" points="1776.45,-247.45 1785.95,-242.75 1775.59,-240.5 1776.45,-247.45"/>
</g>
<!-- Node41 -->
<g id="node41" class="node">
<title>Node41</title>
<g id="a_node41"><a xlink:title=" ">
<polygon fill="white" stroke="#bfbfbf" points="806,-224.5 806,-243.5 896,-243.5 896,-224.5 806,-224.5"/>
<text text-anchor="middle" x="851" y="-231.5" font-family="Helvetica,sans-Serif" font-size="10.00">openssl/x509.h</text>
</a>
</g>
</g>
<!-- Node24&#45;&gt;Node41 -->
<g id="edge60" class="edge">
<title>Node24&#45;&gt;Node41</title>
<path fill="none" stroke="midnightblue" d="M1111.04,-280.44C1055.33,-270.71 964.56,-254.85 906.34,-244.67"/>
<polygon fill="midnightblue" stroke="midnightblue" points="906.67,-241.18 896.21,-242.9 905.46,-248.07 906.67,-241.18"/>
</g>
<!-- Node42 -->
<g id="node42" class="node">
<title>Node42</title>
<g id="a_node42"><a xlink:title=" ">
<polygon fill="white" stroke="#bfbfbf" points="914,-224.5 914,-243.5 1016,-243.5 1016,-224.5 914,-224.5"/>
<text text-anchor="middle" x="965" y="-231.5" font-family="Helvetica,sans-Serif" font-size="10.00">openssl/x509v3.h</text>
</a>
</g>
</g>
<!-- Node24&#45;&gt;Node42 -->
<g id="edge61" class="edge">
<title>Node24&#45;&gt;Node42</title>
<path fill="none" stroke="midnightblue" d="M1129.1,-280.44C1095.73,-271.2 1042.41,-256.44 1005.65,-246.26"/>
<polygon fill="midnightblue" stroke="midnightblue" points="1006.33,-242.81 995.75,-243.52 1004.46,-249.56 1006.33,-242.81"/>
</g>
<!-- Node25&#45;&gt;Node6 -->
<g id="edge41" class="edge">
<title>Node25&#45;&gt;Node6</title>
<path fill="none" stroke="midnightblue" d="M1034.48,-224.45C999.48,-217.28 951.63,-205.4 912,-188 899.55,-182.54 717.51,-63.23 706,-56 689.25,-45.47 670.22,-33.75 655.79,-24.91"/>
<polygon fill="midnightblue" stroke="midnightblue" points="657.4,-21.79 647.04,-19.55 653.74,-27.76 657.4,-21.79"/>
</g>
<!-- Node25&#45;&gt;Node8 -->
<g id="edge35" class="edge">
<title>Node25&#45;&gt;Node8</title>
<path fill="none" stroke="midnightblue" d="M1033.99,-225.13C1030.95,-224.72 1027.94,-224.34 1025,-224 823.72,-200.58 768.93,-214.55 563.91,-187.97"/>
<polygon fill="midnightblue" stroke="midnightblue" points="564.09,-184.46 553.72,-186.63 563.17,-191.4 564.09,-184.46"/>
</g>
<!-- Node25&#45;&gt;Node16 -->
<g id="edge40" class="edge">
<title>Node25&#45;&gt;Node16</title>
<path fill="none" stroke="midnightblue" d="M1082.93,-224.13C1082.34,-210.26 1079.15,-183.44 1064,-168 947.23,-49.01 866.04,-102.71 706,-56 664.31,-43.83 616.4,-30.96 582.81,-22.12"/>
<polygon fill="midnightblue" stroke="midnightblue" points="583.42,-18.66 572.86,-19.51 581.64,-25.43 583.42,-18.66"/>
</g>
<!-- Node25&#45;&gt;Node22 -->
<g id="edge39" class="edge">
<title>Node25&#45;&gt;Node22</title>
<path fill="none" stroke="midnightblue" d="M1033.98,-225.22C1030.94,-224.79 1027.93,-224.38 1025,-224 874.22,-204.48 693.02,-187.85 622.33,-181.62"/>
<polygon fill="midnightblue" stroke="midnightblue" points="622.6,-178.13 612.33,-180.75 621.99,-185.11 622.6,-178.13"/>
</g>
<!-- Node26 -->
<g id="node26" class="node">
<title>Node26</title>
<g id="a_node26"><a xlink:title=" ">
<polygon fill="white" stroke="#bfbfbf" points="1005,-168.5 1005,-187.5 1055,-187.5 1055,-168.5 1005,-168.5"/>
<text text-anchor="middle" x="1030" y="-175.5" font-family="Helvetica,sans-Serif" font-size="10.00">cstring</text>
</a>
</g>
</g>
<!-- Node25&#45;&gt;Node26 -->
<g id="edge36" class="edge">
<title>Node25&#45;&gt;Node26</title>
<path fill="none" stroke="midnightblue" d="M1074.25,-224.08C1066.53,-216.22 1055.1,-204.57 1045.78,-195.08"/>
<polygon fill="midnightblue" stroke="midnightblue" points="1048.09,-192.44 1038.59,-187.75 1043.1,-197.34 1048.09,-192.44"/>
</g>
<!-- Node27 -->
<g id="node27" class="node">
<title>Node27</title>
<g id="a_node27"><a xlink:title=" ">
<polygon fill="white" stroke="#bfbfbf" points="921.5,-168.5 921.5,-187.5 986.5,-187.5 986.5,-168.5 921.5,-168.5"/>
<text text-anchor="middle" x="954" y="-175.5" font-family="Helvetica,sans-Serif" font-size="10.00">exception</text>
</a>
</g>
</g>
<!-- Node25&#45;&gt;Node27 -->
<g id="edge37" class="edge">
<title>Node25&#45;&gt;Node27</title>
<path fill="none" stroke="midnightblue" d="M1062.56,-224.44C1041.33,-215.56 1007.9,-201.56 983.75,-191.45"/>
<polygon fill="midnightblue" stroke="midnightblue" points="984.92,-188.15 974.34,-187.52 982.22,-194.61 984.92,-188.15"/>
</g>
<!-- Node25&#45;&gt;Node28 -->
<g id="edge38" class="edge">
<title>Node25&#45;&gt;Node28</title>
<path fill="none" stroke="midnightblue" d="M1092.16,-224.32C1100.5,-216.42 1113.03,-204.55 1123.18,-194.94"/>
<polygon fill="midnightblue" stroke="midnightblue" points="1125.82,-197.25 1130.68,-187.83 1121.01,-192.17 1125.82,-197.25"/>
</g>
<!-- Node30&#45;&gt;Node6 -->
<g id="edge50" class="edge">
<title>Node30&#45;&gt;Node6</title>
<path fill="none" stroke="midnightblue" d="M1272.87,-168.28C1257.49,-154.12 1224.88,-126.28 1192,-112 1005.33,-30.92 756.37,-14.93 666.85,-11.77"/>
<polygon fill="midnightblue" stroke="midnightblue" points="666.84,-8.27 656.73,-11.45 666.62,-15.27 666.84,-8.27"/>
</g>
<!-- Node30&#45;&gt;Node18 -->
<g id="edge46" class="edge">
<title>Node30&#45;&gt;Node18</title>
<path fill="none" stroke="midnightblue" d="M1266.52,-168.49C1235.69,-151.6 1168.55,-115.2 1157,-112 910.87,-43.7 834.67,-106.27 577.75,-76.06"/>
<polygon fill="midnightblue" stroke="midnightblue" points="578.1,-72.57 567.75,-74.84 577.26,-79.52 578.1,-72.57"/>
</g>
<!-- Node30&#45;&gt;Node20 -->
<g id="edge48" class="edge">
<title>Node30&#45;&gt;Node20</title>
<path fill="none" stroke="midnightblue" d="M1224.79,-171.94C1209.59,-170.62 1193.17,-169.23 1178,-168 968.32,-150.99 716.83,-132.6 622.36,-125.76"/>
<polygon fill="midnightblue" stroke="midnightblue" points="622.37,-122.25 612.14,-125.02 621.87,-129.24 622.37,-122.25"/>
</g>
<!-- Node30&#45;&gt;Node29 -->
<g id="edge44" class="edge">
<title>Node30&#45;&gt;Node29</title>
<path fill="none" stroke="midnightblue" d="M1256.81,-168.44C1230.06,-159.36 1187.6,-144.94 1157.69,-134.78"/>
<polygon fill="midnightblue" stroke="midnightblue" points="1158.67,-131.42 1148.08,-131.52 1156.42,-138.05 1158.67,-131.42"/>
</g>
<!-- Node31 -->
<g id="node31" class="node">
<title>Node31</title>
<g id="a_node31"><a xlink:title=" ">
<polygon fill="white" stroke="#bfbfbf" points="1242.5,-112.5 1242.5,-131.5 1321.5,-131.5 1321.5,-112.5 1242.5,-112.5"/>
<text text-anchor="middle" x="1282" y="-119.5" font-family="Helvetica,sans-Serif" font-size="10.00">fmt/chrono.h</text>
</a>
</g>
</g>
<!-- Node30&#45;&gt;Node31 -->
<g id="edge45" class="edge">
<title>Node30&#45;&gt;Node31</title>
<path fill="none" stroke="midnightblue" d="M1282,-168.08C1282,-161.01 1282,-150.86 1282,-141.99"/>
<polygon fill="midnightblue" stroke="midnightblue" points="1285.5,-141.75 1282,-131.75 1278.5,-141.75 1285.5,-141.75"/>
</g>
<!-- Node32 -->
<g id="node32" class="node">
<title>Node32</title>
<g id="a_node32"><a xlink:title=" ">
<polygon fill="white" stroke="#bfbfbf" points="1339,-112.5 1339,-131.5 1395,-131.5 1395,-112.5 1339,-112.5"/>
<text text-anchor="middle" x="1367" y="-119.5" font-family="Helvetica,sans-Serif" font-size="10.00">iomanip</text>
</a>
</g>
</g>
<!-- Node30&#45;&gt;Node32 -->
<g id="edge47" class="edge">
<title>Node30&#45;&gt;Node32</title>
<path fill="none" stroke="midnightblue" d="M1295.66,-168.32C1308.92,-159.9 1329.27,-146.97 1344.85,-137.07"/>
<polygon fill="midnightblue" stroke="midnightblue" points="1346.81,-139.97 1353.38,-131.65 1343.06,-134.06 1346.81,-139.97"/>
</g>
<!-- Node33 -->
<g id="node33" class="node">
<title>Node33</title>
<g id="a_node33"><a xlink:title=" ">
<polygon fill="white" stroke="#bfbfbf" points="1413,-112.5 1413,-131.5 1461,-131.5 1461,-112.5 1413,-112.5"/>
<text text-anchor="middle" x="1437" y="-119.5" font-family="Helvetica,sans-Serif" font-size="10.00">time.h</text>
</a>
</g>
</g>
<!-- Node30&#45;&gt;Node33 -->
<g id="edge49" class="edge">
<title>Node30&#45;&gt;Node33</title>
<path fill="none" stroke="midnightblue" d="M1306.56,-168.44C1332.6,-159.37 1373.91,-144.98 1403.05,-134.83"/>
<polygon fill="midnightblue" stroke="midnightblue" points="1404.52,-138.02 1412.81,-131.43 1402.22,-131.41 1404.52,-138.02"/>
</g>
</g>
</svg>
